# https://github.com/mikedh/trimesh

o geometry_0
v 14.24999982 14.24999982 64.00000000 0.54509804 0.71372549 0.60000000
v 14.24999982 -14.24999982 64.00000000 0.54509804 0.71372549 0.60000000
v 14.24999982 14.24999982 60.95443615 0.54509804 0.71372549 0.60000000
v -14.24999982 14.24999982 64.00000000 0.54509804 0.71372549 0.60000000
v 14.24999982 -14.24999982 60.95443615 0.54509804 0.71372549 0.60000000
v -14.24999982 -14.24999982 64.00000000 0.54509804 0.71372549 0.60000000
v -14.24999982 14.24999982 60.95443615 0.54509804 0.71372549 0.60000000
v -14.24999982 -14.24999982 60.95443615 0.54509804 0.71372549 0.60000000
f 1 2 5
f 1 5 3
f 1 3 7
f 1 7 4
f 1 4 6
f 1 6 2
f 2 6 8
f 2 8 5
f 3 5 8
f 3 8 7
f 4 7 8
f 4 8 6

o geometry_1
v -14.24999982 -14.24999982 19.00000000 0.54117647 0.42352941 0.64313725
v -7.44075090 -14.24999982 19.00000000 0.54117647 0.42352941 0.64313725
v -14.24999982 -14.24999982 22.01003933 0.54117647 0.42352941 0.64313725
v -14.24999982 14.24999982 19.00000000 0.54117647 0.42352941 0.64313725
v -7.44075090 -14.24999982 21.99972624 0.54117647 0.42352941 0.64313725
v -7.44075090 14.24999982 19.00000000 0.54117647 0.42352941 0.64313725
v -11.24995776 -14.24999982 22.01003933 0.54117647 0.42352941 0.64313725
v -14.24999982 14.24999982 22.01003933 0.54117647 0.42352941 0.64313725
v -7.44075090 14.24999982 21.99972624 0.54117647 0.42352941 0.64313725
v -11.24995776 -14.23326150 22.01003933 0.54117647 0.42352941 0.64313725
v -11.25062495 14.24999982 22.01003933 0.54117647 0.42352941 0.64313725
f 9 10 13
f 9 13 15
f 9 15 11
f 9 11 16
f 9 16 12
f 9 12 14
f 9 14 10
f 10 14 17
f 10 17 13
f 11 15 18
f 11 18 19
f 11 19 16
f 12 16 19
f 12 19 17
f 12 17 14
f 13 17 18
f 13 18 15
f 17 19 18

o geometry_2
v 14.24999982 14.24999982 60.95413977 0.43529412 0.89019608 0.96078431
v 14.24999982 14.24999982 41.24588819 0.43529412 0.89019608 0.96078431
v 11.25000000 14.24999982 60.95413977 0.43529412 0.89019608 0.96078431
v 14.24999982 -14.24999982 60.95413977 0.43529412 0.89019608 0.96078431
v 11.25000000 14.24999982 41.24588819 0.43529412 0.89019608 0.96078431
v 14.24999982 -14.24999982 41.24588819 0.43529412 0.89019608 0.96078431
v 11.25000000 -14.24999982 60.95413977 0.43529412 0.89019608 0.96078431
v 11.25000000 -14.24999982 41.24588819 0.43529412 0.89019608 0.96078431
f 20 21 24
f 20 24 22
f 20 22 26
f 20 26 23
f 20 23 25
f 20 25 21
f 21 25 27
f 21 27 24
f 22 24 27
f 22 27 26
f 23 26 27
f 23 27 25

o geometry_3
v -11.25000000 14.24999982 41.24395901 0.38039216 0.78823529 0.52549020
v -11.25088111 14.24999982 22.01003933 0.38039216 0.78823529 0.52549020
v -14.24999982 14.24999982 41.24395901 0.38039216 0.78823529 0.52549020
v -11.25000000 -14.24999982 41.24395901 0.38039216 0.78823529 0.52549020
v -11.25000000 -14.23326150 22.01003933 0.38039216 0.78823529 0.52549020
v -14.24999982 14.24999982 22.01003933 0.38039216 0.78823529 0.52549020
v -14.24999982 -14.24999982 41.24395901 0.38039216 0.78823529 0.52549020
v -11.25000000 -14.24999982 22.01003933 0.38039216 0.78823529 0.52549020
v -14.24999982 -14.24999982 22.01003933 0.38039216 0.78823529 0.52549020
f 28 29 33
f 28 33 30
f 28 30 34
f 28 34 31
f 28 31 35
f 28 35 32
f 28 32 29
f 29 32 35
f 29 35 36
f 29 36 33
f 30 33 36
f 30 36 34
f 31 34 36
f 31 36 35

o geometry_4
v -11.25000000 14.24999982 60.95413977 0.56470588 0.92549020 0.07058824
v -11.25000000 14.24999982 41.24588819 0.56470588 0.92549020 0.07058824
v -14.24999982 14.24999982 60.95413977 0.56470588 0.92549020 0.07058824
v -11.25000000 -14.24999982 60.95413977 0.56470588 0.92549020 0.07058824
v -14.24999982 14.24999982 41.24588819 0.56470588 0.92549020 0.07058824
v -11.25000000 -14.24999982 41.24588819 0.56470588 0.92549020 0.07058824
v -14.24999982 -14.24999982 60.95413977 0.56470588 0.92549020 0.07058824
v -14.24999982 -14.24999982 41.24588819 0.56470588 0.92549020 0.07058824
f 37 38 41
f 37 41 39
f 37 39 43
f 37 43 40
f 37 40 42
f 37 42 38
f 38 42 44
f 38 44 41
f 39 41 44
f 39 44 43
f 40 43 44
f 40 44 42

o geometry_5
v 14.24970478 14.24999982 41.24395901 0.08627451 0.01960784 0.83137255
v 14.24970478 14.24999982 19.00000000 0.08627451 0.01960784 0.83137255
v 11.25020921 14.24999982 41.24395901 0.08627451 0.01960784 0.83137255
v 14.24970478 -14.24999982 41.24395901 0.08627451 0.01960784 0.83137255
v 11.23337768 14.24999982 19.00000000 0.08627451 0.01960784 0.83137255
v 14.24970478 -14.24999982 19.00000000 0.08627451 0.01960784 0.83137255
v 11.23337768 14.24999982 22.00040886 0.08627451 0.01960784 0.83137255
v 11.25020921 -14.24999982 41.24395901 0.08627451 0.01960784 0.83137255
v 11.23337768 -14.24999982 19.00000000 0.08627451 0.01960784 0.83137255
v 11.23337768 -14.24163133 22.00040886 0.08627451 0.01960784 0.83137255
v 11.23337768 -14.24999982 21.99823090 0.08627451 0.01960784 0.83137255
f 45 46 49
f 45 49 51
f 45 51 47
f 45 47 52
f 45 52 48
f 45 48 50
f 45 50 46
f 46 50 53
f 46 53 49
f 47 51 54
f 47 54 52
f 48 52 55
f 48 55 53
f 48 53 50
f 49 53 55
f 49 55 54
f 49 54 51
f 52 54 55

o geometry_6
v -7.44075090 1.37880296 19.00000000 0.77647059 0.86666667 0.97647059
v -6.50009215 0.00368066 19.00000000 0.77647059 0.86666667 0.97647059
v -7.44075090 1.37880296 21.99999982 0.77647059 0.86666667 0.97647059
v -7.44075090 14.24860507 19.00000000 0.77647059 0.86666667 0.97647059
v -4.99905825 0.00368066 19.00000000 0.77647059 0.86666667 0.97647059
v -6.50009215 0.00368066 21.99999982 0.77647059 0.86666667 0.97647059
v -7.44075090 14.24860507 21.99999982 0.77647059 0.86666667 0.97647059
v 0.16191088 14.24860507 19.00000000 0.77647059 0.86666667 0.97647059
v -4.99905825 0.00368066 21.99999982 0.77647059 0.86666667 0.97647059
v 0.16191088 4.97559763 19.00000000 0.77647059 0.86666667 0.97647059
v 0.16191088 14.24860507 21.99999982 0.77647059 0.86666667 0.97647059
v 0.16191088 4.97559763 21.99999982 0.77647059 0.86666667 0.97647059
f 56 57 61
f 56 61 58
f 56 58 62
f 56 62 59
f 56 59 63
f 56 63 65
f 56 65 60
f 56 60 57
f 57 60 64
f 57 64 61
f 58 61 64
f 58 64 67
f 58 67 66
f 58 66 62
f 59 62 66
f 59 66 63
f 60 65 67
f 60 67 64
f 63 66 67
f 63 67 65

o geometry_7
v -7.44075090 -14.24999982 19.00000000 0.79607843 0.45882353 0.78039216
v 0.16191088 -14.24999982 19.00000000 0.79607843 0.45882353 0.78039216
v -7.44075090 -14.24999982 21.99999982 0.79607843 0.45882353 0.78039216
v -7.44075090 -1.37885727 19.00000000 0.79607843 0.45882353 0.78039216
v 0.16191088 -14.24999982 21.99911872 0.79607843 0.45882353 0.78039216
v 0.16191088 -4.97541089 19.00000000 0.79607843 0.45882353 0.78039216
v 0.16191088 -13.29296485 21.99999982 0.79607843 0.45882353 0.78039216
v -7.44075090 -1.37885727 21.99999982 0.79607843 0.45882353 0.78039216
v -6.50009215 0.00228658 19.00000000 0.79607843 0.45882353 0.78039216
v -4.99905825 0.00228658 19.00000000 0.79607843 0.45882353 0.78039216
v 0.16191088 -4.97541089 21.99999982 0.79607843 0.45882353 0.78039216
v -6.50009215 0.00228658 21.99999982 0.79607843 0.45882353 0.78039216
v -4.99905825 0.00228658 21.99999982 0.79607843 0.45882353 0.78039216
f 68 69 72
f 68 72 70
f 68 70 75
f 68 75 71
f 68 71 76
f 68 76 77
f 68 77 73
f 68 73 69
f 69 73 78
f 69 78 74
f 69 74 72
f 70 72 74
f 70 74 78
f 70 78 80
f 70 80 79
f 70 79 75
f 71 75 79
f 71 79 76
f 73 77 80
f 73 80 78
f 76 79 80
f 76 80 77

o geometry_8
v 0.16191121 -14.24999982 19.00000000 0.11764706 0.63921569 0.14117647
v 11.23337701 -14.24999982 19.00000000 0.11764706 0.63921569 0.14117647
v 0.16191121 -14.24999982 21.99911872 0.11764706 0.63921569 0.14117647
v 0.16191121 -4.97502431 19.00000000 0.11764706 0.63921569 0.14117647
v 11.23337701 -14.24999982 21.99794391 0.11764706 0.63921569 0.14117647
v 11.23337701 -1.54123016 19.00000000 0.11764706 0.63921569 0.14117647
v 11.23337701 -14.24253523 21.99999982 0.11764706 0.63921569 0.14117647
v 0.16191121 -13.29326525 21.99999982 0.11764706 0.63921569 0.14117647
v 0.16191121 -4.97502431 21.99999982 0.11764706 0.63921569 0.14117647
v 4.75695971 -1.54123016 19.00000000 0.11764706 0.63921569 0.14117647
v 11.23337701 -1.54123016 21.99999982 0.11764706 0.63921569 0.14117647
v 4.75695971 -1.54123016 21.99999982 0.11764706 0.63921569 0.14117647
f 81 82 85
f 81 85 83
f 81 83 88
f 81 88 89
f 81 89 84
f 81 84 90
f 81 90 86
f 81 86 82
f 82 86 91
f 82 91 87
f 82 87 85
f 83 85 87
f 83 87 88
f 84 89 92
f 84 92 90
f 86 90 92
f 86 92 91
f 87 91 92
f 87 92 89
f 87 89 88

o geometry_9
v 0.16191121 4.97477420 19.00000000 0.94117647 0.52156863 0.41176471
v 0.16191121 4.97477420 21.99999982 0.94117647 0.52156863 0.41176471
v 0.16191121 14.24999982 19.00000000 0.94117647 0.52156863 0.41176471
v 4.75695971 -1.53998561 19.00000000 0.94117647 0.52156863 0.41176471
v 0.16191121 14.24999982 21.99999982 0.94117647 0.52156863 0.41176471
v 4.75695971 -1.53998561 21.99999982 0.94117647 0.52156863 0.41176471
v 11.23337701 14.24999982 19.00000000 0.94117647 0.52156863 0.41176471
v 11.23337701 -1.53998561 19.00000000 0.94117647 0.52156863 0.41176471
v 11.23337701 14.24999982 21.99999982 0.94117647 0.52156863 0.41176471
v 11.23337701 -1.53998561 21.99999982 0.94117647 0.52156863 0.41176471
f 93 94 97
f 93 97 95
f 93 95 99
f 93 99 100
f 93 100 96
f 93 96 98
f 93 98 94
f 94 98 102
f 94 102 101
f 94 101 97
f 95 97 101
f 95 101 99
f 96 100 102
f 96 102 98
f 99 101 102
f 99 102 100

