# https://github.com/mikedh/trimesh

o geometry_0
v -13.60996440 16.60921723 74.09668022 0.54509804 0.71372549 0.60000000
v -16.65341467 16.67517945 74.03628224 0.54509804 0.71372549 0.60000000
v -16.61127716 -16.60921723 74.09668022 0.54509804 0.71372549 0.60000000
v -13.60996440 -16.60921723 74.09668022 0.54509804 0.71372549 0.60000000
v -13.60996440 16.80380479 73.97588560 0.54509804 0.71372549 0.60000000
v -16.61127716 16.84667990 73.73429367 0.54509804 0.71372549 0.60000000
v -16.80961043 16.68837190 73.73429367 0.54509804 0.71372549 0.60000000
v -16.78046286 -16.68177500 73.97364864 0.54509804 0.71372549 0.60000000
v -16.61127716 -16.80050701 73.97812256 0.54509804 0.71372549 0.60000000
v -13.60996440 -16.80050701 73.97812256 0.54509804 0.71372549 0.60000000
v -13.60996440 16.84667990 73.73429367 0.54509804 0.71372549 0.60000000
v -16.61127716 16.84667990 51.24395901 0.54509804 0.71372549 0.60000000
v -16.80961043 16.68837190 51.24395901 0.54509804 0.71372549 0.60000000
v -16.84667990 -16.60921723 51.24395901 0.54509804 0.71372549 0.60000000
v -16.80961043 -16.68837190 73.73429367 0.54509804 0.71372549 0.60000000
v -16.61127716 -16.84667990 73.73429367 0.54509804 0.71372549 0.60000000
v -13.60996440 -16.84667990 73.73429367 0.54509804 0.71372549 0.60000000
v -13.60996440 16.84667990 69.68988055 0.54509804 0.71372549 0.60000000
v -13.97463351 16.84667990 51.24395901 0.54509804 0.71372549 0.60000000
v -16.69048414 -16.80710390 51.24395901 0.54509804 0.71372549 0.60000000
v -13.97463351 -16.84667990 51.24395901 0.54509804 0.71372549 0.60000000
v -13.60996440 -16.84667990 69.52882060 0.54509804 0.71372549 0.60000000
v -13.60996440 16.84338212 69.34091711 0.54509804 0.71372549 0.60000000
v -13.69772628 16.69826657 51.24395901 0.54509804 0.71372549 0.60000000
v -13.69740844 -16.69826657 51.24395901 0.54509804 0.71372549 0.60000000
v -13.60996440 -16.84008434 69.25814950 0.54509804 0.71372549 0.60000000
v -13.60996440 16.82359412 69.07471859 0.54509804 0.71372549 0.60000000
v -13.60996440 16.77082434 68.77273002 0.54509804 0.71372549 0.60000000
v -13.60996440 16.67517945 68.42823917 0.54509804 0.71372549 0.60000000
v -13.60996440 -16.64879456 68.36784118 0.54509804 0.71372549 0.60000000
v -13.60996440 -16.77082434 68.77273002 0.54509804 0.71372549 0.60000000
v -13.60996440 -16.81699723 69.00089884 0.54509804 0.71372549 0.60000000
f 1 2 3
f 1 3 4
f 1 4 10
f 1 10 17
f 1 17 22
f 1 22 26
f 1 26 32
f 1 32 31
f 1 31 30
f 1 30 29
f 1 29 28
f 1 28 27
f 1 27 23
f 1 23 18
f 1 18 11
f 1 11 5
f 1 5 2
f 2 5 6
f 2 6 7
f 2 7 8
f 2 8 3
f 3 8 9
f 3 9 10
f 3 10 4
f 5 11 6
f 6 11 18
f 6 18 19
f 6 19 12
f 6 12 13
f 6 13 7
f 7 13 14
f 7 14 15
f 7 15 8
f 8 15 16
f 8 16 9
f 9 16 17
f 9 17 10
f 12 19 24
f 12 24 25
f 12 25 21
f 12 21 20
f 12 20 14
f 12 14 13
f 14 20 15
f 15 20 16
f 16 20 21
f 16 21 22
f 16 22 17
f 18 23 19
f 19 23 24
f 21 25 22
f 22 25 26
f 23 27 24
f 24 27 28
f 24 28 29
f 24 29 25
f 25 29 30
f 25 30 31
f 25 31 32
f 25 32 26

o geometry_1
v -16.84604958 -16.60921723 29.26444167 0.54117647 0.42352941 0.64313725
v -16.77980840 -16.68177500 29.02452344 0.54117647 0.42352941 0.64313725
v -16.77223787 -16.77082434 29.26444167 0.54117647 0.42352941 0.64313725
v -16.84604958 -16.60921723 35.25248939 0.54117647 0.42352941 0.64313725
v -16.84604958 16.60921723 29.26444167 0.54117647 0.42352941 0.64313725
v -16.77980840 16.68177500 29.02452344 0.54117647 0.42352941 0.64313725
v -16.61010370 -16.60921723 28.90394205 0.54117647 0.42352941 0.64313725
v -16.61010370 -16.80050701 29.02017155 0.54117647 0.42352941 0.64313725
v -16.61010370 -16.84667990 29.26444167 0.54117647 0.42352941 0.64313725
v -16.68833166 -16.81040168 35.25248939 0.54117647 0.42352941 0.64313725
v -16.80756658 16.69166967 35.25248939 0.54117647 0.42352941 0.64313725
v -16.77223787 16.77082434 29.26444167 0.54117647 0.42352941 0.64313725
v -16.61010370 16.80050701 29.02017155 0.54117647 0.42352941 0.64313725
v -16.61010370 16.60921723 28.90394205 0.54117647 0.42352941 0.64313725
v -10.40107414 -16.63560212 28.91202086 0.54117647 0.42352941 0.64313725
v -10.40107414 -16.80710390 29.03136039 0.54117647 0.42352941 0.64313725
v -13.97369474 -16.84667990 35.25248939 0.54117647 0.42352941 0.64313725
v -10.40107414 -16.84667990 29.26444167 0.54117647 0.42352941 0.64313725
v -16.61010370 16.84667990 35.25248939 0.54117647 0.42352941 0.64313725
v -16.61010370 16.84667990 29.26444167 0.54117647 0.42352941 0.64313725
v -10.40107414 16.84338212 29.17618224 0.54117647 0.42352941 0.64313725
v -10.40107414 16.67188168 28.92383063 0.54117647 0.42352941 0.64313725
v -10.40107414 -16.84667990 31.72517264 0.54117647 0.42352941 0.64313725
v -10.40107414 -16.79720923 31.98373893 0.54117647 0.42352941 0.64313725
v -13.74027282 -16.78731456 35.25248939 0.54117647 0.42352941 0.64313725
v -13.97369474 16.84667990 35.25248939 0.54117647 0.42352941 0.64313725
v -10.40107414 16.84338212 31.79851630 0.54117647 0.42352941 0.64313725
v -10.40107414 -16.60921723 32.09624016 0.54117647 0.42352941 0.64313725
v -13.65258202 -16.60921723 35.25248939 0.54117647 0.42352941 0.64313725
v -13.74216512 16.78731456 35.25248939 0.54117647 0.42352941 0.64313725
v -10.40107414 16.68837190 32.07013556 0.54117647 0.42352941 0.64313725
v -13.65258202 16.60921723 35.25248939 0.54117647 0.42352941 0.64313725
f 33 34 35
f 33 35 36
f 33 36 37
f 33 37 38
f 33 38 34
f 34 38 46
f 34 46 39
f 34 39 40
f 34 40 35
f 35 40 41
f 35 41 42
f 35 42 36
f 36 42 49
f 36 49 57
f 36 57 61
f 36 61 64
f 36 64 62
f 36 62 58
f 36 58 51
f 36 51 43
f 36 43 37
f 37 43 44
f 37 44 38
f 38 44 45
f 38 45 46
f 39 47 40
f 39 46 47
f 40 48 41
f 40 47 48
f 41 49 42
f 41 48 50
f 41 50 55
f 41 55 49
f 43 51 44
f 44 51 52
f 44 52 45
f 45 53 54
f 45 54 46
f 45 52 53
f 46 54 47
f 47 54 53
f 47 53 59
f 47 59 63
f 47 63 60
f 47 60 56
f 47 56 55
f 47 55 50
f 47 50 48
f 49 55 56
f 49 56 57
f 51 58 52
f 52 58 53
f 53 58 59
f 56 60 57
f 57 60 61
f 58 62 59
f 59 62 63
f 60 63 64
f 60 64 61
f 62 64 63

o geometry_2
v -13.97493124 16.84667990 51.24395901 0.43529412 0.89019608 0.96078431
v -16.61101431 16.84667990 51.24395901 0.43529412 0.89019608 0.96078431
v -13.79927605 16.82689190 51.24395901 0.43529412 0.89019608 0.96078431
v -13.97493124 16.84667990 35.25373259 0.43529412 0.89019608 0.96078431
v -16.61101431 16.84667990 35.25373259 0.43529412 0.89019608 0.96078431
v -16.77260399 16.77082434 51.24395901 0.43529412 0.89019608 0.96078431
v -13.79927605 16.82689190 35.25373259 0.43529412 0.89019608 0.96078431
v -13.68488118 16.75103500 51.24395901 0.43529412 0.89019608 0.96078431
v -13.69144455 16.75763190 35.25373259 0.43529412 0.89019608 0.96078431
v -16.77260399 16.77082434 35.25373259 0.43529412 0.89019608 0.96078431
v -16.84074149 16.62240967 35.25373259 0.43529412 0.89019608 0.96078431
v -16.84636742 16.60921723 51.24395901 0.43529412 0.89019608 0.96078431
v -13.65393788 16.60921723 51.24395901 0.43529412 0.89019608 0.96078431
v -13.68050516 16.74114168 35.25373259 0.43529412 0.89019608 0.96078431
v -13.68269250 16.75103500 35.25373259 0.43529412 0.89019608 0.96078431
v -16.84636742 16.60921723 35.25373259 0.43529412 0.89019608 0.96078431
v -16.84636742 -16.60921723 51.24395901 0.43529412 0.89019608 0.96078431
v -13.65331292 16.60921723 35.25373259 0.43529412 0.89019608 0.96078431
v -13.65456283 -16.61251500 51.24395901 0.43529412 0.89019608 0.96078431
v -13.65331292 -16.60921723 35.25373259 0.43529412 0.89019608 0.96078431
v -16.84636742 -16.60921723 35.25373259 0.43529412 0.89019608 0.96078431
v -16.77416772 -16.76752657 51.24395901 0.43529412 0.89019608 0.96078431
v -13.68269250 -16.75103500 51.24395901 0.43529412 0.89019608 0.96078431
v -13.68269250 -16.75103500 35.25373259 0.43529412 0.89019608 0.96078431
v -16.77260399 -16.77082434 35.25373259 0.43529412 0.89019608 0.96078431
v -16.76010221 -16.77741989 35.25373259 0.43529412 0.89019608 0.96078431
v -16.61101431 -16.84667990 51.24395901 0.43529412 0.89019608 0.96078431
v -13.79927605 -16.82689190 51.24395901 0.43529412 0.89019608 0.96078431
v -13.79927605 -16.82689190 35.25373259 0.43529412 0.89019608 0.96078431
v -16.61101431 -16.84667990 35.25373259 0.43529412 0.89019608 0.96078431
v -13.97493124 -16.84667990 51.24395901 0.43529412 0.89019608 0.96078431
v -13.97493124 -16.84667990 35.25373259 0.43529412 0.89019608 0.96078431
f 65 66 70
f 65 70 76
f 65 76 81
f 65 81 86
f 65 86 91
f 65 91 95
f 65 95 92
f 65 92 87
f 65 87 83
f 65 83 77
f 65 77 72
f 65 72 67
f 65 67 71
f 65 71 68
f 65 68 69
f 65 69 66
f 66 69 74
f 66 74 70
f 67 72 73
f 67 73 71
f 68 71 73
f 68 73 79
f 68 79 78
f 68 78 82
f 68 82 84
f 68 84 88
f 68 88 93
f 68 93 96
f 68 96 94
f 68 94 90
f 68 90 89
f 68 89 85
f 68 85 80
f 68 80 75
f 68 75 74
f 68 74 69
f 70 74 75
f 70 75 76
f 72 77 78
f 72 78 79
f 72 79 73
f 75 80 76
f 76 80 85
f 76 85 81
f 77 82 78
f 77 83 84
f 77 84 82
f 81 85 86
f 83 87 84
f 84 87 88
f 85 89 86
f 86 89 90
f 86 90 91
f 87 92 93
f 87 93 88
f 90 94 91
f 91 94 96
f 91 96 95
f 92 95 96
f 92 96 93

o geometry_3
v 13.97506535 16.84667990 51.24395901 0.38039216 0.78823529 0.52549020
v 16.61063612 16.84667990 29.26414663 0.38039216 0.78823529 0.52549020
v 12.93164313 16.84338212 29.17667443 0.38039216 0.78823529 0.52549020
v 12.93164313 16.84338212 32.69309336 0.38039216 0.78823529 0.52549020
v 13.74093801 16.78731456 51.24395901 0.38039216 0.78823529 0.52549020
v 16.69033930 16.80710390 51.24395901 0.38039216 0.78823529 0.52549020
v 16.80912763 16.68837190 29.26414663 0.38039216 0.78823529 0.52549020
v 16.78038910 16.68177500 29.02578139 0.38039216 0.78823529 0.52549020
v 16.61063612 16.80050701 29.02140939 0.38039216 0.78823529 0.52549020
v 12.93164313 16.68177500 28.92737651 0.38039216 0.78823529 0.52549020
v 12.93164313 16.76422745 33.01674479 0.38039216 0.78823529 0.52549020
v 13.65433753 16.61251500 51.24395901 0.38039216 0.78823529 0.52549020
v 16.84629768 16.60921723 51.24395901 0.38039216 0.78823529 0.52549020
v 16.84629768 -16.60921723 29.26414663 0.38039216 0.78823529 0.52549020
v 16.61063612 16.60921723 28.90331978 0.38039216 0.78823529 0.52549020
v 16.78038910 -16.68177500 29.02578139 0.38039216 0.78823529 0.52549020
v 12.93164313 -16.60921723 28.90331978 0.38039216 0.78823529 0.52549020
v 12.93164313 16.60921723 33.13264573 0.38039216 0.78823529 0.52549020
v 13.65395397 -16.60921723 51.24395901 0.38039216 0.78823529 0.52549020
v 16.84629768 -16.60921723 51.24395901 0.38039216 0.78823529 0.52549020
v 16.77234247 -16.77082434 29.26414663 0.38039216 0.78823529 0.52549020
v 16.61063612 -16.60921723 28.90331978 0.38039216 0.78823529 0.52549020
v 16.61063612 -16.80050701 29.02140939 0.38039216 0.78823529 0.52549020
v 12.93164313 -16.80380479 29.02359539 0.38039216 0.78823529 0.52549020
v 12.93164313 -16.61911190 33.12608504 0.38039216 0.78823529 0.52549020
v 12.93164313 -16.77082434 33.01893079 0.38039216 0.78823529 0.52549020
v 12.93164313 -16.84338212 32.70402873 0.38039216 0.78823529 0.52549020
v 13.74208733 -16.78731456 51.24395901 0.38039216 0.78823529 0.52549020
v 16.69340506 -16.80710390 51.24395901 0.38039216 0.78823529 0.52549020
v 16.61063612 -16.84667990 29.26414663 0.38039216 0.78823529 0.52549020
v 12.93164313 -16.84667990 29.26414663 0.38039216 0.78823529 0.52549020
v 13.97506535 -16.84667990 51.24395901 0.38039216 0.78823529 0.52549020
f 97 98 99
f 97 99 100
f 97 100 101
f 97 101 108
f 97 108 115
f 97 115 124
f 97 124 128
f 97 128 125
f 97 125 116
f 97 116 109
f 97 109 102
f 97 102 98
f 98 102 103
f 98 103 104
f 98 104 105
f 98 105 99
f 99 105 106
f 99 106 113
f 99 113 120
f 99 120 127
f 99 127 123
f 99 123 122
f 99 122 121
f 99 121 114
f 99 114 107
f 99 107 100
f 100 107 108
f 100 108 101
f 102 109 103
f 103 109 110
f 103 110 104
f 104 111 105
f 104 110 112
f 104 112 118
f 104 118 111
f 105 111 106
f 106 111 113
f 107 114 108
f 108 114 115
f 109 116 110
f 110 117 112
f 110 116 117
f 111 118 113
f 112 117 119
f 112 119 118
f 113 118 119
f 113 119 120
f 114 121 115
f 115 121 122
f 115 122 123
f 115 123 124
f 116 125 117
f 117 125 126
f 117 126 119
f 119 126 120
f 120 126 127
f 123 127 128
f 123 128 124
f 125 128 126
f 126 128 127

o geometry_4
v -13.60955670 16.84667990 70.77763030 0.56470588 0.92549020 0.07058824
v -11.71660244 16.76422745 70.77763030 0.56470588 0.92549020 0.07058824
v -12.21707180 16.84338212 70.76263139 0.56470588 0.92549020 0.07058824
v -12.39281818 16.84667990 70.76263139 0.56470588 0.92549020 0.07058824
v -13.60955670 16.84667990 69.69310993 0.56470588 0.92549020 0.07058824
v -13.60955670 -16.84667990 70.77763030 0.56470588 0.92549020 0.07058824
v -11.52287185 16.60921723 70.77763030 0.56470588 0.92549020 0.07058824
v -13.60955670 16.61251500 68.27224457 0.56470588 0.92549020 0.07058824
v -13.60955670 16.67188168 68.39468607 0.56470588 0.92549020 0.07058824
v -13.60955670 16.71145901 68.52868387 0.56470588 0.92549020 0.07058824
v -13.60955670 16.77082434 68.77356821 0.56470588 0.92549020 0.07058824
v -12.04132408 16.83348745 70.76263139 0.56470588 0.92549020 0.07058824
v -13.60955670 16.84338212 69.34201145 0.56470588 0.92549020 0.07058824
v -13.60955670 16.83678657 69.16670898 0.56470588 0.92549020 0.07058824
v -13.44688877 16.84667990 69.69310993 0.56470588 0.92549020 0.07058824
v -13.60955670 -16.84667990 69.53034678 0.56470588 0.92549020 0.07058824
v -12.36298129 -16.84667990 70.77763030 0.56470588 0.92549020 0.07058824
v -11.52246282 16.43441767 70.77763030 0.56470588 0.92549020 0.07058824
v -13.60955670 16.43441767 68.26609829 0.56470588 0.92549020 0.07058824
v -13.60955670 16.81369945 68.99042213 0.56470588 0.92549020 0.07058824
v -13.60955670 -16.84338212 69.34201145 0.56470588 0.92549020 0.07058824
v -12.18723491 -16.84338212 70.77763030 0.56470588 0.92549020 0.07058824
v -11.52205378 9.40947153 70.77763030 0.56470588 0.92549020 0.07058824
v -11.52205378 -9.40287530 70.77763030 0.56470588 0.92549020 0.07058824
v -13.60955670 -16.60921723 68.27667022 0.56470588 0.92549020 0.07058824
v -13.60955670 -16.84008434 69.17949373 0.56470588 0.92549020 0.07058824
v -12.01148853 -16.83348745 70.77763030 0.56470588 0.92549020 0.07058824
v -11.55311644 -16.64879456 70.77763030 0.56470588 0.92549020 0.07058824
v -11.71660244 -16.76422745 70.77763030 0.56470588 0.92549020 0.07058824
v -13.60955670 -16.68507412 68.46328357 0.56470588 0.92549020 0.07058824
v -13.60955670 -16.81699723 69.00345364 0.56470588 0.92549020 0.07058824
v -13.60955670 -16.77082434 68.77356821 0.56470588 0.92549020 0.07058824
f 129 130 131
f 129 131 132
f 129 132 143
f 129 143 133
f 129 133 141
f 129 141 142
f 129 142 148
f 129 148 139
f 129 139 138
f 129 138 137
f 129 137 136
f 129 136 147
f 129 147 153
f 129 153 158
f 129 158 160
f 129 160 159
f 129 159 154
f 129 154 149
f 129 149 144
f 129 144 134
f 129 134 145
f 129 145 150
f 129 150 155
f 129 155 157
f 129 157 156
f 129 156 152
f 129 152 151
f 129 151 146
f 129 146 135
f 129 135 130
f 130 135 136
f 130 136 137
f 130 137 138
f 130 138 139
f 130 139 140
f 130 140 131
f 131 141 132
f 131 140 142
f 131 142 141
f 132 141 143
f 133 143 141
f 134 144 145
f 135 146 147
f 135 147 136
f 139 148 140
f 140 148 142
f 144 149 145
f 145 149 150
f 146 151 147
f 147 151 152
f 147 152 153
f 149 154 150
f 150 154 155
f 152 156 153
f 153 156 157
f 153 157 158
f 154 159 155
f 155 159 160
f 155 160 157
f 157 160 158

o geometry_5
v 13.65177602 16.60921723 74.09668022 0.08627451 0.01960784 0.83137255
v 13.65177602 16.80380479 73.97419178 0.08627451 0.01960784 0.83137255
v 11.07056558 16.70486212 74.06605744 0.08627451 0.01960784 0.83137255
v 11.07056558 -16.66858256 74.07769555 0.08627451 0.01960784 0.83137255
v 13.65177602 -16.67847723 74.07402092 0.08627451 0.01960784 0.83137255
v 13.65177602 16.84667990 73.73595262 0.08627451 0.01960784 0.83137255
v 11.07056558 16.84338212 73.80270743 0.08627451 0.01960784 0.83137255
v 11.07056558 -16.82029501 73.94418189 0.08627451 0.01960784 0.83137255
v 13.65177602 -16.84008434 73.91172314 0.08627451 0.01960784 0.83137255
v 13.65177602 16.84667990 69.31350896 0.08627451 0.01960784 0.83137255
v 11.11655071 16.84338212 71.12205008 0.08627451 0.01960784 0.83137255
v 11.07056558 16.78731456 70.96710289 0.08627451 0.01960784 0.83137255
v 11.07056558 -16.84667990 73.73595262 0.08627451 0.01960784 0.83137255
v 13.65177602 -16.84667990 73.73595262 0.08627451 0.01960784 0.83137255
v 13.65177602 16.84338212 69.13712555 0.08627451 0.01960784 0.83137255
v 13.65177602 16.82689190 68.96135503 0.08627451 0.01960784 0.83137255
v 13.65177602 16.75433412 68.33053970 0.08627451 0.01960784 0.83137255
v 13.65177602 16.60921723 67.84548634 0.08627451 0.01960784 0.83137255
v 11.07056558 16.60921723 70.85257524 0.08627451 0.01960784 0.83137255
v 11.07056558 -16.84667990 71.27516130 0.08627451 0.01960784 0.83137255
v 13.63712177 -16.84667990 69.34290731 0.08627451 0.01960784 0.83137255
v 13.65177602 -16.82689190 68.99075204 0.08627451 0.01960784 0.83137255
v 13.65177602 16.43441767 67.83997440 0.08627451 0.01960784 0.83137255
v 11.07056558 16.43441767 70.85135081 0.08627451 0.01960784 0.83137255
v 11.07056558 -16.76752657 70.92484334 0.08627451 0.01960784 0.83137255
v 11.11655071 -16.83348745 71.07795456 0.08627451 0.01960784 0.83137255
v 13.63712177 -16.84338212 69.16713545 0.08627451 0.01960784 0.83137255
v 13.65177602 -16.76092967 68.33788896 0.08627451 0.01960784 0.83137255
v 11.07056558 -16.43441767 70.85135081 0.08627451 0.01960784 0.83137255
v 13.65177602 -16.56963989 67.84303614 0.08627451 0.01960784 0.83137255
v 11.07056558 -16.60921723 70.85257524 0.08627451 0.01960784 0.83137255
v 13.65177602 -16.71145901 68.16640595 0.08627451 0.01960784 0.83137255
f 161 162 163
f 161 163 164
f 161 164 165
f 161 165 169
f 161 169 174
f 161 174 182
f 161 182 188
f 161 188 192
f 161 192 190
f 161 190 183
f 161 183 178
f 161 178 177
f 161 177 176
f 161 176 175
f 161 175 170
f 161 170 166
f 161 166 162
f 162 166 167
f 162 167 163
f 163 167 172
f 163 172 179
f 163 179 184
f 163 184 189
f 163 189 191
f 163 191 185
f 163 185 180
f 163 180 173
f 163 173 168
f 163 168 164
f 164 168 165
f 165 168 169
f 166 170 167
f 167 171 172
f 167 170 171
f 168 173 169
f 169 173 174
f 170 175 171
f 171 175 176
f 171 176 177
f 171 177 172
f 172 177 178
f 172 178 179
f 173 180 181
f 173 181 174
f 174 181 182
f 178 183 179
f 179 183 184
f 180 185 186
f 180 186 187
f 180 187 181
f 181 187 182
f 182 187 186
f 182 186 188
f 183 189 184
f 183 190 189
f 185 191 190
f 185 190 192
f 185 192 186
f 186 192 188
f 189 190 191

o geometry_6
v 16.61116317 16.60921723 74.09668022 0.77647059 0.86666667 0.97647059
v 16.78026438 16.68177500 73.97364864 0.77647059 0.86666667 0.97647059
v 16.61116317 16.80050701 73.97812256 0.77647059 0.86666667 0.97647059
v 13.65234062 16.60921723 74.09668022 0.77647059 0.86666667 0.97647059
v 16.61116317 -16.60921723 74.09668022 0.77647059 0.86666667 0.97647059
v 16.78026438 -16.68177500 73.97364864 0.77647059 0.86666667 0.97647059
v 16.80963457 16.68837190 73.73429367 0.77647059 0.86666667 0.97647059
v 16.61116317 16.84667990 73.73429367 0.77647059 0.86666667 0.97647059
v 13.65234062 16.80380479 73.97141168 0.77647059 0.86666667 0.97647059
v 13.65234062 -16.60921723 74.09668022 0.77647059 0.86666667 0.97647059
v 16.61116317 -16.80050701 73.97812256 0.77647059 0.86666667 0.97647059
v 16.80963457 -16.68837190 73.73429367 0.77647059 0.86666667 0.97647059
v 16.61116317 -16.84667990 73.73429367 0.77647059 0.86666667 0.97647059
v 16.81056127 16.68837190 51.24395901 0.77647059 0.86666667 0.97647059
v 13.65234062 16.84667990 73.73429367 0.77647059 0.86666667 0.97647059
v 16.61116317 16.84667990 51.24395901 0.77647059 0.86666667 0.97647059
v 13.65234062 -16.80050701 73.97812256 0.77647059 0.86666667 0.97647059
v 16.80963457 -16.68837190 51.24395901 0.77647059 0.86666667 0.97647059
v 13.65234062 -16.84667990 73.73429367 0.77647059 0.86666667 0.97647059
v 16.61116317 -16.84667990 51.24395901 0.77647059 0.86666667 0.97647059
v 13.65234062 16.84667990 69.31183660 0.77647059 0.86666667 0.97647059
v 13.97477835 16.84667990 51.24395901 0.77647059 0.86666667 0.97647059
v 13.65234062 -16.84667990 69.34091711 0.77647059 0.86666667 0.97647059
v 13.97477835 -16.84667990 51.24395901 0.77647059 0.86666667 0.97647059
v 13.69747549 16.69826657 51.24395901 0.77647059 0.86666667 0.97647059
v 13.65234062 16.83348745 69.04563808 0.77647059 0.86666667 0.97647059
v 13.65234062 -16.83348745 69.07471859 0.77647059 0.86666667 0.97647059
v 13.69778529 -16.69826657 51.24395901 0.77647059 0.86666667 0.97647059
v 13.65234062 16.52016923 67.84215772 0.77647059 0.86666667 0.97647059
v 13.65234062 16.75433412 68.32757586 0.77647059 0.86666667 0.97647059
v 13.65234062 -16.56963989 67.84215772 0.77647059 0.86666667 0.97647059
v 13.65234062 -16.73454478 68.24928218 0.77647059 0.86666667 0.97647059
f 193 194 195
f 193 195 196
f 193 196 202
f 193 202 197
f 193 197 198
f 193 198 194
f 194 198 204
f 194 204 199
f 194 199 200
f 194 200 195
f 195 200 201
f 195 201 196
f 196 201 207
f 196 207 213
f 196 213 218
f 196 218 222
f 196 222 221
f 196 221 223
f 196 223 224
f 196 224 219
f 196 219 215
f 196 215 211
f 196 211 209
f 196 209 202
f 197 202 209
f 197 209 203
f 197 203 198
f 198 203 205
f 198 205 204
f 199 206 200
f 199 204 206
f 200 207 201
f 200 206 208
f 200 208 214
f 200 214 213
f 200 213 207
f 203 209 211
f 203 211 205
f 204 205 212
f 204 212 210
f 204 210 206
f 205 211 215
f 205 215 216
f 205 216 212
f 206 210 212
f 206 212 216
f 206 216 220
f 206 220 217
f 206 217 214
f 206 214 208
f 213 214 217
f 213 217 218
f 215 219 220
f 215 220 216
f 217 221 222
f 217 222 218
f 217 220 223
f 217 223 221
f 219 224 220
f 220 224 223

o geometry_7
v -13.60996440 -16.84667990 70.77787572 0.79607843 0.45882353 0.78039216
v -12.36096025 -16.84667990 70.77787572 0.79607843 0.45882353 0.78039216
v -13.60996440 -16.84667990 73.73575681 0.79607843 0.45882353 0.78039216
v -13.60996440 16.84667990 70.77787572 0.79607843 0.45882353 0.78039216
v 11.07056424 -16.84667990 71.27556631 0.79607843 0.45882353 0.78039216
v -12.18460098 -16.84338212 70.77787572 0.79607843 0.45882353 0.78039216
v 11.07056424 -16.60921723 70.85194492 0.79607843 0.45882353 0.78039216
v 11.07056424 -16.76752657 70.92503914 0.79607843 0.45882353 0.78039216
v 11.07056424 -16.82359412 71.05823228 0.79607843 0.45882353 0.78039216
v 11.07056424 -16.84667990 73.73575681 0.79607843 0.45882353 0.78039216
v -13.60996440 -16.84008434 73.91183311 0.79607843 0.45882353 0.78039216
v -13.60996440 16.84667990 73.73575681 0.79607843 0.45882353 0.78039216
v -12.39236623 16.84667990 70.77787572 0.79607843 0.45882353 0.78039216
v -12.01065838 -16.83348745 70.77787572 0.79607843 0.45882353 0.78039216
v -11.71592250 -16.76422745 70.77787572 0.79607843 0.45882353 0.78039216
v -11.55164391 -16.65209234 70.77787572 0.79607843 0.45882353 0.78039216
v -11.52023792 16.60921723 70.77787572 0.79607843 0.45882353 0.78039216
v 11.07056424 16.60921723 70.85194492 0.79607843 0.45882353 0.78039216
v 11.07056424 -16.82029501 73.94431868 0.79607843 0.45882353 0.78039216
v -13.60996440 -16.75763190 74.04989982 0.79607843 0.45882353 0.78039216
v -13.60996440 16.84008434 73.91183311 0.79607843 0.45882353 0.78039216
v 11.07056424 16.84338212 73.80267927 0.79607843 0.45882353 0.78039216
v 11.07056424 16.84338212 71.14594588 0.79607843 0.45882353 0.78039216
v 11.07056424 16.78731456 70.96727186 0.79607843 0.45882353 0.78039216
v -12.21600831 16.84338212 70.77787572 0.79607843 0.45882353 0.78039216
v -11.71592250 16.76422745 70.77787572 0.79607843 0.45882353 0.78039216
v -12.03964904 16.83348745 70.77787572 0.79607843 0.45882353 0.78039216
v 11.07056424 -16.66858256 74.07816225 0.79607843 0.45882353 0.78039216
v -13.60996440 -16.60921723 74.09668022 0.79607843 0.45882353 0.78039216
v -13.60996440 16.76752657 74.04275173 0.79607843 0.45882353 0.78039216
v 11.07056424 16.70486212 74.06646782 0.79607843 0.45882353 0.78039216
v -13.60996440 16.61581412 74.09440571 0.79607843 0.45882353 0.78039216
f 225 226 229
f 225 229 234
f 225 234 227
f 225 227 235
f 225 235 244
f 225 244 253
f 225 253 256
f 225 256 254
f 225 254 245
f 225 245 236
f 225 236 228
f 225 228 237
f 225 237 249
f 225 249 251
f 225 251 250
f 225 250 241
f 225 241 240
f 225 240 239
f 225 239 238
f 225 238 230
f 225 230 226
f 226 230 231
f 226 231 232
f 226 232 233
f 226 233 229
f 227 234 235
f 228 236 237
f 229 233 232
f 229 232 231
f 229 231 242
f 229 242 248
f 229 248 247
f 229 247 246
f 229 246 255
f 229 255 252
f 229 252 243
f 229 243 234
f 230 238 231
f 231 238 239
f 231 239 240
f 231 240 241
f 231 241 242
f 234 243 235
f 235 243 244
f 236 245 246
f 236 246 237
f 237 246 247
f 237 247 248
f 237 248 242
f 237 242 249
f 241 250 242
f 242 250 251
f 242 251 249
f 243 252 244
f 244 252 253
f 245 254 255
f 245 255 246
f 252 255 256
f 252 256 253
f 254 256 255

o geometry_8
v 12.93164313 16.44431233 33.12800148 0.11764706 0.63921569 0.14117647
v 9.75346953 -16.43771678 32.09612885 0.11764706 0.63921569 0.14117647
v 12.93164313 -16.61581412 33.12345245 0.11764706 0.63921569 0.14117647
v 12.93164313 16.61911190 33.12345245 0.11764706 0.63921569 0.14117647
v 9.75346953 16.60921723 32.09612885 0.11764706 0.63921569 0.14117647
v 9.75346953 -16.84008434 31.90009424 0.11764706 0.63921569 0.14117647
v 9.75502521 -16.76752657 32.04112345 0.11764706 0.63921569 0.14117647
v 9.75502521 -16.60921723 32.09571579 0.11764706 0.63921569 0.14117647
v 12.93164313 -16.77082434 33.01675016 0.11764706 0.63921569 0.14117647
v 12.93164313 16.76422745 33.01426777 0.11764706 0.63921569 0.14117647
v 9.75346953 16.76752657 32.04195091 0.11764706 0.63921569 0.14117647
v 9.75346953 -16.84667990 31.72432372 0.11764706 0.63921569 0.14117647
v 12.93164313 -16.84338212 32.79052326 0.11764706 0.63921569 0.14117647
v 12.93164313 16.84667990 29.26437193 0.11764706 0.63921569 0.14117647
v 12.92542174 16.84338212 32.77852976 0.11764706 0.63921569 0.14117647
v 9.75346953 16.84008434 31.90009424 0.11764706 0.63921569 0.14117647
v 12.93164313 -16.84667990 32.61475408 0.11764706 0.63921569 0.14117647
v 9.75346953 -16.84667990 29.26437193 0.11764706 0.63921569 0.14117647
v 9.75346953 16.84667990 29.26437193 0.11764706 0.63921569 0.14117647
v 12.92542174 16.84667990 32.60275924 0.11764706 0.63921569 0.14117647
v 12.93164313 16.84008434 29.08860275 0.11764706 0.63921569 0.14117647
v 9.75346953 16.84667990 31.72432372 0.11764706 0.63921569 0.14117647
v 12.93164313 -16.84667990 29.26437193 0.11764706 0.63921569 0.14117647
v 9.75440294 -16.80050701 29.01953587 0.11764706 0.63921569 0.14117647
v 12.93164313 -16.80380479 29.02242997 0.11764706 0.63921569 0.14117647
v 9.75346953 -16.60921723 28.90331978 0.11764706 0.63921569 0.14117647
v 9.75346953 16.84008434 29.08860275 0.11764706 0.63921569 0.14117647
v 12.93164313 16.76422745 28.95212257 0.11764706 0.63921569 0.14117647
v 12.93164313 -16.60921723 28.90331978 0.11764706 0.63921569 0.14117647
v 9.75346953 16.60921723 28.90331978 0.11764706 0.63921569 0.14117647
v 9.75346953 16.76422745 28.95212257 0.11764706 0.63921569 0.14117647
v 12.93164313 16.60921723 28.90331978 0.11764706 0.63921569 0.14117647
f 257 258 259
f 257 259 265
f 257 265 269
f 257 269 273
f 257 273 279
f 257 279 281
f 257 281 285
f 257 285 288
f 257 288 284
f 257 284 277
f 257 277 270
f 257 270 266
f 257 266 260
f 257 260 261
f 257 261 258
f 258 262 263
f 258 263 264
f 258 264 259
f 258 261 267
f 258 267 272
f 258 272 278
f 258 278 275
f 258 275 283
f 258 283 287
f 258 287 286
f 258 286 282
f 258 282 274
f 258 274 268
f 258 268 262
f 259 263 265
f 259 264 263
f 260 266 267
f 260 267 261
f 262 268 269
f 262 269 265
f 262 265 263
f 266 270 271
f 266 271 272
f 266 272 267
f 268 273 269
f 268 274 279
f 268 279 273
f 270 275 278
f 270 278 276
f 270 276 271
f 270 277 283
f 270 283 275
f 271 276 278
f 271 278 272
f 274 280 281
f 274 281 279
f 274 282 280
f 277 284 287
f 277 287 283
f 280 285 281
f 280 282 285
f 282 286 288
f 282 288 285
f 284 288 286
f 284 286 287

o geometry_9
v -3.52068197 -16.84667990 29.26404202 0.94117647 0.52156863 0.41176471
v -3.52068197 -16.84667990 31.72407964 0.94117647 0.52156863 0.41176471
v -3.52068197 -16.83955461 29.08805692 0.94117647 0.52156863 0.41176471
v 1.84009362 -16.84667990 29.26404202 0.94117647 0.52156863 0.41176471
v 1.84009362 -16.84667990 31.72407964 0.94117647 0.52156863 0.41176471
v 1.84009362 -16.84074149 31.90037721 0.94117647 0.52156863 0.41176471
v -3.52068197 -16.79561198 31.98790038 0.94117647 0.52156863 0.41176471
v 1.84009362 -16.83955461 29.08805692 0.94117647 0.52156863 0.41176471
v -3.52068197 -16.76710948 28.95208234 0.94117647 0.52156863 0.41176471
v 1.84009362 -16.76948458 32.03979039 0.94117647 0.52156863 0.41176471
v -3.52068197 -16.60915554 32.09668005 0.94117647 0.52156863 0.41176471
v 1.84009362 -16.76710948 28.95208234 0.94117647 0.52156863 0.41176471
v -3.52068197 -16.60915554 28.90331978 0.94117647 0.52156863 0.41176471
v 1.84009362 -16.61272019 32.09574261 0.94117647 0.52156863 0.41176471
v 1.84009362 -5.88972330 32.09668005 0.94117647 0.52156863 0.41176471
v -3.52068197 -5.18665396 32.09668005 0.94117647 0.52156863 0.41176471
v 1.84009362 -16.60915554 28.90331978 0.94117647 0.52156863 0.41176471
v 1.84009362 -5.88972330 28.90331978 0.94117647 0.52156863 0.41176471
v -3.52068197 -4.87668581 28.92863983 0.94117647 0.52156863 0.41176471
v -3.47397968 -5.03226399 28.90581959 0.94117647 0.52156863 0.41176471
v 1.84009362 -5.71633123 32.06292042 0.94117647 0.52156863 0.41176471
v -3.47397968 -5.01088679 32.09292898 0.94117647 0.52156863 0.41176471
v -3.25148877 -5.18665396 32.09668005 0.94117647 0.52156863 0.41176471
v -3.52068197 -4.83630717 32.05323094 0.94117647 0.52156863 0.41176471
v 1.84009362 -5.65695047 28.98459071 0.94117647 0.52156863 0.41176471
v -3.52068197 -4.73298445 29.03554329 0.94117647 0.52156863 0.41176471
v 1.84009362 -5.60232025 31.95695439 0.94117647 0.52156863 0.41176471
v -3.52068197 -4.72585849 31.94913977 0.94117647 0.52156863 0.41176471
v 1.84009362 -5.59163164 29.26404202 0.94117647 0.52156863 0.41176471
v -3.52068197 -4.71398234 29.26404202 0.94117647 0.52156863 0.41176471
v 1.84009362 -5.59163164 31.73502037 0.94117647 0.52156863 0.41176471
v -3.52068197 -4.71398234 31.72407964 0.94117647 0.52156863 0.41176471
f 289 290 295
f 289 295 299
f 289 299 304
f 289 304 312
f 289 312 316
f 289 316 320
f 289 320 318
f 289 318 314
f 289 314 307
f 289 307 301
f 289 301 297
f 289 297 291
f 289 291 296
f 289 296 292
f 289 292 293
f 289 293 290
f 290 293 294
f 290 294 295
f 291 297 300
f 291 300 296
f 292 296 300
f 292 300 305
f 292 305 306
f 292 306 313
f 292 313 317
f 292 317 319
f 292 319 315
f 292 315 309
f 292 309 303
f 292 303 302
f 292 302 298
f 292 298 294
f 292 294 293
f 294 298 295
f 295 298 299
f 297 301 305
f 297 305 300
f 298 302 299
f 299 302 303
f 299 303 311
f 299 311 304
f 301 306 305
f 301 307 308
f 301 308 306
f 303 309 310
f 303 310 311
f 304 311 310
f 304 310 312
f 306 308 307
f 306 307 313
f 307 314 313
f 309 315 312
f 309 312 310
f 312 315 316
f 313 314 317
f 314 318 317
f 315 319 320
f 315 320 316
f 317 318 320
f 317 320 319

o geometry_10
v -3.50425579 4.72914219 29.26404202 0.26274510 0.77254902 0.45490196
v -3.50425579 4.72914219 31.72407964 0.26274510 0.77254902 0.45490196
v -3.50425579 4.78844918 28.98802930 0.26274510 0.77254902 0.45490196
v 1.84009362 5.60213652 29.03210470 0.26274510 0.77254902 0.45490196
v 1.84009362 5.59146132 29.25310129 0.26274510 0.77254902 0.45490196
v -3.50425579 4.76709880 31.97445983 0.26274510 0.77254902 0.45490196
v 1.84009362 5.59146132 31.72407964 0.26274510 0.77254902 0.45490196
v 1.84009362 5.60095031 31.95382962 0.26274510 0.77254902 0.45490196
v -3.50425579 5.18580370 28.90331978 0.26274510 0.77254902 0.45490196
v -3.46554346 5.01025580 28.90644455 0.26274510 0.77254902 0.45490196
v 1.84009362 5.71719155 28.93301451 0.26274510 0.77254902 0.45490196
v -3.50425579 4.97229986 32.08886543 0.26274510 0.77254902 0.45490196
v 1.84009362 5.71363293 32.06167051 0.26274510 0.77254902 0.45490196
v -3.25158164 5.18580370 28.90331978 0.26274510 0.77254902 0.45490196
v -3.50425579 16.60945326 28.90331978 0.26274510 0.77254902 0.45490196
v 1.84009362 5.88918015 28.90331978 0.26274510 0.77254902 0.45490196
v -3.50425579 5.10989115 32.09668005 0.26274510 0.77254902 0.45490196
v 1.84009362 5.88918015 32.09668005 0.26274510 0.77254902 0.45490196
v -3.50425579 16.81109637 29.03491700 0.26274510 0.77254902 0.45490196
v 1.84009362 16.76483631 28.95208234 0.26274510 0.77254902 0.45490196
v 1.84009362 16.60945326 28.90331978 0.26274510 0.77254902 0.45490196
v -3.50425579 16.60945326 32.09668005 0.26274510 0.77254902 0.45490196
v 1.84009362 16.60945326 32.09668005 0.26274510 0.77254902 0.45490196
v -3.50425579 16.84667990 29.26404202 0.26274510 0.77254902 0.45490196
v 1.84009362 16.83956265 29.08805692 0.26274510 0.77254902 0.45490196
v 1.84009362 16.76602185 32.04322764 0.26274510 0.77254902 0.45490196
v -3.50425579 16.73399627 32.05385590 0.26274510 0.77254902 0.45490196
v -3.50425579 16.84667990 31.72407964 0.26274510 0.77254902 0.45490196
v 1.84009362 16.84667990 29.26404202 0.26274510 0.77254902 0.45490196
v 1.84009362 16.84193507 31.90037721 0.26274510 0.77254902 0.45490196
v -3.50425579 16.84193507 31.90037721 0.26274510 0.77254902 0.45490196
v 1.84009362 16.84667990 31.72407964 0.26274510 0.77254902 0.45490196
f 321 322 326
f 321 326 332
f 321 332 337
f 321 337 342
f 321 342 347
f 321 347 351
f 321 351 348
f 321 348 344
f 321 344 339
f 321 339 335
f 321 335 329
f 321 329 323
f 321 323 324
f 321 324 325
f 321 325 327
f 321 327 322
f 322 327 328
f 322 328 326
f 323 329 330
f 323 330 331
f 323 331 324
f 324 331 336
f 324 336 341
f 324 341 340
f 324 340 345
f 324 345 349
f 324 349 352
f 324 352 350
f 324 350 346
f 324 346 343
f 324 343 338
f 324 338 333
f 324 333 328
f 324 328 327
f 324 327 325
f 326 328 333
f 326 333 332
f 329 334 330
f 329 335 341
f 329 341 336
f 329 336 334
f 330 334 336
f 330 336 331
f 332 333 338
f 332 338 337
f 335 339 340
f 335 340 341
f 337 338 343
f 337 343 342
f 339 344 345
f 339 345 340
f 342 343 346
f 342 346 347
f 344 348 352
f 344 352 349
f 344 349 345
f 346 350 351
f 346 351 347
f 348 351 350
f 348 350 352

o geometry_11
v -10.40107347 0.00458725 28.90331978 0.56470588 0.01568627 0.61568627
v -6.24043420 0.00458725 28.90331978 0.56470588 0.01568627 0.61568627
v -10.40107347 0.00458725 32.09668005 0.56470588 0.01568627 0.61568627
v -10.40107347 16.60925880 28.90331978 0.56470588 0.01568627 0.61568627
v -6.06490843 0.26673965 28.90331978 0.56470588 0.01568627 0.61568627
v -5.99942431 0.00458725 28.93082583 0.56470588 0.01568627 0.61568627
v -6.24043420 0.00458725 32.09668005 0.56470588 0.01568627 0.61568627
v -10.40107347 16.60925880 32.09668005 0.56470588 0.01568627 0.61568627
v -10.40107347 16.76424220 28.95208234 0.56470588 0.01568627 0.61568627
v -3.50425579 16.60925880 28.90331978 0.56470588 0.01568627 0.61568627
v -3.50425579 5.01187384 28.90581959 0.56470588 0.01568627 0.61568627
v -3.50425579 5.18829145 28.90331978 0.56470588 0.01568627 0.61568627
v -3.50425579 4.78929106 28.98802930 0.56470588 0.01568627 0.61568627
v -5.88870741 0.00458725 29.08805692 0.56470588 0.01568627 0.61568627
v -6.06490843 0.00458725 32.09074163 0.56470588 0.01568627 0.61568627
v -3.50425579 5.04155181 32.09261650 0.56470588 0.01568627 0.61568627
v -3.50425579 16.67191118 32.07511240 0.56470588 0.01568627 0.61568627
v -10.40107347 16.77908152 32.01853389 0.56470588 0.01568627 0.61568627
v -10.40107347 16.83843613 29.08805692 0.56470588 0.01568627 0.61568627
v -3.50425579 16.78072974 28.98177707 0.56470588 0.01568627 0.61568627
v -3.50425579 4.73158468 29.25528997 0.56470588 0.01568627 0.61568627
v -5.88870741 0.00458725 31.90037721 0.56470588 0.01568627 0.61568627
v -5.93393952 0.00458725 32.03666428 0.56470588 0.01568627 0.61568627
v -3.50425579 4.79918372 32.02978709 0.56470588 0.01568627 0.61568627
v -3.50425579 16.82524636 31.93101072 0.56470588 0.01568627 0.61568627
v -10.40107347 16.84173390 31.87130743 0.56470588 0.01568627 0.61568627
v -10.40107347 16.84667990 29.26404202 0.56470588 0.01568627 0.61568627
v -3.50425579 16.84338212 29.19527286 0.56470588 0.01568627 0.61568627
v -3.50425579 4.73158468 31.72407964 0.56470588 0.01568627 0.61568627
v -3.50425579 4.73488212 31.90037721 0.56470588 0.01568627 0.61568627
v -3.50425579 16.84667990 31.72407964 0.56470588 0.01568627 0.61568627
v -10.40107347 16.84667990 31.72407964 0.56470588 0.01568627 0.61568627
f 353 354 358
f 353 358 366
f 353 366 374
f 353 374 375
f 353 375 367
f 353 367 359
f 353 359 355
f 353 355 360
f 353 360 370
f 353 370 378
f 353 378 384
f 353 384 379
f 353 379 371
f 353 371 361
f 353 361 356
f 353 356 362
f 353 362 364
f 353 364 357
f 353 357 354
f 354 357 358
f 355 359 360
f 356 361 362
f 357 363 358
f 357 364 363
f 358 363 365
f 358 365 366
f 359 367 368
f 359 368 360
f 360 368 369
f 360 369 370
f 361 371 372
f 361 372 362
f 362 372 380
f 362 380 383
f 362 383 377
f 362 377 369
f 362 369 368
f 362 368 376
f 362 376 382
f 362 382 381
f 362 381 373
f 362 373 365
f 362 365 363
f 362 363 364
f 365 373 366
f 366 373 381
f 366 381 374
f 367 375 368
f 368 375 376
f 369 377 370
f 370 377 378
f 371 379 380
f 371 380 372
f 374 381 382
f 374 382 376
f 374 376 375
f 377 383 378
f 378 383 384
f 379 384 383
f 379 383 380

o geometry_12
v -10.40107347 -16.84667990 29.26404202 0.61176471 0.61568627 0.94117647
v -10.40107347 -16.84667990 31.72407964 0.61176471 0.61568627 0.94117647
v -10.40107347 -16.80874944 29.03147975 0.61176471 0.61568627 0.94117647
v -3.52202810 -16.84338212 29.19683659 0.61176471 0.61568627 0.94117647
v -3.52202810 -16.84667990 31.72407964 0.61176471 0.61568627 0.94117647
v -10.40107347 -16.84173256 31.90037721 0.61176471 0.61568627 0.94117647
v -3.52202810 -16.76587030 28.95208234 0.61176471 0.61568627 0.94117647
v -10.40107347 -16.63558602 28.91144687 0.61176471 0.61568627 0.94117647
v -3.52202810 -16.79555565 31.98790038 0.61176471 0.61568627 0.94117647
v -10.40107347 -16.67516470 32.07386115 0.61176471 0.61568627 0.94117647
v -3.52202810 -16.61084801 28.90331978 0.61176471 0.61568627 0.94117647
v -10.40107347 0.00129014 28.90331978 0.61176471 0.61568627 0.94117647
v -3.52202810 -16.61084801 32.09668005 0.61176471 0.61568627 0.94117647
v -10.40107347 0.00129014 32.09668005 0.61176471 0.61568627 0.94117647
v -6.06488429 -0.26422709 28.90331978 0.61176471 0.61568627 0.94117647
v -3.52202810 -5.05343065 28.90425855 0.61176471 0.61568627 0.94117647
v -6.24064878 0.00129014 28.90331978 0.61176471 0.61568627 0.94117647
v -3.52202810 -5.18866293 32.09668005 0.61176471 0.61568627 0.94117647
v -6.24064878 0.00129014 32.09668005 0.61176471 0.61568627 0.94117647
v -5.99888854 0.00129014 28.93082583 0.61176471 0.61568627 0.94117647
v -3.52202810 -4.87696912 28.92863983 0.61176471 0.61568627 0.94117647
v -3.56310714 -5.01055218 32.09543014 0.61176471 0.61568627 0.94117647
v -3.52202810 -4.83573955 32.05323094 0.61176471 0.61568627 0.94117647
v -6.06488429 0.00129014 32.09074163 0.61176471 0.61568627 0.94117647
v -6.06488429 -0.26422709 32.09574261 0.61176471 0.61568627 0.94117647
v -5.88911980 0.00129014 29.08805692 0.61176471 0.61568627 0.94117647
v -3.52202810 -4.73349072 29.03554329 0.61176471 0.61568627 0.94117647
v -3.52202810 -4.72689416 31.94913977 0.61176471 0.61568627 0.94117647
v -5.93356602 0.00129014 32.03666428 0.61176471 0.61568627 0.94117647
v -5.88911980 0.00129014 31.90037721 0.61176471 0.61568627 0.94117647
v -3.52202810 -4.71534993 29.26404202 0.61176471 0.61568627 0.94117647
v -3.52202810 -4.71534993 31.76315272 0.61176471 0.61568627 0.94117647
f 385 386 390
f 385 390 394
f 385 394 398
f 385 398 396
f 385 396 392
f 385 392 387
f 385 387 388
f 385 388 389
f 385 389 386
f 386 389 390
f 387 391 388
f 387 392 391
f 388 391 395
f 388 395 400
f 388 400 405
f 388 405 411
f 388 411 415
f 388 415 416
f 388 416 412
f 388 412 407
f 388 407 402
f 388 402 397
f 388 397 393
f 388 393 389
f 389 393 390
f 390 393 394
f 391 392 395
f 392 396 395
f 393 397 394
f 394 397 398
f 395 396 401
f 395 401 399
f 395 399 400
f 396 398 403
f 396 403 408
f 396 408 413
f 396 413 414
f 396 414 410
f 396 410 404
f 396 404 401
f 397 402 403
f 397 403 398
f 399 401 404
f 399 404 400
f 400 404 405
f 402 406 403
f 402 407 406
f 403 406 409
f 403 409 408
f 404 410 405
f 405 410 411
f 406 407 408
f 406 408 409
f 407 412 413
f 407 413 408
f 410 414 416
f 410 416 415
f 410 415 411
f 412 416 414
f 412 414 413

o geometry_13
v 1.84009328 5.60197391 31.95382962 0.67843137 0.35686275 0.43529412
v 1.84009328 5.71079314 32.06010813 0.67843137 0.35686275 0.43529412
v 1.84009328 5.65968096 28.98240471 0.67843137 0.35686275 0.43529412
v 5.88818505 0.00270367 29.08805692 0.67843137 0.35686275 0.43529412
v 5.88741057 0.00270367 29.26404202 0.67843137 0.35686275 0.43529412
v 5.88741057 0.00270367 31.72407964 0.67843137 0.35686275 0.43529412
v 5.90445198 0.00270367 31.95164093 0.67843137 0.35686275 0.43529412
v 1.84009328 5.88886231 32.09668005 0.67843137 0.35686275 0.43529412
v 6.03148676 0.00270367 32.07729974 0.67843137 0.35686275 0.43529412
v 1.84009328 5.88886231 28.90331978 0.67843137 0.35686275 0.43529412
v 6.01367086 0.00270367 28.92520124 0.67843137 0.35686275 0.43529412
v 6.19647816 0.00270367 32.09511766 0.67843137 0.35686275 0.43529412
v 9.75346953 0.26486009 32.09668005 0.67843137 0.35686275 0.43529412
v 1.84009328 16.61090434 32.09668005 0.67843137 0.35686275 0.43529412
v 6.23985618 0.00270367 28.90331978 0.67843137 0.35686275 0.43529412
v 1.84009328 16.61090434 28.90331978 0.67843137 0.35686275 0.43529412
v 9.75346953 0.00270367 32.09636757 0.67843137 0.35686275 0.43529412
v 9.75346953 16.61090434 32.09668005 0.67843137 0.35686275 0.43529412
v 1.84009328 16.76424086 32.04322764 0.67843137 0.35686275 0.43529412
v 9.75346953 16.61090434 28.90331978 0.67843137 0.35686275 0.43529412
v 9.75346953 0.04722096 28.90363359 0.67843137 0.35686275 0.43529412
v 1.84009328 16.76588908 28.95395720 0.67843137 0.35686275 0.43529412
v 9.75346953 16.76588908 28.95208234 0.67843137 0.35686275 0.43529412
v 9.75346953 16.76588908 32.04197773 0.67843137 0.35686275 0.43529412
v 1.84009328 16.84008434 31.90256590 0.67843137 0.35686275 0.43529412
v 1.84009328 16.84008434 29.08805692 0.67843137 0.35686275 0.43529412
v 9.75346953 16.84008434 29.08805692 0.67843137 0.35686275 0.43529412
v 9.75346953 16.84008434 31.90037721 0.67843137 0.35686275 0.43529412
v 9.75346953 16.84667990 31.72407964 0.67843137 0.35686275 0.43529412
v 1.84009328 16.84667990 31.72407964 0.67843137 0.35686275 0.43529412
v 1.84009328 16.84667990 29.26404202 0.67843137 0.35686275 0.43529412
v 9.75346953 16.84667990 29.26404202 0.67843137 0.35686275 0.43529412
f 417 418 424
f 417 424 430
f 417 430 435
f 417 435 441
f 417 441 446
f 417 446 447
f 417 447 442
f 417 442 438
f 417 438 432
f 417 432 426
f 417 426 419
f 417 419 420
f 417 420 421
f 417 421 422
f 417 422 423
f 417 423 418
f 418 423 425
f 418 425 424
f 419 426 427
f 419 427 420
f 420 427 431
f 420 431 433
f 420 433 428
f 420 428 425
f 420 425 423
f 420 423 422
f 420 422 421
f 424 425 428
f 424 428 429
f 424 429 434
f 424 434 430
f 426 431 427
f 426 432 436
f 426 436 431
f 428 433 429
f 429 433 437
f 429 437 436
f 429 436 439
f 429 439 443
f 429 443 448
f 429 448 445
f 429 445 444
f 429 444 440
f 429 440 434
f 430 434 435
f 431 436 437
f 431 437 433
f 432 438 439
f 432 439 436
f 434 440 435
f 435 440 441
f 438 442 439
f 439 442 443
f 440 444 441
f 441 444 445
f 441 445 446
f 442 447 448
f 442 448 443
f 445 448 447
f 445 447 446

o geometry_14
v 1.84009328 -16.84667990 29.26404202 0.69411765 0.05882353 0.66666667
v 1.84009328 -16.84667990 31.72407964 0.69411765 0.05882353 0.66666667
v 1.84009328 -16.80049896 29.01866281 0.69411765 0.05882353 0.66666667
v 9.57918361 -16.80214852 29.02022654 0.69411765 0.05882353 0.66666667
v 9.75346953 -16.84667990 29.26404202 0.69411765 0.05882353 0.66666667
v 9.75346953 -16.84667990 31.72407964 0.69411765 0.05882353 0.66666667
v 9.75346953 -16.80544764 31.97039628 0.69411765 0.05882353 0.66666667
v 1.84009328 -16.80544764 31.97008380 0.69411765 0.05882353 0.66666667
v 1.84009328 -16.61082789 28.90331978 0.69411765 0.05882353 0.66666667
v 9.75346953 -16.61082789 28.90331978 0.69411765 0.05882353 0.66666667
v 9.75346953 -16.80049896 29.01897663 0.69411765 0.05882353 0.66666667
v 9.75346953 -16.61247745 32.09574261 0.69411765 0.05882353 0.66666667
v 9.57918361 -16.68834507 32.06917265 0.69411765 0.05882353 0.66666667
v 1.84009328 -16.61082789 32.09668005 0.69411765 0.05882353 0.66666667
v 1.84009328 -5.89029260 28.90331978 0.69411765 0.05882353 0.66666667
v 9.75346953 -0.26448525 28.90331978 0.69411765 0.05882353 0.66666667
v 9.75346953 -16.43764973 32.09668005 0.69411765 0.05882353 0.66666667
v 1.84009328 -5.89029260 32.09668005 0.69411765 0.05882353 0.66666667
v 1.84009328 -5.65773904 28.98459071 0.69411765 0.05882353 0.66666667
v 6.01367086 0.00270367 28.92520124 0.69411765 0.05882353 0.66666667
v 6.23985618 0.00270367 28.90331978 0.69411765 0.05882353 0.66666667
v 9.75346953 0.00270367 28.90394473 0.69411765 0.05882353 0.66666667
v 9.75346953 -0.26613481 32.09668005 0.69411765 0.05882353 0.66666667
v 9.75346953 0.00270367 32.09636757 0.69411765 0.05882353 0.66666667
v 6.11436971 0.00270367 32.08636427 0.69411765 0.05882353 0.66666667
v 1.84009328 -5.65938860 32.01009431 0.69411765 0.05882353 0.66666667
v 1.84009328 -5.59176676 29.26404202 0.69411765 0.05882353 0.66666667
v 5.88818505 0.00270367 29.08805692 0.69411765 0.05882353 0.66666667
v 5.90445198 0.00270367 31.95164093 0.69411765 0.05882353 0.66666667
v 1.84009328 -5.59176676 31.73502037 0.69411765 0.05882353 0.66666667
v 5.88741057 0.00270367 29.26404202 0.69411765 0.05882353 0.66666667
v 5.88741057 0.00270367 31.72407964 0.69411765 0.05882353 0.66666667
f 449 450 456
f 449 456 462
f 449 462 466
f 449 466 474
f 449 474 478
f 449 478 475
f 449 475 467
f 449 467 463
f 449 463 457
f 449 457 451
f 449 451 452
f 449 452 453
f 449 453 454
f 449 454 450
f 450 454 455
f 450 455 456
f 451 457 458
f 451 458 459
f 451 459 452
f 452 459 453
f 453 459 458
f 453 458 464
f 453 464 470
f 453 470 472
f 453 472 471
f 453 471 465
f 453 465 460
f 453 460 455
f 453 455 454
f 455 460 461
f 455 461 456
f 456 461 462
f 457 463 469
f 457 469 464
f 457 464 458
f 460 465 462
f 460 462 461
f 462 465 471
f 462 471 466
f 463 467 468
f 463 468 469
f 464 469 470
f 466 471 472
f 466 472 473
f 466 473 474
f 467 475 476
f 467 476 468
f 468 476 479
f 468 479 480
f 468 480 477
f 468 477 473
f 468 473 472
f 468 472 470
f 468 470 469
f 473 477 474
f 474 477 478
f 475 478 480
f 475 480 479
f 475 479 476
f 477 480 478

