# https://github.com/mikedh/trimesh

o geometry_0
v 11.13244012 -14.15007278 68.09668022 0.54509804 0.71372549 0.60000000
v 11.13244012 -14.31859329 67.97179121 0.54509804 0.71372549 0.60000000
v 14.21557367 -14.21467245 68.05430669 0.54509804 0.71372549 0.60000000
v 14.21557367 14.21467245 68.05430669 0.54509804 0.71372549 0.60000000
v 11.13244012 14.21186417 68.07214874 0.54509804 0.71372549 0.60000000
v 11.13244012 -14.34668005 67.73539606 0.54509804 0.71372549 0.60000000
v 14.15024847 -14.34387043 67.82237071 0.54509804 0.71372549 0.60000000
v 14.31840822 -14.21748072 67.82237071 0.54509804 0.71372549 0.60000000
v 14.31840822 14.21748072 67.82237071 0.54509804 0.71372549 0.60000000
v 14.15024847 14.34387043 67.82237071 0.54509804 0.71372549 0.60000000
v 11.13244012 14.34387043 67.82237071 0.54509804 0.71372549 0.60000000
v 11.13244012 -14.34387043 63.42675048 0.54509804 0.71372549 0.60000000
v 11.51408091 -14.34668005 45.31348991 0.54509804 0.71372549 0.60000000
v 14.15024847 -14.34668005 45.31348991 0.54509804 0.71372549 0.60000000
v 14.31309342 -14.23433304 45.31348991 0.54509804 0.71372549 0.60000000
v 14.32497159 14.20343801 45.31348991 0.54509804 0.71372549 0.60000000
v 14.18994382 14.32982773 45.31348991 0.54509804 0.71372549 0.60000000
v 11.42593816 14.34387043 45.31348991 0.54509804 0.71372549 0.60000000
v 11.13244012 14.34668005 63.37099674 0.54509804 0.71372549 0.60000000
v 11.13244012 -14.32982773 63.07661760 0.54509804 0.71372549 0.60000000
v 11.17244862 -14.20343801 45.31348991 0.54509804 0.71372549 0.60000000
v 11.29997492 -14.32701945 45.31348991 0.54509804 0.71372549 0.60000000
v 11.17776208 14.21748072 45.31348991 0.54509804 0.71372549 0.60000000
v 11.13244012 14.34106216 63.19258559 0.54509804 0.71372549 0.60000000
v 11.13244012 -14.31297541 62.81346071 0.54509804 0.71372549 0.60000000
v 11.13244012 -14.28208038 62.55699325 0.54509804 0.71372549 0.60000000
v 11.13244012 -14.05457810 62.12880406 0.54509804 0.71372549 0.60000000
v 11.13244012 13.63608643 62.12434489 0.54509804 0.71372549 0.60000000
v 11.13244012 13.97031784 62.12434489 0.54509804 0.71372549 0.60000000
v 11.13244012 14.15007278 62.13772509 0.54509804 0.71372549 0.60000000
v 11.13244012 14.28488865 62.57483396 0.54509804 0.71372549 0.60000000
v 11.13244012 14.32420984 62.93165761 0.54509804 0.71372549 0.60000000
f 1 2 3
f 1 3 4
f 1 4 5
f 1 5 11
f 1 11 19
f 1 19 24
f 1 24 32
f 1 32 31
f 1 31 30
f 1 30 29
f 1 29 28
f 1 28 27
f 1 27 26
f 1 26 25
f 1 25 20
f 1 20 12
f 1 12 6
f 1 6 2
f 2 6 7
f 2 7 3
f 3 7 8
f 3 8 9
f 3 9 4
f 4 9 10
f 4 10 5
f 5 10 11
f 6 12 13
f 6 13 14
f 6 14 7
f 7 14 15
f 7 15 8
f 8 15 16
f 8 16 9
f 9 16 17
f 9 17 10
f 10 17 18
f 10 18 19
f 10 19 11
f 12 20 21
f 12 21 22
f 12 22 13
f 13 22 21
f 13 21 23
f 13 23 18
f 13 18 17
f 13 17 16
f 13 16 15
f 13 15 14
f 18 23 19
f 19 23 24
f 20 25 21
f 21 25 26
f 21 26 27
f 21 27 28
f 21 28 29
f 21 29 23
f 23 29 30
f 23 30 31
f 23 31 32
f 23 32 24

o geometry_1
v 6.12488329 -14.34668005 23.26424453 0.54117647 0.42352941 0.64313725
v 6.12488329 -14.34668005 25.90061057 0.54117647 0.42352941 0.64313725
v 6.12488329 -14.31859329 23.03189683 0.54117647 0.42352941 0.64313725
v 14.14952427 -14.34106216 23.08827955 0.54117647 0.42352941 0.64313725
v 14.14952427 -14.34668005 23.26424453 0.54117647 0.42352941 0.64313725
v 11.51246622 -14.34668005 29.24083519 0.54117647 0.42352941 0.64313725
v 11.33703768 -14.34106216 29.24083519 0.54117647 0.42352941 0.64313725
v 6.12488329 -14.20624629 26.07471678 0.54117647 0.42352941 0.64313725
v 6.12488329 -14.17254165 22.91231591 0.54117647 0.42352941 0.64313725
v 14.21551064 -14.21467245 22.94391501 0.54117647 0.42352941 0.64313725
v 14.31690484 -14.21748072 23.08827955 0.54117647 0.42352941 0.64313725
v 14.31851417 -14.21748072 23.26424453 0.54117647 0.42352941 0.64313725
v 14.14952427 -14.34668005 29.24083519 0.54117647 0.42352941 0.64313725
v 11.17689840 -14.21748072 29.24083519 0.54117647 0.42352941 0.64313725
v 6.12488329 14.15007278 26.09640244 0.54117647 0.42352941 0.64313725
v 6.12488329 14.21748072 22.92780566 0.54117647 0.42352941 0.64313725
v 14.21551064 14.21467245 22.94391501 0.54117647 0.42352941 0.64313725
v 14.31690484 14.21748072 23.08827955 0.54117647 0.42352941 0.64313725
v 14.31851417 -14.21748072 29.24083519 0.54117647 0.42352941 0.64313725
v 14.31851417 14.21748072 23.26424453 0.54117647 0.42352941 0.64313725
v 14.34587538 14.14726451 29.24021560 0.54117647 0.42352941 0.64313725
v 11.17689840 14.21748072 29.24083519 0.54117647 0.42352941 0.64313725
v 6.12488329 14.32140157 25.95947298 0.54117647 0.42352941 0.64313725
v 6.12488329 14.34106216 23.08827955 0.54117647 0.42352941 0.64313725
v 14.14952427 14.34106216 23.08827955 0.54117647 0.42352941 0.64313725
v 14.29195896 14.29050654 29.24083519 0.54117647 0.42352941 0.64313725
v 14.14952427 14.34668005 23.26424453 0.54117647 0.42352941 0.64313725
v 11.33623302 14.34106216 29.24083519 0.54117647 0.42352941 0.64313725
v 11.51246622 14.34668005 29.23959601 0.54117647 0.42352941 0.64313725
v 6.12488329 14.34668005 23.26424453 0.54117647 0.42352941 0.64313725
v 14.14871961 14.34668005 29.24021560 0.54117647 0.42352941 0.64313725
v 11.68709010 14.34668005 29.24083519 0.54117647 0.42352941 0.64313725
f 33 34 40
f 33 40 47
f 33 47 55
f 33 55 62
f 33 62 56
f 33 56 48
f 33 48 41
f 33 41 35
f 33 35 36
f 33 36 37
f 33 37 45
f 33 45 38
f 33 38 34
f 34 38 39
f 34 39 40
f 35 41 42
f 35 42 36
f 36 42 43
f 36 43 37
f 37 43 44
f 37 44 51
f 37 51 45
f 38 45 51
f 38 51 58
f 38 58 64
f 38 64 60
f 38 60 54
f 38 54 46
f 38 46 39
f 39 46 40
f 40 46 47
f 41 48 49
f 41 49 42
f 42 49 50
f 42 50 43
f 43 50 52
f 43 52 44
f 44 52 53
f 44 53 51
f 46 54 47
f 47 54 55
f 48 56 57
f 48 57 49
f 49 57 50
f 50 58 52
f 50 57 59
f 50 59 58
f 51 53 58
f 52 58 53
f 54 60 55
f 55 60 61
f 55 61 62
f 56 62 59
f 56 59 57
f 58 59 63
f 58 63 64
f 59 62 61
f 59 61 64
f 59 64 63
f 60 64 61

o geometry_2
v 14.15008351 14.34668005 45.31191680 0.43529412 0.89019608 0.96078431
v 14.15008351 14.34668005 29.41762227 0.43529412 0.89019608 0.96078431
v 11.51400313 14.34668005 45.31191680 0.43529412 0.89019608 0.96078431
v 14.26104113 14.30174097 45.31191680 0.43529412 0.89019608 0.96078431
v 14.29229558 14.29050654 29.24302790 0.43529412 0.89019608 0.96078431
v 14.14883360 14.34668005 29.24302790 0.43529412 0.89019608 0.96078431
v 11.51400313 14.34668005 29.41762227 0.43529412 0.89019608 0.96078431
v 11.33740917 14.34106216 29.24302790 0.43529412 0.89019608 0.96078431
v 11.33834660 14.34106216 45.31191680 0.43529412 0.89019608 0.96078431
v 14.34636757 14.15007278 45.31191680 0.43529412 0.89019608 0.96078431
v 14.34636757 14.15007278 29.41762227 0.43529412 0.89019608 0.96078431
v 14.34636757 14.14726451 29.24302790 0.43529412 0.89019608 0.96078431
v 11.68872088 14.34668005 29.24302790 0.43529412 0.89019608 0.96078431
v 11.20207362 14.28769827 29.24302790 0.43529412 0.89019608 0.96078431
v 11.20207362 14.28769827 45.31191680 0.43529412 0.89019608 0.96078431
v 14.34636757 -14.15007278 45.31191680 0.43529412 0.89019608 0.96078431
v 14.34636757 -13.97031784 29.24302790 0.43529412 0.89019608 0.96078431
v 11.15362823 14.15007278 29.24302790 0.43529412 0.89019608 0.96078431
v 11.15362823 14.15007278 45.31191680 0.43529412 0.89019608 0.96078431
v 14.29198310 -14.29050654 45.31191680 0.43529412 0.89019608 0.96078431
v 14.34636757 -14.15007278 29.41762227 0.43529412 0.89019608 0.96078431
v 14.34574261 -14.15007278 29.24302790 0.43529412 0.89019608 0.96078431
v 11.15362823 -14.15007278 29.24302790 0.43529412 0.89019608 0.96078431
v 11.17269337 -14.20343801 45.31191680 0.43529412 0.89019608 0.96078431
v 14.15008351 -14.34668005 45.31191680 0.43529412 0.89019608 0.96078431
v 14.29198310 -14.29050654 29.24302790 0.43529412 0.89019608 0.96078431
v 11.20176114 -14.28769827 29.24302790 0.43529412 0.89019608 0.96078431
v 11.29990250 -14.32701945 45.31191680 0.43529412 0.89019608 0.96078431
v 11.51400313 -14.34668005 45.31191680 0.43529412 0.89019608 0.96078431
v 14.15008351 -14.34668005 29.24302790 0.43529412 0.89019608 0.96078431
v 11.33834660 -14.34106216 29.24302790 0.43529412 0.89019608 0.96078431
v 11.51400313 -14.34668005 29.24302790 0.43529412 0.89019608 0.96078431
f 65 66 70
f 65 70 77
f 65 77 71
f 65 71 67
f 65 67 73
f 65 73 79
f 65 79 83
f 65 83 88
f 65 88 92
f 65 92 93
f 65 93 89
f 65 89 84
f 65 84 80
f 65 80 74
f 65 74 68
f 65 68 69
f 65 69 66
f 66 69 70
f 67 71 72
f 67 72 73
f 68 74 69
f 69 74 75
f 69 75 76
f 69 76 81
f 69 81 86
f 69 86 90
f 69 90 94
f 69 94 96
f 69 96 95
f 69 95 91
f 69 91 87
f 69 87 82
f 69 82 78
f 69 78 72
f 69 72 77
f 69 77 70
f 71 77 72
f 72 78 79
f 72 79 73
f 74 80 85
f 74 85 81
f 74 81 76
f 74 76 75
f 78 82 83
f 78 83 79
f 80 84 90
f 80 90 85
f 81 85 86
f 82 87 83
f 83 87 88
f 84 89 94
f 84 94 90
f 85 90 86
f 87 91 88
f 88 91 92
f 89 93 96
f 89 96 94
f 91 95 92
f 92 95 93
f 93 95 96

o geometry_3
v -11.51395082 14.34668005 45.31349058 0.38039216 0.78823529 0.52549020
v -11.13937296 14.34387043 27.72492844 0.38039216 0.78823529 0.52549020
v -11.13937296 14.34387043 23.17971739 0.38039216 0.78823529 0.52549020
v -14.14981395 14.34668005 45.31349058 0.38039216 0.78823529 0.52549020
v -11.23639248 14.26522806 45.31349058 0.38039216 0.78823529 0.52549020
v -11.13937296 14.32982773 27.99035716 0.38039216 0.78823529 0.52549020
v -14.14981395 14.34387043 23.17971739 0.38039216 0.78823529 0.52549020
v -11.13937296 14.21467245 22.92744893 0.38039216 0.78823529 0.52549020
v -14.31339785 14.23433304 45.31349058 0.38039216 0.78823529 0.52549020
v -11.13937296 14.15007278 28.91387793 0.38039216 0.78823529 0.52549020
v -11.13937296 14.27646250 28.51683053 0.38039216 0.78823529 0.52549020
v -11.13937296 14.30735886 28.24920642 0.38039216 0.78823529 0.52549020
v -11.17799208 -14.21748072 45.31349058 0.38039216 0.78823529 0.52549020
v -14.21543553 14.21467245 22.94499862 0.38039216 0.78823529 0.52549020
v -14.31842163 14.21748072 23.17971739 0.38039216 0.78823529 0.52549020
v -11.13937296 -14.15007278 22.90331978 0.38039216 0.78823529 0.52549020
v -14.34668005 -14.15007278 45.31349058 0.38039216 0.78823529 0.52549020
v -11.13937296 13.97031784 28.93362033 0.38039216 0.78823529 0.52549020
v -11.42603606 -14.34387043 45.31349058 0.38039216 0.78823529 0.52549020
v -11.13937296 -14.34387043 27.57356736 0.38039216 0.78823529 0.52549020
v -11.13937296 -14.33263600 27.92454916 0.38039216 0.78823529 0.52549020
v -11.13937296 -14.31297541 28.18559113 0.38039216 0.78823529 0.52549020
v -11.13937296 -14.28208038 28.45760199 0.38039216 0.78823529 0.52549020
v -11.13937296 -14.17254165 28.84368184 0.38039216 0.78823529 0.52549020
v -11.13937296 -13.99278805 28.93800843 0.38039216 0.78823529 0.52549020
v -11.13937296 2.37051638 28.93800843 0.38039216 0.78823529 0.52549020
v -14.21543553 -14.21467245 22.94499862 0.38039216 0.78823529 0.52549020
v -14.31842163 -14.21748072 23.17971739 0.38039216 0.78823529 0.52549020
v -11.13937296 -14.31578368 23.02616227 0.38039216 0.78823529 0.52549020
v -14.20538932 -14.32420984 45.31349058 0.38039216 0.78823529 0.52549020
v -14.14981395 -14.34387043 23.17971739 0.38039216 0.78823529 0.52549020
v -11.13937296 -14.34668005 23.26526913 0.38039216 0.78823529 0.52549020
f 97 98 99
f 97 99 103
f 97 103 100
f 97 100 105
f 97 105 113
f 97 113 126
f 97 126 115
f 97 115 109
f 97 109 101
f 97 101 98
f 98 101 102
f 98 102 108
f 98 108 107
f 98 107 106
f 98 106 114
f 98 114 122
f 98 122 121
f 98 121 120
f 98 120 119
f 98 119 118
f 98 118 117
f 98 117 116
f 98 116 128
f 98 128 125
f 98 125 112
f 98 112 104
f 98 104 99
f 99 104 103
f 100 103 105
f 101 106 107
f 101 107 108
f 101 108 102
f 101 109 106
f 103 104 110
f 103 110 111
f 103 111 105
f 104 112 110
f 105 111 113
f 106 109 114
f 109 115 116
f 109 116 117
f 109 117 118
f 109 118 119
f 109 119 120
f 109 120 121
f 109 121 122
f 109 122 114
f 110 112 123
f 110 123 124
f 110 124 111
f 111 124 113
f 112 125 123
f 113 124 126
f 115 126 127
f 115 127 128
f 115 128 116
f 123 125 127
f 123 127 124
f 124 127 126
f 125 128 127

o geometry_4
v -10.68616614 -14.15007278 68.09668022 0.56470588 0.92549020 0.07058824
v -14.21554416 -14.21467245 68.05430669 0.56470588 0.92549020 0.07058824
v -10.68616614 -14.31859329 67.96956095 0.56470588 0.92549020 0.07058824
v -10.68616614 14.21748072 68.07214874 0.56470588 0.92549020 0.07058824
v -14.21554416 14.21467245 68.05430669 0.56470588 0.92549020 0.07058824
v -14.31743056 -14.21748072 67.91157830 0.56470588 0.92549020 0.07058824
v -14.14999366 -14.34106216 67.91157830 0.56470588 0.92549020 0.07058824
v -10.68616614 -14.34668005 67.73539606 0.56470588 0.92549020 0.07058824
v -10.68616614 14.34106216 67.91157830 0.56470588 0.92549020 0.07058824
v -14.14999366 14.34106216 67.91157830 0.56470588 0.92549020 0.07058824
v -14.31743056 14.21748072 67.91157830 0.56470588 0.92549020 0.07058824
v -14.31921288 -14.21748072 67.73539606 0.56470588 0.92549020 0.07058824
v -14.14999366 -14.34668005 67.73539606 0.56470588 0.92549020 0.07058824
v -10.68616614 -14.34668005 63.99320889 0.56470588 0.92549020 0.07058824
v -10.68616614 14.34668005 67.73539606 0.56470588 0.92549020 0.07058824
v -14.14999366 14.34668005 67.73539606 0.56470588 0.92549020 0.07058824
v -14.31921288 14.21748072 67.73539606 0.56470588 0.92549020 0.07058824
v -14.32526931 -14.20343801 45.31348991 0.56470588 0.92549020 0.07058824
v -14.18989286 -14.32982773 45.31348991 0.56470588 0.92549020 0.07058824
v -11.51409298 -14.34668005 45.31348991 0.56470588 0.92549020 0.07058824
v -11.33810520 -14.34106216 45.31348991 0.56470588 0.92549020 0.07058824
v -11.17779225 -14.21748072 45.31348991 0.56470588 0.92549020 0.07058824
v -10.68616614 -14.32982773 63.81479639 0.56470588 0.92549020 0.07058824
v -10.68616614 14.34668005 64.04227185 0.56470588 0.92549020 0.07058824
v -14.14999366 14.34668005 45.31348991 0.56470588 0.92549020 0.07058824
v -14.31315646 14.23433304 45.31348991 0.56470588 0.92549020 0.07058824
v -11.17244862 14.20343801 45.31348991 0.56470588 0.92549020 0.07058824
v -10.68616614 -14.21467245 63.57171047 0.56470588 0.92549020 0.07058824
v -11.29998699 14.32701945 45.31348991 0.56470588 0.92549020 0.07058824
v -11.51409298 14.34668005 45.31348991 0.56470588 0.92549020 0.07058824
v -10.68616614 14.31297541 63.78357413 0.56470588 0.92549020 0.07058824
v -10.68616614 14.20343801 63.55386841 0.56470588 0.92549020 0.07058824
f 129 130 131
f 129 131 136
f 129 136 142
f 129 142 151
f 129 151 156
f 129 156 160
f 129 160 159
f 129 159 152
f 129 152 143
f 129 143 137
f 129 137 132
f 129 132 133
f 129 133 130
f 130 134 135
f 130 135 131
f 130 133 139
f 130 139 134
f 131 135 136
f 132 137 138
f 132 138 133
f 133 138 139
f 134 140 141
f 134 141 135
f 134 139 145
f 134 145 140
f 135 141 136
f 136 141 148
f 136 148 142
f 137 143 144
f 137 144 138
f 138 144 139
f 139 144 145
f 140 145 146
f 140 146 147
f 140 147 141
f 141 147 148
f 142 148 149
f 142 149 150
f 142 150 151
f 143 152 158
f 143 158 153
f 143 153 144
f 144 153 154
f 144 154 145
f 145 154 146
f 146 154 153
f 146 153 158
f 146 158 157
f 146 157 155
f 146 155 150
f 146 150 149
f 146 149 148
f 146 148 147
f 150 155 156
f 150 156 151
f 152 157 158
f 152 159 155
f 152 155 157
f 155 159 160
f 155 160 156

o geometry_5
v -11.13842279 2.37051638 28.93634680 0.08627451 0.01960784 0.83137255
v -7.83617958 14.14164662 26.09612885 0.08627451 0.01960784 0.83137255
v -11.13842279 13.97031784 28.93044057 0.08627451 0.01960784 0.83137255
v -11.13842279 -13.99278805 28.93516529 0.08627451 0.01960784 0.83137255
v -7.83617958 -13.97031784 26.09612885 0.08627451 0.01960784 0.83137255
v -7.83617958 14.31578368 25.97387376 0.08627451 0.01960784 0.83137255
v -11.13842279 14.15007278 28.90977013 0.08627451 0.01960784 0.83137255
v -11.13842279 -14.17254165 28.84244132 0.08627451 0.01960784 0.83137255
v -7.83617958 -14.22309861 26.06482747 0.08627451 0.01960784 0.83137255
v -7.83617958 14.34668005 25.72522897 0.08627451 0.01960784 0.83137255
v -11.13842279 14.27646250 28.51583678 0.08627451 0.01960784 0.83137255
v -11.13842279 -14.28208038 28.45500427 0.08627451 0.01960784 0.83137255
v -7.83617958 -14.34387043 25.89414242 0.08627451 0.01960784 0.83137255
v -7.83617958 14.34668005 23.26477024 0.08627451 0.01960784 0.83137255
v -11.13842279 14.34668005 23.26477024 0.08627451 0.01960784 0.83137255
v -11.13842279 14.34387043 27.72206384 0.08627451 0.01960784 0.83137255
v -11.13842279 14.32982773 27.98842597 0.08627451 0.01960784 0.83137255
v -11.13842279 14.30735886 28.24770170 0.08627451 0.01960784 0.83137255
v -11.13842279 -14.31297541 28.18450752 0.08627451 0.01960784 0.83137255
v -11.13842279 -14.33263600 27.92168859 0.08627451 0.01960784 0.83137255
v -11.06213741 -14.34668005 27.48168829 0.08627451 0.01960784 0.83137255
v -7.83617958 -14.34668005 23.26477024 0.08627451 0.01960784 0.83137255
v -7.83617958 14.31578368 23.02321318 0.08627451 0.01960784 0.83137255
v -11.13842279 14.34106216 23.08877039 0.08627451 0.01960784 0.83137255
v -11.13842279 -14.34106216 27.65768814 0.08627451 0.01960784 0.83137255
v -11.13842279 -14.34668005 23.26477024 0.08627451 0.01960784 0.83137255
v -7.83617958 -14.34106216 23.08877039 0.08627451 0.01960784 0.83137255
v -7.83617958 14.15007278 22.90331978 0.08627451 0.01960784 0.83137255
v -11.13842279 14.21467245 22.92635459 0.08627451 0.01960784 0.83137255
v -11.13842279 -14.31578368 23.02498478 0.08627451 0.01960784 0.83137255
v -7.83617958 -14.21748072 22.92812485 0.08627451 0.01960784 0.83137255
v -11.13842279 -14.15007278 22.90331978 0.08627451 0.01960784 0.83137255
f 161 162 163
f 161 163 167
f 161 167 171
f 161 171 178
f 161 178 177
f 161 177 176
f 161 176 175
f 161 175 184
f 161 184 189
f 161 189 192
f 161 192 190
f 161 190 186
f 161 186 185
f 161 185 180
f 161 180 179
f 161 179 172
f 161 172 168
f 161 168 164
f 161 164 165
f 161 165 162
f 162 166 167
f 162 167 163
f 162 165 169
f 162 169 173
f 162 173 182
f 162 182 187
f 162 187 191
f 162 191 188
f 162 188 183
f 162 183 174
f 162 174 170
f 162 170 166
f 164 168 169
f 164 169 165
f 166 170 171
f 166 171 167
f 168 172 173
f 168 173 169
f 170 174 175
f 170 175 176
f 170 176 177
f 170 177 178
f 170 178 171
f 172 179 173
f 173 180 181
f 173 181 182
f 173 179 180
f 174 183 184
f 174 184 175
f 180 185 181
f 181 185 186
f 181 186 182
f 182 186 187
f 183 188 189
f 183 189 184
f 186 190 187
f 187 190 191
f 188 191 192
f 188 192 189
f 190 192 191

o geometry_6
v 11.13212697 -14.15007278 68.09609550 0.77647059 0.86666667 0.97647059
v 6.99434616 -14.20624629 68.07505357 0.77647059 0.86666667 0.97647059
v 11.13212697 -14.31859329 67.97392893 0.77647059 0.86666667 0.97647059
v 11.13212697 14.21186417 68.07388413 0.77647059 0.86666667 0.97647059
v 6.99434616 14.16973338 68.08908153 0.77647059 0.86666667 0.97647059
v 6.99434616 -14.34106216 67.91138384 0.77647059 0.86666667 0.97647059
v 11.13212697 -14.34668005 67.73544031 0.77647059 0.86666667 0.97647059
v 11.13212697 14.34106216 67.91138384 0.77647059 0.86666667 0.97647059
v 6.99434616 14.31859329 67.96983722 0.77647059 0.86666667 0.97647059
v 6.99434616 -14.34668005 67.73544031 0.77647059 0.86666667 0.97647059
v 11.05881684 -14.34668005 63.51804483 0.77647059 0.86666667 0.97647059
v 11.13212697 -14.34106216 63.34268603 0.77647059 0.86666667 0.97647059
v 11.13212697 14.34668005 67.73544031 0.77647059 0.86666667 0.97647059
v 6.99434616 14.34668005 67.73544031 0.77647059 0.86666667 0.97647059
v 6.99434616 -14.32140157 65.03958020 0.77647059 0.86666667 0.97647059
v 11.13212697 -14.33825389 63.16498834 0.77647059 0.86666667 0.97647059
v 11.13212697 14.34668005 63.37249610 0.77647059 0.86666667 0.97647059
v 6.99434616 14.34668005 65.10037112 0.77647059 0.86666667 0.97647059
v 11.13212697 -14.32701945 62.99079764 0.77647059 0.86666667 0.97647059
v 6.99434616 -14.15007278 64.90396905 0.77647059 0.86666667 0.97647059
v 11.13212697 -14.05457810 62.13036644 0.77647059 0.86666667 0.97647059
v 11.13212697 -14.28208038 62.56116676 0.77647059 0.86666667 0.97647059
v 11.13212697 -14.31297541 62.81543750 0.77647059 0.86666667 0.97647059
v 11.13212697 14.34106216 63.19655257 0.77647059 0.86666667 0.97647059
v 11.13212697 14.32420984 62.93468314 0.77647059 0.86666667 0.97647059
v 11.13212697 14.29331481 62.66229141 0.77647059 0.86666667 0.97647059
v 11.13212697 14.27365422 62.49336052 0.77647059 0.86666667 0.97647059
v 11.13212697 14.15007278 62.13854986 0.77647059 0.86666667 0.97647059
v 6.99434616 14.20905456 64.92734987 0.77647059 0.86666667 0.97647059
v 11.13212697 13.28219444 62.12452191 0.77647059 0.86666667 0.97647059
v 11.13212697 13.97031784 62.12802890 0.77647059 0.86666667 0.97647059
f 193 194 195
f 193 195 199
f 193 199 204
f 193 204 208
f 193 208 211
f 193 211 215
f 193 215 214
f 193 214 213
f 193 213 222
f 193 222 223
f 193 223 220
f 193 220 219
f 193 219 218
f 193 218 217
f 193 217 216
f 193 216 209
f 193 209 205
f 193 205 200
f 193 200 196
f 193 196 197
f 193 197 194
f 194 198 195
f 194 197 201
f 194 201 206
f 194 206 210
f 194 210 221
f 194 221 212
f 194 212 207
f 194 207 202
f 194 202 198
f 195 198 199
f 196 200 201
f 196 201 197
f 198 202 199
f 199 202 203
f 199 203 204
f 200 205 206
f 200 206 201
f 202 207 203
f 203 207 208
f 203 208 204
f 205 209 210
f 205 210 206
f 207 211 208
f 207 212 213
f 207 213 214
f 207 214 215
f 207 215 211
f 209 216 210
f 210 216 217
f 210 217 218
f 210 218 219
f 210 219 220
f 210 220 221
f 212 222 213
f 212 221 222
f 220 223 221
f 221 223 222

o geometry_7
v -8.31524223 14.15007278 68.09668022 0.79607843 0.45882353 0.78039216
v -8.31524223 14.29331481 68.03457367 0.79607843 0.45882353 0.78039216
v -10.68557873 14.20624629 68.07568121 0.79607843 0.45882353 0.78039216
v -10.68557873 -14.15007278 68.09668022 0.79607843 0.45882353 0.78039216
v -8.31524223 -14.15007278 68.09668022 0.79607843 0.45882353 0.78039216
v -8.31524223 14.34106216 67.91125241 0.79607843 0.45882353 0.78039216
v -10.68557873 14.34106216 67.91125241 0.79607843 0.45882353 0.78039216
v -10.68557873 -14.29331481 68.02787083 0.79607843 0.45882353 0.78039216
v -8.31524223 -14.27365422 68.05244523 0.79607843 0.45882353 0.78039216
v -8.31524223 14.34668005 67.73565489 0.79607843 0.45882353 0.78039216
v -10.68557873 14.34668005 67.73565489 0.79607843 0.45882353 0.78039216
v -10.68557873 -14.34106216 67.91125241 0.79607843 0.45882353 0.78039216
v -8.31524223 -14.34106216 67.91125241 0.79607843 0.45882353 0.78039216
v -8.31524223 14.34668005 65.27594450 0.79607843 0.45882353 0.78039216
v -10.66005617 14.34668005 64.04541942 0.79607843 0.45882353 0.78039216
v -10.68557873 14.32982773 63.86982191 0.79607843 0.45882353 0.78039216
v -10.68557873 -14.34668005 67.73565489 0.79607843 0.45882353 0.78039216
v -8.31524223 -14.34668005 67.73565489 0.79607843 0.45882353 0.78039216
v -8.33264373 14.34106216 65.09319755 0.79607843 0.45882353 0.78039216
v -8.31524223 14.29050654 64.95334449 0.79607843 0.45882353 0.78039216
v -10.68557873 14.29893270 63.70271224 0.79607843 0.45882353 0.78039216
v -10.68557873 -14.34668005 63.99448293 0.79607843 0.45882353 0.78039216
v -8.33264373 -14.34387043 65.10883617 0.79607843 0.45882353 0.78039216
v -8.31524223 -14.29331481 64.96674883 0.79607843 0.45882353 0.78039216
v -8.31524223 14.13041219 64.89168453 0.79607843 0.45882353 0.78039216
v -10.68557873 14.20343801 63.55571109 0.79607843 0.45882353 0.78039216
v -10.68557873 -14.32982773 63.81888407 0.79607843 0.45882353 0.78039216
v -10.68557873 -14.27365422 63.61603129 0.79607843 0.45882353 0.78039216
v -10.68557873 -14.15007278 63.53202987 0.79607843 0.45882353 0.78039216
v -8.31524223 -14.16130722 64.89749286 0.79607843 0.45882353 0.78039216
v -8.31524223 13.97031784 64.89034343 0.79607843 0.45882353 0.78039216
v -8.31524223 -14.00683075 64.89034343 0.79607843 0.45882353 0.78039216
f 224 225 226
f 224 226 227
f 224 227 228
f 224 228 232
f 224 232 236
f 224 236 241
f 224 241 247
f 224 247 253
f 224 253 255
f 224 255 254
f 224 254 248
f 224 248 243
f 224 243 237
f 224 237 233
f 224 233 229
f 224 229 225
f 225 229 230
f 225 230 226
f 226 230 234
f 226 234 239
f 226 239 244
f 226 244 249
f 226 249 252
f 226 252 251
f 226 251 250
f 226 250 245
f 226 245 240
f 226 240 235
f 226 235 231
f 226 231 227
f 227 231 232
f 227 232 228
f 229 233 234
f 229 234 230
f 231 235 236
f 231 236 232
f 233 237 238
f 233 238 234
f 234 238 239
f 235 240 241
f 235 241 236
f 237 242 238
f 237 243 242
f 238 242 239
f 239 242 244
f 240 245 241
f 241 246 247
f 241 245 246
f 242 243 244
f 243 248 249
f 243 249 244
f 245 250 246
f 246 250 251
f 246 251 247
f 247 251 252
f 247 252 253
f 248 254 249
f 249 254 252
f 252 254 255
f 252 255 253

o geometry_8
v -8.31374288 -14.34668005 67.73601833 0.11764706 0.63921569 0.14117647
v -7.82220528 -14.34668005 65.09995136 0.11764706 0.63921569 0.14117647
v 6.99284747 -14.34668005 67.73601833 0.11764706 0.63921569 0.14117647
v -8.31374288 -14.34106216 67.91179824 0.11764706 0.63921569 0.14117647
v -8.31374288 -14.34387043 65.11721539 0.11764706 0.63921569 0.14117647
v -8.31374288 -14.29331481 64.96686149 0.11764706 0.63921569 0.14117647
v 6.99284747 -14.29893270 64.97847545 0.11764706 0.63921569 0.14117647
v 6.99284747 -14.34668005 65.09995136 0.11764706 0.63921569 0.14117647
v 6.99284747 -14.34106216 67.91179824 0.11764706 0.63921569 0.14117647
v -8.31374288 -14.27365422 68.05273491 0.11764706 0.63921569 0.14117647
v -8.31374288 -14.16130722 64.89749017 0.11764706 0.63921569 0.14117647
v 6.99284747 -14.15007278 64.90376788 0.11764706 0.63921569 0.14117647
v 6.99284747 -14.20624629 68.07564902 0.11764706 0.63921569 0.14117647
v -8.31374288 -14.15007278 68.09636641 0.11764706 0.63921569 0.14117647
v -8.31374288 -13.98717016 64.89027101 0.11764706 0.63921569 0.14117647
v -8.31374288 -8.02998394 64.88964337 0.11764706 0.63921569 0.14117647
v -8.31374288 7.99627997 64.88964337 0.11764706 0.63921569 0.14117647
v -8.31374288 13.97031784 64.88995719 0.11764706 0.63921569 0.14117647
v 6.99284747 14.20905456 64.92699715 0.11764706 0.63921569 0.14117647
v 6.99284747 14.15007278 68.09636641 0.11764706 0.63921569 0.14117647
v -8.31374288 14.15007278 68.09636641 0.11764706 0.63921569 0.14117647
v -8.31374288 14.15007278 64.89184010 0.11764706 0.63921569 0.14117647
v -8.31374288 14.29050654 64.95304945 0.11764706 0.63921569 0.14117647
v 6.99284747 14.34668005 65.09995136 0.11764706 0.63921569 0.14117647
v 6.99284747 14.31859329 67.97018188 0.11764706 0.63921569 0.14117647
v -8.31374288 14.29331481 68.03484458 0.11764706 0.63921569 0.14117647
v -8.31374288 14.33825389 65.08613932 0.11764706 0.63921569 0.14117647
v -7.82220528 14.34668005 65.09995136 0.11764706 0.63921569 0.14117647
v 6.99284747 14.34668005 67.73601833 0.11764706 0.63921569 0.14117647
v -8.31374288 14.34106216 67.91179824 0.11764706 0.63921569 0.14117647
v -8.31374288 14.34668005 65.27573127 0.11764706 0.63921569 0.14117647
v -8.31374288 14.34668005 67.73601833 0.11764706 0.63921569 0.14117647
f 256 257 263
f 256 263 258
f 256 258 264
f 256 264 259
f 256 259 265
f 256 265 269
f 256 269 276
f 256 276 281
f 256 281 285
f 256 285 287
f 256 287 286
f 256 286 282
f 256 282 278
f 256 278 277
f 256 277 273
f 256 273 272
f 256 272 271
f 256 271 270
f 256 270 266
f 256 266 261
f 256 261 260
f 256 260 257
f 257 260 261
f 257 261 262
f 257 262 263
f 258 263 262
f 258 262 267
f 258 267 274
f 258 274 279
f 258 279 284
f 258 284 280
f 258 280 275
f 258 275 268
f 258 268 264
f 259 264 265
f 261 266 262
f 262 266 267
f 264 268 265
f 265 268 269
f 266 270 267
f 267 270 271
f 267 271 272
f 267 272 273
f 267 273 274
f 268 275 269
f 269 275 276
f 273 277 274
f 274 277 278
f 274 278 279
f 275 280 281
f 275 281 276
f 278 282 283
f 278 283 279
f 279 283 286
f 279 286 287
f 279 287 284
f 280 284 285
f 280 285 281
f 282 286 283
f 284 287 285

o geometry_9
v -0.05610410 4.39295210 23.26404202 0.94117647 0.52156863 0.41176471
v -0.05610410 4.39435624 23.08805692 0.94117647 0.52156863 0.41176471
v 4.39735293 0.00230402 23.26404202 0.94117647 0.52156863 0.41176471
v 4.39795777 0.00230402 25.79222250 0.94117647 0.52156863 0.41176471
v -0.05610410 4.39435624 25.85411447 0.94117647 0.52156863 0.41176471
v 4.43244796 0.00230402 23.02178892 0.94117647 0.52156863 0.41176471
v -0.05610410 4.46877412 22.95552093 0.94117647 0.52156863 0.41176471
v 4.46633298 0.00230402 26.03791419 0.94117647 0.52156863 0.41176471
v -0.05610410 4.46736999 26.03791419 0.94117647 0.52156863 0.41176471
v 4.65754129 0.00230402 22.90331978 0.94117647 0.52156863 0.41176471
v -0.05610410 4.65832885 22.90331978 0.94117647 0.52156863 0.41176471
v 4.65754129 0.00230402 26.09668005 0.94117647 0.52156863 0.41176471
v -0.05610410 4.65832885 26.09668005 0.94117647 0.52156863 0.41176471
v 6.12488262 1.28987163 22.90738332 0.94117647 0.52156863 0.41176471
v 4.83301710 0.00230402 22.92551237 0.94117647 0.52156863 0.41176471
v 6.12488262 14.14870083 22.90331978 0.94117647 0.52156863 0.41176471
v -0.05610410 14.21328977 22.92551237 0.94117647 0.52156863 0.41176471
v 4.91530895 0.00230402 25.98977658 0.94117647 0.52156863 0.41176471
v 6.12488262 1.14384413 26.06135803 0.94117647 0.52156863 0.41176471
v 6.12488262 1.31935783 26.09668005 0.94117647 0.52156863 0.41176471
v -0.05610410 14.14870083 26.09668005 0.94117647 0.52156863 0.41176471
v 6.12488262 1.07925519 22.99428153 0.94117647 0.52156863 0.41176471
v 4.95161466 0.00230402 23.03085345 0.94117647 0.52156863 0.41176471
v 6.12488262 14.31157798 23.00834838 0.94117647 0.52156863 0.41176471
v -0.05610410 14.34246898 23.08805692 0.94117647 0.52156863 0.41176471
v 6.12488262 1.03572764 25.95351714 0.94117647 0.52156863 0.41176471
v 6.12488262 14.14870083 26.09668005 0.94117647 0.52156863 0.41176471
v 6.12488262 14.29192007 26.04197773 0.94117647 0.52156863 0.41176471
v -0.05610410 14.32140559 25.96508282 0.94117647 0.52156863 0.41176471
v 6.12488262 14.34527725 23.26404202 0.94117647 0.52156863 0.41176471
v -0.05610410 14.34527725 23.26404202 0.94117647 0.52156863 0.41176471
v 6.12488262 14.34527725 25.90037721 0.94117647 0.52156863 0.41176471
f 288 289 290
f 288 290 291
f 288 291 292
f 288 292 296
f 288 296 300
f 288 300 308
f 288 308 316
f 288 316 318
f 288 318 312
f 288 312 304
f 288 304 298
f 288 298 294
f 288 294 289
f 289 293 290
f 289 294 293
f 290 293 297
f 290 297 302
f 290 302 310
f 290 310 305
f 290 305 299
f 290 299 295
f 290 295 291
f 291 295 292
f 292 295 296
f 293 294 297
f 294 298 297
f 295 299 296
f 296 299 300
f 297 301 302
f 297 298 303
f 297 303 301
f 298 304 303
f 299 305 306
f 299 306 307
f 299 307 314
f 299 314 308
f 299 308 300
f 301 309 302
f 301 303 311
f 301 311 317
f 301 317 319
f 301 319 315
f 301 315 314
f 301 314 307
f 301 307 306
f 301 306 313
f 301 313 309
f 302 309 310
f 303 304 311
f 304 312 311
f 305 310 313
f 305 313 306
f 308 314 315
f 308 315 316
f 309 313 310
f 311 312 317
f 312 318 317
f 315 319 316
f 316 319 318
f 317 318 319

o geometry_10
v -0.05610410 -14.34668005 23.26404202 0.26274510 0.77254902 0.45490196
v -0.05610410 -14.34668005 25.90037721 0.26274510 0.77254902 0.45490196
v -0.05610410 -14.31858927 23.02616495 0.26274510 0.77254902 0.45490196
v 6.12488262 -14.34668005 23.26404202 0.26274510 0.77254902 0.45490196
v 6.12488262 -14.34668005 25.90037721 0.26274510 0.77254902 0.45490196
v -0.05610410 -14.29049850 26.04197773 0.26274510 0.77254902 0.45490196
v 6.12488262 -14.31577966 23.02022654 0.26274510 0.77254902 0.45490196
v -0.05610410 -14.15004194 22.90331978 0.26274510 0.77254902 0.45490196
v 6.12488262 -14.29049850 26.04197773 0.26274510 0.77254902 0.45490196
v -0.05610410 -14.15004194 26.09668005 0.26274510 0.77254902 0.45490196
v 6.12488262 -14.15004194 22.90331978 0.26274510 0.77254902 0.45490196
v -0.05610410 -4.65943124 22.90331978 0.26274510 0.77254902 0.45490196
v 6.12488262 -14.15004194 26.09668005 0.26274510 0.77254902 0.45490196
v 4.65754129 0.00230268 26.09668005 0.26274510 0.77254902 0.45490196
v -0.05610410 -4.64257658 26.09136659 0.26274510 0.77254902 0.45490196
v 6.12488262 -1.31938800 22.90331978 0.26274510 0.77254902 0.45490196
v -0.05610410 -4.48245674 22.95208234 0.26274510 0.77254902 0.45490196
v 4.65754129 0.00230268 22.90331978 0.26274510 0.77254902 0.45490196
v 6.12488262 -1.28989242 26.09230402 0.26274510 0.77254902 0.45490196
v 6.12488262 -1.07920825 25.99759120 0.26274510 0.77254902 0.45490196
v 4.91530895 0.00230268 25.98977658 0.26274510 0.77254902 0.45490196
v 4.46633298 0.00230268 26.03791419 0.26274510 0.77254902 0.45490196
v -0.05610410 -4.46981549 26.03791419 0.26274510 0.77254902 0.45490196
v 4.83301710 0.00230268 22.92551237 0.26274510 0.77254902 0.45490196
v 6.12488262 -1.09044470 22.98521566 0.26274510 0.77254902 0.45490196
v -0.05610410 -4.39677861 23.07305264 0.26274510 0.77254902 0.45490196
v 4.46633298 0.00230268 22.95552093 0.26274510 0.77254902 0.45490196
v 4.95161466 0.00230268 23.03085345 0.26274510 0.77254902 0.45490196
v 4.39795777 0.00230268 25.79222250 0.26274510 0.77254902 0.45490196
v -0.05610410 -4.39396933 25.90037721 0.26274510 0.77254902 0.45490196
v 4.39735293 0.00230268 23.26404202 0.26274510 0.77254902 0.45490196
v 4.39856295 0.00230268 23.08805692 0.26274510 0.77254902 0.45490196
f 320 321 325
f 320 325 329
f 320 329 334
f 320 334 342
f 320 342 349
f 320 349 345
f 320 345 336
f 320 336 331
f 320 331 327
f 320 327 322
f 320 322 323
f 320 323 324
f 320 324 321
f 321 324 328
f 321 328 325
f 322 326 323
f 322 327 326
f 323 326 330
f 323 330 335
f 323 335 344
f 323 344 339
f 323 339 338
f 323 338 332
f 323 332 328
f 323 328 324
f 325 328 332
f 325 332 329
f 326 327 330
f 327 331 337
f 327 337 335
f 327 335 330
f 329 332 333
f 329 333 334
f 331 336 337
f 332 338 333
f 333 338 339
f 333 339 340
f 333 340 347
f 333 347 343
f 333 343 337
f 333 337 346
f 333 346 351
f 333 351 350
f 333 350 348
f 333 348 341
f 333 341 342
f 333 342 334
f 335 337 343
f 335 343 344
f 336 345 346
f 336 346 337
f 339 344 347
f 339 347 340
f 341 348 349
f 341 349 342
f 343 347 344
f 345 349 350
f 345 350 351
f 345 351 346
f 348 350 349

o geometry_11
v -7.83617958 1.31554842 22.90331978 0.56470588 0.01568627 0.61568627
v -4.48127724 1.31554842 22.90331978 0.56470588 0.01568627 0.61568627
v -7.64810376 1.31554842 26.09668005 0.56470588 0.01568627 0.61568627
v -7.82856479 1.31809920 26.09636757 0.56470588 0.01568627 0.61568627
v -7.83617958 14.34668005 25.72407964 0.56470588 0.01568627 0.61568627
v -7.83617958 14.14896905 22.90331978 0.56470588 0.01568627 0.61568627
v -0.05731411 4.65879388 22.90331978 0.56470588 0.01568627 0.61568627
v -4.30614643 1.31554842 22.93176460 0.56470588 0.01568627 0.61568627
v -4.48127724 1.31554842 26.09668005 0.56470588 0.01568627 0.61568627
v -0.05731411 14.14896905 26.09668005 0.56470588 0.01568627 0.61568627
v -7.82856479 14.14896905 26.09636757 0.56470588 0.01568627 0.61568627
v -7.82856479 14.29183155 26.04197773 0.56470588 0.01568627 0.61568627
v -7.82856479 14.34412926 25.90287837 0.56470588 0.01568627 0.61568627
v -0.05731411 14.34668005 25.90037721 0.56470588 0.01568627 0.61568627
v -7.83617958 14.34668005 23.26404202 0.56470588 0.01568627 0.61568627
v -7.83617958 14.28928077 22.95208234 0.56470588 0.01568627 0.61568627
v -0.05731411 14.14896905 22.90331978 0.56470588 0.01568627 0.61568627
v -0.05731411 4.39347714 23.26404202 0.56470588 0.01568627 0.61568627
v -0.07635042 4.41261068 23.03054097 0.56470588 0.01568627 0.61568627
v -4.19269167 1.31554842 23.03397956 0.56470588 0.01568627 0.61568627
v -4.30766925 1.31554842 26.06479663 0.56470588 0.01568627 0.61568627
v -0.05731411 4.65879388 26.09668005 0.56470588 0.01568627 0.61568627
v -0.05731411 14.29183155 26.04197773 0.56470588 0.01568627 0.61568627
v -0.05731411 14.34668005 23.26404202 0.56470588 0.01568627 0.61568627
v -7.83617958 14.34412926 23.08805692 0.56470588 0.01568627 0.61568627
v -0.05731411 14.28928077 22.95208234 0.56470588 0.01568627 0.61568627
v -4.18203156 1.31554842 25.72814319 0.56470588 0.01568627 0.61568627
v -4.18203156 1.31554842 23.26404202 0.56470588 0.01568627 0.61568627
v -0.05731411 4.39475287 25.91538149 0.56470588 0.01568627 0.61568627
v -4.19269167 1.31554842 25.95632944 0.56470588 0.01568627 0.61568627
v -0.05731411 4.48021542 26.04197773 0.56470588 0.01568627 0.61568627
v -0.05731411 14.34412926 23.08805692 0.56470588 0.01568627 0.61568627
f 352 353 359
f 352 359 371
f 352 371 379
f 352 379 378
f 352 378 381
f 352 381 372
f 352 372 360
f 352 360 354
f 352 354 355
f 352 355 356
f 352 356 366
f 352 366 376
f 352 376 367
f 352 367 357
f 352 357 368
f 352 368 358
f 352 358 353
f 353 358 359
f 354 360 373
f 354 373 361
f 354 361 362
f 354 362 355
f 355 362 356
f 356 362 363
f 356 363 364
f 356 364 365
f 356 365 375
f 356 375 366
f 357 367 377
f 357 377 368
f 358 369 370
f 358 370 359
f 358 368 377
f 358 377 383
f 358 383 375
f 358 375 365
f 358 365 374
f 358 374 361
f 358 361 373
f 358 373 382
f 358 382 380
f 358 380 369
f 359 370 371
f 360 372 373
f 361 363 362
f 361 374 363
f 363 374 365
f 363 365 364
f 366 375 383
f 366 383 376
f 367 376 383
f 367 383 377
f 369 378 379
f 369 379 371
f 369 371 370
f 369 380 378
f 372 381 382
f 372 382 373
f 378 380 381
f 380 382 381

o geometry_12
v -7.83617958 -14.34668005 23.26404202 0.61176471 0.61568627 0.94117647
v -7.83617958 -14.34361428 23.08805692 0.61176471 0.61568627 0.94117647
v -0.05731411 -14.34668005 23.26404202 0.61176471 0.61568627 0.94117647
v -0.05731411 -14.34668005 25.90037721 0.61176471 0.61568627 0.94117647
v -7.82856479 -14.34514716 25.89662614 0.61176471 0.61568627 0.94117647
v -7.82856479 -14.29148823 26.03916410 0.61176471 0.61568627 0.94117647
v -7.82856479 -14.15197581 26.09543014 0.61176471 0.61568627 0.94117647
v -7.83617958 1.31554842 26.09636757 0.61176471 0.61568627 0.94117647
v -7.83617958 -14.28995535 22.95208234 0.61176471 0.61568627 0.94117647
v -0.05731411 -14.34361428 23.08805692 0.61176471 0.61568627 0.94117647
v -0.05731411 -14.27769095 26.04666623 0.61176471 0.61568627 0.94117647
v -0.05731411 -14.14891005 26.09668005 0.61176471 0.61568627 0.94117647
v -7.82095067 1.14230722 26.09668005 0.61176471 0.61568627 0.94117647
v -7.64810376 1.31554842 26.09668005 0.61176471 0.61568627 0.94117647
v -7.83617958 1.31554842 22.90331978 0.61176471 0.61568627 0.94117647
v -7.83617958 -14.14891005 22.90331978 0.61176471 0.61568627 0.94117647
v -0.05731411 -14.28995535 22.95208234 0.61176471 0.61568627 0.94117647
v -0.05731411 -4.64210819 26.09136659 0.61176471 0.61568627 0.94117647
v -4.48127724 1.31554842 26.09668005 0.61176471 0.61568627 0.94117647
v -4.48127724 1.31554842 22.90331978 0.61176471 0.61568627 0.94117647
v -0.05731411 -14.14891005 22.90331978 0.61176471 0.61568627 0.94117647
v -0.05731411 -4.46733378 26.03791419 0.61176471 0.61568627 0.94117647
v -4.30766925 1.31554842 26.06479663 0.61176471 0.61568627 0.94117647
v -4.30614643 1.31554842 22.93176460 0.61176471 0.61568627 0.94117647
v -0.05731411 -4.65897225 22.90331978 0.61176471 0.61568627 0.94117647
v -0.05731411 -4.39374469 25.90037721 0.61176471 0.61568627 0.94117647
v -4.19269167 1.31554842 25.95632944 0.61176471 0.61568627 0.94117647
v -4.19269167 1.31554842 23.03397956 0.61176471 0.61568627 0.94117647
v -0.05731411 -4.48113173 22.95208234 0.61176471 0.61568627 0.94117647
v -0.05731411 -4.39681113 23.07305264 0.61176471 0.61568627 0.94117647
v -4.18203156 1.31554842 23.26404202 0.61176471 0.61568627 0.94117647
v -4.18203156 1.31554842 25.72814319 0.61176471 0.61568627 0.94117647
f 384 385 393
f 384 393 386
f 384 386 387
f 384 387 388
f 384 388 389
f 384 389 390
f 384 390 391
f 384 391 398
f 384 398 399
f 384 399 392
f 384 392 385
f 385 392 400
f 385 400 393
f 386 393 400
f 386 400 404
f 386 404 408
f 386 408 412
f 386 412 413
f 386 413 409
f 386 409 405
f 386 405 401
f 386 401 395
f 386 395 394
f 386 394 387
f 387 389 388
f 387 394 389
f 389 394 390
f 390 394 395
f 390 395 396
f 390 396 391
f 391 397 402
f 391 402 406
f 391 406 410
f 391 410 415
f 391 415 414
f 391 414 411
f 391 411 407
f 391 407 403
f 391 403 398
f 391 396 397
f 392 399 404
f 392 404 400
f 395 401 402
f 395 402 397
f 395 397 396
f 398 403 408
f 398 408 404
f 398 404 399
f 401 405 406
f 401 406 402
f 403 407 408
f 405 409 410
f 405 410 406
f 407 411 412
f 407 412 408
f 409 413 414
f 409 414 415
f 409 415 410
f 411 414 413
f 411 413 412

