# https://github.com/mikedh/trimesh

o geometry_0
v -13.74849781 16.74999967 69.50000000 0.54509804 0.71372549 0.60000000
v -13.74849781 16.74999967 66.49957103 0.54509804 0.71372549 0.60000000
v -16.74999967 16.74999967 69.50000000 0.54509804 0.71372549 0.60000000
v -13.74849781 -16.74999967 69.50000000 0.54509804 0.71372549 0.60000000
v -13.75026137 16.74999967 46.74395901 0.54509804 0.71372549 0.60000000
v -13.74849781 -16.74999967 66.49957103 0.54509804 0.71372549 0.60000000
v -16.74999967 16.74999967 46.74395901 0.54509804 0.71372549 0.60000000
v -16.74999967 -16.74999967 69.50000000 0.54509804 0.71372549 0.60000000
v -13.75026137 -16.74999967 46.74395901 0.54509804 0.71372549 0.60000000
v -16.74999967 -16.74999967 46.74395901 0.54509804 0.71372549 0.60000000
f 1 2 5
f 1 5 7
f 1 7 3
f 1 3 8
f 1 8 4
f 1 4 6
f 1 6 2
f 2 6 9
f 2 9 5
f 3 7 10
f 3 10 8
f 4 8 10
f 4 10 9
f 4 9 6
f 5 9 10
f 5 10 7

o geometry_1
v 16.74999967 16.74999967 46.74395901 0.54117647 0.42352941 0.64313725
v 16.74999967 16.74999967 24.50000000 0.54117647 0.42352941 0.64313725
v 13.75026137 16.74999967 46.74395901 0.54117647 0.42352941 0.64313725
v 16.74999967 -16.74999967 46.74395901 0.54117647 0.42352941 0.64313725
v 13.74849781 16.74999967 24.50000000 0.54117647 0.42352941 0.64313725
v 16.74999967 -16.74999967 24.50000000 0.54117647 0.42352941 0.64313725
v 13.74849781 16.74999967 27.50040886 0.54117647 0.42352941 0.64313725
v 13.75026137 -16.74999967 46.74395901 0.54117647 0.42352941 0.64313725
v 13.74849781 -16.74999967 24.50000000 0.54117647 0.42352941 0.64313725
v 13.74849781 -16.74999967 27.50040886 0.54117647 0.42352941 0.64313725
f 11 12 15
f 11 15 17
f 11 17 13
f 11 13 18
f 11 18 14
f 11 14 16
f 11 16 12
f 12 16 19
f 12 19 15
f 13 17 20
f 13 20 18
f 14 18 20
f 14 20 19
f 14 19 16
f 15 19 20
f 15 20 17

o geometry_2
v -13.74999985 16.74999967 46.74395901 0.43529412 0.89019608 0.96078431
v -13.75088096 16.74999967 27.51003933 0.43529412 0.89019608 0.96078431
v -16.74999967 16.74999967 46.74395901 0.43529412 0.89019608 0.96078431
v -13.74999985 -16.74999967 46.74395901 0.43529412 0.89019608 0.96078431
v -13.74999985 -16.73032433 27.51003933 0.43529412 0.89019608 0.96078431
v -16.74999967 16.74999967 27.51003933 0.43529412 0.89019608 0.96078431
v -16.74999967 -16.74999967 46.74395901 0.43529412 0.89019608 0.96078431
v -13.74999985 -16.74999967 27.51003933 0.43529412 0.89019608 0.96078431
v -16.74999967 -16.74999967 27.51003933 0.43529412 0.89019608 0.96078431
f 21 22 26
f 21 26 23
f 21 23 27
f 21 27 24
f 21 24 28
f 21 28 25
f 21 25 22
f 22 25 28
f 22 28 29
f 22 29 26
f 23 26 29
f 23 29 27
f 24 27 29
f 24 29 28

o geometry_3
v 16.74999967 16.74999967 66.45413977 0.38039216 0.78823529 0.52549020
v 16.74999967 16.74999967 46.74588819 0.38039216 0.78823529 0.52549020
v 13.74999985 16.74999967 66.45413977 0.38039216 0.78823529 0.52549020
v 16.74999967 -16.74999967 66.45413977 0.38039216 0.78823529 0.52549020
v 13.74999985 16.74999967 46.74588819 0.38039216 0.78823529 0.52549020
v 16.74999967 -16.74999967 46.74588819 0.38039216 0.78823529 0.52549020
v 13.74999985 -16.74999967 66.45413977 0.38039216 0.78823529 0.52549020
v 13.74999985 -16.74999967 46.74588819 0.38039216 0.78823529 0.52549020
f 30 31 34
f 30 34 32
f 30 32 36
f 30 36 33
f 30 33 35
f 30 35 31
f 31 35 37
f 31 37 34
f 32 34 37
f 32 37 36
f 33 36 37
f 33 37 35

o geometry_4
v -13.74849781 -16.74999967 66.50005248 0.56470588 0.92549020 0.07058824
v 13.74970615 -16.74999967 66.45443615 0.56470588 0.92549020 0.07058824
v -13.74849781 -16.74999967 69.50000000 0.56470588 0.92549020 0.07058824
v -13.74849781 16.74344033 66.50005248 0.56470588 0.92549020 0.07058824
v 16.74999967 -16.74999967 66.45443615 0.56470588 0.92549020 0.07058824
v 13.74970615 16.74999967 66.45443615 0.56470588 0.92549020 0.07058824
v 16.74999967 -16.74999967 69.50000000 0.56470588 0.92549020 0.07058824
v -13.74849781 16.74999967 69.50000000 0.56470588 0.92549020 0.07058824
v -13.74849781 16.74999967 66.50035021 0.56470588 0.92549020 0.07058824
v 16.74999967 16.74999967 66.45443615 0.56470588 0.92549020 0.07058824
v 16.74999967 16.74999967 69.50000000 0.56470588 0.92549020 0.07058824
f 38 39 42
f 38 42 44
f 38 44 40
f 38 40 45
f 38 45 46
f 38 46 41
f 38 41 43
f 38 43 39
f 39 43 47
f 39 47 42
f 40 44 48
f 40 48 45
f 41 46 43
f 42 47 48
f 42 48 44
f 43 46 45
f 43 45 48
f 43 48 47

o geometry_5
v -0.03340155 -16.74999967 24.50000000 0.08627451 0.01960784 0.83137255
v 13.74849781 -16.74999967 24.50000000 0.08627451 0.01960784 0.83137255
v -0.03340155 -16.74999967 27.49970612 0.08627451 0.01960784 0.83137255
v -0.03340155 -5.99604875 24.50000000 0.08627451 0.01960784 0.83137255
v 13.74849781 -16.74999967 27.49970612 0.08627451 0.01960784 0.83137255
v 13.74849781 -0.00432707 24.50000000 0.08627451 0.01960784 0.83137255
v 13.74849781 -16.74672067 27.49999982 0.08627451 0.01960784 0.83137255
v -0.03340155 -12.50907451 27.49999982 0.08627451 0.01960784 0.83137255
v -0.03340155 -5.99604875 27.49999982 0.08627451 0.01960784 0.83137255
v 6.00090086 -0.00432707 24.50000000 0.08627451 0.01960784 0.83137255
v 13.74849781 -0.00432707 27.49999982 0.08627451 0.01960784 0.83137255
v 6.00090086 -0.00432707 27.49999982 0.08627451 0.01960784 0.83137255
f 49 50 53
f 49 53 51
f 49 51 56
f 49 56 57
f 49 57 52
f 49 52 58
f 49 58 54
f 49 54 50
f 50 54 59
f 50 59 55
f 50 55 53
f 51 53 55
f 51 55 56
f 52 57 60
f 52 60 58
f 54 58 60
f 54 60 59
f 55 59 60
f 55 60 57
f 55 57 56

o geometry_6
v -0.03340155 5.99587642 24.50000000 0.77647059 0.86666667 0.97647059
v 6.00090086 -0.00268757 24.50000000 0.77647059 0.86666667 0.97647059
v -0.03340155 5.99587642 27.49999982 0.77647059 0.86666667 0.97647059
v -0.03340155 16.74999967 24.50000000 0.77647059 0.86666667 0.97647059
v 13.74849781 -0.00268757 24.50000000 0.77647059 0.86666667 0.97647059
v 6.00090086 -0.00268757 27.49999982 0.77647059 0.86666667 0.97647059
v -0.03340155 16.74999967 27.49999982 0.77647059 0.86666667 0.97647059
v 13.74849781 16.74999967 24.50000000 0.77647059 0.86666667 0.97647059
v 13.74849781 -0.00268757 27.49999982 0.77647059 0.86666667 0.97647059
v 13.74849781 16.74999967 27.49999982 0.77647059 0.86666667 0.97647059
f 61 62 66
f 61 66 63
f 61 63 67
f 61 67 64
f 61 64 68
f 61 68 65
f 61 65 62
f 62 65 69
f 62 69 66
f 63 66 69
f 63 69 70
f 63 70 67
f 64 67 70
f 64 70 68
f 65 68 70
f 65 70 69

o geometry_7
v -16.74999967 0.00432707 24.50000000 0.79607843 0.45882353 0.78039216
v -6.00104369 0.00432707 24.50000000 0.79607843 0.45882353 0.78039216
v -16.74999967 0.00432707 27.51003933 0.79607843 0.45882353 0.78039216
v -16.74999967 16.74999967 24.50000000 0.79607843 0.45882353 0.78039216
v -6.00104369 0.00432707 27.49972624 0.79607843 0.45882353 0.78039216
v -0.03503770 5.99604875 24.50000000 0.79607843 0.45882353 0.78039216
v -13.74899805 0.00432707 27.51003933 0.79607843 0.45882353 0.78039216
v -16.74999967 16.74999967 27.51003933 0.79607843 0.45882353 0.78039216
v -0.03503770 16.74999967 24.50000000 0.79607843 0.45882353 0.78039216
v -0.03503770 5.99604875 27.49972624 0.79607843 0.45882353 0.78039216
v -0.03503770 16.74999967 27.49972624 0.79607843 0.45882353 0.78039216
v -13.75063419 16.74999967 27.51003933 0.79607843 0.45882353 0.78039216
f 71 72 75
f 71 75 77
f 71 77 73
f 71 73 78
f 71 78 74
f 71 74 79
f 71 79 76
f 71 76 72
f 72 76 80
f 72 80 75
f 73 77 82
f 73 82 78
f 74 78 82
f 74 82 81
f 74 81 79
f 75 80 77
f 76 79 81
f 76 81 80
f 77 80 81
f 77 81 82

o geometry_8
v -16.74999967 -16.74999967 24.50000000 0.11764706 0.63921569 0.14117647
v -0.03503770 -16.74999967 24.50000000 0.11764706 0.63921569 0.14117647
v -16.74999967 -16.74999967 27.51003933 0.11764706 0.63921569 0.14117647
v -16.74999967 0.00268757 24.50000000 0.11764706 0.63921569 0.14117647
v -0.03503770 -16.74999967 27.49972624 0.11764706 0.63921569 0.14117647
v -0.03503770 -5.99587642 24.50000000 0.11764706 0.63921569 0.14117647
v -13.74899805 -16.74999967 27.51003933 0.11764706 0.63921569 0.14117647
v -16.74999967 0.00268757 27.51003933 0.11764706 0.63921569 0.14117647
v -6.00104369 0.00268757 24.50000000 0.11764706 0.63921569 0.14117647
v -0.03503770 -5.99587642 27.49972624 0.11764706 0.63921569 0.14117647
v -13.74899805 0.00268757 27.51003933 0.11764706 0.63921569 0.14117647
v -6.00104369 0.00268757 27.49972624 0.11764706 0.63921569 0.14117647
f 83 84 87
f 83 87 89
f 83 89 85
f 83 85 90
f 83 90 86
f 83 86 91
f 83 91 88
f 83 88 84
f 84 88 92
f 84 92 87
f 85 89 93
f 85 93 90
f 86 90 93
f 86 93 94
f 86 94 91
f 87 92 93
f 87 93 89
f 88 91 94
f 88 94 92
f 92 94 93

