# https://github.com/mikedh/trimesh

o geometry_0
v 10.83785743 -44.54662335 21.48788869 0.54509804 0.71372549 0.60000000
v 11.03916913 -44.54810378 21.48788869 0.54509804 0.71372549 0.60000000
v 11.03256866 -44.64357589 19.23879832 0.54509804 0.71372549 0.60000000
v -10.83785743 -44.54662335 21.48788869 0.54509804 0.71372549 0.60000000
v 16.52410179 -44.59546973 21.48788869 0.54509804 0.71372549 0.60000000
v 11.03256866 -44.68206075 18.98168921 0.54509804 0.71372549 0.60000000
v -11.03256866 -44.64357589 19.23879832 0.54509804 0.71372549 0.60000000
v -11.12827510 -44.54884362 21.48788869 0.54509804 0.71372549 0.60000000
v 11.27678379 -44.72276588 18.93534511 0.54509804 0.71372549 0.60000000
v 16.84422195 -45.02620418 21.48788869 0.54509804 0.71372549 0.60000000
v 16.79801792 -44.74718888 21.48506790 0.54509804 0.71372549 0.60000000
v 16.76171571 -48.70299008 17.37133861 0.54509804 0.71372549 0.60000000
v -11.03256866 -44.68206075 18.98168921 0.54509804 0.71372549 0.60000000
v -16.50100052 -44.59398930 21.48788869 0.54509804 0.71372549 0.60000000
v 16.50100052 -48.64378293 17.37133861 0.54509804 0.71372549 0.60000000
v -11.27678379 -44.72276588 18.93534511 0.54509804 0.71372549 0.60000000
v 16.82112068 -51.96458381 21.48788869 0.54509804 0.71372549 0.60000000
v 16.85412228 -45.32150161 21.43670917 0.54509804 0.71372549 0.60000000
v 16.85742289 -48.93241954 17.37133861 0.54509804 0.71372549 0.60000000
v -16.75841659 -44.67317966 21.48506790 0.54509804 0.71372549 0.60000000
v -16.84092134 -44.92333104 21.48788869 0.54509804 0.71372549 0.60000000
v -16.59010649 -48.64896332 17.37133861 0.54509804 0.71372549 0.60000000
v 16.57360494 -52.09854078 21.48788869 0.54509804 0.71372549 0.60000000
v 16.81451946 -51.95126218 17.37133861 0.54509804 0.71372549 0.60000000
v -16.84422195 -48.86285049 17.37133861 0.54509804 0.71372549 0.60000000
v -16.85412228 -45.21936868 21.48788869 0.54509804 0.71372549 0.60000000
v 16.50100052 -52.10742188 17.37133861 0.54509804 0.71372549 0.60000000
v -16.50100052 -52.10742188 21.48788869 0.54509804 0.71372549 0.60000000
v -16.84092134 -51.93646011 17.37133861 0.54509804 0.71372549 0.60000000
v -16.85742289 -51.86245126 21.48788869 0.54509804 0.71372549 0.60000000
v -16.57690555 -52.09854078 17.37133861 0.54509804 0.71372549 0.60000000
v -16.76171571 -52.04747450 21.48788869 0.54509804 0.71372549 0.60000000
f 1 2 3
f 1 3 7
f 1 7 4
f 1 4 8
f 1 8 14
f 1 14 21
f 1 21 26
f 1 26 30
f 1 30 32
f 1 32 28
f 1 28 23
f 1 23 17
f 1 17 10
f 1 10 5
f 1 5 2
f 2 5 3
f 3 5 6
f 3 6 13
f 3 13 7
f 4 7 8
f 5 9 6
f 5 10 11
f 5 11 12
f 5 12 9
f 6 9 16
f 6 16 13
f 7 13 14
f 7 14 8
f 9 12 15
f 9 15 16
f 10 17 18
f 10 18 19
f 10 19 11
f 11 19 12
f 12 19 24
f 12 24 27
f 12 27 31
f 12 31 29
f 12 29 25
f 12 25 22
f 12 22 15
f 13 16 14
f 14 16 20
f 14 20 21
f 15 22 16
f 16 22 20
f 17 23 24
f 17 24 19
f 17 19 18
f 20 22 25
f 20 25 21
f 21 25 26
f 23 27 24
f 23 28 27
f 25 29 30
f 25 30 26
f 27 28 31
f 28 32 31
f 29 32 30
f 29 31 32

o geometry_1
v 10.94676405 -44.53947191 -21.49391621 0.54117647 0.42352941 0.64313725
v 11.03256866 -44.64319293 -19.23889220 0.54117647 0.42352941 0.64313725
v 16.50100052 -44.58244202 -21.49391621 0.54117647 0.42352941 0.64313725
v -10.93356311 -44.53947191 -21.49391621 0.54117647 0.42352941 0.64313725
v -11.03256866 -44.64319293 -19.23889220 0.54117647 0.42352941 0.64313725
v 11.03256866 -44.68171802 -18.98206770 0.54117647 0.42352941 0.64313725
v 11.27678379 -44.72320658 -18.93581450 0.54117647 0.42352941 0.64313725
v 16.69901311 -44.60763168 -21.49391621 0.54117647 0.42352941 0.64313725
v -16.42179638 -44.58244202 -21.49391621 0.54117647 0.42352941 0.64313725
v -11.03256866 -44.68171802 -18.98206770 0.54117647 0.42352941 0.64313725
v -11.27678379 -44.72320658 -18.93581450 0.54117647 0.42352941 0.64313725
v -16.50100052 -48.64905757 -17.34902114 0.54117647 0.42352941 0.64313725
v 16.58020467 -48.65498450 -17.34902114 0.54117647 0.42352941 0.64313725
v 16.83762074 -48.82538375 -17.34902114 0.54117647 0.42352941 0.64313725
v 16.82772040 -44.79951580 -21.49026394 0.54117647 0.42352941 0.64313725
v 16.85412228 -45.11586596 -21.49391621 0.54117647 0.42352941 0.64313725
v -16.84422195 -45.02696191 -21.49391621 0.54117647 0.42352941 0.64313725
v -16.77161753 -44.69431286 -21.49188817 0.54117647 0.42352941 0.64313725
v -16.77491665 -48.71795830 -17.34902114 0.54117647 0.42352941 0.64313725
v 16.85742289 -51.86219496 -17.34902114 0.54117647 0.42352941 0.64313725
v 16.85742289 -45.31145450 -21.49391621 0.54117647 0.42352941 0.64313725
v -16.85082167 -45.22329141 -21.43995464 0.54117647 0.42352941 0.64313725
v -16.85742289 -48.93280958 -17.34902114 0.54117647 0.42352941 0.64313725
v -16.82441980 -51.94517207 -21.49391621 0.54117647 0.42352941 0.64313725
v -16.85742289 -45.41888014 -21.43995464 0.54117647 0.42352941 0.64313725
v 16.75181538 -52.05333811 -17.34902114 0.54117647 0.42352941 0.64313725
v 16.81451946 -51.95109901 -21.49391621 0.54117647 0.42352941 0.64313725
v -16.83762074 -51.94887650 -17.34902114 0.54117647 0.42352941 0.64313725
v -16.57690555 -52.09779051 -21.49391621 0.54117647 0.42352941 0.64313725
v -16.61650687 -52.09334549 -17.34902114 0.54117647 0.42352941 0.64313725
v 16.50100052 -52.10742188 -17.34902114 0.54117647 0.42352941 0.64313725
v 16.50100052 -52.10742188 -21.49391621 0.54117647 0.42352941 0.64313725
f 33 34 35
f 33 35 40
f 33 40 48
f 33 48 53
f 33 53 59
f 33 59 64
f 33 64 61
f 33 61 56
f 33 56 49
f 33 49 41
f 33 41 36
f 33 36 37
f 33 37 34
f 34 37 42
f 34 42 38
f 34 38 35
f 35 38 39
f 35 39 40
f 36 41 37
f 37 41 42
f 38 42 43
f 38 43 39
f 39 43 44
f 39 44 45
f 39 45 40
f 40 46 47
f 40 47 48
f 40 45 46
f 41 43 42
f 41 49 50
f 41 50 43
f 43 50 51
f 43 51 44
f 44 51 55
f 44 55 60
f 44 60 62
f 44 62 63
f 44 63 58
f 44 58 52
f 44 52 46
f 44 46 45
f 46 52 53
f 46 53 48
f 46 48 47
f 49 54 55
f 49 55 50
f 49 56 57
f 49 57 54
f 50 55 51
f 52 58 59
f 52 59 53
f 54 57 55
f 55 57 56
f 55 56 60
f 56 61 62
f 56 62 60
f 58 63 64
f 58 64 59
f 61 63 62
f 61 64 63

o geometry_2
v 16.49938673 -38.14257812 -22.16837555 0.43529412 0.89019608 0.96078431
v 16.49938673 -38.30251229 -21.93919420 0.43529412 0.89019608 0.96078431
v 16.78317636 -38.30524591 -22.07606584 0.43529412 0.89019608 0.96078431
v 16.59838408 -38.15488052 -24.70670789 0.43529412 0.89019608 0.96078431
v -16.49938673 -38.14257812 -22.16837555 0.43529412 0.89019608 0.96078431
v 11.04469001 -44.53857500 -21.49426937 0.43529412 0.89019608 0.96078431
v 16.59838408 -44.59462027 -21.49426937 0.43529412 0.89019608 0.96078431
v 16.82607532 -44.79829702 -21.49426937 0.43529412 0.89019608 0.96078431
v -16.49938673 -38.30251229 -21.93919420 0.43529412 0.89019608 0.96078431
v 16.85577333 -45.21248532 -21.49426937 0.43529412 0.89019608 0.96078431
v 16.78317636 -38.30524591 -24.97620881 0.43529412 0.89019608 0.96078431
v 16.49938673 -38.28747553 -25.04234612 0.43529412 0.89019608 0.96078431
v -16.59838408 -38.15488052 -24.70670789 0.43529412 0.89019608 0.96078431
v -16.78317636 -38.30524591 -22.07606584 0.43529412 0.89019608 0.96078431
v -11.03149056 -44.53857500 -21.49426937 0.43529412 0.89019608 0.96078431
v -16.84257388 -45.02657902 -21.49426937 0.43529412 0.89019608 0.96078431
v -16.76997691 -44.69440822 -21.49426937 0.43529412 0.89019608 0.96078431
v -16.51258618 -44.58368459 -21.49426937 0.43529412 0.89019608 0.96078431
v 16.80627614 -51.95432287 -21.49426937 0.43529412 0.89019608 0.96078431
v 16.78317636 -51.94475409 -24.97620881 0.43529412 0.89019608 0.96078431
v 16.49938673 -51.96252447 -25.04234612 0.43529412 0.89019608 0.96078431
v -16.49938673 -51.86273661 -25.10742247 0.43529412 0.89019608 0.96078431
v -16.49938673 -38.28747553 -25.04234612 0.43529412 0.89019608 0.96078431
v -16.78317636 -38.30524591 -24.97620881 0.43529412 0.89019608 0.96078431
v -16.85577333 -45.31910804 -21.49426937 0.43529412 0.89019608 0.96078431
v 16.49938673 -52.10742188 -21.49426937 0.43529412 0.89019608 0.96078431
v 16.59838408 -52.09511948 -24.70670789 0.43529412 0.89019608 0.96078431
v -16.49938673 -52.06367952 -24.97762293 0.43529412 0.89019608 0.96078431
v -16.78317636 -51.94475409 -24.97620881 0.43529412 0.89019608 0.96078431
v -16.82607532 -51.94475409 -21.49426937 0.43529412 0.89019608 0.96078431
v -16.57528430 -52.09785309 -21.49426937 0.43529412 0.89019608 0.96078431
v -16.59838408 -52.09511948 -24.70670789 0.43529412 0.89019608 0.96078431
f 65 66 67
f 65 67 68
f 65 68 77
f 65 77 69
f 65 69 73
f 65 73 66
f 66 70 71
f 66 71 72
f 66 72 67
f 66 73 79
f 66 79 70
f 67 72 74
f 67 74 75
f 67 75 68
f 68 75 76
f 68 76 87
f 68 87 77
f 69 77 78
f 69 78 73
f 70 79 82
f 70 82 81
f 70 81 80
f 70 80 89
f 70 89 94
f 70 94 95
f 70 95 90
f 70 90 83
f 70 83 74
f 70 74 72
f 70 72 71
f 73 78 80
f 73 80 81
f 73 81 82
f 73 82 79
f 74 83 84
f 74 84 75
f 75 84 85
f 75 85 76
f 76 85 86
f 76 86 87
f 77 87 88
f 77 88 78
f 78 88 89
f 78 89 80
f 83 90 91
f 83 91 84
f 84 91 85
f 85 91 92
f 85 92 86
f 86 92 93
f 86 93 88
f 86 88 87
f 88 93 89
f 89 93 94
f 90 95 96
f 90 96 91
f 91 96 92
f 92 96 93
f 93 96 94
f 94 96 95

o geometry_3
v 16.49938673 -38.14257812 22.16845006 0.38039216 0.78823529 0.52549020
v 16.59838408 -38.15487605 24.70642626 0.38039216 0.78823529 0.52549020
v 16.78317636 -38.30518258 22.07590789 0.38039216 0.78823529 0.52549020
v 16.49938673 -38.30244970 21.93883210 0.38039216 0.78823529 0.52549020
v -16.49938673 -38.14257812 22.16845006 0.38039216 0.78823529 0.52549020
v 16.78317636 -38.30654901 24.97605383 0.38039216 0.78823529 0.52549020
v -16.59838408 -38.15487605 24.70642626 0.38039216 0.78823529 0.52549020
v 16.49938673 -38.28741890 25.04250407 0.38039216 0.78823529 0.52549020
v 16.85577333 -45.31903088 21.48829401 0.38039216 0.78823529 0.52549020
v 16.84257388 -45.02661641 21.48829401 0.38039216 0.78823529 0.52549020
v 16.79967642 -44.74649975 21.48829401 0.38039216 0.78823529 0.52549020
v 16.43669009 -44.59482684 21.48829401 0.38039216 0.78823529 0.52549020
v 11.03149056 -44.54700202 21.48829401 0.38039216 0.78823529 0.52549020
v -16.49938673 -38.30244970 21.93883210 0.38039216 0.78823529 0.52549020
v -16.78317636 -38.30518258 22.07590789 0.38039216 0.78823529 0.52549020
v 16.78317636 -51.94344801 24.97605383 0.38039216 0.78823529 0.52549020
v -16.49938673 -38.28741890 25.04250407 0.38039216 0.78823529 0.52549020
v -16.78317636 -38.30654901 24.97605383 0.38039216 0.78823529 0.52549020
v 16.49938673 -51.96257812 25.04250407 0.38039216 0.78823529 0.52549020
v 16.84257388 -51.91885215 21.48829401 0.38039216 0.78823529 0.52549020
v -11.03149056 -44.54700202 21.48829401 0.38039216 0.78823529 0.52549020
v -16.49938673 -44.59346040 21.48829401 0.38039216 0.78823529 0.52549020
v -16.75677747 -44.67271292 21.48829401 0.38039216 0.78823529 0.52549020
v -16.83927476 -44.92276829 21.48829401 0.38039216 0.78823529 0.52549020
v -16.85577333 -45.21928202 21.48829401 0.38039216 0.78823529 0.52549020
v 16.59838408 -52.09512097 24.70642626 0.38039216 0.78823529 0.52549020
v -16.49938673 -51.96257812 25.04250407 0.38039216 0.78823529 0.52549020
v -16.78317636 -51.94344801 24.97605383 0.38039216 0.78823529 0.52549020
v 16.59838408 -52.09512097 21.48829401 0.38039216 0.78823529 0.52549020
v -16.80627614 -51.95437950 21.48829401 0.38039216 0.78823529 0.52549020
v -16.59838408 -52.09512097 24.70642626 0.38039216 0.78823529 0.52549020
v -16.54558480 -52.10195315 21.48829401 0.38039216 0.78823529 0.52549020
f 97 98 99
f 97 99 100
f 97 100 110
f 97 110 101
f 97 101 103
f 97 103 98
f 98 102 99
f 98 103 113
f 98 113 104
f 98 104 102
f 99 102 105
f 99 105 106
f 99 106 107
f 99 107 100
f 100 108 109
f 100 109 117
f 100 117 110
f 100 107 108
f 101 110 111
f 101 111 103
f 102 104 115
f 102 115 112
f 102 112 105
f 103 111 114
f 103 114 113
f 104 113 123
f 104 123 115
f 105 112 116
f 105 116 125
f 105 125 128
f 105 128 126
f 105 126 121
f 105 121 120
f 105 120 119
f 105 119 118
f 105 118 117
f 105 117 109
f 105 109 108
f 105 108 107
f 105 107 106
f 110 117 118
f 110 118 119
f 110 119 120
f 110 120 111
f 111 120 121
f 111 121 114
f 112 115 122
f 112 122 116
f 113 114 124
f 113 124 123
f 114 121 124
f 115 123 127
f 115 127 122
f 116 122 125
f 121 126 124
f 122 127 128
f 122 128 125
f 123 124 127
f 124 126 127
f 126 128 127

o geometry_4
v -10.64373478 -48.54834323 15.13853967 0.56470588 0.92549020 0.07058824
v -10.64373478 -45.02757286 15.13545215 0.56470588 0.92549020 0.07058824
v -10.73619500 -45.02757286 15.38390666 0.56470588 0.92549020 0.07058824
v -10.73680297 -48.54834323 15.38545042 0.56470588 0.92549020 0.07058824
v -10.64373478 -48.54834323 7.91022256 0.56470588 0.92549020 0.07058824
v -10.64373478 -45.02757286 7.91022256 0.56470588 0.92549020 0.07058824
v -10.67110747 -44.76071467 15.13545215 0.56470588 0.92549020 0.07058824
v -10.89009270 -44.69572046 15.29517323 0.56470588 0.92549020 0.07058824
v -16.50278866 -44.73089372 15.38390666 0.56470588 0.92549020 0.07058824
v -16.60072356 -45.02757286 15.43714702 0.56470588 0.92549020 0.07058824
v -11.03608236 -48.54834323 15.44177681 0.56470588 0.92549020 0.07058824
v -10.71551293 -48.54834323 7.64633641 0.56470588 0.92549020 0.07058824
v -10.77330112 -44.91249510 7.60698467 0.56470588 0.92549020 0.07058824
v -10.67110747 -44.76071467 7.91022256 0.56470588 0.92549020 0.07058824
v -10.93814746 -44.64296047 7.91022256 0.56470588 0.92549020 0.07058824
v -16.50278866 -44.64257826 15.13545215 0.56470588 0.92549020 0.07058824
v -16.77043736 -44.75153890 15.25659263 0.56470588 0.92549020 0.07058824
v -16.40789509 -48.54834323 15.44100493 0.56470588 0.92549020 0.07058824
v -16.84160680 -45.02757286 15.23344517 0.56470588 0.92549020 0.07058824
v -16.78686142 -48.54834323 15.38159251 0.56470588 0.92549020 0.07058824
v -11.03608236 -48.54834323 7.55914599 0.56470588 0.92549020 0.07058824
v -16.50278866 -45.02757286 7.55991787 0.56470588 0.92549020 0.07058824
v -11.03608236 -44.67889854 7.65250921 0.56470588 0.92549020 0.07058824
v -16.50278866 -44.64257826 7.91022256 0.56470588 0.92549020 0.07058824
v -16.76921993 -44.71063093 7.91022256 0.56470588 0.92549020 0.07058824
v -16.85742289 -45.02757286 7.91022256 0.56470588 0.92549020 0.07058824
v -16.85742289 -48.54834323 15.13545215 0.56470588 0.92549020 0.07058824
v -16.50278866 -48.54834323 7.55914599 0.56470588 0.92549020 0.07058824
v -16.76374525 -48.54834323 7.61161447 0.56470588 0.92549020 0.07058824
v -16.80267602 -45.02757286 7.64865130 0.56470588 0.92549020 0.07058824
v -16.61653966 -44.74618659 7.62858987 0.56470588 0.92549020 0.07058824
v -16.85742289 -48.54834323 7.91022256 0.56470588 0.92549020 0.07058824
f 129 130 131
f 129 131 132
f 129 132 139
f 129 139 146
f 129 146 148
f 129 148 155
f 129 155 160
f 129 160 157
f 129 157 156
f 129 156 149
f 129 149 140
f 129 140 133
f 129 133 134
f 129 134 130
f 130 134 142
f 130 142 135
f 130 135 131
f 131 136 137
f 131 137 138
f 131 138 139
f 131 139 132
f 131 135 136
f 133 140 134
f 134 140 141
f 134 141 142
f 135 142 143
f 135 143 136
f 136 144 137
f 136 143 144
f 137 144 145
f 137 145 138
f 138 146 139
f 138 145 147
f 138 147 148
f 138 148 146
f 140 149 141
f 141 149 150
f 141 150 151
f 141 151 142
f 142 151 143
f 143 152 144
f 143 151 152
f 144 152 153
f 144 153 145
f 145 153 154
f 145 154 147
f 147 155 148
f 147 154 155
f 149 156 150
f 150 156 157
f 150 157 158
f 150 158 159
f 150 159 151
f 151 159 152
f 152 159 153
f 153 159 158
f 153 158 154
f 154 160 155
f 154 158 160
f 157 160 158

o geometry_5
v 16.85742289 -45.02757006 -7.91091695 0.08627451 0.01960784 0.83137255
v 16.85742289 -48.55219592 -7.91091695 0.08627451 0.01960784 0.83137255
v 16.85742289 -48.55219592 -15.13523161 0.08627451 0.01960784 0.83137255
v 16.84160531 -45.02757006 -15.23322165 0.08627451 0.01960784 0.83137255
v 16.76982045 -44.71069799 -15.13523161 0.08627451 0.01960784 0.83137255
v 16.76982045 -44.71069799 -7.91091695 0.08627451 0.01960784 0.83137255
v 16.80327952 -45.02757006 -7.64857978 0.08627451 0.01960784 0.83137255
v 16.76251888 -48.55219592 -7.61077255 0.08627451 0.01960784 0.83137255
v 16.78746194 -48.55219592 -15.38136601 0.08627451 0.01960784 0.83137255
v 16.73514396 -44.91008241 -15.40528387 0.08627451 0.01960784 0.83137255
v 16.50336087 -44.73098089 -15.38445204 0.08627451 0.01960784 0.83137255
v 16.50336087 -44.64257826 -15.13523161 0.08627451 0.01960784 0.83137255
v 16.50336087 -44.64257826 -7.91091695 0.08627451 0.01960784 0.83137255
v 16.61651433 -44.76810247 -7.60922879 0.08627451 0.01960784 0.83137255
v 16.50336087 -45.02757006 -7.55984783 0.08627451 0.01960784 0.83137255
v 16.50336087 -48.55219592 -7.55907595 0.08627451 0.01960784 0.83137255
v 16.50336087 -48.55219592 -15.44154882 0.08627451 0.01960784 0.83137255
v 10.84079966 -45.02757006 -15.44000506 0.08627451 0.01960784 0.83137255
v 10.92596948 -44.68658828 -15.25328308 0.08627451 0.01960784 0.83137255
v 10.93813628 -44.64296103 -7.91091695 0.08627451 0.01960784 0.83137255
v 11.03608161 -44.67855171 -7.65243769 0.08627451 0.01960784 0.83137255
v 10.81281602 -44.91237868 -7.58376718 0.08627451 0.01960784 0.83137255
v 11.03608161 -48.55219592 -7.55907595 0.08627451 0.01960784 0.83137255
v 10.73677093 -48.55219592 -15.38522243 0.08627451 0.01960784 0.83137255
v 10.70939526 -45.02757006 -15.38290828 0.08627451 0.01960784 0.83137255
v 10.67046076 -44.76083127 -15.13523161 0.08627451 0.01960784 0.83137255
v 10.67046076 -44.76083127 -7.91091695 0.08627451 0.01960784 0.83137255
v 10.71547866 -48.55219592 -7.64703602 0.08627451 0.01960784 0.83137255
v 10.65038517 -45.02757006 -7.81292617 0.08627451 0.01960784 0.83137255
v 10.64247638 -48.55219592 -15.13523161 0.08627451 0.01960784 0.83137255
v 10.64308435 -45.02757006 -15.13523161 0.08627451 0.01960784 0.83137255
v 10.64247638 -48.55219592 -7.91091695 0.08627451 0.01960784 0.83137255
f 161 162 163
f 161 163 164
f 161 164 165
f 161 165 166
f 161 166 167
f 161 167 162
f 162 167 168
f 162 168 176
f 162 176 183
f 162 183 188
f 162 188 192
f 162 192 190
f 162 190 184
f 162 184 177
f 162 177 169
f 162 169 163
f 163 169 164
f 164 169 170
f 164 170 165
f 165 170 171
f 165 171 172
f 165 172 173
f 165 173 166
f 166 173 174
f 166 174 167
f 167 174 175
f 167 175 168
f 168 175 176
f 169 177 170
f 170 177 178
f 170 178 171
f 171 178 179
f 171 179 172
f 172 179 180
f 172 180 173
f 173 180 181
f 173 181 174
f 174 181 182
f 174 182 175
f 175 182 183
f 175 183 176
f 177 184 178
f 178 184 185
f 178 185 179
f 179 185 186
f 179 186 180
f 180 187 181
f 180 186 187
f 181 187 182
f 182 188 183
f 182 187 189
f 182 189 188
f 184 190 185
f 185 190 191
f 185 191 186
f 186 191 187
f 187 191 189
f 188 189 192
f 189 191 192
f 190 192 191

o geometry_6
v 16.85742289 -48.54834323 15.13545215 0.77647059 0.86666667 0.97647059
v 16.85742289 -45.02757286 7.91022256 0.77647059 0.86666667 0.97647059
v 16.84160680 -45.02757286 15.23344517 0.77647059 0.86666667 0.97647059
v 16.75218791 -48.54834323 15.40859789 0.77647059 0.86666667 0.97647059
v 16.85742289 -48.54834323 7.91022256 0.77647059 0.86666667 0.97647059
v 16.77043736 -44.75153890 15.25659263 0.77647059 0.86666667 0.97647059
v 16.80267602 -45.02757286 7.64865130 0.77647059 0.86666667 0.97647059
v 16.76921993 -44.71063093 7.91022256 0.77647059 0.86666667 0.97647059
v 16.60072356 -45.02757286 15.43714702 0.77647059 0.86666667 0.97647059
v 16.49792194 -48.54834323 15.44177681 0.77647059 0.86666667 0.97647059
v 16.76678658 -48.54834323 7.61238635 0.77647059 0.86666667 0.97647059
v 16.50278866 -44.64257826 15.13545215 0.77647059 0.86666667 0.97647059
v 16.50278866 -44.73089372 15.38390666 0.77647059 0.86666667 0.97647059
v 16.50278866 -45.02757286 7.55991787 0.77647059 0.86666667 0.97647059
v 16.61653966 -44.74618659 7.62858987 0.77647059 0.86666667 0.97647059
v 16.50278866 -44.64257826 7.91022256 0.77647059 0.86666667 0.97647059
v 10.73619500 -45.02757286 15.38390666 0.77647059 0.86666667 0.97647059
v 11.03608236 -48.54834323 15.44177681 0.77647059 0.86666667 0.97647059
v 16.50278866 -48.54834323 7.55914599 0.77647059 0.86666667 0.97647059
v 10.89009270 -44.69572046 15.29517323 0.77647059 0.86666667 0.97647059
v 10.93814746 -44.64296047 7.91022256 0.77647059 0.86666667 0.97647059
v 11.03608236 -48.54834323 7.55914599 0.77647059 0.86666667 0.97647059
v 10.77330112 -44.91249510 7.60698467 0.77647059 0.86666667 0.97647059
v 11.03608236 -44.67889854 7.65250921 0.77647059 0.86666667 0.97647059
v 10.67110747 -44.76071467 15.13545215 0.77647059 0.86666667 0.97647059
v 10.64373478 -45.02757286 15.13545215 0.77647059 0.86666667 0.97647059
v 10.73558629 -48.54834323 15.38236439 0.77647059 0.86666667 0.97647059
v 10.67110747 -44.76071467 7.91022256 0.77647059 0.86666667 0.97647059
v 10.76174304 -48.54834323 7.60621354 0.77647059 0.86666667 0.97647059
v 10.64373478 -45.02757286 7.91022256 0.77647059 0.86666667 0.97647059
v 10.64373478 -48.54834323 15.13545215 0.77647059 0.86666667 0.97647059
v 10.64373478 -48.54834323 7.90559351 0.77647059 0.86666667 0.97647059
f 193 194 195
f 193 195 196
f 193 196 202
f 193 202 210
f 193 210 219
f 193 219 223
f 193 223 224
f 193 224 221
f 193 221 214
f 193 214 211
f 193 211 203
f 193 203 197
f 193 197 194
f 194 198 195
f 194 197 199
f 194 199 200
f 194 200 198
f 195 198 201
f 195 201 196
f 196 201 202
f 197 203 199
f 198 200 204
f 198 204 205
f 198 205 201
f 199 203 206
f 199 206 207
f 199 207 200
f 200 207 208
f 200 208 204
f 201 205 209
f 201 209 210
f 201 210 202
f 203 211 206
f 204 212 205
f 204 208 213
f 204 213 212
f 205 212 209
f 206 211 214
f 206 214 215
f 206 215 216
f 206 216 207
f 207 216 208
f 208 216 213
f 209 212 217
f 209 217 218
f 209 218 219
f 209 219 210
f 212 213 217
f 213 216 220
f 213 220 217
f 214 221 215
f 215 221 222
f 215 222 220
f 215 220 216
f 217 220 222
f 217 222 218
f 218 223 219
f 218 222 224
f 218 224 223
f 221 224 222

o geometry_7
v -10.64247638 -48.55219592 -7.91084841 0.79607843 0.45882353 0.78039216
v -10.65038517 -45.02757006 -7.81287700 0.79607843 0.45882353 0.78039216
v -10.76171398 -48.55219592 -7.60536194 0.79607843 0.45882353 0.78039216
v -10.64247638 -48.55219592 -15.13529122 0.79607843 0.45882353 0.78039216
v -10.64308435 -45.02757006 -15.13529122 0.79607843 0.45882353 0.78039216
v -10.67046076 -44.76083127 -7.91084841 0.79607843 0.45882353 0.78039216
v -10.81281602 -44.91237868 -7.58376196 0.79607843 0.45882353 0.78039216
v -11.03608161 -48.55219592 -7.55907595 0.79607843 0.45882353 0.78039216
v -10.73616296 -48.55219592 -15.38446248 0.79607843 0.45882353 0.78039216
v -10.70939526 -45.02757006 -15.38292021 0.79607843 0.45882353 0.78039216
v -10.67046076 -44.76083127 -15.13529122 0.79607843 0.45882353 0.78039216
v -10.93813628 -44.64296103 -7.91084841 0.79607843 0.45882353 0.78039216
v -11.03608161 -44.67855171 -7.65241906 0.79607843 0.45882353 0.78039216
v -16.61651433 -44.76810247 -7.60921910 0.79607843 0.45882353 0.78039216
v -16.50336087 -45.02757006 -7.55984783 0.79607843 0.45882353 0.78039216
v -16.50336087 -48.55219592 -7.55907595 0.79607843 0.45882353 0.78039216
v -16.62624776 -48.55219592 -15.42534828 0.79607843 0.45882353 0.78039216
v -10.84079966 -45.02757006 -15.44000655 0.79607843 0.45882353 0.78039216
v -10.92596948 -44.68658828 -15.25332034 0.79607843 0.45882353 0.78039216
v -16.50336087 -44.64257826 -7.91084841 0.79607843 0.45882353 0.78039216
v -16.50336087 -44.64257826 -15.13529122 0.79607843 0.45882353 0.78039216
v -16.80327952 -45.02757006 -7.64856189 0.79607843 0.45882353 0.78039216
v -16.76982045 -44.71069799 -7.91084841 0.79607843 0.45882353 0.78039216
v -16.76616967 -48.55219592 -7.61384815 0.79607843 0.45882353 0.78039216
v -16.77164435 -44.79221218 -15.37674963 0.79607843 0.45882353 0.78039216
v -16.69803411 -45.02757006 -15.43383449 0.79607843 0.45882353 0.78039216
v -16.85742289 -48.55219592 -15.13529122 0.79607843 0.45882353 0.78039216
v -16.50336087 -44.73098089 -15.38446248 0.79607843 0.45882353 0.78039216
v -16.76982045 -44.71069799 -15.13529122 0.79607843 0.45882353 0.78039216
v -16.85742289 -45.02757006 -7.91084841 0.79607843 0.45882353 0.78039216
v -16.85742289 -48.55219592 -7.91084841 0.79607843 0.45882353 0.78039216
v -16.84160531 -45.02757006 -15.23326337 0.79607843 0.45882353 0.78039216
f 225 226 227
f 225 227 232
f 225 232 240
f 225 240 248
f 225 248 255
f 225 255 251
f 225 251 241
f 225 241 233
f 225 233 228
f 225 228 229
f 225 229 226
f 226 229 230
f 226 230 231
f 226 231 227
f 227 231 232
f 228 233 234
f 228 234 229
f 229 234 235
f 229 235 230
f 230 236 237
f 230 237 231
f 230 235 236
f 231 238 239
f 231 239 232
f 231 237 238
f 232 239 240
f 233 241 242
f 233 242 234
f 234 243 235
f 234 242 243
f 235 243 236
f 236 244 237
f 236 243 245
f 236 245 244
f 237 244 238
f 238 246 239
f 238 244 247
f 238 247 246
f 239 246 248
f 239 248 240
f 241 249 250
f 241 250 242
f 241 251 249
f 242 250 252
f 242 252 243
f 243 252 245
f 244 245 253
f 244 253 247
f 245 252 249
f 245 249 253
f 246 247 254
f 246 254 255
f 246 255 248
f 247 253 254
f 249 256 253
f 249 252 250
f 249 251 256
f 251 255 254
f 251 254 256
f 253 256 254

o geometry_8
v -1.46483034 -49.32476823 -5.16074039 0.11764706 0.63921569 0.14117647
v -1.46483034 -51.86277387 -5.16074039 0.11764706 0.63921569 0.14117647
v -1.46483034 -49.06585199 -5.25074750 0.11764706 0.63921569 0.14117647
v -5.45159653 -49.05367178 0.00191480 0.11764706 0.63921569 0.14117647
v -5.37927411 -49.35052079 0.00191480 0.11764706 0.63921569 0.14117647
v -1.46483034 -52.06496549 -5.29490151 0.11764706 0.63921569 0.14117647
v -5.38228750 -51.83562917 0.00191480 0.11764706 0.63921569 0.14117647
v -5.76348640 -48.99277073 0.00191480 0.11764706 0.63921569 0.14117647
v -1.46483034 -48.65033311 -17.34732389 0.11764706 0.63921569 0.14117647
v -1.46483034 -52.10707393 -5.56831881 0.11764706 0.63921569 0.14117647
v -5.51337153 -52.06879359 0.00191480 0.11764706 0.63921569 0.14117647
v -10.71454883 -48.55254349 -7.64526799 0.11764706 0.63921569 0.14117647
v -16.50183797 -48.55254349 -7.56035596 0.11764706 0.63921569 0.14117647
v -16.50183797 -48.99277073 0.00191480 0.11764706 0.63921569 0.14117647
v -1.46483034 -52.10707393 -17.34732389 0.11764706 0.63921569 0.14117647
v -16.50183797 -48.65033311 -17.34732389 0.11764706 0.63921569 0.14117647
v -16.50183797 -48.55254349 -15.44019878 0.11764706 0.63921569 0.14117647
v -10.73413640 -48.55254349 -15.38415551 0.11764706 0.63921569 0.14117647
v -10.64072028 -48.55254349 -15.13451487 0.11764706 0.63921569 0.14117647
v -10.64072028 -48.55254349 -7.91189224 0.11764706 0.63921569 0.14117647
v -5.76348640 -52.10707393 0.00191480 0.11764706 0.63921569 0.14117647
v -16.80318117 -48.55254349 -7.65036270 0.11764706 0.63921569 0.14117647
v -16.75345898 -49.00912699 0.00191480 0.11764706 0.63921569 0.14117647
v -16.50183797 -52.10707393 -17.34732389 0.11764706 0.63921569 0.14117647
v -16.81523472 -48.82642385 -17.34732389 0.11764706 0.63921569 0.14117647
v -16.85591638 -48.55254349 -15.14300555 0.11764706 0.63921569 0.14117647
v -16.74893945 -48.55254349 -15.40793180 0.11764706 0.63921569 0.14117647
v -16.50183797 -52.10707393 0.00191480 0.11764706 0.63921569 0.14117647
v -16.85591638 -48.55254349 -7.91189224 0.11764706 0.63921569 0.14117647
v -16.84989035 -49.25099109 0.00191480 0.11764706 0.63921569 0.14117647
v -16.76852703 -52.01694053 -17.34732389 0.11764706 0.63921569 0.14117647
v -16.76702052 -52.02007276 0.00191480 0.11764706 0.63921569 0.14117647
f 257 258 262
f 257 262 266
f 257 266 271
f 257 271 265
f 257 265 259
f 257 259 260
f 257 260 261
f 257 261 258
f 258 261 263
f 258 263 262
f 259 264 260
f 259 265 264
f 260 264 270
f 260 270 279
f 260 279 286
f 260 286 288
f 260 288 284
f 260 284 277
f 260 277 267
f 260 267 263
f 260 263 261
f 262 263 267
f 262 267 266
f 264 265 268
f 264 268 269
f 264 269 270
f 265 271 280
f 265 280 287
f 265 287 281
f 265 281 272
f 265 272 273
f 265 273 274
f 265 274 275
f 265 275 276
f 265 276 268
f 266 267 277
f 266 277 284
f 266 284 280
f 266 280 271
f 268 276 275
f 268 275 274
f 268 274 273
f 268 273 283
f 268 283 282
f 268 282 285
f 268 285 278
f 268 278 269
f 269 278 270
f 270 278 279
f 272 281 282
f 272 282 283
f 272 283 273
f 278 285 279
f 279 285 286
f 280 284 288
f 280 288 287
f 281 287 282
f 282 287 286
f 282 286 285
f 286 287 288

o geometry_9
v 16.85742289 -48.93396553 17.37093627 0.94117647 0.52156863 0.41176471
v 16.85742289 -48.54869191 15.13372064 0.94117647 0.52156863 0.41176471
v 16.76997393 -48.70823567 17.37093627 0.94117647 0.52156863 0.41176471
v 16.81617349 -51.95136127 17.37093627 0.94117647 0.52156863 0.41176471
v 16.84092283 -51.93707925 0.00361502 0.94117647 0.52156863 0.41176471
v 16.85742289 -49.32481256 0.00361502 0.94117647 0.52156863 0.41176471
v 16.75182432 -48.54869191 15.40742218 0.94117647 0.52156863 0.41176471
v 16.85742289 -48.54869191 7.91207030 0.94117647 0.52156863 0.41176471
v 16.41688049 -48.64448775 17.37093627 0.94117647 0.52156863 0.41176471
v 16.50267839 -52.10672450 17.37093627 0.94117647 0.52156863 0.41176471
v 16.57692790 -52.09836495 0.00361502 0.94117647 0.52156863 0.41176471
v 16.76007509 -49.03010969 0.00361502 0.94117647 0.52156863 0.41176471
v 16.50267839 -48.54869191 15.43972194 0.94117647 0.52156863 0.41176471
v 16.80132449 -48.54869191 7.65026808 0.94117647 0.52156863 0.41176471
v 0.00129193 -48.64448775 17.37093627 0.94117647 0.52156863 0.41176471
v 0.00129193 -52.10672450 17.37093627 0.94117647 0.52156863 0.41176471
v 0.00129193 -52.10672450 5.76325506 0.94117647 0.52156863 0.41176471
v 5.64255193 -52.10045484 0.00361502 0.94117647 0.52156863 0.41176471
v 16.50267839 -48.99318498 0.00361502 0.94117647 0.52156863 0.41176471
v 10.73272079 -48.54869191 15.38192332 0.94117647 0.52156863 0.41176471
v 16.50267839 -48.54869191 7.56016821 0.94117647 0.52156863 0.41176471
v 10.64032167 -48.54869191 15.13372064 0.94117647 0.52156863 0.41176471
v 10.64032167 -48.54869191 7.90697038 0.94117647 0.52156863 0.41176471
v 10.71457118 -48.54869191 7.64686838 0.94117647 0.52156863 0.41176471
v 0.00129193 -49.02592954 5.49805351 0.94117647 0.52156863 0.41176471
v 0.00129193 -52.09627432 5.56775406 0.94117647 0.52156863 0.41176471
v 5.40000573 -51.94300097 0.00361502 0.94117647 0.52156863 0.41176471
v 5.69040105 -48.99353293 0.00361502 0.94117647 0.52156863 0.41176471
v 11.03466600 -48.54869191 7.56016821 0.94117647 0.52156863 0.41176471
v 5.40000573 -49.18024820 0.00361502 0.94117647 0.52156863 0.41176471
v 0.00129193 -49.32481256 5.37735261 0.94117647 0.52156863 0.41176471
v 0.00129193 -51.92349386 5.39435260 0.94117647 0.52156863 0.41176471
f 289 290 291
f 289 291 297
f 289 297 303
f 289 303 304
f 289 304 298
f 289 298 292
f 289 292 293
f 289 293 294
f 289 294 296
f 289 296 290
f 290 295 291
f 290 296 302
f 290 302 309
f 290 309 317
f 290 317 312
f 290 312 311
f 290 311 310
f 290 310 308
f 290 308 301
f 290 301 295
f 291 295 297
f 292 298 299
f 292 299 293
f 293 299 306
f 293 306 315
f 293 315 318
f 293 318 316
f 293 316 307
f 293 307 300
f 293 300 294
f 294 300 296
f 295 301 297
f 296 300 302
f 297 301 303
f 298 304 305
f 298 305 299
f 299 305 306
f 300 307 302
f 301 308 303
f 302 307 309
f 303 308 310
f 303 310 311
f 303 311 312
f 303 312 313
f 303 313 319
f 303 319 320
f 303 320 314
f 303 314 305
f 303 305 304
f 305 314 306
f 306 314 315
f 307 316 317
f 307 317 309
f 312 317 316
f 312 316 313
f 313 316 318
f 313 318 319
f 314 320 315
f 315 320 319
f 315 319 318

o geometry_10
v -0.00035763 -48.64448775 17.37093627 0.26274510 0.77254902 0.45490196
v -0.00035763 -52.10672450 17.37093627 0.26274510 0.77254902 0.45490196
v -0.00035763 -49.02592954 5.49805351 0.26274510 0.77254902 0.45490196
v -10.71258038 -48.54869191 7.64686838 0.26274510 0.77254902 0.45490196
v -10.63997746 -48.54869191 7.91207030 0.26274510 0.77254902 0.45490196
v -10.63997746 -48.54869191 15.13372064 0.26274510 0.77254902 0.45490196
v -10.73403135 -48.54869191 15.38532227 0.26274510 0.77254902 0.45490196
v -16.50760919 -48.54869191 15.43972194 0.26274510 0.77254902 0.45490196
v -16.30630195 -48.64448775 17.37093627 0.26274510 0.77254902 0.45490196
v -16.57856107 -52.09801626 17.37093627 0.26274510 0.77254902 0.45490196
v -16.54886007 -52.10149941 0.00361502 0.26274510 0.77254902 0.45490196
v -5.68978190 -52.10289341 0.00361502 0.26274510 0.77254902 0.45490196
v -0.00035763 -52.10149941 5.66465482 0.26274510 0.77254902 0.45490196
v -0.00035763 -49.32481256 5.37735261 0.26274510 0.77254902 0.45490196
v -5.45217283 -49.05379732 0.00361502 0.26274510 0.77254902 0.45490196
v -5.76403514 -48.99318498 0.00361502 0.26274510 0.77254902 0.45490196
v -11.02774292 -48.54869191 7.56016821 0.26274510 0.77254902 0.45490196
v -16.78647101 -48.54869191 15.37852287 0.26274510 0.77254902 0.45490196
v -16.59011245 -48.65006116 17.37093627 0.26274510 0.77254902 0.45490196
v -16.84092283 -51.93707925 17.37093627 0.26274510 0.77254902 0.45490196
v -16.81287140 -51.96912718 0.00361502 0.26274510 0.77254902 0.45490196
v -5.39442040 -51.92349386 0.00361502 0.26274510 0.77254902 0.45490196
v -0.00035763 -51.92349386 5.39435260 0.26274510 0.77254902 0.45490196
v -5.37791997 -49.32481256 0.00361502 0.26274510 0.77254902 0.45490196
v -16.57526195 -48.99527487 0.00361502 0.26274510 0.77254902 0.45490196
v -16.50100946 -48.54869191 7.56016821 0.26274510 0.77254902 0.45490196
v -16.85742289 -48.54869191 15.13372064 0.26274510 0.77254902 0.45490196
v -16.84587300 -48.86359927 17.37093627 0.26274510 0.77254902 0.45490196
v -16.85742289 -49.32481256 0.00361502 0.26274510 0.77254902 0.45490196
v -16.82442129 -49.07400143 0.00361502 0.26274510 0.77254902 0.45490196
v -16.85742289 -48.54869191 7.91207030 0.26274510 0.77254902 0.45490196
v -16.76501930 -48.54869191 7.61116818 0.26274510 0.77254902 0.45490196
f 321 322 333
f 321 333 343
f 321 343 334
f 321 334 323
f 321 323 324
f 321 324 325
f 321 325 326
f 321 326 327
f 321 327 328
f 321 328 329
f 321 329 339
f 321 339 348
f 321 348 340
f 321 340 330
f 321 330 322
f 322 330 331
f 322 331 332
f 322 332 333
f 323 334 335
f 323 335 336
f 323 336 324
f 324 336 337
f 324 337 346
f 324 346 352
f 324 352 351
f 324 351 347
f 324 347 338
f 324 338 328
f 324 328 327
f 324 327 326
f 324 326 325
f 328 338 329
f 329 338 339
f 330 340 341
f 330 341 331
f 331 341 349
f 331 349 350
f 331 350 345
f 331 345 336
f 331 336 335
f 331 335 344
f 331 344 342
f 331 342 332
f 332 342 333
f 333 342 343
f 334 343 342
f 334 342 344
f 334 344 335
f 336 345 346
f 336 346 337
f 338 347 339
f 339 347 348
f 340 348 347
f 340 347 349
f 340 349 341
f 345 350 351
f 345 351 352
f 345 352 346
f 347 351 349
f 349 351 350

o geometry_11
v -1.46181732 -52.10707393 -17.34732389 0.56470588 0.01568627 0.61568627
v 5.71453348 -52.10463759 0.00191480 0.56470588 0.01568627 0.61568627
v -1.46181732 -52.10707393 -5.56831881 0.56470588 0.01568627 0.61568627
v -1.46181732 -48.65033311 -17.34732389 0.56470588 0.01568627 0.61568627
v 16.58306420 -52.09767801 -17.34732389 0.56470588 0.01568627 0.61568627
v 5.43300249 -51.97657180 0.00191480 0.56470588 0.01568627 0.61568627
v -1.46181732 -52.06496549 -5.29490151 0.56470588 0.01568627 0.61568627
v 16.57589078 -52.09872183 0.00191480 0.56470588 0.01568627 0.61568627
v -1.46181732 -49.06585199 -5.25074750 0.56470588 0.01568627 0.61568627
v 10.67987978 -48.55254349 -7.65715614 0.56470588 0.01568627 0.61568627
v 10.64222232 -48.55254349 -7.91189224 0.56470588 0.01568627 0.61568627
v 10.64222232 -48.55254349 -15.13451487 0.56470588 0.01568627 0.61568627
v 10.73546857 -48.55254349 -15.38585424 0.56470588 0.01568627 0.61568627
v 16.50237143 -48.55254349 -15.44019878 0.56470588 0.01568627 0.61568627
v 16.57947898 -48.65555298 -17.34732389 0.56470588 0.01568627 0.61568627
v 16.84128344 -51.93724689 -17.34732389 0.56470588 0.01568627 0.61568627
v 16.82514548 -51.94629562 0.00191480 0.56470588 0.01568627 0.61568627
v 5.37562035 -49.32476823 0.00191480 0.56470588 0.01568627 0.61568627
v -1.46181732 -51.86277387 -5.16074039 0.56470588 0.01568627 0.61568627
v -1.46181732 -49.32476823 -5.16074039 0.56470588 0.01568627 0.61568627
v 5.46169356 -49.06550404 0.00191480 0.56470588 0.01568627 0.61568627
v 5.71274012 -48.99311867 0.00191480 0.56470588 0.01568627 0.61568627
v 10.83947346 -48.55254349 -7.56035596 0.56470588 0.01568627 0.61568627
v 16.78748727 -48.55254349 -15.37736356 0.56470588 0.01568627 0.61568627
v 16.85742289 -48.55254349 -15.13451487 0.56470588 0.01568627 0.61568627
v 16.83949083 -48.82677217 -17.34732389 0.56470588 0.01568627 0.61568627
v 16.85742289 -49.32476823 0.00191480 0.56470588 0.01568627 0.61568627
v 16.55078679 -48.99451081 0.00191480 0.56470588 0.01568627 0.61568627
v 16.50237143 -48.55254349 -7.56035596 0.56470588 0.01568627 0.61568627
v 16.85742289 -48.55254349 -7.91189224 0.56470588 0.01568627 0.61568627
v 16.80362672 -49.07037598 0.00191480 0.56470588 0.01568627 0.61568627
v 16.80183411 -48.55254349 -7.65036270 0.56470588 0.01568627 0.61568627
f 353 354 355
f 353 355 359
f 353 359 371
f 353 371 372
f 353 372 361
f 353 361 356
f 353 356 367
f 353 367 378
f 353 378 368
f 353 368 357
f 353 357 354
f 354 358 359
f 354 359 355
f 354 357 360
f 354 360 369
f 354 369 379
f 354 379 383
f 354 383 380
f 354 380 374
f 354 374 373
f 354 373 370
f 354 370 358
f 356 361 362
f 356 362 363
f 356 363 364
f 356 364 365
f 356 365 366
f 356 366 367
f 357 368 369
f 357 369 360
f 358 370 371
f 358 371 359
f 361 372 373
f 361 373 374
f 361 374 362
f 362 374 375
f 362 375 381
f 362 381 384
f 362 384 382
f 362 382 377
f 362 377 376
f 362 376 366
f 362 366 365
f 362 365 364
f 362 364 363
f 366 376 367
f 367 376 377
f 367 377 378
f 368 378 377
f 368 377 379
f 368 379 369
f 370 372 371
f 370 373 372
f 374 380 381
f 374 381 375
f 377 382 379
f 379 382 383
f 380 383 384
f 380 384 381
f 382 384 383

