# https://github.com/mikedh/trimesh

o geometry_0
v -16.66389591 57.02983963 -33.63736081 0.54509804 0.71372549 0.60000000
v -17.05908778 57.02983963 -33.50563884 0.54509804 0.71372549 0.60000000
v -33.50562686 57.16003609 -33.42660925 0.54509804 0.71372549 0.60000000
v -33.46610907 57.45541415 -33.60443032 0.54509804 0.71372549 0.60000000
v -33.55173194 59.90422323 -33.42002395 0.54509804 0.71372549 0.60000000
v 33.55173194 59.90422323 -33.42002395 0.54509804 0.71372549 0.60000000
v 33.46610907 57.45541415 -33.60443032 0.54509804 0.71372549 0.60000000
v 16.74952078 57.02983963 -33.60443032 0.54509804 0.71372549 0.60000000
v -17.26327002 57.02983963 -33.22244698 0.54509804 0.71372549 0.60000000
v -33.42658928 57.16003609 33.50563884 0.54509804 0.71372549 0.60000000
v -33.60442632 57.45541415 33.46612504 0.54509804 0.71372549 0.60000000
v -33.64394611 57.45541415 -33.36075026 0.54509804 0.71372549 0.60000000
v -17.26327002 57.02983963 33.09731629 0.54509804 0.71372549 0.60000000
v -33.42000398 59.90422323 33.55173993 0.54509804 0.71372549 0.60000000
v -33.16971466 60.13723862 33.22903228 0.54509804 0.71372549 0.60000000
v -33.23558164 60.13723862 -33.16317528 0.54509804 0.71372549 0.60000000
v 33.23558164 60.13723862 -33.16317528 0.54509804 0.71372549 0.60000000
v 33.16971466 60.13723862 33.22903228 0.54509804 0.71372549 0.60000000
v 33.42000398 59.90422323 33.55173993 0.54509804 0.71372549 0.60000000
v 33.60442632 57.45541415 33.46612504 0.54509804 0.71372549 0.60000000
v 33.64394611 57.45541415 -33.36075026 0.54509804 0.71372549 0.60000000
v 33.50562686 57.16003609 -33.42660925 0.54509804 0.71372549 0.60000000
v 17.15129796 57.02983963 -33.43978184 0.54509804 0.71372549 0.60000000
v -33.36731160 57.45541415 33.64394212 0.54509804 0.71372549 0.60000000
v -17.15129796 57.02983963 33.43978184 0.54509804 0.71372549 0.60000000
v -16.74952078 57.02983963 33.61101162 0.54509804 0.71372549 0.60000000
v 33.36731160 57.45541415 33.64394212 0.54509804 0.71372549 0.60000000
v 33.42658928 57.16003609 33.50563884 0.54509804 0.71372549 0.60000000
v 17.26327002 57.02983963 33.22244698 0.54509804 0.71372549 0.60000000
v 17.26327002 57.02983963 -33.09731629 0.54509804 0.71372549 0.60000000
v 16.66389591 57.02983963 33.63736081 0.54509804 0.71372549 0.60000000
v 17.05908778 57.02983963 33.50563884 0.54509804 0.71372549 0.60000000
f 1 2 3
f 1 3 4
f 1 4 5
f 1 5 6
f 1 6 7
f 1 7 8
f 1 8 23
f 1 23 30
f 1 30 29
f 1 29 32
f 1 32 31
f 1 31 26
f 1 26 25
f 1 25 13
f 1 13 9
f 1 9 2
f 2 9 3
f 3 10 11
f 3 11 12
f 3 12 4
f 3 9 13
f 3 13 10
f 4 12 5
f 5 12 11
f 5 11 14
f 5 14 15
f 5 15 16
f 5 16 17
f 5 17 6
f 6 17 18
f 6 18 19
f 6 19 20
f 6 20 21
f 6 21 7
f 7 21 22
f 7 22 8
f 8 22 23
f 10 24 11
f 10 13 25
f 10 25 26
f 10 26 24
f 11 24 14
f 14 24 27
f 14 27 19
f 14 19 18
f 14 18 15
f 15 18 17
f 15 17 16
f 19 27 20
f 20 27 28
f 20 28 22
f 20 22 21
f 22 28 29
f 22 29 30
f 22 30 23
f 24 26 31
f 24 31 27
f 27 31 28
f 28 31 32
f 28 32 29

o geometry_1
v 0.00233820 5.83463544 -29.72683477 0.54117647 0.42352941 0.64313725
v 6.22948261 -4.61564857 -30.01081935 0.54117647 0.42352941 0.64313725
v 6.25776466 -4.40876272 -24.48558894 0.54117647 0.42352941 0.64313725
v 0.00233820 6.17886412 -24.46676752 0.54117647 0.42352941 0.64313725
v 0.00233820 9.03700212 -24.35660651 0.54117647 0.42352941 0.64313725
v 0.07947037 13.14340189 -30.01081935 0.54117647 0.42352941 0.64313725
v 12.34864148 -4.18970865 -30.01081935 0.54117647 0.42352941 0.64313725
v 12.17123774 -3.91502097 -24.48614404 0.54117647 0.42352941 0.64313725
v 12.63403177 -1.45500609 -24.42580408 0.54117647 0.42352941 0.64313725
v 12.58646706 1.48658031 -24.38428554 0.54117647 0.42352941 0.64313725
v 6.02122550 10.99805972 -24.35660651 0.54117647 0.42352941 0.64313725
v 6.01994009 11.19451351 -24.36491102 0.54117647 0.42352941 0.64313725
v 2.39472372 12.62532069 -24.51991117 0.54117647 0.42352941 0.64313725
v 1.75452618 12.88957632 -30.01081935 0.54117647 0.42352941 0.64313725
v 13.13539115 -0.01202869 -30.01081935 0.54117647 0.42352941 0.64313725
v 12.99912456 0.92677590 -24.73303688 0.54117647 0.42352941 0.64313725
v 12.83329001 1.90556553 -24.57084042 0.54117647 0.42352941 0.64313725
v 12.45148438 2.77308995 -24.38483864 0.54117647 0.42352941 0.64313725
v 11.34720865 5.65035287 -24.38760614 0.54117647 0.42352941 0.64313725
v 9.56673862 8.56064612 -24.48337454 0.54117647 0.42352941 0.64313725
v 7.54972993 10.46085459 -24.47507203 0.54117647 0.42352941 0.64313725
v 6.15106503 11.34924211 -24.48835844 0.54117647 0.42352941 0.64313725
v 4.86424141 11.98901957 -24.55810910 0.54117647 0.42352941 0.64313725
v 3.97979174 12.46537557 -30.01081935 0.54117647 0.42352941 0.64313725
v 12.56846830 3.67538586 -30.01081935 0.54117647 0.42352941 0.64313725
v 12.03754197 4.60202023 -24.47451892 0.54117647 0.42352941 0.64313725
v 8.78384569 9.57594442 -24.73303688 0.54117647 0.42352941 0.64313725
v 10.23907518 8.12079880 -30.01081935 0.54117647 0.42352941 0.64313725
v 6.35418000 11.29708585 -24.53153628 0.54117647 0.42352941 0.64313725
v 6.39146043 11.31621078 -24.73303688 0.54117647 0.42352941 0.64313725
v 5.68570017 11.69346979 -30.01081935 0.54117647 0.42352941 0.64313725
v 7.18849388 10.90417826 -30.01081935 0.54117647 0.42352941 0.64313725
f 33 34 35
f 33 35 36
f 33 36 37
f 33 37 38
f 33 38 34
f 34 39 35
f 34 38 46
f 34 46 56
f 34 56 63
f 34 63 64
f 34 64 60
f 34 60 57
f 34 57 47
f 34 47 39
f 35 39 40
f 35 40 41
f 35 41 42
f 35 42 37
f 35 37 36
f 37 43 44
f 37 44 45
f 37 45 38
f 37 42 43
f 38 45 46
f 39 47 41
f 39 41 40
f 41 47 48
f 41 48 49
f 41 49 42
f 42 49 50
f 42 50 43
f 43 50 51
f 43 51 44
f 44 51 52
f 44 52 53
f 44 53 54
f 44 54 55
f 44 55 45
f 45 55 56
f 45 56 46
f 47 57 48
f 48 57 49
f 49 57 58
f 49 58 50
f 50 58 51
f 51 58 52
f 52 59 53
f 52 58 60
f 52 60 59
f 53 61 54
f 53 59 62
f 53 62 61
f 54 61 55
f 55 61 62
f 55 62 56
f 56 62 63
f 57 60 58
f 59 60 64
f 59 64 62
f 62 64 63

o geometry_2
v -0.00233371 5.83266264 28.39596522 0.43529412 0.89019608 0.96078431
v -0.00233371 5.83439982 30.01569742 0.43529412 0.89019608 0.96078431
v -0.00233371 5.92126468 25.23682231 0.43529412 0.89019608 0.96078431
v 6.22882868 -4.61564457 30.01569742 0.43529412 0.89019608 0.96078431
v 0.19070114 13.13292491 30.01569742 0.43529412 0.89019608 0.96078431
v 6.25842708 -4.40890250 24.48567480 0.43529412 0.89019608 0.96078431
v 2.19054123 12.62909955 24.50118560 0.43529412 0.89019608 0.96078431
v 12.29784103 -4.23690596 30.01569742 0.43529412 0.89019608 0.96078431
v 1.92415357 12.86363846 30.01569742 0.43529412 0.89019608 0.96078431
v 12.33644830 -3.49680251 24.46296370 0.43529412 0.89019608 0.96078431
v 5.88908720 11.12978269 24.35715961 0.43529412 0.89019608 0.96078431
v 11.13834602 6.05851567 24.36269861 0.43529412 0.89019608 0.96078431
v 3.95873970 12.45536584 30.01569742 0.43529412 0.89019608 0.96078431
v 4.38985071 12.15133284 24.58206019 0.43529412 0.89019608 0.96078431
v 5.86978406 11.32783788 24.39815101 0.43529412 0.89019608 0.96078431
v 12.87179744 -1.03674370 24.54273009 0.43529412 0.89019608 0.96078431
v 13.14462015 0.01260328 30.01569742 0.43529412 0.89019608 0.96078431
v 12.75468972 1.12102228 24.42086211 0.43529412 0.89019608 0.96078431
v 7.62768726 10.34450963 24.46185550 0.43529412 0.89019608 0.96078431
v 11.52184090 5.84308571 24.50229180 0.43529412 0.89019608 0.96078431
v 12.45484293 3.35696524 24.50838590 0.43529412 0.89019608 0.96078431
v 9.46151759 8.74616468 24.59701788 0.43529412 0.89019608 0.96078431
v 5.88007884 11.59538716 30.01569742 0.43529412 0.89019608 0.96078431
v 6.15161464 11.43729004 24.73328647 0.43529412 0.89019608 0.96078431
v 12.83190426 1.90629435 24.57098219 0.43529412 0.89019608 0.96078431
v 12.50889310 3.92680934 30.01569742 0.43529412 0.89019608 0.96078431
v 7.61867890 10.68502635 30.01569742 0.43529412 0.89019608 0.96078431
v 11.93750951 5.16900098 24.73328647 0.43529412 0.89019608 0.96078431
v 11.04568857 6.91849434 24.73328647 0.43529412 0.89019608 0.96078431
v 8.67136146 9.72602057 30.01569742 0.43529412 0.89019608 0.96078431
v 9.71761048 8.67840877 30.01569742 0.43529412 0.89019608 0.96078431
v 10.67892250 7.62732461 30.01569742 0.43529412 0.89019608 0.96078431
f 65 66 67
f 65 67 68
f 65 68 66
f 66 68 72
f 66 72 81
f 66 81 90
f 66 90 96
f 66 96 95
f 66 95 94
f 66 94 91
f 66 91 87
f 66 87 77
f 66 77 73
f 66 73 69
f 66 69 67
f 67 70 68
f 67 69 71
f 67 71 70
f 68 70 72
f 69 73 71
f 70 74 72
f 70 71 75
f 70 75 76
f 70 76 74
f 71 73 77
f 71 77 78
f 71 78 79
f 71 79 75
f 72 74 80
f 72 80 81
f 74 76 82
f 74 82 80
f 75 79 83
f 75 83 76
f 76 84 85
f 76 85 82
f 76 83 86
f 76 86 84
f 77 87 88
f 77 88 78
f 78 88 79
f 79 88 83
f 80 82 89
f 80 89 81
f 81 89 90
f 82 85 89
f 83 88 91
f 83 91 86
f 84 92 85
f 84 86 93
f 84 93 92
f 85 92 90
f 85 90 89
f 86 91 94
f 86 94 95
f 86 95 96
f 86 96 93
f 87 91 88
f 90 92 96
f 92 93 96

o geometry_3
v -13.13702549 -0.00873205 30.01569742 0.38039216 0.78823529 0.52549020
v -12.85545799 0.66666654 24.51486936 0.38039216 0.78823529 0.52549020
v -12.87731448 -1.69115239 24.73288912 0.38039216 0.78823529 0.52549020
v -12.34760717 -4.20523143 30.01569742 0.38039216 0.78823529 0.52549020
v -12.50574821 3.90649834 30.01569742 0.38039216 0.78823529 0.52549020
v -12.49289110 3.15991342 24.51874307 0.38039216 0.78823529 0.52549020
v -12.80274364 -1.47933057 24.48111621 0.38039216 0.78823529 0.52549020
v -11.58004533 5.23993373 24.36325371 0.38039216 0.78823529 0.52549020
v -12.46074833 -3.21383828 24.51597756 0.38039216 0.78823529 0.52549020
v -6.29068267 -4.37538496 24.48554301 0.38039216 0.78823529 0.52549020
v -6.22511221 -4.61325046 30.01569742 0.38039216 0.78823529 0.52549020
v -11.96704052 5.10971531 24.73288912 0.38039216 0.78823529 0.52549020
v -10.66077100 7.66546664 30.01569742 0.38039216 0.78823529 0.52549020
v -11.89632642 5.13923135 24.51708376 0.38039216 0.78823529 0.52549020
v -11.05419475 6.51780939 24.44293424 0.38039216 0.78823529 0.52549020
v -9.45350061 8.44677514 24.37819344 0.38039216 0.78823529 0.52549020
v -0.00233321 6.00908998 24.56467044 0.38039216 0.78823529 0.52549020
v -0.00233321 5.83372891 25.90875253 0.38039216 0.78823529 0.52549020
v -0.00233321 5.83372891 28.39604908 0.38039216 0.78823529 0.52549020
v -0.00233321 5.83546609 30.01569742 0.38039216 0.78823529 0.52549020
v -10.02435008 8.33044815 24.65486789 0.38039216 0.78823529 0.52549020
v -9.71835427 8.67943311 30.01569742 0.38039216 0.78823529 0.52549020
v -7.89009140 10.26462343 24.54309151 0.38039216 0.78823529 0.52549020
v -6.21611234 11.20045885 24.47890180 0.38039216 0.78823529 0.52549020
v -3.56757403 12.41409290 24.49550283 0.38039216 0.78823529 0.52549020
v -2.19701970 12.62765090 24.50103584 0.38039216 0.78823529 0.52549020
v -0.25047302 13.12421706 30.01569742 0.38039216 0.78823529 0.52549020
v -8.67050985 9.72465080 30.01569742 0.38039216 0.78823529 0.52549020
v -7.62395183 10.67611283 30.01569742 0.38039216 0.78823529 0.52549020
v -6.21225511 11.42617011 30.01569742 0.38039216 0.78823529 0.52549020
v -5.00498472 12.04080044 30.01569742 0.38039216 0.78823529 0.52549020
v -3.80157107 12.53042188 30.01569742 0.38039216 0.78823529 0.52549020
f 97 98 99
f 97 99 100
f 97 100 107
f 97 107 116
f 97 116 123
f 97 123 128
f 97 128 127
f 97 127 126
f 97 126 125
f 97 125 124
f 97 124 118
f 97 118 109
f 97 109 101
f 97 101 102
f 97 102 98
f 98 103 99
f 98 102 104
f 98 104 103
f 99 103 105
f 99 105 100
f 100 105 106
f 100 106 107
f 101 108 102
f 101 109 108
f 102 108 110
f 102 110 104
f 103 104 106
f 103 106 105
f 104 110 111
f 104 111 112
f 104 112 106
f 106 112 113
f 106 113 114
f 106 114 107
f 107 114 115
f 107 115 116
f 108 109 117
f 108 117 110
f 109 118 117
f 110 117 111
f 111 117 112
f 112 119 120
f 112 120 121
f 112 121 122
f 112 122 113
f 112 117 119
f 113 122 123
f 113 123 116
f 113 116 115
f 113 115 114
f 117 118 124
f 117 124 125
f 117 125 119
f 119 125 120
f 120 125 126
f 120 126 127
f 120 127 121
f 121 128 123
f 121 123 122
f 121 127 128

o geometry_4
v -13.14297682 0.01102585 -30.01081935 0.56470588 0.92549020 0.07058824
v -12.29372971 -4.24704349 -30.01081935 0.56470588 0.92549020 0.07058824
v -12.95897380 -1.16954991 -24.73303688 0.56470588 0.92549020 0.07058824
v -12.87662160 1.69234598 -24.73303688 0.56470588 0.92549020 0.07058824
v -12.50732765 3.92657173 -30.01081935 0.56470588 0.92549020 0.07058824
v -12.57552484 -2.94475949 -24.61457336 0.56470588 0.92549020 0.07058824
v -6.22933435 -4.61564857 -30.01081935 0.56470588 0.92549020 0.07058824
v -6.25764236 -4.40874276 -24.48558894 0.56470588 0.92549020 0.07058824
v -12.80327877 -1.48077622 -24.48116213 0.56470588 0.92549020 0.07058824
v -12.78526405 0.12577939 -24.41639337 0.56470588 0.92549020 0.07058824
v -12.79041068 1.51325896 -24.47562513 0.56470588 0.92549020 0.07058824
v -12.11229950 4.19606984 -24.43632099 0.56470588 0.92549020 0.07058824
v -11.41102695 5.84261447 -24.45182180 0.56470588 0.92549020 0.07058824
v -10.67758667 7.62651792 -30.01081935 0.56470588 0.92549020 0.07058824
v -12.43012409 -1.95196462 -24.35660651 0.56470588 0.92549020 0.07058824
v 0.00233720 5.83392060 -29.72683477 0.56470588 0.92549020 0.07058824
v -0.06585999 13.14514206 -30.01081935 0.56470588 0.92549020 0.07058824
v 0.00233720 6.17818323 -24.46676752 0.56470588 0.92549020 0.07058824
v 0.00233720 9.03660077 -24.35660651 0.56470588 0.92549020 0.07058824
v -12.45199855 2.67644697 -24.38428554 0.56470588 0.92549020 0.07058824
v -6.02088255 10.99959123 -24.35660651 0.56470588 0.92549020 0.07058824
v -6.01959614 11.19432482 -24.36491102 0.56470588 0.92549020 0.07058824
v -9.58514671 8.51325312 -24.46787572 0.56470588 0.92549020 0.07058824
v -7.88150585 10.46407136 -30.01081935 0.56470588 0.92549020 0.07058824
v -1.92262255 12.86173455 -30.01081935 0.56470588 0.92549020 0.07058824
v -3.55034602 12.40967408 -24.47673333 0.56470588 0.92549020 0.07058824
v -2.22500623 12.60266849 -24.49167904 0.56470588 0.92549020 0.07058824
v -7.69106828 10.33366925 -24.48226833 0.56470588 0.92549020 0.07058824
v -4.77789371 11.92457728 -24.43798229 0.56470588 0.92549020 0.07058824
v -6.21003322 11.38558106 -24.64557299 0.56470588 0.92549020 0.07058824
v -5.61942036 11.72636634 -30.01081935 0.56470588 0.92549020 0.07058824
v -3.75622400 12.54181437 -30.01081935 0.56470588 0.92549020 0.07058824
f 129 130 131
f 129 131 132
f 129 132 133
f 129 133 142
f 129 142 152
f 129 152 159
f 129 159 160
f 129 160 153
f 129 153 145
f 129 145 135
f 129 135 130
f 130 134 131
f 130 135 136
f 130 136 134
f 131 134 137
f 131 137 138
f 131 138 139
f 131 139 132
f 132 139 140
f 132 140 133
f 133 140 141
f 133 141 142
f 134 136 143
f 134 143 137
f 135 144 136
f 135 145 144
f 136 144 146
f 136 146 147
f 136 147 143
f 137 143 138
f 138 148 139
f 138 143 148
f 139 148 140
f 140 148 141
f 141 148 149
f 141 149 150
f 141 150 151
f 141 151 142
f 142 151 152
f 143 147 149
f 143 149 148
f 144 145 147
f 144 147 146
f 145 153 154
f 145 154 155
f 145 155 147
f 147 155 150
f 147 150 149
f 150 156 151
f 150 155 154
f 150 154 157
f 150 157 158
f 150 158 156
f 151 156 152
f 152 156 158
f 152 158 159
f 153 160 154
f 154 158 157
f 154 160 158
f 158 160 159

o geometry_5
v 17.26104164 57.02953613 33.22885257 0.08627451 0.01960784 0.83137255
v 17.26104164 57.02953613 30.75248027 0.08627451 0.01960784 0.83137255
v 17.20021647 57.02953613 33.40127641 0.08627451 0.01960784 0.83137255
v 16.88932762 27.61028159 33.36863545 0.08627451 0.01960784 0.83137255
v 17.22049153 57.02953613 30.49065170 0.08627451 0.01960784 0.83137255
v 16.88932762 27.61028159 30.75248027 0.08627451 0.01960784 0.83137255
v 17.10221970 57.02953613 33.50841832 0.08627451 0.01960784 0.83137255
v 16.81498641 27.61028159 33.57298940 0.08627451 0.01960784 0.83137255
v 17.10221970 57.02953613 30.23201793 0.08627451 0.01960784 0.83137255
v 16.82174343 27.61028159 30.49491078 0.08627451 0.01960784 0.83137255
v 16.96367082 57.02953613 33.57121629 0.08627451 0.01960784 0.83137255
v 16.61561136 27.61028159 33.64394611 0.08627451 0.01960784 0.83137255
v 16.68657506 27.61028159 30.35831872 0.08627451 0.01960784 0.83137255
v 16.86905256 57.02953613 30.03333876 0.08627451 0.01960784 0.83137255
v 16.66630000 57.02953613 33.63862276 0.08627451 0.01960784 0.83137255
v -16.61561136 57.02953613 33.64394611 0.08627451 0.01960784 0.83137255
v -16.61561136 27.61028159 33.64394611 0.08627451 0.01960784 0.83137255
v 16.61561136 57.02953613 30.01950324 0.08627451 0.01960784 0.83137255
v -16.68319555 27.61028159 30.35725445 0.08627451 0.01960784 0.83137255
v -16.87919009 57.02953613 33.58221442 0.08627451 0.01960784 0.83137255
v -17.08870167 57.02953613 33.52190042 0.08627451 0.01960784 0.83137255
v -16.81836492 27.61028159 33.57157171 0.08627451 0.01960784 0.83137255
v -16.61561136 57.02953613 30.01950324 0.08627451 0.01960784 0.83137255
v -16.81836492 27.61028159 30.48639461 0.08627451 0.01960784 0.83137255
v -17.07180512 57.02953613 30.03404960 0.08627451 0.01960784 0.83137255
v -16.82174343 57.02953613 30.02021208 0.08627451 0.01960784 0.83137255
v -17.20697549 57.02953613 33.36863545 0.08627451 0.01960784 0.83137255
v -16.88932762 27.61028159 33.36863545 0.08627451 0.01960784 0.83137255
v -16.88932762 27.61028159 30.75248027 0.08627451 0.01960784 0.83137255
v -17.22049153 57.02953613 30.40727916 0.08627451 0.01960784 0.83137255
v -17.26104164 57.02953613 33.10680687 0.08627451 0.01960784 0.83137255
v -17.26104164 57.02953613 30.63079000 0.08627451 0.01960784 0.83137255
f 161 162 165
f 161 165 169
f 161 169 174
f 161 174 178
f 161 178 183
f 161 183 186
f 161 186 185
f 161 185 190
f 161 190 192
f 161 192 191
f 161 191 187
f 161 187 181
f 161 181 180
f 161 180 176
f 161 176 175
f 161 175 171
f 161 171 167
f 161 167 163
f 161 163 164
f 161 164 166
f 161 166 162
f 162 166 165
f 163 167 168
f 163 168 164
f 164 168 172
f 164 172 177
f 164 177 182
f 164 182 188
f 164 188 189
f 164 189 184
f 164 184 179
f 164 179 173
f 164 173 170
f 164 170 166
f 165 166 170
f 165 170 169
f 167 171 168
f 168 171 172
f 169 170 173
f 169 173 174
f 171 175 172
f 172 175 176
f 172 176 177
f 173 178 174
f 173 179 178
f 176 180 177
f 177 180 181
f 177 181 182
f 178 179 183
f 179 184 185
f 179 185 186
f 179 186 183
f 181 187 182
f 182 187 188
f 184 189 190
f 184 190 185
f 187 191 188
f 188 191 192
f 188 192 189
f 189 192 190

o geometry_6
v 17.26104164 57.02953613 -30.63079000 0.77647059 0.86666667 0.97647059
v 17.26104164 57.02953613 -33.10680687 0.77647059 0.86666667 0.97647059
v 17.22049153 57.02953613 -30.40727916 0.77647059 0.86666667 0.97647059
v 16.88932762 27.61028159 -30.75248027 0.77647059 0.86666667 0.97647059
v 16.88932762 27.61028159 -33.36863545 0.77647059 0.86666667 0.97647059
v 17.20697549 57.02953613 -33.36863545 0.77647059 0.86666667 0.97647059
v 17.07180512 57.02953613 -30.03404960 0.77647059 0.86666667 0.97647059
v 16.81836492 27.61028159 -30.48639461 0.77647059 0.86666667 0.97647059
v 16.81836492 27.61028159 -33.57157171 0.77647059 0.86666667 0.97647059
v 17.08870167 57.02953613 -33.52190042 0.77647059 0.86666667 0.97647059
v 16.82174343 57.02953613 -30.02021208 0.77647059 0.86666667 0.97647059
v 16.68319555 27.61028159 -30.35725445 0.77647059 0.86666667 0.97647059
v 16.61561136 27.61028159 -33.64394611 0.77647059 0.86666667 0.97647059
v 16.87919009 57.02953613 -33.58221442 0.77647059 0.86666667 0.97647059
v 16.61561136 57.02953613 -30.01950324 0.77647059 0.86666667 0.97647059
v -16.61561136 57.02953613 -30.01950324 0.77647059 0.86666667 0.97647059
v -16.68657506 27.61028159 -30.35831872 0.77647059 0.86666667 0.97647059
v 16.61561136 57.02953613 -33.64394611 0.77647059 0.86666667 0.97647059
v -16.61561136 27.61028159 -33.64394611 0.77647059 0.86666667 0.97647059
v -16.86905256 57.02953613 -30.03333876 0.77647059 0.86666667 0.97647059
v -17.10221970 57.02953613 -30.23201793 0.77647059 0.86666667 0.97647059
v -16.82174343 27.61028159 -30.49491078 0.77647059 0.86666667 0.97647059
v -16.66630000 57.02953613 -33.63862276 0.77647059 0.86666667 0.97647059
v -16.81498641 27.61028159 -33.57298940 0.77647059 0.86666667 0.97647059
v -16.96367082 57.02953613 -33.57121629 0.77647059 0.86666667 0.97647059
v -17.22049153 57.02953613 -30.49065170 0.77647059 0.86666667 0.97647059
v -16.88932762 27.61028159 -30.75248027 0.77647059 0.86666667 0.97647059
v -16.88932762 27.61028159 -33.36863545 0.77647059 0.86666667 0.97647059
v -17.20021647 57.02953613 -33.40127641 0.77647059 0.86666667 0.97647059
v -17.10221970 57.02953613 -33.50841832 0.77647059 0.86666667 0.97647059
v -17.26104164 57.02953613 -30.75248027 0.77647059 0.86666667 0.97647059
v -17.26104164 57.02953613 -33.22885257 0.77647059 0.86666667 0.97647059
f 193 194 198
f 193 198 202
f 193 202 206
f 193 206 210
f 193 210 215
f 193 215 217
f 193 217 222
f 193 222 221
f 193 221 224
f 193 224 223
f 193 223 218
f 193 218 213
f 193 213 212
f 193 212 208
f 193 208 207
f 193 207 203
f 193 203 199
f 193 199 195
f 193 195 196
f 193 196 197
f 193 197 194
f 194 197 198
f 195 199 200
f 195 200 196
f 196 200 204
f 196 204 209
f 196 209 214
f 196 214 219
f 196 219 220
f 196 220 216
f 196 216 211
f 196 211 205
f 196 205 201
f 196 201 197
f 197 201 198
f 198 201 202
f 199 203 204
f 199 204 200
f 201 205 202
f 202 205 206
f 203 207 204
f 204 207 208
f 204 208 209
f 205 210 206
f 205 211 210
f 208 212 209
f 209 212 213
f 209 213 214
f 210 211 215
f 211 216 217
f 211 217 215
f 213 218 214
f 214 218 219
f 216 220 221
f 216 221 222
f 216 222 217
f 218 223 219
f 219 223 224
f 219 224 220
f 220 224 221

o geometry_7
v 0.00129390 5.84021437 30.01605284 0.79607843 0.45882353 0.78039216
v 6.22953403 -4.61396331 30.01605284 0.79607843 0.45882353 0.78039216
v 6.04509122 -4.58555347 33.10700655 0.79607843 0.45882353 0.78039216
v 0.00129390 5.84337124 33.20573014 0.79607843 0.45882353 0.78039216
v 0.00129390 27.60712472 30.35661149 0.79607843 0.45882353 0.78039216
v 0.19232401 13.13162503 30.01605284 0.79607843 0.45882353 0.78039216
v 12.08065492 -4.55083388 30.01605284 0.79607843 0.45882353 0.78039216
v 12.03783749 -4.59502408 33.10700655 0.79607843 0.45882353 0.78039216
v 6.41397734 -4.63921428 33.23804563 0.79607843 0.45882353 0.78039216
v 6.10273007 -4.42773190 33.55410010 0.79607843 0.45882353 0.78039216
v 0.00129390 6.01066342 33.57363236 0.79607843 0.45882353 0.78039216
v 0.00129390 27.60712472 33.64394611 0.79607843 0.45882353 0.78039216
v 16.82511795 27.60712472 30.58850470 0.79607843 0.45882353 0.78039216
v 7.43829349 10.80847377 30.01605284 0.79607843 0.45882353 0.78039216
v 6.39915592 11.33560227 30.01605284 0.79607843 0.45882353 0.78039216
v 4.84127223 12.12155922 30.01605284 0.79607843 0.45882353 0.78039216
v 4.19078167 12.43720435 30.01605284 0.79607843 0.45882353 0.78039216
v 3.50076783 12.61080927 30.01605284 0.79607843 0.45882353 0.78039216
v 1.87042487 12.86963871 30.01605284 0.79607843 0.45882353 0.78039216
v 12.50882521 -3.93216911 30.01605284 0.79607843 0.45882353 0.78039216
v 16.82182330 0.03865096 30.60519558 0.79607843 0.45882353 0.78039216
v 12.04607111 -4.42457503 33.53776664 0.79607843 0.45882353 0.78039216
v 16.72466217 0.09230977 33.55410010 0.79607843 0.45882353 0.78039216
v 16.80535606 27.60712472 33.48875827 0.79607843 0.45882353 0.78039216
v 10.79778837 7.45000672 30.01605284 0.79607843 0.45882353 0.78039216
v 10.55900136 7.81299892 30.01605284 0.79607843 0.45882353 0.78039216
v 10.24116679 8.16020876 30.01605284 0.79607843 0.45882353 0.78039216
v 8.15136287 10.25293842 30.01605284 0.79607843 0.45882353 0.78039216
v 7.80553229 10.57174042 30.01605284 0.79607843 0.45882353 0.78039216
v 13.13626073 0.06390393 30.01605284 0.79607843 0.45882353 0.78039216
v 12.58293180 3.70329452 30.01605284 0.79607843 0.45882353 0.78039216
v 12.42154503 4.23673576 30.01605284 0.79607843 0.45882353 0.78039216
f 225 226 227
f 225 227 228
f 225 228 235
f 225 235 236
f 225 236 229
f 225 229 230
f 225 230 243
f 225 243 242
f 225 242 241
f 225 241 240
f 225 240 239
f 225 239 238
f 225 238 253
f 225 253 252
f 225 252 251
f 225 251 250
f 225 250 249
f 225 249 256
f 225 256 255
f 225 255 254
f 225 254 244
f 225 244 231
f 225 231 226
f 226 231 232
f 226 232 233
f 226 233 227
f 227 233 234
f 227 234 235
f 227 235 228
f 229 236 248
f 229 248 237
f 229 237 238
f 229 238 239
f 229 239 240
f 229 240 241
f 229 241 242
f 229 242 243
f 229 243 230
f 231 244 245
f 231 245 232
f 232 246 233
f 232 245 247
f 232 247 246
f 233 246 234
f 234 246 247
f 234 247 236
f 234 236 235
f 236 247 248
f 237 249 250
f 237 250 251
f 237 251 252
f 237 252 253
f 237 253 238
f 237 248 245
f 237 245 254
f 237 254 255
f 237 255 256
f 237 256 249
f 244 254 245
f 245 248 247

o geometry_8
v -0.00271159 5.84017643 -30.01192755 0.11764706 0.63921569 0.14117647
v -0.00271159 5.94751203 -33.45624909 0.11764706 0.63921569 0.14117647
v 6.16575566 -4.52082863 -33.36311042 0.11764706 0.63921569 0.14117647
v 6.22999328 -4.61237788 -30.01192755 0.11764706 0.63921569 0.14117647
v 0.19494275 13.12949948 -30.01192755 0.11764706 0.63921569 0.14117647
v -0.00271159 27.60712472 -30.35639584 0.11764706 0.63921569 0.14117647
v 12.04597627 -4.42612052 -33.53765482 0.11764706 0.63921569 0.14117647
v -0.00271159 27.60712472 -33.64359069 0.11764706 0.63921569 0.14117647
v 12.03774065 -4.59343666 -33.10680488 0.11764706 0.63921569 0.14117647
v 11.90597075 -4.64394858 -30.01192755 0.11764706 0.63921569 0.14117647
v 1.48793235 12.93061364 -30.01192755 0.11764706 0.63921569 0.14117647
v 3.05928566 12.68121687 -30.01192755 0.11764706 0.63921569 0.14117647
v 3.57977595 12.59598036 -30.01192755 0.11764706 0.63921569 0.14117647
v 4.14803263 12.44760445 -30.01192755 0.11764706 0.63921569 0.14117647
v 4.84311773 12.12244278 -30.01192755 0.11764706 0.63921569 0.14117647
v 6.39964662 11.33637002 -30.01192755 0.11764706 0.63921569 0.14117647
v 7.39780179 10.82494900 -30.01192755 0.11764706 0.63921569 0.14117647
v 16.82427332 27.60712472 -30.58817324 0.11764706 0.63921569 0.14117647
v 16.72544590 0.09142721 -33.55400825 0.11764706 0.63921569 0.14117647
v 16.80615476 27.60712472 -33.48788768 0.11764706 0.63921569 0.14117647
v 12.30951506 -4.39139494 -30.01192755 0.11764706 0.63921569 0.14117647
v 16.82097867 0.04091728 -30.60488009 0.11764706 0.63921569 0.14117647
v 7.93311599 10.45874602 -30.01192755 0.11764706 0.63921569 0.14117647
v 9.86848234 8.52987012 -30.01192755 0.11764706 0.63921569 0.14117647
v 10.64592412 7.68065995 -30.01192755 0.11764706 0.63921569 0.14117647
v 12.31775168 4.47638637 -30.01192755 0.11764706 0.63921569 0.14117647
v 12.52034649 3.96181047 -30.01192755 0.11764706 0.63921569 0.14117647
v 12.64058712 3.33042637 -30.01192755 0.11764706 0.63921569 0.14117647
v 13.13472323 -0.00959265 -30.01192755 0.11764706 0.63921569 0.14117647
v 8.35642568 10.04518998 -30.01192755 0.11764706 0.63921569 0.14117647
v 9.30187298 9.09811482 -30.01192755 0.11764706 0.63921569 0.14117647
v 12.51705284 -3.89260340 -30.01192755 0.11764706 0.63921569 0.14117647
f 257 258 259
f 257 259 260
f 257 260 266
f 257 266 277
f 257 277 288
f 257 288 285
f 257 285 284
f 257 284 283
f 257 283 282
f 257 282 281
f 257 281 280
f 257 280 287
f 257 287 286
f 257 286 279
f 257 279 273
f 257 273 272
f 257 272 271
f 257 271 270
f 257 270 269
f 257 269 268
f 257 268 267
f 257 267 261
f 257 261 262
f 257 262 264
f 257 264 258
f 258 263 259
f 258 264 263
f 259 263 265
f 259 265 260
f 260 265 266
f 261 267 262
f 262 267 268
f 262 268 269
f 262 269 270
f 262 270 271
f 262 271 272
f 262 272 273
f 262 273 274
f 262 274 276
f 262 276 264
f 263 264 275
f 263 275 265
f 264 276 275
f 265 277 266
f 265 275 278
f 265 278 277
f 273 279 274
f 274 280 281
f 274 281 282
f 274 282 283
f 274 283 284
f 274 284 285
f 274 285 278
f 274 278 276
f 274 279 286
f 274 286 287
f 274 287 280
f 275 276 278
f 277 278 288
f 278 285 288

o geometry_9
v -16.82450294 27.60712472 -30.58852866 0.94117647 0.52156863 0.41176471
v -0.00271159 27.60712472 -30.35639584 0.94117647 0.52156863 0.41176471
v -16.80474305 27.60712472 -33.48859853 0.94117647 0.52156863 0.41176471
v -16.82121029 0.04091728 -30.60488009 0.94117647 0.52156863 0.41176471
v -13.13444468 0.06301737 -30.01192755 0.94117647 0.52156863 0.41176471
v -12.59435624 3.61139184 -30.01192755 0.94117647 0.52156863 0.41176471
v -12.41981484 4.23646221 -30.01192755 0.94117647 0.52156863 0.41176471
v -10.65793960 7.66171673 -30.01192755 0.94117647 0.52156863 0.41176471
v -10.23970017 8.15735340 -30.01192755 0.94117647 0.52156863 0.41176471
v -8.41031362 9.99152318 -30.01192755 0.94117647 0.52156863 0.41176471
v -7.65287234 10.66710347 -30.01192755 0.94117647 0.52156863 0.41176471
v -6.39815355 11.33637002 -30.01192755 0.94117647 0.52156863 0.41176471
v -0.00271159 27.60712472 -33.64359069 0.94117647 0.52156863 0.41176471
v -4.84210537 12.12244278 -30.01192755 0.94117647 0.52156863 0.41176471
v -4.19004636 12.43813384 -30.01192755 0.94117647 0.52156863 0.41176471
v -3.39967259 12.62754907 -30.01192755 0.94117647 0.52156863 0.41176471
v -1.92266149 12.86116149 -30.01192755 0.94117647 0.52156863 0.41176471
v -0.19042509 13.12949948 -30.01192755 0.94117647 0.52156863 0.41176471
v -0.00271159 5.84017643 -30.01192755 0.94117647 0.52156863 0.41176471
v -16.72406015 0.09142721 -33.55400825 0.94117647 0.52156863 0.41176471
v -12.03780055 -4.59343666 -33.10680488 0.94117647 0.52156863 0.41176471
v -12.25350706 -4.46084809 -30.01192755 0.94117647 0.52156863 0.41176471
v -12.51202601 -3.92101324 -30.01192755 0.94117647 0.52156863 0.41176471
v -0.00271159 6.05168876 -33.60732961 0.94117647 0.52156863 0.41176471
v -6.04577860 -4.58396804 -30.01192755 0.94117647 0.52156863 0.41176471
v -0.00271159 5.84017643 -33.30481115 0.94117647 0.52156863 0.41176471
v -6.10340996 -4.42927939 -33.55400825 0.94117647 0.52156863 0.41176471
v -12.04603417 -4.42612052 -33.53765482 0.94117647 0.52156863 0.41176471
v -6.41461980 -4.63763484 -33.23797974 0.94117647 0.52156863 0.41176471
v -11.90607259 -4.64394858 -30.01192755 0.94117647 0.52156863 0.41176471
v -6.41461980 -4.64394858 -30.01192755 0.94117647 0.52156863 0.41176471
v -6.04577860 -4.58396804 -33.10680488 0.94117647 0.52156863 0.41176471
f 289 290 301
f 289 301 291
f 289 291 292
f 289 292 293
f 289 293 294
f 289 294 295
f 289 295 296
f 289 296 297
f 289 297 298
f 289 298 299
f 289 299 300
f 289 300 290
f 290 300 302
f 290 302 303
f 290 303 304
f 290 304 305
f 290 305 306
f 290 306 307
f 290 307 314
f 290 314 312
f 290 312 301
f 291 301 308
f 291 308 292
f 292 308 309
f 292 309 310
f 292 310 311
f 292 311 293
f 293 311 310
f 293 310 318
f 293 318 319
f 293 319 313
f 293 313 307
f 293 307 306
f 293 306 305
f 293 305 304
f 293 304 303
f 293 303 302
f 293 302 300
f 293 300 299
f 293 299 298
f 293 298 297
f 293 297 296
f 293 296 295
f 293 295 294
f 301 312 308
f 307 313 320
f 307 320 314
f 308 315 316
f 308 316 309
f 308 312 315
f 309 317 318
f 309 318 310
f 309 316 317
f 312 314 315
f 313 319 320
f 314 320 315
f 315 320 317
f 315 317 316
f 317 320 319
f 317 319 318

o geometry_10
v -16.82396981 27.60712472 30.58814928 0.26274510 0.77254902 0.45490196
v -16.73668164 27.60712472 33.55694348 0.26274510 0.77254902 0.45490196
v 0.00129390 27.60712472 30.35661149 0.26274510 0.77254902 0.45490196
v -7.37375785 10.84073335 30.01605284 0.26274510 0.77254902 0.45490196
v -7.93536883 10.46190289 30.01605284 0.26274510 0.77254902 0.45490196
v -10.13404983 8.26784587 30.01605284 0.26274510 0.77254902 0.45490196
v -10.52273029 7.86376044 30.01605284 0.26274510 0.77254902 0.45490196
v -10.74506903 7.55438113 30.01605284 0.26274510 0.77254902 0.45490196
v -12.31790842 4.47954524 30.01605284 0.26274510 0.77254902 0.45490196
v -12.47436920 4.12281287 30.01605284 0.26274510 0.77254902 0.45490196
v -12.61271241 3.51668373 30.01605284 0.26274510 0.77254902 0.45490196
v -13.13644344 -0.00959265 30.01605284 0.26274510 0.77254902 0.45490196
v -16.82232249 0.04091728 30.60519558 0.26274510 0.77254902 0.45490196
v 0.00129390 27.60712472 33.64394611 0.26274510 0.77254902 0.45490196
v -16.72515237 0.09142721 33.55410010 0.26274510 0.77254902 0.45490196
v 0.00129390 5.84017643 30.01605284 0.26274510 0.77254902 0.45490196
v -0.07776015 13.14528383 30.01605284 0.26274510 0.77254902 0.45490196
v -1.75929843 12.88957332 30.01605284 0.26274510 0.77254902 0.45490196
v -3.06368452 12.68121687 30.01605284 0.26274510 0.77254902 0.45490196
v -3.80481280 12.54862630 30.01605284 0.26274510 0.77254902 0.45490196
v -4.48500410 12.30554327 30.01605284 0.26274510 0.77254902 0.45490196
v -12.52048327 -3.87681705 30.01605284 0.26274510 0.77254902 0.45490196
v -12.25367779 -4.46084809 30.01605284 0.26274510 0.77254902 0.45490196
v -12.03792635 -4.59343666 33.10700655 0.26274510 0.77254902 0.45490196
v -6.10231075 -4.42927939 33.55410010 0.26274510 0.77254902 0.45490196
v 0.00129390 6.01064944 33.57363236 0.26274510 0.77254902 0.45490196
v -12.04616097 -4.42612052 33.53776664 0.26274510 0.77254902 0.45490196
v -6.04631473 -4.58396804 33.10700655 0.26274510 0.77254902 0.45490196
v -6.22912669 -4.61237788 30.01605284 0.26274510 0.77254902 0.45490196
v 0.00129390 5.84333330 33.20573014 0.26274510 0.77254902 0.45490196
v -11.90617043 -4.64394858 30.01605284 0.26274510 0.77254902 0.45490196
v -6.41358498 -4.63763484 33.23804563 0.26274510 0.77254902 0.45490196
f 321 322 334
f 321 334 323
f 321 323 324
f 321 324 325
f 321 325 326
f 321 326 327
f 321 327 328
f 321 328 329
f 321 329 330
f 321 330 331
f 321 331 332
f 321 332 333
f 321 333 322
f 322 333 335
f 322 335 334
f 323 336 337
f 323 337 338
f 323 338 339
f 323 339 340
f 323 340 341
f 323 341 324
f 323 334 346
f 323 346 350
f 323 350 336
f 324 341 340
f 324 340 339
f 324 339 338
f 324 338 337
f 324 337 336
f 324 336 349
f 324 349 351
f 324 351 343
f 324 343 342
f 324 342 332
f 324 332 331
f 324 331 330
f 324 330 329
f 324 329 328
f 324 328 327
f 324 327 326
f 324 326 325
f 332 342 333
f 333 342 343
f 333 343 344
f 333 344 335
f 334 335 345
f 334 345 346
f 335 344 347
f 335 347 345
f 336 348 349
f 336 350 348
f 343 351 344
f 344 351 352
f 344 352 347
f 345 347 352
f 345 352 348
f 345 348 346
f 346 348 350
f 348 352 349
f 349 352 351

