# https://github.com/mikedh/trimesh

o geometry_0
v 16.92393154 56.87531009 33.19674255 0.54509804 0.71372549 0.60000000
v 16.71851154 56.87531009 33.72388603 0.54509804 0.71372549 0.60000000
v 16.74833056 56.87531009 -33.55559593 0.54509804 0.71372549 0.60000000
v 16.79471623 59.95106444 -33.45016724 0.54509804 0.71372549 0.60000000
v 16.79471623 59.95106444 48.95422162 0.54509804 0.71372549 0.60000000
v 16.88086018 57.56013684 48.95422162 0.54509804 0.71372549 0.60000000
v 16.64893426 57.16428749 49.02721280 0.54509804 0.71372549 0.60000000
v 16.27122760 56.87531009 33.80498351 0.54509804 0.71372549 0.60000000
v -16.81790907 56.87531009 -33.47449845 0.54509804 0.71372549 0.60000000
v -16.27122760 57.56013684 -33.67724216 0.54509804 0.71372549 0.60000000
v 16.27122760 57.56013684 -33.67724216 0.54509804 0.71372549 0.60000000
v 16.43357500 59.81513321 -33.66913831 0.54509804 0.71372549 0.60000000
v 16.43357500 60.17352931 -33.00412616 0.54509804 0.71372549 0.60000000
v 16.27122760 60.12186974 -33.45827846 0.54509804 0.71372549 0.60000000
v 16.43357500 60.17352931 48.50817809 0.54509804 0.71372549 0.60000000
v 16.27122760 60.12186974 48.95422162 0.54509804 0.71372549 0.60000000
v 16.43357500 59.81513321 49.17319024 0.54509804 0.71372549 0.60000000
v 16.43357500 57.56013684 49.17319024 0.54509804 0.71372549 0.60000000
v -16.64893426 57.16428749 49.02721280 0.54509804 0.71372549 0.60000000
v -16.27122760 56.87531009 33.80498351 0.54509804 0.71372549 0.60000000
v -16.92393154 56.87531009 33.19674255 0.54509804 0.71372549 0.60000000
v -16.79471623 59.95106444 -33.45016724 0.54509804 0.71372549 0.60000000
v -16.43357500 59.81513321 -33.66913831 0.54509804 0.71372549 0.60000000
v -16.43357500 60.17352931 -33.00412616 0.54509804 0.71372549 0.60000000
v -16.27122760 60.12186974 -33.45827846 0.54509804 0.71372549 0.60000000
v -16.43357500 60.17352931 48.50817809 0.54509804 0.71372549 0.60000000
v -16.27122760 60.12186974 48.95422162 0.54509804 0.71372549 0.60000000
v -16.43357500 59.81513321 49.17319024 0.54509804 0.71372549 0.60000000
v -16.43357500 57.56013684 49.17319024 0.54509804 0.71372549 0.60000000
v -16.88086018 57.56013684 48.95422162 0.54509804 0.71372549 0.60000000
v -16.70857228 56.87531009 33.71577480 0.54509804 0.71372549 0.60000000
v -16.79471623 59.95106444 48.95422162 0.54509804 0.71372549 0.60000000
f 1 2 8
f 1 8 20
f 1 20 31
f 1 31 21
f 1 21 9
f 1 9 3
f 1 3 4
f 1 4 5
f 1 5 6
f 1 6 7
f 1 7 2
f 2 7 8
f 3 9 10
f 3 10 11
f 3 11 12
f 3 12 4
f 4 13 15
f 4 15 5
f 4 12 14
f 4 14 13
f 5 15 16
f 5 16 17
f 5 17 6
f 6 17 18
f 6 18 7
f 7 19 20
f 7 20 8
f 7 18 29
f 7 29 19
f 9 21 22
f 9 22 23
f 9 23 10
f 10 23 12
f 10 12 11
f 12 23 25
f 12 25 14
f 13 14 25
f 13 25 24
f 13 24 26
f 13 26 15
f 15 26 27
f 15 27 16
f 16 27 28
f 16 28 17
f 17 28 29
f 17 29 18
f 19 29 30
f 19 30 21
f 19 21 31
f 19 31 20
f 21 30 32
f 21 32 22
f 22 32 26
f 22 26 24
f 22 24 25
f 22 25 23
f 26 32 27
f 27 32 28
f 28 32 30
f 28 30 29

o geometry_1
v 0.03318250 5.79639293 -30.15286757 0.54117647 0.42352941 0.64313725
v 6.10076191 -4.56889763 -30.15286757 0.54117647 0.42352941 0.64313725
v 6.15521640 -4.52669173 -24.70857447 0.54117647 0.42352941 0.64313725
v 0.03318250 5.93355596 -24.68289098 0.54117647 0.42352941 0.64313725
v 0.17674550 16.56472944 -24.42149027 0.54117647 0.42352941 0.64313725
v 0.57608005 16.98676877 -30.15286757 0.54117647 0.42352941 0.64313725
v 15.99337332 -4.54568267 -30.15286757 0.54117647 0.42352941 0.64313725
v 16.52637094 -1.74123265 -24.67090486 0.54117647 0.42352941 0.64313725
v 16.27389897 1.97060488 -24.32560621 0.54117647 0.42352941 0.64313725
v 1.85494144 16.30728476 -24.32960159 0.54117647 0.42352941 0.64313725
v 2.79387334 16.39591321 -24.42605606 0.54117647 0.42352941 0.64313725
v 3.10905118 16.62592504 -30.15286757 0.54117647 0.42352941 0.64313725
v 16.64683208 -1.77499540 -30.15286757 0.54117647 0.42352941 0.64313725
v 16.82339687 0.23813456 -24.62752862 0.54117647 0.42352941 0.64313725
v 16.39105931 2.29346551 -24.37354824 0.54117647 0.42352941 0.64313725
v 16.00327447 4.21585500 -24.37069616 0.54117647 0.42352941 0.64313725
v 15.30526422 5.99897191 -24.32560621 0.54117647 0.42352941 0.64313725
v 11.76075540 11.15207355 -24.32275167 0.54117647 0.42352941 0.64313725
v 8.17499282 14.40810777 -24.39980215 0.54117647 0.42352941 0.64313725
v 5.36809824 16.18278399 -30.15286757 0.54117647 0.42352941 0.64313725
v 16.89105269 -0.01931012 -30.15286757 0.54117647 0.42352941 0.64313725
v 16.58742517 3.31691064 -30.15286757 0.54117647 0.42352941 0.64313725
v 16.48511656 2.45384105 -24.41977902 0.54117647 0.42352941 0.64313725
v 15.84486097 6.05805673 -30.15286757 0.54117647 0.42352941 0.64313725
v 14.86467652 7.47822035 -24.41635406 0.54117647 0.42352941 0.64313725
v 13.91749263 8.69791456 -24.35756674 0.54117647 0.42352941 0.64313725
v 12.71288864 10.81444234 -24.41578364 0.54117647 0.42352941 0.64313725
v 10.79542145 12.58067787 -24.39580677 0.54117647 0.42352941 0.64313725
v 10.01655344 13.74761716 -30.15286757 0.54117647 0.42352941 0.64313725
v 13.55116110 10.20670541 -30.15286757 0.54117647 0.42352941 0.64313725
v 12.12708693 11.51713762 -24.63837145 0.54117647 0.42352941 0.64313725
v 12.05613032 11.76192127 -30.15286757 0.54117647 0.42352941 0.64313725
f 33 34 35
f 33 35 36
f 33 36 37
f 33 37 38
f 33 38 44
f 33 44 52
f 33 52 61
f 33 61 64
f 33 64 62
f 33 62 56
f 33 56 54
f 33 54 53
f 33 53 45
f 33 45 39
f 33 39 34
f 34 39 35
f 35 39 40
f 35 40 41
f 35 41 42
f 35 42 36
f 36 42 37
f 37 42 43
f 37 43 38
f 38 43 44
f 39 45 40
f 40 46 41
f 40 45 46
f 41 46 47
f 41 47 48
f 41 48 49
f 41 49 50
f 41 50 42
f 42 50 51
f 42 51 43
f 43 51 52
f 43 52 44
f 45 53 46
f 46 53 54
f 46 54 55
f 46 55 47
f 47 55 48
f 48 55 56
f 48 56 57
f 48 57 49
f 49 57 58
f 49 58 50
f 50 58 59
f 50 59 60
f 50 60 51
f 51 61 52
f 51 60 61
f 54 56 55
f 56 62 57
f 57 62 59
f 57 59 58
f 59 62 63
f 59 63 60
f 60 63 61
f 61 63 64
f 62 64 63

o geometry_2
v 0.00262219 5.79647899 30.15456410 0.43529412 0.89019608 0.96078431
v 0.00262219 6.11170784 24.40152941 0.43529412 0.89019608 0.96078431
v 6.17128517 -4.52360362 24.70522208 0.43529412 0.89019608 0.96078431
v 6.13167934 -4.62303802 30.15456410 0.43529412 0.89019608 0.96078431
v 0.58186289 16.98820341 30.15456410 0.43529412 0.89019608 0.96078431
v 16.27251226 1.89101212 24.32731872 0.43529412 0.89019608 0.96078431
v 16.29231580 -2.49259159 24.44263013 0.43529412 0.89019608 0.96078431
v 1.15780279 16.57565463 24.46032656 0.43529412 0.89019608 0.96078431
v 7.57565416 14.37538996 24.32275170 0.43529412 0.89019608 0.96078431
v 16.13884181 -3.98834646 30.15456410 0.43529412 0.89019608 0.96078431
v 3.38565029 16.56930752 30.15456410 0.43529412 0.89019608 0.96078431
v 3.40215303 16.24349892 24.43349609 0.43529412 0.89019608 0.96078431
v 16.51179951 2.13219255 24.42379163 0.43529412 0.89019608 0.96078431
v 16.77254006 0.17522894 24.48943993 0.43529412 0.89019608 0.96078431
v 14.50013615 7.60534946 24.33074368 0.43529412 0.89019608 0.96078431
v 15.61736070 5.47067039 24.39068289 0.43529412 0.89019608 0.96078431
v 16.86165411 -0.31559967 30.15456410 0.43529412 0.89019608 0.96078431
v 10.11870163 13.13351098 24.44263013 0.43529412 0.89019608 0.96078431
v 11.89272813 11.56582341 24.43178484 0.43529412 0.89019608 0.96078431
v 7.41392942 14.71600849 24.36841944 0.43529412 0.89019608 0.96078431
v 5.73396692 15.99808462 30.15456410 0.43529412 0.89019608 0.96078431
v 7.54264930 14.92334135 24.66925757 0.43529412 0.89019608 0.96078431
v 7.49974268 14.90006860 24.46032656 0.43529412 0.89019608 0.96078431
v 16.48539562 2.45376974 24.44263013 0.43529412 0.89019608 0.96078431
v 16.46064151 2.77746387 24.46888895 0.43529412 0.89019608 0.96078431
v 16.57120887 3.36349547 30.15456410 0.43529412 0.89019608 0.96078431
v 13.56938984 9.69983138 24.45404706 0.43529412 0.89019608 0.96078431
v 14.77242764 7.60534946 24.42322122 0.43529412 0.89019608 0.96078431
v 14.87144284 7.54187956 24.45690160 0.43529412 0.89019608 0.96078431
v 16.07613165 5.58068454 30.15456410 0.43529412 0.89019608 0.96078431
v 9.58401795 13.97976682 30.15456410 0.43529412 0.89019608 0.96078431
v 13.91429387 9.74002853 30.15456410 0.43529412 0.89019608 0.96078431
f 65 66 67
f 65 67 68
f 65 68 74
f 65 74 81
f 65 81 90
f 65 90 94
f 65 94 96
f 65 96 95
f 65 95 85
f 65 85 75
f 65 75 69
f 65 69 66
f 66 70 71
f 66 71 67
f 66 69 72
f 66 72 73
f 66 73 70
f 67 71 74
f 67 74 68
f 69 75 76
f 69 76 72
f 70 77 78
f 70 78 71
f 70 73 79
f 70 79 80
f 70 80 77
f 71 78 81
f 71 81 74
f 72 76 73
f 73 82 83
f 73 83 79
f 73 76 84
f 73 84 82
f 75 85 76
f 76 85 86
f 76 86 87
f 76 87 84
f 77 80 88
f 77 88 78
f 78 88 89
f 78 89 90
f 78 90 81
f 79 83 91
f 79 91 92
f 79 92 80
f 80 93 94
f 80 94 89
f 80 89 88
f 80 92 93
f 82 84 87
f 82 87 86
f 82 86 95
f 82 95 83
f 83 95 96
f 83 96 91
f 85 95 86
f 89 94 90
f 91 96 93
f 91 93 92
f 93 96 94

o geometry_3
v -16.86579578 -0.29245846 -30.15343799 0.38039216 0.78823529 0.52549020
v -16.79301236 -0.38766146 -24.79975259 0.38039216 0.78823529 0.52549020
v -16.57466210 3.42042647 -30.15343799 0.38039216 0.78823529 0.52549020
v -16.50022522 -2.70213112 -30.15343799 0.38039216 0.78823529 0.52549020
v -16.47706680 -2.84387715 -24.79918218 0.38039216 0.78823529 0.52549020
v -16.32653710 2.29915738 -24.35927062 0.38039216 0.78823529 0.52549020
v -16.47375740 -2.60058224 -24.43230359 0.38039216 0.78823529 0.52549020
v -16.06848635 5.57411246 -30.15343799 0.38039216 0.78823529 0.52549020
v -16.11645788 -4.13651213 -30.15343799 0.38039216 0.78823529 0.52549020
v -15.91961134 -4.16190058 -24.52302440 0.38039216 0.78823529 0.52549020
v -16.27360269 -1.89608596 -24.32446538 0.38039216 0.78823529 0.52549020
v -7.89689820 14.37502731 -24.33131284 0.38039216 0.78823529 0.52549020
v -14.12980188 8.67981981 -24.38380590 0.38039216 0.78823529 0.52549020
v -15.39689474 6.12417094 -24.38779882 0.38039216 0.78823529 0.52549020
v -16.27360269 -2.38055885 -24.33873071 0.38039216 0.78823529 0.52549020
v -13.73611003 10.00841931 -30.15343799 0.38039216 0.78823529 0.52549020
v -6.14182575 -4.62944783 -30.15343799 0.38039216 0.78823529 0.52549020
v -6.17325520 -4.55963328 -24.70846137 0.38039216 0.78823529 0.52549020
v -0.14215970 16.56890921 -24.42317447 0.38039216 0.78823529 0.52549020
v -2.08911521 16.38485156 -24.37410390 0.38039216 0.78823529 0.52549020
v -6.74725151 15.24453990 -24.49620745 0.38039216 0.78823529 0.52549020
v -9.29963216 13.85458868 -24.43629897 0.38039216 0.78823529 0.52549020
v -11.42358396 12.10286804 -24.41575660 0.38039216 0.78823529 0.52549020
v -13.15218922 10.19670837 -24.44086230 0.38039216 0.78823529 0.52549020
v -12.12660503 11.51684627 -24.63828048 0.38039216 0.78823529 0.52549020
v -11.08613346 12.73331836 -30.15343799 0.38039216 0.78823529 0.52549020
v 0.03318250 5.79625033 -30.15343799 0.38039216 0.78823529 0.52549020
v 0.03318250 5.93376495 -24.68278526 0.38039216 0.78823529 0.52549020
v -0.59705576 16.98356755 -30.15343799 0.38039216 0.78823529 0.52549020
v -3.06341970 16.62814647 -30.15343799 0.38039216 0.78823529 0.52549020
v -5.86227190 15.92788160 -30.15343799 0.38039216 0.78823529 0.52549020
v -10.01588713 13.74457698 -30.15343799 0.38039216 0.78823529 0.52549020
f 97 98 99
f 97 99 104
f 97 104 112
f 97 112 122
f 97 122 128
f 97 128 127
f 97 127 126
f 97 126 125
f 97 125 123
f 97 123 113
f 97 113 105
f 97 105 100
f 97 100 101
f 97 101 98
f 98 102 99
f 98 101 103
f 98 103 102
f 99 102 104
f 100 105 101
f 101 105 106
f 101 106 103
f 102 103 107
f 102 107 108
f 102 108 109
f 102 109 110
f 102 110 104
f 103 106 111
f 103 111 107
f 104 110 109
f 104 109 112
f 105 113 106
f 106 113 114
f 106 114 111
f 107 111 114
f 107 114 115
f 107 115 116
f 107 116 108
f 108 116 117
f 108 117 118
f 108 118 119
f 108 119 109
f 109 119 120
f 109 120 112
f 112 120 121
f 112 121 122
f 113 123 114
f 114 123 124
f 114 124 115
f 115 124 123
f 115 123 125
f 115 125 116
f 116 125 126
f 116 126 117
f 117 127 128
f 117 128 118
f 117 126 127
f 118 128 119
f 119 128 121
f 119 121 120
f 121 128 122

o geometry_4
v -16.88002545 -0.19591548 30.15456410 0.56470588 0.92549020 0.07058824
v -16.77260891 0.17415695 24.48658662 0.56470588 0.92549020 0.07058824
v -16.37103327 -2.88158610 24.69951300 0.56470588 0.92549020 0.07058824
v -16.57760516 -2.20911182 30.15456410 0.56470588 0.92549020 0.07058824
v -16.57099497 3.34409393 30.15456410 0.56470588 0.92549020 0.07058824
v -16.27187915 -1.89613514 24.32617666 0.56470588 0.92549020 0.07058824
v -16.46192618 2.77735323 24.46888895 0.56470588 0.92549020 0.07058824
v -16.48671471 2.45380417 24.44263013 0.56470588 0.92549020 0.07058824
v -16.51315548 2.13236958 24.42379163 0.56470588 0.92549020 0.07058824
v -16.27187915 1.89129487 24.32731872 0.56470588 0.92549020 0.07058824
v -6.17137676 -4.52259555 24.70522208 0.56470588 0.92549020 0.07058824
v -15.89013655 -4.56488997 30.15456410 0.56470588 0.92549020 0.07058824
v -16.08183458 5.56875989 30.15456410 0.56470588 0.92549020 0.07058824
v -7.57440761 14.37437452 24.32275170 0.56470588 0.92549020 0.07058824
v 0.00262219 6.11223646 24.40152941 0.56470588 0.92549020 0.07058824
v -15.82733788 4.80323642 24.38040802 0.56470588 0.92549020 0.07058824
v -14.35489878 8.17195617 24.40038735 0.56470588 0.92549020 0.07058824
v 0.00262219 5.79714775 30.15456410 0.56470588 0.92549020 0.07058824
v -6.13171499 -4.62410018 30.15456410 0.56470588 0.92549020 0.07058824
v -13.58314991 10.26762441 30.15456410 0.56470588 0.92549020 0.07058824
v -12.65275396 10.71382653 24.43977559 0.56470588 0.92549020 0.07058824
v -10.04665151 13.34451467 24.47745258 0.56470588 0.92549020 0.07058824
v -7.42898215 14.71272614 24.37070356 0.56470588 0.92549020 0.07058824
v -4.21473462 15.96251473 24.37983637 0.56470588 0.92549020 0.07058824
v -1.92262122 16.53136868 24.47174349 0.56470588 0.92549020 0.07058824
v -0.65840565 16.97757080 30.15456410 0.56470588 0.92549020 0.07058824
v -11.75045103 12.12433241 30.15456410 0.56470588 0.92549020 0.07058824
v -9.67482358 13.95989321 30.15456410 0.56470588 0.92549020 0.07058824
v -8.18090105 14.59853221 24.66925757 0.56470588 0.92549020 0.07058824
v -6.26557292 15.57340957 24.66925757 0.56470588 0.92549020 0.07058824
v -3.31573709 16.58212222 30.15456410 0.56470588 0.92549020 0.07058824
v -6.02264559 15.86735353 30.15456410 0.56470588 0.92549020 0.07058824
f 129 130 131
f 129 131 132
f 129 132 140
f 129 140 147
f 129 147 146
f 129 146 154
f 129 154 159
f 129 159 160
f 129 160 156
f 129 156 155
f 129 155 148
f 129 148 141
f 129 141 133
f 129 133 130
f 130 134 131
f 130 133 135
f 130 135 136
f 130 136 137
f 130 137 138
f 130 138 134
f 131 139 140
f 131 140 132
f 131 134 139
f 133 141 135
f 134 138 142
f 134 142 143
f 134 143 139
f 135 141 144
f 135 144 136
f 136 144 137
f 137 144 138
f 138 144 145
f 138 145 142
f 139 146 147
f 139 147 140
f 139 143 146
f 141 148 145
f 141 145 144
f 142 145 149
f 142 149 150
f 142 150 151
f 142 151 152
f 142 152 143
f 143 152 153
f 143 153 154
f 143 154 146
f 145 148 149
f 148 155 149
f 149 155 150
f 150 155 156
f 150 156 157
f 150 157 151
f 151 157 158
f 151 158 152
f 152 158 153
f 153 158 159
f 153 159 154
f 156 160 157
f 157 160 158
f 158 160 159

o geometry_5
v 16.92724586 56.87530763 33.04713608 0.08627451 0.01960784 0.83137255
v 16.92724586 56.87530763 30.79214463 0.08627451 0.01960784 0.83137255
v 16.92061845 56.87530763 33.36989099 0.08627451 0.01960784 0.83137255
v 16.92724586 30.44481061 33.04713608 0.08627451 0.01960784 0.83137255
v 16.92724586 30.44481061 30.79214463 0.08627451 0.01960784 0.83137255
v 16.84771333 56.87530763 30.44469954 0.08627451 0.01960784 0.83137255
v 16.87091108 30.44481061 33.49477039 0.08627451 0.01960784 0.83137255
v 16.83445852 56.87530763 33.67654392 0.08627451 0.01960784 0.83137255
v 16.84108593 30.44481061 30.48262978 0.08627451 0.01960784 0.83137255
v 16.57597627 56.87530763 30.15951590 0.08627451 0.01960784 0.83137255
v 16.59585971 30.44481061 33.67690289 0.08627451 0.01960784 0.83137255
v 16.60248712 56.87530763 33.78746779 0.08627451 0.01960784 0.83137255
v 16.59585971 30.44481061 30.32840835 0.08627451 0.01960784 0.83137255
v 16.29429750 30.44481061 30.32375650 0.08627451 0.01960784 0.83137255
v 16.27441406 56.87530763 30.15522303 0.08627451 0.01960784 0.83137255
v 16.27441406 56.87530763 33.81072702 0.08627451 0.01960784 0.83137255
v -16.27441406 56.87530763 33.81072702 0.08627451 0.01960784 0.83137255
v -16.72178652 30.44481061 33.63789821 0.08627451 0.01960784 0.83137255
v -16.27441406 30.44481061 30.32304102 0.08627451 0.01960784 0.83137255
v -16.27441406 56.87530763 30.15522303 0.08627451 0.01960784 0.83137255
v -16.59585971 56.87530763 33.79033217 0.08627451 0.01960784 0.83137255
v -16.84108593 56.87530763 33.65686455 0.08627451 0.01960784 0.83137255
v -16.91730414 30.44481061 33.34770621 0.08627451 0.01960784 0.83137255
v -16.59585971 30.44481061 30.32840835 0.08627451 0.01960784 0.83137255
v -16.65550880 56.87530763 30.19816162 0.08627451 0.01960784 0.83137255
v -16.92061845 56.87530763 33.36989099 0.08627451 0.01960784 0.83137255
v -16.92724586 30.44481061 33.04713608 0.08627451 0.01960784 0.83137255
v -16.82451680 30.44481061 30.47189513 0.08627451 0.01960784 0.83137255
v -16.84771333 56.87530763 30.44469954 0.08627451 0.01960784 0.83137255
v -16.92724586 56.87530763 33.04713608 0.08627451 0.01960784 0.83137255
v -16.92724586 30.44481061 30.79214463 0.08627451 0.01960784 0.83137255
v -16.92724586 56.87530763 30.79214463 0.08627451 0.01960784 0.83137255
f 161 162 166
f 161 166 170
f 161 170 175
f 161 175 180
f 161 180 185
f 161 185 189
f 161 189 192
f 161 192 190
f 161 190 186
f 161 186 182
f 161 182 181
f 161 181 177
f 161 177 176
f 161 176 172
f 161 172 168
f 161 168 163
f 161 163 164
f 161 164 165
f 161 165 162
f 162 165 166
f 163 167 164
f 163 168 167
f 164 167 171
f 164 171 178
f 164 178 183
f 164 183 187
f 164 187 191
f 164 191 188
f 164 188 184
f 164 184 179
f 164 179 174
f 164 174 173
f 164 173 169
f 164 169 165
f 165 169 166
f 166 169 170
f 167 168 171
f 168 172 171
f 169 173 170
f 170 173 174
f 170 174 175
f 171 172 176
f 171 176 177
f 171 177 178
f 174 179 175
f 175 179 180
f 177 181 178
f 178 181 182
f 178 182 183
f 179 184 180
f 180 184 185
f 182 186 183
f 183 186 187
f 184 188 185
f 185 188 189
f 186 190 187
f 187 190 192
f 187 192 191
f 188 191 189
f 189 191 192

o geometry_6
v -16.91254288 0.11849709 -30.49333489 0.77647059 0.86666667 0.97647059
v -16.76352158 -0.37514426 -33.50344709 0.77647059 0.86666667 0.97647059
v -16.65258419 -1.73567109 -33.01618850 0.77647059 0.86666667 0.97647059
v -16.82975382 -0.62196493 -30.15401086 0.77647059 0.86666667 0.97647059
v -16.66086260 56.87530763 -30.38333057 0.77647059 0.86666667 0.97647059
v -16.54330149 56.87530763 -33.58138269 0.77647059 0.86666667 0.97647059
v -16.27340846 -1.73567109 -33.67690286 0.77647059 0.86666667 0.97647059
v -16.27340846 -2.05473304 -33.67172977 0.77647059 0.86666667 0.97647059
v -16.39593735 -2.21727222 -33.62000382 0.77647059 0.86666667 0.97647059
v -16.47541456 -2.60255411 -33.54999995 0.77647059 0.86666667 0.97647059
v -16.42574161 -3.16241786 -33.17722788 0.77647059 0.86666667 0.97647059
v -16.54495865 -2.41593450 -30.15401086 0.77647059 0.86666667 0.97647059
v -16.57476291 3.42349246 -30.15401086 0.77647059 0.86666667 0.97647059
v -0.00035835 56.87530763 -30.15504597 0.77647059 0.86666667 0.97647059
v -16.24691606 5.18133894 -30.15401086 0.77647059 0.86666667 0.97647059
v -0.00035835 56.87530763 -33.67690286 0.77647059 0.86666667 0.97647059
v -0.00035835 6.12046570 -33.60689899 0.77647059 0.86666667 0.97647059
v -6.17312305 -4.51692335 -33.29999281 0.77647059 0.86666667 0.97647059
v -15.94390813 -4.27612156 -33.29895771 0.77647059 0.86666667 0.97647059
v -16.01841755 -4.44468208 -30.15401086 0.77647059 0.86666667 0.97647059
v -15.88926740 5.96996427 -30.15401086 0.77647059 0.86666667 0.97647059
v -13.97186905 9.71442003 -30.15401086 0.77647059 0.86666667 0.97647059
v -13.50162584 10.31642329 -30.15401086 0.77647059 0.86666667 0.97647059
v -12.69691452 11.12912659 -30.15401086 0.77647059 0.86666667 0.97647059
v -10.76461405 13.06155492 -30.15401086 0.77647059 0.86666667 0.97647059
v -9.99633009 13.77191763 -30.15401086 0.77647059 0.86666667 0.97647059
v -5.39656006 16.16186790 -30.15401086 0.77647059 0.86666667 0.97647059
v -3.25728692 16.60735086 -30.15401086 0.77647059 0.86666667 0.97647059
v -1.10311104 16.95049200 -30.15401086 0.77647059 0.86666667 0.97647059
v -0.08149210 17.03477226 -30.15401086 0.77647059 0.86666667 0.97647059
v -0.00035835 5.80140129 -30.15401086 0.77647059 0.86666667 0.97647059
v -6.14000754 -4.62528281 -30.15401086 0.77647059 0.86666667 0.97647059
f 193 194 195
f 193 195 196
f 193 196 197
f 193 197 198
f 193 198 194
f 194 199 200
f 194 200 201
f 194 201 202
f 194 202 195
f 194 198 199
f 195 202 203
f 195 203 204
f 195 204 196
f 196 205 197
f 196 204 212
f 196 212 224
f 196 224 223
f 196 223 222
f 196 222 221
f 196 221 220
f 196 220 219
f 196 219 218
f 196 218 217
f 196 217 216
f 196 216 215
f 196 215 214
f 196 214 213
f 196 213 207
f 196 207 205
f 197 206 208
f 197 208 198
f 197 205 207
f 197 207 206
f 198 208 199
f 199 208 209
f 199 209 200
f 200 209 210
f 200 210 211
f 200 211 202
f 200 202 201
f 202 211 203
f 203 211 212
f 203 212 204
f 206 207 213
f 206 213 214
f 206 214 215
f 206 215 216
f 206 216 217
f 206 217 218
f 206 218 219
f 206 219 220
f 206 220 221
f 206 221 222
f 206 222 223
f 206 223 209
f 206 209 208
f 209 223 210
f 210 224 212
f 210 212 211
f 210 223 224

o geometry_7
v 0.00295350 5.80269948 -30.15401086 0.79607843 0.45882353 0.78039216
v 0.08400980 17.03723095 -30.15401086 0.79607843 0.45882353 0.78039216
v 0.00295350 56.87530518 -30.15504597 0.79607843 0.45882353 0.78039216
v 0.00295350 6.11544013 -33.60689899 0.79607843 0.45882353 0.78039216
v 6.17318636 -4.51766834 -33.29999281 0.79607843 0.45882353 0.78039216
v 6.09047536 -4.56578493 -30.15401086 0.79607843 0.45882353 0.78039216
v 1.03518538 16.95904702 -30.15401086 0.79607843 0.45882353 0.78039216
v 0.00295350 56.87530518 -33.67690286 0.79607843 0.45882353 0.78039216
v 3.10957488 16.63427845 -30.15401086 0.79607843 0.45882353 0.78039216
v 5.36758192 16.19524218 -30.15401086 0.79607843 0.45882353 0.78039216
v 10.01924325 13.75347622 -30.15401086 0.79607843 0.45882353 0.78039216
v 13.02330337 10.80651797 -30.15401086 0.79607843 0.45882353 0.78039216
v 13.54107432 10.27726740 -30.15401086 0.79607843 0.45882353 0.78039216
v 13.99267450 9.69388995 -30.15401086 0.79607843 0.45882353 0.78039216
v 15.55425715 6.66273259 -30.15401086 0.79607843 0.45882353 0.78039216
v 16.13819517 5.46590790 -30.15401086 0.79607843 0.45882353 0.78039216
v 16.65265795 56.87530518 -30.38195124 0.79607843 0.45882353 0.78039216
v 16.27218772 -1.73309192 -33.67690286 0.79607843 0.45882353 0.78039216
v 16.27218772 -2.05184653 -33.67172977 0.79607843 0.45882353 0.78039216
v 15.70809871 -4.55977097 -33.29309618 0.79607843 0.45882353 0.78039216
v 16.05879419 -4.37332839 -30.15401086 0.79607843 0.45882353 0.78039216
v 16.66920003 56.87530518 -33.56517500 0.79607843 0.45882353 0.78039216
v 16.58648841 3.31883579 -30.15401086 0.79607843 0.45882353 0.78039216
v 16.76514432 -1.02342010 -30.15401086 0.79607843 0.45882353 0.78039216
v 16.90244503 0.00501126 -30.47540119 0.79607843 0.45882353 0.78039216
v 16.76348962 -0.37388295 -33.50344709 0.79607843 0.45882353 0.78039216
v 16.39294513 -2.21422836 -33.62000382 0.79607843 0.45882353 0.78039216
v 16.47565551 -2.59914145 -33.54999995 0.79607843 0.45882353 0.78039216
v 16.17955159 -3.99443418 -33.30481923 0.79607843 0.45882353 0.78039216
v 16.42602928 -3.16447333 -33.17722788 0.79607843 0.45882353 0.78039216
v 16.60799459 -2.01576278 -30.15401086 0.79607843 0.45882353 0.78039216
v 16.65265795 -1.73309192 -33.01618850 0.79607843 0.45882353 0.78039216
f 225 226 227
f 225 227 232
f 225 232 228
f 225 228 229
f 225 229 230
f 225 230 245
f 225 245 255
f 225 255 248
f 225 248 247
f 225 247 240
f 225 240 239
f 225 239 238
f 225 238 237
f 225 237 236
f 225 236 235
f 225 235 234
f 225 234 233
f 225 233 231
f 225 231 226
f 226 231 227
f 227 231 233
f 227 233 234
f 227 234 235
f 227 235 236
f 227 236 237
f 227 237 238
f 227 238 239
f 227 239 240
f 227 240 241
f 227 241 246
f 227 246 232
f 228 232 242
f 228 242 243
f 228 243 229
f 229 243 244
f 229 244 230
f 230 244 245
f 232 246 242
f 240 247 241
f 241 247 248
f 241 248 249
f 241 249 246
f 242 250 243
f 242 246 250
f 243 250 251
f 243 251 252
f 243 252 244
f 244 252 253
f 244 253 245
f 245 253 254
f 245 254 255
f 246 249 250
f 248 255 254
f 248 254 256
f 248 256 249
f 249 256 250
f 250 256 252
f 250 252 251
f 252 254 253
f 252 256 254

o geometry_8
v 2.44613506 5.20845093 30.15525253 0.11764706 0.63921569 0.14117647
v 6.09562632 -4.56057250 30.15525253 0.11764706 0.63921569 0.14117647
v 6.09845750 -4.48861644 33.28280905 0.11764706 0.63921569 0.14117647
v 2.44613506 5.46201333 33.47140791 0.11764706 0.63921569 0.14117647
v 2.44613506 30.44480693 30.32316396 0.11764706 0.63921569 0.14117647
v 2.83543322 16.63933843 30.15525253 0.11764706 0.63921569 0.14117647
v 16.05740502 -4.39267337 30.15525253 0.11764706 0.63921569 0.14117647
v 15.88894531 -4.14253592 33.52140294 0.11764706 0.63921569 0.14117647
v 16.27258111 -2.37787396 33.66310963 0.11764706 0.63921569 0.14117647
v 16.27258111 -2.05578044 33.67448846 0.11764706 0.63921569 0.14117647
v 2.44613506 30.44480693 33.67724711 0.11764706 0.63921569 0.14117647
v 16.27258111 -1.73368692 33.67724711 0.11764706 0.63921569 0.14117647
v 16.71708919 30.44480693 30.57830484 0.11764706 0.63921569 0.14117647
v 11.11402977 12.76393890 30.15525253 0.11764706 0.63921569 0.14117647
v 10.22643043 13.61371681 30.15525253 0.11764706 0.63921569 0.14117647
v 8.86317998 14.42580298 30.15525253 0.11764706 0.63921569 0.14117647
v 7.25219484 15.24816893 30.15525253 0.11764706 0.63921569 0.14117647
v 5.96397260 15.89920834 30.15525253 0.11764706 0.63921569 0.14117647
v 5.18112950 16.25214122 30.15525253 0.11764706 0.63921569 0.14117647
v 16.49908192 -2.70339489 33.36969675 0.11764706 0.63921569 0.14117647
v 16.74256984 -1.17173821 30.15525253 0.11764706 0.63921569 0.14117647
v 16.47218384 -2.60059945 33.57380995 0.11764706 0.63921569 0.14117647
v 16.57127894 30.44480693 33.47899297 0.11764706 0.63921569 0.14117647
v 15.90734862 5.96913815 30.15525253 0.11764706 0.63921569 0.14117647
v 14.24398474 9.22433764 30.15525253 0.11764706 0.63921569 0.14117647
v 13.80089287 10.02614524 30.15525253 0.11764706 0.63921569 0.14117647
v 13.20916079 10.67033228 30.15525253 0.11764706 0.63921569 0.14117647
v 16.82892278 -0.13692901 33.27246533 0.11764706 0.63921569 0.14117647
v 16.90819837 0.07894412 30.49348736 0.11764706 0.63921569 0.14117647
v 16.57127894 3.36155310 30.15525253 0.11764706 0.63921569 0.14117647
v 16.24285307 5.20502351 30.15525253 0.11764706 0.63921569 0.14117647
v 16.70434825 -1.41159587 33.04732049 0.11764706 0.63921569 0.14117647
f 257 258 259
f 257 259 260
f 257 260 267
f 257 267 261
f 257 261 262
f 257 262 275
f 257 275 274
f 257 274 273
f 257 273 272
f 257 272 271
f 257 271 270
f 257 270 283
f 257 283 282
f 257 282 281
f 257 281 280
f 257 280 287
f 257 287 286
f 257 286 277
f 257 277 263
f 257 263 258
f 258 263 259
f 259 263 264
f 259 264 265
f 259 265 266
f 259 266 260
f 260 266 268
f 260 268 267
f 261 267 279
f 261 279 269
f 261 269 270
f 261 270 271
f 261 271 272
f 261 272 273
f 261 273 274
f 261 274 275
f 261 275 262
f 263 276 264
f 263 277 276
f 264 276 278
f 264 278 265
f 265 278 266
f 266 278 268
f 267 268 279
f 268 278 279
f 269 280 281
f 269 281 282
f 269 282 283
f 269 283 270
f 269 279 284
f 269 284 285
f 269 285 277
f 269 277 286
f 269 286 287
f 269 287 280
f 276 277 288
f 276 288 284
f 276 284 278
f 277 285 288
f 278 284 279
f 284 288 285

o geometry_9
v -5.40673658 2.04167090 30.15525253 0.94117647 0.52156863 0.41176471
v -5.42477969 2.04167090 33.30418737 0.94117647 0.52156863 0.41176471
v -5.90404937 -4.44574423 33.04732049 0.94117647 0.52156863 0.41176471
v -5.90517668 -4.44705963 30.15525253 0.94117647 0.52156863 0.41176471
v -16.89679742 0.20278104 30.15525253 0.94117647 0.52156863 0.41176471
v -16.77726321 2.04167090 30.32454082 0.94117647 0.52156863 0.41176471
v -5.82398269 2.04167090 33.66104187 0.94117647 0.52156863 0.41176471
v -6.10139564 -4.41877976 33.51830007 0.94117647 0.52156863 0.41176471
v -6.28633719 -4.67724971 33.04732049 0.94117647 0.52156863 0.41176471
v -6.28633719 -4.67724971 30.15525253 0.94117647 0.52156863 0.41176471
v -16.27092887 -4.14847121 30.15525253 0.94117647 0.52156863 0.41176471
v -16.88101016 -0.28653793 30.23386428 0.94117647 0.52156863 0.41176471
v -16.92724586 0.19620404 30.79241754 0.94117647 0.52156863 0.41176471
v -16.91596907 2.04167090 30.74828403 0.94117647 0.52156863 0.41176471
v -5.96381709 1.48526900 33.67724711 0.94117647 0.52156863 0.41176471
v -16.43444415 2.04167090 33.67690043 0.94117647 0.52156863 0.41176471
v -15.95066339 -3.83080825 33.67655621 0.94117647 0.52156863 0.41176471
v -15.62814452 -4.46415983 33.58208591 0.94117647 0.52156863 0.41176471
v -15.84353328 -4.63713124 33.04732049 0.94117647 0.52156863 0.41176471
v -15.84240474 -4.63713124 30.15525253 0.94117647 0.52156863 0.41176471
v -16.14913758 -4.37734589 33.46175508 0.94117647 0.52156863 0.41176471
v -16.26980156 -4.15373281 33.04732049 0.94117647 0.52156863 0.41176471
v -16.45361580 -2.98699759 33.36969675 0.94117647 0.52156863 0.41176471
v -16.82688206 -0.54237708 33.36521456 0.94117647 0.52156863 0.41176471
v -16.91484176 0.03507122 33.04732049 0.94117647 0.52156863 0.41176471
v -16.90469228 2.04167090 33.25901875 0.94117647 0.52156863 0.41176471
v -16.27318472 -1.73673570 33.67724711 0.94117647 0.52156863 0.41176471
v -16.73215482 0.03507122 33.58001569 0.94117647 0.52156863 0.41176471
v -16.59457628 -0.44832721 33.65690389 0.94117647 0.52156863 0.41176471
v -16.27318472 -2.05834486 33.67448846 0.94117647 0.52156863 0.41176471
v -16.27318472 -2.38061048 33.66310963 0.94117647 0.52156863 0.41176471
v -16.47278622 -2.60224923 33.57380995 0.94117647 0.52156863 0.41176471
f 289 290 291
f 289 291 292
f 289 292 298
f 289 298 308
f 289 308 299
f 289 299 293
f 289 293 294
f 289 294 302
f 289 302 314
f 289 314 304
f 289 304 295
f 289 295 290
f 290 295 296
f 290 296 291
f 291 296 297
f 291 297 292
f 292 297 298
f 293 299 300
f 293 300 301
f 293 301 302
f 293 302 294
f 295 303 296
f 295 304 303
f 296 303 305
f 296 305 306
f 296 306 297
f 297 306 307
f 297 307 298
f 298 307 308
f 299 308 309
f 299 309 310
f 299 310 300
f 300 310 311
f 300 311 312
f 300 312 313
f 300 313 301
f 301 313 314
f 301 314 302
f 303 304 315
f 303 315 305
f 304 314 316
f 304 316 317
f 304 317 315
f 305 309 306
f 305 315 318
f 305 318 319
f 305 319 320
f 305 320 309
f 306 309 307
f 307 309 308
f 309 320 311
f 309 311 310
f 311 320 312
f 312 314 313
f 312 320 316
f 312 316 314
f 315 317 318
f 316 320 317
f 317 320 319
f 317 319 318

o geometry_10
v -16.92724586 2.04167090 33.04732049 0.26274510 0.77254902 0.45490196
v -16.78691357 2.13620022 30.39418818 0.26274510 0.77254902 0.45490196
v -5.40675933 2.04167090 30.15525253 0.26274510 0.77254902 0.45490196
v -16.51383653 2.04167090 33.62276988 0.26274510 0.77254902 0.45490196
v -16.92345209 30.44481061 33.20868196 0.26274510 0.77254902 0.45490196
v -16.92724586 30.44481061 30.79241754 0.26274510 0.77254902 0.45490196
v -16.55555561 3.46238405 30.15525253 0.26274510 0.77254902 0.45490196
v -5.62484281 2.04167090 33.48278673 0.26274510 0.77254902 0.45490196
v 2.44613506 5.20838700 30.15525253 0.26274510 0.77254902 0.45490196
v 2.44613506 5.45861050 33.47140791 0.26274510 0.77254902 0.45490196
v 2.44613506 30.44481061 33.67724711 0.26274510 0.77254902 0.45490196
v -16.49676830 30.44481061 33.65724811 0.26274510 0.77254902 0.45490196
v -16.49107888 30.44481061 30.36178017 0.26274510 0.77254902 0.45490196
v -16.25782527 5.17502502 30.15525253 0.26274510 0.77254902 0.45490196
v 2.41200043 16.69086277 30.15525253 0.26274510 0.77254902 0.45490196
v 2.44613506 30.44481061 30.32316396 0.26274510 0.77254902 0.45490196
v -1.23662783 16.91050261 30.15525253 0.26274510 0.77254902 0.45490196
v -3.31505634 16.57965247 30.15525253 0.26274510 0.77254902 0.45490196
v -5.16212689 16.26826286 30.15525253 0.26274510 0.77254902 0.45490196
v -5.80120537 15.99301726 30.15525253 0.26274510 0.77254902 0.45490196
v -7.20262762 15.28683063 30.15525253 0.26274510 0.77254902 0.45490196
v -9.12365746 14.30817917 30.15525253 0.26274510 0.77254902 0.45490196
v -9.99219764 13.82997472 30.15525253 0.26274510 0.77254902 0.45490196
v -10.47766998 13.39903370 30.15525253 0.26274510 0.77254902 0.45490196
v -11.42775513 12.45374545 30.15525253 0.26274510 0.77254902 0.45490196
v -13.21793340 10.66047784 30.15525253 0.26274510 0.77254902 0.45490196
v -13.79253577 10.04048064 30.15525253 0.26274510 0.77254902 0.45490196
v -14.60418552 8.53079852 30.15525253 0.26274510 0.77254902 0.45490196
v -15.90889145 5.96739739 30.15525253 0.26274510 0.77254902 0.45490196
v 1.26279630 16.89938195 30.15525253 0.26274510 0.77254902 0.45490196
v 0.50614195 17.00225238 30.15525253 0.26274510 0.77254902 0.45490196
v -0.24482299 17.02171415 30.15525253 0.26274510 0.77254902 0.45490196
f 321 322 323
f 321 323 328
f 321 328 324
f 321 324 325
f 321 325 326
f 321 326 322
f 322 327 323
f 322 326 327
f 323 327 334
f 323 334 349
f 323 349 348
f 323 348 347
f 323 347 346
f 323 346 345
f 323 345 344
f 323 344 343
f 323 343 342
f 323 342 341
f 323 341 340
f 323 340 339
f 323 339 338
f 323 338 337
f 323 337 352
f 323 352 351
f 323 351 350
f 323 350 335
f 323 335 329
f 323 329 328
f 324 328 330
f 324 330 331
f 324 331 332
f 324 332 325
f 325 332 331
f 325 331 336
f 325 336 333
f 325 333 326
f 326 333 327
f 327 333 334
f 328 329 330
f 329 335 336
f 329 336 331
f 329 331 330
f 333 336 337
f 333 337 338
f 333 338 339
f 333 339 340
f 333 340 341
f 333 341 342
f 333 342 343
f 333 343 344
f 333 344 345
f 333 345 346
f 333 346 347
f 333 347 348
f 333 348 349
f 333 349 334
f 335 350 336
f 336 350 351
f 336 351 352
f 336 352 337

