# https://github.com/mikedh/trimesh

o geometry_0
v 0.28012220 55.00934014 26.82887354 0.54509804 0.71372549 0.60000000
v 0.27680100 55.00934014 -26.97334708 0.54509804 0.71372549 0.60000000
v 0.06086577 59.94484108 -27.30923667 0.54509804 0.71372549 0.60000000
v 0.06086577 59.94484108 39.30962094 0.54509804 0.71372549 0.60000000
v 0.15720575 57.30221064 39.11861988 0.54509804 0.71372549 0.60000000
v 0.13727283 55.00934014 27.60603908 0.54509804 0.71372549 0.60000000
v 0.03428930 55.00934014 -27.57926950 0.54509804 0.71372549 0.60000000
v -0.43412351 60.16489350 -27.11824018 0.54509804 0.71372549 0.60000000
v -0.13513654 56.85251961 -27.66488877 0.54509804 0.71372549 0.60000000
v -0.43412351 59.97310559 -27.59244451 0.54509804 0.71372549 0.60000000
v -0.43412351 60.16489350 39.11861988 0.54509804 0.71372549 0.60000000
v -0.43412351 59.97310559 39.59282421 0.54509804 0.71372549 0.60000000
v 0.06750931 58.95007056 39.61258215 0.54509804 0.71372549 0.60000000
v -0.22815532 57.35470025 39.61258215 0.54509804 0.71372549 0.60000000
v -33.19643482 57.26789156 39.61916965 0.54509804 0.71372549 0.60000000
v -33.11006073 55.00934014 27.82996852 0.54509804 0.71372549 0.60000000
v -33.10341604 55.00934014 -27.66488877 0.54509804 0.71372549 0.60000000
v -33.36253832 60.00489946 -27.35534006 0.54509804 0.71372549 0.60000000
v -33.40240188 57.15231286 -27.64513083 0.54509804 0.71372549 0.60000000
v -33.36253832 60.00489946 39.35572433 0.54509804 0.71372549 0.60000000
v -33.62166059 58.65027502 39.44134360 0.54509804 0.71372549 0.60000000
v -33.61501590 57.37690792 39.23058460 0.54509804 0.71372549 0.60000000
v -33.54857588 55.02044512 27.56652319 0.54509804 0.71372549 0.60000000
v -33.57515006 55.15015264 -27.32241168 0.54509804 0.71372549 0.60000000
v -33.48877597 55.72803928 -27.61220245 0.54509804 0.71372549 0.60000000
v -33.62166059 58.65027502 -27.44095933 0.54509804 0.71372549 0.60000000
v -33.65820295 58.05068621 39.11861988 0.54509804 0.71372549 0.60000000
v -33.61833939 55.80323977 27.72459130 0.54509804 0.71372549 0.60000000
v -33.61501590 55.95313754 -27.26972079 0.54509804 0.71372549 0.60000000
v -33.56186297 56.59007384 -27.48706272 0.54509804 0.71372549 0.60000000
v -33.64823706 57.82609345 -27.26972079 0.54509804 0.71372549 0.60000000
v -33.64159237 56.85251961 28.92327027 0.54509804 0.71372549 0.60000000
f 1 2 3
f 1 3 4
f 1 4 5
f 1 5 6
f 1 6 16
f 1 16 17
f 1 17 7
f 1 7 2
f 2 7 3
f 3 8 11
f 3 11 4
f 3 7 9
f 3 9 10
f 3 10 8
f 4 11 12
f 4 12 13
f 4 13 5
f 5 13 14
f 5 14 6
f 6 14 15
f 6 15 16
f 7 17 9
f 8 10 18
f 8 18 20
f 8 20 11
f 9 17 19
f 9 19 10
f 10 19 18
f 11 20 12
f 12 15 13
f 12 20 15
f 13 15 14
f 15 20 21
f 15 21 22
f 15 22 23
f 15 23 16
f 16 23 17
f 17 24 25
f 17 25 19
f 17 23 24
f 18 19 26
f 18 26 21
f 18 21 20
f 19 25 26
f 21 27 22
f 21 26 27
f 22 27 28
f 22 28 23
f 23 28 24
f 24 29 30
f 24 30 25
f 24 28 29
f 25 30 26
f 26 31 27
f 26 30 29
f 26 29 31
f 27 31 32
f 27 32 28
f 28 32 29
f 29 32 31

o geometry_1
v 0.15197978 55.00833600 -27.35862466 0.54117647 0.42352941 0.64313725
v -0.02923838 55.00833600 -24.34147166 0.54117647 0.42352941 0.64313725
v 11.92134692 26.77927893 -24.52099719 0.54117647 0.42352941 0.64313725
v 11.90665312 26.53973104 -27.58986212 0.54117647 0.42352941 0.64313725
v -27.55966419 31.36356461 -27.66369021 0.54117647 0.42352941 0.64313725
v -33.39292090 53.52407952 -27.34268656 0.54117647 0.42352941 0.64313725
v -33.50067236 54.77818045 -24.95095087 0.54117647 0.42352941 0.64313725
v 14.79634475 17.64358620 -24.43708884 0.54117647 0.42352941 0.64313725
v 13.04293835 23.53364185 -24.48587298 0.54117647 0.42352941 0.64313725
v -33.42230849 52.18542978 -24.71190676 0.54117647 0.42352941 0.64313725
v -31.28687480 41.35411370 -24.44001662 0.54117647 0.42352941 0.64313725
v 14.12045068 20.45709837 -24.56913173 0.54117647 0.42352941 0.64313725
v 14.13024502 20.47588534 -27.43765414 0.54117647 0.42352941 0.64313725
v 13.12130222 23.25182127 -27.52449027 0.54117647 0.42352941 0.64313725
v 15.10490534 16.80282036 -27.44578559 0.54117647 0.42352941 0.64313725
v 16.52526073 8.90244331 -27.40838320 0.54117647 0.42352941 0.64313725
v -17.13718689 7.02363641 -27.38139044 0.54117647 0.42352941 0.64313725
v -27.78986091 31.09113810 -27.43310236 0.54117647 0.42352941 0.64313725
v -29.91059852 36.80740368 -27.55571230 0.54117647 0.42352941 0.64313725
v -31.82563211 43.24701054 -27.46464919 0.54117647 0.42352941 0.64313725
v -32.84436925 47.87826708 -27.33520699 0.54117647 0.42352941 0.64313725
v 16.52526073 8.08046443 -24.60360634 0.54117647 0.42352941 0.64313725
v 15.41346364 15.22462444 -24.48912556 0.54117647 0.42352941 0.64313725
v -28.43147022 33.02630819 -24.46505829 0.54117647 0.42352941 0.64313725
v -17.01963994 7.06591082 -24.54181188 0.54117647 0.42352941 0.64313725
v -32.93252975 48.03796376 -24.66702481 0.54117647 0.42352941 0.64313725
v -32.12439607 44.17701764 -24.54473966 0.54117647 0.42352941 0.64313725
v -29.81754085 36.19209521 -24.61433849 0.54117647 0.42352941 0.64313725
v 16.09915434 11.66428701 -27.39244739 0.54117647 0.42352941 0.64313725
v 16.07956338 11.53746838 -24.57791279 0.54117647 0.42352941 0.64313725
v -30.80689268 39.16530521 -27.45098927 0.54117647 0.42352941 0.64313725
f 33 34 35
f 33 35 36
f 33 36 37
f 33 37 38
f 33 38 39
f 33 39 34
f 34 40 41
f 34 41 35
f 34 39 42
f 34 42 43
f 34 43 40
f 35 41 44
f 35 44 45
f 35 45 46
f 35 46 36
f 36 46 47
f 36 47 48
f 36 48 37
f 37 49 50
f 37 50 51
f 37 51 52
f 37 52 38
f 37 48 49
f 38 52 53
f 38 53 42
f 38 42 39
f 40 54 55
f 40 55 44
f 40 44 41
f 40 43 56
f 40 56 57
f 40 57 54
f 42 53 58
f 42 58 59
f 42 59 43
f 43 59 60
f 43 60 56
f 44 55 47
f 44 47 45
f 45 47 46
f 47 55 61
f 47 61 48
f 48 61 62
f 48 62 54
f 48 54 49
f 49 54 57
f 49 57 50
f 50 56 60
f 50 60 63
f 50 63 51
f 50 57 56
f 51 63 52
f 52 59 53
f 52 63 59
f 53 59 58
f 54 62 55
f 55 62 61
f 59 63 60

o geometry_2
v 0.13856231 55.00833372 27.54725474 0.43529412 0.89019608 0.96078431
v 15.61570235 14.52391286 27.39608750 0.43529412 0.89019608 0.96078431
v 14.49166805 19.28485748 27.39901986 0.43529412 0.89019608 0.96078431
v 12.33966266 25.77072326 27.40325599 0.43529412 0.89019608 0.96078431
v 12.14271455 26.38940039 24.73797985 0.43529412 0.89019608 0.96078431
v 0.03288374 55.00833372 24.38775672 0.43529412 0.89019608 0.96078431
v -33.43367423 53.63987094 24.70637812 0.43529412 0.89019608 0.96078431
v -33.45769118 53.63167544 27.30584554 0.43529412 0.89019608 0.96078431
v -30.09518133 37.09947835 27.62283722 0.43529412 0.89019608 0.96078431
v -27.25626610 30.77340303 27.66421270 0.43529412 0.89019608 0.96078431
v 15.51963456 14.57307898 24.47246221 0.43529412 0.89019608 0.96078431
v -18.67706834 13.15135119 27.58406929 0.43529412 0.89019608 0.96078431
v -18.63864008 13.18003200 24.38221796 0.43529412 0.89019608 0.96078431
v 14.22746790 19.90353404 24.47343890 0.43529412 0.89019608 0.96078431
v 13.71348694 21.99720340 27.39120177 0.43529412 0.89019608 0.96078431
v 13.01696802 23.68934600 24.52002720 0.43529412 0.89019608 0.96078431
v 11.91694610 26.81141189 24.52295841 0.43529412 0.89019608 0.96078431
v -25.60863719 27.47515797 24.33628269 0.43529412 0.89019608 0.96078431
v -31.85329506 43.25346995 24.47115843 0.43529412 0.89019608 0.96078431
v -33.24152950 50.26377666 24.70605218 0.43529412 0.89019608 0.96078431
v -33.18869222 49.93190362 27.28597094 0.43529412 0.89019608 0.96078431
v -31.08472073 39.90605877 27.35699477 0.43529412 0.89019608 0.96078431
v -30.17204014 36.96836755 27.22765551 0.43529412 0.89019608 0.96078431
v -29.16328719 34.51824323 27.40227930 0.43529412 0.89019608 0.96078431
v -27.51085603 30.59312611 27.39836797 0.43529412 0.89019608 0.96078431
v -32.58343770 46.02317749 27.30584554 0.43529412 0.89019608 0.96078431
v -31.93495726 43.01173595 27.31040647 0.43529412 0.89019608 0.96078431
v -26.14663854 27.88078076 27.48958891 0.43529412 0.89019608 0.96078431
v -26.64621163 29.12223163 24.44965640 0.43529412 0.89019608 0.96078431
v -28.43794794 33.23991720 24.43890596 0.43529412 0.89019608 0.96078431
v -32.76117226 47.02289321 24.65131984 0.43529412 0.89019608 0.96078431
v -30.92620430 39.75856040 24.52165578 0.43529412 0.89019608 0.96078431
f 64 65 66
f 64 66 67
f 64 67 68
f 64 68 69
f 64 69 70
f 64 70 71
f 64 71 72
f 64 72 73
f 64 73 65
f 65 74 66
f 65 73 75
f 65 75 76
f 65 76 74
f 66 77 78
f 66 78 67
f 66 74 77
f 67 78 68
f 68 78 79
f 68 79 80
f 68 80 69
f 69 80 77
f 69 77 74
f 69 74 81
f 69 81 82
f 69 82 70
f 70 82 83
f 70 83 71
f 71 83 84
f 71 84 72
f 72 85 86
f 72 86 87
f 72 87 88
f 72 88 73
f 72 84 89
f 72 89 90
f 72 90 85
f 73 88 91
f 73 91 75
f 74 76 81
f 75 91 76
f 76 91 88
f 76 88 92
f 76 92 81
f 77 80 79
f 77 79 78
f 81 92 93
f 81 93 82
f 82 90 94
f 82 94 83
f 82 93 95
f 82 95 90
f 83 94 84
f 84 94 89
f 85 95 86
f 85 90 95
f 86 95 93
f 86 93 87
f 87 93 88
f 88 93 92
f 89 94 90

o geometry_3
v -0.07122801 7.01409940 -24.33543082 0.38039216 0.78823529 0.52549020
v -0.07122801 7.01409940 -27.66456855 0.38039216 0.78823529 0.52549020
v -16.61911389 7.01409940 -24.33543082 0.38039216 0.78823529 0.52549020
v -6.42739185 -0.44088223 -24.33543082 0.38039216 0.78823529 0.52549020
v -0.07122801 6.34924511 -24.33640751 0.38039216 0.78823529 0.52549020
v -0.07122801 6.18430930 -27.66456855 0.38039216 0.78823529 0.52549020
v -16.61911389 3.18771938 -27.66456855 0.38039216 0.78823529 0.52549020
v -17.01931686 6.89879060 -27.62122367 0.38039216 0.78823529 0.52549020
v -17.24464100 7.01409940 -27.16299862 0.38039216 0.78823529 0.52549020
v -16.31980269 -0.44088223 -24.33543082 0.38039216 0.78823529 0.52549020
v -17.03781391 7.01409940 -24.40549855 0.38039216 0.78823529 0.52549020
v -16.61911389 4.83562505 -24.33608043 0.38039216 0.78823529 0.52549020
v -6.00196608 -0.44088223 -24.40354517 0.38039216 0.78823529 0.52549020
v -0.07122801 5.92084796 -24.46025262 0.38039216 0.78823529 0.52549020
v -0.07122801 5.89384605 -27.49998613 0.38039216 0.78823529 0.52549020
v -5.98346931 -0.44088223 -27.59091429 0.38039216 0.78823529 0.52549020
v -16.31980269 -0.44088223 -27.66456855 0.38039216 0.78823529 0.52549020
v -16.70823506 -0.42920541 -27.58341871 0.38039216 0.78823529 0.52549020
v -16.82425979 0.11450167 -27.50780650 0.38039216 0.78823529 0.52549020
v -16.90329156 0.04006057 -27.12812601 0.38039216 0.78823529 0.52549020
v -17.24968570 7.01409940 -26.82829158 0.38039216 0.78823529 0.52549020
v -16.61911389 0.18967014 -24.34944300 0.38039216 0.78823529 0.52549020
v -16.71832390 -0.26791903 -24.43026803 0.38039216 0.78823529 0.52549020
v -16.84780155 -0.42555713 -24.73042955 0.38039216 0.78823529 0.52549020
v -17.24800451 7.01409940 -24.88034562 0.38039216 0.78823529 0.52549020
v -16.84107509 0.18967014 -24.47231141 0.38039216 0.78823529 0.52549020
v -5.76823401 -0.44088223 -24.86470258 0.38039216 0.78823529 0.52549020
v -0.07122801 5.80772814 -24.85068812 0.38039216 0.78823529 0.52549020
v -0.07122801 5.80772814 -26.97820766 0.38039216 0.78823529 0.52549020
v -5.76655254 -0.44088223 -27.12812601 0.38039216 0.78823529 0.52549020
v -16.84780155 -0.42555713 -27.12812601 0.38039216 0.78823529 0.52549020
v -16.90329156 0.04006057 -24.73042955 0.38039216 0.78823529 0.52549020
f 96 97 104
f 96 104 116
f 96 116 120
f 96 120 106
f 96 106 98
f 96 98 105
f 96 105 99
f 96 99 100
f 96 100 109
f 96 109 123
f 96 123 124
f 96 124 110
f 96 110 101
f 96 101 97
f 97 101 112
f 97 112 102
f 97 102 103
f 97 103 104
f 98 106 107
f 98 107 105
f 99 105 112
f 99 112 111
f 99 111 125
f 99 125 122
f 99 122 108
f 99 108 100
f 100 108 109
f 101 110 111
f 101 111 112
f 102 113 103
f 102 112 113
f 103 113 114
f 103 114 104
f 104 114 115
f 104 115 116
f 105 107 117
f 105 117 118
f 105 118 119
f 105 119 126
f 105 126 112
f 106 120 121
f 106 121 117
f 106 117 107
f 108 122 109
f 109 122 123
f 110 124 125
f 110 125 111
f 112 126 113
f 113 126 114
f 114 126 115
f 115 126 119
f 115 119 127
f 115 127 116
f 116 127 120
f 117 121 118
f 118 121 119
f 119 121 127
f 120 127 121
f 122 125 123
f 123 125 124

o geometry_4
v 16.62888357 7.01409940 -27.35723854 0.56470588 0.92549020 0.07058824
v -0.07122801 7.01409940 -27.66456855 0.56470588 0.92549020 0.07058824
v -0.07122801 7.01409940 -24.33543082 0.56470588 0.92549020 0.07058824
v 16.48091859 6.86667880 -24.46546544 0.56470588 0.92549020 0.07058824
v 16.78349781 6.25947891 -24.88034562 0.56470588 0.92549020 0.07058824
v 16.80178729 5.92960614 -27.17244986 0.56470588 0.92549020 0.07058824
v 16.82506314 5.06259435 -27.42242054 0.56470588 0.92549020 0.07058824
v 16.77185988 4.35760089 -27.60948968 0.56470588 0.92549020 0.07058824
v 16.75024921 0.63923308 -27.63491105 0.56470588 0.92549020 0.07058824
v 5.89226631 -0.44088223 -27.36994922 0.56470588 0.92549020 0.07058824
v -0.07122801 6.03907768 -27.58243974 0.56470588 0.92549020 0.07058824
v 16.78017432 3.01913413 -27.62154847 0.56470588 0.92549020 0.07058824
v 6.29293647 -0.44088223 -24.34227451 0.56470588 0.92549020 0.07058824
v 16.65548519 0.93918417 -24.36378455 0.56470588 0.92549020 0.07058824
v -0.07122801 6.10694957 -24.49610191 0.56470588 0.92549020 0.07058824
v 16.70702328 1.98864699 -24.39702629 0.56470588 0.92549020 0.07058824
v 16.78848647 4.57289452 -24.49284247 0.56470588 0.92549020 0.07058824
v 16.83171240 5.18447235 -24.65840387 0.56470588 0.92549020 0.07058824
v 16.86330041 4.38533360 -24.73042955 0.56470588 0.92549020 0.07058824
v 16.85831174 4.38533360 -27.27804209 0.56470588 0.92549020 0.07058824
v 16.87826182 3.59860131 -27.27804209 0.56470588 0.92549020 0.07058824
v 16.70203461 -0.31170765 -27.42730856 0.56470588 0.92549020 0.07058824
v 16.91317560 1.08952339 -27.12812601 0.56470588 0.92549020 0.07058824
v 5.79916404 -0.44088223 -24.81842307 0.56470588 0.92549020 0.07058824
v -0.07122801 5.80772814 -26.97820766 0.56470588 0.92549020 0.07058824
v 16.54741808 -0.43504496 -24.42700859 0.56470588 0.92549020 0.07058824
v 16.84501322 0.26484090 -24.53325499 0.56470588 0.92549020 0.07058824
v 16.88491337 1.23913525 -24.60886491 0.56470588 0.92549020 0.07058824
f 128 129 130
f 128 130 131
f 128 131 132
f 128 132 133
f 128 133 134
f 128 134 135
f 128 135 129
f 129 136 137
f 129 137 138
f 129 138 152
f 129 152 142
f 129 142 130
f 129 135 139
f 129 139 136
f 130 140 141
f 130 141 131
f 130 142 140
f 131 141 143
f 131 143 144
f 131 144 145
f 131 145 132
f 132 145 133
f 133 145 146
f 133 146 147
f 133 147 134
f 134 147 148
f 134 148 139
f 134 139 135
f 136 149 137
f 136 139 150
f 136 150 149
f 137 140 151
f 137 151 152
f 137 152 138
f 137 149 153
f 137 153 140
f 139 148 150
f 140 153 141
f 140 142 151
f 141 153 154
f 141 154 143
f 142 152 151
f 143 154 144
f 144 154 155
f 144 155 145
f 145 155 146
f 146 148 147
f 146 155 150
f 146 150 148
f 149 154 153
f 149 150 154
f 150 155 154

o geometry_5
v -0.52506082 12.90392174 27.66456952 0.08627451 0.01960784 0.83137255
v -0.52506082 12.90392174 24.33543523 0.08627451 0.01960784 0.83137255
v -18.82711822 12.90392174 27.52312571 0.08627451 0.01960784 0.83137255
v -18.41720954 12.84151370 27.66456952 0.08627451 0.01960784 0.83137255
v -6.42738427 0.15278240 27.66456952 0.08627451 0.01960784 0.83137255
v -0.52506082 6.13767983 27.65772584 0.08627451 0.01960784 0.83137255
v -0.52506082 6.18635760 24.33543523 0.08627451 0.01960784 0.83137255
v -18.23922224 12.90392174 24.33543523 0.08627451 0.01960784 0.83137255
v -18.89004262 12.90392174 27.16137102 0.08627451 0.01960784 0.83137255
v -16.88724366 0.15278240 27.43545699 0.08627451 0.01960784 0.83137255
v -16.71644829 0.16276887 27.64371137 0.08627451 0.01960784 0.83137255
v -16.31912507 0.15278240 27.66456952 0.08627451 0.01960784 0.83137255
v -6.04084780 0.15278240 27.64566704 0.08627451 0.01960784 0.83137255
v -0.52506082 5.83437895 27.50845936 0.08627451 0.01960784 0.83137255
v -0.52506082 5.88680108 24.46384241 0.08627451 0.01960784 0.83137255
v -6.12714441 0.15278240 24.34521242 0.08627451 0.01960784 0.83137255
v -6.42738427 0.15278240 24.33543523 0.08627451 0.01960784 0.83137255
v -16.31912507 0.15278240 24.33543523 0.08627451 0.01960784 0.83137255
v -16.61037572 0.17150418 24.34879780 0.08627451 0.01960784 0.83137255
v -18.47833610 12.87271743 24.34749403 0.08627451 0.01960784 0.83137255
v -18.85408582 12.90267343 24.62549248 0.08627451 0.01960784 0.83137255
v -18.89184046 12.90392174 25.03808990 0.08627451 0.01960784 0.83137255
v -18.89184046 12.90392174 26.83611522 0.08627451 0.01960784 0.83137255
v -16.91241342 0.15278240 27.13594965 0.08627451 0.01960784 0.83137255
v -5.83589347 0.15278240 27.43545699 0.08627451 0.01960784 0.83137255
v -0.52506082 5.75075194 27.13594965 0.08627451 0.01960784 0.83137255
v -0.52506082 5.75075194 24.73825547 0.08627451 0.01960784 0.83137255
v -5.88623327 0.15278240 24.48763291 0.08627451 0.01960784 0.83137255
v -16.82791494 0.15278240 24.46873043 0.08627451 0.01960784 0.83137255
v -16.91241342 0.15278240 24.73825547 0.08627451 0.01960784 0.83137255
v -5.80712802 0.15278240 27.15420025 0.08627451 0.01960784 0.83137255
v -5.80533018 0.15278240 24.73825547 0.08627451 0.01960784 0.83137255
f 156 157 163
f 156 163 177
f 156 177 178
f 156 178 164
f 156 164 158
f 156 158 159
f 156 159 167
f 156 167 160
f 156 160 161
f 156 161 169
f 156 169 181
f 156 181 182
f 156 182 170
f 156 170 162
f 156 162 157
f 157 162 172
f 157 172 173
f 157 173 163
f 158 164 165
f 158 165 166
f 158 166 159
f 159 166 167
f 160 168 161
f 160 167 165
f 160 165 179
f 160 179 185
f 160 185 184
f 160 184 173
f 160 173 172
f 160 172 171
f 160 171 183
f 160 183 187
f 160 187 186
f 160 186 180
f 160 180 168
f 161 168 169
f 162 170 171
f 162 171 172
f 163 173 174
f 163 174 175
f 163 175 176
f 163 176 177
f 164 178 179
f 164 179 165
f 165 167 166
f 168 180 169
f 169 180 181
f 170 182 183
f 170 183 171
f 173 184 174
f 174 184 175
f 175 184 176
f 176 184 185
f 176 185 177
f 177 185 179
f 177 179 178
f 180 186 181
f 181 186 187
f 181 187 182
f 182 187 183

o geometry_6
v -0.52165099 12.90392174 27.66456952 0.77647059 0.86666667 0.97647059
v -0.52165099 12.90392174 24.33543523 0.77647059 0.86666667 0.97647059
v -0.52165099 5.86932704 27.35951998 0.77647059 0.86666667 0.97647059
v 5.94092465 0.15278240 27.46087836 0.77647059 0.86666667 0.97647059
v 16.43643234 8.05734069 27.64631893 0.77647059 0.86666667 0.97647059
v 15.63734276 12.79033930 27.64762271 0.77647059 0.86666667 0.97647059
v -0.52165099 6.00287956 24.46840563 0.77647059 0.86666667 0.97647059
v 15.96617822 12.46706776 24.56813200 0.77647059 0.86666667 0.97647059
v 16.05648195 9.93081925 24.33576118 0.77647059 0.86666667 0.97647059
v 16.35805703 6.63444522 24.33576118 0.77647059 0.86666667 0.97647059
v 6.08234101 0.15278240 24.57595466 0.77647059 0.86666667 0.97647059
v 16.61362937 0.20271020 27.49737955 0.77647059 0.86666667 0.97647059
v 16.76867592 2.87375841 27.55376219 0.77647059 0.86666667 0.97647059
v 16.27797767 10.69593743 27.34159648 0.77647059 0.86666667 0.97647059
v 16.80275254 4.28167531 27.50291946 0.77647059 0.86666667 0.97647059
v 16.54206802 9.23934160 27.32008644 0.77647059 0.86666667 0.97647059
v 16.15359962 12.36222293 27.13594965 0.77647059 0.86666667 0.97647059
v 16.59659107 0.20271020 24.45895439 0.77647059 0.86666667 0.97647059
v 16.49436121 9.80725205 25.03808990 0.77647059 0.86666667 0.97647059
v 16.29160786 10.71091599 24.59746356 0.77647059 0.86666667 0.97647059
v 16.51139952 7.58928241 24.42147423 0.77647059 0.86666667 0.97647059
v 16.78571423 2.95863201 24.51533589 0.77647059 0.86666667 0.97647059
v 16.83512510 1.23992438 24.58279835 0.77647059 0.86666667 0.97647059
v 16.79253047 1.03273132 27.50031190 0.77647059 0.86666667 0.97647059
v 16.88283190 3.33807119 27.28586572 0.77647059 0.86666667 0.97647059
v 16.81127055 5.68085576 27.29140563 0.77647059 0.86666667 0.97647059
v 16.62725956 8.39434191 27.21090769 0.77647059 0.86666667 0.97647059
v 16.69711686 7.60800534 24.73825547 0.77647059 0.86666667 0.97647059
v 16.56933069 8.79999158 24.65058676 0.77647059 0.86666667 0.97647059
v 16.82490303 4.58248071 24.64863109 0.77647059 0.86666667 0.97647059
v 16.77719622 6.37358114 24.81321351 0.77647059 0.86666667 0.97647059
v 16.74823178 6.85911232 27.13594965 0.77647059 0.86666667 0.97647059
f 188 189 194
f 188 194 190
f 188 190 191
f 188 191 192
f 188 192 193
f 188 193 189
f 189 193 195
f 189 195 196
f 189 196 197
f 189 197 194
f 190 194 198
f 190 198 191
f 191 198 199
f 191 199 200
f 191 200 192
f 192 201 193
f 192 200 202
f 192 202 203
f 192 203 201
f 193 201 204
f 193 204 195
f 194 197 205
f 194 205 198
f 195 204 206
f 195 206 207
f 195 207 196
f 196 207 208
f 196 208 197
f 197 208 209
f 197 209 205
f 198 205 199
f 199 205 210
f 199 210 211
f 199 211 200
f 200 211 202
f 201 203 204
f 202 211 212
f 202 212 213
f 202 213 203
f 203 213 214
f 203 214 206
f 203 206 204
f 205 209 210
f 206 214 215
f 206 215 216
f 206 216 207
f 207 216 208
f 208 216 215
f 208 215 217
f 208 217 209
f 209 217 210
f 210 217 212
f 210 212 211
f 212 217 218
f 212 218 213
f 213 218 219
f 213 219 214
f 214 219 215
f 215 219 218
f 215 218 217

o geometry_7
v 0.83006225 -5.97057845 -24.58214206 0.79607843 0.45882353 0.78039216
v 6.04760678 -0.47624661 -24.57855552 0.79607843 0.45882353 0.78039216
v 5.89238640 -0.44161188 -27.36994922 0.79607843 0.45882353 0.78039216
v 0.83006225 -5.83046586 -27.37809669 0.79607843 0.45882353 0.78039216
v 1.79365648 -16.52473209 -27.43513122 0.79607843 0.45882353 0.78039216
v 1.90123411 -16.49482070 -24.52054430 0.79607843 0.45882353 0.78039216
v 4.02206206 -16.03827226 -24.43711172 0.79607843 0.45882353 0.78039216
v 6.76684459 -14.80086653 -24.33543082 0.79607843 0.45882353 0.78039216
v 14.40028928 -7.74009908 -24.35661377 0.79607843 0.45882353 0.78039216
v 16.48730709 -1.45074224 -24.43874258 0.79607843 0.45882353 0.78039216
v 16.53033860 -1.84589422 -27.31487036 0.79607843 0.45882353 0.78039216
v 16.08619434 -4.27190095 -27.45175095 0.79607843 0.45882353 0.78039216
v 14.25890037 -7.90697569 -27.66456855 0.79607843 0.45882353 0.78039216
v 6.16747994 -15.09998503 -27.66456855 0.79607843 0.45882353 0.78039216
v 4.59530084 -16.01308191 -27.46218116 0.79607843 0.45882353 0.78039216
v 6.89593796 -15.23852393 -25.03026398 0.79607843 0.45882353 0.78039216
v 7.96096262 -14.55370012 -24.45992553 0.79607843 0.45882353 0.78039216
v 8.56493852 -13.90036139 -24.33575563 0.79607843 0.45882353 0.78039216
v 11.67241240 -11.20200020 -24.33673231 0.79607843 0.45882353 0.78039216
v 12.59604929 -10.79897753 -24.50783362 0.79607843 0.45882353 0.78039216
v 14.52630963 -8.29425468 -24.73042955 0.79607843 0.45882353 0.78039216
v 16.16150005 -3.19192745 -24.51142015 0.79607843 0.45882353 0.78039216
v 14.86441335 -7.61730386 -27.27804209 0.79607843 0.45882353 0.78039216
v 14.62927829 -7.68657331 -27.63230349 0.79607843 0.45882353 0.78039216
v 11.26054234 -11.80181087 -27.66456855 0.79607843 0.45882353 0.78039216
v 7.32625075 -15.00395155 -27.42763336 0.79607843 0.45882353 0.78039216
v 8.74628477 -14.14280447 -27.50487415 0.79607843 0.45882353 0.78039216
v 6.89593796 -15.23852393 -27.12812601 0.79607843 0.45882353 0.78039216
v 8.82158934 -14.25615531 -24.73042955 0.79607843 0.45882353 0.78039216
v 10.26467391 -13.12108008 -24.53195121 0.79607843 0.45882353 0.78039216
v 11.22826814 -12.36856050 -27.42763336 0.79607843 0.45882353 0.78039216
v 13.22153980 -10.21176088 -27.46869776 0.79607843 0.45882353 0.78039216
f 220 221 222
f 220 222 223
f 220 223 224
f 220 224 225
f 220 225 226
f 220 226 227
f 220 227 221
f 221 228 229
f 221 229 222
f 221 227 228
f 222 229 230
f 222 230 231
f 222 231 232
f 222 232 233
f 222 233 223
f 223 233 224
f 224 233 234
f 224 234 225
f 225 234 226
f 226 234 235
f 226 235 236
f 226 236 227
f 227 236 237
f 227 237 238
f 227 238 228
f 228 238 239
f 228 239 240
f 228 240 241
f 228 241 229
f 229 241 231
f 229 231 230
f 231 242 243
f 231 243 232
f 231 241 240
f 231 240 242
f 232 243 244
f 232 244 233
f 233 245 234
f 233 244 246
f 233 246 245
f 234 245 247
f 234 247 235
f 235 247 248
f 235 248 236
f 236 248 249
f 236 249 237
f 237 249 238
f 238 249 239
f 239 249 250
f 239 250 251
f 239 251 240
f 240 251 242
f 242 251 243
f 243 251 244
f 244 250 246
f 244 251 250
f 245 246 248
f 245 248 247
f 246 250 248
f 248 250 249

o geometry_8
v -16.57201780 -0.04657199 27.53746498 0.11764706 0.63921569 0.14117647
v -16.54281662 -0.10094178 24.44591776 0.11764706 0.63921569 0.14117647
v -16.45845767 -2.89356835 25.03808990 0.11764706 0.63921569 0.14117647
v -16.45845767 -2.89356835 27.13594965 0.11764706 0.63921569 0.14117647
v -16.35787584 -1.84242206 27.65055506 0.11764706 0.63921569 0.14117647
v -6.06772091 0.15278240 27.50520221 0.11764706 0.63921569 0.14117647
v -6.16668031 0.15278240 24.45536900 0.11764706 0.63921569 0.14117647
v -16.37896558 -1.88196310 24.40257175 0.11764706 0.63921569 0.14117647
v -15.01786857 -6.80654205 24.42245206 0.11764706 0.63921569 0.14117647
v -14.84752837 -7.66327687 24.73825547 0.11764706 0.63921569 0.14117647
v -14.26837284 -8.37502711 27.55278321 0.11764706 0.63921569 0.14117647
v -8.88725261 -13.99652525 27.59156715 0.11764706 0.63921569 0.14117647
v -4.92887659 -15.69846219 27.66456952 0.11764706 0.63921569 0.14117647
v 0.00124827 -5.99758722 27.37972624 0.11764706 0.63921569 0.14117647
v 0.00124827 -6.01241368 24.55281491 0.11764706 0.63921569 0.14117647
v -2.08825529 -16.33442409 27.63556391 0.11764706 0.63921569 0.14117647
v -1.83517900 -16.37890805 24.39963939 0.11764706 0.63921569 0.14117647
v -14.21970422 -7.90711750 24.33543523 0.11764706 0.63921569 0.14117647
v -14.36895410 -7.90711750 24.34749403 0.11764706 0.63921569 0.14117647
v -14.71287907 -7.84121500 24.51957202 0.11764706 0.63921569 0.14117647
v -13.48156450 -9.78204966 24.51826824 0.11764706 0.63921569 0.14117647
v -12.77749254 -10.75740762 27.35430716 0.11764706 0.63921569 0.14117647
v -10.82588342 -12.71801395 27.51725872 0.11764706 0.63921569 0.14117647
v -9.47776443 -13.78728503 24.54271178 0.11764706 0.63921569 0.14117647
v -7.43206270 -14.72310423 27.57950836 0.11764706 0.63921569 0.14117647
v -3.42988485 -16.37231826 24.73825547 0.11764706 0.63921569 0.14117647
v -0.11555644 -16.55849306 27.48108462 0.11764706 0.63921569 0.14117647
v -0.26318461 -16.67876535 24.48209300 0.11764706 0.63921569 0.14117647
v -2.76961494 -16.46293306 24.55411868 0.11764706 0.63921569 0.14117647
v -7.73543013 -14.43313047 24.39735778 0.11764706 0.63921569 0.14117647
v -10.77234793 -12.85311271 24.58573185 0.11764706 0.63921569 0.14117647
v -12.41896756 -11.16271076 24.56748011 0.11764706 0.63921569 0.14117647
f 252 253 254
f 252 254 255
f 252 255 256
f 252 256 257
f 252 257 258
f 252 258 253
f 253 258 259
f 253 259 254
f 254 259 260
f 254 260 261
f 254 261 255
f 255 261 262
f 255 262 256
f 256 262 263
f 256 263 264
f 256 264 257
f 257 265 266
f 257 266 258
f 257 264 267
f 257 267 265
f 258 266 268
f 258 268 269
f 258 269 259
f 259 269 270
f 259 270 260
f 260 270 271
f 260 271 261
f 261 271 272
f 261 272 273
f 261 273 262
f 262 273 274
f 262 274 263
f 263 274 275
f 263 275 276
f 263 276 264
f 264 276 277
f 264 277 267
f 265 267 278
f 265 278 266
f 266 278 279
f 266 279 268
f 267 277 280
f 267 280 278
f 268 279 280
f 268 280 281
f 268 281 269
f 269 281 270
f 270 281 275
f 270 275 282
f 270 282 283
f 270 283 272
f 270 272 271
f 272 283 273
f 273 283 282
f 273 282 274
f 274 282 275
f 275 281 277
f 275 277 276
f 277 281 280
f 278 280 279

o geometry_9
v 0.00124884 -6.01232219 24.55261820 0.94117647 0.52156863 0.41176471
v 0.00124884 -5.99770387 27.37944261 0.94117647 0.52156863 0.41176471
v 5.91773914 0.15278240 27.36314769 0.94117647 0.52156863 0.41176471
v 6.09599521 0.15278240 24.46822036 0.94117647 0.52156863 0.41176471
v 3.90020122 -16.07202865 24.40565507 0.94117647 0.52156863 0.41176471
v 2.27482801 -16.43420421 24.47180460 0.94117647 0.52156863 0.41176471
v 14.85972662 -6.70906297 27.66489432 0.94117647 0.52156863 0.41176471
v 2.52114582 -16.43745222 27.59678912 0.94117647 0.52156863 0.41176471
v 3.98122753 -16.05091432 27.64306177 0.94117647 0.52156863 0.41176471
v 16.16099684 -3.90423351 27.56387675 0.94117647 0.52156863 0.41176471
v 16.53047355 -2.09010769 27.48208647 0.94117647 0.52156863 0.41176471
v 16.55640271 -0.94511231 24.57445075 0.94117647 0.52156863 0.41176471
v 16.32629062 -3.06781931 24.49559282 0.94117647 0.52156863 0.41176471
v 8.26424063 -14.05001671 24.33624838 0.94117647 0.52156863 0.41176471
v 6.93380011 -14.99849399 24.44540998 0.94117647 0.52156863 0.41176471
v 4.06873500 -16.27179247 24.73803132 0.94117647 0.52156863 0.41176471
v 8.26586120 -14.19943414 24.35091129 0.94117647 0.52156863 0.41176471
v 14.85972662 -7.00952185 27.65772584 0.94117647 0.52156863 0.41176471
v 4.06873500 -16.27179247 27.13602513 0.94117647 0.52156863 0.41176471
v 7.62413866 -14.79060787 27.35174307 0.94117647 0.52156863 0.41176471
v 9.73890749 -13.46696300 27.51173939 0.94117647 0.52156863 0.41176471
v 14.18235264 -8.58327920 27.60037337 0.94117647 0.52156863 0.41176471
v 15.74614639 -5.50235319 27.50685137 0.94117647 0.52156863 0.41176471
v 15.06553127 -7.00952185 27.61829687 0.94117647 0.52156863 0.41176471
v 15.62298749 -5.48286287 24.47864829 0.94117647 0.52156863 0.41176471
v 14.91968664 -6.78539569 24.45518602 0.94117647 0.52156863 0.41176471
v 12.51646628 -10.76282859 24.47441216 0.94117647 0.52156863 0.41176471
v 8.08436399 -14.63307042 24.73803132 0.94117647 0.52156863 0.41176471
v 10.18940937 -13.06256107 24.46463611 0.94117647 0.52156863 0.41176471
v 15.02825926 -7.20116565 27.60298092 0.94117647 0.52156863 0.41176471
v 12.61369603 -10.86027335 27.48925496 0.94117647 0.52156863 0.41176471
v 15.11414615 -7.12320892 27.28592062 0.94117647 0.52156863 0.41176471
f 284 285 286
f 284 286 287
f 284 287 288
f 284 288 289
f 284 289 285
f 285 290 286
f 285 289 291
f 285 291 292
f 285 292 290
f 286 293 294
f 286 294 295
f 286 295 287
f 286 290 293
f 287 295 296
f 287 296 297
f 287 297 288
f 288 298 299
f 288 299 289
f 288 297 300
f 288 300 298
f 289 299 291
f 290 292 301
f 290 301 293
f 291 299 302
f 291 302 292
f 292 303 304
f 292 304 305
f 292 305 301
f 292 302 303
f 293 306 296
f 293 296 294
f 293 301 307
f 293 307 306
f 294 296 295
f 296 306 308
f 296 308 309
f 296 309 297
f 297 310 300
f 297 309 310
f 298 300 311
f 298 311 299
f 299 311 302
f 300 310 312
f 300 312 311
f 301 313 307
f 301 305 313
f 302 311 303
f 303 311 304
f 304 311 312
f 304 312 314
f 304 314 305
f 305 314 310
f 305 310 315
f 305 315 313
f 306 315 308
f 306 307 313
f 306 313 315
f 308 315 309
f 309 315 310
f 310 314 312

o geometry_10
v -5.89531597 -0.44321073 -27.45342070 0.26274510 0.77254902 0.45490196
v -5.99197432 -0.44321073 -24.61728228 0.26274510 0.77254902 0.45490196
v 0.83006168 -5.83014335 -27.37782450 0.26274510 0.77254902 0.45490196
v -2.14429884 -16.34018130 -27.64371269 0.26274510 0.77254902 0.45490196
v -14.96931946 -6.40897236 -27.66489335 0.26274510 0.77254902 0.45490196
v -16.49380604 -1.97182765 -27.52673643 0.26274510 0.77254902 0.45490196
v 0.83006168 -5.98844248 -24.46967641 0.26274510 0.77254902 0.45490196
v -16.44802059 -1.95423810 -24.45892368 0.26274510 0.77254902 0.45490196
v 0.76053548 -16.52885843 -27.50099484 0.26274510 0.77254902 0.45490196
v -7.07725970 -15.03382177 -27.36805074 0.26274510 0.77254902 0.45490196
v -8.78319261 -14.05205243 -27.54824189 0.26274510 0.77254902 0.45490196
v -12.05261476 -11.05718029 -27.65609628 0.26274510 0.77254902 0.45490196
v -0.65033551 -16.77509847 -27.21360119 0.26274510 0.77254902 0.45490196
v -15.27625147 -6.49211904 -27.62448769 0.26274510 0.77254902 0.45490196
v -16.10717322 -4.16881335 -27.46678098 0.26274510 0.77254902 0.45490196
v -1.36933714 -16.30020795 -24.33901278 0.26274510 0.77254902 0.45490196
v 0.32981269 -16.69355293 -24.53191233 0.26274510 0.77254902 0.45490196
v -11.52184252 -11.35299131 -24.33608043 0.26274510 0.77254902 0.45490196
v -16.06817084 -3.88899304 -24.45436046 0.26274510 0.77254902 0.45490196
v -15.03714960 -6.65521240 -24.42927076 0.26274510 0.77254902 0.45490196
v -2.07985966 -16.51766654 -24.47749679 0.26274510 0.77254902 0.45490196
v -7.07725970 -15.00663916 -24.56775476 0.26274510 0.77254902 0.45490196
v -9.60393975 -13.62352834 -24.50584593 0.26274510 0.77254902 0.45490196
v -11.25730413 -12.28678852 -27.54954567 0.26274510 0.77254902 0.45490196
v -12.85640451 -10.73738664 -27.49219548 0.26274510 0.77254902 0.45490196
v -1.11836462 -16.73832510 -25.03012674 0.26274510 0.77254902 0.45490196
v -15.60014116 -6.17072425 -27.27811757 0.26274510 0.77254902 0.45490196
v -3.67387273 -16.02358532 -24.36508146 0.26274510 0.77254902 0.45490196
v -2.23078215 -16.30020795 -24.36279871 0.26274510 0.77254902 0.45490196
v -12.89710237 -10.58548288 -24.60327239 0.26274510 0.77254902 0.45490196
v -12.72243913 -10.90527882 -27.12822894 0.26274510 0.77254902 0.45490196
f 316 317 318
f 316 318 319
f 316 319 320
f 316 320 321
f 316 321 317
f 317 322 318
f 317 321 323
f 317 323 322
f 318 322 324
f 318 324 319
f 319 325 326
f 319 326 327
f 319 327 320
f 319 324 328
f 319 328 325
f 320 329 321
f 320 327 329
f 321 329 330
f 321 330 323
f 322 331 332
f 322 332 324
f 322 323 333
f 322 333 331
f 323 330 334
f 323 334 335
f 323 335 333
f 324 332 328
f 325 336 337
f 325 337 338
f 325 338 326
f 325 328 336
f 326 338 339
f 326 339 327
f 327 339 340
f 327 340 329
f 328 332 341
f 328 341 336
f 329 342 330
f 329 340 342
f 330 342 334
f 331 336 332
f 331 333 343
f 331 343 344
f 331 344 336
f 332 336 341
f 333 345 338
f 333 338 343
f 333 335 345
f 334 342 335
f 335 342 345
f 336 344 343
f 336 343 337
f 337 343 338
f 338 345 339
f 339 345 346
f 339 346 340
f 340 346 345
f 340 345 342

