# https://github.com/mikedh/trimesh

o geometry_0
v 16.89394611 57.02953613 27.32715288 0.54509804 0.71372549 0.60000000
v 16.79804593 57.02953613 27.70258486 0.54509804 0.71372549 0.60000000
v 16.85426459 57.02953613 -27.46610907 0.54509804 0.71372549 0.60000000
v 16.72198951 59.99812865 -27.46610907 0.54509804 0.71372549 0.60000000
v 16.72198951 59.99812865 39.46610907 0.54509804 0.71372549 0.60000000
v 16.85426459 57.45540416 39.46610907 0.54509804 0.71372549 0.60000000
v 16.67899936 57.16012794 39.50562686 0.54509804 0.71372549 0.60000000
v 16.60624857 57.02953613 28.00556457 0.54509804 0.71372549 0.60000000
v 16.61286283 57.02953613 -27.64394611 0.54509804 0.71372549 0.60000000
v 16.61286283 59.81030983 -27.64394611 0.54509804 0.71372549 0.60000000
v 16.35162030 60.13480857 -27.36731160 0.54509804 0.71372549 0.60000000
v 16.48389438 60.13937515 -27.10384968 0.54509804 0.71372549 0.60000000
v 16.48389438 60.13937515 39.10384968 0.54509804 0.71372549 0.60000000
v 16.35162030 60.13480857 39.36731160 0.54509804 0.71372549 0.60000000
v 16.61286283 59.81030983 39.64394611 0.54509804 0.71372549 0.60000000
v 16.61286283 57.45540416 39.64394611 0.54509804 0.71372549 0.60000000
v -16.68065368 57.16012794 39.50562686 0.54509804 0.71372549 0.60000000
v -16.48224206 57.02953613 28.00556457 0.54509804 0.71372549 0.60000000
v -16.61451614 57.02953613 -27.64394611 0.54509804 0.71372549 0.60000000
v -16.61451614 59.81030983 -27.64394611 0.54509804 0.71372549 0.60000000
v -16.35327362 60.13480857 -27.36731160 0.54509804 0.71372549 0.60000000
v -16.48224206 60.13937515 -27.10384968 0.54509804 0.71372549 0.60000000
v -16.48224206 60.13937515 39.10384968 0.54509804 0.71372549 0.60000000
v -16.35327362 60.13480857 39.36731160 0.54509804 0.71372549 0.60000000
v -16.61451614 59.81030983 39.64394611 0.54509804 0.71372549 0.60000000
v -16.61451614 57.45540416 39.64394611 0.54509804 0.71372549 0.60000000
v -16.85591790 57.45540416 39.46610907 0.54509804 0.71372549 0.60000000
v -16.88898617 57.02953613 27.37325796 0.54509804 0.71372549 0.60000000
v -16.79308599 57.02953613 27.74868995 0.54509804 0.71372549 0.60000000
v -16.85591790 57.02953613 -27.46610907 0.54509804 0.71372549 0.60000000
v -16.72364283 59.99812865 -27.46610907 0.54509804 0.71372549 0.60000000
v -16.72364283 59.99812865 39.46610907 0.54509804 0.71372549 0.60000000
f 1 2 8
f 1 8 18
f 1 18 29
f 1 29 28
f 1 28 30
f 1 30 19
f 1 19 9
f 1 9 3
f 1 3 4
f 1 4 5
f 1 5 6
f 1 6 7
f 1 7 2
f 2 7 8
f 3 9 10
f 3 10 4
f 4 10 11
f 4 11 12
f 4 12 13
f 4 13 5
f 5 13 14
f 5 14 15
f 5 15 6
f 6 15 16
f 6 16 7
f 7 17 18
f 7 18 8
f 7 16 26
f 7 26 17
f 9 19 20
f 9 20 10
f 10 20 21
f 10 21 11
f 11 21 22
f 11 22 12
f 12 22 23
f 12 23 13
f 13 23 24
f 13 24 14
f 14 24 25
f 14 25 15
f 15 25 26
f 15 26 16
f 17 26 27
f 17 27 28
f 17 28 29
f 17 29 18
f 19 30 20
f 20 30 31
f 20 31 21
f 21 31 22
f 22 31 32
f 22 32 23
f 23 32 24
f 24 32 25
f 25 32 27
f 25 27 26
f 27 32 28
f 28 32 31
f 28 31 30

o geometry_1
v -16.61612852 54.04206628 -27.64394611 0.54117647 0.42352941 0.64313725
v -16.61612852 57.02924460 -27.64394611 0.54117647 0.42352941 0.64313725
v 16.61612852 54.04206628 -27.64394611 0.54117647 0.42352941 0.64313725
v -16.82118434 54.04206628 -27.57157171 0.54117647 0.42352941 0.64313725
v -16.82118434 57.02924460 -27.57157171 0.54117647 0.42352941 0.64313725
v 16.61612852 57.02924460 -27.64394611 0.54117647 0.42352941 0.64313725
v 16.74511494 57.02924460 -27.59853590 0.54117647 0.42352941 0.64313725
v 16.82118434 57.02924460 -27.57157171 0.54117647 0.42352941 0.64313725
v 16.62605040 54.04206628 -27.64039987 0.54117647 0.42352941 0.64313725
v -16.89394611 54.04206628 -27.36863545 0.54117647 0.42352941 0.64313725
v -16.89394611 57.02924460 -27.36863545 0.54117647 0.42352941 0.64313725
v 16.89394611 57.02924460 -27.36863545 0.54117647 0.42352941 0.64313725
v 16.89394611 54.04206628 -27.36863545 0.54117647 0.42352941 0.64313725
v 16.82118434 54.04206628 -27.56731462 0.54117647 0.42352941 0.64313725
v -16.89394611 54.04206628 -24.75248027 0.54117647 0.42352941 0.64313725
v -16.89394611 57.02924460 -24.75248027 0.54117647 0.42352941 0.64313725
v 16.89394611 57.02924460 -24.75248027 0.54117647 0.42352941 0.64313725
v 16.89394611 54.04206628 -24.75248027 0.54117647 0.42352941 0.64313725
v -16.82449096 54.04206628 -24.49065170 0.54117647 0.42352941 0.64313725
v -16.75834444 57.02924460 -24.04930481 0.54117647 0.42352941 0.64313725
v -16.83772147 57.02924460 -24.39273280 0.54117647 0.42352941 0.64313725
v -16.88402423 57.02924460 -24.65456137 0.54117647 0.42352941 0.64313725
v 16.85094997 57.02924460 -24.49065170 0.54117647 0.42352941 0.64313725
v 16.75834444 57.02924460 -24.04930481 0.54117647 0.42352941 0.64313725
v 16.82449096 54.04206628 -24.49065170 0.54117647 0.42352941 0.64313725
v -16.75172919 54.04206628 -24.36080268 0.54117647 0.42352941 0.64313725
v -16.61612852 57.02924460 -24.01950324 0.54117647 0.42352941 0.64313725
v 16.72196355 57.02924460 -24.02553344 0.54117647 0.42352941 0.64313725
v 16.75172919 54.04206628 -24.35831872 0.54117647 0.42352941 0.64313725
v -16.62274377 54.04206628 -24.35654560 0.54117647 0.42352941 0.64313725
v 16.61612852 57.02924460 -24.01950324 0.54117647 0.42352941 0.64313725
v 16.61612852 54.04206628 -24.35654560 0.54117647 0.42352941 0.64313725
f 33 34 38
f 33 38 35
f 33 35 41
f 33 41 46
f 33 46 45
f 33 45 50
f 33 50 57
f 33 57 61
f 33 61 64
f 33 64 62
f 33 62 58
f 33 58 51
f 33 51 47
f 33 47 42
f 33 42 36
f 33 36 37
f 33 37 34
f 34 37 43
f 34 43 48
f 34 48 54
f 34 54 53
f 34 53 52
f 34 52 59
f 34 59 63
f 34 63 60
f 34 60 56
f 34 56 55
f 34 55 49
f 34 49 44
f 34 44 40
f 34 40 39
f 34 39 38
f 35 38 39
f 35 39 40
f 35 40 41
f 36 42 43
f 36 43 37
f 40 44 45
f 40 45 46
f 40 46 41
f 42 47 48
f 42 48 43
f 44 49 50
f 44 50 45
f 47 51 52
f 47 52 53
f 47 53 54
f 47 54 48
f 49 55 50
f 50 55 56
f 50 56 57
f 51 58 52
f 52 58 59
f 56 60 61
f 56 61 57
f 58 62 59
f 59 62 64
f 59 64 63
f 60 63 61
f 61 63 64

o geometry_2
v 16.35484806 57.02953613 23.99017292 0.43529412 0.89019608 0.96078431
v -16.35484806 56.64651048 24.35439113 0.43529412 0.89019608 0.96078431
v -16.64589515 57.02953613 24.03402168 0.43529412 0.89019608 0.96078431
v 16.61612852 57.02953613 24.00360510 0.43529412 0.89019608 0.96078431
v 16.36476994 56.64651048 24.35478649 0.43529412 0.89019608 0.96078431
v -16.61612852 56.64651048 24.36347637 0.43529412 0.89019608 0.96078431
v -16.82118434 56.64651048 24.47764087 0.43529412 0.89019608 0.96078431
v -16.83772147 57.02953613 24.44208863 0.43529412 0.89019608 0.96078431
v 16.76495969 57.02953613 24.14660475 0.43529412 0.89019608 0.96078431
v 16.82449096 56.64651048 24.48791218 0.43529412 0.89019608 0.96078431
v 16.62605040 56.64651048 24.36861202 0.43529412 0.89019608 0.96078431
v -16.89394611 56.64651048 24.71347368 0.43529412 0.89019608 0.96078431
v -16.89394611 57.02953613 24.71347368 0.43529412 0.89019608 0.96078431
v 16.82449096 57.02953613 24.34214503 0.43529412 0.89019608 0.96078431
v 16.89394611 56.64651048 24.71347368 0.43529412 0.89019608 0.96078431
v -16.89394611 56.64651048 27.32936129 0.43529412 0.89019608 0.96078431
v -16.88733086 57.02953613 27.37834370 0.43529412 0.89019608 0.96078431
v 16.88733086 57.02953613 24.66448927 0.43529412 0.89019608 0.96078431
v 16.89394611 57.02953613 27.32936129 0.43529412 0.89019608 0.96078431
v 16.89394611 56.64651048 27.32936129 0.43529412 0.89019608 0.96078431
v -16.82449096 56.64651048 27.53556624 0.43529412 0.89019608 0.96078431
v -16.79472533 57.02953613 27.75757352 0.43529412 0.89019608 0.96078431
v 16.83441484 57.02953613 27.59640139 0.43529412 0.89019608 0.96078431
v 16.76826632 57.02953613 27.82670319 0.43529412 0.89019608 0.96078431
v 16.82118434 56.64651048 27.54504684 0.43529412 0.89019608 0.96078431
v -16.62605040 56.64651048 27.63274434 0.43529412 0.89019608 0.96078431
v -16.61612852 57.02953613 27.99538112 0.43529412 0.89019608 0.96078431
v 16.60620664 57.02953613 28.00644115 0.43529412 0.89019608 0.96078431
v 16.61612852 56.64651048 27.63669392 0.43529412 0.89019608 0.96078431
v -16.36476994 56.64651048 27.64340901 0.43529412 0.89019608 0.96078431
v -16.35484806 57.02953613 28.02540433 0.43529412 0.89019608 0.96078431
v 16.35484806 56.64651048 27.64340901 0.43529412 0.89019608 0.96078431
f 65 66 67
f 65 67 72
f 65 72 77
f 65 77 81
f 65 81 86
f 65 86 91
f 65 91 95
f 65 95 92
f 65 92 88
f 65 88 87
f 65 87 83
f 65 83 82
f 65 82 78
f 65 78 73
f 65 73 68
f 65 68 69
f 65 69 66
f 66 70 67
f 66 69 75
f 66 75 74
f 66 74 79
f 66 79 84
f 66 84 89
f 66 89 93
f 66 93 96
f 66 96 94
f 66 94 90
f 66 90 85
f 66 85 80
f 66 80 76
f 66 76 71
f 66 71 70
f 67 70 71
f 67 71 72
f 68 73 74
f 68 74 75
f 68 75 69
f 71 76 72
f 72 76 77
f 73 78 79
f 73 79 74
f 76 80 77
f 77 80 81
f 78 82 79
f 79 82 83
f 79 83 84
f 80 85 86
f 80 86 81
f 83 87 84
f 84 87 88
f 84 88 89
f 85 90 91
f 85 91 86
f 88 92 89
f 89 92 93
f 90 94 95
f 90 95 91
f 92 95 96
f 92 96 93
f 94 96 95

o geometry_3
v -16.82943892 0.08721006 -24.58515415 0.38039216 0.78823529 0.52549020
v -16.77827406 -0.68791848 -27.44476575 0.38039216 0.78823529 0.52549020
v -16.80020243 -0.49844235 -24.64532638 0.38039216 0.78823529 0.52549020
v -16.48590811 -1.82477129 -24.35959065 0.38039216 0.78823529 0.52549020
v -16.82359242 54.04177475 -24.58805144 0.38039216 0.78823529 0.52549020
v -16.80458730 54.04177475 -27.48852664 0.38039216 0.78823529 0.52549020
v -16.80604893 0.14462477 -27.48820516 0.38039216 0.78823529 0.52549020
v -16.72126269 -0.28026086 -27.53486335 0.38039216 0.78823529 0.52549020
v -16.55607609 -1.68697119 -27.56800550 0.38039216 0.78823529 0.52549020
v -16.54438210 -2.20946223 -27.36882514 0.38039216 0.78823529 0.52549020
v -16.70956869 -1.16447616 -27.10690072 0.38039216 0.78823529 0.52549020
v -16.70956869 -1.16447616 -24.75247827 0.38039216 0.78823529 0.52549020
v -16.23008777 -4.17311960 -24.71193415 0.38039216 0.78823529 0.52549020
v -16.51514560 -2.20946223 -24.53174093 0.38039216 0.78823529 0.52549020
v -1.89682198 54.04177475 -24.35669535 0.38039216 0.78823529 0.52549020
v -16.26078689 -3.77694333 -24.51854837 0.38039216 0.78823529 0.52549020
v -16.19354215 -3.33483368 -24.35798126 0.38039216 0.78823529 0.52549020
v -1.89682198 54.04177475 -27.64362264 0.38039216 0.78823529 0.52549020
v -16.09413767 -3.12813354 -27.64265621 0.38039216 0.78823529 0.52549020
v -16.35580550 -1.94534737 -27.62849921 0.38039216 0.78823529 0.52549020
v -16.15991978 -3.71378195 -27.59342420 0.38039216 0.78823529 0.52549020
v -16.41866437 -2.99607211 -27.10690072 0.38039216 0.78823529 0.52549020
v -16.41866437 -2.99607211 -24.75247827 0.38039216 0.78823529 0.52549020
v -15.98742306 -4.53484386 -27.10690072 0.38039216 0.78823529 0.52549020
v -15.92602682 -4.51761985 -24.58805144 0.38039216 0.78823529 0.52549020
v -1.89682198 5.63366997 -24.57196158 0.38039216 0.78823529 0.52549020
v -6.24138777 -4.55206788 -24.60478225 0.38039216 0.78823529 0.52549020
v -1.89682198 5.74276471 -27.55770624 0.38039216 0.78823529 0.52549020
v -6.05134955 -4.42575312 -27.53582579 0.38039216 0.78823529 0.52549020
v -16.01081306 -4.28221035 -27.54548210 0.38039216 0.78823529 0.52549020
v -6.22969277 -4.61522925 -27.10690072 0.38039216 0.78823529 0.52549020
v -1.89682198 5.52457923 -27.10690072 0.38039216 0.78823529 0.52549020
f 97 98 99
f 97 99 100
f 97 100 101
f 97 101 102
f 97 102 103
f 97 103 98
f 98 103 104
f 98 104 105
f 98 105 106
f 98 106 107
f 98 107 108
f 98 108 99
f 99 108 109
f 99 109 110
f 99 110 100
f 100 111 101
f 100 110 112
f 100 112 113
f 100 113 111
f 101 111 114
f 101 114 102
f 102 104 103
f 102 114 115
f 102 115 116
f 102 116 104
f 104 116 105
f 105 116 117
f 105 117 106
f 106 117 118
f 106 118 119
f 106 119 108
f 106 108 107
f 108 119 109
f 109 120 121
f 109 121 112
f 109 112 110
f 109 119 118
f 109 118 120
f 111 113 122
f 111 122 128
f 111 128 124
f 111 124 114
f 112 121 113
f 113 121 123
f 113 123 122
f 114 124 115
f 115 117 116
f 115 124 125
f 115 125 117
f 117 125 126
f 117 126 118
f 118 126 120
f 120 127 121
f 120 126 125
f 120 125 127
f 121 127 123
f 122 123 125
f 122 125 128
f 123 127 125
f 124 128 125

o geometry_4
v -16.80694148 56.64051223 24.56667820 0.56470588 0.92549020 0.07058824
v -16.67339447 56.64051223 27.53657860 0.56470588 0.92549020 0.07058824
v -16.35683683 56.64051223 24.35378411 0.56470588 0.92549020 0.07058824
v -16.35683683 -1.02945554 24.35700488 0.56470588 0.92549020 0.07058824
v -16.75747985 -0.32755402 24.54767707 0.56470588 0.92549020 0.07058824
v -16.75747985 -0.32755402 27.47731689 0.56470588 0.92549020 0.07058824
v 0.03652465 56.64051223 27.64415380 0.56470588 0.92549020 0.07058824
v -16.35683683 -1.49139097 27.63867870 0.56470588 0.92549020 0.07058824
v 0.03652465 56.64051223 24.35378411 0.56470588 0.92549020 0.07058824
v -16.09468877 -2.60123566 24.35668340 0.56470588 0.92549020 0.07058824
v -16.35683683 -1.55738175 24.36344641 0.56470588 0.92549020 0.07058824
v -16.35683683 -1.94732815 24.37955025 0.56470588 0.92549020 0.07058824
v -16.53489950 -1.94732815 24.49260056 0.56470588 0.92549020 0.07058824
v -16.50687104 -2.31327754 24.53575844 0.56470588 0.92549020 0.07058824
v -16.50687104 -2.31327754 27.49503011 0.56470588 0.92549020 0.07058824
v -16.55633368 -1.68936330 27.54334360 0.56470588 0.92549020 0.07058824
v 0.03652465 6.29552457 27.64222094 0.56470588 0.92549020 0.07058824
v -16.35683683 -1.94732815 27.62128696 0.56470588 0.92549020 0.07058824
v -16.15404233 -3.32113594 27.60357174 0.56470588 0.92549020 0.07058824
v -6.25834172 -4.43698087 27.53947788 0.56470588 0.92549020 0.07058824
v 0.03652465 6.31952158 24.35797131 0.56470588 0.92549020 0.07058824
v -6.34902188 -4.20301303 24.37278724 0.56470588 0.92549020 0.07058824
v -16.12766320 -3.35713145 24.39211184 0.56470588 0.92549020 0.07058824
v -16.29418463 -3.78307137 24.71290261 0.56470588 0.92549020 0.07058824
v -16.29418463 -3.78307137 27.32980457 0.56470588 0.92549020 0.07058824
v -16.01060340 -4.28100231 27.53110349 0.56470588 0.92549020 0.07058824
v 0.03652465 5.88158116 27.39647424 0.56470588 0.92549020 0.07058824
v -15.95454648 -4.58695918 27.06827551 0.56470588 0.92549020 0.07058824
v -6.28307304 -4.63495320 27.06827551 0.56470588 0.92549020 0.07058824
v 0.03652465 5.88758141 24.59341076 0.56470588 0.92549020 0.07058824
v -6.23361041 -4.59295943 24.65782809 0.56470588 0.92549020 0.07058824
v -15.92157106 -4.17901602 24.43752405 0.56470588 0.92549020 0.07058824
f 129 130 135
f 129 135 137
f 129 137 131
f 129 131 132
f 129 132 133
f 129 133 134
f 129 134 130
f 130 134 136
f 130 136 135
f 131 137 138
f 131 138 132
f 132 139 133
f 132 138 139
f 133 139 140
f 133 140 141
f 133 141 142
f 133 142 143
f 133 143 134
f 134 143 144
f 134 144 136
f 135 136 145
f 135 145 155
f 135 155 158
f 135 158 149
f 135 149 137
f 136 144 146
f 136 146 147
f 136 147 148
f 136 148 145
f 137 149 138
f 138 150 151
f 138 151 139
f 138 149 150
f 139 151 140
f 140 151 141
f 141 151 142
f 142 151 152
f 142 152 153
f 142 153 143
f 143 153 154
f 143 154 147
f 143 147 144
f 144 147 146
f 145 148 155
f 147 154 148
f 148 154 156
f 148 156 157
f 148 157 155
f 149 158 159
f 149 159 150
f 150 159 160
f 150 160 151
f 151 160 152
f 152 160 156
f 152 156 153
f 153 156 154
f 155 159 158
f 155 157 159
f 156 160 159
f 156 159 157

o geometry_5
v 0.03817597 6.10355049 24.47553030 0.08627451 0.01960784 0.83137255
v 0.05130963 6.09155199 27.51950833 0.08627451 0.01960784 0.83137255
v 0.03817597 56.64051223 27.64415380 0.08627451 0.01960784 0.83137255
v 0.03817597 56.64051223 24.35378411 0.08627451 0.01960784 0.83137255
v 16.09420556 -2.60123566 24.35668340 0.08627451 0.01960784 0.83137255
v 6.28984903 -4.40098536 24.51514593 0.08627451 0.01960784 0.83137255
v 6.28328220 -4.63495320 27.06827551 0.08627451 0.01960784 0.83137255
v 6.25865671 -4.43698087 27.53947788 0.08627451 0.01960784 0.83137255
v 16.09420556 -2.93119153 27.64189947 0.08627451 0.01960784 0.83137255
v 16.57851464 56.64051223 27.55268243 0.08627451 0.01960784 0.83137255
v 16.35523942 -1.49139097 27.63867870 0.08627451 0.01960784 0.83137255
v 16.35523942 56.64051223 24.35378411 0.08627451 0.01960784 0.83137255
v 16.12868254 -3.35713145 24.39211184 0.08627451 0.01960784 0.83137255
v 16.35523942 -1.02945554 24.35700488 0.08627451 0.01960784 0.83137255
v 16.35523942 -1.55738175 24.36344641 0.08627451 0.01960784 0.83137255
v 15.92182565 -4.17901602 24.43752405 0.08627451 0.01960784 0.83137255
v 15.98585261 -4.53896716 27.06827551 0.08627451 0.01960784 0.83137255
v 16.01047860 -4.28100231 27.53110349 0.08627451 0.01960784 0.83137255
v 16.26166147 -3.47111624 27.54591942 0.08627451 0.01960784 0.83137255
v 16.80999652 56.64051223 24.57054392 0.08627451 0.01960784 0.83137255
v 16.75746188 -0.32755402 27.47731689 0.08627451 0.01960784 0.83137255
v 16.55717131 -1.68936330 27.54334360 0.08627451 0.01960784 0.83137255
v 16.75746188 -0.32755402 24.54767707 0.08627451 0.01960784 0.83137255
v 16.35523942 -1.94732815 24.37955025 0.08627451 0.01960784 0.83137255
v 16.51448667 -2.21129125 24.51933312 0.08627451 0.01960784 0.83137255
v 16.29449612 -3.78307137 24.71290261 0.08627451 0.01960784 0.83137255
v 16.29449612 -3.78307137 27.32980457 0.08627451 0.01960784 0.83137255
v 16.51448667 -2.21129125 27.50727022 0.08627451 0.01960784 0.83137255
v 16.73940322 -0.97546327 27.06827551 0.08627451 0.01960784 0.83137255
v 16.73940322 -0.97546327 24.97507662 0.08627451 0.01960784 0.83137255
f 161 162 163
f 161 163 164
f 161 164 165
f 161 165 166
f 161 166 167
f 161 167 162
f 162 167 168
f 162 168 169
f 162 169 163
f 163 170 180
f 163 180 172
f 163 172 164
f 163 169 171
f 163 171 170
f 164 172 165
f 165 173 166
f 165 172 174
f 165 174 175
f 165 175 173
f 166 173 176
f 166 176 177
f 166 177 167
f 167 177 168
f 168 177 178
f 168 178 169
f 169 178 179
f 169 179 171
f 170 171 181
f 170 181 180
f 171 182 181
f 171 179 182
f 172 180 183
f 172 183 174
f 173 175 184
f 173 184 185
f 173 185 186
f 173 186 176
f 174 183 175
f 175 183 184
f 176 186 177
f 177 186 187
f 177 187 178
f 178 187 179
f 179 188 182
f 179 187 188
f 180 181 183
f 181 182 188
f 181 188 189
f 181 189 190
f 181 190 183
f 183 190 185
f 183 185 184
f 185 190 186
f 186 190 189
f 186 189 187
f 187 189 188

o geometry_6
v -1.89536097 5.52085727 -27.10712036 0.77647059 0.86666667 0.97647059
v -1.89536097 5.52085727 -24.98717692 0.77647059 0.86666667 0.97647059
v -1.89536097 5.52577329 -27.36909670 0.77647059 0.86666667 0.97647059
v 4.35222535 3.82500875 -27.10712036 0.77647059 0.86666667 0.97647059
v -1.89536097 5.52577329 -24.73485491 0.77647059 0.86666667 0.97647059
v 4.35222535 3.82500875 -25.01388952 0.77647059 0.86666667 0.97647059
v 4.35222535 3.82992476 -24.74354479 0.77647059 0.86666667 0.97647059
v 4.35222535 3.88399690 -27.51682067 0.77647059 0.86666667 0.97647059
v 4.35222535 3.83975679 -27.39870659 0.77647059 0.86666667 0.97647059
v 4.35222535 3.82992476 -27.36909670 0.77647059 0.86666667 0.97647059
v -1.89536097 5.63882959 -27.57539350 0.77647059 0.86666667 0.97647059
v 4.35222535 3.92332101 -24.49025834 0.77647059 0.86666667 0.97647059
v -1.89536097 5.62408155 -24.47674230 0.77647059 0.86666667 0.97647059
v 4.35222535 3.93806505 -27.56187946 0.77647059 0.86666667 0.97647059
v -1.89536097 5.89935029 -27.64362264 0.77647059 0.86666667 0.97647059
v 4.35222535 4.00196522 -27.58633572 0.77647059 0.86666667 0.97647059
v 4.35222535 4.07570142 -24.35766178 0.77647059 0.86666667 0.97647059
v -1.89536097 5.64374560 -24.44520155 0.77647059 0.86666667 0.97647059
v 4.35222535 4.29689801 -27.64362264 0.77647059 0.86666667 0.97647059
v -1.89536097 54.04177475 -27.64362264 0.77647059 0.86666667 0.97647059
v 4.35222535 4.09044546 -24.35734031 0.77647059 0.86666667 0.97647059
v -1.89536097 5.75680190 -24.35798326 0.77647059 0.86666667 0.97647059
v 4.35222535 54.04177475 -27.64362264 0.77647059 0.86666667 0.97647059
v -1.89536097 54.04177475 -24.35637388 0.77647059 0.86666667 0.97647059
v 4.35222535 4.32639009 -24.35637388 0.77647059 0.86666667 0.97647059
v 4.31797849 4.32639009 -24.35637388 0.77647059 0.86666667 0.97647059
v -1.89536097 5.89935029 -24.35637388 0.77647059 0.86666667 0.97647059
v -1.89536097 5.79121000 -24.35734031 0.77647059 0.86666667 0.97647059
v 4.35222535 54.04177475 -24.35637388 0.77647059 0.86666667 0.97647059
f 191 192 195
f 191 195 203
f 191 203 208
f 191 208 212
f 191 212 218
f 191 218 217
f 191 217 214
f 191 214 210
f 191 210 205
f 191 205 201
f 191 201 193
f 191 193 200
f 191 200 194
f 191 194 196
f 191 196 192
f 192 196 197
f 192 197 195
f 193 198 199
f 193 199 200
f 193 201 198
f 194 200 199
f 194 199 198
f 194 198 204
f 194 204 206
f 194 206 209
f 194 209 213
f 194 213 219
f 194 219 215
f 194 215 211
f 194 211 207
f 194 207 202
f 194 202 197
f 194 197 196
f 195 197 202
f 195 202 203
f 198 201 204
f 201 205 206
f 201 206 204
f 202 207 208
f 202 208 203
f 205 209 206
f 205 210 213
f 205 213 209
f 207 211 212
f 207 212 208
f 210 214 219
f 210 219 213
f 211 215 216
f 211 216 217
f 211 217 218
f 211 218 212
f 214 217 216
f 214 216 215
f 214 215 219

o geometry_7
v 4.35344587 3.83491865 -24.74379039 0.79607843 0.45882353 0.78039216
v 4.35344587 4.16809928 -24.39015898 0.79607843 0.45882353 0.78039216
v 4.35344587 3.88662064 -27.46439385 0.79607843 0.45882353 0.78039216
v 5.98196978 -4.40842527 -24.60478225 0.79607843 0.45882353 0.78039216
v 4.35344587 54.04177475 -24.35669535 0.79607843 0.45882353 0.78039216
v 16.19381571 -3.33420470 -24.35798126 0.79607843 0.45882353 0.78039216
v 4.35344587 4.29447794 -27.64362264 0.79607843 0.45882353 0.78039216
v 6.01371021 -4.44289327 -27.34855407 0.79607843 0.45882353 0.78039216
v 6.41290608 -4.64395058 -27.10690072 0.79607843 0.45882353 0.78039216
v 6.41290608 -4.59224859 -24.62151507 0.79607843 0.45882353 0.78039216
v 16.82374018 54.04177475 -24.58740649 0.79607843 0.45882353 0.78039216
v 4.35344587 54.04177475 -27.64362264 0.79607843 0.45882353 0.78039216
v 15.92524409 -4.51756993 -24.58805144 0.79607843 0.45882353 0.78039216
v 16.25973859 -3.77653199 -24.51854837 0.79607843 0.45882353 0.78039216
v 16.50145285 -2.01871616 -24.44550505 0.79607843 0.45882353 0.78039216
v 16.09371136 -3.12740472 -27.64265621 0.79607843 0.45882353 0.78039216
v 16.00947723 -4.28204662 -27.54966331 0.79607843 0.45882353 0.78039216
v 15.98750293 -4.53480393 -27.10690072 0.79607843 0.45882353 0.78039216
v 16.80786997 -0.18047899 -24.54589793 0.79607843 0.45882353 0.78039216
v 16.80054587 0.01483366 -27.48691726 0.79607843 0.45882353 0.78039216
v 16.80786997 54.04177475 -27.48788369 0.79607843 0.45882353 0.78039216
v 16.22555614 -4.19013396 -24.67171150 0.79607843 0.45882353 0.78039216
v 16.49901181 -2.42083079 -24.57710922 0.79607843 0.45882353 0.78039216
v 16.15841323 -3.71334267 -27.59342420 0.79607843 0.45882353 0.78039216
v 16.61864743 -0.38153630 -27.62335157 0.79607843 0.45882353 0.78039216
v 16.41966075 -3.00102606 -27.10690072 0.79607843 0.45882353 0.78039216
v 16.75903732 -0.82960826 -24.70678452 0.79607843 0.45882353 0.78039216
v 16.78467566 -0.53089362 -27.49817896 0.79607843 0.45882353 0.78039216
v 16.41966075 -3.00102606 -24.75247827 0.79607843 0.45882353 0.78039216
v 16.55516757 -1.69128019 -27.56800550 0.79607843 0.45882353 0.78039216
v 16.50755693 -2.31743079 -27.52745938 0.79607843 0.45882353 0.78039216
v 16.73950505 -0.97321892 -27.10690072 0.79607843 0.45882353 0.78039216
f 220 221 224
f 220 224 231
f 220 231 226
f 220 226 222
f 220 222 223
f 220 223 221
f 221 223 225
f 221 225 224
f 222 226 227
f 222 227 223
f 223 227 228
f 223 228 229
f 223 229 225
f 224 230 240
f 224 240 231
f 224 225 230
f 225 229 232
f 225 232 233
f 225 233 234
f 225 234 230
f 226 231 235
f 226 235 227
f 227 235 236
f 227 236 228
f 228 236 237
f 228 237 232
f 228 232 229
f 230 238 239
f 230 239 240
f 230 234 238
f 231 240 235
f 232 237 241
f 232 241 233
f 233 242 234
f 233 241 242
f 234 242 238
f 235 243 236
f 235 240 244
f 235 244 243
f 236 243 245
f 236 245 237
f 237 245 241
f 238 242 246
f 238 246 247
f 238 247 239
f 239 247 244
f 239 244 240
f 241 245 248
f 241 248 242
f 242 248 246
f 243 244 249
f 243 249 250
f 243 250 245
f 244 247 249
f 245 250 251
f 245 251 248
f 246 251 247
f 246 248 251
f 247 251 250
f 247 250 249

