# https://github.com/mikedh/trimesh

o geometry_0
v 14.40952132 54.36053793 21.80291016 0.54509804 0.71372549 0.60000000
v 14.18948489 54.36053793 22.13315399 0.54509804 0.71372549 0.60000000
v 14.40952132 54.36053793 -21.69566128 0.54509804 0.71372549 0.60000000
v 14.37002797 59.56463825 33.84028472 0.54509804 0.71372549 0.60000000
v 14.37002797 57.53363237 33.84028472 0.54509804 0.71372549 0.60000000
v 14.35028074 57.13287916 33.69167599 0.54509804 0.71372549 0.60000000
v 14.14434996 57.07838620 34.02742311 0.54509804 0.71372549 0.60000000
v 13.79737055 54.36053793 22.19920232 0.54509804 0.71372549 0.60000000
v 14.24026253 54.36053793 -22.06993807 0.54509804 0.71372549 0.60000000
v 14.37002797 59.56463825 -21.83876672 0.54509804 0.71372549 0.60000000
v 14.17538036 60.04202150 33.85679680 0.54509804 0.71372549 0.60000000
v 14.06536215 57.53363237 34.15952197 0.54509804 0.71372549 0.60000000
v 14.35028074 59.96709312 -21.69566128 0.54509804 0.71372549 0.60000000
v -14.14434996 57.07838620 34.02742311 0.54509804 0.71372549 0.60000000
v -13.77480308 54.36053793 22.19920232 0.54509804 0.71372549 0.60000000
v -14.24308388 54.36053793 -22.06443257 0.54509804 0.71372549 0.60000000
v -14.14434996 60.02101739 -22.02590512 0.54509804 0.71372549 0.60000000
v 14.14434996 60.02101739 -22.02590512 0.54509804 0.71372549 0.60000000
v -14.06536215 60.15952237 33.69167599 0.54509804 0.71372549 0.60000000
v -14.14434996 60.02101739 34.02742311 0.54509804 0.71372549 0.60000000
v 14.06536215 60.15952237 -21.69566128 0.54509804 0.71372549 0.60000000
v -14.06536215 57.53363237 34.15952197 0.54509804 0.71372549 0.60000000
v -14.37002797 57.53363237 33.84028472 0.54509804 0.71372549 0.60000000
v -14.35028074 57.13287916 33.69167599 0.54509804 0.71372549 0.60000000
v -14.40952132 54.36053793 21.80291016 0.54509804 0.71372549 0.60000000
v -14.18666465 54.36053793 22.13315399 0.54509804 0.71372549 0.60000000
v -14.37002797 59.56463825 -21.83876672 0.54509804 0.71372549 0.60000000
v -14.40952132 54.36053793 -21.69566128 0.54509804 0.71372549 0.60000000
v -14.35028074 59.96709312 -21.69566128 0.54509804 0.71372549 0.60000000
v -14.06536215 60.15952237 -21.69566128 0.54509804 0.71372549 0.60000000
v -14.35028074 59.96709312 33.69167599 0.54509804 0.71372549 0.60000000
v -14.37002797 59.56463825 33.84028472 0.54509804 0.71372549 0.60000000
f 1 2 8
f 1 8 15
f 1 15 26
f 1 26 25
f 1 25 28
f 1 28 16
f 1 16 9
f 1 9 3
f 1 3 10
f 1 10 4
f 1 4 5
f 1 5 6
f 1 6 7
f 1 7 2
f 2 7 8
f 3 9 10
f 4 11 12
f 4 12 5
f 4 10 13
f 4 13 11
f 5 12 7
f 5 7 6
f 7 12 22
f 7 22 14
f 7 14 15
f 7 15 8
f 9 16 17
f 9 17 18
f 9 18 10
f 10 18 13
f 11 19 20
f 11 20 12
f 11 13 21
f 11 21 19
f 12 20 22
f 13 18 21
f 14 22 23
f 14 23 24
f 14 24 25
f 14 25 26
f 14 26 15
f 16 27 17
f 16 28 27
f 17 27 29
f 17 29 30
f 17 30 21
f 17 21 18
f 19 31 20
f 19 21 30
f 19 30 29
f 19 29 31
f 20 31 32
f 20 32 22
f 22 32 23
f 23 32 25
f 23 25 24
f 25 32 27
f 25 27 28
f 27 32 31
f 27 31 29

o geometry_1
v -13.80019189 54.36048040 18.79728987 0.54117647 0.42352941 0.64313725
v -13.77480308 53.75303851 18.84096213 0.54117647 0.42352941 0.64313725
v -14.06536215 54.36048040 18.80062349 0.54117647 0.42352941 0.64313725
v 13.77480308 54.36048040 18.79728987 0.54117647 0.42352941 0.64313725
v -14.18384330 53.75303851 18.89463525 0.54117647 0.42352941 0.64313725
v 13.78608626 53.75303851 18.84096213 0.54117647 0.42352941 0.64313725
v -14.30796605 54.36048040 18.92663930 0.54117647 0.42352941 0.64313725
v 14.05125762 54.36048040 18.80029046 0.54117647 0.42352941 0.64313725
v 14.06536215 53.75303851 18.84296253 0.54117647 0.42352941 0.64313725
v -14.40952132 53.75303851 19.19733940 0.54117647 0.42352941 0.64313725
v -14.40952132 54.36048040 19.19733940 0.54117647 0.42352941 0.64313725
v 14.29668176 54.36048040 18.92130529 0.54117647 0.42352941 0.64313725
v 14.31078739 53.75303851 18.95330934 0.54117647 0.42352941 0.64313725
v -14.40952132 53.75303851 21.80666089 0.54117647 0.42352941 0.64313725
v -14.40952132 54.36048040 21.80666089 0.54117647 0.42352941 0.64313725
v 14.40952132 54.36048040 19.19733940 0.54117647 0.42352941 0.64313725
v 14.40952132 53.75303851 19.19733940 0.54117647 0.42352941 0.64313725
v -14.31078739 53.75303851 22.04935662 0.54117647 0.42352941 0.64313725
v -14.29950311 54.36048040 22.08036048 0.54117647 0.42352941 0.64313725
v 14.40952132 54.36048040 21.80666089 0.54117647 0.42352941 0.64313725
v 14.40952132 53.75303851 21.80666089 0.54117647 0.42352941 0.64313725
v -14.06536215 53.75303851 22.15770415 0.54117647 0.42352941 0.64313725
v -14.05407897 54.36048040 22.19970905 0.54117647 0.42352941 0.64313725
v 14.30796605 54.36048040 22.07536060 0.54117647 0.42352941 0.64313725
v 14.18384330 53.75303851 22.10703052 0.54117647 0.42352941 0.64313725
v -13.78608626 53.75303851 22.15903738 0.54117647 0.42352941 0.64313725
v -13.77480308 54.36048040 22.20237551 0.54117647 0.42352941 0.64313725
v 14.07100485 54.36048040 22.19604130 0.54117647 0.42352941 0.64313725
v 13.77480308 53.75303851 22.15903738 0.54117647 0.42352941 0.64313725
v -13.48424289 54.36048040 22.20304267 0.54117647 0.42352941 0.64313725
v 13.79737055 54.36048040 22.20237551 0.54117647 0.42352941 0.64313725
v 13.50963171 54.36048040 22.20304267 0.54117647 0.42352941 0.64313725
f 33 34 35
f 33 35 39
f 33 39 43
f 33 43 47
f 33 47 51
f 33 51 55
f 33 55 59
f 33 59 62
f 33 62 64
f 33 64 63
f 33 63 60
f 33 60 56
f 33 56 52
f 33 52 48
f 33 48 44
f 33 44 40
f 33 40 36
f 33 36 38
f 33 38 34
f 34 37 35
f 34 38 41
f 34 41 45
f 34 45 49
f 34 49 53
f 34 53 57
f 34 57 61
f 34 61 58
f 34 58 54
f 34 54 50
f 34 50 46
f 34 46 42
f 34 42 37
f 35 37 39
f 36 40 41
f 36 41 38
f 37 42 39
f 39 42 43
f 40 44 45
f 40 45 41
f 42 46 47
f 42 47 43
f 44 48 45
f 45 48 49
f 46 50 51
f 46 51 47
f 48 52 53
f 48 53 49
f 50 54 55
f 50 55 51
f 52 56 53
f 53 56 57
f 54 58 59
f 54 59 55
f 56 60 57
f 57 60 61
f 58 62 59
f 58 61 64
f 58 64 62
f 60 63 61
f 61 63 64

o geometry_2
v 5.10570164 0.70402390 22.05816587 0.43529412 0.89019608 0.96078431
v 4.99212631 0.70402390 18.96067472 0.43529412 0.89019608 0.96078431
v -1.30603823 -4.77740724 21.79795676 0.43529412 0.89019608 0.96078431
v -1.30603823 -13.81226832 21.94056874 0.43529412 0.89019608 0.96078431
v 0.32188379 -14.22593334 22.03380159 0.43529412 0.89019608 0.96078431
v 1.89528878 -13.89997132 22.07473327 0.43529412 0.89019608 0.96078431
v 5.36768377 -12.65312775 22.15952088 0.43529412 0.89019608 0.96078431
v 10.58611931 -8.88336566 22.15952088 0.43529412 0.89019608 0.96078431
v 14.10545960 0.58854776 22.07148485 0.43529412 0.89019608 0.96078431
v 5.36768377 -12.65312775 18.84080281 0.43529412 0.89019608 0.96078431
v 1.89528878 -13.89997132 18.92656406 0.43529412 0.89019608 0.96078431
v 0.32188379 -14.22739381 18.97009471 0.43529412 0.89019608 0.96078431
v -1.30755235 -4.77740724 19.20464061 0.43529412 0.89019608 0.96078431
v 14.16300405 0.29328201 18.99543374 0.43529412 0.89019608 0.96078431
v 13.77533083 -1.49001168 18.84112810 0.43529412 0.89019608 0.96078431
v -1.30603823 -14.08999302 19.22055855 0.43529412 0.89019608 0.96078431
v 6.33535102 -12.69113298 21.91815395 0.43529412 0.89019608 0.96078431
v 5.94767836 -12.50841802 22.15822195 0.43529412 0.89019608 0.96078431
v 8.57809690 -11.16363935 22.04289850 0.43529412 0.89019608 0.96078431
v 11.90965819 -7.75492137 22.00034150 0.43529412 0.89019608 0.96078431
v 13.89950779 -2.10100736 22.04679639 0.43529412 0.89019608 0.96078431
v 10.58611931 -8.88336566 18.84080281 0.43529412 0.89019608 0.96078431
v 6.23691804 -12.36370828 18.84210174 0.43529412 0.89019608 0.96078431
v 6.52312947 -12.61073671 19.05033386 0.43529412 0.89019608 0.96078431
v 13.77381726 -3.55979948 21.86097905 0.43529412 0.89019608 0.96078431
v 13.90102247 -2.47374402 18.95872523 0.43529412 0.89019608 0.96078431
v 13.77533083 -1.92560135 18.84567545 0.43529412 0.89019608 0.96078431
v 9.16112030 -10.83036838 19.00647904 0.43529412 0.89019608 0.96078431
v 12.53508258 -6.38821806 18.93825994 0.43529412 0.89019608 0.96078431
v 12.48662288 -6.53877407 21.96395827 0.43529412 0.89019608 0.96078431
v 7.99507351 -11.49544986 18.91129670 0.43529412 0.89019608 0.96078431
v 13.53000738 -4.12694366 19.07209918 0.43529412 0.89019608 0.96078431
f 65 66 67
f 65 67 68
f 65 68 69
f 65 69 70
f 65 70 71
f 65 71 72
f 65 72 73
f 65 73 66
f 66 74 75
f 66 75 76
f 66 76 77
f 66 77 67
f 66 73 78
f 66 78 79
f 66 79 74
f 67 77 68
f 68 77 80
f 68 80 69
f 69 80 76
f 69 76 70
f 70 81 82
f 70 82 71
f 70 76 75
f 70 75 81
f 71 82 72
f 72 83 84
f 72 84 85
f 72 85 73
f 72 82 83
f 73 85 78
f 74 79 86
f 74 86 87
f 74 87 88
f 74 88 75
f 75 88 81
f 76 80 77
f 78 85 89
f 78 89 90
f 78 90 91
f 78 91 79
f 79 91 86
f 81 88 92
f 81 92 83
f 81 83 82
f 83 92 84
f 84 92 93
f 84 93 94
f 84 94 85
f 85 94 89
f 86 92 95
f 86 95 87
f 86 91 93
f 86 93 92
f 87 95 88
f 88 95 92
f 89 96 90
f 89 94 96
f 90 96 93
f 90 93 91
f 93 96 94

o geometry_3
v -14.10885628 0.58956344 18.92916302 0.38039216 0.78823529 0.52549020
v -14.03617834 0.62869500 22.05816587 0.38039216 0.78823529 0.52549020
v -4.98780190 0.70696031 19.05618124 0.38039216 0.78823529 0.52549020
v -12.46984747 -5.98603979 18.84080281 0.38039216 0.78823529 0.52549020
v -13.89082246 -2.46996894 18.95580098 0.38039216 0.78823529 0.52549020
v -13.89834163 -2.45257616 22.04387214 0.38039216 0.78823529 0.52549020
v -12.90591511 -5.40485747 22.14197873 0.38039216 0.78823529 0.52549020
v -12.46984747 -5.98603979 22.15952088 0.38039216 0.78823529 0.52549020
v -4.98028329 0.70696031 21.93861924 0.38039216 0.78823529 0.52549020
v -1.30755235 -4.77584942 19.20464061 0.38039216 0.78823529 0.52549020
v -3.53550054 -13.57182303 18.89277980 0.38039216 0.78823529 0.52549020
v -7.39744439 -11.63842032 18.84080281 0.38039216 0.78823529 0.52549020
v -12.61645691 -5.98459040 18.85964499 0.38039216 0.78823529 0.52549020
v -10.86592628 -9.09629671 18.99250949 0.38039216 0.78823529 0.52549020
v -13.63770434 -4.05843247 19.14421728 0.38039216 0.78823529 0.52549020
v -12.81694637 -6.08894046 18.98601265 0.38039216 0.78823529 0.52549020
v -13.58382212 -4.03814089 21.92107709 0.38039216 0.78823529 0.52549020
v -12.74301597 -6.23387370 22.01625944 0.38039216 0.78823529 0.52549020
v -12.32449270 -6.56577051 22.13905448 0.38039216 0.78823529 0.52549020
v -3.53550054 -13.57182303 22.10786918 0.38039216 0.78823529 0.52549020
v -1.30755235 -4.77729882 21.79795676 0.38039216 0.78823529 0.52549020
v -1.75740256 -14.09937982 19.39078213 0.38039216 0.78823529 0.52549020
v -5.72335072 -12.99064292 19.03474121 0.38039216 0.78823529 0.52549020
v -6.79597380 -12.28481895 18.91064613 0.38039216 0.78823529 0.52549020
v -9.24822031 -10.76737375 19.02759490 0.38039216 0.78823529 0.52549020
v -11.96611615 -7.56290813 18.98341369 0.38039216 0.78823529 0.52549020
v -11.28695558 -8.61946888 21.97110458 0.38039216 0.78823529 0.52549020
v -9.24822031 -10.76737375 21.97532775 0.38039216 0.78823529 0.52549020
v -12.82697156 -6.17734936 19.19716901 0.38039216 0.78823529 0.52549020
v -12.82697156 -6.17734936 21.80672839 0.38039216 0.78823529 0.52549020
v -7.35985241 -11.98046071 22.04777113 0.38039216 0.78823529 0.52549020
v -1.87017850 -13.89067747 21.97922675 0.38039216 0.78823529 0.52549020
f 97 98 99
f 97 99 100
f 97 100 101
f 97 101 102
f 97 102 98
f 98 102 103
f 98 103 104
f 98 104 105
f 98 105 99
f 99 105 106
f 99 106 107
f 99 107 108
f 99 108 100
f 100 109 101
f 100 108 110
f 100 110 109
f 101 111 102
f 101 109 112
f 101 112 111
f 102 111 113
f 102 113 103
f 103 113 114
f 103 114 115
f 103 115 104
f 104 115 116
f 104 116 105
f 105 116 117
f 105 117 106
f 106 117 118
f 106 118 107
f 107 118 119
f 107 119 120
f 107 120 108
f 108 120 121
f 108 121 110
f 109 110 122
f 109 122 112
f 110 123 122
f 110 121 124
f 110 124 123
f 111 112 125
f 111 125 126
f 111 126 113
f 112 122 125
f 113 126 114
f 114 123 115
f 114 126 123
f 115 123 124
f 115 124 127
f 115 127 116
f 116 118 128
f 116 128 117
f 116 127 119
f 116 119 118
f 117 128 118
f 119 127 121
f 119 121 120
f 121 127 124
f 122 123 126
f 122 126 125

o geometry_4
v 0.00110420 -5.14451891 -18.98471039 0.56470588 0.92549020 0.07058824
v 13.77586191 -1.92374258 -18.84079948 0.56470588 0.92549020 0.07058824
v 5.09784888 0.41213934 -19.00940106 0.56470588 0.92549020 0.07058824
v 0.00110420 -5.05445704 -21.94511718 0.56470588 0.92549020 0.07058824
v 0.28324791 -14.04060283 -18.96911884 0.56470588 0.92549020 0.07058824
v 2.03198063 -13.85333166 -18.88238063 0.56470588 0.92549020 0.07058824
v 13.77586191 -2.21537266 -18.84372483 0.56470588 0.92549020 0.07058824
v 13.97559790 -2.21537266 -18.89537653 0.56470588 0.92549020 0.07058824
v 14.26891637 -0.47560962 -19.15753403 0.56470588 0.92549020 0.07058824
v 5.09645204 0.41213934 -22.02048370 0.56470588 0.92549020 0.07058824
v 5.36742155 -12.79832431 -22.15919669 0.56470588 0.92549020 0.07058824
v 2.13673675 -13.89621837 -22.08383238 0.56470588 0.92549020 0.07058824
v 0.43270028 -14.18927573 -21.93602248 0.56470588 0.92549020 0.07058824
v 5.73337038 -13.05421288 -21.69822816 0.56470588 0.92549020 0.07058824
v 5.89399695 -12.71684155 -18.91876607 0.56470588 0.92549020 0.07058824
v 9.11909493 -10.89702523 -18.90349759 0.56470588 0.92549020 0.07058824
v 12.27575196 -6.72560046 -18.92233977 0.56470588 0.92549020 0.07058824
v 13.94626694 -2.69713066 -18.93728296 0.56470588 0.92549020 0.07058824
v 14.27031266 -0.51849633 -21.84181378 0.56470588 0.92549020 0.07058824
v 13.85547705 -2.21537266 -22.15107563 0.56470588 0.92549020 0.07058824
v 5.48474872 -12.99417237 -22.14425350 0.56470588 0.92549020 0.07058824
v 13.92950481 -2.44696002 -22.13970615 0.56470588 0.92549020 0.07058824
v 5.50570027 -13.08137528 -22.13061145 0.56470588 0.92549020 0.07058824
v 6.13842808 -12.82262774 -21.93309934 0.56470588 0.92549020 0.07058824
v 9.17217113 -10.95134781 -19.23387419 0.56470588 0.92549020 0.07058824
v 10.38036112 -9.53037503 -18.92298813 0.56470588 0.92549020 0.07058824
v 12.79534259 -6.05371233 -21.90646139 0.56470588 0.92549020 0.07058824
v 11.69051354 -8.17087445 -19.14941297 0.56470588 0.92549020 0.07058824
v 13.92531483 -2.76717755 -22.02340905 0.56470588 0.92549020 0.07058824
v 13.39315206 -4.30537239 -22.06856391 0.56470588 0.92549020 0.07058824
v 8.94450102 -11.02139470 -21.99839531 0.56470588 0.92549020 0.07058824
v 10.79379933 -9.23588819 -21.94804253 0.56470588 0.92549020 0.07058824
f 129 130 131
f 129 131 132
f 129 132 133
f 129 133 134
f 129 134 130
f 130 135 136
f 130 136 137
f 130 137 131
f 130 134 135
f 131 137 138
f 131 138 132
f 132 138 139
f 132 139 140
f 132 140 141
f 132 141 133
f 133 141 134
f 134 141 140
f 134 140 142
f 134 142 143
f 134 143 144
f 134 144 135
f 135 145 146
f 135 146 136
f 135 144 145
f 136 146 137
f 137 147 138
f 137 146 147
f 138 147 148
f 138 148 139
f 139 149 140
f 139 148 150
f 139 150 149
f 140 149 151
f 140 151 142
f 142 151 152
f 142 152 153
f 142 153 143
f 143 153 144
f 144 154 145
f 144 153 154
f 145 155 146
f 145 154 156
f 145 156 155
f 146 155 157
f 146 157 147
f 147 157 150
f 147 150 148
f 149 150 158
f 149 158 159
f 149 159 151
f 150 157 158
f 151 159 152
f 152 159 153
f 153 159 160
f 153 160 156
f 153 156 154
f 155 156 160
f 155 160 158
f 155 158 157
f 158 160 159

o geometry_5
v -14.30791404 0.05761199 -21.88930980 0.08627451 0.01960784 0.83137255
v -14.05579723 -2.07670614 -21.90879592 0.08627451 0.01960784 0.83137255
v -13.88491865 -2.59706240 -19.03193202 0.08627451 0.01960784 0.83137255
v -4.97119633 0.41213934 -19.04687300 0.08627451 0.01960784 0.83137255
v -5.10565849 0.41213934 -22.02181803 0.08627451 0.01960784 0.83137255
v -13.85550471 -2.21537266 -22.15107784 0.08627451 0.01960784 0.83137255
v -13.92973937 -2.44696002 -22.13971058 0.08627451 0.01960784 0.83137255
v -13.47172717 -4.58556439 -21.79739801 0.08627451 0.01960784 0.83137255
v -13.48433362 -3.81074904 -18.84161380 0.08627451 0.01960784 0.83137255
v 0.00110309 -5.14451891 -18.98484094 0.08627451 0.01960784 0.83137255
v 0.00110309 -5.05445704 -21.94517029 0.08627451 0.01960784 0.83137255
v -5.36757977 -12.79832431 -22.15919669 0.08627451 0.01960784 0.83137255
v -10.30766437 -9.47748193 -22.14880528 0.08627451 0.01960784 0.83137255
v -11.77554345 -7.85065471 -22.00980020 0.08627451 0.01960784 0.83137255
v -12.62993854 -6.56548948 -21.69834101 0.08627451 0.01960784 0.83137255
v -12.55290244 -6.55834206 -18.94391922 0.08627451 0.01960784 0.83137255
v -9.40844857 -10.60682684 -18.90332278 0.08627451 0.01960784 0.83137255
v -2.03123657 -13.85333166 -18.88253552 0.08627451 0.01960784 0.83137255
v -0.28182783 -14.04060283 -18.96892633 0.08627451 0.01960784 0.83137255
v -0.43169732 -14.18927573 -21.93607780 0.08627451 0.01960784 0.83137255
v -2.13628533 -13.89621837 -22.08385009 0.08627451 0.01960784 0.83137255
v -5.48523388 -12.99417237 -22.14425793 0.08627451 0.01960784 0.83137255
v -5.50484280 -13.08137528 -22.13061809 0.08627451 0.01960784 0.83137255
v -9.00085995 -11.00852935 -21.93607780 0.08627451 0.01960784 0.83137255
v -10.65782582 -9.46318710 -21.75517736 0.08627451 0.01960784 0.83137255
v -10.57798940 -9.52894554 -19.11669861 0.08627451 0.01960784 0.83137255
v -11.58925699 -7.89640038 -18.95626013 0.08627451 0.01960784 0.83137255
v -9.39024036 -10.73405528 -19.23361972 0.08627451 0.01960784 0.83137255
v -5.88161731 -12.72684793 -18.93190138 0.08627451 0.01960784 0.83137255
v -5.73314855 -13.05421288 -21.69834101 0.08627451 0.01960784 0.83137255
v -6.13933644 -12.82262774 -21.93315466 0.08627451 0.01960784 0.83137255
v -7.10718404 -12.35230561 -21.69834101 0.08627451 0.01960784 0.83137255
f 161 162 163
f 161 163 164
f 161 164 165
f 161 165 166
f 161 166 167
f 161 167 162
f 162 167 168
f 162 168 163
f 163 169 164
f 163 168 169
f 164 169 170
f 164 170 171
f 164 171 165
f 165 171 172
f 165 172 166
f 166 172 173
f 166 173 167
f 167 173 174
f 167 174 168
f 168 174 175
f 168 175 176
f 168 176 169
f 169 176 177
f 169 177 178
f 169 178 170
f 170 179 171
f 170 178 179
f 171 179 180
f 171 180 181
f 171 181 172
f 172 181 182
f 172 182 173
f 173 182 183
f 173 183 184
f 173 184 185
f 173 185 174
f 174 185 186
f 174 186 175
f 175 186 176
f 176 187 177
f 176 186 187
f 177 186 188
f 177 188 189
f 177 189 178
f 177 187 186
f 178 190 181
f 178 181 180
f 178 180 179
f 178 189 190
f 181 190 183
f 181 183 182
f 183 190 191
f 183 191 184
f 184 191 192
f 184 192 188
f 184 188 185
f 185 188 186
f 188 192 189
f 189 192 190
f 190 192 191

o geometry_6
v -0.00454292 4.81761876 -21.69835871 0.77647059 0.86666667 0.97647059
v 4.77286714 0.41357104 -21.69835871 0.77647059 0.86666667 0.97647059
v -0.00454292 4.81761876 -19.37871227 0.77647059 0.86666667 0.97647059
v -0.00454292 4.84930417 -21.93305509 0.77647059 0.86666667 0.97647059
v 4.77286714 0.41357104 -19.37871227 0.77647059 0.86666667 0.97647059
v 4.83212597 0.41357104 -21.98012625 0.77647059 0.86666667 0.97647059
v -0.00454292 4.82290077 -19.08871526 0.77647059 0.86666667 0.97647059
v -0.00454292 4.98660095 -22.13351689 0.77647059 0.86666667 0.97647059
v 4.83071530 0.41357104 -18.99095276 0.77647059 0.86666667 0.97647059
v 4.99015026 0.41357104 -22.14964615 0.77647059 0.86666667 0.97647059
v -0.00454292 4.95491555 -18.88562020 0.77647059 0.86666667 0.97647059
v -0.00454292 5.32984069 -22.15952197 0.77647059 0.86666667 0.97647059
v 5.07621688 0.41357104 -18.84183951 0.77647059 0.86666667 0.97647059
v 5.34993749 0.41357104 -22.15952197 0.77647059 0.86666667 0.97647059
v -0.00454292 5.32984069 -18.84052288 0.77647059 0.86666667 0.97647059
v -0.00454292 54.36053572 -22.15952197 0.77647059 0.86666667 0.97647059
v 5.36686890 0.41357104 -18.84052288 0.77647059 0.86666667 0.97647059
v 14.14849900 0.41357104 -22.15293883 0.77647059 0.86666667 0.97647059
v 14.14849900 54.36053572 -22.15293883 0.77647059 0.86666667 0.97647059
v -0.00454292 54.36053572 -18.79674440 0.77647059 0.86666667 0.97647059
v 14.07230931 0.41357104 -18.84216922 0.77647059 0.86666667 0.97647059
v 13.77601460 54.36053572 -18.79674440 0.77647059 0.86666667 0.97647059
v 14.33333163 0.41357104 -21.98835573 0.77647059 0.86666667 0.97647059
v 14.33333163 54.36053572 -21.98835573 0.77647059 0.86666667 0.97647059
v 14.33615298 0.41357104 -18.99325852 0.77647059 0.86666667 0.97647059
v 14.29664746 54.36053572 -18.87047786 0.77647059 0.86666667 0.97647059
v 14.06525483 54.36053572 -18.79740161 0.77647059 0.86666667 0.97647059
v 14.40952132 0.41357104 -21.69835871 0.77647059 0.86666667 0.97647059
v 14.40952132 54.36053572 -21.69835871 0.77647059 0.86666667 0.97647059
v 14.40952132 0.41357104 -19.37871227 0.77647059 0.86666667 0.97647059
v 14.39541236 54.34997613 -19.08871526 0.77647059 0.86666667 0.97647059
v 14.40952132 54.36053572 -19.37871227 0.77647059 0.86666667 0.97647059
f 193 194 197
f 193 197 195
f 193 195 199
f 193 199 203
f 193 203 207
f 193 207 212
f 193 212 208
f 193 208 204
f 193 204 200
f 193 200 196
f 193 196 194
f 194 196 198
f 194 198 202
f 194 202 206
f 194 206 210
f 194 210 215
f 194 215 220
f 194 220 222
f 194 222 217
f 194 217 213
f 194 213 209
f 194 209 205
f 194 205 201
f 194 201 197
f 195 197 199
f 196 200 198
f 197 201 199
f 198 200 202
f 199 201 203
f 200 204 202
f 201 205 203
f 202 204 206
f 203 205 207
f 204 208 206
f 205 209 207
f 206 208 211
f 206 211 210
f 207 209 212
f 208 212 214
f 208 214 219
f 208 219 218
f 208 218 224
f 208 224 221
f 208 221 216
f 208 216 211
f 209 213 214
f 209 214 212
f 210 211 216
f 210 216 215
f 213 217 218
f 213 218 219
f 213 219 214
f 215 216 221
f 215 221 220
f 217 222 223
f 217 223 218
f 218 223 224
f 220 221 224
f 220 224 222
f 222 224 223

o geometry_7
v -14.40952132 0.41357104 -21.69835871 0.79607843 0.45882353 0.78039216
v -14.33478988 0.41357104 -21.98835573 0.79607843 0.45882353 0.78039216
v -14.40952132 0.41357104 -19.37871227 0.79607843 0.45882353 0.78039216
v -14.40952132 54.36053572 -21.69835871 0.79607843 0.45882353 0.78039216
v -14.15148409 0.41357104 -22.15063528 0.79607843 0.45882353 0.78039216
v -14.33478988 54.36053572 -21.98835573 0.79607843 0.45882353 0.78039216
v -14.33337921 0.41357104 -18.99062526 0.79607843 0.45882353 0.78039216
v -14.39542121 54.34997613 -19.08509508 0.79607843 0.45882353 0.78039216
v -14.40952132 54.36053572 -19.37871227 0.79607843 0.45882353 0.78039216
v -5.36692920 0.41357104 -22.15952197 0.79607843 0.45882353 0.78039216
v -14.15148409 54.36053572 -22.15063528 0.79607843 0.45882353 0.78039216
v -14.06547169 0.41357104 -18.84052288 0.79607843 0.45882353 0.78039216
v -14.29107779 54.36053572 -18.86784460 0.79607843 0.45882353 0.78039216
v -4.99749849 0.41357104 -22.15227941 0.79607843 0.45882353 0.78039216
v -0.00454403 54.36053572 -22.15952197 0.79607843 0.45882353 0.78039216
v -0.00454403 5.32984069 -22.15952197 0.79607843 0.45882353 0.78039216
v -5.35000885 0.41357104 -18.84052288 0.79607843 0.45882353 0.78039216
v -13.77641290 54.36053572 -18.79674440 0.79607843 0.45882353 0.78039216
v -14.06547169 54.36053572 -18.79740161 0.79607843 0.45882353 0.78039216
v -4.83252373 0.41357104 -21.98835573 0.79607843 0.45882353 0.78039216
v -0.00454403 4.98660095 -22.13351689 0.79607843 0.45882353 0.78039216
v -0.00454403 54.36053572 -18.79674440 0.79607843 0.45882353 0.78039216
v -4.96929773 0.41357104 -18.87113728 0.79607843 0.45882353 0.78039216
v -0.00454403 5.32984069 -18.84052288 0.79607843 0.45882353 0.78039216
v -4.77471208 0.41357104 -21.69835871 0.79607843 0.45882353 0.78039216
v -0.00454403 4.84930417 -21.93305509 0.79607843 0.45882353 0.78039216
v -4.79022286 0.41357104 -19.09694474 0.79607843 0.45882353 0.78039216
v -0.00454403 4.95491555 -18.88562020 0.79607843 0.45882353 0.78039216
v -4.77471208 0.41357104 -19.37871227 0.79607843 0.45882353 0.78039216
v -0.00454403 4.81761876 -21.69835871 0.79607843 0.45882353 0.78039216
v -0.00454403 4.82290077 -19.08871526 0.79607843 0.45882353 0.78039216
v -0.00454403 4.81761876 -19.37871227 0.79607843 0.45882353 0.78039216
f 225 226 229
f 225 229 234
f 225 234 238
f 225 238 244
f 225 244 249
f 225 249 253
f 225 253 251
f 225 251 247
f 225 247 241
f 225 241 236
f 225 236 231
f 225 231 227
f 225 227 233
f 225 233 228
f 225 228 230
f 225 230 226
f 226 230 235
f 226 235 229
f 227 231 232
f 227 232 233
f 228 233 237
f 228 237 243
f 228 243 242
f 228 242 246
f 228 246 239
f 228 239 235
f 228 235 230
f 229 235 234
f 231 236 237
f 231 237 232
f 232 237 233
f 234 235 239
f 234 239 240
f 234 240 238
f 236 241 246
f 236 246 242
f 236 242 243
f 236 243 237
f 238 240 245
f 238 245 244
f 239 246 248
f 239 248 252
f 239 252 255
f 239 255 256
f 239 256 254
f 239 254 250
f 239 250 245
f 239 245 240
f 241 247 248
f 241 248 246
f 244 245 250
f 244 250 249
f 247 251 252
f 247 252 248
f 249 250 254
f 249 254 256
f 249 256 253
f 251 253 255
f 251 255 252
f 253 256 255

o geometry_8
v -14.40952132 0.70696031 19.19687581 0.11764706 0.63921569 0.14117647
v -14.19233501 0.70696031 18.89732936 0.11764706 0.63921569 0.14117647
v -14.40952132 0.70696031 21.80670073 0.11764706 0.63921569 0.14117647
v -14.40952132 53.75303630 19.19687581 0.11764706 0.63921569 0.14117647
v -14.31068229 53.75303630 18.94866242 0.11764706 0.63921569 0.14117647
v -13.79567995 0.70696031 18.84112367 0.11764706 0.63921569 0.14117647
v -14.05968294 53.75303630 18.84274788 0.11764706 0.63921569 0.14117647
v -14.18843380 0.70696031 22.10592189 0.11764706 0.63921569 0.14117647
v -14.31068229 53.75303630 22.05394048 0.11764706 0.63921569 0.14117647
v -14.40952132 53.75303630 21.80670073 0.11764706 0.63921569 0.14117647
v -5.36575806 0.70696031 18.84112367 0.11764706 0.63921569 0.14117647
v -13.77617171 53.75303630 18.84047421 0.11764706 0.63921569 0.14117647
v -13.77617171 0.70696031 22.15887916 0.11764706 0.63921569 0.14117647
v -14.06618643 53.75303630 22.15790441 0.11764706 0.63921569 0.14117647
v -1.12348646 53.75303630 18.84047421 0.11764706 0.63921569 0.14117647
v -5.07574389 0.98216019 18.84112367 0.11764706 0.63921569 0.14117647
v -5.07574389 0.70696031 18.84307317 0.11764706 0.63921569 0.14117647
v -5.34625037 0.70696031 22.15887916 0.11764706 0.63921569 0.14117647
v -13.77617171 53.75303630 22.15952862 0.11764706 0.63921569 0.14117647
v -1.12348646 53.75303630 22.15952862 0.11764706 0.63921569 0.14117647
v -1.12348646 5.33343431 18.84112367 0.11764706 0.63921569 0.14117647
v -1.21452253 5.04265617 18.84144896 0.11764706 0.63921569 0.14117647
v -1.12348646 4.78303456 18.94768767 0.11764706 0.63921569 0.14117647
v -4.82994690 0.70696031 18.94898659 0.11764706 0.63921569 0.14117647
v -5.06663979 0.70696031 22.15335596 0.11764706 0.63921569 0.14117647
v -5.07574389 0.98216019 22.15887916 0.11764706 0.63921569 0.14117647
v -1.12348646 5.11015832 22.14913168 0.11764706 0.63921569 0.14117647
v -1.12348646 4.66360854 19.19687581 0.11764706 0.63921569 0.14117647
v -4.72720610 0.70696031 19.19687581 0.11764706 0.63921569 0.14117647
v -4.77792621 0.70696031 21.92560895 0.11764706 0.63921569 0.14117647
v -1.12348646 4.71034113 21.90741513 0.11764706 0.63921569 0.14117647
v -4.72720610 0.70696031 21.51690065 0.11764706 0.63921569 0.14117647
f 257 258 262
f 257 262 267
f 257 267 273
f 257 273 280
f 257 280 285
f 257 285 288
f 257 288 286
f 257 286 281
f 257 281 274
f 257 274 269
f 257 269 264
f 257 264 259
f 257 259 266
f 257 266 260
f 257 260 261
f 257 261 258
f 258 261 263
f 258 263 262
f 259 264 265
f 259 265 266
f 260 266 265
f 260 265 270
f 260 270 275
f 260 275 276
f 260 276 271
f 260 271 268
f 260 268 263
f 260 263 261
f 262 263 268
f 262 268 271
f 262 271 267
f 264 269 270
f 264 270 265
f 267 271 272
f 267 272 273
f 269 274 276
f 269 276 275
f 269 275 270
f 271 276 283
f 271 283 287
f 271 287 284
f 271 284 279
f 271 279 277
f 271 277 272
f 272 277 278
f 272 278 273
f 273 278 279
f 273 279 280
f 274 281 282
f 274 282 276
f 276 282 283
f 277 279 278
f 279 284 280
f 280 284 285
f 281 286 287
f 281 287 283
f 281 283 282
f 284 287 288
f 284 288 285
f 286 288 287

o geometry_9
v -1.12348646 4.66360854 19.19687581 0.94117647 0.52156863 0.41176471
v -1.12348646 4.71034113 21.90741513 0.94117647 0.52156863 0.41176471
v -1.12348646 4.78303456 18.94768767 0.94117647 0.52156863 0.41176471
v 4.77741449 0.70696031 19.07731702 0.94117647 0.52156863 0.41176471
v 4.72723930 0.70696031 21.53671869 0.94117647 0.52156863 0.41176471
v 4.72875950 0.70696031 21.80670073 0.94117647 0.52156863 0.41176471
v -1.12348646 5.11015832 22.14913168 0.94117647 0.52156863 0.41176471
v 4.83063010 0.70696031 22.05296573 0.94117647 0.52156863 0.41176471
v -1.12348646 5.04265617 18.84209842 0.94117647 0.52156863 0.41176471
v 5.06782199 0.70696031 18.84697216 0.94117647 0.52156863 0.41176471
v -1.12348646 53.75303630 22.15952862 0.94117647 0.52156863 0.41176471
v 5.07846511 0.70696031 22.15692966 0.94117647 0.52156863 0.41176471
v 5.36735240 0.70696031 22.15887916 0.94117647 0.52156863 0.41176471
v -1.12348646 5.33343431 18.84112367 0.94117647 0.52156863 0.41176471
v 5.34758636 0.70696031 18.84112367 0.94117647 0.52156863 0.41176471
v -1.12348646 53.75303630 18.84047421 0.94117647 0.52156863 0.41176471
v 13.77549016 53.75303630 22.15952862 0.94117647 0.52156863 0.41176471
v 13.79677640 0.70696031 22.15887916 0.94117647 0.52156863 0.41176471
v 13.77549016 0.70696031 18.84112367 0.94117647 0.52156863 0.41176471
v 13.77549016 53.75303630 18.84047421 0.94117647 0.52156863 0.41176471
v 14.06589765 53.75303630 22.15790441 0.94117647 0.52156863 0.41176471
v 14.06589765 0.70696031 22.15790441 0.94117647 0.52156863 0.41176471
v 14.05525509 0.70696031 18.84274788 0.94117647 0.52156863 0.41176471
v 14.07045939 53.75303630 18.84469738 0.94117647 0.52156863 0.41176471
v 14.31069224 53.75303630 22.05394048 0.94117647 0.52156863 0.41176471
v 14.31069224 0.70696031 22.05394048 0.94117647 0.52156863 0.41176471
v 14.31069224 0.70696031 18.94866242 0.94117647 0.52156863 0.41176471
v 14.31069224 53.75303630 18.94866242 0.94117647 0.52156863 0.41176471
v 14.40952132 53.75303630 21.80670073 0.94117647 0.52156863 0.41176471
v 14.40952132 0.70696031 21.80670073 0.94117647 0.52156863 0.41176471
v 14.40952132 0.70696031 19.19687581 0.94117647 0.52156863 0.41176471
v 14.40952132 53.75303630 19.19687581 0.94117647 0.52156863 0.41176471
f 289 290 295
f 289 295 299
f 289 299 304
f 289 304 302
f 289 302 297
f 289 297 291
f 289 291 292
f 289 292 293
f 289 293 294
f 289 294 290
f 290 294 296
f 290 296 295
f 291 297 298
f 291 298 292
f 292 298 303
f 292 303 307
f 292 307 311
f 292 311 315
f 292 315 319
f 292 319 318
f 292 318 314
f 292 314 310
f 292 310 306
f 292 306 301
f 292 301 300
f 292 300 296
f 292 296 294
f 292 294 293
f 295 296 300
f 295 300 301
f 295 301 299
f 297 302 303
f 297 303 298
f 299 301 306
f 299 306 305
f 299 305 309
f 299 309 313
f 299 313 317
f 299 317 320
f 299 320 316
f 299 316 312
f 299 312 308
f 299 308 304
f 302 304 303
f 303 304 308
f 303 308 307
f 305 306 310
f 305 310 309
f 307 308 311
f 308 312 311
f 309 310 314
f 309 314 313
f 311 312 315
f 312 316 315
f 313 314 318
f 313 318 317
f 315 316 320
f 315 320 319
f 317 318 319
f 317 319 320

