# https://github.com/mikedh/trimesh

o geometry_0
v 0.18422375 60.04442906 -21.06371877 0.54509804 0.71372549 0.60000000
v 0.15459598 59.88119617 -27.40126046 0.54509804 0.71372549 0.60000000
v 0.00316341 58.61525831 -27.27138139 0.54509804 0.71372549 0.60000000
v 0.05254340 58.11914595 -21.06371877 0.54509804 0.71372549 0.60000000
v 33.53878154 59.78282961 -21.06371877 0.54509804 0.71372549 0.60000000
v 33.29517650 60.03017443 -27.35926054 0.54509804 0.71372549 0.60000000
v 0.43112368 57.60093800 -27.66424832 0.54509804 0.71372549 0.60000000
v 0.24677188 57.00147042 -27.60997002 0.54509804 0.71372549 0.60000000
v 33.57499452 59.17480972 -27.59898627 0.54509804 0.71372549 0.60000000
v 0.24347927 56.55169019 -27.42775230 0.54509804 0.71372549 0.60000000
v 0.36857555 55.35418004 -27.12793388 0.54509804 0.71372549 0.60000000
v 0.36857555 55.35418004 -24.72874150 0.54509804 0.71372549 0.60000000
v 1.05989651 52.76242664 -24.44959824 0.54509804 0.71372549 0.60000000
v 0.46404405 57.10625293 -21.06371877 0.54509804 0.71372549 0.60000000
v 33.56182866 58.01436344 -21.06371877 0.54509804 0.71372549 0.60000000
v 33.62766712 59.47418668 -27.27784309 0.54509804 0.71372549 0.60000000
v 32.80466809 52.76242664 -27.66489335 0.54509804 0.71372549 0.60000000
v 0.64839585 54.71622131 -27.64098619 0.54509804 0.71372549 0.60000000
v 0.43112368 57.15116005 -27.65907896 0.54509804 0.71372549 0.60000000
v 33.10753095 55.65284565 -27.66489335 0.54509804 0.71372549 0.60000000
v 0.57926364 53.67338945 -27.50335307 0.54509804 0.71372549 0.60000000
v 33.56511784 58.27168559 -27.36701458 0.54509804 0.71372549 0.60000000
v 33.26884020 53.20436592 -27.42258294 0.54509804 0.71372549 0.60000000
v 33.24908683 54.26715472 -27.62612313 0.54509804 0.71372549 0.60000000
v 33.10753095 54.90368845 -27.66360101 0.54509804 0.71372549 0.60000000
v 0.78666027 52.76242664 -27.43615137 0.54509804 0.71372549 0.60000000
v 33.17995462 53.00905553 -24.58658633 0.54509804 0.71372549 0.60000000
v 33.39064272 57.22101277 -21.06371877 0.54509804 0.71372549 0.60000000
v 33.36759789 54.15453124 -24.72874150 0.54509804 0.71372549 0.60000000
v 33.44331532 55.65284565 -24.42892308 0.54509804 0.71372549 0.60000000
v 33.44331532 55.65284565 -25.62819676 0.54509804 0.71372549 0.60000000
v 33.36759789 54.15453124 -27.12793388 0.54509804 0.71372549 0.60000000
f 1 2 3
f 1 3 4
f 1 4 14
f 1 14 28
f 1 28 15
f 1 15 5
f 1 5 6
f 1 6 2
f 2 7 8
f 2 8 3
f 2 6 9
f 2 9 7
f 3 8 10
f 3 10 11
f 3 11 4
f 4 12 13
f 4 13 14
f 4 11 12
f 5 15 16
f 5 16 6
f 6 16 9
f 7 17 18
f 7 18 19
f 7 19 8
f 7 9 20
f 7 20 17
f 8 19 18
f 8 18 21
f 8 21 10
f 9 16 22
f 9 22 23
f 9 23 24
f 9 24 25
f 9 25 20
f 10 21 11
f 11 21 12
f 12 21 26
f 12 26 13
f 13 26 17
f 13 17 27
f 13 27 28
f 13 28 14
f 15 28 27
f 15 27 29
f 15 29 30
f 15 30 31
f 15 31 16
f 16 31 32
f 16 32 22
f 17 26 18
f 17 20 25
f 17 25 24
f 17 24 23
f 17 23 27
f 18 26 21
f 22 32 23
f 23 32 29
f 23 29 27
f 29 32 31
f 29 31 30

o geometry_1
v 33.62764882 59.39972728 39.27185944 0.54117647 0.42352941 0.64313725
v 33.56822860 58.12332032 39.15892718 0.54117647 0.42352941 0.64313725
v 33.56162737 58.01553684 -21.06371877 0.54117647 0.42352941 0.64313725
v 33.60454223 59.74638333 -21.06371877 0.54117647 0.42352941 0.64313725
v 33.31074406 60.10808999 39.12326315 0.54117647 0.42352941 0.64313725
v 33.57813273 59.39972728 39.59876669 0.54117647 0.42352941 0.64313725
v 33.55832676 58.47774184 39.55716018 0.54117647 0.42352941 0.64313725
v 33.36356304 57.28532787 39.39073418 0.54117647 0.42352941 0.64313725
v 33.35035601 55.20491357 27.62199777 0.54117647 0.42352941 0.64313725
v 33.44278694 55.65304007 27.42585250 0.54117647 0.42352941 0.64313725
v 33.53191727 57.45234400 -21.06371877 0.54117647 0.42352941 0.64313725
v 33.10607392 60.16489350 -21.06371877 0.54117647 0.42352941 0.64313725
v 0.28322389 60.16197944 39.12326315 0.54117647 0.42352941 0.64313725
v 33.28103395 59.95321041 39.58687944 0.54117647 0.42352941 0.64313725
v 0.55721608 57.52711219 39.65820520 0.54117647 0.42352941 0.64313725
v 0.73217383 57.05859416 39.57499219 0.54117647 0.42352941 0.64313725
v 0.82460476 55.20491357 24.09137730 0.54117647 0.42352941 0.64313725
v 32.80567452 55.20491357 24.06165805 0.54117647 0.42352941 0.64313725
v 33.24802323 56.99305077 -21.06371877 0.54117647 0.42352941 0.64313725
v 33.38997025 55.42922042 24.38262396 0.54117647 0.42352941 0.64313725
v 0.52090360 55.22384808 27.71709802 0.54117647 0.42352941 0.64313725
v 0.43177328 60.16489350 -21.06371877 0.54117647 0.42352941 0.64313725
v -0.09640284 59.84542693 39.28968916 0.54117647 0.42352941 0.64313725
v 0.43177328 59.97311703 39.59282421 0.54117647 0.42352941 0.64313725
v -0.06339098 59.92359409 -21.06371877 0.54117647 0.42352941 0.64313725
v -0.02707964 59.05889936 39.50366644 0.54117647 0.42352941 0.64313725
v 0.18088997 57.32902499 39.28968916 0.54117647 0.42352941 0.64313725
v 0.38885957 55.24229767 24.57876922 0.54117647 0.42352941 0.64313725
v 0.73217383 56.93576006 -21.06371877 0.54117647 0.42352941 0.64313725
v 0.02573820 58.35053894 39.12326315 0.54117647 0.42352941 0.64313725
v 0.05214769 58.11943644 -21.06371877 0.54117647 0.42352941 0.64313725
v 0.19739533 57.27950204 -21.06371877 0.54117647 0.42352941 0.64313725
f 33 34 35
f 33 35 36
f 33 36 37
f 33 37 38
f 33 38 39
f 33 39 34
f 34 39 40
f 34 40 41
f 34 41 42
f 34 42 35
f 35 42 43
f 35 43 51
f 35 51 61
f 35 61 64
f 35 64 63
f 35 63 57
f 35 57 54
f 35 54 44
f 35 44 36
f 36 44 37
f 37 45 46
f 37 46 38
f 37 44 45
f 38 46 47
f 38 47 39
f 39 47 40
f 40 47 48
f 40 48 41
f 41 49 50
f 41 50 51
f 41 51 43
f 41 43 52
f 41 52 42
f 41 48 53
f 41 53 49
f 42 52 43
f 44 54 45
f 45 55 56
f 45 56 46
f 45 54 57
f 45 57 55
f 46 56 47
f 47 56 58
f 47 58 59
f 47 59 48
f 48 59 53
f 49 53 60
f 49 60 61
f 49 61 50
f 50 61 51
f 53 59 60
f 55 62 58
f 55 58 56
f 55 57 63
f 55 63 62
f 58 62 59
f 59 62 60
f 60 63 64
f 60 64 61
f 60 62 63

o geometry_2
v 0.91639010 52.75834834 -25.90304213 0.43529412 0.89019608 0.96078431
v -14.25775671 22.97701479 -27.66456855 0.43529412 0.89019608 0.96078431
v -15.75291460 20.13059941 -27.47489185 0.43529412 0.89019608 0.96078431
v -15.24969093 21.36214271 -24.44982240 0.43529412 0.89019608 0.96078431
v 32.97758325 51.62467752 -24.42114388 0.43529412 0.89019608 0.96078431
v 33.20016317 52.50551622 -27.41362118 0.43529412 0.89019608 0.96078431
v -15.78194537 16.92532394 -27.65772486 0.43529412 0.89019608 0.96078431
v 32.90984174 48.19103635 -27.62839216 0.43529412 0.89019608 0.96078431
v 27.88243824 31.31644108 -27.66065721 0.43529412 0.89019608 0.96078431
v 23.96309433 24.32681925 -27.66359186 0.43529412 0.89019608 0.96078431
v 20.51310448 18.18133480 -27.66424374 0.43529412 0.89019608 0.96078431
v -16.22226750 11.10607712 -27.50291848 0.43529412 0.89019608 0.96078431
v -16.17871906 11.88904332 -24.45927364 0.43529412 0.89019608 0.96078431
v -15.79162305 16.82337429 -24.39572251 0.43529412 0.89019608 0.96078431
v 30.78081485 36.76051574 -24.33575563 0.43529412 0.89019608 0.96078431
v 32.91467944 48.31745241 -24.43352747 0.43529412 0.89019608 0.96078431
v 32.95822788 46.13982209 -27.33116529 0.43529412 0.89019608 0.96078431
v 32.96306787 46.65364523 -27.58439540 0.43529412 0.89019608 0.96078431
v 20.21310536 17.58187523 -27.66196099 0.43529412 0.89019608 0.96078431
v 17.64859747 12.87590997 -27.63360727 0.43529412 0.89019608 0.96078431
v 25.90824975 27.77269478 -27.66163619 0.43529412 0.89019608 0.96078431
v 32.60016493 42.46965973 -27.49574999 0.43529412 0.89019608 0.96078431
v 29.02920858 33.40843383 -24.35889424 0.43529412 0.89019608 0.96078431
v 19.46794641 15.62853231 -27.58081116 0.43529412 0.89019608 0.96078431
v 17.90504815 13.42235728 -24.35824235 0.43529412 0.89019608 0.96078431
v 21.11310271 19.22937033 -24.34357829 0.43529412 0.89019608 0.96078431
v 28.60824182 32.86198767 -24.33543082 0.43529412 0.89019608 0.96078431
v 32.75984103 44.63505513 -24.50294560 0.43529412 0.89019608 0.96078431
v 24.71309213 25.67662372 -24.34325120 0.43529412 0.89019608 0.96078431
v 26.65824755 29.12249867 -24.34683544 0.43529412 0.89019608 0.96078431
v 19.91310624 16.98241451 -27.65804966 0.43529412 0.89019608 0.96078431
v 19.91310624 16.98241451 -24.35465811 0.43529412 0.89019608 0.96078431
f 65 66 67
f 65 67 68
f 65 68 69
f 65 69 70
f 65 70 66
f 66 71 67
f 66 70 72
f 66 72 73
f 66 73 74
f 66 74 75
f 66 75 71
f 67 71 76
f 67 76 77
f 67 77 78
f 67 78 68
f 68 78 69
f 69 79 80
f 69 80 70
f 69 78 79
f 70 80 81
f 70 81 82
f 70 82 72
f 71 75 83
f 71 83 84
f 71 84 76
f 72 82 73
f 73 85 74
f 73 82 86
f 73 86 79
f 73 79 87
f 73 87 88
f 73 88 85
f 74 85 83
f 74 83 75
f 76 84 89
f 76 89 77
f 77 89 78
f 78 89 90
f 78 90 91
f 78 91 79
f 79 86 92
f 79 92 80
f 79 91 93
f 79 93 94
f 79 94 87
f 80 92 81
f 81 92 86
f 81 86 82
f 83 95 84
f 83 85 95
f 84 95 88
f 84 88 89
f 85 88 95
f 87 94 88
f 88 94 96
f 88 96 89
f 89 96 90
f 90 96 94
f 90 94 93
f 90 93 91

o geometry_3
v 0.77036306 55.20491357 27.80737658 0.38039216 0.78823529 0.52549020
v 0.66380444 55.20491357 24.29843312 0.38039216 0.78823529 0.52549020
v -15.77045840 20.80452752 27.31924928 0.38039216 0.78823529 0.52549020
v -15.86733133 17.61781487 27.49787361 0.38039216 0.78823529 0.52549020
v -16.24512935 10.32239041 27.49993449 0.38039216 0.78823529 0.52549020
v 20.13983537 17.42535907 27.65623221 0.38039216 0.78823529 0.52549020
v 24.70733035 25.67858739 27.66378954 0.38039216 0.78823529 0.52549020
v 28.90671300 33.16646652 27.66310334 0.38039216 0.78823529 0.52549020
v 33.23687250 53.49966458 27.52192029 0.38039216 0.78823529 0.52549020
v 33.20781200 54.52460266 24.47087480 0.38039216 0.78823529 0.52549020
v 30.25322886 35.58783225 24.37331796 0.38039216 0.78823529 0.52549020
v 28.60641195 32.56224473 24.35167641 0.38039216 0.78823529 0.52549020
v 23.51096615 23.57947476 24.34034155 0.38039216 0.78823529 0.52549020
v 21.41369653 19.98099555 24.33587554 0.38039216 0.78823529 0.52549020
v -15.81889487 16.44517599 24.38327928 0.38039216 0.78823529 0.52549020
v -15.91576780 18.93815226 24.66495690 0.38039216 0.78823529 0.52549020
v -16.21122428 13.56281296 27.44909633 0.38039216 0.78823529 0.52549020
v -16.19669517 12.65424156 24.50316387 0.38039216 0.78823529 0.52549020
v -16.18216377 9.48095552 24.46950012 0.38039216 0.78823529 0.52549020
v 18.88534902 14.80258721 24.48220966 0.38039216 0.78823529 0.52549020
v 20.66294163 17.72523239 24.58388826 0.38039216 0.78823529 0.52549020
v 28.16564608 31.21505296 27.58993400 0.38039216 0.78823529 0.52549020
v 29.11983024 33.05457385 27.61672776 0.38039216 0.78823529 0.52549020
v 28.60641195 32.56224473 27.65966778 0.38039216 0.78823529 0.52549020
v 30.41306736 35.37747239 27.59199488 0.38039216 0.78823529 0.52549020
v 32.66048864 40.48874536 27.48172965 0.38039216 0.78823529 0.52549020
v 32.74767245 41.85384004 27.13581699 0.38039216 0.78823529 0.52549020
v 32.60720762 40.26943518 24.61583538 0.38039216 0.78823529 0.52549020
v 28.69844032 32.27132287 24.48392744 0.38039216 0.78823529 0.52549020
v 23.98079368 23.69584316 24.54988141 0.38039216 0.78823529 0.52549020
v 27.86050047 30.61978263 24.58217162 0.38039216 0.78823529 0.52549020
f 97 98 99
f 97 99 100
f 97 100 101
f 97 101 102
f 97 102 103
f 97 103 104
f 97 104 105
f 97 105 106
f 97 106 98
f 98 106 107
f 98 107 108
f 98 108 109
f 98 109 110
f 98 110 111
f 98 111 112
f 98 112 99
f 99 112 113
f 99 113 100
f 100 113 101
f 101 113 114
f 101 114 115
f 101 115 116
f 101 116 102
f 102 116 117
f 102 117 118
f 102 118 119
f 102 119 120
f 102 120 103
f 103 120 104
f 104 120 119
f 104 119 121
f 104 121 105
f 105 121 122
f 105 122 123
f 105 123 106
f 106 123 124
f 106 124 107
f 107 124 125
f 107 125 108
f 108 125 116
f 108 116 109
f 109 116 110
f 110 116 115
f 110 115 111
f 111 115 114
f 111 114 112
f 112 114 113
f 116 125 126
f 116 126 117
f 117 127 118
f 117 126 127
f 118 127 121
f 118 121 119
f 121 124 122
f 121 127 125
f 121 125 124
f 122 124 123
f 125 127 126

o geometry_4
v -0.58242694 9.37075662 24.34480070 0.56470588 0.92549020 0.07058824
v -0.62072825 9.37075662 27.66261386 0.56470588 0.92549020 0.07058824
v 0.15195869 9.28207919 27.65739875 0.56470588 0.92549020 0.07058824
v 0.15195869 9.27647752 24.35490040 0.56470588 0.92549020 0.07058824
v -6.29098538 -0.16540327 24.34610333 0.56470588 0.92549020 0.07058824
v -16.35756526 3.26317148 24.33665552 0.56470588 0.92549020 0.07058824
v -16.35756526 4.31143917 24.34186834 0.56470588 0.92549020 0.07058824
v -16.35756526 5.35970686 24.35261993 0.56470588 0.92549020 0.07058824
v -15.97288696 9.23073896 24.39399884 0.56470588 0.92549020 0.07058824
v -16.31426842 9.34648692 27.44072929 0.56470588 0.92549020 0.07058824
v -16.52242673 6.85883327 27.60201109 0.56470588 0.92549020 0.07058824
v -16.42584201 5.92164624 27.64208737 0.56470588 0.92549020 0.07058824
v -16.35756526 5.13474469 27.66359054 0.56470588 0.92549020 0.07058824
v -16.35756526 4.38798232 27.66489432 0.56470588 0.92549020 0.07058824
v -16.35756526 -0.16540327 27.66489432 0.56470588 0.92549020 0.07058824
v -5.91962962 -0.16540327 27.36676853 0.56470588 0.92549020 0.07058824
v 0.15195869 5.92444708 27.37263324 0.56470588 0.92549020 0.07058824
v 0.15195869 6.08780120 24.47284762 0.56470588 0.92549020 0.07058824
v -5.83303480 -0.16540327 24.82733776 0.56470588 0.92549020 0.07058824
v -16.66231058 0.03155629 24.46014037 0.56470588 0.92549020 0.07058824
v -16.83216758 1.08915742 24.52758453 0.56470588 0.92549020 0.07058824
v -16.57405173 5.43438356 24.47936308 0.56470588 0.92549020 0.07058824
v -16.50077946 6.39023975 24.47186979 0.56470588 0.92549020 0.07058824
v -16.51743121 7.64386721 24.56212205 0.56470588 0.92549020 0.07058824
v -16.50910533 7.72507880 27.46027908 0.56470588 0.92549020 0.07058824
v -16.82384171 0.86419640 27.60298778 0.56470588 0.92549020 0.07058824
v -16.85381714 0.02408816 27.33158027 0.56470588 0.92549020 0.07058824
v -16.86047784 0.78951970 27.43551647 0.56470588 0.92549020 0.07058824
v -16.81551583 1.82098582 24.60871378 0.56470588 0.92549020 0.07058824
v -16.67729716 4.68482035 24.73806334 0.56470588 0.92549020 0.07058824
v -16.67729716 4.68482035 27.13608918 0.56470588 0.92549020 0.07058824
v -16.81551583 1.75377726 27.35895044 0.56470588 0.92549020 0.07058824
f 128 129 130
f 128 130 131
f 128 131 132
f 128 132 133
f 128 133 134
f 128 134 135
f 128 135 136
f 128 136 137
f 128 137 129
f 129 137 138
f 129 138 139
f 129 139 140
f 129 140 141
f 129 141 142
f 129 142 130
f 130 143 144
f 130 144 145
f 130 145 131
f 130 142 143
f 131 145 132
f 132 145 146
f 132 146 143
f 132 143 142
f 132 142 147
f 132 147 133
f 133 147 148
f 133 148 134
f 134 148 135
f 135 148 149
f 135 149 150
f 135 150 136
f 136 150 151
f 136 151 137
f 137 151 152
f 137 152 138
f 138 152 153
f 138 153 139
f 139 153 140
f 140 153 141
f 141 153 142
f 142 153 154
f 142 154 147
f 143 146 144
f 144 146 145
f 147 154 148
f 148 154 155
f 148 155 156
f 148 156 151
f 148 151 149
f 149 151 150
f 151 156 157
f 151 157 158
f 151 158 152
f 152 158 159
f 152 159 155
f 152 155 153
f 153 155 154
f 155 159 156
f 156 159 158
f 156 158 157

o geometry_5
v 15.94457220 9.20389373 -25.03026398 0.08627451 0.01960784 0.83137255
v 16.76927814 1.25173843 -24.57692695 0.08627451 0.01960784 0.83137255
v 16.79884929 0.65296163 -27.54430997 0.08627451 0.01960784 0.83137255
v 15.89528713 9.20389373 -27.33670748 0.08627451 0.01960784 0.83137255
v 15.62750389 9.20389373 -24.42798756 0.08627451 0.01960784 0.83137255
v 16.73806411 0.48949314 -24.45210515 0.08627451 0.01960784 0.83137255
v 16.87277688 0.02296051 -24.66329189 0.08627451 0.01960784 0.83137255
v 16.84156343 -0.06061161 -27.33018860 0.08627451 0.01960784 0.83137255
v 16.31749706 -0.17816198 -27.66456855 0.08627451 0.01960784 0.83137255
v 16.31749706 2.43827054 -27.66391666 0.08627451 0.01960784 0.83137255
v 16.01850036 5.28429594 -27.66196099 0.08627451 0.01960784 0.83137255
v 15.71950310 7.60776860 -27.66359186 0.08627451 0.01960784 0.83137255
v 15.41886353 9.20389373 -27.66456855 0.08627451 0.01960784 0.83137255
v 0.58237098 9.20389373 -27.66424374 0.08627451 0.01960784 0.83137255
v 0.35894475 9.20022028 -24.33673231 0.08627451 0.01960784 0.83137255
v 15.71950310 7.83276851 -24.35107386 0.08627451 0.01960784 0.83137255
v 16.31749706 2.36388320 -24.34520687 0.08627451 0.01960784 0.83137255
v 16.45056696 -0.16897836 -24.34585875 0.08627451 0.01960784 0.83137255
v 16.01850036 5.28429594 -24.35205055 0.08627451 0.01960784 0.83137255
v 6.19267122 -0.17816198 -24.38366372 0.08627451 0.01960784 0.83137255
v 6.21567102 -0.17816198 -27.62969594 0.08627451 0.01960784 0.83137255
v 0.08951921 5.95286827 -27.46641729 0.08627451 0.01960784 0.83137255
v 0.08951921 9.19838356 -27.53420684 0.08627451 0.01960784 0.83137255
v 0.08951921 6.30460333 -24.34097073 0.08627451 0.01960784 0.83137255
v 16.31749706 1.53918698 -24.33575563 0.08627451 0.01960784 0.83137255
v 16.01850036 4.08766069 -24.33543082 0.08627451 0.01960784 0.83137255
v 15.71950310 7.00807458 -24.33738420 0.08627451 0.01960784 0.83137255
v 16.01850036 4.98490753 -24.34423018 0.08627451 0.01960784 0.83137255
v 16.01850036 4.68551913 -24.33933987 0.08627451 0.01960784 0.83137255
v 0.08951921 5.86011254 -24.60430169 0.08627451 0.01960784 0.83137255
v 5.80496107 -0.17816198 -24.89729244 0.08627451 0.01960784 0.83137255
v 5.80331819 -0.17816198 -27.12812601 0.08627451 0.01960784 0.83137255
f 160 161 162
f 160 162 163
f 160 163 172
f 160 172 173
f 160 173 164
f 160 164 161
f 161 165 166
f 161 166 162
f 161 164 165
f 162 166 167
f 162 167 168
f 162 168 169
f 162 169 170
f 162 170 171
f 162 171 163
f 163 171 172
f 164 173 174
f 164 174 175
f 164 175 165
f 165 176 177
f 165 177 166
f 165 175 178
f 165 178 176
f 166 177 167
f 167 177 168
f 168 177 179
f 168 179 190
f 168 190 191
f 168 191 180
f 168 180 173
f 168 173 172
f 168 172 169
f 169 172 171
f 169 171 170
f 173 180 181
f 173 181 182
f 173 182 174
f 174 182 183
f 174 183 184
f 174 184 185
f 174 185 186
f 174 186 175
f 175 186 187
f 175 187 178
f 176 178 187
f 176 187 188
f 176 188 184
f 176 184 177
f 177 184 183
f 177 183 179
f 179 183 189
f 179 189 190
f 180 191 181
f 181 189 183
f 181 183 182
f 181 191 189
f 184 188 186
f 184 186 185
f 186 188 187
f 189 191 190

o geometry_6
v 15.99991982 9.37075662 24.82820580 0.77647059 0.86666667 0.97647059
v 15.97698250 9.37075662 27.36734265 0.77647059 0.86666667 0.97647059
v 16.89119216 0.02595462 27.14279334 0.77647059 0.86666667 0.97647059
v 16.77322892 1.17036901 24.57302117 0.77647059 0.86666667 0.97647059
v 15.56902949 9.37075662 24.35401177 0.77647059 0.86666667 0.97647059
v 16.77650552 0.88473203 27.59515139 0.77647059 0.86666667 0.97647059
v 15.54281556 9.37075662 27.66000630 0.77647059 0.86666667 0.97647059
v 16.80599605 -0.05525469 24.58019080 0.77647059 0.86666667 0.97647059
v 16.79452738 0.33959536 27.57527222 0.77647059 0.86666667 0.97647059
v 16.51764400 -0.15140024 27.63034880 0.77647059 0.86666667 0.97647059
v 16.73718521 0.48894646 24.45439117 0.77647059 0.86666667 0.97647059
v 15.71812098 6.78415772 24.33543523 0.77647059 0.86666667 0.97647059
v 0.88106403 9.37075662 24.33706495 0.77647059 0.86666667 0.97647059
v 16.31776353 2.13835949 24.34064920 0.77647059 0.86666667 0.97647059
v 15.71812098 7.23314768 24.33934656 0.77647059 0.86666667 0.97647059
v 16.31776353 2.43799835 27.66391763 0.77647059 0.86666667 0.97647059
v 0.62056364 9.37075662 27.66456952 0.77647059 0.86666667 0.97647059
v 15.71812098 7.53372092 27.66424472 0.77647059 0.86666667 0.97647059
v 16.31776353 -0.16540327 24.33543523 0.77647059 0.86666667 0.97647059
v 6.19265135 -0.16540327 27.64957837 0.77647059 0.86666667 0.97647059
v 16.31776353 1.53908176 24.33576118 0.77647059 0.86666667 0.97647059
v 16.01794168 4.53640134 24.33804279 0.77647059 0.86666667 0.97647059
v 0.15362844 6.31743066 24.33902062 0.77647059 0.86666667 0.97647059
v 0.29289014 9.32315046 24.35368582 0.77647059 0.86666667 0.97647059
v 0.19622650 9.28207919 27.65968150 0.77647059 0.86666667 0.97647059
v 6.21886513 -0.16540327 24.37324019 0.77647059 0.86666667 0.97647059
v 0.15362844 6.04392910 27.59743186 0.77647059 0.86666667 0.97647059
v 5.82074192 -0.16540327 27.27217835 0.77647059 0.86666667 0.97647059
v 0.15362844 5.85910497 24.60659000 0.77647059 0.86666667 0.97647059
v 5.80599665 -0.16540327 24.88817269 0.77647059 0.86666667 0.97647059
v 0.15362844 5.80589828 27.14768136 0.77647059 0.86666667 0.97647059
v 5.80435807 -0.16540327 26.83611522 0.77647059 0.86666667 0.97647059
f 192 193 194
f 192 194 195
f 192 195 196
f 192 196 204
f 192 204 208
f 192 208 198
f 192 198 193
f 193 197 194
f 193 198 197
f 194 199 195
f 194 197 200
f 194 200 201
f 194 201 199
f 195 199 202
f 195 202 196
f 196 203 204
f 196 202 205
f 196 205 206
f 196 206 203
f 197 207 201
f 197 201 200
f 197 198 207
f 198 208 209
f 198 209 207
f 199 201 210
f 199 210 202
f 201 207 211
f 201 211 210
f 202 210 212
f 202 212 205
f 203 206 213
f 203 213 212
f 203 212 210
f 203 210 204
f 204 214 215
f 204 215 208
f 204 210 214
f 205 212 213
f 205 213 206
f 207 209 208
f 207 208 211
f 208 215 216
f 208 216 211
f 210 211 219
f 210 219 223
f 210 223 221
f 210 221 217
f 210 217 214
f 211 216 218
f 211 218 219
f 214 217 220
f 214 220 222
f 214 222 218
f 214 218 216
f 214 216 215
f 217 221 220
f 218 222 219
f 219 222 223
f 220 221 222
f 221 223 222

o geometry_7
v -0.92177611 9.20389373 -24.33559094 0.79607843 0.45882353 0.78039216
v -6.25508919 -0.17816198 -24.37111315 0.79607843 0.45882353 0.78039216
v -0.25366181 9.20022028 -24.33787140 0.79607843 0.45882353 0.78039216
v -0.12766490 9.20113865 -27.59938884 0.79607843 0.45882353 0.78039216
v -16.32654451 9.19654683 -27.36148840 0.79607843 0.45882353 0.78039216
v -16.20054932 9.11664817 -24.57251469 0.79607843 0.45882353 0.78039216
v -16.35804560 5.06021324 -24.34862642 0.79607843 0.45882353 0.78039216
v -16.35804560 4.23735489 -24.34145793 0.79607843 0.45882353 0.78039216
v -16.35804560 3.33735411 -24.33689471 0.79607843 0.45882353 0.78039216
v -5.80746933 -0.17816198 -24.88015577 0.79607843 0.45882353 0.78039216
v 0.08619800 6.08235850 -24.47279175 0.79607843 0.45882353 0.78039216
v -16.66143225 0.11755297 -24.45519305 0.79607843 0.45882353 0.78039216
v -16.35804560 -0.17816198 -27.66489335 0.79607843 0.45882353 0.78039216
v 0.08619800 5.95286827 -27.46642644 0.79607843 0.45882353 0.78039216
v -5.92849187 -0.17816198 -27.44524350 0.79607843 0.45882353 0.78039216
v -16.35804560 4.38704909 -27.66489335 0.79607843 0.45882353 0.78039216
v -16.35804560 5.13460173 -27.66326477 0.79607843 0.45882353 0.78039216
v -16.52382886 6.93368609 -27.59547751 0.79607843 0.45882353 0.78039216
v -16.51222525 7.70419778 -27.44068028 0.79607843 0.45882353 0.78039216
v -16.50890862 7.94205477 -24.64714335 0.79607843 0.45882353 0.78039216
v -16.52714549 7.23307449 -24.53308115 0.79607843 0.45882353 0.78039216
v -16.50725031 6.05297091 -24.45975627 0.79607843 0.45882353 0.78039216
v -16.83384877 1.08918716 -24.52297802 0.79607843 0.45882353 0.78039216
v -16.84876901 0.38939050 -27.41917253 0.79607843 0.45882353 0.78039216
v -16.82224286 1.26551272 -27.54985446 0.79607843 0.45882353 0.78039216
v -16.55698598 5.28429594 -27.61926801 0.79607843 0.45882353 0.78039216
v -16.48238248 6.15582749 -27.62317934 0.79607843 0.45882353 0.78039216
v -16.80898093 2.02684080 -27.23927873 0.79607843 0.45882353 0.78039216
v -16.75261430 3.18765991 -27.12815117 0.79607843 0.45882353 0.78039216
v -16.60174899 6.18429672 -24.73024428 0.79607843 0.45882353 0.78039216
v -16.81063925 1.96714839 -24.64583957 0.79607843 0.45882353 0.78039216
v -16.75261430 3.18765991 -25.03006498 0.79607843 0.45882353 0.78039216
f 224 225 226
f 224 226 227
f 224 227 228
f 224 228 229
f 224 229 230
f 224 230 231
f 224 231 232
f 224 232 225
f 225 233 234
f 225 234 226
f 225 232 235
f 225 235 236
f 225 236 238
f 225 238 233
f 226 234 227
f 227 234 237
f 227 237 238
f 227 238 236
f 227 236 239
f 227 239 240
f 227 240 241
f 227 241 228
f 228 241 242
f 228 242 243
f 228 243 229
f 229 243 244
f 229 244 230
f 230 244 245
f 230 245 246
f 230 246 231
f 231 246 232
f 232 246 235
f 233 237 234
f 233 238 237
f 235 246 247
f 235 247 236
f 236 247 248
f 236 248 249
f 236 249 239
f 239 249 240
f 240 249 250
f 240 250 241
f 241 249 248
f 241 248 242
f 241 250 249
f 242 248 251
f 242 251 252
f 242 252 243
f 243 252 253
f 243 253 254
f 243 254 244
f 244 254 246
f 244 246 245
f 246 254 251
f 246 251 247
f 247 251 248
f 251 255 252
f 251 254 255
f 252 255 253
f 253 255 254

o geometry_8
v -5.91963076 -0.16540327 27.29176703 0.11764706 0.63921569 0.14117647
v 0.02719237 -6.13832882 27.50130460 0.11764706 0.63921569 0.14117647
v 0.02719237 -6.02831061 24.49185189 0.11764706 0.63921569 0.14117647
v -6.06218621 -0.16540327 24.58668109 0.11764706 0.63921569 0.14117647
v -16.51408027 -0.58794142 24.41429316 0.11764706 0.63921569 0.14117647
v -16.50760027 -1.68175554 27.53878019 0.11764706 0.63921569 0.14117647
v -2.70889659 -16.45462091 27.32728695 0.11764706 0.63921569 0.14117647
v -10.96090462 -12.10168876 27.66489203 0.11764706 0.63921569 0.14117647
v -6.76686288 -14.79954903 27.66489203 0.11764706 0.63921569 0.14117647
v -3.15924180 -16.23458221 24.49022217 0.11764706 0.63921569 0.14117647
v -7.96562305 -14.20002427 24.33608369 0.11764706 0.63921569 0.14117647
v -16.13501279 -3.69239489 24.44622884 0.11764706 0.63921569 0.14117647
v -16.52217970 -2.06124160 24.49836963 0.11764706 0.63921569 0.14117647
v -16.16255222 -3.89967715 27.55409614 0.11764706 0.63921569 0.14117647
v -4.59451515 -16.01294925 27.46610948 0.11764706 0.63921569 0.14117647
v -12.16776537 -11.21196837 27.63295636 0.11764706 0.63921569 0.14117647
v -11.17473780 -12.31694237 27.61177570 0.11764706 0.63921569 0.14117647
v -7.14107094 -14.84578966 27.64664373 0.11764706 0.63921569 0.14117647
v -6.51577142 -15.42299238 27.28590003 0.11764706 0.63921569 0.14117647
v -6.26791996 -15.24122069 24.44427432 0.11764706 0.63921569 0.14117647
v -7.96562305 -14.34990603 24.35042181 0.11764706 0.63921569 0.14117647
v -11.48738584 -11.82265301 24.49315567 0.11764706 0.63921569 0.14117647
v -14.45188912 -8.29566139 24.60199704 0.11764706 0.63921569 0.14117647
v -15.64740929 -5.80667765 27.43287003 0.11764706 0.63921569 0.14117647
v -13.62571529 -9.69242756 24.55930749 0.11764706 0.63921569 0.14117647
v -14.85849604 -7.50479933 27.55637661 0.11764706 0.63921569 0.14117647
v -12.72502487 -10.86756078 27.43547758 0.11764706 0.63921569 0.14117647
v -9.93709762 -13.46177992 24.56680306 0.11764706 0.63921569 0.14117647
v -8.70431916 -14.22234860 27.34879470 0.11764706 0.63921569 0.14117647
v -11.69311959 -11.93267350 27.13599769 0.11764706 0.63921569 0.14117647
v -8.46132713 -14.44079074 24.73821316 0.11764706 0.63921569 0.14117647
v -7.78256931 -14.71823222 24.49902152 0.11764706 0.63921569 0.14117647
f 256 257 258
f 256 258 259
f 256 259 260
f 256 260 261
f 256 261 257
f 257 262 258
f 257 261 263
f 257 263 264
f 257 264 262
f 258 262 265
f 258 265 266
f 258 266 260
f 258 260 259
f 260 267 268
f 260 268 261
f 260 266 267
f 261 268 269
f 261 269 263
f 262 264 270
f 262 270 265
f 263 269 271
f 263 271 272
f 263 272 273
f 263 273 264
f 264 273 270
f 265 270 274
f 265 274 275
f 265 275 276
f 265 276 266
f 266 276 277
f 266 277 267
f 267 278 279
f 267 279 269
f 267 269 268
f 267 277 280
f 267 280 278
f 269 279 281
f 269 281 271
f 270 273 274
f 271 282 272
f 271 281 282
f 272 283 284
f 272 284 273
f 272 282 285
f 272 285 283
f 273 284 274
f 274 284 286
f 274 286 287
f 274 287 275
f 275 287 276
f 276 287 283
f 276 283 277
f 277 283 280
f 278 280 281
f 278 281 279
f 280 283 285
f 280 285 282
f 280 282 281
f 283 286 284
f 283 287 286

o geometry_9
v -5.92741454 -0.18067347 -27.44523435 0.94117647 0.52156863 0.41176471
v -6.03111286 -0.18067347 -24.62581173 0.94117647 0.52156863 0.41176471
v 0.02720781 -5.98588754 -27.37548913 0.94117647 0.52156863 0.41176471
v -3.98304825 -16.05345783 -27.64142993 0.94117647 0.52156863 0.41176471
v -11.56121622 -11.50290967 -27.66456855 0.94117647 0.52156863 0.41176471
v -16.52583028 -2.14387363 -27.46967674 0.94117647 0.52156863 0.41176471
v -16.46911826 -0.57554182 -24.39376685 0.94117647 0.52156863 0.41176471
v 0.02720781 -6.15466034 -24.45340893 0.94117647 0.52156863 0.41176471
v -2.60740784 -16.44514222 -27.36082278 0.94117647 0.52156863 0.41176471
v -5.06217085 -16.00569155 -24.58507441 0.94117647 0.52156863 0.41176471
v -8.26875467 -14.37526564 -27.55538979 0.94117647 0.52156863 0.41176471
v -10.07215406 -13.33077090 -27.41329410 0.94117647 0.52156863 0.41176471
v -11.22419212 -12.36429692 -27.32269302 0.94117647 0.52156863 0.41176471
v -13.02435152 -10.40905896 -27.39667208 0.94117647 0.52156863 0.41176471
v -14.43563765 -8.10034642 -27.56907716 0.94117647 0.52156863 0.41176471
v -16.15477988 -4.00517102 -27.43350035 0.94117647 0.52156863 0.41176471
v -16.51934799 -2.43683921 -27.42763336 0.94117647 0.52156863 0.41176471
v -16.42212967 -2.37315084 -24.52836697 0.94117647 0.52156863 0.41176471
v -15.20366074 -6.16421451 -24.35009489 0.94117647 0.52156863 0.41176471
v -7.06648802 -14.64912517 -24.33543082 0.94117647 0.52156863 0.41176471
v -3.19881944 -16.24134127 -24.49479814 0.94117647 0.52156863 0.41176471
v -6.61604332 -15.15226649 -24.40875800 0.94117647 0.52156863 0.41176471
v -7.29819209 -14.99145130 -24.51598108 0.94117647 0.52156863 0.41176471
v -7.93335114 -14.70962958 -24.73042955 0.94117647 0.52156863 0.41176471
v -8.26551467 -14.44532193 -24.47361519 0.94117647 0.52156863 0.41176471
v -11.23715441 -12.01241891 -24.46286017 0.94117647 0.52156863 0.41176471
v -12.86718004 -10.37402852 -24.48502210 0.94117647 0.52156863 0.41176471
v -15.49369625 -6.32821366 -24.52184808 0.94117647 0.52156863 0.41176471
v -15.79345292 -5.80915025 -24.73042955 0.94117647 0.52156863 0.41176471
v -14.29628904 -8.10512465 -24.39539542 0.94117647 0.52156863 0.41176471
v -8.56365076 -13.90078455 -24.33575563 0.94117647 0.52156863 0.41176471
v -8.26551467 -14.20012034 -24.35074677 0.94117647 0.52156863 0.41176471
f 288 289 290
f 288 290 291
f 288 291 292
f 288 292 293
f 288 293 294
f 288 294 289
f 289 295 290
f 289 294 295
f 290 295 296
f 290 296 291
f 291 297 298
f 291 298 292
f 291 296 297
f 292 299 300
f 292 300 301
f 292 301 302
f 292 302 293
f 292 298 299
f 293 302 303
f 293 303 304
f 293 304 294
f 294 304 305
f 294 305 306
f 294 306 295
f 295 307 308
f 295 308 296
f 295 306 307
f 296 308 297
f 297 308 309
f 297 309 310
f 297 310 311
f 297 311 298
f 298 311 299
f 299 311 312
f 299 312 313
f 299 313 300
f 300 313 314
f 300 314 301
f 301 314 315
f 301 315 302
f 302 315 316
f 302 316 303
f 303 316 304
f 304 316 305
f 305 316 315
f 305 315 306
f 306 315 317
f 306 317 318
f 306 318 307
f 307 318 319
f 307 319 309
f 307 309 308
f 309 319 312
f 309 312 310
f 310 312 311
f 312 319 313
f 313 317 314
f 313 319 318
f 313 318 317
f 314 317 315

o geometry_10
v 6.01357785 -0.16540327 24.61697447 0.26274510 0.77254902 0.45490196
v 0.02884725 -6.03057736 24.58341135 0.26274510 0.77254902 0.45490196
v 0.02884725 -6.00491582 27.34636556 0.26274510 0.77254902 0.45490196
v 6.00230103 -0.16540327 27.35190547 0.26274510 0.77254902 0.45490196
v 16.48645342 -2.28565596 27.58619879 0.26274510 0.77254902 0.45490196
v 16.25447430 -2.44443314 24.43416776 0.26274510 0.77254902 0.45490196
v 2.49684418 -16.45701803 24.56157881 0.26274510 0.77254902 0.45490196
v 0.17544498 -16.55003909 27.50734086 0.26274510 0.77254902 0.45490196
v 7.32812422 -14.50035505 24.33575889 0.26274510 0.77254902 0.45490196
v 6.42920641 -15.09858061 24.34390521 0.26274510 0.77254902 0.45490196
v 1.77996518 -16.29984197 27.66440255 0.26274510 0.77254902 0.45490196
v 16.08210124 -3.88626883 27.63084058 0.26274510 0.77254902 0.45490196
v 16.14976156 -4.13646366 24.61078381 0.26274510 0.77254902 0.45490196
v 15.02692010 -7.01853163 24.51758776 0.26274510 0.77254902 0.45490196
v 7.92740277 -14.34959725 24.34586087 0.26274510 0.77254902 0.45490196
v 2.53067434 -16.51475477 27.13618753 0.26274510 0.77254902 0.45490196
v 6.12795627 -15.39849510 24.40386294 0.26274510 0.77254902 0.45490196
v 4.23668473 -16.06408247 24.52671192 0.26274510 0.77254902 0.45490196
v 2.23103490 -16.48588640 27.61780509 0.26274510 0.77254902 0.45490196
v 2.23103490 -16.29984197 27.65723406 0.26274510 0.77254902 0.45490196
v 4.47671839 -15.88445401 27.60183954 0.26274510 0.77254902 0.45490196
v 8.76027104 -14.15072320 27.50929424 0.26274510 0.77254902 0.45490196
v 12.12074140 -11.36007288 27.44998839 0.26274510 0.77254902 0.45490196
v 14.24076994 -8.51810407 27.45357264 0.26274510 0.77254902 0.45490196
v 12.40104920 -10.98638291 24.58112974 0.26274510 0.77254902 0.45490196
v 10.54038597 -12.94304588 24.54496022 0.26274510 0.77254902 0.45490196
v 8.34303142 -14.42497615 24.49575522 0.26274510 0.77254902 0.45490196
v 6.20367155 -15.59095319 24.66161740 0.26274510 0.77254902 0.45490196
v 2.53067434 -16.46664082 27.60346812 0.26274510 0.77254902 0.45490196
v 7.06231515 -15.08895782 24.50455342 0.26274510 0.77254902 0.45490196
v 8.22704202 -14.55969750 24.73819372 0.26274510 0.77254902 0.45490196
v 10.62576707 -12.94144246 27.35483782 0.26274510 0.77254902 0.45490196
f 320 321 322
f 320 322 323
f 320 323 324
f 320 324 325
f 320 325 321
f 321 326 327
f 321 327 322
f 321 325 328
f 321 328 329
f 321 329 326
f 322 327 330
f 322 330 323
f 323 330 331
f 323 331 324
f 324 331 332
f 324 332 325
f 325 332 333
f 325 333 334
f 325 334 328
f 326 335 327
f 326 329 336
f 326 336 337
f 326 337 335
f 327 335 338
f 327 338 330
f 328 334 329
f 329 334 336
f 330 338 339
f 330 339 331
f 331 339 340
f 331 340 341
f 331 341 342
f 331 342 343
f 331 343 333
f 331 333 332
f 333 343 344
f 333 344 334
f 334 344 345
f 334 345 346
f 334 346 336
f 335 347 340
f 335 340 348
f 335 348 338
f 335 337 347
f 336 346 349
f 336 349 347
f 336 347 337
f 338 348 339
f 339 348 340
f 340 347 341
f 341 350 351
f 341 351 342
f 341 347 350
f 342 344 343
f 342 351 344
f 344 351 345
f 345 351 350
f 345 350 346
f 346 350 347
f 346 347 349

o geometry_11
v 6.03475079 -0.18071464 -24.58572630 0.56470588 0.01568627 0.61568627
v 6.00928196 -0.19644689 -27.32106216 0.56470588 0.01568627 0.61568627
v 0.02886269 -5.99492248 -27.44783961 0.56470588 0.01568627 0.61568627
v 0.02886269 -6.16009732 -24.45080138 0.56470588 0.01568627 0.61568627
v 15.11919378 -6.10818412 -24.33543082 0.56470588 0.01568627 0.61568627
v 16.29076391 -3.15546287 -24.53977387 0.56470588 0.01568627 0.61568627
v 16.27643780 -3.08467234 -27.55506499 0.56470588 0.01568627 0.61568627
v 14.36945274 -7.90781971 -27.66130910 0.56470588 0.01568627 0.61568627
v 14.07019300 -8.20671177 -27.66456855 0.56470588 0.01568627 0.61568627
v 7.92740945 -14.20025072 -27.66456855 0.56470588 0.01568627 0.61568627
v 7.62655787 -14.50071416 -27.66261288 0.56470588 0.01568627 0.61568627
v 3.23794598 -16.25001024 -27.57494416 0.56470588 0.01568627 0.61568627
v 3.09149922 -16.23742536 -24.43841549 0.56470588 0.01568627 0.61568627
v 7.47692808 -14.57464976 -24.34553167 0.56470588 0.01568627 0.61568627
v 7.92740945 -14.20025072 -24.33543082 0.56470588 0.01568627 0.61568627
v 15.11919378 -6.40864756 -24.34520687 0.56470588 0.01568627 0.61568627
v 15.31657821 -6.65090765 -24.51207204 0.56470588 0.01568627 0.61568627
v 15.33090432 -6.08301436 -27.60264599 0.56470588 0.01568627 0.61568627
v 14.24847538 -8.71639713 -27.60166930 0.56470588 0.01568627 0.61568627
v 14.59708136 -7.90781971 -27.61796423 0.56470588 0.01568627 0.61568627
v 8.28715787 -14.43778976 -27.60916488 0.56470588 0.01568627 0.61568627
v 5.68296155 -15.61919254 -27.47130532 0.56470588 0.01568627 0.61568627
v 5.65908442 -15.62076622 -24.48273934 0.56470588 0.01568627 0.61568627
v 7.55333478 -14.83263981 -24.49545003 0.56470588 0.01568627 0.61568627
v 10.20369367 -13.17301158 -24.50750882 0.56470588 0.01568627 0.61568627
v 12.63279130 -10.46097445 -24.40224140 0.56470588 0.01568627 0.61568627
v 14.31533112 -8.00535368 -24.38464041 0.56470588 0.01568627 0.61568627
v 14.49679746 -8.33413196 -27.27804209 0.56470588 0.01568627 0.61568627
v 12.31283810 -11.17831034 -27.48271222 0.56470588 0.01568627 0.61568627
v 8.22507739 -14.56049120 -27.12812601 0.56470588 0.01568627 0.61568627
v 10.26418236 -13.17615666 -27.46511352 0.56470588 0.01568627 0.61568627
v 8.22507739 -14.56049120 -24.73042955 0.56470588 0.01568627 0.61568627
f 352 353 354
f 352 354 355
f 352 355 356
f 352 356 357
f 352 357 358
f 352 358 353
f 353 358 354
f 354 358 359
f 354 359 360
f 354 360 361
f 354 361 362
f 354 362 363
f 354 363 364
f 354 364 355
f 355 364 365
f 355 365 366
f 355 366 356
f 356 367 357
f 356 366 367
f 357 367 368
f 357 368 358
f 358 368 369
f 358 369 359
f 359 370 360
f 359 369 371
f 359 371 370
f 360 370 361
f 361 372 362
f 361 370 372
f 362 372 363
f 363 373 374
f 363 374 364
f 363 372 373
f 364 374 365
f 365 375 376
f 365 376 366
f 365 374 375
f 366 376 377
f 366 377 367
f 367 377 378
f 367 378 368
f 368 378 377
f 368 377 379
f 368 379 369
f 369 379 371
f 370 371 379
f 370 379 377
f 370 377 380
f 370 380 372
f 372 381 373
f 372 380 382
f 372 382 381
f 373 383 374
f 373 381 383
f 374 383 375
f 375 383 376
f 376 382 380
f 376 380 377
f 376 383 382
f 381 382 383

