# https://github.com/mikedh/trimesh

o geometry_0
v 33.67387438 58.52406889 48.83257294 0.54509804 0.71372549 0.60000000
v 33.64733034 57.71900721 48.88934167 0.54509804 0.71372549 0.60000000
v 33.64069679 56.43654630 34.25102705 0.54509804 0.71372549 0.60000000
v 33.65396635 56.91356443 34.97280547 0.54509804 0.71372549 0.60000000
v 33.67387438 58.52406889 -33.32852101 0.54509804 0.71372549 0.60000000
v 33.59092796 59.49067399 49.07586539 0.54509804 0.71372549 0.60000000
v 33.55774792 57.17417099 48.92989041 0.54509804 0.71372549 0.60000000
v 33.24918458 56.28186017 34.71328811 0.54509804 0.71372549 0.60000000
v 33.55111191 56.35920323 -33.47449845 0.54509804 0.71372549 0.60000000
v 33.65396635 56.91356443 -33.32852101 0.54509804 0.71372549 0.60000000
v 33.64733034 57.71900721 -33.39339851 0.54509804 0.71372549 0.60000000
v 33.59092796 59.49067399 -33.57181346 0.54509804 0.71372549 0.60000000
v 33.32549745 59.95778605 49.01098543 0.54509804 0.71372549 0.60000000
v -0.08888601 58.84639844 49.08397907 0.54509804 0.71372549 0.60000000
v 33.18614373 57.55784243 49.17319024 0.54509804 0.71372549 0.60000000
v 33.02357012 57.02024460 48.97855037 0.54509804 0.71372549 0.60000000
v 0.26281016 56.28186017 34.72950810 0.54509804 0.71372549 0.60000000
v 33.02357012 56.28186017 -33.67724216 0.54509804 0.71372549 0.60000000
v 33.46484625 56.91356443 -33.62047589 0.54509804 0.71372549 0.60000000
v 0.15995571 57.88017198 -33.67724216 0.54509804 0.71372549 0.60000000
v 0.28935296 60.00998408 -33.49882720 0.54509804 0.71372549 0.60000000
v 33.32549745 59.95778605 -33.50693351 0.54509804 0.71372549 0.60000000
v 33.18614373 60.17305434 48.50817809 0.54509804 0.71372549 0.60000000
v 0.30594175 60.09190030 48.75147299 0.54509804 0.71372549 0.60000000
v -0.04243518 57.63861537 48.99477036 0.54509804 0.71372549 0.60000000
v 0.32253177 60.17381653 -33.00412616 0.54509804 0.71372549 0.60000000
v -0.08888601 58.84639844 -33.57992715 0.54509804 0.71372549 0.60000000
v -0.22160126 56.28186017 -32.84192874 0.54509804 0.71372549 0.60000000
v -0.21164725 56.28186017 33.93474096 0.54509804 0.71372549 0.60000000
v 0.09359808 57.02176899 48.92989041 0.54509804 0.71372549 0.60000000
v 0.00069765 56.28186017 -33.56370962 0.54509804 0.71372549 0.60000000
v 33.18614373 60.17305434 -33.00412616 0.54509804 0.71372549 0.60000000
f 1 2 3
f 1 3 4
f 1 4 10
f 1 10 5
f 1 5 12
f 1 12 6
f 1 6 2
f 2 6 7
f 2 7 3
f 3 7 8
f 3 8 9
f 3 9 10
f 3 10 4
f 5 10 11
f 5 11 12
f 6 13 14
f 6 14 15
f 6 15 7
f 6 12 22
f 6 22 13
f 7 15 16
f 7 16 8
f 8 17 29
f 8 29 28
f 8 28 31
f 8 31 18
f 8 18 9
f 8 16 17
f 9 18 19
f 9 19 12
f 9 12 11
f 9 11 10
f 12 19 18
f 12 18 20
f 12 20 21
f 12 21 22
f 13 22 32
f 13 32 23
f 13 23 24
f 13 24 14
f 14 25 15
f 14 24 26
f 14 26 27
f 14 27 28
f 14 28 29
f 14 29 25
f 15 25 30
f 15 30 16
f 16 30 17
f 17 30 29
f 18 31 20
f 20 31 27
f 20 27 21
f 21 27 26
f 21 26 32
f 21 32 22
f 23 32 26
f 23 26 24
f 25 29 30
f 27 31 28

o geometry_1
v 0.08753925 56.28185771 34.50788410 0.54117647 0.42352941 0.64313725
v 0.00743078 56.28185771 29.64050332 0.54117647 0.42352941 0.64313725
v -12.48946181 25.54625440 33.37668681 0.54117647 0.42352941 0.64313725
v -14.63824762 18.93903583 33.28377040 0.54117647 0.42352941 0.64313725
v 20.56698655 17.31111523 33.50105235 0.54117647 0.42352941 0.64313725
v 24.65250956 24.95393593 33.53631245 0.54117647 0.42352941 0.64313725
v 33.47855592 54.85647306 33.66210648 0.54117647 0.42352941 0.64313725
v 33.50211756 54.92907822 30.32998928 0.54117647 0.42352941 0.64313725
v 23.82315231 23.54765654 30.40289195 0.54117647 0.42352941 0.64313725
v 20.56227447 17.37225797 30.41861528 0.54117647 0.42352941 0.64313725
v 0.00271869 17.24232964 30.29282124 0.54117647 0.42352941 0.64313725
v -14.61468598 18.62950131 30.50295578 0.54117647 0.42352941 0.64313725
v -13.54029430 22.63816070 30.69641301 0.54117647 0.42352941 0.64313725
v -12.61198087 25.21379136 30.68211818 0.54117647 0.42352941 0.64313725
v -13.54029430 22.71076832 33.19561893 0.54117647 0.42352941 0.64313725
v 25.15200751 26.02775227 30.45864278 0.54117647 0.42352941 0.64313725
v 26.84370657 29.14220151 33.30902608 0.54117647 0.42352941 0.64313725
v 28.27623127 32.53943592 33.52058911 0.54117647 0.42352941 0.64313725
v 30.49098992 37.92380210 33.28472437 0.54117647 0.42352941 0.64313725
v 32.75758149 46.72068961 33.21944365 0.54117647 0.42352941 0.64313725
v 33.23823111 50.19435123 33.13796507 0.54117647 0.42352941 0.64313725
v 33.36546348 51.35223761 30.79218642 0.54117647 0.42352941 0.64313725
v 33.01204377 48.39446604 30.70689441 0.54117647 0.42352941 0.64313725
v 32.48898418 45.33733875 30.70070097 0.54117647 0.42352941 0.64313725
v 31.63606653 41.91335499 30.63827971 0.54117647 0.42352941 0.64313725
v 30.47685245 38.07283692 30.60873607 0.54117647 0.42352941 0.64313725
v 29.47314323 35.38638566 30.57538146 0.54117647 0.42352941 0.64313725
v 28.00292065 31.90890262 30.51058018 0.54117647 0.42352941 0.64313725
v 26.64579173 29.08870161 30.45816579 0.54117647 0.42352941 0.64313725
v 29.52026406 35.29085074 33.32332091 0.54117647 0.42352941 0.64313725
v 31.24495016 40.26632667 33.19704989 0.54117647 0.42352941 0.64313725
v 32.14027779 43.66738066 33.16035883 0.54117647 0.42352941 0.64313725
f 33 34 35
f 33 35 36
f 33 36 37
f 33 37 38
f 33 38 39
f 33 39 40
f 33 40 34
f 34 41 42
f 34 42 43
f 34 43 44
f 34 44 45
f 34 45 46
f 34 46 35
f 34 40 41
f 35 46 47
f 35 47 36
f 36 44 43
f 36 43 37
f 36 47 45
f 36 45 44
f 37 43 42
f 37 42 38
f 38 48 49
f 38 49 50
f 38 50 39
f 38 42 48
f 39 50 51
f 39 51 52
f 39 52 53
f 39 53 54
f 39 54 40
f 40 54 55
f 40 55 56
f 40 56 57
f 40 57 58
f 40 58 59
f 40 59 60
f 40 60 61
f 40 61 41
f 41 61 48
f 41 48 42
f 45 47 46
f 48 61 49
f 49 62 50
f 49 61 60
f 49 60 62
f 50 62 51
f 51 58 63
f 51 63 52
f 51 62 58
f 52 55 53
f 52 63 64
f 52 64 56
f 52 56 55
f 53 55 54
f 56 64 57
f 57 63 58
f 57 64 63
f 58 62 59
f 59 62 60

o geometry_2
v -0.06098600 56.27839833 -29.63855600 0.43529412 0.89019608 0.96078431
v -0.10743745 56.27839833 -33.29329780 0.43529412 0.89019608 0.96078431
v -12.44969493 25.66846244 -30.71812323 0.43529412 0.89019608 0.96078431
v -13.30905190 23.26836146 -30.62694265 0.43529412 0.89019608 0.96078431
v -13.91757315 20.95126100 -30.46826361 0.43529412 0.89019608 0.96078431
v 33.40292165 56.19539782 -29.66421245 0.43529412 0.89019608 0.96078431
v -13.59240627 21.69134930 -33.58933902 0.43529412 0.89019608 0.96078431
v -12.55653000 24.99062452 -33.47486971 0.43529412 0.89019608 0.96078431
v 33.37969685 54.93309818 -33.53684103 0.43529412 0.89019608 0.96078431
v 23.02558103 22.04756085 -33.56723538 0.43529412 0.89019608 0.96078431
v 23.31822803 22.20664434 -30.62417908 0.43529412 0.89019608 0.96078431
v 24.23332968 24.11220040 -30.48681444 0.43529412 0.89019608 0.96078431
v 33.53763336 53.71229634 -30.71062422 0.43529412 0.89019608 0.96078431
v 26.23075844 28.24839827 -30.45879027 0.43529412 0.89019608 0.96078431
v 29.40341966 35.37261821 -30.46076214 0.43529412 0.89019608 0.96078431
v 31.07103953 40.10365348 -30.50062983 0.43529412 0.89019608 0.96078431
v 32.50175709 45.42606801 -30.66365092 0.43529412 0.89019608 0.96078431
v 32.95234182 47.91954517 -30.74535815 0.43529412 0.89019608 0.96078431
v 33.28679273 50.56864768 -30.75601658 0.43529412 0.89019608 0.96078431
v 27.94947730 32.26355352 -33.67065287 0.43529412 0.89019608 0.96078431
v 33.30537552 51.79290891 -33.28106089 0.43529412 0.89019608 0.96078431
v 32.46924335 45.77536203 -33.30237529 0.43529412 0.89019608 0.96078431
v 31.02458993 40.15207127 -33.44052917 0.43529412 0.89019608 0.96078431
v 28.15851034 32.12176077 -33.54907548 0.43529412 0.89019608 0.96078431
v 26.93218136 29.64903373 -33.46500298 0.43529412 0.89019608 0.96078431
v 28.08418778 32.10101064 -30.51799802 0.43529412 0.89019608 0.96078431
v 30.49968386 38.10472246 -30.60010111 0.43529412 0.89019608 0.96078431
v 31.80962557 42.47954741 -30.64588933 0.43529412 0.89019608 0.96078431
v 31.98613995 43.02942641 -33.12317109 0.43529412 0.89019608 0.96078431
v 33.04059902 48.90517808 -33.16067106 0.43529412 0.89019608 0.96078431
v 29.14793456 34.78469711 -33.55578771 0.43529412 0.89019608 0.96078431
v 30.45787627 38.22230693 -33.43579373 0.43529412 0.89019608 0.96078431
f 65 66 67
f 65 67 68
f 65 68 69
f 65 69 70
f 65 70 66
f 66 71 72
f 66 72 67
f 66 70 73
f 66 73 71
f 67 72 68
f 68 72 71
f 68 71 69
f 69 74 75
f 69 75 76
f 69 76 70
f 69 71 74
f 70 77 73
f 70 76 78
f 70 78 79
f 70 79 80
f 70 80 81
f 70 81 82
f 70 82 83
f 70 83 77
f 71 73 84
f 71 84 74
f 73 77 85
f 73 85 86
f 73 86 87
f 73 87 84
f 74 84 88
f 74 88 89
f 74 89 75
f 75 89 88
f 75 88 78
f 75 78 76
f 77 83 85
f 78 88 90
f 78 90 79
f 79 91 80
f 79 90 88
f 79 88 91
f 80 92 81
f 80 91 92
f 81 92 93
f 81 93 82
f 82 93 94
f 82 94 83
f 83 94 85
f 84 95 88
f 84 87 95
f 85 94 86
f 86 93 87
f 86 94 93
f 87 96 95
f 87 93 96
f 88 95 96
f 88 96 91
f 91 93 92
f 91 96 93

o geometry_3
v 2.54868770 16.84395368 -30.30034235 0.38039216 0.78823529 0.52549020
v -2.52943123 16.84395368 -30.30034235 0.38039216 0.78823529 0.52549020
v 2.10877614 16.95588347 -30.30034235 0.38039216 0.78823529 0.52549020
v 0.53304802 16.84395368 -24.63797314 0.38039216 0.78823529 0.52549020
v -0.53317773 16.84395368 -24.63797314 0.38039216 0.78823529 0.52549020
v -2.09349661 16.95382554 -30.30034235 0.38039216 0.78823529 0.52549020
v 1.77225625 17.02055658 -30.30034235 0.38039216 0.78823529 0.52549020
v 0.47936434 16.85249026 -24.63797314 0.38039216 0.78823529 0.52549020
v 0.47936434 16.84395368 -24.58382784 0.38039216 0.78823529 0.52549020
v -0.52174481 16.84395368 -24.61147583 0.38039216 0.78823529 0.52549020
v -0.48695002 16.85123264 -24.63797314 0.38039216 0.78823529 0.52549020
v -1.77636227 17.01895597 -30.30034235 0.38039216 0.78823529 0.52549020
v 1.45015167 17.07025227 -30.30034235 0.38039216 0.78823529 0.52549020
v 0.15676248 16.90150028 -24.63797314 0.38039216 0.78823529 0.52549020
v 0.17714258 16.84395368 -24.41793008 0.38039216 0.78823529 0.52549020
v -0.39349946 16.84395368 -24.49742204 0.38039216 0.78823529 0.52549020
v -0.16484483 16.90089053 -24.63797314 0.38039216 0.78823529 0.52549020
v -1.45376103 17.06941386 -30.30034235 0.38039216 0.78823529 0.52549020
v 0.15676248 17.23328811 -30.30034235 0.38039216 0.78823529 0.52549020
v -0.16484483 16.84517319 -24.41677941 0.38039216 0.78823529 0.52549020
v 0.15676248 16.84547807 -24.41620162 0.38039216 0.78823529 0.52549020
v 0.15676248 16.84395368 -24.41562629 0.38039216 0.78823529 0.52549020
v -0.18025468 16.84395368 -24.41793008 0.38039216 0.78823529 0.52549020
v -0.16484483 17.23252592 -30.30034235 0.38039216 0.78823529 0.52549020
v -0.16484483 16.84395368 -24.41620162 0.38039216 0.78823529 0.52549020
f 97 98 102
f 97 102 108
f 97 108 114
f 97 114 120
f 97 120 115
f 97 115 109
f 97 109 103
f 97 103 99
f 97 99 100
f 97 100 105
f 97 105 111
f 97 111 118
f 97 118 121
f 97 121 119
f 97 119 112
f 97 112 106
f 97 106 101
f 97 101 98
f 98 101 102
f 99 103 100
f 100 104 105
f 100 103 104
f 101 106 107
f 101 107 108
f 101 108 102
f 103 109 104
f 104 110 105
f 104 109 110
f 105 110 111
f 106 112 113
f 106 113 107
f 107 113 114
f 107 114 108
f 109 115 110
f 110 113 116
f 110 116 117
f 110 117 111
f 110 115 113
f 111 117 118
f 112 119 116
f 112 116 113
f 113 115 120
f 113 120 114
f 116 119 121
f 116 121 117
f 117 121 118

o geometry_4
v 22.57918590 20.63177062 -33.01647371 0.56470588 0.92549020 0.07058824
v 22.55698884 20.63065806 -30.86128546 0.56470588 0.92549020 0.07058824
v 20.94406994 17.43205735 -30.59486164 0.56470588 0.92549020 0.07058824
v 20.72580697 17.25592313 -33.55196199 0.56470588 0.92549020 0.07058824
v 22.16485703 20.33401078 -33.59526446 0.56470588 0.92549020 0.07058824
v -13.90387578 20.41150981 -33.64782146 0.56470588 0.92549020 0.07058824
v 21.82081723 20.06814047 -30.33471978 0.56470588 0.92549020 0.07058824
v 22.28323688 20.17419198 -30.52048868 0.56470588 0.92549020 0.07058824
v -13.90387578 20.30582925 -30.33736287 0.56470588 0.92549020 0.07058824
v 20.50014702 16.97559111 -30.48214538 0.56470588 0.92549020 0.07058824
v 19.97483773 16.87139360 -33.67691270 0.56470588 0.92549020 0.07058824
v 21.10314237 18.88525902 -33.67724216 0.56470588 0.92549020 0.07058824
v -14.34409960 18.88525902 -33.67724216 0.56470588 0.92549020 0.07058824
v -14.49947169 19.39289678 -33.54237801 0.56470588 0.92549020 0.07058824
v -14.42548475 20.03291356 -33.01647371 0.56470588 0.92549020 0.07058824
v -14.33670139 20.20978969 -30.64940280 0.56470588 0.92549020 0.07058824
v -0.02018771 17.23330379 -30.30034235 0.56470588 0.92549020 0.07058824
v 21.10314237 18.88525902 -30.32281971 0.56470588 0.92549020 0.07058824
v -14.34409960 19.20749207 -30.34166066 0.56470588 0.92549020 0.07058824
v -14.34409960 18.72469847 -30.32480387 0.56470588 0.92549020 0.07058824
v 2.33260313 16.90031704 -30.30034235 0.56470588 0.92549020 0.07058824
v -2.52465276 16.84432464 -30.30034235 0.56470588 0.92549020 0.07058824
v -14.66594478 16.84432464 -33.67724216 0.56470588 0.92549020 0.07058824
v -14.72513287 17.96750598 -33.63195798 0.56470588 0.92549020 0.07058824
v -15.21344869 16.96557932 -33.25546099 0.56470588 0.92549020 0.07058824
v -14.73993173 18.94310527 -33.01647371 0.56470588 0.92549020 0.07058824
v -14.58085930 19.35173705 -30.62824821 0.56470588 0.92549020 0.07058824
v -1.69229715 17.02824614 -30.30034235 0.56470588 0.92549020 0.07058824
v 1.61492826 17.04604492 -30.30034235 0.56470588 0.92549020 0.07058824
v -14.86201069 18.25562468 -30.58296157 0.56470588 0.92549020 0.07058824
v -14.97299111 17.39979716 -30.58560713 0.56470588 0.92549020 0.07058824
v -15.09876794 17.59706751 -33.01647371 0.56470588 0.92549020 0.07058824
f 122 123 124
f 122 124 125
f 122 125 126
f 122 126 127
f 122 127 123
f 123 128 129
f 123 129 124
f 123 127 130
f 123 130 128
f 124 129 131
f 124 131 125
f 125 131 132
f 125 132 133
f 125 133 126
f 126 133 127
f 127 134 135
f 127 135 136
f 127 136 137
f 127 137 130
f 127 133 134
f 128 138 139
f 128 139 131
f 128 131 129
f 128 130 138
f 130 137 140
f 130 140 141
f 130 141 138
f 131 139 142
f 131 142 143
f 131 143 132
f 132 143 144
f 132 144 133
f 133 144 134
f 134 144 145
f 134 145 135
f 135 145 146
f 135 146 147
f 135 147 136
f 136 147 137
f 137 147 148
f 137 148 140
f 138 149 143
f 138 143 142
f 138 142 150
f 138 150 139
f 138 141 149
f 139 150 142
f 140 148 151
f 140 151 152
f 140 152 141
f 141 152 143
f 141 143 149
f 143 152 144
f 144 152 146
f 144 146 145
f 146 153 147
f 146 152 151
f 146 151 153
f 147 153 148
f 148 153 151

o geometry_5
v -0.28603619 16.88025780 29.82417741 0.08627451 0.01960784 0.83137255
v -2.41755216 16.50240177 24.53061686 0.08627451 0.01960784 0.83137255
v -5.00651753 16.08157396 29.82417741 0.08627451 0.01960784 0.83137255
v 0.00108612 5.79499472 29.82417741 0.08627451 0.01960784 0.83137255
v 0.00108612 6.09135311 24.44984024 0.08627451 0.01960784 0.83137255
v -3.63092753 15.98377582 24.32652088 0.08627451 0.01960784 0.83137255
v -6.06416552 15.35994245 24.45253251 0.08627451 0.01960784 0.83137255
v -7.72038935 14.83242586 24.83056740 0.08627451 0.01960784 0.83137255
v -8.18432602 14.59682113 29.82417741 0.08627451 0.01960784 0.83137255
v -5.52560879 1.74230263 29.82417741 0.08627451 0.01960784 0.83137255
v -5.65213675 1.74230263 24.71317226 0.08627451 0.01960784 0.83137255
v -16.38758211 2.21943878 24.50746091 0.08627451 0.01960784 0.83137255
v -16.05341642 4.11316484 24.37552506 0.08627451 0.01960784 0.83137255
v -14.66647094 7.28567485 24.33136819 0.08627451 0.01960784 0.83137255
v -8.54282292 13.89000814 24.32275170 0.08627451 0.01960784 0.83137255
v -6.69194078 15.11248374 24.37875701 0.08627451 0.01960784 0.83137255
v -8.32058793 14.46790578 24.45360941 0.08627451 0.01960784 0.83137255
v -9.84703834 13.67514862 29.82417741 0.08627451 0.01960784 0.83137255
v -16.56926221 2.27426514 29.82417741 0.08627451 0.01960784 0.83137255
v -16.23347624 4.38581407 24.66955261 0.08627451 0.01960784 0.83137255
v -15.75656137 5.54309070 24.51069163 0.08627451 0.01960784 0.83137255
v -14.95521477 7.38199040 24.45684136 0.08627451 0.01960784 0.83137255
v -14.17495883 8.79561760 24.53007841 0.08627451 0.01960784 0.83137255
v -11.51948462 11.63028002 24.35721641 0.08627451 0.01960784 0.83137255
v -10.00438845 13.42620794 24.59793092 0.08627451 0.01960784 0.83137255
v -11.16423196 12.48230886 24.66955261 0.08627451 0.01960784 0.83137255
v -12.45384766 11.19315170 29.82417741 0.08627451 0.01960784 0.83137255
v -15.38346475 6.64109688 29.82417741 0.08627451 0.01960784 0.83137255
v -16.00313126 5.31637721 29.74339956 0.08627451 0.01960784 0.83137255
v -14.32419649 8.71856466 29.82417741 0.08627451 0.01960784 0.83137255
v -13.63964511 9.95289423 29.82417741 0.08627451 0.01960784 0.83137255
v -12.61281928 11.03163779 24.66955261 0.08627451 0.01960784 0.83137255
f 154 155 156
f 154 156 162
f 154 162 171
f 154 171 180
f 154 180 184
f 154 184 183
f 154 183 181
f 154 181 172
f 154 172 163
f 154 163 157
f 154 157 158
f 154 158 155
f 155 158 159
f 155 159 160
f 155 160 156
f 156 160 161
f 156 161 162
f 157 163 164
f 157 164 158
f 158 164 165
f 158 165 166
f 158 166 167
f 158 167 159
f 159 167 168
f 159 168 169
f 159 169 160
f 160 169 161
f 161 169 170
f 161 170 171
f 161 171 162
f 163 172 165
f 163 165 164
f 165 172 173
f 165 173 166
f 166 173 174
f 166 174 175
f 166 175 167
f 167 176 177
f 167 177 168
f 167 175 176
f 168 170 169
f 168 177 170
f 170 177 178
f 170 178 171
f 171 178 179
f 171 179 180
f 172 181 182
f 172 182 173
f 173 182 174
f 174 182 175
f 175 182 181
f 175 181 183
f 175 183 176
f 176 184 185
f 176 185 177
f 176 183 184
f 177 185 179
f 177 179 178
f 179 185 180
f 180 185 184

o geometry_6
v 1.77262997 -5.63846827 -33.29582042 0.77647059 0.86666667 0.97647059
v 1.79473791 -5.68825185 -30.27142568 0.77647059 0.86666667 0.97647059
v 5.75197560 0.43348700 -30.27075937 0.77647059 0.86666667 0.97647059
v 6.08358794 0.43348700 -33.60922983 0.77647059 0.86666667 0.97647059
v 2.43732864 -16.35856278 -33.53054187 0.77647059 0.86666667 0.97647059
v 2.59797586 -16.51786879 -30.27075937 0.77647059 0.86666667 0.97647059
v 16.01131808 -5.29661916 -30.27075937 0.77647059 0.86666667 0.97647059
v 16.82929465 -0.51904209 -30.39212285 0.77647059 0.86666667 0.97647059
v 16.48147031 -1.11644760 -33.55721867 0.77647059 0.86666667 0.97647059
v 16.26923851 -2.06233822 -33.67258048 0.77647059 0.86666667 0.97647059
v 12.07913506 -10.76121368 -33.67691270 0.77647059 0.86666667 0.97647059
v 4.28846094 -16.00177959 -33.63556734 0.77647059 0.86666667 0.97647059
v 4.34888790 -16.24073982 -33.01608770 0.77647059 0.86666667 0.97647059
v 4.86915042 -16.11794047 -30.27075937 0.77647059 0.86666667 0.97647059
v 14.92362979 -7.54186682 -30.27075937 0.77647059 0.86666667 0.97647059
v 14.92362979 -7.54186682 -33.33849838 0.77647059 0.86666667 0.97647059
v 15.33630274 -6.38854377 -33.59722650 0.77647059 0.86666667 0.97647059
v 16.00394876 -4.61126380 -33.50987411 0.77647059 0.86666667 0.97647059
v 16.46525770 -2.70786524 -33.54587919 0.77647059 0.86666667 0.97647059
v 16.49031300 -2.38593154 -33.56955147 0.77647059 0.86666667 0.97647059
v 16.39156641 -2.22330630 -33.62123317 0.77647059 0.86666667 0.97647059
v 12.24125658 -11.08314738 -33.62823552 0.77647059 0.86666667 0.97647059
v 8.85144364 -14.09506179 -33.58789331 0.77647059 0.86666667 0.97647059
v 7.44540820 -14.65596065 -33.63623610 0.77647059 0.86666667 0.97647059
v 8.86028664 -14.25105102 -33.33849838 0.77647059 0.86666667 0.97647059
v 6.76155033 -15.32140061 -30.27075937 0.77647059 0.86666667 0.97647059
v 13.89047406 -9.51164022 -30.27075937 0.77647059 0.86666667 0.97647059
v 13.72687887 -9.60457139 -33.44385578 0.77647059 0.86666667 0.97647059
v 11.67677879 -11.96929671 -33.33849838 0.77647059 0.86666667 0.97647059
v 10.33853969 -13.08445349 -33.55922005 0.77647059 0.86666667 0.97647059
v 9.41592120 -13.93575579 -30.27075937 0.77647059 0.86666667 0.97647059
v 11.67677879 -11.96929671 -30.27075937 0.77647059 0.86666667 0.97647059
f 186 187 188
f 186 188 189
f 186 189 190
f 186 190 187
f 187 190 191
f 187 191 188
f 188 192 193
f 188 193 189
f 188 191 199
f 188 199 211
f 188 211 216
f 188 216 217
f 188 217 212
f 188 212 200
f 188 200 192
f 189 193 194
f 189 194 195
f 189 195 196
f 189 196 197
f 189 197 190
f 190 197 198
f 190 198 191
f 191 198 199
f 192 200 201
f 192 201 202
f 192 202 203
f 192 203 204
f 192 204 193
f 193 204 205
f 193 205 194
f 194 205 206
f 194 206 195
f 195 206 202
f 195 202 196
f 196 207 208
f 196 208 209
f 196 209 197
f 196 202 207
f 197 209 208
f 197 208 210
f 197 210 198
f 198 210 211
f 198 211 199
f 200 212 201
f 201 212 213
f 201 213 202
f 202 206 205
f 202 205 204
f 202 204 203
f 202 213 207
f 207 213 214
f 207 214 215
f 207 215 208
f 208 215 210
f 210 215 216
f 210 216 211
f 212 214 213
f 212 217 214
f 214 216 215
f 214 217 216

o geometry_7
v -0.00243104 -7.76938923 29.82455359 0.79607843 0.45882353 0.78039216
v -0.00243104 -5.93671739 33.24129158 0.79607843 0.45882353 0.78039216
v 0.07809726 -5.79587616 29.82492977 0.79607843 0.45882353 0.78039216
v 5.70357472 0.74643418 29.82455359 0.79607843 0.45882353 0.78039216
v 0.78477440 -16.79877430 29.82455359 0.79607843 0.45882353 0.78039216
v 5.88435263 0.74643418 33.33406539 0.79607843 0.45882353 0.78039216
v 3.02970612 -16.42777249 33.27975781 0.79607843 0.45882353 0.78039216
v 7.18430960 -14.88022283 33.60182182 0.79607843 0.45882353 0.78039216
v 16.71294506 0.46303310 30.26804993 0.79607843 0.45882353 0.78039216
v 16.78689943 -0.89901812 29.82455359 0.79607843 0.45882353 0.78039216
v 3.05928787 -16.44494891 29.82455359 0.79607843 0.45882353 0.78039216
v 16.28893878 -2.02919506 33.65801276 0.79607843 0.45882353 0.78039216
v 16.75238739 -0.27381465 33.29522052 0.79607843 0.45882353 0.78039216
v 5.32394137 -15.99150471 29.82455359 0.79607843 0.45882353 0.78039216
v 5.18096261 -15.95371708 33.22243588 0.79607843 0.45882353 0.78039216
v 8.97072326 -14.14509371 33.37366262 0.79607843 0.45882353 0.78039216
v 10.83109153 -12.21108444 33.65876758 0.79607843 0.45882353 0.78039216
v 16.13938579 -4.75329749 29.82455359 0.79607843 0.45882353 0.78039216
v 15.63813848 -5.64987905 33.45323572 0.79607843 0.45882353 0.78039216
v 14.65865107 -7.21804239 33.67686847 0.79607843 0.45882353 0.78039216
v 14.76383082 -7.61652254 33.59654301 0.79607843 0.45882353 0.78039216
v 6.92793368 -15.23748301 29.82455359 0.79607843 0.45882353 0.78039216
v 10.41037221 -13.20728727 29.82455359 0.79607843 0.45882353 0.78039216
v 11.19100372 -12.45154694 33.20848280 0.79607843 0.45882353 0.78039216
v 12.46630923 -11.14789456 33.38950151 0.79607843 0.45882353 0.78039216
v 8.21474323 -14.57964286 29.82455359 0.79607843 0.45882353 0.78039216
v 13.86651596 -9.33926873 33.42306511 0.79607843 0.45882353 0.78039216
v 15.11552637 -7.16651313 29.82455359 0.79607843 0.45882353 0.78039216
v 14.82628159 -7.71442518 33.53846626 0.79607843 0.45882353 0.78039216
v 14.83121188 -7.72473201 33.04745080 0.79607843 0.45882353 0.78039216
v 12.64380002 -11.00189745 29.82455359 0.79607843 0.45882353 0.78039216
v 13.66601642 -9.91638020 29.82455359 0.79607843 0.45882353 0.78039216
f 218 219 220
f 218 220 221
f 218 221 227
f 218 227 235
f 218 235 245
f 218 245 249
f 218 249 248
f 218 248 240
f 218 240 243
f 218 243 239
f 218 239 231
f 218 231 228
f 218 228 222
f 218 222 219
f 219 223 221
f 219 221 220
f 219 222 224
f 219 224 225
f 219 225 223
f 221 223 226
f 221 226 227
f 222 228 224
f 223 229 230
f 223 230 226
f 223 225 229
f 224 228 231
f 224 231 232
f 224 232 225
f 225 232 233
f 225 233 234
f 225 234 229
f 226 230 227
f 227 230 235
f 229 236 230
f 229 234 237
f 229 237 238
f 229 238 236
f 230 236 235
f 231 239 232
f 232 239 233
f 233 240 241
f 233 241 242
f 233 242 234
f 233 239 243
f 233 243 240
f 234 242 244
f 234 244 238
f 234 238 237
f 235 236 246
f 235 246 247
f 235 247 245
f 236 238 246
f 238 244 246
f 240 248 241
f 241 248 242
f 242 248 249
f 242 249 244
f 244 249 246
f 245 247 249
f 246 249 247

o geometry_8
v -16.84953338 -0.04758060 30.04066767 0.11764706 0.63921569 0.14117647
v -16.75718492 0.08848831 33.28990237 0.11764706 0.63921569 0.14117647
v -6.29535752 0.68787307 29.82455359 0.11764706 0.63921569 0.14117647
v -16.38119197 -3.46131898 29.82493223 0.11764706 0.63921569 0.14117647
v -16.30698374 -2.04036243 33.64933604 0.11764706 0.63921569 0.14117647
v -5.93915457 0.74643418 33.49357055 0.11764706 0.63921569 0.14117647
v -0.08488510 -5.79513364 29.82493223 0.11764706 0.63921569 0.14117647
v -0.00243042 -7.76897125 29.82417741 0.11764706 0.63921569 0.14117647
v -12.16117116 -11.48240447 29.82417741 0.11764706 0.63921569 0.14117647
v -15.97221813 -5.45582682 29.82455359 0.11764706 0.63921569 0.14117647
v -15.26805623 -6.67182192 33.32120889 0.11764706 0.63921569 0.14117647
v -13.69977242 -8.82650860 33.67724711 0.11764706 0.63921569 0.14117647
v -2.42164588 -16.23959407 33.67045866 0.11764706 0.63921569 0.14117647
v -0.00243042 -5.93636826 33.32196125 0.11764706 0.63921569 0.14117647
v -0.44768472 -16.84931517 29.82455359 0.11764706 0.63921569 0.14117647
v -2.74486794 -16.49450630 29.82417741 0.11764706 0.63921569 0.14117647
v -7.57999929 -14.90475811 29.82417741 0.11764706 0.63921569 0.14117647
v -9.58034529 -13.85583356 29.82455359 0.11764706 0.63921569 0.14117647
v -10.46260866 -13.11693527 33.37061630 0.11764706 0.63921569 0.14117647
v -12.00120991 -11.64258577 33.04738933 0.11764706 0.63921569 0.14117647
v -13.39963748 -10.21301642 29.82455359 0.11764706 0.63921569 0.14117647
v -15.24331933 -6.91467427 29.82455359 0.11764706 0.63921569 0.14117647
v -13.13083610 -10.37491880 33.40418236 0.11764706 0.63921569 0.14117647
v -11.60377840 -11.40662022 33.67272066 0.11764706 0.63921569 0.14117647
v -4.35602887 -16.00190744 33.64368105 0.11764706 0.63921569 0.14117647
v -2.42164588 -16.46867037 33.59766664 0.11764706 0.63921569 0.14117647
v -1.19802084 -16.47383854 33.56975557 0.11764706 0.63921569 0.14117647
v -2.74486794 -16.49450630 33.04738933 0.11764706 0.63921569 0.14117647
v -5.44607627 -15.96746117 29.82417741 0.11764706 0.63921569 0.14117647
v -8.83660583 -14.03668262 33.59728800 0.11764706 0.63921569 0.14117647
v -3.16043845 -16.41183279 33.54599477 0.11764706 0.63921569 0.14117647
v -2.74486794 -16.44455798 33.58069429 0.11764706 0.63921569 0.14117647
f 250 251 252
f 250 252 253
f 250 253 251
f 251 253 254
f 251 254 255
f 251 255 252
f 252 255 256
f 252 256 257
f 252 257 258
f 252 258 259
f 252 259 253
f 253 259 254
f 254 259 260
f 254 260 261
f 254 261 262
f 254 262 255
f 255 263 256
f 255 262 263
f 256 263 257
f 257 264 265
f 257 265 278
f 257 278 266
f 257 266 258
f 257 263 264
f 258 266 267
f 258 267 268
f 258 268 269
f 258 269 270
f 258 270 271
f 258 271 259
f 259 271 260
f 260 271 270
f 260 270 272
f 260 272 261
f 261 272 273
f 261 273 262
f 262 274 275
f 262 275 276
f 262 276 263
f 262 273 274
f 263 276 264
f 264 276 275
f 264 275 277
f 264 277 265
f 265 277 278
f 266 278 279
f 266 279 267
f 267 279 268
f 268 279 273
f 268 273 272
f 268 272 269
f 269 272 270
f 273 279 274
f 274 279 278
f 274 278 280
f 274 280 281
f 274 281 275
f 275 281 277
f 277 281 280
f 277 280 278

o geometry_9
v 6.02104590 -0.00276849 24.57121478 0.94117647 0.52156863 0.41176471
v 3.33319994 -16.16249442 24.38654983 0.94117647 0.52156863 0.41176471
v 0.00271624 -5.92948884 24.71226992 0.94117647 0.52156863 0.41176471
v 5.80628257 -0.00276849 29.82363896 0.94117647 0.52156863 0.41176471
v 16.87981093 -0.25880188 29.82363896 0.94117647 0.52156863 0.41176471
v 16.57088186 -0.33148080 24.40000994 0.94117647 0.52156863 0.41176471
v 16.26856114 -1.90235853 24.32571319 0.94117647 0.52156863 0.41176471
v 0.28190866 -16.87608048 29.82363896 0.94117647 0.52156863 0.41176471
v 7.57064604 -14.46773060 24.32409906 0.94117647 0.52156863 0.41176471
v 7.83166611 -14.54866827 24.37955116 0.94117647 0.52156863 0.41176471
v 5.03809050 -16.05347604 24.73811200 0.94117647 0.52156863 0.41176471
v 0.00271624 -5.79569176 29.82363896 0.94117647 0.52156863 0.41176471
v 16.60227075 -2.06258655 29.82363896 0.94117647 0.52156863 0.41176471
v 16.60227075 -2.06258655 24.99168792 0.94117647 0.52156863 0.41176471
v 16.55105805 -2.38634214 24.66919979 0.94117647 0.52156863 0.41176471
v 16.46515259 -2.70679325 24.46030812 0.94117647 0.52156863 0.41176471
v 16.38585548 -2.30540201 24.38601138 0.94117647 0.52156863 0.41176471
v 14.86433968 -6.84459418 24.34401815 0.94117647 0.52156863 0.41176471
v 5.26937409 -16.01878636 29.82363896 0.94117647 0.52156863 0.41176471
v 10.79044413 -12.69533113 24.41454572 0.94117647 0.52156863 0.41176471
v 6.98087284 -15.17635994 24.65089483 0.94117647 0.52156863 0.41176471
v 9.05251306 -14.05973285 24.54752529 0.94117647 0.52156863 0.41176471
v 16.29499392 -3.99686381 29.82363896 0.94117647 0.52156863 0.41176471
v 16.44532816 -2.95952216 24.48615020 0.94117647 0.52156863 0.41176471
v 14.38690418 -8.59221742 29.82363896 0.94117647 0.52156863 0.41176471
v 13.66662064 -9.91697520 29.82363896 0.94117647 0.52156863 0.41176471
v 12.67705751 -10.87502897 24.48991937 0.94117647 0.52156863 0.41176471
v 16.07857866 -4.47589070 24.61859131 0.94117647 0.52156863 0.41176471
v 7.01886946 -15.18957540 29.82363896 0.94117647 0.52156863 0.41176471
v 12.64236507 -11.00221954 29.82363896 0.94117647 0.52156863 0.41176471
v 9.41926279 -13.93914878 29.82363896 0.94117647 0.52156863 0.41176471
v 16.01084539 -5.34969985 29.82363896 0.94117647 0.52156863 0.41176471
f 282 283 284
f 282 284 285
f 282 285 286
f 282 286 287
f 282 287 288
f 282 288 283
f 283 289 284
f 283 288 290
f 283 290 291
f 283 291 292
f 283 292 289
f 284 293 285
f 284 289 293
f 285 293 289
f 285 289 300
f 285 300 310
f 285 310 312
f 285 312 311
f 285 311 307
f 285 307 306
f 285 306 313
f 285 313 304
f 285 304 294
f 285 294 286
f 286 294 295
f 286 295 287
f 287 295 296
f 287 296 297
f 287 297 298
f 287 298 288
f 288 298 299
f 288 299 290
f 289 292 300
f 290 301 291
f 290 299 301
f 291 302 292
f 291 301 303
f 291 303 302
f 292 302 300
f 294 296 295
f 294 304 296
f 296 304 305
f 296 305 297
f 297 305 299
f 297 299 298
f 299 306 307
f 299 307 308
f 299 308 301
f 299 305 309
f 299 309 306
f 300 302 310
f 301 311 312
f 301 312 303
f 301 308 311
f 302 303 312
f 302 312 310
f 304 313 305
f 305 313 309
f 306 309 313
f 307 311 308

o geometry_10
v -16.78047611 0.05646139 24.53384759 0.26274510 0.77254902 0.45490196
v -16.73940858 -1.17192060 29.65293200 0.26274510 0.77254902 0.45490196
v -16.72955415 1.25568699 29.76817334 0.26274510 0.77254902 0.45490196
v -16.37473544 1.67669121 24.54515634 0.26274510 0.77254902 0.45490196
v -16.36159620 -2.00299524 24.36637135 0.26274510 0.77254902 0.45490196
v -16.24332330 -3.50111291 24.42776119 0.26274510 0.77254902 0.45490196
v -16.62770776 -1.90275684 24.83056740 0.26274510 0.77254902 0.45490196
v -16.26960671 -4.15904649 24.83056740 0.26274510 0.77254902 0.45490196
v -16.12176558 -4.85343017 29.82417741 0.26274510 0.77254902 0.45490196
v -5.52488594 1.74230263 29.82417741 0.26274510 0.77254902 0.45490196
v -5.65137210 1.74230263 24.71317226 0.26274510 0.77254902 0.45490196
v -14.59243728 -7.44689003 24.39060421 0.26274510 0.77254902 0.45490196
v -0.00057964 -6.03989638 24.55269592 0.26274510 0.77254902 0.45490196
v -6.93429893 -14.78986099 24.32382861 0.26274510 0.77254902 0.45490196
v -12.40932567 -10.43948159 24.32275170 0.26274510 0.77254902 0.45490196
v -15.14601661 -7.10607603 29.66316262 0.26274510 0.77254902 0.45490196
v -14.07663821 -9.18011516 29.74339956 0.26274510 0.77254902 0.45490196
v -11.76046959 -11.88474722 29.82417741 0.26274510 0.77254902 0.45490196
v -0.00057964 -5.79567701 29.82417741 0.26274510 0.77254902 0.45490196
v -13.77274393 -9.07623053 24.39491184 0.26274510 0.77254902 0.45490196
v -0.28640438 -16.87665582 29.82417741 0.26274510 0.77254902 0.45490196
v -3.56846324 -16.17316023 24.49130484 0.26274510 0.77254902 0.45490196
v -5.66779862 -15.55349864 24.38683504 0.26274510 0.77254902 0.45490196
v -7.99546531 -14.52012531 24.40568214 0.26274510 0.77254902 0.45490196
v -9.30138952 -13.79475966 24.40406678 0.26274510 0.77254902 0.45490196
v -10.56953224 -12.71764375 24.40999100 0.26274510 0.77254902 0.45490196
v -12.17770832 -11.41635910 24.55431128 0.26274510 0.77254902 0.45490196
v -9.95681646 -13.63802053 29.82417741 0.26274510 0.77254902 0.45490196
v -3.44033590 -16.38274893 29.82417741 0.26274510 0.77254902 0.45490196
v -5.44603816 -15.96721284 29.82417741 0.26274510 0.77254902 0.45490196
v -7.13470566 -15.13067253 24.66955261 0.26274510 0.77254902 0.45490196
v -7.13470566 -15.13067253 29.82417741 0.26274510 0.77254902 0.45490196
f 314 315 316
f 314 316 317
f 314 317 318
f 314 318 319
f 314 319 320
f 314 320 315
f 315 320 321
f 315 321 322
f 315 322 316
f 316 323 317
f 316 322 323
f 317 323 324
f 317 324 318
f 318 325 319
f 318 324 326
f 318 326 327
f 318 327 328
f 318 328 325
f 319 325 321
f 319 321 320
f 321 325 329
f 321 329 322
f 322 329 330
f 322 330 331
f 322 331 341
f 322 341 345
f 322 345 343
f 322 343 342
f 322 342 334
f 322 334 332
f 322 332 323
f 323 332 324
f 324 332 326
f 325 333 329
f 325 328 333
f 326 334 335
f 326 335 336
f 326 336 327
f 326 332 334
f 327 336 337
f 327 337 338
f 327 338 328
f 328 338 339
f 328 339 340
f 328 340 333
f 329 333 330
f 330 340 331
f 330 333 340
f 331 340 341
f 334 342 335
f 335 342 343
f 335 343 336
f 336 344 337
f 336 343 344
f 337 344 338
f 338 344 341
f 338 341 340
f 338 340 339
f 341 344 345
f 343 345 344

o geometry_11
v 20.85358271 17.24232964 32.89954329 0.56470588 0.01568627 0.61568627
v 20.54141001 17.20519111 33.58031565 0.56470588 0.01568627 0.61568627
v 16.66511306 0.74643664 33.48338665 0.56470588 0.01568627 0.61568627
v 16.92557579 0.74643664 30.79272488 0.56470588 0.01568627 0.61568627
v 20.83060009 17.24232964 30.88399889 0.56470588 0.01568627 0.61568627
v 1.28824375 17.24232964 33.67724711 0.56470588 0.01568627 0.61568627
v 16.59042170 1.80568770 33.67724711 0.56470588 0.01568627 0.61568627
v 5.88464291 0.74643664 33.33403097 0.56470588 0.01568627 0.61568627
v 5.70461752 0.74643664 29.82417741 0.56470588 0.01568627 0.61568627
v 16.47551167 0.77065721 29.82455359 0.56470588 0.01568627 0.61568627
v 20.29626863 17.24232964 30.32844031 0.56470588 0.01568627 0.61568627
v 1.52955511 17.24232964 30.32165186 0.56470588 0.01568627 0.61568627
v 1.32846241 16.40429445 29.82455359 0.56470588 0.01568627 0.61568627
v 1.28824375 6.28005277 29.82417741 0.56470588 0.01568627 0.61568627
v 1.30931105 5.90544038 33.47207175 0.56470588 0.01568627 0.61568627
v 1.36868108 5.60510382 29.82493223 0.56470588 0.01568627 0.61568627
v 16.54254298 2.45318659 29.82417741 0.56470588 0.01568627 0.61568627
v 16.13078160 4.96890754 29.82417741 0.56470588 0.01568627 0.61568627
v 15.68837816 6.03784584 29.82417741 0.56470588 0.01568627 0.61568627
v 15.13872597 7.12131746 29.82417741 0.56470588 0.01568627 0.61568627
v 14.39755646 8.57455786 29.82417741 0.56470588 0.01568627 0.61568627
v 14.07006304 9.21559900 29.82417741 0.56470588 0.01568627 0.61568627
v 13.64681158 9.93737496 29.82417741 0.56470588 0.01568627 0.61568627
v 13.09332844 10.55258017 29.82417741 0.56470588 0.01568627 0.61568627
v 10.84109303 12.80994672 29.82417741 0.56470588 0.01568627 0.61568627
v 10.23590038 13.41223396 29.82417741 0.56470588 0.01568627 0.61568627
v 9.68241740 13.82560026 29.82417741 0.56470588 0.01568627 0.61568627
v 8.53906327 14.41819903 29.82417741 0.56470588 0.01568627 0.61568627
v 6.11254764 15.65345306 29.82417741 0.56470588 0.01568627 0.61568627
v 5.40393613 15.99254290 29.82417741 0.56470588 0.01568627 0.61568627
v 4.50955387 16.21698763 29.82417741 0.56470588 0.01568627 0.61568627
v 2.25540267 16.57383906 29.82417741 0.56470588 0.01568627 0.61568627
f 346 347 348
f 346 348 349
f 346 349 350
f 346 350 356
f 346 356 357
f 346 357 351
f 346 351 347
f 347 352 348
f 347 351 352
f 348 352 353
f 348 353 354
f 348 354 349
f 349 354 355
f 349 355 350
f 350 355 356
f 351 357 358
f 351 358 359
f 351 359 360
f 351 360 352
f 352 360 353
f 353 360 361
f 353 361 354
f 354 361 359
f 354 359 377
f 354 377 376
f 354 376 375
f 354 375 374
f 354 374 373
f 354 373 372
f 354 372 371
f 354 371 370
f 354 370 369
f 354 369 368
f 354 368 367
f 354 367 366
f 354 366 365
f 354 365 364
f 354 364 363
f 354 363 362
f 354 362 355
f 355 362 356
f 356 362 363
f 356 363 364
f 356 364 365
f 356 365 366
f 356 366 367
f 356 367 368
f 356 368 369
f 356 369 370
f 356 370 371
f 356 371 372
f 356 372 373
f 356 373 374
f 356 374 375
f 356 375 376
f 356 376 377
f 356 377 357
f 357 377 358
f 358 377 359
f 359 361 360

o geometry_12
v 0.28224365 16.88050305 29.82417741 0.61176471 0.61568627 0.94117647
v 0.22269906 16.55665096 24.42129852 0.61176471 0.61568627 0.94117647
v 0.00271624 5.79517789 29.82417741 0.61176471 0.61568627 0.94117647
v 4.99782451 16.08409166 29.82417741 0.61176471 0.61568627 0.94117647
v 2.34148515 16.37324547 24.39921947 0.61176471 0.61568627 0.94117647
v 8.21487281 14.05010216 24.32275170 0.61176471 0.61568627 0.94117647
v 0.00271624 6.10911593 24.40191296 0.61176471 0.61568627 0.94117647
v 5.92406972 0.00053845 24.71855679 0.61176471 0.61568627 0.94117647
v 5.80828917 0.00053845 29.82417741 0.61176471 0.61568627 0.94117647
v 5.56680355 15.80980863 24.70294041 0.61176471 0.61568627 0.94117647
v 7.89399498 14.74572318 29.82417741 0.61176471 0.61568627 0.94117647
v 7.57146317 14.79859672 24.42614583 0.61176471 0.61568627 0.94117647
v 8.13878837 14.57718786 24.46114899 0.61176471 0.61568627 0.94117647
v 10.32538892 13.03723801 24.44499293 0.61176471 0.61568627 0.94117647
v 11.43522924 11.79470379 24.34590766 0.61176471 0.61568627 0.94117647
v 14.65723978 7.28555929 24.32975160 0.61176471 0.61568627 0.94117647
v 14.81933271 6.64115958 24.32275170 0.61176471 0.61568627 0.94117647
v 16.45845634 1.96182691 24.45630291 0.61176471 0.61568627 0.94117647
v 16.90007669 0.09967782 29.82417741 0.61176471 0.61568627 0.94117647
v 8.18013861 14.59866760 24.66955261 0.61176471 0.61568627 0.94117647
v 10.10705956 13.42718281 29.82417741 0.61176471 0.61568627 0.94117647
v 11.95789606 11.67243306 24.57315961 0.61176471 0.61568627 0.94117647
v 13.45973680 10.04656300 24.64478129 0.61176471 0.61568627 0.94117647
v 14.69197372 7.85064775 24.44391602 0.61176471 0.61568627 0.94117647
v 15.83324058 4.92441259 24.42399202 0.61176471 0.61568627 0.94117647
v 16.45845634 2.77310908 24.46653353 0.61176471 0.61568627 0.94117647
v 16.44026203 3.00443262 24.49076639 0.61176471 0.61568627 0.94117647
v 16.54281037 2.45256208 29.82417741 0.61176471 0.61568627 0.94117647
v 15.05420168 7.28721153 29.82417741 0.61176471 0.61568627 0.94117647
v 13.29433570 10.31919379 29.78378849 0.61176471 0.61568627 0.94117647
v 15.00623507 7.37974070 24.70994154 0.61176471 0.61568627 0.94117647
v 16.07968753 5.08964282 29.82417741 0.61176471 0.61568627 0.94117647
f 378 379 380
f 378 380 386
f 378 386 396
f 378 396 405
f 378 405 409
f 378 409 406
f 378 406 398
f 378 398 388
f 378 388 381
f 378 381 382
f 378 382 379
f 379 382 383
f 379 383 384
f 379 384 380
f 380 384 385
f 380 385 386
f 381 387 382
f 381 388 387
f 382 387 389
f 382 389 383
f 383 389 390
f 383 390 391
f 383 391 392
f 383 392 393
f 383 393 394
f 383 394 384
f 384 394 395
f 384 395 385
f 385 396 386
f 385 395 396
f 387 388 397
f 387 397 390
f 387 390 389
f 388 398 397
f 390 397 391
f 391 397 398
f 391 398 399
f 391 399 392
f 392 399 400
f 392 400 401
f 392 401 393
f 393 401 402
f 393 402 394
f 394 402 403
f 394 403 395
f 395 403 396
f 396 403 404
f 396 404 405
f 398 406 407
f 398 407 399
f 399 407 400
f 400 407 406
f 400 406 408
f 400 408 401
f 401 408 402
f 402 409 404
f 402 404 403
f 402 408 409
f 404 409 405
f 406 409 408

o geometry_13
v -5.75356147 0.43344766 -30.27075937 0.67843137 0.35686275 0.43529412
v 1.76932549 -16.64780326 -30.27075937 0.67843137 0.35686275 0.43529412
v 1.76932549 -5.69550991 -30.27142568 0.67843137 0.35686275 0.43529412
v 1.76932549 -5.63800849 -33.29578599 0.67843137 0.35686275 0.43529412
v -6.07771291 0.43344766 -33.60295033 0.67843137 0.35686275 0.43529412
v -16.64909101 -0.21597885 -33.51633555 0.67843137 0.35686275 0.43529412
v -16.83119646 -0.54914877 -30.36803997 0.67843137 0.35686275 0.43529412
v -16.32311521 -3.82840902 -30.27075937 0.67843137 0.35686275 0.43529412
v 0.35070346 -16.84229314 -30.27075937 0.67843137 0.35686275 0.43529412
v 0.35798734 -16.83383524 -33.22782284 0.67843137 0.35686275 0.43529412
v 1.76932549 -16.34676598 -33.45836452 0.67843137 0.35686275 0.43529412
v -4.39685544 -15.97469956 -33.64359742 0.67843137 0.35686275 0.43529412
v -14.34360048 -7.86533475 -33.67424747 0.67843137 0.35686275 0.43529412
v -16.33040032 -2.23528750 -33.63560176 0.67843137 0.35686275 0.43529412
v -16.49975991 -2.70713501 -33.33876392 0.67843137 0.35686275 0.43529412
v -15.58557904 -6.11154757 -33.52632767 0.67843137 0.35686275 0.43529412
v -15.74219032 -5.90352751 -30.27075937 0.67843137 0.35686275 0.43529412
v -1.37932415 -16.71037696 -30.27075937 0.67843137 0.35686275 0.43529412
v -2.81069449 -16.40934214 -33.55464688 0.67843137 0.35686275 0.43529412
v -5.46218807 -15.96116938 -30.27075937 0.67843137 0.35686275 0.43529412
v -7.47994529 -14.81283747 -33.52932727 0.67843137 0.35686275 0.43529412
v -9.29920620 -13.75413716 -33.60994777 0.67843137 0.35686275 0.43529412
v -12.24753639 -10.76238155 -33.67124787 0.67843137 0.35686275 0.43529412
v -14.50567743 -7.86364317 -33.63426915 0.67843137 0.35686275 0.43529412
v -14.83347020 -7.71650769 -33.33876392 0.67843137 0.35686275 0.43529412
v -13.48405173 -9.91846763 -33.47268885 0.67843137 0.35686275 0.43529412
v -14.75516579 -7.87209861 -30.27075937 0.67843137 0.35686275 0.43529412
v -3.16944709 -16.42625302 -30.27075937 0.67843137 0.35686275 0.43529412
v -6.90994805 -15.24578601 -30.27075937 0.67843137 0.35686275 0.43529412
v -9.47949345 -13.89620036 -30.27075937 0.67843137 0.35686275 0.43529412
v -11.37888065 -12.22866409 -33.49267802 0.67843137 0.35686275 0.43529412
v -13.60424241 -9.96751115 -30.27075937 0.67843137 0.35686275 0.43529412
f 410 411 412
f 410 412 413
f 410 413 414
f 410 414 415
f 410 415 416
f 410 416 417
f 410 417 426
f 410 426 436
f 410 436 441
f 410 441 439
f 410 439 438
f 410 438 429
f 410 429 437
f 410 437 427
f 410 427 418
f 410 418 411
f 411 418 419
f 411 419 420
f 411 420 413
f 411 413 412
f 413 420 414
f 414 420 421
f 414 421 422
f 414 422 423
f 414 423 415
f 415 423 424
f 415 424 416
f 416 424 417
f 417 424 425
f 417 425 426
f 418 427 419
f 419 427 428
f 419 428 420
f 420 428 421
f 421 429 430
f 421 430 431
f 421 431 432
f 421 432 422
f 421 428 429
f 422 432 433
f 422 433 425
f 422 425 423
f 423 425 424
f 425 434 426
f 425 433 435
f 425 435 434
f 426 434 436
f 427 437 428
f 428 437 429
f 429 438 430
f 430 438 439
f 430 439 431
f 431 439 440
f 431 440 432
f 432 440 435
f 432 435 433
f 434 435 441
f 434 441 436
f 435 440 441
f 439 441 440

o geometry_14
v 1.28824437 17.24232964 33.67724711 0.69411765 0.05882353 0.66666667
v 1.28824437 5.90544038 33.47207175 0.69411765 0.05882353 0.66666667
v 1.24547604 5.95549688 29.82455359 0.69411765 0.05882353 0.66666667
v 0.71977766 16.89355195 30.00747779 0.69411765 0.05882353 0.66666667
v -14.88009682 17.01304067 30.40915424 0.69411765 0.05882353 0.66666667
v -14.93533871 16.99850796 33.50111382 0.69411765 0.05882353 0.66666667
v -16.63539363 1.18402351 33.57880847 0.69411765 0.05882353 0.66666667
v -5.82739352 0.74643664 33.31517281 0.69411765 0.05882353 0.66666667
v -4.96310933 16.10395789 29.82417741 0.69411765 0.05882353 0.66666667
v -6.28359268 0.77065721 29.82455359 0.69411765 0.05882353 0.66666667
v -16.54272801 2.45157246 29.82417741 0.69411765 0.05882353 0.66666667
v -14.89969751 7.58958388 29.82417741 0.69411765 0.05882353 0.66666667
v -15.96356845 5.39842129 29.82417741 0.69411765 0.05882353 0.66666667
v -16.19701384 11.90086395 30.69051461 0.69411765 0.05882353 0.66666667
v -15.97604385 13.35410435 30.72596648 0.69411765 0.05882353 0.66666667
v -15.53944415 15.65668255 30.76179700 0.69411765 0.05882353 0.66666667
v -7.25657931 15.07054277 29.82417741 0.69411765 0.05882353 0.66666667
v -10.20940030 13.40093074 29.82417741 0.69411765 0.05882353 0.66666667
v -13.37428099 10.24093978 29.82417741 0.69411765 0.05882353 0.66666667
v -15.55726475 15.14643397 33.23747815 0.69411765 0.05882353 0.66666667
v -16.06514437 11.63928067 33.50865708 0.69411765 0.05882353 0.66666667
v -16.76013535 5.38873281 33.42077853 0.69411765 0.05882353 0.66666667
v -16.82072243 2.96505053 33.35251296 0.69411765 0.05882353 0.66666667
v -16.86171128 0.91436774 30.29676007 0.69411765 0.05882353 0.66666667
v -16.81003204 5.73266566 30.69240043 0.69411765 0.05882353 0.66666667
v -16.47322817 9.88247484 30.64525501 0.69411765 0.05882353 0.66666667
v -16.52668996 8.98146518 33.28462356 0.69411765 0.05882353 0.66666667
v -15.91545431 13.27821314 33.23596852 0.69411765 0.05882353 0.66666667
v -16.74231476 7.14392390 33.04738933 0.69411765 0.05882353 0.66666667
v -16.88487707 4.02268622 30.79272488 0.69411765 0.05882353 0.66666667
v -16.91695316 2.37083640 30.79272488 0.69411765 0.05882353 0.66666667
v -16.64252138 8.41308698 30.79272488 0.69411765 0.05882353 0.66666667
f 442 443 444
f 442 444 445
f 442 445 446
f 442 446 447
f 442 447 448
f 442 448 443
f 443 448 449
f 443 449 444
f 444 450 445
f 444 449 451
f 444 451 452
f 444 452 450
f 445 450 446
f 446 453 454
f 446 454 452
f 446 452 455
f 446 455 456
f 446 456 457
f 446 457 447
f 446 450 458
f 446 458 459
f 446 459 460
f 446 460 453
f 447 457 461
f 447 461 462
f 447 462 448
f 448 462 463
f 448 463 464
f 448 464 465
f 448 465 449
f 449 465 451
f 450 452 454
f 450 454 453
f 450 453 460
f 450 460 459
f 450 459 458
f 451 465 452
f 452 465 466
f 452 466 467
f 452 467 455
f 455 467 468
f 455 468 469
f 455 469 456
f 456 469 457
f 457 469 461
f 461 469 462
f 462 468 463
f 462 469 468
f 463 470 464
f 463 468 470
f 464 470 471
f 464 471 472
f 464 472 465
f 465 472 471
f 465 471 466
f 466 470 473
f 466 473 467
f 466 471 470
f 467 473 468
f 468 473 470

o geometry_15
v 1.46807307 16.84395337 -30.27075937 0.67058824 0.20784314 0.12549020
v 1.46807307 16.84395337 -33.67691270 0.67058824 0.20784314 0.12549020
v -14.93306687 16.59501823 -30.41312745 0.67058824 0.20784314 0.12549020
v -2.66055817 16.77971207 -30.27075937 0.67058824 0.20784314 0.12549020
v 1.46807307 5.58889367 -30.27075937 0.67058824 0.20784314 0.12549020
v 1.46807307 5.70452839 -33.29115382 0.67058824 0.20784314 0.12549020
v -6.05129181 0.43835521 -33.56755501 0.67058824 0.20784314 0.12549020
v -16.76701477 1.09682724 -33.52720788 0.67058824 0.20784314 0.12549020
v -15.57557954 15.02753288 -33.28848614 0.67058824 0.20784314 0.12549020
v -15.25162479 16.48099026 -33.21813560 0.67058824 0.20784314 0.12549020
v -15.35961053 7.28646778 -30.27075937 0.67058824 0.20784314 0.12549020
v -14.09618235 9.67142321 -30.27075937 0.67058824 0.20784314 0.12549020
v -12.78596526 11.20518085 -30.27075937 0.67058824 0.20784314 0.12549020
v -10.34370019 13.61262040 -30.27075937 0.67058824 0.20784314 0.12549020
v -7.89963657 15.04680533 -30.27075937 0.67058824 0.20784314 0.12549020
v -5.56355870 16.20796546 -30.27075937 0.67058824 0.20784314 0.12549020
v -15.59177740 14.91992885 -30.70253021 0.67058824 0.20784314 0.12549020
v -15.87253785 13.41989648 -30.59317006 0.67058824 0.20784314 0.12549020
v -16.07771075 11.59865879 -30.45047006 0.67058824 0.20784314 0.12549020
v -16.65903150 3.57975047 -30.27075937 0.67058824 0.20784314 0.12549020
v -16.17669767 5.67401357 -30.27075937 0.67058824 0.20784314 0.12549020
v -5.75253250 0.43835521 -30.27075937 0.67058824 0.20784314 0.12549020
v -16.91819480 1.38430730 -30.71019886 0.67058824 0.20784314 0.12549020
v -16.82280740 2.87470222 -33.47719809 0.67058824 0.20784314 0.12549020
v -16.79581097 5.03481399 -33.44218878 0.67058824 0.20784314 0.12549020
v -16.53304814 8.86680163 -33.37217262 0.67058824 0.20784314 0.12549020
v -15.88333642 13.44559349 -33.28481777 0.67058824 0.20784314 0.12549020
v -16.54384671 9.13179696 -30.68852550 0.67058824 0.20784314 0.12549020
v -16.80660954 5.81534408 -30.68319260 0.67058824 0.20784314 0.12549020
v -16.90379670 3.17663692 -30.76121180 0.67058824 0.20784314 0.12549020
v -16.73281929 7.28646778 -33.01608770 0.67058824 0.20784314 0.12549020
v -16.23788959 11.09275963 -33.29481973 0.67058824 0.20784314 0.12549020
f 474 475 476
f 474 476 477
f 474 477 489
f 474 489 488
f 474 488 487
f 474 487 486
f 474 486 485
f 474 485 484
f 474 484 494
f 474 494 493
f 474 493 495
f 474 495 478
f 474 478 479
f 474 479 475
f 475 479 480
f 475 480 481
f 475 481 482
f 475 482 483
f 475 483 476
f 476 484 485
f 476 485 486
f 476 486 487
f 476 487 488
f 476 488 489
f 476 489 477
f 476 483 490
f 476 490 491
f 476 491 492
f 476 492 493
f 476 493 494
f 476 494 484
f 478 495 479
f 479 495 480
f 480 495 481
f 481 495 496
f 481 496 497
f 481 497 498
f 481 498 482
f 482 498 499
f 482 499 500
f 482 500 490
f 482 490 483
f 490 500 491
f 491 500 501
f 491 501 492
f 492 501 493
f 493 502 503
f 493 503 496
f 493 496 495
f 493 501 502
f 496 503 497
f 497 503 498
f 498 504 499
f 498 503 504
f 499 504 501
f 499 501 505
f 499 505 500
f 500 505 501
f 501 504 502
f 502 504 503

o geometry_16
v 0.83436498 -5.85752785 -24.67379874 0.31372549 0.36078431 0.56862745
v 6.06686853 0.21476179 -24.45548660 0.31372549 0.36078431 0.56862745
v 5.78874441 0.21476179 -30.26959641 0.31372549 0.36078431 0.56862745
v 0.83436498 -5.68945415 -30.26959641 0.31372549 0.36078431 0.56862745
v 0.90350339 -16.78564981 -30.26959641 0.31372549 0.36078431 0.56862745
v 1.71901943 -16.45283148 -24.51778001 0.31372549 0.36078431 0.56862745
v 16.26789422 -1.90197006 -24.32449980 0.31372549 0.36078431 0.56862745
v 16.71572031 -0.40428266 -24.51544917 0.31372549 0.36078431 0.56862745
v 16.88699523 -0.14967531 -30.26959641 0.31372549 0.36078431 0.56862745
v 3.15677991 -16.41289249 -24.46014336 0.31372549 0.36078431 0.56862745
v 10.14602153 -12.69529916 -24.32275167 0.31372549 0.36078431 0.56862745
v 3.27620010 -16.40956342 -30.26959641 0.31372549 0.36078431 0.56862745
v 3.27620010 -16.40956342 -24.96080919 0.31372549 0.36078431 0.56862745
v 16.26789422 -2.38622166 -24.33730713 0.31372549 0.36078431 0.56862745
v 16.48945061 -2.38622166 -24.41473624 0.31372549 0.36078431 0.56862745
v 15.94577243 -3.83564986 -24.32333438 0.31372549 0.36078431 0.56862745
v 16.46430926 -2.70739317 -24.43627438 0.31372549 0.36078431 0.56862745
v 15.87506292 -5.64119495 -30.26959641 0.31372549 0.36078431 0.56862745
v 4.68724751 -16.01184547 -24.56435254 0.31372549 0.36078431 0.56862745
v 6.80381877 -15.18645287 -24.46130878 0.31372549 0.36078431 0.56862745
v 10.34872221 -13.23945925 -24.60161155 0.31372549 0.36078431 0.56862745
v 11.92947236 -11.61530167 -24.71338859 0.31372549 0.36078431 0.56862745
v 14.89141540 -7.25370325 -24.46014336 0.31372549 0.36078431 0.56862745
v 5.11936102 -16.07508056 -30.26959641 0.31372549 0.36078431 0.56862745
v 15.74464285 -5.55466130 -24.59520666 0.31372549 0.36078431 0.56862745
v 13.73649297 -9.81474772 -24.96080919 0.31372549 0.36078431 0.56862745
v 14.89298651 -7.60149993 -30.26959641 0.31372549 0.36078431 0.56862745
v 9.10894872 -14.12476033 -24.96080919 0.31372549 0.36078431 0.56862745
v 9.94017833 -13.65049101 -30.26959641 0.31372549 0.36078431 0.56862745
v 11.67648959 -11.96975403 -30.26959641 0.31372549 0.36078431 0.56862745
v 8.53698736 -14.41597514 -30.26959641 0.31372549 0.36078431 0.56862745
v 13.67835475 -9.87632073 -30.26959641 0.31372549 0.36078431 0.56862745
f 506 507 508
f 506 508 509
f 506 509 510
f 506 510 511
f 506 511 507
f 507 512 513
f 507 513 514
f 507 514 508
f 507 511 515
f 507 515 516
f 507 516 512
f 508 514 523
f 508 523 532
f 508 532 537
f 508 537 535
f 508 535 534
f 508 534 536
f 508 536 529
f 508 529 517
f 508 517 510
f 508 510 509
f 510 517 518
f 510 518 515
f 510 515 511
f 512 519 520
f 512 520 513
f 512 516 521
f 512 521 519
f 513 520 522
f 513 522 514
f 514 522 523
f 515 518 524
f 515 524 525
f 515 525 516
f 516 525 526
f 516 526 527
f 516 527 528
f 516 528 521
f 517 529 518
f 518 529 524
f 519 521 520
f 520 521 522
f 521 528 530
f 521 530 522
f 522 530 523
f 523 530 531
f 523 531 532
f 524 529 525
f 525 529 533
f 525 533 526
f 526 533 534
f 526 534 535
f 526 535 531
f 526 531 527
f 527 531 528
f 528 531 530
f 529 536 533
f 531 537 532
f 531 535 537
f 533 536 534

o geometry_17
v -5.78706360 0.21476179 -30.26959641 0.43529412 0.98823529 0.10196078
v -5.92573258 0.21476179 -24.68486039 0.43529412 0.98823529 0.10196078
v 0.83263160 -5.69000490 -30.26959641 0.43529412 0.98823529 0.10196078
v -16.62921986 -1.89491853 -30.26959641 0.43529412 0.98823529 0.10196078
v -16.87189026 -0.16441271 -30.26843099 0.43529412 0.98823529 0.10196078
v 0.83263160 -6.02574907 -24.38679075 0.43529412 0.98823529 0.10196078
v -16.72108887 -0.17944515 -24.59753504 0.43529412 0.98823529 0.10196078
v -16.27561575 -1.90160125 -24.32508251 0.43529412 0.98823529 0.10196078
v 0.05262030 -16.84976265 -30.26959641 0.43529412 0.98823529 0.10196078
v -16.37268244 -3.50682691 -30.26959641 0.43529412 0.98823529 0.10196078
v -16.57548761 -2.22565189 -24.79954852 0.43529412 0.98823529 0.10196078
v -1.93900841 -16.24007598 -24.32333438 0.43529412 0.98823529 0.10196078
v -0.33218522 -16.73784792 -24.66914198 0.43529412 0.98823529 0.10196078
v -16.49228549 -2.38433830 -24.41706462 0.43529412 0.98823529 0.10196078
v -16.39521635 -2.22398244 -24.37223776 0.43529412 0.98823529 0.10196078
v -13.69291267 -9.16772090 -24.40192646 0.43529412 0.98823529 0.10196078
v -11.44301193 -11.40601784 -24.32275167 0.43529412 0.98823529 0.10196078
v -3.77636774 -16.33027554 -30.26959641 0.43529412 0.98823529 0.10196078
v -15.76774104 -5.86539321 -30.26959641 0.43529412 0.98823529 0.10196078
v -16.45761794 -2.82531694 -24.45082983 0.43529412 0.98823529 0.10196078
v -2.60115127 -16.33361690 -24.39377835 0.43529412 0.98823529 0.10196078
v -8.11669724 -14.33084048 -24.38096857 0.43529412 0.98823529 0.10196078
v -15.96187687 -4.45058830 -24.47353339 0.43529412 0.98823529 0.10196078
v -12.93716742 -10.52239113 -24.53524409 0.43529412 0.98823529 0.10196078
v -14.56652513 -7.93331511 -24.57890800 0.43529412 0.98823529 0.10196078
v -9.95578995 -13.50400709 -24.68020363 0.43529412 0.98823529 0.10196078
v -5.88586489 -15.75232811 -30.26959641 0.43529412 0.98823529 0.10196078
v -14.45212221 -8.46616276 -30.26959641 0.43529412 0.98823529 0.10196078
v -13.63917796 -9.91771773 -30.26959641 0.43529412 0.98823529 0.10196078
v -12.24035701 -11.40434839 -30.26959641 0.43529412 0.98823529 0.10196078
v -9.89338959 -13.67104322 -30.26959641 0.43529412 0.98823529 0.10196078
v -7.77175879 -14.80522782 -30.26959641 0.43529412 0.98823529 0.10196078
f 538 539 540
f 538 540 546
f 538 546 555
f 538 555 564
f 538 564 569
f 538 569 568
f 538 568 567
f 538 567 566
f 538 566 565
f 538 565 556
f 538 556 547
f 538 547 541
f 538 541 542
f 538 542 539
f 539 543 540
f 539 542 544
f 539 544 545
f 539 545 543
f 540 543 546
f 541 547 548
f 541 548 542
f 542 548 544
f 543 549 550
f 543 550 546
f 543 545 549
f 544 548 551
f 544 551 552
f 544 552 545
f 545 552 553
f 545 553 554
f 545 554 549
f 546 550 555
f 547 556 557
f 547 557 548
f 548 557 551
f 549 558 550
f 549 554 559
f 549 559 558
f 550 558 555
f 551 557 552
f 552 557 560
f 552 560 553
f 553 561 554
f 553 560 562
f 553 562 561
f 554 563 559
f 554 561 563
f 555 558 564
f 556 565 562
f 556 562 560
f 556 560 557
f 558 559 564
f 559 563 564
f 561 562 566
f 561 566 567
f 561 567 563
f 562 565 566
f 563 568 569
f 563 569 564
f 563 567 568

o geometry_18
v 0.01418849 16.84395276 -30.27017666 0.20784314 0.16078431 0.65098039
v 0.01418849 6.03506014 -24.53993528 0.20784314 0.16078431 0.65098039
v 0.01418849 5.79580240 -30.27017666 0.20784314 0.16078431 0.65098039
v -1.93004402 16.84395276 -30.27017666 0.20784314 0.16078431 0.65098039
v -0.31702677 16.66979933 -24.42763454 0.20784314 0.16078431 0.65098039
v -1.69819309 16.30521655 -24.32639053 0.20784314 0.16078431 0.65098039
v -6.06526455 0.21638945 -24.40959758 0.20784314 0.16078431 0.65098039
v -5.78869986 0.21638945 -30.27017666 0.20784314 0.16078431 0.65098039
v -2.42355382 16.50378417 -24.43170859 0.20784314 0.16078431 0.65098039
v -3.38904636 16.71537179 -30.27017666 0.20784314 0.16078431 0.65098039
v -2.69018172 16.48262529 -24.45498256 0.20784314 0.16078431 0.65098039
v -2.10061944 16.52819837 -24.41134325 0.20784314 0.16078431 0.65098039
v -3.87262060 16.03829054 -24.35024722 0.20784314 0.16078431 0.65098039
v -14.15519340 8.37392125 -24.37526686 0.20784314 0.16078431 0.65098039
v -16.27662382 1.88793585 -24.32580782 0.20784314 0.16078431 0.65098039
v -16.76516829 0.59236519 -24.56728330 0.20784314 0.16078431 0.65098039
v -16.90096429 0.21638945 -30.27017666 0.20784314 0.16078431 0.65098039
v -5.56347264 16.20918866 -30.27017666 0.20784314 0.16078431 0.65098039
v -2.90547213 16.46634936 -24.53586122 0.20784314 0.16078431 0.65098039
v -5.92946610 15.55814864 -24.40436056 0.20784314 0.16078431 0.65098039
v -7.79586258 14.60600249 -24.41366917 0.20784314 0.16078431 0.65098039
v -11.74891496 11.77886121 -24.41599755 0.20784314 0.16078431 0.65098039
v -12.85848683 10.44260167 -24.44567150 0.20784314 0.16078431 0.65098039
v -14.09722975 9.67111833 -30.27017666 0.20784314 0.16078431 0.65098039
v -15.93216112 6.15875814 -30.27017666 0.20784314 0.16078431 0.65098039
v -16.37598938 2.71638338 -24.40028651 0.20784314 0.16078431 0.65098039
v -16.51013067 2.13044766 -24.40552352 0.20784314 0.16078431 0.65098039
v -16.65917902 3.58063929 -30.27017666 0.20784314 0.16078431 0.65098039
v -7.90185186 15.04545428 -30.27017666 0.20784314 0.16078431 0.65098039
v -10.52838726 12.97514744 -24.49396758 0.20784314 0.16078431 0.65098039
v -12.78727329 11.20431785 -30.27017666 0.20784314 0.16078431 0.65098039
v -10.72049221 13.25509407 -30.27017666 0.20784314 0.16078431 0.65098039
f 570 571 572
f 570 572 577
f 570 577 586
f 570 586 597
f 570 597 594
f 570 594 593
f 570 593 600
f 570 600 601
f 570 601 598
f 570 598 587
f 570 587 579
f 570 579 573
f 570 573 574
f 570 574 571
f 571 574 575
f 571 575 576
f 571 576 577
f 571 577 572
f 573 578 574
f 573 579 580
f 573 580 578
f 574 578 581
f 574 581 575
f 575 581 582
f 575 582 583
f 575 583 584
f 575 584 576
f 576 584 585
f 576 585 586
f 576 586 577
f 578 580 582
f 578 582 581
f 579 587 588
f 579 588 580
f 580 588 589
f 580 589 582
f 582 589 590
f 582 590 591
f 582 591 583
f 583 591 592
f 583 592 593
f 583 593 594
f 583 594 595
f 583 595 584
f 584 595 596
f 584 596 585
f 585 596 597
f 585 597 586
f 587 589 588
f 587 598 589
f 589 598 590
f 590 598 599
f 590 599 591
f 591 600 593
f 591 593 592
f 591 599 601
f 591 601 600
f 594 597 595
f 595 597 596
f 598 601 599

o geometry_19
v 20.65978372 16.84395337 -31.08328810 0.25098039 0.46274510 0.24313725
v 20.31412242 16.78934829 -30.41912912 0.25098039 0.46274510 0.24313725
v 16.90635373 0.43835521 -30.51715223 0.25098039 0.46274510 0.24313725
v 20.65978372 16.84395337 -33.01608770 0.25098039 0.46274510 0.24313725
v 2.12933818 16.84395337 -30.27075937 0.25098039 0.46274510 0.24313725
v 14.26505142 9.52366814 -30.27075937 0.25098039 0.46274510 0.24313725
v 14.91692310 8.24526776 -30.27075937 0.25098039 0.46274510 0.24313725
v 15.56879539 6.96365632 -30.27075937 0.25098039 0.46274510 0.24313725
v 15.92948544 6.25218473 -30.27075937 0.25098039 0.46274510 0.24313725
v 16.29581144 5.47486570 -30.27075937 0.25098039 0.46274510 0.24313725
v 16.67152963 3.59420389 -30.27075937 0.25098039 0.46274510 0.24313725
v 3.48380372 16.70583453 -30.27075937 0.25098039 0.46274510 0.24313725
v 5.45069122 16.31396335 -30.27075937 0.25098039 0.46274510 0.24313725
v 8.19531605 14.94080745 -30.27075937 0.25098039 0.46274510 0.24313725
v 8.83591662 14.61478310 -30.27075937 0.25098039 0.46274510 0.24313725
v 9.83908538 14.05749114 -30.27075937 0.25098039 0.46274510 0.24313725
v 10.38763485 13.69934645 -30.27075937 0.25098039 0.46274510 0.24313725
v 12.70581929 11.37702618 -30.27075937 0.25098039 0.46274510 0.24313725
v 13.78601040 10.27689569 -30.27075937 0.25098039 0.46274510 0.24313725
v 16.88381061 0.43835521 -33.46286146 0.25098039 0.46274510 0.24313725
v 5.75314471 0.43835521 -30.27075937 0.25098039 0.46274510 0.24313725
v 20.55458245 16.84395337 -33.52053991 0.25098039 0.46274510 0.24313725
v 1.46807307 16.84395337 -30.27075937 0.25098039 0.46274510 0.24313725
v 16.47052053 0.43835521 -33.67657831 0.25098039 0.46274510 0.24313725
v 1.46807307 5.58889367 -30.27075937 0.25098039 0.46274510 0.24313725
v 1.46807307 5.58889367 -33.01608770 0.25098039 0.46274510 0.24313725
v 6.08377726 0.43835521 -33.60922983 0.25098039 0.46274510 0.24313725
v 19.81441671 15.98312119 -33.67691270 0.25098039 0.46274510 0.24313725
v 19.97597487 16.78934829 -33.67624393 0.25098039 0.46274510 0.24313725
v 1.46807307 16.84395337 -33.67691270 0.25098039 0.46274510 0.24313725
v 16.59262899 1.48548737 -33.67691270 0.25098039 0.46274510 0.24313725
v 1.46807307 5.82016189 -33.56588802 0.25098039 0.46274510 0.24313725
f 602 603 604
f 602 604 605
f 602 605 623
f 602 623 631
f 602 631 624
f 602 624 606
f 602 606 603
f 603 607 608
f 603 608 609
f 603 609 610
f 603 610 611
f 603 611 612
f 603 612 604
f 603 606 613
f 603 613 614
f 603 614 615
f 603 615 616
f 603 616 617
f 603 617 618
f 603 618 619
f 603 619 620
f 603 620 607
f 604 621 605
f 604 612 622
f 604 622 628
f 604 628 625
f 604 625 621
f 605 621 623
f 606 624 626
f 606 626 622
f 606 622 612
f 606 612 611
f 606 611 610
f 606 610 609
f 606 609 608
f 606 608 607
f 606 607 620
f 606 620 619
f 606 619 618
f 606 618 617
f 606 617 616
f 606 616 615
f 606 615 614
f 606 614 613
f 621 625 623
f 622 626 627
f 622 627 628
f 623 625 629
f 623 629 630
f 623 630 631
f 624 631 633
f 624 633 627
f 624 627 626
f 625 632 629
f 625 628 631
f 625 631 632
f 627 633 628
f 628 633 631
f 629 632 631
f 629 631 630

o geometry_20
v 0.01750035 16.84395276 -30.26959641 0.15686275 0.10980392 0.65490196
v 1.09028035 16.48750825 -24.37572910 0.15686275 0.10980392 0.65490196
v 2.09198266 16.52982540 -24.41124244 0.15686275 0.10980392 0.65490196
v 2.80441437 16.77396549 -30.26959641 0.15686275 0.10980392 0.65490196
v 0.01750035 5.79580240 -30.26959641 0.15686275 0.10980392 0.65490196
v 0.01750035 6.03506014 -24.53990085 0.15686275 0.10980392 0.65490196
v 6.04259034 0.22127241 -24.53640705 0.15686275 0.10980392 0.65490196
v 16.31747681 2.34854590 -24.36001068 0.15686275 0.10980392 0.65490196
v 14.33556055 7.60894977 -24.32275167 0.15686275 0.10980392 0.65490196
v 8.21459819 14.04936332 -24.32275167 0.15686275 0.10980392 0.65490196
v 4.41441111 15.99760043 -24.39377835 0.15686275 0.10980392 0.65490196
v 2.89863389 16.46634936 -24.47702719 0.15686275 0.10980392 0.65490196
v 5.45247869 16.31335482 -30.26959641 0.15686275 0.10980392 0.65490196
v 5.78637946 0.21638945 -30.26959641 0.15686275 0.10980392 0.65490196
v 16.90428229 0.21638945 -30.26959641 0.15686275 0.10980392 0.65490196
v 16.72906732 0.58748223 -24.56085874 0.15686275 0.10980392 0.65490196
v 16.67121308 3.59366052 -30.26959641 0.15686275 0.10980392 0.65490196
v 15.45297134 6.06435668 -24.39552402 0.15686275 0.10980392 0.65490196
v 14.33556055 7.92958651 -24.32799360 0.15686275 0.10980392 0.65490196
v 7.81623145 14.73783815 -24.43511142 0.15686275 0.10980392 0.65490196
v 7.24760838 14.81108012 -24.36350448 0.15686275 0.10980392 0.65490196
v 12.56026690 10.91297764 -24.46654825 0.15686275 0.10980392 0.65490196
v 9.89732564 13.52853131 -24.46887663 0.15686275 0.10980392 0.65490196
v 7.54018484 14.92175689 -24.63828786 0.15686275 0.10980392 0.65490196
v 6.91536070 15.59395580 -30.26959641 0.15686275 0.10980392 0.65490196
v 16.11085513 5.86253498 -30.26959641 0.15686275 0.10980392 0.65490196
v 14.54548856 8.18511955 -24.43220033 0.15686275 0.10980392 0.65490196
v 14.77029288 7.60732211 -24.40425730 0.15686275 0.10980392 0.65490196
v 10.10890635 13.87846520 -30.26959641 0.15686275 0.10980392 0.65490196
v 14.07108524 9.77528572 -30.26959641 0.15686275 0.10980392 0.65490196
v 8.51213350 14.77852765 -30.26959641 0.15686275 0.10980392 0.65490196
v 15.40503485 7.28505649 -30.26959641 0.15686275 0.10980392 0.65490196
f 634 635 636
f 634 636 637
f 634 637 646
f 634 646 658
f 634 658 664
f 634 664 662
f 634 662 663
f 634 663 665
f 634 665 659
f 634 659 650
f 634 650 648
f 634 648 647
f 634 647 638
f 634 638 639
f 634 639 635
f 635 639 640
f 635 640 641
f 635 641 642
f 635 642 643
f 635 643 644
f 635 644 636
f 636 644 645
f 636 645 637
f 637 645 646
f 638 647 639
f 639 647 640
f 640 647 648
f 640 648 649
f 640 649 641
f 641 649 650
f 641 650 651
f 641 651 652
f 641 652 642
f 642 652 643
f 643 653 654
f 643 654 644
f 643 652 655
f 643 655 656
f 643 656 653
f 644 654 653
f 644 653 657
f 644 657 646
f 644 646 645
f 646 657 658
f 648 650 649
f 650 659 651
f 651 659 660
f 651 660 661
f 651 661 652
f 652 661 660
f 652 660 655
f 653 656 657
f 655 662 656
f 655 660 663
f 655 663 662
f 656 662 657
f 657 662 664
f 657 664 658
f 659 665 660
f 660 665 663

