# https://github.com/mikedh/trimesh

o geometry_0
v -2.22588067 54.90699001 21.66745555 0.54509804 0.71372549 0.60000000
v -2.38731492 59.56424215 33.83977798 0.54509804 0.71372549 0.60000000
v -2.58839962 57.41883999 33.98311134 0.54509804 0.71372549 0.60000000
v -2.51193001 54.90699001 22.23527686 0.54509804 0.71372549 0.60000000
v -2.52042725 54.90699001 -22.09888179 0.54509804 0.71372549 0.60000000
v -2.22588067 54.91151302 -21.54759912 0.54509804 0.71372549 0.60000000
v -2.34199963 59.56424215 -21.69644462 0.54509804 0.71372549 0.60000000
v -2.60256058 60.04228261 33.86182876 0.54509804 0.71372549 0.60000000
v -30.84785819 58.69462064 34.15952197 0.54509804 0.71372549 0.60000000
v -30.55897422 57.53395101 34.15952197 0.54509804 0.71372549 0.60000000
v -30.63261253 56.99156832 33.87836739 0.54509804 0.71372549 0.60000000
v -30.58446594 54.90699001 22.30694354 0.54509804 0.71372549 0.60000000
v -30.55897422 54.90699001 -22.15952197 0.54509804 0.71372549 0.60000000
v -30.84785819 58.69462064 -22.15952197 0.54509804 0.71372549 0.60000000
v -2.60256058 60.04228261 -21.86182876 0.54509804 0.71372549 0.60000000
v -30.93848655 60.04127799 33.86734311 0.54509804 0.71372549 0.60000000
v -31.15939704 59.56424215 33.69644462 0.54509804 0.71372549 0.60000000
v -31.10275321 58.18641941 33.87836739 0.54509804 0.71372549 0.60000000
v -31.08859114 57.38666777 33.85631662 0.54509804 0.71372549 0.60000000
v -31.04327697 54.98389886 21.98719954 0.54509804 0.71372549 0.60000000
v -31.04044455 55.06080772 -21.89490603 0.54509804 0.71372549 0.60000000
v -30.92998931 55.72232435 -22.14849548 0.54509804 0.71372549 0.60000000
v -31.01212485 56.66533412 -22.14298334 0.54509804 0.71372549 0.60000000
v -31.15939704 59.56424215 -21.69644462 0.54509804 0.71372549 0.60000000
v -30.93848655 60.04127799 -21.86734311 0.54509804 0.71372549 0.60000000
v -31.15656462 58.69462064 33.69644462 0.54509804 0.71372549 0.60000000
v -31.11691527 55.93997978 22.23527686 0.54509804 0.71372549 0.60000000
v -31.09425597 55.93997978 -21.83977798 0.54509804 0.71372549 0.60000000
v -31.08009612 56.66533412 -21.98862348 0.54509804 0.71372549 0.60000000
v -31.10275321 58.18641941 -21.87836739 0.54509804 0.71372549 0.60000000
v -31.15656462 58.69462064 -21.69644462 0.54509804 0.71372549 0.60000000
v -31.11691527 57.53395101 -21.83977798 0.54509804 0.71372549 0.60000000
f 1 2 3
f 1 3 4
f 1 4 12
f 1 12 13
f 1 13 5
f 1 5 6
f 1 6 7
f 1 7 2
f 2 7 8
f 2 8 3
f 3 8 9
f 3 9 10
f 3 10 11
f 3 11 4
f 4 11 12
f 5 13 14
f 5 14 15
f 5 15 7
f 5 7 6
f 7 15 8
f 8 16 9
f 8 15 25
f 8 25 16
f 9 16 17
f 9 17 18
f 9 18 19
f 9 19 10
f 10 19 11
f 11 19 20
f 11 20 12
f 12 20 13
f 13 21 22
f 13 22 14
f 13 20 21
f 14 22 23
f 14 23 24
f 14 24 25
f 14 25 15
f 16 25 24
f 16 24 17
f 17 26 18
f 17 24 31
f 17 31 26
f 18 26 19
f 19 26 27
f 19 27 20
f 20 27 21
f 21 28 29
f 21 29 23
f 21 23 22
f 21 27 28
f 23 29 30
f 23 30 24
f 24 30 29
f 24 29 31
f 26 31 27
f 27 31 28
f 28 31 32
f 28 32 29
f 29 32 31

o geometry_1
v -2.52459399 54.90698779 -18.84244139 0.54117647 0.42352941 0.64313725
v -15.88412498 12.76731835 -18.94350763 0.54117647 0.42352941 0.64313725
v 11.83885857 19.19820522 -18.99663086 0.54117647 0.42352941 0.64313725
v 10.10046637 24.60825071 -19.07891024 0.54117647 0.42352941 0.64313725
v -2.49417211 54.89458935 -22.01599167 0.54117647 0.42352941 0.64313725
v -31.01681603 54.15892104 -21.81612512 0.54117647 0.42352941 0.64313725
v -30.83863072 53.73322711 -19.10126196 0.54117647 0.42352941 0.64313725
v -27.00113192 35.99869114 -19.01218037 0.54117647 0.42352941 0.64313725
v -25.78425882 33.28333562 -18.99598251 0.54117647 0.42352941 0.64313725
v -23.84160762 28.82387107 -18.98982865 0.54117647 0.42352941 0.64313725
v -24.31531869 29.60913316 -21.87994071 0.54117647 0.42352941 0.64313725
v -15.88847096 12.68465837 -21.98683774 0.54117647 0.42352941 0.64313725
v 13.38167821 13.01529609 -19.14175218 0.54117647 0.42352941 0.64313725
v 11.76063088 19.62803270 -22.00497846 0.54117647 0.42352941 0.64313725
v 12.91665800 15.47854032 -19.16021597 0.54117647 0.42352941 0.64313725
v 12.51248156 17.09039448 -21.87929235 0.54117647 0.42352941 0.64313725
v 10.00920073 24.59998471 -22.00497846 0.54117647 0.42352941 0.64313725
v -23.87202950 29.19583767 -22.15139428 0.54117647 0.42352941 0.64313725
v -30.67348336 51.10879536 -22.09244026 0.54117647 0.42352941 0.64313725
v -30.88209055 51.84033233 -21.69821488 0.54117647 0.42352941 0.64313725
v -30.67782934 50.03009310 -19.20200291 0.54117647 0.42352941 0.64313725
v -28.23539117 39.47037830 -19.07631902 0.54117647 0.42352941 0.64313725
v -25.41485135 31.96905407 -21.83750542 0.54117647 0.42352941 0.64313725
v -27.66606736 37.69733883 -21.99202017 0.54117647 0.42352941 0.64313725
v 13.19045494 13.88734949 -21.95023323 0.54117647 0.42352941 0.64313725
v -26.45353914 34.74640403 -22.01340046 0.54117647 0.42352941 0.64313725
v -28.45703632 40.00766376 -21.98586631 0.54117647 0.42352941 0.64313725
v -29.08285348 42.60729530 -21.99655645 0.54117647 0.42352941 0.64313725
v -29.69129114 44.84736201 -21.96286623 0.54117647 0.42352941 0.64313725
v -30.39099444 48.31904807 -21.86082856 0.54117647 0.42352941 0.64313725
v -30.06069972 46.09964691 -19.23828435 0.54117647 0.42352941 0.64313725
v -29.39141829 43.12391632 -19.20686227 0.54117647 0.42352941 0.64313725
f 33 34 35
f 33 35 36
f 33 36 37
f 33 37 38
f 33 38 39
f 33 39 40
f 33 40 41
f 33 41 34
f 34 41 42
f 34 42 43
f 34 43 44
f 34 44 45
f 34 45 35
f 35 46 36
f 35 45 47
f 35 47 48
f 35 48 46
f 36 46 49
f 36 49 37
f 37 49 46
f 37 46 50
f 37 50 51
f 37 51 38
f 38 51 52
f 38 52 53
f 38 53 39
f 39 53 54
f 39 54 40
f 40 55 42
f 40 42 41
f 40 54 56
f 40 56 55
f 42 55 43
f 43 55 50
f 43 50 44
f 44 50 57
f 44 57 45
f 45 57 47
f 46 48 57
f 46 57 50
f 47 57 48
f 50 55 58
f 50 58 56
f 50 56 59
f 50 59 51
f 51 59 60
f 51 60 61
f 51 61 62
f 51 62 52
f 52 62 53
f 53 62 63
f 53 63 64
f 53 64 54
f 54 64 59
f 54 59 56
f 55 56 58
f 59 64 61
f 59 61 60
f 61 63 62
f 61 64 63

o geometry_2
v -2.55874891 54.90699001 18.85291138 0.43529412 0.89019608 0.96078431
v -2.56738998 54.90699001 22.14856077 0.43529412 0.89019608 0.96078431
v 9.98849535 25.03344454 21.84790016 0.43529412 0.89019608 0.96078431
v 9.98849535 25.03344454 19.15615214 0.43529412 0.89019608 0.96078431
v 9.93664670 25.05412945 18.99227272 0.43529412 0.89019608 0.96078431
v 9.75085813 25.05412945 18.88646108 0.43529412 0.89019608 0.96078431
v -30.72091742 54.76219176 18.89033242 0.43529412 0.89019608 0.96078431
v 9.75085813 25.05412945 22.11436602 0.43529412 0.89019608 0.96078431
v 9.93664670 25.05412945 22.01048950 0.43529412 0.89019608 0.96078431
v -30.55241099 54.76219176 22.10501021 0.43529412 0.89019608 0.96078431
v 11.79885960 19.38225119 22.04145795 0.43529412 0.89019608 0.96078431
v 11.24148946 21.03292932 18.95549782 0.43529412 0.89019608 0.96078431
v 12.26117131 17.66951777 18.94646508 0.43529412 0.89019608 0.96078431
v -15.86643181 12.64301858 18.95743294 0.43529412 0.89019608 0.96078431
v -23.86400359 29.12911112 18.92839960 0.43529412 0.89019608 0.96078431
v -25.56635002 32.86071862 18.94549697 0.43529412 0.89019608 0.96078431
v -27.52793856 37.66795587 19.01066127 0.43529412 0.89019608 0.96078431
v -29.50248428 43.99762271 19.07872880 0.43529412 0.89019608 0.96078431
v -30.34934027 47.79955924 19.14550625 0.43529412 0.89019608 0.96078431
v -30.85917899 51.67596388 20.50170418 0.43529412 0.89019608 0.96078431
v -15.86643181 12.64715435 22.04081291 0.43529412 0.89019608 0.96078431
v -30.37526128 48.20498814 21.92596854 0.43529412 0.89019608 0.96078431
v -29.50248428 43.99762271 21.92338838 0.43529412 0.89019608 0.96078431
v -24.13188567 29.42697804 21.99468220 0.43529412 0.89019608 0.96078431
v 13.28084874 13.65245507 21.90499983 0.43529412 0.89019608 0.96078431
v 12.64571117 16.40358529 21.96403572 0.43529412 0.89019608 0.96078431
v 13.11666617 14.10752865 19.04292091 0.43529412 0.89019608 0.96078431
v -27.18660406 36.38133682 21.86532060 0.43529412 0.89019608 0.96078431
v -25.33303335 32.07468149 21.95016354 0.43529412 0.89019608 0.96078431
v -28.58218028 40.56801789 19.12808691 0.43529412 0.89019608 0.96078431
v -28.58218028 40.56801789 21.87435335 0.43529412 0.89019608 0.96078431
f 65 66 67
f 65 67 68
f 65 68 69
f 65 69 70
f 65 70 71
f 65 71 66
f 66 72 73
f 66 73 67
f 66 71 74
f 66 74 72
f 67 75 68
f 67 73 75
f 68 75 76
f 68 76 69
f 69 76 70
f 70 76 77
f 70 77 78
f 70 78 79
f 70 79 71
f 71 79 80
f 71 80 81
f 71 81 82
f 71 82 83
f 71 83 84
f 71 84 74
f 72 74 85
f 72 85 75
f 72 75 73
f 74 84 86
f 74 86 87
f 74 87 88
f 74 88 85
f 75 89 90
f 75 90 77
f 75 77 76
f 75 85 89
f 77 90 91
f 77 91 78
f 78 89 85
f 78 85 88
f 78 88 79
f 78 91 89
f 79 88 80
f 80 92 81
f 80 88 93
f 80 93 92
f 81 92 94
f 81 94 82
f 82 94 95
f 82 95 87
f 82 87 83
f 83 87 86
f 83 86 84
f 87 95 93
f 87 93 88
f 89 91 90
f 92 93 95
f 92 95 94

o geometry_3
v -0.08875889 12.56530758 22.15952088 0.38039216 0.78823529 0.52549020
v 13.32976539 12.48398193 21.94284241 0.38039216 0.78823529 0.52549020
v 13.33401401 12.48398193 19.06170445 0.38039216 0.78823529 0.52549020
v -0.08875889 12.56530758 18.84080281 0.38039216 0.78823529 0.52549020
v -0.08875889 5.10515181 22.04809531 0.38039216 0.78823529 0.52549020
v 14.10192093 2.42867115 22.14912504 0.38039216 0.78823529 0.52549020
v 13.52103291 10.40227586 22.15887142 0.38039216 0.78823529 0.52549020
v 13.75338812 11.14027980 21.89898759 0.38039216 0.78823529 0.52549020
v 13.90073554 10.40227586 21.58940046 0.38039216 0.78823529 0.52549020
v 13.65279543 10.65353632 19.00907800 0.38039216 0.78823529 0.52549020
v -0.08875889 5.09908203 18.95450205 0.38039216 0.78823529 0.52549020
v 14.15575890 3.33418465 18.88108503 0.38039216 0.78823529 0.52549020
v 5.00605788 0.16489184 21.90938232 0.38039216 0.78823529 0.52549020
v 14.16284436 1.52194503 22.11014285 0.38039216 0.78823529 0.52549020
v 14.36119734 2.42867115 21.92594973 0.38039216 0.78823529 0.52549020
v 14.20534825 3.30748031 22.04484689 0.38039216 0.78823529 0.52549020
v 14.24926835 5.10272323 21.97142987 0.38039216 0.78823529 0.52549020
v 14.04099972 8.12271580 21.89866231 0.38039216 0.78823529 0.52549020
v 14.25068456 6.61514754 21.69627757 0.38039216 0.78823529 0.52549020
v 14.04099972 8.14092291 19.10620873 0.38039216 0.78823529 0.52549020
v 14.23226724 6.94652102 19.48726450 0.38039216 0.78823529 0.52549020
v 14.26627168 6.21337201 19.08022135 0.38039216 0.78823529 0.52549020
v 14.18268010 5.33820516 18.92883885 0.38039216 0.78823529 0.52549020
v 5.03014334 0.16489184 19.07015079 0.38039216 0.78823529 0.52549020
v 14.25210298 4.31373918 18.94248200 0.38039216 0.78823529 0.52549020
v 14.21384992 2.10215371 18.94183254 0.38039216 0.78823529 0.52549020
v 14.10192093 0.44892530 22.03120373 0.38039216 0.78823529 0.52549020
v 14.29743928 0.76087794 19.06332866 0.38039216 0.78823529 0.52549020
v 14.38528170 3.29776823 19.19716901 0.38039216 0.78823529 0.52549020
v 14.36402975 4.16929277 21.80672839 0.38039216 0.78823529 0.52549020
v 14.32152586 5.32970903 19.19716901 0.38039216 0.78823529 0.52549020
v 14.36402975 4.16929277 19.19716901 0.38039216 0.78823529 0.52549020
f 96 97 98
f 96 98 99
f 96 99 106
f 96 106 100
f 96 100 101
f 96 101 102
f 96 102 97
f 97 102 103
f 97 103 98
f 98 103 104
f 98 104 105
f 98 105 99
f 99 105 107
f 99 107 106
f 100 106 108
f 100 108 101
f 101 108 109
f 101 109 110
f 101 110 111
f 101 111 112
f 101 112 102
f 102 112 103
f 103 112 113
f 103 113 114
f 103 114 104
f 104 115 105
f 104 114 116
f 104 116 115
f 105 115 117
f 105 117 118
f 105 118 107
f 106 107 119
f 106 119 108
f 107 118 120
f 107 120 121
f 107 121 119
f 108 119 122
f 108 122 109
f 109 122 110
f 110 123 124
f 110 124 125
f 110 125 112
f 110 112 111
f 110 122 123
f 112 114 113
f 112 125 114
f 114 125 126
f 114 126 116
f 115 116 117
f 116 126 117
f 117 126 127
f 117 127 124
f 117 124 120
f 117 120 118
f 119 121 123
f 119 123 122
f 120 124 123
f 120 123 121
f 124 127 125
f 125 127 126

o geometry_4
v -0.08875944 12.56530758 22.15952088 0.56470588 0.92549020 0.07058824
v -0.08875944 5.32970903 22.15952088 0.56470588 0.92549020 0.07058824
v -0.08875944 12.56530758 18.84080281 0.56470588 0.92549020 0.07058824
v -15.48035957 12.56530758 22.15952088 0.56470588 0.92549020 0.07058824
v -14.02843991 0.16489184 22.15952088 0.56470588 0.92549020 0.07058824
v -5.30282659 0.16489184 22.15692192 0.56470588 0.92549020 0.07058824
v -5.02090028 0.16489184 22.11274181 0.56470588 0.92549020 0.07058824
v -0.08875944 4.94614060 22.06693750 0.56470588 0.92549020 0.07058824
v -0.08875944 5.31878432 18.84210174 0.56470588 0.92549020 0.07058824
v -5.33101905 0.16489184 18.84080281 0.56470588 0.92549020 0.07058824
v -15.48035957 12.56530758 18.84080281 0.56470588 0.92549020 0.07058824
v -15.77011705 12.56530758 22.14750083 0.56470588 0.92549020 0.07058824
v -15.48035957 11.99845328 22.15952088 0.56470588 0.92549020 0.07058824
v -14.28687213 0.16489184 22.05524273 0.56470588 0.92549020 0.07058824
v -4.82668445 0.16489184 21.90191073 0.56470588 0.92549020 0.07058824
v -0.08875944 4.81504747 21.80672839 0.56470588 0.92549020 0.07058824
v -0.08875944 4.94371313 18.93663462 0.56470588 0.92549020 0.07058824
v -4.94571992 0.16489184 18.93013777 0.56470588 0.92549020 0.07058824
v -14.05506625 0.16489184 18.85152283 0.56470588 0.92549020 0.07058824
v -15.48035957 11.99845328 18.84080281 0.56470588 0.92549020 0.07058824
v -15.76385200 12.56530758 18.85119865 0.56470588 0.92549020 0.07058824
v -16.04421162 12.56530758 21.92530026 0.56470588 0.92549020 0.07058824
v -14.40434147 0.16489184 21.80672839 0.56470588 0.92549020 0.07058824
v -4.80788957 0.16489184 19.19716901 0.56470588 0.92549020 0.07058824
v -0.08875944 4.81504747 19.19716901 0.56470588 0.92549020 0.07058824
v -14.29940224 0.16489184 18.97171892 0.56470588 0.92549020 0.07058824
v -16.04107937 12.56530758 19.07404868 0.56470588 0.92549020 0.07058824
v -16.08963312 12.56530758 21.22653741 0.56470588 0.92549020 0.07058824
v -14.40590759 0.16489184 21.51663290 0.56470588 0.92549020 0.07058824
v -14.40434147 0.16489184 19.22608064 0.56470588 0.92549020 0.07058824
v -16.08963312 12.56530758 19.76404101 0.56470588 0.92549020 0.07058824
v -14.40590759 0.16489184 19.48726450 0.56470588 0.92549020 0.07058824
f 128 129 135
f 128 135 143
f 128 143 152
f 128 152 144
f 128 144 136
f 128 136 130
f 128 130 138
f 128 138 148
f 128 148 154
f 128 154 158
f 128 158 155
f 128 155 149
f 128 149 139
f 128 139 131
f 128 131 140
f 128 140 132
f 128 132 129
f 129 132 133
f 129 133 134
f 129 134 135
f 130 136 137
f 130 137 147
f 130 147 138
f 131 139 140
f 132 140 139
f 132 139 141
f 132 141 150
f 132 150 156
f 132 156 159
f 132 159 157
f 132 157 153
f 132 153 146
f 132 146 137
f 132 137 145
f 132 145 151
f 132 151 142
f 132 142 134
f 132 134 133
f 134 142 135
f 135 142 143
f 136 144 145
f 136 145 137
f 137 146 147
f 138 147 148
f 139 149 141
f 141 149 150
f 142 151 143
f 143 151 152
f 144 152 151
f 144 151 145
f 146 153 148
f 146 148 147
f 148 153 154
f 149 155 150
f 150 155 156
f 153 157 154
f 154 157 158
f 155 158 159
f 155 159 156
f 157 159 158

o geometry_5
v -14.30948773 -0.06227651 21.84167992 0.08627451 0.01960784 0.83137255
v -14.24645216 -0.14220587 19.06320474 0.08627451 0.01960784 0.83137255
v -14.18481676 -1.39022887 19.29702263 0.08627451 0.01960784 0.83137255
v -13.97749908 -1.79688589 21.91597432 0.08627451 0.01960784 0.83137255
v -4.96057598 0.16489184 21.79954778 0.08627451 0.01960784 0.83137255
v -4.97318326 0.16489184 19.09922617 0.08627451 0.01960784 0.83137255
v -13.80099883 -2.48259752 18.90850522 0.08627451 0.01960784 0.83137255
v -13.29671209 -5.25489007 19.34204914 0.08627451 0.01960784 0.83137255
v -13.29671209 -5.25489007 21.66189473 0.08627451 0.01960784 0.83137255
v -12.17467503 -6.82543637 22.12663502 0.08627451 0.01960784 0.83137255
v 0.00104298 -5.01089542 19.08025011 0.08627451 0.01960784 0.83137255
v 0.00104298 -5.02071150 21.92626616 0.08627451 0.01960784 0.83137255
v -6.49164594 -12.21857368 18.84096545 0.08627451 0.01960784 0.83137255
v -12.17467503 -6.82543637 18.87441337 0.08627451 0.01960784 0.83137255
v -12.60471936 -6.61509432 19.34204914 0.08627451 0.01960784 0.83137255
v -12.60471936 -6.61509432 21.66189473 0.08627451 0.01960784 0.83137255
v -11.38882820 -8.54181652 21.97322225 0.08627451 0.01960784 0.83137255
v -8.03252140 -11.62821700 22.05491412 0.08627451 0.01960784 0.83137255
v -6.24650657 -12.50603923 22.09479472 0.08627451 0.01960784 0.83137255
v -2.05532517 -13.89428879 22.06231159 0.08627451 0.01960784 0.83137255
v -0.28892195 -14.02750513 18.93262720 0.08627451 0.01960784 0.83137255
v -0.61390646 -14.16072147 21.90632531 0.08627451 0.01960784 0.83137255
v -5.33178690 -12.94354963 18.85833279 0.08627451 0.01960784 0.83137255
v -6.78161073 -12.21857368 18.86251392 0.08627451 0.01960784 0.83137255
v -8.03252140 -11.62821700 18.94645623 0.08627451 0.01960784 0.83137255
v -11.38882820 -8.54181652 19.02911289 0.08627451 0.01960784 0.83137255
v -9.39689661 -10.66906469 21.96807633 0.08627451 0.01960784 0.83137255
v -7.07157539 -12.37142218 21.80694524 0.08627451 0.01960784 0.83137255
v -6.88246800 -12.41629601 22.01406763 0.08627451 0.01960784 0.83137255
v -6.52806665 -12.63224535 19.14200114 0.08627451 0.01960784 0.83137255
v -1.54543556 -14.04573436 19.19667666 0.08627451 0.01960784 0.83137255
v -9.39689661 -10.66906469 19.03490274 0.08627451 0.01960784 0.83137255
f 160 161 162
f 160 162 163
f 160 163 164
f 160 164 165
f 160 165 161
f 161 165 166
f 161 166 162
f 162 166 167
f 162 167 168
f 162 168 163
f 163 168 169
f 163 169 164
f 164 170 165
f 164 169 171
f 164 171 170
f 165 170 166
f 166 170 172
f 166 172 173
f 166 173 167
f 167 173 174
f 167 174 175
f 167 175 168
f 168 175 169
f 169 176 177
f 169 177 178
f 169 178 179
f 169 179 171
f 169 175 176
f 170 171 180
f 170 180 172
f 171 179 181
f 171 181 180
f 172 180 182
f 172 182 183
f 172 183 173
f 173 183 184
f 173 184 185
f 173 185 174
f 174 185 176
f 174 176 175
f 176 185 191
f 176 191 186
f 176 186 177
f 177 186 187
f 177 187 188
f 177 188 178
f 178 188 179
f 179 188 187
f 179 187 189
f 179 189 190
f 179 190 181
f 180 181 190
f 180 190 182
f 182 189 183
f 182 190 189
f 183 189 184
f 184 189 187
f 184 187 191
f 184 191 185
f 186 191 187

o geometry_6
v 0.00104409 -5.15762988 18.94605571 0.77647059 0.86666667 0.97647059
v 0.00104409 -5.02935921 22.02308157 0.77647059 0.86666667 0.97647059
v 5.02957133 0.16489184 19.07015079 0.77647059 0.86666667 0.97647059
v 13.87533234 -1.99597353 18.91064613 0.77647059 0.86666667 0.97647059
v 12.94185983 -4.82497186 18.84080281 0.77647059 0.86666667 0.97647059
v 1.56099871 -13.81236568 18.84502598 0.77647059 0.86666667 0.97647059
v 0.23163402 -14.02802957 18.92364093 0.77647059 0.86666667 0.97647059
v 12.94185983 -4.82497186 22.15952088 0.77647059 0.86666667 0.97647059
v 13.87533234 -1.99597353 22.09065121 0.77647059 0.86666667 0.97647059
v 14.14481871 -0.25938810 22.04484689 0.77647059 0.86666667 0.97647059
v 5.00595609 0.16489184 21.90938232 0.77647059 0.86666667 0.97647059
v 0.40804962 -14.23382648 21.99579415 0.77647059 0.86666667 0.97647059
v 1.87076730 -13.88989192 22.10332072 0.77647059 0.86666667 0.97647059
v 14.19204698 -0.28335075 18.97886634 0.77647059 0.86666667 0.97647059
v 12.15563296 -7.20432025 18.96327368 0.77647059 0.86666667 0.97647059
v 12.07228700 -6.56578600 18.84080281 0.77647059 0.86666667 0.97647059
v 2.66949773 -13.79122216 18.90999666 0.77647059 0.86666667 0.97647059
v 1.92216342 -14.03225827 18.95937469 0.77647059 0.86666667 0.97647059
v 9.89557340 -9.75422414 18.85964499 0.77647059 0.86666667 0.97647059
v 6.19780106 -12.61141384 18.96164947 0.77647059 0.86666667 0.97647059
v 12.07228700 -6.56578600 22.15952088 0.77647059 0.86666667 0.97647059
v 11.90281799 -7.70894556 22.04062372 0.77647059 0.86666667 0.97647059
v 2.21248462 -14.00970519 18.97561791 0.77647059 0.86666667 0.97647059
v 5.22960052 -13.25417680 19.02791908 0.77647059 0.86666667 0.97647059
v 6.75621676 -12.29285371 22.05654166 0.77647059 0.86666667 0.97647059
v 9.89557340 -9.75422414 22.14100398 0.77647059 0.86666667 0.97647059
v 11.09297366 -8.74215661 18.94670517 0.77647059 0.86666667 0.97647059
v 9.15101840 -10.89315500 18.98503900 0.77647059 0.86666667 0.97647059
v 11.09297366 -8.74215661 22.05524273 0.77647059 0.86666667 0.97647059
v 10.20811908 -9.92055316 21.80672839 0.77647059 0.86666667 0.97647059
v 10.20811908 -9.92055316 19.19716901 0.77647059 0.86666667 0.97647059
v 9.15101840 -10.89315500 22.01755947 0.77647059 0.86666667 0.97647059
f 192 193 194
f 192 194 195
f 192 195 196
f 192 196 197
f 192 197 198
f 192 198 193
f 193 199 200
f 193 200 201
f 193 201 202
f 193 202 194
f 193 198 203
f 193 203 204
f 193 204 199
f 194 202 201
f 194 201 205
f 194 205 195
f 195 200 199
f 195 199 196
f 195 205 200
f 196 206 207
f 196 207 197
f 196 199 206
f 197 208 209
f 197 209 198
f 197 207 210
f 197 210 211
f 197 211 208
f 198 209 203
f 199 204 212
f 199 212 213
f 199 213 206
f 200 205 201
f 203 209 214
f 203 214 204
f 204 214 215
f 204 215 216
f 204 216 217
f 204 217 212
f 206 213 218
f 206 218 207
f 207 218 210
f 208 211 215
f 208 215 214
f 208 214 209
f 210 219 211
f 210 218 219
f 211 219 215
f 212 220 213
f 212 217 220
f 213 220 221
f 213 221 222
f 213 222 218
f 215 219 223
f 215 223 216
f 216 223 217
f 217 223 220
f 218 222 219
f 219 222 221
f 219 221 223
f 220 223 221

o geometry_7
v -0.58722591 12.65829591 -18.84079948 0.79607843 0.45882353 0.78039216
v -0.58722591 5.20933259 -18.84145005 0.79607843 0.45882353 0.78039216
v -0.58722591 12.65829591 -22.15919669 0.79607843 0.45882353 0.78039216
v -15.47950542 12.65829591 -18.84079948 0.79607843 0.45882353 0.78039216
v -14.03027213 0.15646984 -18.84079948 0.79607843 0.45882353 0.78039216
v -5.30597820 0.15646984 -18.84145005 0.79607843 0.45882353 0.78039216
v -0.58722591 4.82140380 -18.97074305 0.79607843 0.45882353 0.78039216
v -4.94100882 0.15646984 -18.89277647 0.79607843 0.45882353 0.78039216
v -0.58722591 5.32803613 -22.15919669 0.79607843 0.45882353 0.78039216
v -15.56010250 12.65829591 -22.15919669 0.79607843 0.45882353 0.78039216
v -16.05585328 12.65829591 -18.99185780 0.79607843 0.45882353 0.78039216
v -15.76996049 12.61791301 -18.84307426 0.79607843 0.45882353 0.78039216
v -15.47950542 11.99624710 -18.84079948 0.79607843 0.45882353 0.78039216
v -14.31616492 0.15646984 -18.98211253 0.79607843 0.45882353 0.78039216
v -0.58722591 4.74797903 -19.32775761 0.79607843 0.45882353 0.78039216
v -4.81631074 0.15646984 -19.11367811 0.79607843 0.45882353 0.78039216
v -0.58722591 4.74675534 -21.69822816 0.79607843 0.45882353 0.78039216
v -0.60091221 4.88014428 -22.06986284 0.79607843 0.45882353 0.78039216
v -4.91211517 0.15891722 -22.07246069 0.79607843 0.45882353 0.78039216
v -5.33183033 0.15646984 -22.15919669 0.79607843 0.45882353 0.78039216
v -15.47950542 11.99624710 -22.15919669 0.79607843 0.45882353 0.78039216
v -15.92507215 12.39396653 -22.14003143 0.79607843 0.45882353 0.78039216
v -15.87488921 12.63749206 -22.14133036 0.79607843 0.45882353 0.78039216
v -16.09234991 12.65829591 -21.81874953 0.79607843 0.45882353 0.78039216
v -16.11820232 12.65829591 -19.32970711 0.79607843 0.45882353 0.78039216
v -14.40436581 0.15646984 -19.35407250 0.79607843 0.45882353 0.78039216
v -4.80870721 0.15646984 -19.37876096 0.79607843 0.45882353 0.78039216
v -4.80870721 0.15646984 -21.69822816 0.79607843 0.45882353 0.78039216
v -14.22644327 0.15646984 -22.06693970 0.79607843 0.45882353 0.78039216
v -14.40740733 0.15646984 -21.69822816 0.79607843 0.45882353 0.78039216
v -16.12276405 12.65829591 -21.40813156 0.79607843 0.45882353 0.78039216
v -16.12276405 12.65829591 -19.66885755 0.79607843 0.45882353 0.78039216
f 224 225 230
f 224 230 238
f 224 238 240
f 224 240 232
f 224 232 226
f 224 226 233
f 224 233 247
f 224 247 254
f 224 254 255
f 224 255 248
f 224 248 234
f 224 234 227
f 224 227 236
f 224 236 228
f 224 228 229
f 224 229 225
f 225 229 231
f 225 231 230
f 226 232 243
f 226 243 244
f 226 244 233
f 227 234 235
f 227 235 236
f 228 236 235
f 228 235 237
f 228 237 249
f 228 249 253
f 228 253 252
f 228 252 243
f 228 243 251
f 228 251 250
f 228 250 239
f 228 239 231
f 228 231 229
f 230 231 239
f 230 239 238
f 232 240 241
f 232 241 242
f 232 242 243
f 233 244 245
f 233 245 246
f 233 246 247
f 234 248 249
f 234 249 237
f 234 237 235
f 238 239 250
f 238 250 240
f 240 250 251
f 240 251 242
f 240 242 241
f 242 251 243
f 243 252 244
f 244 252 245
f 245 247 246
f 245 252 253
f 245 253 247
f 247 253 254
f 248 255 249
f 249 255 253
f 253 255 254

o geometry_8
v -14.22284079 -0.42773963 -19.05253561 0.11764706 0.63921569 0.14117647
v -5.07533931 0.15506248 -19.01618557 0.11764706 0.63921569 0.14117647
v -4.96509788 0.15506248 -21.84633679 0.11764706 0.63921569 0.14117647
v -14.19369626 -0.58668445 -21.99460474 0.11764706 0.63921569 0.14117647
v -14.06064644 -2.21518457 -21.69838969 0.11764706 0.63921569 0.14117647
v -13.90858958 -2.40341167 -19.13926497 0.11764706 0.63921569 0.14117647
v -12.46151269 -6.60014449 -18.89087565 0.11764706 0.63921569 0.14117647
v -10.41381051 -9.40121922 -18.88991971 0.11764706 0.63921569 0.14117647
v -4.05148822 -13.57146234 -19.00120034 0.11764706 0.63921569 0.14117647
v -1.27771336 -4.78062911 -19.13065488 0.11764706 0.63921569 0.14117647
v -1.27771336 -4.89914346 -22.01022948 0.11764706 0.63921569 0.14117647
v -12.82771654 -5.71199723 -22.10620402 0.11764706 0.63921569 0.14117647
v -13.80721797 -3.43656076 -21.90436806 0.11764706 0.63921569 0.14117647
v -13.37132072 -5.10131134 -19.23364406 0.11764706 0.63921569 0.14117647
v -12.78209976 -6.24739625 -19.08888564 0.11764706 0.63921569 0.14117647
v -11.75317993 -8.08085241 -19.07836367 0.11764706 0.63921569 0.14117647
v -9.85626777 -10.22104780 -18.92021104 0.11764706 0.63921569 0.14117647
v -6.00415493 -12.84923472 -18.99833031 0.11764706 0.63921569 0.14117647
v -4.08823546 -13.51987481 -22.05391060 0.11764706 0.63921569 0.14117647
v -2.76407172 -13.96603956 -21.80520485 0.11764706 0.63921569 0.14117647
v -2.50684163 -13.96325140 -19.16604676 0.11764706 0.63921569 0.14117647
v -1.31319376 -14.08733985 -19.14723556 0.11764706 0.63921569 0.14117647
v -12.15106283 -7.30424689 -22.13808858 0.11764706 0.63921569 0.14117647
v -1.49566199 -14.07060870 -21.90373076 0.11764706 0.63921569 0.14117647
v -6.59971175 -12.41980112 -22.12023331 0.11764706 0.63921569 0.14117647
v -9.81065071 -10.03003255 -22.14733596 0.11764706 0.63921569 0.14117647
v -12.42096382 -6.97380611 -21.69838969 0.11764706 0.63921569 0.14117647
v -12.42096382 -6.97380611 -19.37872334 0.11764706 0.63921569 0.14117647
v -11.32742017 -8.46148664 -22.03828807 0.11764706 0.63921569 0.14117647
v -10.20346486 -9.84320173 -22.06188340 0.11764706 0.63921569 0.14117647
v -8.98067232 -11.02832526 -21.90978947 0.11764706 0.63921569 0.14117647
v -9.00981671 -10.98789257 -19.05955026 0.11764706 0.63921569 0.14117647
f 256 257 258
f 256 258 259
f 256 259 260
f 256 260 261
f 256 261 262
f 256 262 257
f 257 262 263
f 257 263 264
f 257 264 265
f 257 265 258
f 258 265 266
f 258 266 259
f 259 266 267
f 259 267 268
f 259 268 260
f 260 268 269
f 260 269 261
f 261 269 262
f 262 269 270
f 262 270 271
f 262 271 263
f 263 271 272
f 263 272 264
f 264 273 274
f 264 274 275
f 264 275 276
f 264 276 277
f 264 277 265
f 264 272 273
f 265 277 266
f 266 278 267
f 266 277 279
f 266 279 274
f 266 274 280
f 266 280 281
f 266 281 278
f 267 278 282
f 267 282 268
f 268 282 269
f 269 282 283
f 269 283 270
f 270 283 271
f 271 284 285
f 271 285 272
f 271 283 282
f 271 282 284
f 272 286 287
f 272 287 273
f 272 285 286
f 273 280 274
f 273 287 286
f 273 286 280
f 274 279 275
f 275 279 277
f 275 277 276
f 278 281 285
f 278 285 284
f 278 284 282
f 280 286 281
f 281 286 285

o geometry_9
v -0.58722535 12.65829591 -18.84079948 0.94117647 0.52156863 0.41176471
v -0.58722535 12.65829591 -22.15919669 0.94117647 0.52156863 0.41176471
v -0.58722535 4.99640043 -18.99543151 0.94117647 0.52156863 0.41176471
v 14.22581244 1.50871456 -18.97171669 0.94117647 0.52156863 0.41176471
v 13.89131113 8.58932925 -18.86549015 0.94117647 0.52156863 0.41176471
v 13.52175208 10.69173074 -18.84079948 0.94117647 0.52156863 0.41176471
v 13.31141003 12.63749206 -19.01264948 0.94117647 0.52156863 0.41176471
v 13.48377341 12.63749206 -21.89996233 0.94117647 0.52156863 0.41176471
v -0.58722535 5.07104889 -22.02145956 0.94117647 0.52156863 0.41176471
v 13.62692311 11.33419939 -22.03055426 0.94117647 0.52156863 0.41176471
v 13.85187200 8.44370230 -22.15497462 0.94117647 0.52156863 0.41176471
v 14.10165318 4.31354777 -22.15562519 0.94117647 0.52156863 0.41176471
v 4.97953277 0.15646984 -21.83011901 0.94117647 0.52156863 0.41176471
v 5.00290350 0.17238003 -19.18871934 0.94117647 0.52156863 0.41176471
v 14.30176978 0.24702738 -19.15233611 0.94117647 0.52156863 0.41176471
v 14.26233064 6.22137357 -19.05455592 0.94117647 0.52156863 0.41176471
v 14.20244282 3.19014540 -18.94800188 0.94117647 0.52156863 0.41176471
v 14.01108900 9.38598958 -19.19164469 0.94117647 0.52156863 0.41176471
v 13.67950862 11.80656617 -19.27253220 0.94117647 0.52156863 0.41176471
v 13.86209745 10.69173074 -21.69822816 0.94117647 0.52156863 0.41176471
v 14.03153990 9.11064587 -21.80738005 0.94117647 0.52156863 0.41176471
v 14.26671425 6.22137357 -21.85155905 0.94117647 0.52156863 0.41176471
v 14.25502833 3.35290512 -22.03445325 0.94117647 0.52156863 0.41176471
v 14.33536706 0.21765880 -21.88469607 0.94117647 0.52156863 0.41176471
v 14.29592793 5.21422736 -19.17215194 0.94117647 0.52156863 0.41176471
v 14.30907430 5.14936842 -21.81095376 0.94117647 0.52156863 0.41176471
v 14.21412873 7.21138701 -19.37876096 0.94117647 0.52156863 0.41176471
v 14.15131777 8.00927214 -19.37876096 0.94117647 0.52156863 0.41176471
v 13.86209745 10.69173074 -19.37876096 0.94117647 0.52156863 0.41176471
v 14.15131777 8.00927214 -21.69822816 0.94117647 0.52156863 0.41176471
v 14.21412873 7.21138701 -21.69822816 0.94117647 0.52156863 0.41176471
f 288 289 296
f 288 296 290
f 288 290 291
f 288 291 292
f 288 292 293
f 288 293 294
f 288 294 295
f 288 295 289
f 289 295 297
f 289 297 298
f 289 298 299
f 289 299 296
f 290 296 300
f 290 300 301
f 290 301 291
f 291 302 303
f 291 303 304
f 291 304 292
f 291 301 302
f 292 305 306
f 292 306 293
f 292 304 303
f 292 303 305
f 293 306 294
f 294 306 295
f 295 306 307
f 295 307 297
f 296 299 300
f 297 307 308
f 297 308 298
f 298 308 309
f 298 309 299
f 299 309 310
f 299 310 311
f 299 311 300
f 300 311 301
f 301 311 302
f 302 311 312
f 302 312 303
f 303 312 313
f 303 313 309
f 303 309 314
f 303 314 315
f 303 315 305
f 305 307 316
f 305 316 306
f 305 315 317
f 305 317 307
f 306 316 307
f 307 317 308
f 308 317 309
f 309 317 318
f 309 318 314
f 309 313 310
f 310 313 311
f 311 313 312
f 314 318 317
f 314 317 315

o geometry_10
v 5.11503164 0.15505806 -22.01161028 0.26274510 0.77254902 0.45490196
v -1.27619149 -4.89898856 -22.00999935 0.26274510 0.77254902 0.45490196
v -1.27619149 -4.78046979 -19.13076773 0.26274510 0.77254902 0.45490196
v 5.00394574 0.15505806 -19.12851287 0.26274510 0.77254902 0.45490196
v 14.16774134 -0.30491249 -21.99034064 0.26274510 0.77254902 0.45490196
v 13.81165837 -1.63544501 -22.15951976 0.26274510 0.77254902 0.45490196
v 2.13702627 -13.87549972 -22.11633874 0.26274510 0.77254902 0.45490196
v -0.77402408 -14.21413015 -21.90913669 0.26274510 0.77254902 0.45490196
v -0.84250098 -14.19437628 -19.11272217 0.26274510 0.77254902 0.45490196
v 3.20070788 -13.75274782 -18.96674670 0.26274510 0.77254902 0.45490196
v 13.82992080 -1.88941728 -18.86781804 0.26274510 0.77254902 0.45490196
v 14.26665229 -0.37687127 -19.16331393 0.26274510 0.77254902 0.45490196
v 14.03383017 -2.37761016 -21.69838969 0.26274510 0.77254902 0.45490196
v 13.96839701 -2.57373261 -21.98196289 0.26274510 0.77254902 0.45490196
v 13.96535217 -2.21534832 -22.13986105 0.26274510 0.77254902 0.45490196
v 13.89230911 -1.92469188 -22.15178373 0.26274510 0.77254902 0.45490196
v 12.65210844 -5.69617997 -22.15951976 0.26274510 0.77254902 0.45490196
v 8.88128751 -10.62324377 -22.15951976 0.26274510 0.77254902 0.45490196
v 0.68834895 -14.25645702 -21.98067503 0.26274510 0.77254902 0.45490196
v 7.74151910 -11.96083076 -21.91042677 0.26274510 0.77254902 0.45490196
v 6.20458226 -12.68041849 -21.88529132 0.26274510 0.77254902 0.45490196
v 6.48001337 -12.56754242 -19.13270174 0.26274510 0.77254902 0.45490196
v 7.86934390 -11.87617260 -19.03635103 0.26274510 0.77254902 0.45490196
v 9.41388953 -10.55833948 -18.96771370 0.26274510 0.77254902 0.45490196
v 12.86515013 -5.74274218 -18.90713105 0.26274510 0.77254902 0.45490196
v 13.53318574 -4.26688034 -21.94812883 0.26274510 0.77254902 0.45490196
v 12.76167192 -6.27890684 -21.86241073 0.26274510 0.77254902 0.45490196
v 11.54125387 -8.29798561 -21.94264989 0.26274510 0.77254902 0.45490196
v 10.62061352 -9.31810782 -22.11537174 0.26274510 0.77254902 0.45490196
v 9.55693080 -10.42994267 -22.08862536 0.26274510 0.77254902 0.45490196
v 9.04715515 -11.08039297 -21.69838969 0.26274510 0.77254902 0.45490196
v 11.07256259 -8.94138144 -19.06986422 0.26274510 0.77254902 0.45490196
f 319 320 321
f 319 321 322
f 319 322 323
f 319 323 324
f 319 324 320
f 320 325 326
f 320 326 327
f 320 327 321
f 320 324 325
f 321 327 328
f 321 328 329
f 321 329 322
f 322 329 330
f 322 330 323
f 323 330 331
f 323 331 332
f 323 332 333
f 323 333 334
f 323 334 324
f 324 334 335
f 324 335 336
f 324 336 325
f 325 328 337
f 325 337 326
f 325 336 338
f 325 338 339
f 325 339 328
f 326 337 327
f 327 337 328
f 328 339 340
f 328 340 341
f 328 341 342
f 328 342 343
f 328 343 329
f 329 343 330
f 330 343 331
f 331 343 344
f 331 344 332
f 332 344 333
f 333 344 335
f 333 335 334
f 335 344 345
f 335 345 346
f 335 346 347
f 335 347 336
f 336 347 348
f 336 348 338
f 338 341 340
f 338 340 339
f 338 348 349
f 338 349 341
f 341 349 342
f 342 349 350
f 342 350 343
f 343 350 345
f 343 345 344
f 345 350 346
f 346 350 347
f 347 350 349
f 347 349 348

