# https://github.com/mikedh/trimesh

o geometry_0
v 31.15939704 59.56424215 33.69644462 0.54509804 0.71372549 0.60000000
v 30.93848655 60.04127799 33.86734311 0.54509804 0.71372549 0.60000000
v 30.84785819 58.69462064 34.15952197 0.54509804 0.71372549 0.60000000
v 31.10275321 58.18641941 33.87836739 0.54509804 0.71372549 0.60000000
v 31.15656462 58.69462064 33.69644462 0.54509804 0.71372549 0.60000000
v 31.15939704 59.56424215 -21.69644462 0.54509804 0.71372549 0.60000000
v 2.60256058 60.04228261 33.86182876 0.54509804 0.71372549 0.60000000
v 30.93848655 60.04127799 -21.86734311 0.54509804 0.71372549 0.60000000
v 30.55897422 57.53395101 34.15952197 0.54509804 0.71372549 0.60000000
v 31.08859114 57.38666777 33.85631662 0.54509804 0.71372549 0.60000000
v 2.58839962 57.41883999 33.98311134 0.54509804 0.71372549 0.60000000
v 31.08576094 55.06080772 21.80527567 0.54509804 0.71372549 0.60000000
v 31.11691527 55.93997978 22.23527686 0.54509804 0.71372549 0.60000000
v 31.15373221 58.11403356 -21.69644462 0.54509804 0.71372549 0.60000000
v 31.15656462 58.69462064 -21.69644462 0.54509804 0.71372549 0.60000000
v 31.08009612 56.66533412 -21.98862348 0.54509804 0.71372549 0.60000000
v 31.01212485 56.66533412 -22.14298334 0.54509804 0.71372549 0.60000000
v 30.95264861 58.47696300 -22.10990607 0.54509804 0.71372549 0.60000000
v 2.38731492 59.56424215 33.83977798 0.54509804 0.71372549 0.60000000
v 2.60256058 60.04228261 -21.86182876 0.54509804 0.71372549 0.60000000
v 2.34199963 59.56424215 -21.69644462 0.54509804 0.71372549 0.60000000
v 30.63261253 56.99156832 33.87836739 0.54509804 0.71372549 0.60000000
v 2.22588067 54.90699001 21.65643017 0.54509804 0.71372549 0.60000000
v 2.52609097 54.90699001 22.24078900 0.54509804 0.71372549 0.60000000
v 30.75156501 54.90699001 22.26835302 0.54509804 0.71372549 0.60000000
v 31.04044455 55.06080772 -21.89490603 0.54509804 0.71372549 0.60000000
v 31.09425597 55.93997978 -21.83977798 0.54509804 0.71372549 0.60000000
v 30.92998931 55.72232435 -22.14849548 0.54509804 0.71372549 0.60000000
v 30.55897422 54.90699001 -22.15952197 0.54509804 0.71372549 0.60000000
v 2.52325966 54.90699001 -22.10439393 0.54509804 0.71372549 0.60000000
v 2.22588067 54.91151302 -21.55311126 0.54509804 0.71372549 0.60000000
f 1 2 3
f 1 3 4
f 1 4 5
f 1 5 15
f 1 15 6
f 1 6 8
f 1 8 2
f 2 7 3
f 2 8 20
f 2 20 7
f 3 9 10
f 3 10 4
f 3 7 11
f 3 11 9
f 4 10 5
f 5 12 13
f 5 13 14
f 5 14 15
f 5 10 12
f 6 15 16
f 6 16 17
f 6 17 18
f 6 18 8
f 7 19 11
f 7 20 21
f 7 21 19
f 8 18 20
f 9 11 22
f 9 22 10
f 10 22 12
f 11 19 23
f 11 23 24
f 11 24 22
f 12 22 25
f 12 25 26
f 12 26 27
f 12 27 13
f 13 27 14
f 14 27 16
f 14 16 15
f 16 26 17
f 16 27 26
f 17 26 28
f 17 28 29
f 17 29 30
f 17 30 18
f 18 30 20
f 19 21 23
f 20 30 21
f 21 30 31
f 21 31 23
f 22 24 25
f 23 31 30
f 23 30 29
f 23 29 25
f 23 25 24
f 25 29 26
f 26 29 28

o geometry_1
v 2.70922139 54.90699001 -18.77231705 0.54117647 0.42352941 0.64313725
v 2.39256594 54.89458492 -21.92865600 0.54117647 0.42352941 0.64313725
v -9.98736127 24.86584205 -19.05343623 0.54117647 0.42352941 0.64313725
v -10.87659946 21.95890036 -18.93546402 0.54117647 0.42352941 0.64313725
v 15.90030735 12.75427708 -18.95366449 0.54117647 0.42352941 0.64313725
v 30.76576469 54.76226257 -18.86364023 0.54117647 0.42352941 0.64313725
v -9.98736127 24.60946887 -22.01088005 0.54117647 0.42352941 0.64313725
v 30.89589635 54.01381963 -21.88120866 0.54117647 0.42352941 0.64313725
v 30.67467164 51.11101261 -22.09245354 0.54117647 0.42352941 0.64313725
v -11.87428144 19.32073805 -21.98618053 0.54117647 0.42352941 0.64313725
v -11.92199653 18.99820369 -19.02223764 0.54117647 0.42352941 0.64313725
v -12.90232776 15.41311491 -19.09666150 0.54117647 0.42352941 0.64313725
v -13.41851949 13.03959620 -19.14638583 0.54117647 0.42352941 0.64313725
v 15.88729430 12.66330574 -21.91793266 0.54117647 0.42352941 0.64313725
v 23.85573428 28.86443653 -19.00631196 0.54117647 0.42352941 0.64313725
v 27.09603103 36.22482721 -19.00111183 0.54117647 0.42352941 0.64313725
v 30.50116202 48.65479298 -19.13793506 0.54117647 0.42352941 0.64313725
v 30.85251839 51.67751285 -19.24290915 0.54117647 0.42352941 0.64313725
v -13.17994404 13.75082388 -22.00373042 0.54117647 0.42352941 0.64313725
v -12.52494417 16.76941131 -21.99560494 0.54117647 0.42352941 0.64313725
v 30.85685553 51.51211323 -21.69823701 0.54117647 0.42352941 0.64313725
v 30.39271823 48.34879725 -21.86105870 0.54117647 0.42352941 0.64313725
v 29.69000328 44.84641050 -21.96310522 0.54117647 0.42352941 0.64313725
v 29.08271850 42.60934659 -21.99658079 0.54117647 0.42352941 0.64313725
v 28.02430782 38.82163962 -22.00502935 0.54117647 0.42352941 0.64313725
v 26.74033531 35.64592077 -22.06580452 0.54117647 0.42352941 0.64313725
v 25.20911086 31.93264429 -22.03330480 0.54117647 0.42352941 0.64313725
v 23.81235632 28.76519532 -21.96245686 0.54117647 0.42352941 0.64313725
v 25.67324926 32.63146800 -19.11031019 0.54117647 0.42352941 0.64313725
v 28.55351316 40.30198795 -19.17043479 0.54117647 0.42352941 0.64313725
v 29.39069913 43.12209295 -19.20715879 0.54117647 0.42352941 0.64313725
v 30.06304973 46.13240996 -19.23478366 0.54117647 0.42352941 0.64313725
f 32 33 34
f 32 34 35
f 32 35 36
f 32 36 37
f 32 37 33
f 33 38 34
f 33 37 39
f 33 39 40
f 33 40 38
f 34 38 41
f 34 41 42
f 34 42 35
f 35 42 43
f 35 43 44
f 35 44 36
f 36 45 46
f 36 46 47
f 36 47 37
f 36 44 45
f 37 47 48
f 37 48 49
f 37 49 39
f 38 50 51
f 38 51 41
f 38 40 50
f 39 49 52
f 39 52 40
f 40 53 54
f 40 54 55
f 40 55 56
f 40 56 57
f 40 57 50
f 40 52 53
f 41 51 43
f 41 43 42
f 43 51 44
f 44 51 50
f 44 50 45
f 45 58 59
f 45 59 46
f 45 50 57
f 45 57 58
f 46 59 60
f 46 60 47
f 47 61 62
f 47 62 48
f 47 60 56
f 47 56 61
f 48 52 49
f 48 62 63
f 48 63 53
f 48 53 52
f 53 63 54
f 54 62 55
f 54 63 62
f 55 62 56
f 56 60 57
f 56 62 61
f 57 60 58
f 58 60 59

o geometry_2
v 2.58001413 54.90699001 18.83762077 0.43529412 0.89019608 0.96078431
v -9.74945963 25.05412945 18.88645223 0.43529412 0.89019608 0.96078431
v -9.93522275 25.05412945 18.99225502 0.43529412 0.89019608 0.96078431
v -9.98706254 25.03344454 19.15633027 0.43529412 0.89019608 0.96078431
v 2.56705418 54.89871405 22.16339774 0.43529412 0.89019608 0.96078431
v 30.53517310 54.76219176 22.11131012 0.43529412 0.89019608 0.96078431
v 30.73821726 54.76219176 18.89752077 0.43529412 0.89019608 0.96078431
v 23.86498941 29.12911112 18.92844828 0.43529412 0.89019608 0.96078431
v -12.00021537 18.62517383 18.95611963 0.43529412 0.89019608 0.96078431
v -10.90723820 22.05477753 18.97239715 0.43529412 0.89019608 0.96078431
v 15.86854339 12.64715435 18.96100222 0.43529412 0.89019608 0.96078431
v -11.80149285 19.38225119 22.04164383 0.43529412 0.89019608 0.96078431
v -9.98706254 25.03344454 21.84761802 0.43529412 0.89019608 0.96078431
v -9.74945963 25.05412945 22.11423989 0.43529412 0.89019608 0.96078431
v 15.86422341 12.64301858 22.04392193 0.43529412 0.89019608 0.96078431
v -9.93522275 25.05412945 22.01039103 0.43529412 0.89019608 0.96078431
v 24.13283275 29.42697804 21.99476518 0.43529412 0.89019608 0.96078431
v 29.50267679 43.99762271 21.92347026 0.43529412 0.89019608 0.96078431
v 30.37533209 48.20498814 21.92574947 0.43529412 0.89019608 0.96078431
v 30.85917899 51.67596388 20.50181150 0.43529412 0.89019608 0.96078431
v 30.34941109 47.79955924 19.14558702 0.43529412 0.89019608 0.96078431
v 29.50267679 43.99762271 19.07885050 0.43529412 0.89019608 0.96078431
v 27.52840768 37.66795587 19.01048535 0.43529412 0.89019608 0.96078431
v 25.56709575 32.86071862 18.94537637 0.43529412 0.89019608 0.96078431
v -13.11047248 14.09925490 19.04466793 0.43529412 0.89019608 0.96078431
v -12.64390551 16.40358529 21.96416406 0.43529412 0.89019608 0.96078431
v -13.27463514 13.64004335 21.90263543 0.43529412 0.89019608 0.96078431
v 25.33381226 32.07468149 21.95016575 0.43529412 0.89019608 0.96078431
v 28.58250335 40.56801789 21.87431241 0.43529412 0.89019608 0.96078431
v 28.58250335 40.56801789 19.12800725 0.43529412 0.89019608 0.96078431
v 27.18711965 36.38133682 21.86552308 0.43529412 0.89019608 0.96078431
f 64 65 66
f 64 66 67
f 64 67 68
f 64 68 69
f 64 69 70
f 64 70 71
f 64 71 65
f 65 72 73
f 65 73 66
f 65 71 74
f 65 74 72
f 66 73 67
f 67 73 72
f 67 72 75
f 67 75 76
f 67 76 68
f 68 77 78
f 68 78 69
f 68 76 79
f 68 79 77
f 69 80 81
f 69 81 82
f 69 82 83
f 69 83 70
f 69 78 80
f 70 83 84
f 70 84 85
f 70 85 86
f 70 86 87
f 70 87 71
f 71 87 80
f 71 80 74
f 72 88 89
f 72 89 75
f 72 74 88
f 74 80 78
f 74 78 90
f 74 90 88
f 75 89 90
f 75 90 78
f 75 78 77
f 75 77 79
f 75 79 76
f 80 87 91
f 80 91 81
f 81 84 82
f 81 91 92
f 81 92 93
f 81 93 85
f 81 85 84
f 82 84 83
f 85 93 86
f 86 93 94
f 86 94 87
f 87 94 91
f 88 90 89
f 91 94 92
f 92 94 93

o geometry_3
v 16.08963312 12.56530758 21.23985638 0.38039216 0.78823529 0.52549020
v 16.08963312 12.56530758 19.77735999 0.38039216 0.78823529 0.52549020
v 16.04102294 12.56530758 21.92887397 0.38039216 0.78823529 0.52549020
v 14.40499923 0.18280242 21.80672839 0.38039216 0.78823529 0.52549020
v 14.40803743 0.18280242 21.51663290 0.38039216 0.78823529 0.52549020
v 14.40803743 0.18280242 19.48726450 0.38039216 0.78823529 0.52549020
v 16.08811402 12.56530758 19.19716901 0.38039216 0.78823529 0.52549020
v 15.76303547 12.56530758 22.14880086 0.38039216 0.78823529 0.52549020
v 14.17562193 0.18280242 22.10039758 0.38039216 0.78823529 0.52549020
v 14.40499923 0.18280242 19.19716901 0.38039216 0.78823529 0.52549020
v 16.00152738 12.56530758 18.95807576 0.38039216 0.78823529 0.52549020
v 15.48049123 12.56530758 22.15952088 0.38039216 0.78823529 0.52549020
v 15.48049123 11.99805940 22.15952088 0.38039216 0.78823529 0.52549020
v 5.33015633 0.18280242 22.15952088 0.38039216 0.78823529 0.52549020
v 14.28803220 0.18280242 18.94670517 0.38039216 0.78823529 0.52549020
v 15.77063098 12.56530758 18.85249758 0.38039216 0.78823529 0.52549020
v 0.57095226 12.56530758 22.15952088 0.38039216 0.78823529 0.52549020
v 0.57095226 5.32803835 22.15952088 0.38039216 0.78823529 0.52549020
v 0.57095226 4.93047935 22.09357545 0.38039216 0.78823529 0.52549020
v 4.94583499 0.18280242 22.07245959 0.38039216 0.78823529 0.52549020
v 14.02979250 0.18280242 18.84080281 0.38039216 0.78823529 0.52549020
v 15.48049123 11.99805940 18.84080281 0.38039216 0.78823529 0.52549020
v 15.48049123 12.56530758 18.84080281 0.38039216 0.78823529 0.52549020
v 0.57095226 12.56530758 18.84080281 0.38039216 0.78823529 0.52549020
v 0.57095226 4.74866943 21.80672839 0.38039216 0.78823529 0.52549020
v 4.80608169 0.18280242 21.69985127 0.38039216 0.78823529 0.52549020
v 5.29217987 0.18280242 18.84372595 0.38039216 0.78823529 0.52549020
v 0.57095226 5.21289192 18.84567545 0.38039216 0.78823529 0.52549020
v 0.57095226 4.81290877 19.04481176 0.38039216 0.78823529 0.52549020
v 4.80456287 0.18280242 19.48726450 0.38039216 0.78823529 0.52549020
v 5.01419267 0.18280242 18.88985555 0.38039216 0.78823529 0.52549020
v 4.82431037 0.18280242 19.10426034 0.38039216 0.78823529 0.52549020
f 95 96 101
f 95 101 105
f 95 105 110
f 95 110 117
f 95 117 118
f 95 118 111
f 95 111 106
f 95 106 102
f 95 102 97
f 95 97 98
f 95 98 99
f 95 99 100
f 95 100 96
f 96 100 101
f 97 102 103
f 97 103 98
f 98 103 108
f 98 108 114
f 98 114 120
f 98 120 124
f 98 124 126
f 98 126 125
f 98 125 121
f 98 121 115
f 98 115 109
f 98 109 104
f 98 104 100
f 98 100 99
f 100 104 101
f 101 104 105
f 102 106 107
f 102 107 103
f 103 107 108
f 104 109 105
f 105 109 110
f 106 111 112
f 106 112 108
f 106 108 107
f 108 112 113
f 108 113 114
f 109 115 110
f 110 115 116
f 110 116 117
f 111 118 122
f 111 122 123
f 111 123 119
f 111 119 113
f 111 113 112
f 113 119 114
f 114 119 120
f 115 121 118
f 115 118 117
f 115 117 116
f 118 121 122
f 119 123 124
f 119 124 120
f 121 125 122
f 122 125 123
f 123 125 126
f 123 126 124

o geometry_4
v 0.56948571 12.56530758 22.15952088 0.56470588 0.92549020 0.07058824
v 0.56948571 5.08441213 22.05491744 0.56470588 0.92549020 0.07058824
v 0.56948571 12.56530758 18.84080281 0.56470588 0.92549020 0.07058824
v -13.32626913 12.53015800 21.94024345 0.56470588 0.92549020 0.07058824
v -13.92050490 8.37881792 22.06173958 0.56470588 0.92549020 0.07058824
v -14.10199617 2.64572912 22.14847558 0.56470588 0.92549020 0.07058824
v 0.56948571 5.01290035 18.94540625 0.56470588 0.92549020 0.07058824
v -14.06101470 0.23734407 22.05621748 0.56470588 0.92549020 0.07058824
v -5.02452941 0.18280242 21.93017290 0.56470588 0.92549020 0.07058824
v -13.32187890 12.53015800 19.05748128 0.56470588 0.92549020 0.07058824
v -14.10199617 3.15358514 18.85379650 0.56470588 0.92549020 0.07058824
v -13.81219609 8.08186157 18.84535127 0.56470588 0.92549020 0.07058824
v -13.94245831 9.43816793 19.03246753 0.56470588 0.92549020 0.07058824
v -14.09321348 8.66123049 19.19716901 0.56470588 0.92549020 0.07058824
v -13.67168629 10.60296668 21.97500357 0.56470588 0.92549020 0.07058824
v -14.19127692 7.50128003 21.69790178 0.56470588 0.92549020 0.07058824
v -14.28787768 5.76438370 21.87299910 0.56470588 0.92549020 0.07058824
v -14.26153181 3.47963125 22.06693750 0.56470588 0.92549020 0.07058824
v -14.17078618 4.64927940 22.07116067 0.56470588 0.92549020 0.07058824
v -14.31275865 1.21427420 21.94544137 0.56470588 0.92549020 0.07058824
v -5.00550135 0.18280242 19.08834241 0.56470588 0.92549020 0.07058824
v -14.27763231 0.79368525 19.06040442 0.56470588 0.92549020 0.07058824
v -14.04198664 8.29882217 18.95385259 0.56470588 0.92549020 0.07058824
v -14.31422354 3.44327015 18.96099890 0.56470588 0.92549020 0.07058824
v -14.28787768 5.76438370 19.13057302 0.56470588 0.92549020 0.07058824
v -14.19127692 7.50128003 19.30599562 0.56470588 0.92549020 0.07058824
v -14.38301355 3.44327015 21.80672839 0.56470588 0.92549020 0.07058824
v -14.37715843 2.57421512 21.86650115 0.56470588 0.92549020 0.07058824
v -14.38301355 3.44327015 19.19716901 0.56470588 0.92549020 0.07058824
f 127 128 133
f 127 133 129
f 127 129 130
f 127 130 131
f 127 131 132
f 127 132 128
f 128 132 134
f 128 134 135
f 128 135 133
f 129 136 130
f 129 133 137
f 129 137 138
f 129 138 136
f 130 136 139
f 130 139 140
f 130 140 141
f 130 141 131
f 131 141 142
f 131 142 143
f 131 143 144
f 131 144 145
f 131 145 132
f 132 145 144
f 132 144 146
f 132 146 134
f 133 135 147
f 133 147 137
f 134 147 135
f 134 146 148
f 134 148 147
f 136 138 149
f 136 149 139
f 137 148 150
f 137 150 149
f 137 149 138
f 137 147 148
f 139 149 140
f 140 149 151
f 140 151 152
f 140 152 142
f 140 142 141
f 142 152 151
f 142 151 143
f 143 151 155
f 143 155 153
f 143 153 144
f 144 153 154
f 144 154 146
f 146 154 148
f 148 154 155
f 148 155 150
f 149 150 151
f 150 155 151
f 153 155 154

o geometry_5
v -14.19749716 -0.27858433 18.98081473 0.08627451 0.01960784 0.83137255
v -14.13831744 -0.25364582 22.04517217 0.08627451 0.01960784 0.83137255
v -5.00451443 0.18280242 19.08834241 0.08627451 0.01960784 0.83137255
v -13.81220052 -1.70708292 18.84795023 0.08627451 0.01960784 0.83137255
v -13.92174408 -2.06870900 18.91389566 0.08627451 0.01960784 0.83137255
v -14.00862613 -2.21419322 18.97496845 0.08627451 0.01960784 0.83137255
v -13.97714873 -2.61322928 19.01557485 0.08627451 0.01960784 0.83137255
v -13.97714873 -2.61322928 21.98734780 0.08627451 0.01960784 0.83137255
v -14.00862613 -2.21419322 22.02763002 0.08627451 0.01960784 0.83137255
v -13.76687085 -2.22389203 22.13613135 0.08627451 0.01960784 0.83137255
v -5.02340198 0.18280242 21.93017290 0.08627451 0.01960784 0.83137255
v -1.33412135 -4.77329582 21.79860733 0.08627451 0.01960784 0.83137255
v -1.33412135 -4.77468105 19.19911740 0.08627451 0.01960784 0.83137255
v -1.76474766 -13.97054487 19.03376646 0.08627451 0.01960784 0.83137255
v -7.14379372 -11.78415459 18.84080281 0.08627451 0.01960784 0.83137255
v -13.52133828 -3.41130361 18.84795023 0.08627451 0.01960784 0.83137255
v -13.73665255 -3.81034188 18.96197365 0.08627451 0.01960784 0.83137255
v -13.85375290 -3.52076087 19.34205356 0.08627451 0.01960784 0.83137255
v -13.85375290 -3.52076087 21.66184273 0.08627451 0.01960784 0.83137255
v -13.73665255 -3.81034188 22.04029954 0.08627451 0.01960784 0.83137255
v -11.92474928 -7.70233807 22.03087845 0.08627451 0.01960784 0.83137255
v -10.94261902 -8.89529277 22.04744585 0.08627451 0.01960784 0.83137255
v -7.14379372 -11.78415459 22.15952088 0.08627451 0.01960784 0.83137255
v -3.56154067 -13.62000281 22.04939535 0.08627451 0.01960784 0.83137255
v -1.76474766 -13.97054487 21.96915619 0.08627451 0.01960784 0.83137255
v -4.21755290 -13.47867648 18.96717157 0.08627451 0.01960784 0.83137255
v -6.07730182 -12.74018240 18.96229893 0.08627451 0.01960784 0.83137255
v -9.12693957 -10.83782780 19.02759490 0.08627451 0.01960784 0.83137255
v -10.94261902 -8.89529277 18.95417677 0.08627451 0.01960784 0.83137255
v -11.80387164 -7.75360253 18.91941775 0.08627451 0.01960784 0.83137255
v -9.12693957 -10.83782780 21.97500357 0.08627451 0.01960784 0.83137255
v -7.22186099 -12.05295056 22.06823642 0.08627451 0.01960784 0.83137255
f 156 157 158
f 156 158 159
f 156 159 160
f 156 160 161
f 156 161 162
f 156 162 163
f 156 163 164
f 156 164 157
f 157 164 165
f 157 165 166
f 157 166 158
f 158 167 168
f 158 168 169
f 158 169 170
f 158 170 159
f 158 166 167
f 159 170 171
f 159 171 160
f 160 171 172
f 160 172 161
f 161 172 162
f 162 172 173
f 162 173 174
f 162 174 163
f 163 174 175
f 163 175 164
f 164 175 165
f 165 175 176
f 165 176 177
f 165 177 178
f 165 178 166
f 166 178 179
f 166 179 180
f 166 180 167
f 167 180 168
f 168 180 169
f 169 180 179
f 169 179 181
f 169 181 170
f 170 181 182
f 170 182 183
f 170 183 184
f 170 184 185
f 170 185 171
f 171 185 172
f 172 175 174
f 172 174 173
f 172 185 176
f 172 176 175
f 176 185 184
f 176 184 177
f 177 184 183
f 177 183 186
f 177 186 178
f 178 186 187
f 178 187 179
f 179 187 182
f 179 182 181
f 182 187 183
f 183 187 186

o geometry_6
v 5.10389025 0.18139728 22.04941083 0.77647059 0.86666667 0.97647059
v 4.98992934 0.18139728 18.98550370 0.77647059 0.86666667 0.97647059
v -1.33412135 -4.77196813 21.79866043 0.77647059 0.86666667 0.97647059
v 1.54072335 -13.96365193 22.06012975 0.77647059 0.86666667 0.97647059
v 5.91073068 -12.50826754 22.15919559 0.77647059 0.86666667 0.97647059
v 12.57970202 -5.69633487 22.15952088 0.77647059 0.86666667 0.97647059
v 13.84542456 -2.77011175 22.05395819 0.77647059 0.86666667 0.97647059
v 14.18882473 -0.75701646 19.05468759 0.77647059 0.86666667 0.97647059
v 1.63341184 -13.81333711 18.84648645 0.77647059 0.86666667 0.97647059
v -1.33412135 -4.77337327 19.19890276 0.77647059 0.86666667 0.97647059
v 13.73906083 -2.21380598 18.84713591 0.77647059 0.86666667 0.97647059
v -0.86764289 -14.16734887 21.89545261 0.77647059 0.86666667 0.97647059
v 2.10140941 -13.97067542 18.97835849 0.77647059 0.86666667 0.97647059
v 6.48053356 -12.65436693 21.89382840 0.77647059 0.86666667 0.97647059
v 6.48965039 -12.36357109 22.13905780 0.77647059 0.86666667 0.97647059
v 12.28948261 -6.56450920 22.14717776 0.77647059 0.86666667 0.97647059
v 12.53107912 -6.56591213 22.04356456 0.77647059 0.86666667 0.97647059
v 13.43516618 -4.29854804 21.99711742 0.77647059 0.86666667 0.97647059
v 13.91228057 -2.98364248 19.00694152 0.77647059 0.86666667 0.97647059
v 13.94874788 -2.50460183 18.96439116 0.77647059 0.86666667 0.97647059
v 3.15592441 -13.52394640 18.84128963 0.77647059 0.86666667 0.97647059
v -0.86764289 -14.16734887 19.10860633 0.77647059 0.86666667 0.97647059
v 13.73906083 -2.64929829 18.86889791 0.77647059 0.86666667 0.97647059
v 13.44884142 -3.80967139 18.84291384 0.77647059 0.86666667 0.97647059
v 6.98044058 -12.24697083 18.97186165 0.77647059 0.86666667 0.97647059
v 9.06363947 -10.86744643 19.06508122 0.77647059 0.86666667 0.97647059
v 9.06363947 -10.86744643 21.93735240 0.77647059 0.86666667 0.97647059
v 10.33847801 -9.45982582 22.06207924 0.77647059 0.86666667 0.97647059
v 12.47485850 -6.78927885 22.00491319 0.77647059 0.86666667 0.97647059
v 12.45814449 -6.90306882 21.66191575 0.77647059 0.86666667 0.97647059
v 12.50828705 -6.68110724 19.15310508 0.77647059 0.86666667 0.97647059
v 10.33847801 -9.45982582 18.93938184 0.77647059 0.86666667 0.97647059
f 188 189 190
f 188 190 191
f 188 191 192
f 188 192 193
f 188 193 194
f 188 194 195
f 188 195 189
f 189 196 197
f 189 197 190
f 189 195 198
f 189 198 196
f 190 197 199
f 190 199 191
f 191 199 200
f 191 200 201
f 191 201 202
f 191 202 192
f 192 202 203
f 192 203 193
f 193 203 204
f 193 204 205
f 193 205 194
f 194 205 206
f 194 206 195
f 195 206 207
f 195 207 198
f 196 208 200
f 196 200 209
f 196 209 197
f 196 198 208
f 197 209 199
f 198 207 210
f 198 210 211
f 198 211 208
f 199 209 200
f 200 208 212
f 200 212 201
f 201 212 213
f 201 213 214
f 201 214 202
f 202 214 215
f 202 215 203
f 203 215 216
f 203 216 204
f 204 216 205
f 205 216 217
f 205 217 206
f 206 217 218
f 206 218 211
f 206 211 207
f 207 211 210
f 208 211 219
f 208 219 212
f 211 218 219
f 212 219 213
f 213 219 215
f 213 215 214
f 215 219 217
f 215 217 216
f 217 219 218

o geometry_7
v 16.11101784 12.62725001 -19.37876096 0.79607843 0.45882353 0.78039216
v 16.11101784 12.62725001 -21.69822816 0.79607843 0.45882353 0.78039216
v 16.05174186 12.62725001 -19.00225364 0.79607843 0.45882353 0.78039216
v 14.40569018 0.18971528 -19.37876096 0.79607843 0.45882353 0.78039216
v 16.04262226 12.62725001 -21.99027204 0.79607843 0.45882353 0.78039216
v 14.40569018 0.18971528 -21.69822816 0.79607843 0.45882353 0.78039216
v 15.53041638 12.62725001 -18.84079948 0.79607843 0.45882353 0.78039216
v 15.79487853 12.61507396 -18.84762161 0.79607843 0.45882353 0.78039216
v 14.02875524 0.18971528 -18.84079948 0.79607843 0.45882353 0.78039216
v 14.33121543 0.18971528 -19.02531789 0.79607843 0.45882353 0.78039216
v 14.32057618 0.18971528 -21.98832475 0.79607843 0.45882353 0.78039216
v 15.88911268 12.49818714 -22.14587771 0.79607843 0.45882353 0.78039216
v 15.47873978 12.62725001 -22.15919669 0.79607843 0.45882353 0.78039216
v 15.47873978 11.99654583 -18.84079948 0.79607843 0.45882353 0.78039216
v 0.58372246 12.62725001 -18.84079948 0.79607843 0.45882353 0.78039216
v 5.33036931 0.18971528 -18.84079948 0.79607843 0.45882353 0.78039216
v 14.11690966 0.18971528 -22.15269984 0.79607843 0.45882353 0.78039216
v 15.47873978 11.99654583 -22.15919669 0.79607843 0.45882353 0.78039216
v 0.58372246 12.62725001 -22.15919669 0.79607843 0.45882353 0.78039216
v 0.58372246 5.32910271 -18.84079948 0.79607843 0.45882353 0.78039216
v 0.63843892 5.03931923 -18.84274898 0.79607843 0.45882353 0.78039216
v 5.04158824 0.18971528 -18.85541960 0.79607843 0.45882353 0.78039216
v 5.28933197 0.18971528 -22.15854833 0.79607843 0.45882353 0.78039216
v 0.58372246 5.09167461 -22.15822305 0.79607843 0.45882353 0.78039216
v 0.58372246 4.79945702 -18.99218309 0.79607843 0.45882353 0.78039216
v 4.83640179 0.18971528 -18.99802937 0.79607843 0.45882353 0.78039216
v 4.80448376 0.18971528 -21.69822816 0.79607843 0.45882353 0.78039216
v 4.89567777 0.19093233 -22.05134594 0.79607843 0.45882353 0.78039216
v 0.58372246 4.85911804 -22.08188289 0.79607843 0.45882353 0.78039216
v 0.58372246 4.74710054 -19.37876096 0.79607843 0.45882353 0.78039216
v 4.80448376 0.18971528 -19.37876096 0.79607843 0.45882353 0.78039216
v 0.58372246 4.75562433 -21.75182936 0.79607843 0.45882353 0.78039216
f 220 221 224
f 220 224 232
f 220 232 238
f 220 238 234
f 220 234 226
f 220 226 222
f 220 222 223
f 220 223 225
f 220 225 221
f 221 225 224
f 222 226 227
f 222 227 228
f 222 228 229
f 222 229 223
f 223 229 228
f 223 228 235
f 223 235 241
f 223 241 245
f 223 245 250
f 223 250 246
f 223 246 242
f 223 242 236
f 223 236 230
f 223 230 225
f 224 225 230
f 224 230 231
f 224 231 232
f 226 233 227
f 226 234 239
f 226 239 235
f 226 235 228
f 226 228 233
f 227 233 228
f 230 236 231
f 231 236 237
f 231 237 232
f 232 237 238
f 234 238 243
f 234 243 248
f 234 248 251
f 234 251 249
f 234 249 244
f 234 244 239
f 235 239 240
f 235 240 241
f 236 242 237
f 237 242 238
f 238 242 243
f 239 244 240
f 240 244 241
f 241 244 245
f 242 246 247
f 242 247 243
f 243 247 248
f 244 249 245
f 245 249 250
f 246 250 249
f 246 249 251
f 246 251 247
f 247 251 248

o geometry_8
v 1.04243114 -14.11534090 -19.13319962 0.11764706 0.63921569 0.14117647
v 1.91810528 -13.96551512 -22.04093682 0.11764706 0.63921569 0.14117647
v 3.66300484 -13.83109058 -21.69817948 0.11764706 0.63921569 0.14117647
v 3.63850115 -13.75127408 -19.21896862 0.11764706 0.63921569 0.14117647
v 2.16442893 -13.92070547 -18.90935272 0.11764706 0.63921569 0.14117647
v 1.04243114 -4.88762793 -19.02663673 0.11764706 0.63921569 0.14117647
v 1.04243114 -4.85822173 -21.99090269 0.11764706 0.63921569 0.14117647
v 3.66300484 -13.56364001 -22.15464713 0.11764706 0.63921569 0.14117647
v 5.32020748 -13.16736556 -21.99512697 0.11764706 0.63921569 0.14117647
v 5.14094590 -13.35500184 -19.37848878 0.11764706 0.63921569 0.14117647
v 5.52913138 -13.11555675 -18.91909799 0.11764706 0.63921569 0.14117647
v 5.62069659 -13.01193691 -18.89993052 0.11764706 0.63921569 0.14117647
v 9.67923215 -9.75353153 -18.84047641 0.11764706 0.63921569 0.14117647
v 13.75711248 -2.59120063 -18.89960524 0.11764706 0.63921569 0.14117647
v 4.96942229 0.18831678 -19.13125013 0.11764706 0.63921569 0.14117647
v 5.07001526 0.18831678 -22.01656922 0.11764706 0.63921569 0.14117647
v 9.67923215 -9.75353153 -22.15951976 0.11764706 0.63921569 0.14117647
v 9.94232111 -10.01677995 -22.14035229 0.11764706 0.63921569 0.14117647
v 9.21108840 -10.84013356 -21.93112329 0.11764706 0.63921569 0.14117647
v 6.75172159 -12.39022011 -21.90968104 0.11764706 0.63921569 0.14117647
v 6.64468045 -12.48823929 -19.02436195 0.11764706 0.63921569 0.14117647
v 8.64751033 -11.24060795 -19.12442800 0.11764706 0.63921569 0.14117647
v 10.15640338 -9.94116560 -19.00454392 0.11764706 0.63921569 0.14117647
v 12.40684657 -6.41951180 -18.90772851 0.11764706 0.63921569 0.14117647
v 13.03490698 -5.36091524 -18.99999657 0.11764706 0.63921569 0.14117647
v 13.37408564 -5.10606891 -21.69817948 0.11764706 0.63921569 0.14117647
v 13.80740883 -3.43555614 -21.90448312 0.11764706 0.63921569 0.14117647
v 14.21751840 -0.44180211 -19.04190521 0.11764706 0.63921569 0.14117647
v 14.21493880 -0.61963338 -21.96231303 0.11764706 0.63921569 0.14117647
v 12.27788106 -6.96141209 -21.96588673 0.11764706 0.63921569 0.14117647
v 10.93406359 -9.13741759 -21.83430789 0.11764706 0.63921569 0.14117647
v 10.96501545 -9.12201414 -19.26640268 0.11764706 0.63921569 0.14117647
f 252 253 254
f 252 254 255
f 252 255 256
f 252 256 257
f 252 257 258
f 252 258 253
f 253 259 254
f 253 258 259
f 254 259 260
f 254 260 261
f 254 261 255
f 255 261 262
f 255 262 256
f 256 262 263
f 256 263 264
f 256 264 257
f 257 264 265
f 257 265 266
f 257 266 258
f 258 266 267
f 258 267 259
f 259 267 268
f 259 268 269
f 259 269 260
f 260 269 270
f 260 270 271
f 260 271 261
f 261 271 272
f 261 272 262
f 262 272 273
f 262 273 274
f 262 274 263
f 263 274 264
f 264 275 265
f 264 274 275
f 265 275 276
f 265 276 277
f 265 277 278
f 265 278 279
f 265 279 266
f 266 279 267
f 267 279 280
f 267 280 268
f 268 280 269
f 269 280 281
f 269 281 282
f 269 282 270
f 270 273 271
f 270 282 274
f 270 274 273
f 271 273 272
f 274 282 283
f 274 283 275
f 275 283 276
f 276 283 277
f 277 283 281
f 277 281 278
f 278 281 280
f 278 280 279
f 281 283 282

o geometry_9
v -4.98188500 0.18971528 -19.16228939 0.94117647 0.52156863 0.41176471
v 1.04093085 -4.88679812 -19.02682925 0.94117647 0.52156863 0.41176471
v 1.04093085 -4.85846957 -21.99090712 0.94117647 0.52156863 0.41176471
v -4.99088345 0.18971528 -21.83393835 0.94117647 0.52156863 0.41176471
v -14.16757980 -0.24796329 -18.99761778 0.94117647 0.52156863 0.41176471
v -13.82564563 -1.90944553 -18.85894905 0.94117647 0.52156863 0.41176471
v -1.77701554 -13.81460506 -18.84161380 0.94117647 0.52156863 0.41176471
v 0.83097162 -14.22678749 -19.19567424 0.94117647 0.52156863 0.41176471
v 0.68550067 -14.18854328 -21.94885464 0.94117647 0.52156863 0.41176471
v -2.41288999 -13.81035423 -22.12058736 0.94117647 0.52156863 0.41176471
v -13.84364251 -2.06950340 -22.09908094 0.94117647 0.52156863 0.41176471
v -14.27705698 -0.40518875 -21.89107563 0.94117647 0.52156863 0.41176471
v -13.22576495 -5.27915145 -21.80376430 0.94117647 0.52156863 0.41176471
v -12.83284071 -5.99586915 -19.13982039 0.94117647 0.52156863 0.41176471
v -10.62227535 -9.17293782 -18.86087421 0.94117647 0.52156863 0.41176471
v -3.73563005 -13.57097773 -18.85734254 0.94117647 0.52156863 0.41176471
v -2.21342949 -13.81460506 -18.85156486 0.94117647 0.52156863 0.41176471
v -2.21342949 -14.00015686 -18.90292447 0.94117647 0.52156863 0.41176471
v -0.63124043 -14.28061219 -19.23098204 0.94117647 0.52156863 0.41176471
v -0.68822946 -14.25794846 -21.98095606 0.94117647 0.52156863 0.41176471
v -2.91679170 -13.94916679 -21.69847821 0.94117647 0.52156863 0.41176471
v -5.60726292 -13.05114370 -21.89781810 0.94117647 0.52156863 0.41176471
v -8.10727099 -11.69419672 -21.96586903 0.94117647 0.52156863 0.41176471
v -10.67626601 -9.24517541 -22.01594299 0.94117647 0.52156863 0.41176471
v -12.52240385 -6.74233161 -21.91258205 0.94117647 0.52156863 0.41176471
v -11.84903535 -7.94346933 -21.92124968 0.94117647 0.52156863 0.41176471
v -10.60278039 -9.51713128 -19.19535338 0.94117647 0.52156863 0.41176471
v -9.05958347 -10.97323041 -19.19984541 0.94117647 0.52156863 0.41176471
v -6.75453723 -12.43641056 -18.92603740 0.94117647 0.52156863 0.41176471
v -2.91229193 -13.94775058 -19.30609629 0.94117647 0.52156863 0.41176471
v -2.59885337 -13.97182830 -18.92796256 0.94117647 0.52156863 0.41176471
v -9.62197340 -10.49447521 -21.84613764 0.94117647 0.52156863 0.41176471
f 284 285 286
f 284 286 287
f 284 287 288
f 284 288 289
f 284 289 285
f 285 290 291
f 285 291 286
f 285 289 290
f 286 291 292
f 286 292 293
f 286 293 294
f 286 294 287
f 287 294 295
f 287 295 288
f 288 295 289
f 289 295 296
f 289 296 297
f 289 297 298
f 289 298 290
f 290 299 300
f 290 300 301
f 290 301 291
f 290 298 299
f 291 301 302
f 291 302 303
f 291 303 292
f 292 303 293
f 293 303 304
f 293 304 305
f 293 305 306
f 293 306 307
f 293 307 294
f 294 307 308
f 294 308 296
f 294 296 295
f 296 308 297
f 297 308 309
f 297 309 310
f 297 310 298
f 298 310 311
f 298 311 312
f 298 312 299
f 299 313 314
f 299 314 301
f 299 301 300
f 299 312 313
f 301 314 302
f 302 314 313
f 302 313 304
f 302 304 303
f 304 313 305
f 305 313 312
f 305 312 306
f 306 312 311
f 306 311 315
f 306 315 307
f 307 315 309
f 307 309 308
f 309 315 310
f 310 315 311

o geometry_10
v 0.58220280 12.62725001 -18.84079948 0.26274510 0.77254902 0.45490196
v -4.98283320 0.18971528 -19.05845270 0.26274510 0.77254902 0.45490196
v 0.58220280 4.93582553 -19.12894658 0.26274510 0.77254902 0.45490196
v 0.58220280 12.62725001 -22.15919669 0.26274510 0.77254902 0.45490196
v -13.50612513 12.53593236 -21.88437078 0.26274510 0.77254902 0.45490196
v -13.47390644 12.53593236 -19.13804349 0.26274510 0.77254902 0.45490196
v -13.59106432 11.07484111 -18.93988082 0.26274510 0.77254902 0.45490196
v -14.22811598 3.09850357 -18.87393428 0.26274510 0.77254902 0.45490196
v -4.99601388 0.20310950 -21.85513276 0.26274510 0.77254902 0.45490196
v 0.58220280 4.86642367 -21.93602248 0.26274510 0.77254902 0.45490196
v -14.18857506 0.24207066 -19.03993580 0.26274510 0.77254902 0.45490196
v -14.34380898 0.24207066 -21.87105180 0.26274510 0.77254902 0.45490196
v -13.85174365 8.44487841 -22.15497462 0.26274510 0.77254902 0.45490196
v -14.22518621 2.79045656 -22.14912835 0.26274510 0.77254902 0.45490196
v -13.98940334 9.40432724 -21.89833812 0.26274510 0.77254902 0.45490196
v -13.76094491 10.92751471 -21.83856536 0.26274510 0.77254902 0.45490196
v -13.87224545 10.61946770 -19.37876096 0.26274510 0.77254902 0.45490196
v -13.91471615 8.58246396 -18.92916191 0.26274510 0.77254902 0.45490196
v -14.22225864 5.30231539 -18.89440068 0.26274510 0.77254902 0.45490196
v -14.22665109 1.50347903 -18.97171669 0.26274510 0.77254902 0.45490196
v -14.37895745 3.29940350 -19.23387419 0.26274510 0.77254902 0.45490196
v -14.36870544 1.55827072 -21.87982122 0.26274510 0.77254902 0.45490196
v -14.20321952 4.33190756 -22.14620300 0.26274510 0.77254902 0.45490196
v -14.34673876 3.18982232 -21.91588137 0.26274510 0.77254902 0.45490196
v -14.11827812 8.37182318 -21.69822816 0.26274510 0.77254902 0.45490196
v -14.29108848 5.66637115 -21.82199796 0.26274510 0.77254902 0.45490196
v -14.19735996 7.42941973 -21.69822816 0.26274510 0.77254902 0.45490196
v -14.17100082 7.75573027 -19.37876096 0.26274510 0.77254902 0.45490196
v -14.26179735 6.22158490 -19.05455592 0.26274510 0.77254902 0.45490196
v -14.32330718 5.18421042 -19.23387419 0.26274510 0.77254902 0.45490196
v -14.32916452 4.60342751 -21.84343799 0.26274510 0.77254902 0.45490196
f 316 317 318
f 316 318 325
f 316 325 319
f 316 319 320
f 316 320 321
f 316 321 322
f 316 322 323
f 316 323 317
f 317 324 325
f 317 325 318
f 317 323 326
f 317 326 327
f 317 327 324
f 319 328 320
f 319 325 329
f 319 329 328
f 320 328 330
f 320 330 331
f 320 331 332
f 320 332 321
f 321 332 322
f 322 332 333
f 322 333 334
f 322 334 323
f 323 335 326
f 323 334 336
f 323 336 335
f 324 327 329
f 324 329 325
f 326 335 336
f 326 336 327
f 327 336 337
f 327 337 329
f 328 329 338
f 328 338 330
f 329 337 339
f 329 339 338
f 330 340 332
f 330 332 331
f 330 338 341
f 330 341 342
f 330 342 340
f 332 340 343
f 332 343 344
f 332 344 333
f 333 344 334
f 334 344 336
f 336 345 346
f 336 346 337
f 336 344 345
f 337 346 339
f 338 339 346
f 338 346 341
f 340 342 343
f 341 346 345
f 341 345 342
f 342 345 344
f 342 344 343

