# https://github.com/mikedh/trimesh

o geometry_0
v 0.22160126 56.28186017 33.84553225 0.54509804 0.71372549 0.60000000
v 0.22160126 56.28186017 -32.85814627 0.54509804 0.71372549 0.60000000
v 0.08888601 58.84615012 49.08397907 0.54509804 0.71372549 0.60000000
v 0.04243518 57.63828099 48.99477036 0.54509804 0.71372549 0.60000000
v -0.09359808 57.02158704 48.92989041 0.54509804 0.71372549 0.60000000
v 0.08225000 56.28186017 34.51054195 0.54509804 0.71372549 0.60000000
v -0.00069765 56.28186017 -33.56370962 0.54509804 0.71372549 0.60000000
v 0.08888601 58.84615012 -33.57992715 0.54509804 0.71372549 0.60000000
v -0.30594175 60.09210929 48.75147299 0.54509804 0.71372549 0.60000000
v -33.32549745 59.95802701 49.01098543 0.54509804 0.71372549 0.60000000
v -33.59092796 59.49064940 49.07586539 0.54509804 0.71372549 0.60000000
v -33.18614373 57.55790882 49.17319024 0.54509804 0.71372549 0.60000000
v -33.02357012 57.02006266 48.97855037 0.54509804 0.71372549 0.60000000
v -0.48178983 56.28186017 34.76194808 0.54509804 0.71372549 0.60000000
v -33.02357012 56.28186017 -33.67724216 0.54509804 0.71372549 0.60000000
v -0.15995571 57.88015969 -33.67724216 0.54509804 0.71372549 0.60000000
v -33.59092796 59.49064940 -33.57181346 0.54509804 0.71372549 0.60000000
v -33.32549745 59.95802701 -33.50693351 0.54509804 0.71372549 0.60000000
v -0.30594175 60.09210929 -33.25552984 0.54509804 0.71372549 0.60000000
v -33.18614373 60.17286256 48.50817809 0.54509804 0.71372549 0.60000000
v -33.67387438 58.52428034 48.83257294 0.54509804 0.71372549 0.60000000
v -33.64733034 57.71903425 48.88934167 0.54509804 0.71372549 0.60000000
v -33.55774792 57.17395216 48.92989041 0.54509804 0.71372549 0.60000000
v -33.62078631 56.35918356 34.32401577 0.54509804 0.71372549 0.60000000
v -33.15628538 56.28186017 34.75383931 0.54509804 0.71372549 0.60000000
v -33.55774792 56.35918356 -33.47449845 0.54509804 0.71372549 0.60000000
v -33.46484625 56.91340953 -33.62047589 0.54509804 0.71372549 0.60000000
v -33.64733034 57.71903425 -33.39339851 0.54509804 0.71372549 0.60000000
v -33.67387438 58.52428034 -33.32852101 0.54509804 0.71372549 0.60000000
v -33.18614373 60.17286256 -33.00412616 0.54509804 0.71372549 0.60000000
v -33.65396635 56.91340953 34.97280547 0.54509804 0.71372549 0.60000000
v -33.65396635 56.91340953 -33.32852101 0.54509804 0.71372549 0.60000000
f 1 2 8
f 1 8 3
f 1 3 4
f 1 4 5
f 1 5 6
f 1 6 14
f 1 14 25
f 1 25 15
f 1 15 7
f 1 7 2
f 2 7 8
f 3 9 10
f 3 10 11
f 3 11 12
f 3 12 4
f 3 8 19
f 3 19 9
f 4 12 5
f 5 12 13
f 5 13 14
f 5 14 6
f 7 15 16
f 7 16 8
f 8 16 17
f 8 17 18
f 8 18 19
f 9 20 10
f 9 19 30
f 9 30 20
f 10 20 30
f 10 30 18
f 10 18 17
f 10 17 11
f 11 21 22
f 11 22 23
f 11 23 12
f 11 17 29
f 11 29 21
f 12 23 13
f 13 23 24
f 13 24 25
f 13 25 14
f 15 26 27
f 15 27 17
f 15 17 16
f 15 25 26
f 17 27 26
f 17 26 28
f 17 28 29
f 18 30 19
f 21 29 32
f 21 32 31
f 21 31 22
f 22 31 24
f 22 24 23
f 24 32 26
f 24 26 25
f 24 31 32
f 26 32 28
f 28 32 29

o geometry_1
v 0.08914909 56.28185771 -33.40850717 0.54117647 0.42352941 0.64313725
v -0.00980157 56.28185771 -29.62205818 0.54117647 0.42352941 0.64313725
v 13.13179745 23.79987035 -30.68416870 0.54117647 0.42352941 0.64313725
v 12.72185980 24.78961542 -33.38191642 0.54117647 0.42352941 0.64313725
v 13.69723013 21.75159339 -33.44383365 0.54117647 0.42352941 0.64313725
v 14.59249875 18.61803766 -33.47915767 0.54117647 0.42352941 0.64313725
v -24.00299823 24.36543826 -33.67681435 0.54117647 0.42352941 0.64313725
v -33.47399750 54.22593914 -33.38509059 0.54117647 0.42352941 0.64313725
v -33.49755669 54.92907822 -30.30314280 0.54117647 0.42352941 0.64313725
v -23.82394401 23.54765654 -30.40117821 0.54117647 0.42352941 0.64313725
v -20.56328253 17.37225797 -30.41268735 0.54117647 0.42352941 0.64313725
v -0.02864929 17.24232964 -30.30195279 0.54117647 0.42352941 0.64313725
v 14.63019541 18.80910750 -30.57938664 0.54117647 0.42352941 0.64313725
v -20.60097796 17.45632924 -33.61846960 0.54117647 0.42352941 0.64313725
v -22.22659601 20.82299106 -33.67641604 0.54117647 0.42352941 0.64313725
v -24.60612634 24.89279319 -33.52162665 0.54117647 0.42352941 0.64313725
v -27.20240509 30.45294536 -33.58116141 0.54117647 0.42352941 0.64313725
v -30.06726393 37.31619794 -33.48709433 0.54117647 0.42352941 0.64313725
v -33.29494329 51.22995213 -33.37040482 0.54117647 0.42352941 0.64313725
v -33.36562084 51.35223761 -30.76116754 0.54117647 0.42352941 0.64313725
v -33.01222572 48.39446604 -30.68139037 0.54117647 0.42352941 0.64313725
v -32.48920055 45.33733875 -30.67583373 0.54117647 0.42352941 0.64313725
v -30.81175083 39.10079621 -30.58851576 0.54117647 0.42352941 0.64313725
v -27.79610904 31.42358333 -30.51627940 0.54117647 0.42352941 0.64313725
v -25.67573586 27.09774720 -30.45436217 0.54117647 0.42352941 0.64313725
v -28.87043187 33.94953612 -33.44343534 0.54117647 0.42352941 0.64313725
v -29.45942374 35.29467277 -30.58811991 0.54117647 0.42352941 0.64313725
v -31.04263672 40.10964900 -33.42478125 0.54117647 0.42352941 0.64313725
v -32.96039404 48.72693032 -33.30491757 0.54117647 0.42352941 0.64313725
v -31.91905701 42.96424404 -33.33071417 0.54117647 0.42352941 0.64313725
v -32.53160806 45.87233528 -33.24260204 0.54117647 0.42352941 0.64313725
v -31.74942696 42.20378179 -30.67107125 0.54117647 0.42352941 0.64313725
f 33 34 35
f 33 35 36
f 33 36 37
f 33 37 38
f 33 38 39
f 33 39 40
f 33 40 41
f 33 41 34
f 34 42 43
f 34 43 44
f 34 44 45
f 34 45 35
f 34 41 42
f 35 45 37
f 35 37 36
f 37 45 38
f 38 45 44
f 38 44 46
f 38 46 47
f 38 47 39
f 39 47 48
f 39 48 49
f 39 49 40
f 40 50 51
f 40 51 52
f 40 52 41
f 40 49 50
f 41 52 53
f 41 53 54
f 41 54 55
f 41 55 56
f 41 56 57
f 41 57 42
f 42 57 48
f 42 48 43
f 43 48 46
f 43 46 44
f 46 48 47
f 48 57 56
f 48 56 58
f 48 58 49
f 49 58 50
f 50 58 59
f 50 59 55
f 50 55 60
f 50 60 51
f 51 61 53
f 51 53 52
f 51 60 62
f 51 62 61
f 53 61 63
f 53 63 54
f 54 63 62
f 54 62 64
f 54 64 55
f 55 59 56
f 55 64 62
f 55 62 60
f 56 59 58
f 61 62 63

o geometry_2
v 0.05860599 56.28185771 29.65639630 0.43529412 0.89019608 0.96078431
v -0.02620412 56.28185771 34.44865422 0.43529412 0.89019608 0.96078431
v 12.48797430 25.54625440 33.37666960 0.43529412 0.89019608 0.96078431
v 12.61047615 25.21379136 30.68240584 0.43529412 0.89019608 0.96078431
v 13.54338488 22.63816070 30.69647940 0.43529412 0.89019608 0.96078431
v 14.61293294 18.62950131 30.50460064 0.43529412 0.89019608 0.96078431
v -0.00264555 17.24232964 30.29302040 0.43529412 0.89019608 0.96078431
v -20.55963138 17.37225797 30.41687207 0.43529412 0.89019608 0.96078431
v -23.82481439 23.54765654 30.40279852 0.43529412 0.89019608 0.96078431
v -33.47429992 54.95200798 30.27519242 0.43529412 0.89019608 0.96078431
v -24.64935505 24.95393593 33.53617722 0.43529412 0.89019608 0.96078431
v -20.56905554 17.31111523 33.49348696 0.43529412 0.89019608 0.96078431
v 14.63649212 18.93903583 33.28424984 0.43529412 0.89019608 0.96078431
v -33.49785911 54.85647306 33.63938817 0.43529412 0.89019608 0.96078431
v 13.53867403 22.71076832 33.19558205 0.43529412 0.89019608 0.96078431
v -25.15350362 26.02775227 30.45862557 0.43529412 0.89019608 0.96078431
v -26.64238890 29.08870161 30.45815596 0.43529412 0.89019608 0.96078431
v -32.48485112 45.33733875 30.70070097 0.43529412 0.89019608 0.96078431
v -33.01255764 48.39446604 30.70680098 0.43529412 0.89019608 0.96078431
v -33.36593309 51.35223761 30.79218397 0.43529412 0.89019608 0.96078431
v -28.00406025 31.90890262 30.51070066 0.43529412 0.89019608 0.96078431
v -29.47409967 35.38638566 30.57544047 0.43529412 0.89019608 0.96078431
v -30.47768348 38.07283692 30.60875082 0.43529412 0.89019608 0.96078431
v -31.63675250 41.91335499 30.63830675 0.43529412 0.89019608 0.96078431
v -28.27733645 32.53943592 33.52069730 0.43529412 0.89019608 0.96078431
v -26.84499001 29.14220151 33.30911459 0.43529412 0.89019608 0.96078431
v -33.23871793 50.19435123 33.13834862 0.43529412 0.89019608 0.96078431
v -32.75812732 46.72068961 33.21951003 0.43529412 0.89019608 0.96078431
v -30.49181850 37.92380210 33.28471945 0.43529412 0.89019608 0.96078431
v -32.13618898 43.66738066 33.16039817 0.43529412 0.89019608 0.96078431
v -29.52121557 35.29085074 33.32318814 0.43529412 0.89019608 0.96078431
v -31.24568285 40.26632667 33.19699088 0.43529412 0.89019608 0.96078431
f 65 66 67
f 65 67 68
f 65 68 69
f 65 69 70
f 65 70 71
f 65 71 72
f 65 72 73
f 65 73 74
f 65 74 66
f 66 75 76
f 66 76 77
f 66 77 67
f 66 74 78
f 66 78 75
f 67 77 79
f 67 79 68
f 68 79 69
f 69 79 77
f 69 77 70
f 70 77 71
f 71 77 76
f 71 76 72
f 72 76 75
f 72 75 80
f 72 80 73
f 73 80 81
f 73 81 74
f 74 82 83
f 74 83 84
f 74 84 78
f 74 81 85
f 74 85 86
f 74 86 87
f 74 87 88
f 74 88 82
f 75 78 89
f 75 89 90
f 75 90 80
f 78 84 91
f 78 91 92
f 78 92 93
f 78 93 89
f 80 90 81
f 81 90 85
f 82 94 92
f 82 92 83
f 82 88 94
f 83 92 91
f 83 91 84
f 85 95 86
f 85 90 95
f 86 95 87
f 87 95 93
f 87 93 96
f 87 96 88
f 88 96 94
f 89 93 95
f 89 95 90
f 92 94 96
f 92 96 93

o geometry_3
v 1.79295045 -5.63132823 33.31177981 0.38039216 0.78823529 0.52549020
v 5.89003606 0.70698693 33.33440715 0.38039216 0.78823529 0.52549020
v 5.70992830 0.70698693 29.82417741 0.38039216 0.78823529 0.52549020
v 1.83248621 -5.81487693 29.82455359 0.38039216 0.78823529 0.52549020
v 2.06823724 -16.13400310 29.82455359 0.38039216 0.78823529 0.52549020
v 2.33327313 -16.49436370 33.38683383 0.38039216 0.78823529 0.52549020
v 4.35545968 -16.00265734 33.64368105 0.38039216 0.78823529 0.52549020
v 16.27771547 -1.73976526 33.67724711 0.38039216 0.78823529 0.52549020
v 16.75068168 0.26579686 33.38004538 0.38039216 0.78823529 0.52549020
v 16.39339446 0.49649343 30.06631428 0.38039216 0.78823529 0.52549020
v 16.73750310 -1.20932713 29.82417741 0.38039216 0.78823529 0.52549020
v 3.71117061 -16.34112820 29.82417741 0.38039216 0.78823529 0.52549020
v 3.71117061 -16.34112820 33.04738933 0.38039216 0.78823529 0.52549020
v 6.95457576 -15.00745520 33.55881931 0.38039216 0.78823529 0.52549020
v 11.01505453 -12.12624975 33.61576998 0.38039216 0.78823529 0.52549020
v 16.27771547 -2.06307828 33.67347547 0.38039216 0.78823529 0.52549020
v 16.45782447 -2.82253370 33.55580249 0.38039216 0.78823529 0.52549020
v 16.73750310 -1.20932713 33.04738933 0.38039216 0.78823529 0.52549020
v 16.49882315 -2.70634085 33.36986148 0.38039216 0.78823529 0.52549020
v 16.12250073 -4.85335395 29.82417741 0.38039216 0.78823529 0.52549020
v 5.44635533 -15.96729398 29.82417741 0.38039216 0.78823529 0.52549020
v 8.82301050 -14.19916771 33.43511024 0.38039216 0.78823529 0.52549020
v 12.51302345 -10.98622821 33.41813789 0.38039216 0.78823529 0.52549020
v 14.33752997 -8.47885452 33.35326532 0.38039216 0.78823529 0.52549020
v 16.27771547 -2.38639377 33.66102958 0.38039216 0.78823529 0.52549020
v 16.06685808 -4.18483324 33.45547804 0.38039216 0.78823529 0.52549020
v 14.83392505 -7.71771982 29.82417741 0.38039216 0.78823529 0.52549020
v 7.13321938 -15.13206661 29.82417741 0.38039216 0.78823529 0.52549020
v 8.86693994 -14.24800225 29.82417741 0.38039216 0.78823529 0.52549020
v 10.25362233 -13.36562209 29.82417741 0.38039216 0.78823529 0.52549020
v 12.48520336 -11.15967169 29.82417741 0.38039216 0.78823529 0.52549020
v 13.92606547 -9.45216693 29.82417741 0.38039216 0.78823529 0.52549020
f 97 98 99
f 97 99 100
f 97 100 101
f 97 101 102
f 97 102 103
f 97 103 98
f 98 104 105
f 98 105 106
f 98 106 99
f 98 103 104
f 99 106 107
f 99 107 116
f 99 116 123
f 99 123 128
f 99 128 127
f 99 127 126
f 99 126 125
f 99 125 124
f 99 124 117
f 99 117 108
f 99 108 100
f 100 108 101
f 101 108 102
f 102 108 109
f 102 109 103
f 103 109 110
f 103 110 111
f 103 111 104
f 104 112 113
f 104 113 105
f 104 111 112
f 105 114 107
f 105 107 106
f 105 113 114
f 107 115 116
f 107 114 115
f 108 117 109
f 109 117 110
f 110 117 118
f 110 118 111
f 111 118 119
f 111 119 120
f 111 120 121
f 111 121 112
f 112 121 113
f 113 122 116
f 113 116 115
f 113 115 114
f 113 121 120
f 113 120 122
f 116 122 120
f 116 120 123
f 117 124 118
f 118 125 126
f 118 126 119
f 118 124 125
f 119 127 128
f 119 128 120
f 119 126 127
f 120 128 123

o geometry_4
v -0.28165111 16.87911820 29.82417741 0.56470588 0.92549020 0.07058824
v -0.00271624 5.79445135 29.82417741 0.56470588 0.92549020 0.07058824
v -0.15677908 16.56558277 24.43743245 0.56470588 0.92549020 0.07058824
v -2.49690396 16.53304629 24.58818590 0.56470588 0.92549020 0.07058824
v -2.41581877 16.54931422 29.82417741 0.56470588 0.92549020 0.07058824
v -0.00271624 5.95269889 24.69694366 0.56470588 0.92549020 0.07058824
v -5.51814727 1.77320961 29.82417741 0.56470588 0.92549020 0.07058824
v -1.81092163 16.36592595 24.35451800 0.56470588 0.92549020 0.07058824
v -2.41581877 16.50642542 24.45573741 0.56470588 0.92549020 0.07058824
v -2.73691775 16.48128346 24.48804216 0.56470588 0.92549020 0.07058824
v -4.83540826 16.05091101 24.63395076 0.56470588 0.92549020 0.07058824
v -4.95703635 16.10563226 29.82417741 0.56470588 0.92549020 0.07058824
v -5.83438050 1.77616742 24.54619022 0.56470588 0.92549020 0.07058824
v -16.57009078 2.28048563 29.82417741 0.56470588 0.92549020 0.07058824
v -16.38683835 2.21393377 24.51657774 0.56470588 0.92549020 0.07058824
v -3.54290636 15.98435853 24.32382861 0.56470588 0.92549020 0.07058824
v -6.49765927 15.30108752 24.44550803 0.56470588 0.92549020 0.07058824
v -6.26575502 15.57469195 29.82417741 0.56470588 0.92549020 0.07058824
v -11.11304168 12.11692639 24.34590274 0.56470588 0.92549020 0.07058824
v -15.21920817 6.96429435 29.82417741 0.56470588 0.92549020 0.07058824
v -15.99276295 5.34189597 29.74341677 0.56470588 0.92549020 0.07058824
v -15.89059447 4.57876112 24.50580990 0.56470588 0.92549020 0.07058824
v -15.23866871 6.68625321 24.43850936 0.56470588 0.92549020 0.07058824
v -11.07087727 12.55913006 24.57311043 0.56470588 0.92549020 0.07058824
v -9.53674108 13.88426218 29.82417741 0.56470588 0.92549020 0.07058824
v -7.89395034 14.74500585 29.82417741 0.56470588 0.92549020 0.07058824
v -14.45538243 8.10899477 24.47673587 0.56470588 0.92549020 0.07058824
v -12.87097360 10.69270592 24.54242104 0.56470588 0.92549020 0.07058824
v -14.39862353 8.57486151 29.82417741 0.56470588 0.92549020 0.07058824
v -13.64777231 9.93696682 29.82417741 0.56470588 0.92549020 0.07058824
v -12.36824400 11.27688736 29.82417741 0.56470588 0.92549020 0.07058824
v -10.83735121 12.80907143 29.82417741 0.56470588 0.92549020 0.07058824
f 129 130 131
f 129 131 132
f 129 132 133
f 129 133 140
f 129 140 146
f 129 146 154
f 129 154 153
f 129 153 160
f 129 160 159
f 129 159 158
f 129 158 157
f 129 157 148
f 129 148 142
f 129 142 135
f 129 135 130
f 130 134 131
f 130 135 134
f 131 134 136
f 131 136 137
f 131 137 132
f 132 137 138
f 132 138 139
f 132 139 140
f 132 140 133
f 134 135 141
f 134 141 136
f 135 142 143
f 135 143 141
f 136 141 144
f 136 144 137
f 137 144 138
f 138 144 145
f 138 145 139
f 139 145 146
f 139 146 140
f 141 143 147
f 141 147 144
f 142 148 149
f 142 149 143
f 143 149 150
f 143 150 151
f 143 151 147
f 144 147 145
f 145 147 152
f 145 152 153
f 145 153 154
f 145 154 146
f 147 151 155
f 147 155 156
f 147 156 152
f 148 157 151
f 148 151 149
f 149 151 150
f 151 157 158
f 151 158 155
f 152 156 159
f 152 159 160
f 152 160 153
f 155 158 156
f 156 158 159

o geometry_5
v 0.00426522 -5.93463242 -33.34099641 0.08627451 0.01960784 0.83137255
v 0.00426522 -5.79629660 -30.27881405 0.08627451 0.01960784 0.83137255
v 5.75735769 0.41033104 -30.27881405 0.08627451 0.01960784 0.83137255
v 5.96713080 0.41033104 -33.55818248 0.08627451 0.01960784 0.83137255
v 1.93848102 -16.23908266 -33.67658323 0.08627451 0.01960784 0.83137255
v 0.20743182 -16.53094165 -33.50030980 0.08627451 0.01960784 0.83137255
v 0.64019412 -16.82448730 -30.27881405 0.08627451 0.01960784 0.83137255
v 16.87868117 -0.14470384 -30.39455695 0.08627451 0.01960784 0.83137255
v 16.39801925 -3.35345864 -30.27881405 0.08627451 0.01960784 0.83137255
v 16.65239057 -0.22568330 -33.51361132 0.08627451 0.01960784 0.83137255
v 16.27744010 -1.90260440 -33.67425731 0.08627451 0.01960784 0.83137255
v 12.08691499 -11.24375403 -33.62702584 0.08627451 0.01960784 0.83137255
v 2.42244741 -16.23908266 -33.66627148 0.08627451 0.01960784 0.83137255
v 2.42244741 -16.47358283 -33.57780284 0.08627451 0.01960784 0.83137255
v 3.23346282 -16.36223853 -33.47070715 0.08627451 0.01960784 0.83137255
v 4.19313809 -16.26438998 -30.27881405 0.08627451 0.01960784 0.83137255
v 16.39801925 -3.35345864 -33.01638520 0.08627451 0.01960784 0.83137255
v 16.46904348 -2.70732187 -33.54155189 0.08627451 0.01960784 0.83137255
v 16.49381971 -2.38509804 -33.56649286 0.08627451 0.01960784 0.83137255
v 15.97681834 -5.43526724 -30.27881405 0.08627451 0.01960784 0.83137255
v 16.39801925 -2.22482823 -33.61904493 0.08627451 0.01960784 0.83137255
v 16.03628179 -4.05695423 -33.63667375 0.08627451 0.01960784 0.83137255
v 12.94417961 -10.64991362 -33.54387781 0.08627451 0.01960784 0.83137255
v 11.29902481 -12.30827652 -33.49265835 0.08627451 0.01960784 0.83137255
v 9.42922796 -13.68152954 -33.58146137 0.08627451 0.01960784 0.83137255
v 15.78686474 -5.38971752 -33.56150663 0.08627451 0.01960784 0.83137255
v 6.00842575 -15.69754355 -30.27881405 0.08627451 0.01960784 0.83137255
v 15.27151561 -6.86081909 -30.27881405 0.08627451 0.01960784 0.83137255
v 15.07165349 -7.01265313 -33.47336991 0.08627451 0.01960784 0.83137255
v 13.66930431 -9.91267741 -30.27881405 0.08627451 0.01960784 0.83137255
v 11.51870890 -12.12607518 -30.27881405 0.08627451 0.01960784 0.83137255
v 9.85868639 -13.68321620 -30.27881405 0.08627451 0.01960784 0.83137255
f 161 162 163
f 161 163 164
f 161 164 165
f 161 165 166
f 161 166 162
f 162 166 167
f 162 167 176
f 162 176 187
f 162 187 192
f 162 192 191
f 162 191 190
f 162 190 188
f 162 188 180
f 162 180 169
f 162 169 163
f 163 168 164
f 163 169 168
f 164 168 170
f 164 170 171
f 164 171 165
f 165 172 173
f 165 173 174
f 165 174 166
f 165 171 172
f 166 174 167
f 167 174 175
f 167 175 176
f 168 169 177
f 168 177 178
f 168 178 179
f 168 179 170
f 169 180 177
f 170 179 181
f 170 181 171
f 171 181 182
f 171 182 172
f 172 183 184
f 172 184 185
f 172 185 173
f 172 182 186
f 172 186 183
f 173 185 174
f 174 185 175
f 175 187 176
f 175 185 187
f 177 180 186
f 177 186 178
f 178 186 182
f 178 182 179
f 179 182 181
f 180 188 189
f 180 189 186
f 183 186 189
f 183 189 190
f 183 190 191
f 183 191 184
f 184 191 192
f 184 192 185
f 185 192 187
f 188 190 189

o geometry_6
v -1.28821978 17.24232964 33.67724711 0.77647059 0.86666667 0.97647059
v -1.28821978 5.76090004 33.36344922 0.77647059 0.86666667 0.97647059
v -1.28821978 17.24232964 30.32165186 0.77647059 0.86666667 0.97647059
v -20.85358148 17.24232964 32.88634257 0.77647059 0.86666667 0.97647059
v -20.55098539 17.20510997 33.57616784 0.77647059 0.86666667 0.97647059
v -20.13539398 16.62901578 33.67611611 0.77647059 0.86666667 0.97647059
v -16.59041678 1.80591512 33.67724711 0.77647059 0.86666667 0.97647059
v -16.49465812 0.71036518 33.64707404 0.77647059 0.86666667 0.97647059
v -1.36865649 5.60554884 29.82493223 0.77647059 0.86666667 0.97647059
v -1.28821978 6.28035519 29.82417741 0.77647059 0.86666667 0.97647059
v -5.83291450 0.71036518 33.31592762 0.77647059 0.86666667 0.97647059
v -5.70076782 0.77509515 29.82493223 0.77647059 0.86666667 0.97647059
v -1.32843783 16.40407993 29.82455359 0.77647059 0.86666667 0.97647059
v -2.25537993 16.57399580 29.82417741 0.77647059 0.86666667 0.97647059
v -2.03896528 17.24232964 30.32165186 0.77647059 0.86666667 0.97647059
v -20.82485413 17.24232964 30.87796280 0.77647059 0.86666667 0.97647059
v -16.91982552 0.71036518 30.72823094 0.77647059 0.86666667 0.97647059
v -16.92174084 0.71036518 33.17637721 0.77647059 0.86666667 0.97647059
v -7.33057639 0.71036518 29.82417741 0.77647059 0.86666667 0.97647059
v -4.50953297 16.21798217 29.82417741 0.77647059 0.86666667 0.97647059
v -20.28860734 17.24232964 30.32655449 0.77647059 0.86666667 0.97647059
v -16.80491550 0.77509515 29.82417741 0.77647059 0.86666667 0.97647059
v -5.40583178 15.99304631 29.82417741 0.77647059 0.86666667 0.97647059
v -12.93244427 10.71433995 29.82417741 0.77647059 0.86666667 0.97647059
v -13.64680236 9.93596490 29.82417741 0.77647059 0.86666667 0.97647059
v -14.64843521 8.08145989 29.82417741 0.77647059 0.86666667 0.97647059
v -15.83201000 5.75766318 29.82417741 0.77647059 0.86666667 0.97647059
v -16.13077607 4.96796094 29.82417741 0.77647059 0.86666667 0.97647059
v -16.49274280 2.77200513 29.82417741 0.77647059 0.86666667 0.97647059
v -6.90540899 15.25027312 29.82417741 0.77647059 0.86666667 0.97647059
v -8.82057761 14.27447313 29.82417741 0.77647059 0.86666667 0.97647059
v -9.89881745 13.67896020 29.82417741 0.77647059 0.86666667 0.97647059
f 193 194 202
f 193 202 195
f 193 195 207
f 193 207 213
f 193 213 208
f 193 208 196
f 193 196 197
f 193 197 198
f 193 198 199
f 193 199 200
f 193 200 194
f 194 201 202
f 194 200 203
f 194 203 204
f 194 204 201
f 195 202 205
f 195 205 206
f 195 206 207
f 196 208 209
f 196 209 210
f 196 210 197
f 197 210 200
f 197 200 198
f 198 200 199
f 200 210 209
f 200 209 211
f 200 211 203
f 201 204 202
f 202 204 211
f 202 211 214
f 202 214 221
f 202 221 220
f 202 220 219
f 202 219 218
f 202 218 217
f 202 217 216
f 202 216 224
f 202 224 223
f 202 223 222
f 202 222 215
f 202 215 212
f 202 212 206
f 202 206 205
f 203 211 204
f 206 212 213
f 206 213 207
f 208 213 214
f 208 214 209
f 209 214 211
f 212 215 213
f 213 216 217
f 213 217 218
f 213 218 219
f 213 219 220
f 213 220 221
f 213 221 214
f 213 215 222
f 213 222 223
f 213 223 224
f 213 224 216

o geometry_7
v -16.80052673 -0.70795566 -30.34433572 0.79607843 0.45882353 0.78039216
v -16.47321464 -2.34755382 -33.35297024 0.79607843 0.45882353 0.78039216
v -16.44360831 -2.96135142 -33.52126276 0.79607843 0.45882353 0.78039216
v -16.39755455 -3.35317343 -30.27881405 0.79607843 0.45882353 0.78039216
v -5.75743236 0.40865421 -30.27881405 0.79607843 0.45882353 0.78039216
v -6.04691472 0.40865421 -33.56582901 0.79607843 0.45882353 0.78039216
v -15.98635805 -4.19735536 -33.64565289 0.79607843 0.45882353 0.78039216
v -16.04556949 -5.23829162 -30.27881405 0.79607843 0.45882353 0.78039216
v 0.00260929 -5.79659410 -30.27881405 0.79607843 0.45882353 0.78039216
v 0.00260929 -5.93448982 -33.34099641 0.79607843 0.45882353 0.78039216
v -1.93165937 -16.23957194 -33.67658323 0.79607843 0.45882353 0.78039216
v -11.43523447 -11.80845402 -33.63101876 0.79607843 0.45882353 0.78039216
v -13.66063004 -9.59037244 -33.56815985 0.79607843 0.45882353 0.78039216
v -14.57348691 -8.03317487 -33.54487604 0.79607843 0.45882353 0.78039216
v -15.01593338 -7.35883690 -30.27881405 0.79607843 0.45882353 0.78039216
v -0.98590767 -16.76928967 -30.27881405 0.79607843 0.45882353 0.78039216
v -0.18983127 -16.51367918 -33.55119488 0.79607843 0.45882353 0.78039216
v -2.41522746 -16.47331975 -33.57813722 0.79607843 0.45882353 0.78039216
v -2.41522746 -16.23957194 -33.66694024 0.79607843 0.45882353 0.78039216
v -4.38897041 -15.97387344 -33.64399081 0.79607843 0.45882353 0.78039216
v -12.22637658 -11.39140829 -33.44177327 0.79607843 0.45882353 0.78039216
v -7.80848077 -14.51084867 -33.61139348 0.79607843 0.45882353 0.78039216
v -10.40559820 -13.19580518 -33.46039785 0.79607843 0.45882353 0.78039216
v -13.65076085 -9.93174456 -30.27881405 0.79607843 0.45882353 0.78039216
v -3.57151170 -16.36401370 -30.27881405 0.79607843 0.45882353 0.78039216
v -2.51555929 -16.52208790 -33.40485601 0.79607843 0.45882353 0.78039216
v -2.73760495 -16.44809604 -33.55851194 0.79607843 0.45882353 0.78039216
v -5.48110831 -15.94864972 -30.27881405 0.79607843 0.45882353 0.78039216
v -6.13408839 -15.36512107 -33.58245960 0.79607843 0.45882353 0.78039216
v -11.75596771 -11.88917287 -30.27881405 0.79607843 0.45882353 0.78039216
v -8.21638777 -14.57979530 -30.27881405 0.79607843 0.45882353 0.78039216
v -9.87597698 -13.66666429 -30.27881405 0.79607843 0.45882353 0.78039216
f 225 226 227
f 225 227 228
f 225 228 229
f 225 229 230
f 225 230 226
f 226 230 227
f 227 230 231
f 227 231 232
f 227 232 228
f 228 232 239
f 228 239 248
f 228 248 254
f 228 254 256
f 228 256 255
f 228 255 252
f 228 252 249
f 228 249 240
f 228 240 233
f 228 233 229
f 229 233 234
f 229 234 230
f 230 234 235
f 230 235 231
f 231 235 236
f 231 236 237
f 231 237 238
f 231 238 232
f 232 238 239
f 233 240 241
f 233 241 234
f 234 241 235
f 235 241 242
f 235 242 243
f 235 243 244
f 235 244 236
f 236 245 237
f 236 244 246
f 236 246 247
f 236 247 245
f 237 248 238
f 237 245 248
f 238 248 239
f 240 249 250
f 240 250 241
f 241 250 242
f 242 250 251
f 242 251 244
f 242 244 243
f 244 252 253
f 244 253 246
f 244 251 252
f 245 247 254
f 245 254 248
f 246 253 255
f 246 255 247
f 247 255 256
f 247 256 254
f 249 252 250
f 250 252 251
f 252 255 253

o geometry_8
v -5.94209839 0.71036518 33.50299963 0.11764706 0.63921569 0.14117647
v -1.93272337 -16.23964325 33.67687093 0.11764706 0.63921569 0.14117647
v 1.79000678 -5.63021198 33.31328699 0.11764706 0.63921569 0.14117647
v -5.72483257 0.61244778 29.82493223 0.11764706 0.63921569 0.14117647
v -7.32967812 0.71036518 29.82417741 0.11764706 0.63921569 0.14117647
v -16.77617462 0.19844592 33.32158507 0.11764706 0.63921569 0.14117647
v -16.26861278 -1.74100444 33.67724711 0.11764706 0.63921569 0.14117647
v -2.41655023 -16.23964325 33.67045866 0.11764706 0.63921569 0.14117647
v -2.41655023 -16.46811470 33.59766664 0.11764706 0.63921569 0.14117647
v -0.76606068 -16.74984142 33.44001287 0.11764706 0.63921569 0.14117647
v 1.17107358 -16.62959173 33.39437710 0.11764706 0.63921569 0.14117647
v 1.78453004 -16.17779978 29.82455359 0.11764706 0.63921569 0.14117647
v 1.78453004 -5.82948156 29.82455359 0.11764706 0.63921569 0.14117647
v -16.42562851 -3.18056099 29.82417741 0.11764706 0.63921569 0.14117647
v -16.86198542 -0.13309881 30.03840321 0.11764706 0.63921569 0.14117647
v -0.28040824 -16.83917060 29.82417741 0.11764706 0.63921569 0.14117647
v -16.31790831 -2.36286409 33.64368105 0.11764706 0.63921569 0.14117647
v -14.72584342 -7.44769648 33.58559692 0.11764706 0.63921569 0.14117647
v -4.34820746 -16.00257866 33.64368105 0.11764706 0.63921569 0.14117647
v -2.73605905 -16.44578487 33.58144911 0.11764706 0.63921569 0.14117647
v -3.75483451 -16.32725134 33.27594930 0.11764706 0.63921569 0.14117647
v -13.66507474 -9.91624251 29.82417741 0.11764706 0.63921569 0.14117647
v -15.79574000 -5.80199584 29.82455359 0.11764706 0.63921569 0.14117647
v -15.57664845 -6.06482752 33.22503226 0.11764706 0.63921569 0.14117647
v -4.91419396 -16.09362401 29.82455359 0.11764706 0.63921569 0.14117647
v -6.81116150 -15.29654324 29.82417741 0.11764706 0.63921569 0.14117647
v -12.31948784 -11.32315993 33.20843609 0.11764706 0.63921569 0.14117647
v -10.80410462 -12.41571151 33.53732051 0.11764706 0.63921569 0.14117647
v -8.81219755 -14.10951152 33.56786975 0.11764706 0.63921569 0.14117647
v -7.09415475 -14.90315504 33.48678210 0.11764706 0.63921569 0.14117647
v -9.95147356 -13.64053823 29.82455359 0.11764706 0.63921569 0.14117647
v -11.83748656 -11.80759348 29.82493223 0.11764706 0.63921569 0.14117647
f 257 258 259
f 257 259 260
f 257 260 261
f 257 261 262
f 257 262 263
f 257 263 258
f 258 264 265
f 258 265 266
f 258 266 267
f 258 267 259
f 258 263 264
f 259 267 268
f 259 268 269
f 259 269 260
f 260 269 261
f 261 270 271
f 261 271 262
f 261 269 272
f 261 272 282
f 261 282 278
f 261 278 270
f 262 271 270
f 262 270 273
f 262 273 263
f 263 273 274
f 263 274 275
f 263 275 264
f 264 275 265
f 265 275 276
f 265 276 266
f 266 272 267
f 266 276 277
f 266 277 272
f 267 272 268
f 268 272 269
f 270 278 279
f 270 279 280
f 270 280 273
f 272 277 281
f 272 281 282
f 273 280 274
f 274 280 278
f 274 278 283
f 274 283 284
f 274 284 285
f 274 285 275
f 275 277 276
f 275 285 286
f 275 286 277
f 277 286 282
f 277 282 281
f 278 287 288
f 278 288 283
f 278 280 279
f 278 282 287
f 282 286 285
f 282 285 287
f 283 288 287
f 283 287 285
f 283 285 284

o geometry_9
v -16.86316436 0.15153900 29.72347678 0.94117647 0.52156863 0.41176471
v -16.17494953 -3.81503865 24.50692245 0.94117647 0.52156863 0.41176471
v -16.60240167 -2.06325531 29.82417741 0.94117647 0.52156863 0.41176471
v -16.64861278 1.77025057 29.82417741 0.94117647 0.52156863 0.41176471
v -16.55453955 1.18693091 24.52684769 0.94117647 0.52156863 0.41176471
v -16.12543763 -4.79209810 29.70355155 0.94117647 0.52156863 0.41176471
v -14.93220018 -7.26027042 24.43368541 0.94117647 0.52156863 0.41176471
v -13.98487368 -9.37845290 29.74339956 0.94117647 0.52156863 0.41176471
v -12.97483057 -10.66904716 29.78378849 0.94117647 0.52156863 0.41176471
v -6.92777863 -15.23717076 29.82417741 0.94117647 0.52156863 0.41176471
v -5.51834028 1.77025057 29.82417741 0.94117647 0.52156863 0.41176471
v -5.83521614 1.77025057 24.54623324 0.94117647 0.52156863 0.41176471
v -11.75848849 -11.08466193 24.32275170 0.94117647 0.52156863 0.41176471
v -15.23587318 -6.92850687 29.66316262 0.94117647 0.52156863 0.41176471
v -14.14000975 -8.83888073 24.47407310 0.94117647 0.52156863 0.41176471
v -12.36748488 -11.17033750 24.48430495 0.94117647 0.52156863 0.41176471
v -11.83770753 -11.80834338 29.50214782 0.94117647 0.52156863 0.41176471
v -10.35070053 -13.26664254 29.74339956 0.94117647 0.52156863 0.41176471
v -9.89519104 -13.43981802 24.46922702 0.94117647 0.52156863 0.41176471
v -7.84704930 -14.45880309 24.36583290 0.94117647 0.52156863 0.41176471
v -5.38630854 -15.99548779 29.82417741 0.94117647 0.52156863 0.41176471
v -0.00271624 -5.79650313 29.82417741 0.94117647 0.52156863 0.41176471
v -0.00271624 -5.96785426 24.57531342 0.94117647 0.52156863 0.41176471
v -1.93202940 -16.23792954 24.32382861 0.94117647 0.52156863 0.41176471
v -2.67800873 -16.35277011 24.39921947 0.94117647 0.52156863 0.41176471
v -3.15827356 -16.41474880 24.48753567 0.94117647 0.52156863 0.41176471
v -3.70455457 -16.34001195 24.99212065 0.94117647 0.52156863 0.41176471
v -3.70455457 -16.34001195 29.82417741 0.94117647 0.52156863 0.41176471
v -0.44172177 -16.85223855 29.82417741 0.94117647 0.52156863 0.41176471
v -0.20241363 -16.52958937 24.50261483 0.94117647 0.52156863 0.41176471
v -2.09376828 -16.59703620 24.99212065 0.94117647 0.52156863 0.41176471
v -2.09376828 -16.59703620 29.82417741 0.94117647 0.52156863 0.41176471
f 289 290 291
f 289 291 292
f 289 292 293
f 289 293 290
f 290 294 291
f 290 293 295
f 290 295 294
f 291 294 296
f 291 296 297
f 291 297 298
f 291 298 309
f 291 309 316
f 291 316 320
f 291 320 317
f 291 317 310
f 291 310 299
f 291 299 292
f 292 299 300
f 292 300 293
f 293 300 301
f 293 301 295
f 294 295 302
f 294 302 296
f 295 301 303
f 295 303 302
f 296 302 303
f 296 303 304
f 296 304 297
f 297 304 305
f 297 305 306
f 297 306 298
f 298 306 307
f 298 307 308
f 298 308 309
f 299 310 311
f 299 311 300
f 300 311 312
f 300 312 301
f 301 312 308
f 301 308 307
f 301 307 304
f 301 304 303
f 304 307 306
f 304 306 305
f 308 312 313
f 308 313 314
f 308 314 315
f 308 315 309
f 309 315 316
f 310 317 318
f 310 318 311
f 311 318 312
f 312 318 313
f 313 318 314
f 314 318 319
f 314 319 315
f 315 319 320
f 315 320 316
f 317 320 319
f 317 319 318

o geometry_10
v -1.28822039 17.24232964 33.67724711 0.26274510 0.77254902 0.45490196
v -0.59735080 16.80702260 30.00408234 0.26274510 0.77254902 0.45490196
v -1.24548588 5.95508873 29.82455359 0.26274510 0.77254902 0.45490196
v -1.28822039 5.76090004 33.36344922 0.26274510 0.77254902 0.45490196
v 5.89468176 0.71036518 33.41210426 0.26274510 0.77254902 0.45490196
v 16.65479025 1.15861908 33.53618951 0.26274510 0.77254902 0.45490196
v 14.89200673 16.92191787 33.60181445 0.26274510 0.77254902 0.45490196
v 14.88844408 17.01253910 30.41028523 0.26274510 0.77254902 0.45490196
v 2.42253101 16.54810393 29.82417741 0.26274510 0.77254902 0.45490196
v 5.70950048 0.71036518 29.82417741 0.26274510 0.77254902 0.45490196
v 16.63876450 0.83982512 30.30845115 0.26274510 0.77254902 0.45490196
v 16.90229198 3.17656685 30.79272488 0.26274510 0.77254902 0.45490196
v 16.78299135 2.87395477 33.43096243 0.26274510 0.77254902 0.45490196
v 16.77765107 4.90161315 33.51393589 0.26274510 0.77254902 0.45490196
v 15.59355749 15.24865469 30.68523334 0.26274510 0.77254902 0.45490196
v 16.06719492 11.62541058 33.47810538 0.26274510 0.77254902 0.45490196
v 15.71107803 14.32463843 33.26840603 0.26274510 0.77254902 0.45490196
v 15.89981949 13.64497678 30.65958673 0.26274510 0.77254902 0.45490196
v 16.48207209 9.61879000 30.52154595 0.26274510 0.77254902 0.45490196
v 16.08144058 5.07638309 29.82417741 0.26274510 0.77254902 0.45490196
v 14.90090719 7.58951381 29.82417741 0.26274510 0.77254902 0.45490196
v 13.90377744 9.48771223 29.82417741 0.26274510 0.77254902 0.45490196
v 12.29234359 11.35354567 29.82417741 0.26274510 0.77254902 0.45490196
v 9.89923021 13.67572334 29.82417741 0.26274510 0.77254902 0.45490196
v 7.40106186 14.99620914 29.82417741 0.26274510 0.77254902 0.45490196
v 5.18778703 15.99304631 29.82417741 0.26274510 0.77254902 0.45490196
v 16.54261245 2.45159335 29.82417741 0.26274510 0.77254902 0.45490196
v 16.80079719 5.93243312 30.69126943 0.26274510 0.77254902 0.45490196
v 16.76162532 6.78201064 33.20655027 0.26274510 0.77254902 0.45490196
v 16.40728852 8.77730403 33.47395757 0.26274510 0.77254902 0.45490196
v 16.26484177 11.52993405 30.71955667 0.26274510 0.77254902 0.45490196
v 16.58000669 9.05564144 30.79272488 0.26274510 0.77254902 0.45490196
f 321 322 323
f 321 323 324
f 321 324 325
f 321 325 326
f 321 326 327
f 321 327 328
f 321 328 322
f 322 328 329
f 322 329 323
f 323 329 330
f 323 330 324
f 324 330 325
f 325 331 326
f 325 330 331
f 326 331 332
f 326 332 333
f 326 333 334
f 326 334 327
f 327 335 328
f 327 334 336
f 327 336 337
f 327 337 335
f 328 335 338
f 328 338 339
f 328 339 340
f 328 340 341
f 328 341 342
f 328 342 343
f 328 343 344
f 328 344 345
f 328 345 346
f 328 346 329
f 329 346 345
f 329 345 344
f 329 344 343
f 329 343 342
f 329 342 341
f 329 341 340
f 329 340 347
f 329 347 330
f 330 347 331
f 331 347 332
f 332 348 349
f 332 349 334
f 332 334 333
f 332 347 348
f 334 349 350
f 334 350 336
f 335 337 338
f 336 350 349
f 336 349 337
f 337 349 351
f 337 351 338
f 338 351 339
f 339 347 340
f 339 351 352
f 339 352 348
f 339 348 347
f 348 352 349
f 349 352 351

o geometry_11
v -16.90325455 0.21303825 -30.27847967 0.56470588 0.01568627 0.61568627
v -5.78920726 0.21303825 -30.27847967 0.56470588 0.01568627 0.61568627
v -6.04704964 0.21959804 -24.44574772 0.56470588 0.01568627 0.61568627
v -16.76315523 0.59508204 -24.56524751 0.56470588 0.01568627 0.61568627
v -16.68267304 3.58093064 -30.27847967 0.56470588 0.01568627 0.61568627
v -1.67714422 5.54362178 -30.27847967 0.56470588 0.01568627 0.61568627
v -1.67714422 5.70430957 -24.57632145 0.56470588 0.01568627 0.61568627
v -16.26982737 1.96913045 -24.32566522 0.56470588 0.01568627 0.61568627
v -2.35379397 16.41958443 -24.43933545 0.56470588 0.01568627 0.61568627
v -5.96060542 15.47513153 -24.36646967 0.56470588 0.01568627 0.61568627
v -16.50680344 2.12981824 -24.40436056 0.56470588 0.01568627 0.61568627
v -16.48444717 2.45119505 -24.41835052 0.56470588 0.01568627 0.61568627
v -16.45016748 2.88734850 -24.45215999 0.56470588 0.01568627 0.61568627
v -15.92852164 6.18965283 -30.27847967 0.56470588 0.01568627 0.61568627
v -1.72334673 16.96231663 -30.27847967 0.56470588 0.01568627 0.61568627
v -16.26982737 2.45119505 -24.34140331 0.56470588 0.01568627 0.61568627
v -14.33675486 7.60797244 -24.32391709 0.56470588 0.01568627 0.61568627
v -15.30254613 5.99617101 -24.32566522 0.56470588 0.01568627 0.61568627
v -3.38218230 16.72620356 -30.27847967 0.56470588 0.01568627 0.61568627
v -4.49403399 16.02606224 -24.40436056 0.56470588 0.01568627 0.61568627
v -7.38097388 14.86025333 -24.41543451 0.56470588 0.01568627 0.61568627
v -11.18452076 12.03181447 -24.40960495 0.56470588 0.01568627 0.61568627
v -14.33675486 7.93098796 -24.32741335 0.56470588 0.01568627 0.61568627
v -5.63718482 16.20806627 -30.27847967 0.56470588 0.01568627 0.61568627
v -15.92255992 4.41388495 -24.36005740 0.56470588 0.01568627 0.61568627
v -15.37110490 6.51922815 -24.42242949 0.56470588 0.01568627 0.61568627
v -14.54541357 8.18677671 -24.43234047 0.56470588 0.01568627 0.61568627
v -13.59154572 10.39213948 -30.27847967 0.56470588 0.01568627 0.61568627
v -14.60801124 7.93098796 -24.40494327 0.56470588 0.01568627 0.61568627
v -7.89367762 15.06357299 -30.27847967 0.56470588 0.01568627 0.61568627
v -10.70162528 13.28616578 -30.27847967 0.56470588 0.01568627 0.61568627
v -13.05648587 10.35442684 -24.45332541 0.56470588 0.01568627 0.61568627
f 353 354 355
f 353 355 356
f 353 356 357
f 353 357 366
f 353 366 380
f 353 380 383
f 353 383 382
f 353 382 376
f 353 376 371
f 353 371 367
f 353 367 358
f 353 358 354
f 354 358 359
f 354 359 355
f 355 360 356
f 355 359 361
f 355 361 362
f 355 362 360
f 356 360 363
f 356 363 364
f 356 364 365
f 356 365 357
f 357 365 366
f 358 367 359
f 359 367 361
f 360 368 363
f 360 362 369
f 360 369 370
f 360 370 368
f 361 367 371
f 361 371 372
f 361 372 362
f 362 373 374
f 362 374 375
f 362 375 369
f 362 372 376
f 362 376 373
f 363 368 364
f 364 368 377
f 364 377 365
f 365 377 378
f 365 378 366
f 366 378 379
f 366 379 380
f 368 370 377
f 369 375 370
f 370 378 377
f 370 375 381
f 370 381 378
f 371 376 372
f 373 376 382
f 373 382 383
f 373 383 374
f 374 383 384
f 374 384 375
f 375 379 381
f 375 384 379
f 378 381 379
f 379 384 380
f 380 384 383

o geometry_12
v -16.83963038 -0.46168081 -30.27789696 0.61176471 0.61568627 0.94117647
v -16.71720843 -0.18096216 -24.59783992 0.61176471 0.61568627 0.94117647
v -5.78774957 0.21138847 -30.27789696 0.61176471 0.61568627 0.94117647
v -16.49596430 -2.73698352 -30.27789696 0.61176471 0.61568627 0.94117647
v -16.50186455 -2.69594304 -24.79949197 0.61176471 0.61568627 0.94117647
v -16.44434100 -2.95696266 -24.45854767 0.61176471 0.61568627 0.94117647
v -16.48858945 -2.38567337 -24.41425434 0.61176471 0.61568627 0.94117647
v -16.27029575 -1.90139227 -24.32450226 0.61176471 0.61568627 0.94117647
v -6.06209222 0.21138847 -24.41716789 0.61176471 0.61568627 0.94117647
v -1.77438117 -5.63774787 -24.68700929 0.61176471 0.61568627 0.94117647
v -1.79503049 -5.69028027 -30.27731425 0.61176471 0.61568627 0.94117647
v -2.33634157 -16.55952886 -30.27789696 0.61176471 0.61568627 0.94117647
v -15.87353116 -5.64923979 -30.27789696 0.61176471 0.61568627 0.94117647
v -15.73045989 -5.59014022 -24.60483244 0.61176471 0.61568627 0.94117647
v -16.00037751 -4.15863588 -24.35189208 0.61176471 0.61568627 0.94117647
v -16.27029575 -2.38567337 -24.33732188 0.61176471 0.61568627 0.94117647
v -8.41612945 -14.27109428 -24.40784207 0.61176471 0.61568627 0.94117647
v -2.43811357 -16.35760881 -24.45621683 0.61176471 0.61568627 0.94117647
v -4.57680677 -16.07524775 -24.58734868 0.61176471 0.61568627 0.94117647
v -4.94997161 -16.10479631 -30.27789696 0.61176471 0.61568627 0.94117647
v -15.15522502 -7.08566889 -24.96092966 0.61176471 0.61568627 0.94117647
v -14.46936808 -8.43180746 -30.27789696 0.61176471 0.61568627 0.94117647
v -14.76878570 -7.38608658 -24.39560270 0.61176471 0.61568627 0.94117647
v -9.51055040 -13.88859317 -30.27789696 0.61176471 0.61568627 0.94117647
v -6.97656783 -15.04594356 -24.43698248 0.61176471 0.61568627 0.94117647
v -10.42945089 -12.87078090 -24.52965057 0.61176471 0.61568627 0.94117647
v -7.20961153 -15.09355120 -30.27789696 0.61176471 0.61568627 0.94117647
v -13.49884414 -10.08000612 -30.27789696 0.61176471 0.61568627 0.94117647
v -12.91033479 -10.60040295 -24.62115078 0.61176471 0.61568627 0.94117647
v -11.67579285 -11.96788296 -24.96092966 0.61176471 0.61568627 0.94117647
v -10.91028814 -12.73452513 -30.27789696 0.61176471 0.61568627 0.94117647
v -12.24070276 -11.40480325 -30.27789696 0.61176471 0.61568627 0.94117647
f 385 386 387
f 385 387 396
f 385 396 404
f 385 404 411
f 385 411 408
f 385 408 415
f 385 415 416
f 385 416 412
f 385 412 406
f 385 406 397
f 385 397 388
f 385 388 389
f 385 389 386
f 386 389 390
f 386 390 391
f 386 391 392
f 386 392 393
f 386 393 387
f 387 393 394
f 387 394 395
f 387 395 396
f 388 397 389
f 389 397 390
f 390 397 398
f 390 398 399
f 390 399 391
f 391 400 392
f 391 399 400
f 392 400 399
f 392 399 401
f 392 401 402
f 392 402 393
f 393 402 394
f 394 396 395
f 394 402 396
f 396 402 403
f 396 403 404
f 397 405 398
f 397 406 405
f 398 405 407
f 398 407 399
f 399 407 401
f 401 408 409
f 401 409 402
f 401 407 410
f 401 410 408
f 402 409 403
f 403 409 404
f 404 409 411
f 405 406 412
f 405 412 413
f 405 413 407
f 407 413 410
f 408 411 409
f 408 410 414
f 408 414 415
f 410 413 414
f 412 416 414
f 412 414 413
f 414 416 415

o geometry_13
v 0.00057534 -5.92952818 24.71240637 0.67843137 0.35686275 0.43529412
v 0.00057534 -5.79573110 29.82417741 0.67843137 0.35686275 0.43529412
v 5.93261691 -0.00111625 24.71294483 0.67843137 0.35686275 0.43529412
v 16.33499315 -2.10389256 24.35773642 0.67843137 0.35686275 0.43529412
v 0.19394037 -16.51444383 24.44976771 0.67843137 0.35686275 0.43529412
v 5.81135424 -0.00111625 29.82417741 0.67843137 0.35686275 0.43529412
v 0.28570673 -16.87619358 29.82417741 0.67843137 0.35686275 0.43529412
v 16.59062824 -0.42563640 24.45084339 0.67843137 0.35686275 0.43529412
v 16.60209803 -2.06259884 24.66935100 0.67843137 0.35686275 0.43529412
v 16.24322741 -3.50133911 24.42770095 0.67843137 0.35686275 0.43529412
v 14.66517276 -7.21960612 24.32598242 0.67843137 0.35686275 0.43529412
v 8.01374814 -14.54711437 24.45837805 0.67843137 0.35686275 0.43529412
v 1.88998025 -16.48636311 24.55363882 0.67843137 0.35686275 0.43529412
v 16.73974788 -1.18382558 29.82417741 0.67843137 0.35686275 0.43529412
v 1.77854928 -16.64658867 29.82417741 0.67843137 0.35686275 0.43529412
v 16.65289706 -1.74049057 24.99172972 0.67843137 0.35686275 0.43529412
v 16.29566392 -3.99688840 29.82417741 0.67843137 0.35686275 0.43529412
v 16.26944444 -4.15711641 24.83080836 0.67843137 0.35686275 0.43529412
v 15.20102246 -6.64311670 24.53049639 0.67843137 0.35686275 0.43529412
v 14.82740214 -7.21960612 24.36580831 0.67843137 0.35686275 0.43529412
v 13.96545371 -8.94411519 24.45084339 0.67843137 0.35686275 0.43529412
v 10.28660445 -13.27025190 24.50412446 0.67843137 0.35686275 0.43529412
v 8.56926246 -14.39845204 29.82417741 0.67843137 0.35686275 0.43529412
v 7.13377381 -15.13186254 29.82417741 0.67843137 0.35686275 0.43529412
v 5.44592752 -15.96603513 29.82417741 0.67843137 0.35686275 0.43529412
v 3.80560404 -16.32613510 29.82417741 0.67843137 0.35686275 0.43529412
v 15.99906212 -5.38772844 29.82417741 0.67843137 0.35686275 0.43529412
v 15.07811984 -7.23942809 29.82417741 0.67843137 0.35686275 0.43529412
v 13.92612448 -9.45122525 29.82417741 0.67843137 0.35686275 0.43529412
v 11.83024602 -11.63163967 24.52672967 0.67843137 0.35686275 0.43529412
v 11.67948766 -11.96530871 29.82417741 0.67843137 0.35686275 0.43529412
v 10.01785962 -13.57749246 29.82417741 0.67843137 0.35686275 0.43529412
f 417 418 419
f 417 419 420
f 417 420 421
f 417 421 418
f 418 422 419
f 418 421 423
f 418 423 431
f 418 431 442
f 418 442 441
f 418 441 440
f 418 440 439
f 418 439 448
f 418 448 447
f 418 447 445
f 418 445 444
f 418 444 443
f 418 443 433
f 418 433 430
f 418 430 422
f 419 422 424
f 419 424 420
f 420 425 426
f 420 426 427
f 420 427 421
f 420 424 425
f 421 428 429
f 421 429 423
f 421 427 428
f 422 430 424
f 423 429 431
f 424 430 432
f 424 432 425
f 425 433 434
f 425 434 426
f 425 432 433
f 426 434 435
f 426 435 436
f 426 436 427
f 427 436 437
f 427 437 438
f 427 438 428
f 428 438 439
f 428 439 440
f 428 440 441
f 428 441 429
f 429 441 442
f 429 442 431
f 430 433 432
f 433 443 434
f 434 443 435
f 435 443 444
f 435 444 445
f 435 445 437
f 435 437 436
f 437 445 446
f 437 446 438
f 438 447 448
f 438 448 439
f 438 446 447
f 445 447 446

o geometry_14
v 0.28679962 16.87979618 29.82417741 0.69411765 0.05882353 0.66666667
v 2.09999739 16.59888821 29.82417741 0.69411765 0.05882353 0.66666667
v 2.46065302 16.48652539 24.52738614 0.69411765 0.05882353 0.66666667
v 0.00059193 6.10945769 24.40191296 0.69411765 0.05882353 0.66666667
v 0.00059193 5.79550244 29.82417741 0.69411765 0.05882353 0.66666667
v 5.00508657 16.08168706 29.82417741 0.69411765 0.05882353 0.66666667
v 6.46590220 15.31993154 24.45684136 0.69411765 0.05882353 0.66666667
v 3.87183750 16.01063395 24.34698457 0.69411765 0.05882353 0.66666667
v 8.22285248 14.05088894 24.32275170 0.69411765 0.05882353 0.66666667
v 16.27636565 1.88757811 24.32813624 0.69411765 0.05882353 0.66666667
v 5.92822938 0.00053845 24.71855679 0.69411765 0.05882353 0.66666667
v 5.81076907 0.00053845 29.82417741 0.69411765 0.05882353 0.66666667
v 7.25669487 15.07041922 29.82417741 0.69411765 0.05882353 0.66666667
v 7.94491707 14.71845813 24.83056740 0.69411765 0.05882353 0.66666667
v 8.15171393 14.53008424 24.44014685 0.69411765 0.05882353 0.66666667
v 7.90024879 14.37310662 24.33459891 0.69411765 0.05882353 0.66666667
v 10.95257672 12.43153749 24.39168112 0.69411765 0.05882353 0.66666667
v 12.41008295 10.82870968 24.34698457 0.69411765 0.05882353 0.66666667
v 16.44676527 2.41469331 24.42022161 0.69411765 0.05882353 0.66666667
v 16.66018216 0.38719967 24.44768643 0.69411765 0.05882353 0.66666667
v 16.90006687 0.09803049 29.82417741 0.69411765 0.05882353 0.66666667
v 9.54304571 13.88069155 29.82417741 0.69411765 0.05882353 0.66666667
v 9.68366811 13.71214701 24.71963370 0.69411765 0.05882353 0.66666667
v 12.61357164 11.03195496 24.66955261 0.69411765 0.05882353 0.66666667
v 13.72366107 9.63732976 24.60923968 0.69411765 0.05882353 0.66666667
v 16.20853773 4.54628795 24.66955261 0.69411765 0.05882353 0.66666667
v 16.59069708 2.12882861 24.66955261 0.69411765 0.05882353 0.66666667
v 16.54272063 2.45269854 29.82417741 0.69411765 0.05882353 0.66666667
v 14.81389409 7.76020478 29.82417741 0.69411765 0.05882353 0.66666667
v 13.62605101 9.90667082 29.80371372 0.69411765 0.05882353 0.66666667
v 14.54753911 8.16504311 24.77079292 0.69411765 0.05882353 0.66666667
v 15.96203423 5.39892655 29.82417741 0.69411765 0.05882353 0.66666667
f 449 450 451
f 449 451 452
f 449 452 453
f 449 453 460
f 449 460 469
f 449 469 476
f 449 476 480
f 449 480 477
f 449 477 470
f 449 470 461
f 449 461 454
f 449 454 450
f 450 454 451
f 451 454 455
f 451 455 456
f 451 456 452
f 452 456 457
f 452 457 458
f 452 458 459
f 452 459 453
f 453 459 460
f 454 461 462
f 454 462 455
f 455 462 463
f 455 463 464
f 455 464 456
f 456 464 457
f 457 464 465
f 457 465 466
f 457 466 458
f 458 466 467
f 458 467 468
f 458 468 459
f 459 469 460
f 459 468 469
f 461 470 462
f 462 470 471
f 462 471 463
f 463 471 465
f 463 465 464
f 465 471 472
f 465 472 466
f 466 472 473
f 466 473 467
f 467 473 474
f 467 474 475
f 467 475 468
f 468 475 469
f 469 475 476
f 470 477 478
f 470 478 472
f 470 472 471
f 472 478 473
f 473 478 479
f 473 479 474
f 474 480 476
f 474 476 475
f 474 479 480
f 477 480 479
f 477 479 478

o geometry_15
v -20.55692559 17.20423222 -33.45636314 0.67058824 0.20784314 0.12549020
v -13.36819572 9.86029252 -33.67724708 0.67058824 0.20784314 0.12549020
v -14.98037394 6.64125670 -33.67724708 0.67058824 0.20784314 0.12549020
v -15.62411287 5.35232697 -33.67724708 0.67058824 0.20784314 0.12549020
v -15.94692556 4.06339724 -33.67724708 0.67058824 0.20784314 0.12549020
v -16.26785120 2.13000387 -33.67724708 0.67058824 0.20784314 0.12549020
v -16.64163502 0.41033350 -33.56979734 0.67058824 0.20784314 0.12549020
v -16.90592715 0.42512991 -30.56323549 0.67058824 0.20784314 0.12549020
v -20.56447623 17.20423222 -30.59317498 0.67058824 0.20784314 0.12549020
v -1.32216448 17.14175871 -30.29910563 0.67058824 0.20784314 0.12549020
v -1.27874521 16.85076334 -33.67691270 0.67058824 0.20784314 0.12549020
v -5.31485497 15.66211995 -33.67724708 0.67058824 0.20784314 0.12549020
v -9.82857663 13.40649292 -33.67724708 0.67058824 0.20784314 0.12549020
v -10.47231541 12.76202805 -33.67724708 0.67058824 0.20784314 0.12549020
v -3.70456441 15.98435238 -33.67724708 0.67058824 0.20784314 0.12549020
v -6.04731978 0.41033350 -33.56580442 0.67058824 0.20784314 0.12549020
v -5.75848714 0.41033350 -30.27881405 0.67058824 0.20784314 0.12549020
v -16.68127896 3.58004920 -30.27881405 0.67058824 0.20784314 0.12549020
v -16.28106543 5.49042676 -30.27881405 0.67058824 0.20784314 0.12549020
v -15.70340015 6.63796820 -30.27881405 0.67058824 0.20784314 0.12549020
v -14.38571786 9.21582766 -30.27881405 0.67058824 0.20784314 0.12549020
v -13.90810534 10.04935730 -30.27881405 0.67058824 0.20784314 0.12549020
v -13.27569360 10.73327925 -30.27881405 0.67058824 0.20784314 0.12549020
v -10.22501406 13.74187812 -30.27881405 0.67058824 0.20784314 0.12549020
v -8.21639841 14.89928445 -30.27881405 0.67058824 0.20784314 0.12549020
v -6.60421989 15.71966194 -30.27881405 0.67058824 0.20784314 0.12549020
v -5.63766827 16.20794272 -30.27881405 0.67058824 0.20784314 0.12549020
v -3.38175111 16.72745995 -30.27881405 0.67058824 0.20784314 0.12549020
v -1.27874521 5.61866228 -30.27881405 0.67058824 0.20784314 0.12549020
v -1.30139837 5.90308126 -33.45835714 0.67058824 0.20784314 0.12549020
f 481 482 483
f 481 483 484
f 481 484 485
f 481 485 486
f 481 486 487
f 481 487 488
f 481 488 489
f 481 489 490
f 481 490 491
f 481 491 492
f 481 492 493
f 481 493 494
f 481 494 482
f 482 494 493
f 482 493 492
f 482 492 495
f 482 495 486
f 482 486 485
f 482 485 484
f 482 484 483
f 486 495 491
f 486 491 496
f 486 496 487
f 487 497 488
f 487 496 497
f 488 498 489
f 488 497 498
f 489 498 499
f 489 499 500
f 489 500 501
f 489 501 502
f 489 502 503
f 489 503 504
f 489 504 505
f 489 505 506
f 489 506 507
f 489 507 508
f 489 508 490
f 490 509 491
f 490 508 509
f 491 495 492
f 491 509 510
f 491 510 496
f 496 510 497
f 497 510 509
f 497 509 508
f 497 508 507
f 497 507 506
f 497 506 505
f 497 505 504
f 497 504 503
f 497 503 502
f 497 502 501
f 497 501 500
f 497 500 499
f 497 499 498

o geometry_16
v 0.32057282 17.10887248 -30.28679742 0.31372549 0.36078431 0.56862745
v -1.27696573 16.85061397 -33.67691270 0.31372549 0.36078431 0.56862745
v -1.27696573 5.61963715 -30.27881405 0.31372549 0.36078431 0.56862745
v 3.65812680 16.69042837 -30.27881405 0.31372549 0.36078431 0.56862745
v 14.96200076 16.85388342 -30.46277335 0.31372549 0.36078431 0.56862745
v 14.95844057 16.89965073 -33.48996116 0.31372549 0.36078431 0.56862745
v 5.96805772 0.41196853 -33.55815789 0.31372549 0.36078431 0.56862745
v -1.27696573 5.90404753 -33.45802522 0.31372549 0.36078431 0.56862745
v 1.77919468 16.30630944 -33.67724708 0.31372549 0.36078431 0.56862745
v 15.79371957 4.70755845 -33.67724708 0.31372549 0.36078431 0.56862745
v 5.75790229 0.41196853 -30.27881405 0.31372549 0.36078431 0.56862745
v 5.87188477 16.12487460 -30.27881405 0.31372549 0.36078431 0.56862745
v 15.25586358 7.59907320 -30.27881405 0.31372549 0.36078431 0.56862745
v 16.52570157 4.98543240 -30.37594958 0.31372549 0.36078431 0.56862745
v 15.69754785 14.20918504 -30.57953662 0.31372549 0.36078431 0.56862745
v 15.72604163 14.25495235 -33.28670605 0.31372549 0.36078431 0.56862745
v 8.19606258 14.95126979 -30.27881405 0.31372549 0.36078431 0.56862745
v 10.12486311 13.88064053 -30.27881405 0.31372549 0.36078431 0.56862745
v 13.91300490 10.02964597 -30.27881405 0.31372549 0.36078431 0.56862745
v 16.10004796 11.45006837 -33.50991836 0.31372549 0.36078431 0.56862745
v 13.69928806 9.21727583 -33.67724708 0.31372549 0.36078431 0.56862745
v 12.08750261 11.15094580 -33.67724708 0.31372549 0.36078431 0.56862745
v 9.83100152 13.40662200 -33.67724708 0.31372549 0.36078431 0.56862745
v 7.89863835 14.37263947 -33.67724708 0.31372549 0.36078431 0.56862745
v 4.51834062 15.82248380 -33.67724708 0.31372549 0.36078431 0.56862745
v 16.91395602 0.86800665 -30.63409252 0.31372549 0.36078431 0.56862745
v 16.59159696 1.58720713 -33.57844701 0.31372549 0.36078431 0.56862745
v 16.60940772 8.55691921 -30.71559323 0.31372549 0.36078431 0.56862745
v 16.25499225 11.05450731 -30.78977688 0.31372549 0.36078431 0.56862745
v 16.55776045 8.62883840 -33.25909740 0.31372549 0.36078431 0.56862745
v 16.81243910 5.11619546 -33.42309704 0.31372549 0.36078431 0.56862745
v 16.90683073 2.93570973 -30.76116754 0.31372549 0.36078431 0.56862745
f 511 512 513
f 511 513 514
f 511 514 515
f 511 515 516
f 511 516 512
f 512 517 518
f 512 518 513
f 512 516 519
f 512 519 520
f 512 520 517
f 513 518 517
f 513 517 521
f 513 521 523
f 513 523 529
f 513 529 528
f 513 528 527
f 513 527 522
f 513 522 514
f 514 522 515
f 515 523 524
f 515 524 525
f 515 525 526
f 515 526 516
f 515 522 527
f 515 527 528
f 515 528 529
f 515 529 523
f 516 526 530
f 516 530 520
f 516 520 531
f 516 531 532
f 516 532 533
f 516 533 534
f 516 534 535
f 516 535 519
f 517 536 521
f 517 520 537
f 517 537 536
f 519 535 534
f 519 534 533
f 519 533 532
f 519 532 531
f 519 531 520
f 520 530 537
f 521 536 524
f 521 524 523
f 524 536 538
f 524 538 525
f 525 538 539
f 525 539 526
f 526 539 540
f 526 540 530
f 530 540 541
f 530 541 537
f 536 537 541
f 536 541 542
f 536 542 538
f 538 541 540
f 538 540 539
f 538 542 541

o geometry_17
v 0.62921483 17.07975173 -30.27847967 0.43529412 0.98823529 0.10196078
v -1.34064769 17.03352341 -30.27847967 0.43529412 0.98823529 0.10196078
v -0.13290150 16.81559052 -24.51220123 0.43529412 0.98823529 0.10196078
v 2.69002190 16.48373723 -24.45565625 0.43529412 0.98823529 0.10196078
v 3.65949260 16.69011366 -30.27847967 0.43529412 0.98823529 0.10196078
v -1.67714299 5.54414794 -30.27847967 0.43529412 0.98823529 0.10196078
v -1.64804069 16.40613969 -24.43175776 0.43529412 0.98823529 0.10196078
v 1.85878745 16.30542800 -24.32974419 0.43529412 0.98823529 0.10196078
v 2.09888114 16.52831454 -24.41193825 0.43529412 0.98823529 0.10196078
v 3.59583216 16.21792501 -24.45565625 0.43529412 0.98823529 0.10196078
v 5.87126887 16.12546837 -30.27847967 0.43529412 0.98823529 0.10196078
v 5.78941903 0.21468803 -30.27847967 0.43529412 0.98823529 0.10196078
v -1.67714299 5.68118189 -24.68882626 0.43529412 0.98823529 0.10196078
v 6.05497739 0.21468803 -24.52677390 0.43529412 0.98823529 0.10196078
v 15.31133166 5.67457784 -24.32391709 0.43529412 0.98823529 0.10196078
v 6.28961401 15.01764094 -24.32391709 0.43529412 0.98823529 0.10196078
v 7.08629033 15.13486214 -24.58448185 0.43529412 0.98823529 0.10196078
v 8.35587876 14.86904992 -30.27847967 0.43529412 0.98823529 0.10196078
v 16.90468183 0.21468803 -30.27847967 0.43529412 0.98823529 0.10196078
v 16.76644681 0.59111863 -24.57340790 0.43529412 0.98823529 0.10196078
v 16.36992624 2.22231545 -24.37113380 0.43529412 0.98823529 0.10196078
v 15.32406276 6.51494142 -24.40960495 0.43529412 0.98823529 0.10196078
v 14.44735481 8.25180296 -24.40669140 0.43529412 0.98823529 0.10196078
v 12.67029612 10.50543107 -24.39853100 0.43529412 0.98823529 0.10196078
v 9.23076606 13.94613577 -24.53493430 0.43529412 0.98823529 0.10196078
v 10.12566219 13.88009531 -30.27847967 0.43529412 0.98823529 0.10196078
v 16.68277754 3.51175413 -30.27847967 0.43529412 0.98823529 0.10196078
v 16.10800675 5.90076640 -30.27847967 0.43529412 0.98823529 0.10196078
v 15.25858289 7.59965468 -30.27847967 0.43529412 0.98823529 0.10196078
v 14.00172679 9.93583336 -30.27847967 0.43529412 0.98823529 0.10196078
v 11.34614071 12.26210598 -24.53609972 0.43529412 0.98823529 0.10196078
v 12.70849189 11.39037257 -30.27847967 0.43529412 0.98823529 0.10196078
f 543 544 545
f 543 545 546
f 543 546 547
f 543 547 553
f 543 553 560
f 543 560 568
f 543 568 574
f 543 574 572
f 543 572 571
f 543 571 570
f 543 570 569
f 543 569 561
f 543 561 554
f 543 554 548
f 543 548 544
f 544 548 549
f 544 549 545
f 545 549 550
f 545 550 551
f 545 551 546
f 546 552 553
f 546 553 547
f 546 551 552
f 548 554 555
f 548 555 549
f 549 555 556
f 549 556 550
f 550 556 557
f 550 557 558
f 550 558 551
f 551 558 552
f 552 558 559
f 552 559 553
f 553 559 560
f 554 556 555
f 554 561 556
f 556 561 562
f 556 562 563
f 556 563 557
f 557 563 564
f 557 564 565
f 557 565 566
f 557 566 558
f 558 566 567
f 558 567 559
f 559 567 560
f 560 567 568
f 561 569 562
f 562 569 563
f 563 569 570
f 563 570 564
f 564 570 571
f 564 571 565
f 565 572 573
f 565 573 566
f 565 571 572
f 566 573 567
f 567 573 568
f 568 573 574
f 572 574 573

o geometry_18
v 6.05592398 0.21303825 -24.53318617 0.20784314 0.16078431 0.65098039
v 16.01623854 -4.23113532 -24.36413883 0.20784314 0.16078431 0.65098039
v 16.45673281 -2.72358857 -24.65968093 0.20784314 0.16078431 0.65098039
v 16.82260087 -0.59332408 -30.27847967 0.20784314 0.16078431 0.65098039
v 5.78834949 0.21303825 -30.27847967 0.20784314 0.16078431 0.65098039
v -1.77107792 -5.63684307 -24.68707813 0.20784314 0.16078431 0.65098039
v 2.10055797 -16.23975389 -24.32391709 0.20784314 0.16078431 0.65098039
v 11.97531989 -11.61694407 -24.43758732 0.20784314 0.16078431 0.65098039
v 14.57279234 -7.71535456 -24.42126407 0.20784314 0.16078431 0.65098039
v 16.19279964 -4.64183025 -24.63869354 0.20784314 0.16078431 0.65098039
v 4.35582603 -16.00268684 -24.35889198 0.20784314 0.16078431 0.65098039
v 16.46765432 -2.90890262 -30.27847967 0.20784314 0.16078431 0.65098039
v -1.77107792 -16.64710745 -30.27847967 0.20784314 0.16078431 0.65098039
v -1.76925787 -5.69694579 -30.27731179 0.20784314 0.16078431 0.65098039
v -1.76925787 -16.34660125 -24.53202075 0.20784314 0.16078431 0.65098039
v 0.22753777 -16.75896317 -24.57340790 0.20784314 0.16078431 0.65098039
v 2.42273877 -16.47014312 -24.40785682 0.20784314 0.16078431 0.65098039
v 2.42273877 -16.23975389 -24.33091207 0.20784314 0.16078431 0.65098039
v 7.97444841 -14.55524281 -24.42009865 0.20784314 0.16078431 0.65098039
v 10.42084163 -12.95754321 -24.52502331 0.20784314 0.16078431 0.65098039
v 9.82380493 -13.70380282 -30.27847967 0.20784314 0.16078431 0.65098039
v 12.72707714 -10.91742910 -24.96105260 0.20784314 0.16078431 0.65098039
v 13.61535078 -9.59018804 -24.51394936 0.20784314 0.16078431 0.65098039
v 14.55277121 -8.26962478 -30.27847967 0.20784314 0.16078431 0.65098039
v 15.94889006 -5.49827613 -30.27847967 0.20784314 0.16078431 0.65098039
v 2.74491957 -16.44676834 -24.42534550 0.20784314 0.16078431 0.65098039
v 3.16175385 -16.41337931 -24.46090309 0.20784314 0.16078431 0.65098039
v 3.38928240 -16.39167644 -24.96105260 0.20784314 0.16078431 0.65098039
v 4.25025227 -16.23975389 -30.27847967 0.20784314 0.16078431 0.65098039
v 0.06553704 -16.84243821 -30.27847967 0.20784314 0.16078431 0.65098039
v 3.06710160 -16.44176245 -24.63869354 0.20784314 0.16078431 0.65098039
v 13.61898965 -9.93744135 -30.27847967 0.20784314 0.16078431 0.65098039
f 575 576 577
f 575 577 578
f 575 578 579
f 575 579 580
f 575 580 581
f 575 581 576
f 576 582 583
f 576 583 584
f 576 584 577
f 576 581 585
f 576 585 582
f 577 584 578
f 578 584 586
f 578 586 599
f 578 599 598
f 578 598 606
f 578 606 595
f 578 595 603
f 578 603 604
f 578 604 587
f 578 587 579
f 579 587 588
f 579 588 580
f 580 588 587
f 580 587 589
f 580 589 581
f 581 590 591
f 581 591 592
f 581 592 585
f 581 589 590
f 582 593 594
f 582 594 595
f 582 595 596
f 582 596 597
f 582 597 583
f 582 585 593
f 583 597 584
f 584 597 598
f 584 598 599
f 584 599 586
f 585 592 591
f 585 591 600
f 585 600 601
f 585 601 602
f 585 602 603
f 585 603 593
f 587 604 590
f 587 590 589
f 590 604 605
f 590 605 601
f 590 601 600
f 590 600 591
f 593 595 594
f 593 603 595
f 595 606 596
f 596 606 597
f 597 606 598
f 601 605 602
f 602 605 603
f 603 605 604

