# https://github.com/mikedh/trimesh

o geometry_0
v -0.91992088 5.31449369 24.63205487 0.54509804 0.71372549 0.60000000
v -3.95735140 3.78431664 24.63205487 0.54509804 0.71372549 0.60000000
v -1.89376972 4.68504360 26.66240099 0.54509804 0.71372549 0.60000000
v 0.64078895 4.97751543 26.66702110 0.54509804 0.71372549 0.60000000
v 1.91338424 5.17885438 24.63205487 0.54509804 0.71372549 0.60000000
v -5.12894727 1.98074271 24.63205487 0.54509804 0.71372549 0.60000000
v -4.17848749 2.72781543 26.63211402 0.54509804 0.71372549 0.60000000
v -0.62861677 2.49044839 29.85653937 0.54509804 0.71372549 0.60000000
v 1.70500596 1.77410546 29.87604667 0.54509804 0.71372549 0.60000000
v 3.25508432 3.83094135 26.66702110 0.54509804 0.71372549 0.60000000
v 3.89403983 3.99095389 24.63205487 0.54509804 0.71372549 0.60000000
v -5.52550352 -0.01993188 24.63205487 0.54509804 0.71372549 0.60000000
v -4.88548473 -1.00755256 26.65572886 0.54509804 0.71372549 0.60000000
v -2.34773666 0.25982332 29.87245345 0.54509804 0.71372549 0.60000000
v 2.43114002 -0.68964836 29.86321324 0.54509804 0.71372549 0.60000000
v 4.64994219 2.01147251 26.65983465 0.54509804 0.71372549 0.60000000
v 5.11347733 2.12485860 24.63205487 0.54509804 0.71372549 0.60000000
v -5.15127327 -2.08418696 24.63205487 0.54509804 0.71372549 0.60000000
v -3.62139501 -3.50839536 26.63519293 0.54509804 0.71372549 0.60000000
v -0.99859430 -2.43811926 29.84935293 0.54509804 0.71372549 0.60000000
v 0.99907178 -2.43811926 29.84935293 0.54509804 0.71372549 0.60000000
v 4.45219559 -2.38831453 26.63006026 0.54509804 0.71372549 0.60000000
v 5.06350915 -0.14391458 26.62646703 0.54509804 0.71372549 0.60000000
v 5.33567648 -1.00225426 24.63205487 0.54509804 0.71372549 0.60000000
v -4.02751990 -3.81676209 24.63205487 0.54509804 0.71372549 0.60000000
v -2.04473775 -4.66026687 26.66394219 0.54509804 0.71372549 0.60000000
v 0.57699974 -4.96651445 26.64135423 0.54509804 0.71372549 0.60000000
v 2.96378016 -4.10393561 26.63314091 0.54509804 0.71372549 0.60000000
v 3.74094568 -3.95028138 24.63205487 0.54509804 0.71372549 0.60000000
v -2.17869508 -5.11063035 24.63205487 0.54509804 0.71372549 0.60000000
v -0.00879806 -5.51012996 24.63205487 0.54509804 0.71372549 0.60000000
v 1.99843645 -5.11380950 24.63205487 0.54509804 0.71372549 0.60000000
f 1 2 3
f 1 3 4
f 1 4 5
f 1 5 11
f 1 11 17
f 1 17 24
f 1 24 29
f 1 29 32
f 1 32 31
f 1 31 30
f 1 30 25
f 1 25 18
f 1 18 12
f 1 12 6
f 1 6 2
f 2 6 7
f 2 7 3
f 3 8 4
f 3 7 8
f 4 9 10
f 4 10 5
f 4 8 9
f 5 10 11
f 6 12 7
f 7 12 13
f 7 13 14
f 7 14 8
f 8 14 9
f 9 15 16
f 9 16 10
f 9 14 15
f 10 16 11
f 11 16 17
f 12 18 13
f 13 18 19
f 13 19 20
f 13 20 14
f 14 20 21
f 14 21 15
f 15 21 22
f 15 22 23
f 15 23 16
f 16 23 17
f 17 23 24
f 18 25 19
f 19 25 26
f 19 26 20
f 20 26 27
f 20 27 21
f 21 27 28
f 21 28 22
f 22 29 24
f 22 24 23
f 22 28 29
f 25 30 26
f 26 30 31
f 26 31 27
f 27 32 28
f 27 31 32
f 28 32 29

o geometry_1
v 16.87568504 -13.55060509 -19.00948687 0.54117647 0.42352941 0.64313725
v 16.83603930 -13.55060509 -17.23269211 0.54117647 0.42352941 0.64313725
v 16.84264693 -22.58692163 -15.99174236 0.54117647 0.42352941 0.64313725
v 16.84925455 -42.67409790 -19.00948687 0.54117647 0.42352941 0.64313725
v -15.96053986 -13.55060509 -19.00948687 0.54117647 0.42352941 0.64313725
v 16.63450858 -13.55060509 -16.94881891 0.54117647 0.42352941 0.64313725
v 16.81952025 -42.72622488 -15.99174236 0.54117647 0.42352941 0.64313725
v 11.52356882 -13.55060509 -15.99174236 0.54117647 0.42352941 0.64313725
v 16.59486459 -43.07884699 -19.00948687 0.54117647 0.42352941 0.64313725
v -16.87568504 -42.57904229 -19.00948687 0.54117647 0.42352941 0.64313725
v -16.87568504 -13.55367179 -18.97699445 0.54117647 0.42352941 0.64313725
v -16.87568504 -13.55060509 -17.34553251 0.54117647 0.42352941 0.64313725
v 16.49905407 -43.17390086 -15.99174236 0.54117647 0.42352941 0.64313725
v -11.51365739 -13.55367179 -15.99174236 0.54117647 0.42352941 0.64313725
v -16.71380004 -13.55060509 -17.02975617 0.54117647 0.42352941 0.64313725
v 15.15111490 -44.52612889 -19.00948687 0.54117647 0.42352941 0.64313725
v -16.87568504 -42.57904229 -15.99174236 0.54117647 0.42352941 0.64313725
v -16.75674959 -42.89180422 -19.00948687 0.54117647 0.42352941 0.64313725
v -16.84264693 -22.58998790 -15.99174236 0.54117647 0.42352941 0.64313725
v 15.24031605 -44.43107328 -15.99174236 0.54117647 0.42352941 0.64313725
v 14.65885229 -44.84502074 -15.99174236 0.54117647 0.42352941 0.64313725
v 14.65224467 -44.84502074 -19.00948687 0.54117647 0.42352941 0.64313725
v -16.67745812 -42.98072642 -15.99174236 0.54117647 0.42352941 0.64313725
v -16.48914264 -43.18616593 -19.00948687 0.54117647 0.42352941 0.64313725
v -14.51018167 -44.87568429 -19.00948687 0.54117647 0.42352941 0.64313725
v -14.62251037 -44.86035252 -15.99174236 0.54117647 0.42352941 0.64313725
v -15.22379699 -44.45253846 -15.99174236 0.54117647 0.42352941 0.64313725
v -15.34603626 -44.32988775 -19.00948687 0.54117647 0.42352941 0.64313725
v -14.92315368 -44.72543673 -19.00948687 0.54117647 0.42352941 0.64313725
v -14.94297655 -44.73156840 -15.99174236 0.54117647 0.42352941 0.64313725
f 33 34 35
f 33 35 36
f 33 36 41
f 33 41 48
f 33 48 54
f 33 54 57
f 33 57 61
f 33 61 60
f 33 60 56
f 33 56 50
f 33 50 42
f 33 42 37
f 33 37 44
f 33 44 47
f 33 47 40
f 33 40 38
f 33 38 34
f 34 38 35
f 35 39 36
f 35 38 40
f 35 40 46
f 35 46 51
f 35 51 49
f 35 49 55
f 35 55 59
f 35 59 62
f 35 62 58
f 35 58 53
f 35 53 52
f 35 52 45
f 35 45 39
f 36 39 41
f 37 42 43
f 37 43 44
f 39 45 41
f 40 47 46
f 41 45 48
f 42 49 44
f 42 44 43
f 42 50 49
f 44 49 51
f 44 51 47
f 45 52 48
f 46 47 51
f 48 52 53
f 48 53 54
f 49 50 55
f 50 56 55
f 53 57 54
f 53 58 57
f 55 56 59
f 56 60 59
f 57 58 61
f 58 62 61
f 59 60 62
f 60 61 62

o geometry_2
v -0.11712339 13.10157087 23.29637378 0.43529412 0.89019608 0.96078431
v 3.86607381 12.56011200 23.30998304 0.43529412 0.89019608 0.96078431
v 6.89721445 11.53621653 22.14903957 0.43529412 0.89019608 0.96078431
v -4.26500027 12.39587685 23.30998304 0.43529412 0.89019608 0.96078431
v -0.89678020 5.31329072 24.63181078 0.43529412 0.89019608 0.96078431
v 2.97834569 4.51778360 24.63181078 0.43529412 0.89019608 0.96078431
v 9.13583317 9.44736767 23.31921802 0.43529412 0.89019608 0.96078431
v 6.79686272 -11.22044204 23.31581484 0.43529412 0.89019608 0.96078431
v 0.94815027 -13.11169860 23.28689472 0.43529412 0.89019608 0.96078431
v -11.91232713 6.09083521 22.14903957 0.43529412 0.89019608 0.96078431
v 11.81960162 5.96509513 22.73157728 0.43529412 0.89019608 0.96078431
v 9.53724010 -8.97505705 23.31241339 0.43529412 0.89019608 0.96078431
v -7.40163926 10.83052251 23.29831772 0.43529412 0.89019608 0.96078431
v -12.10016491 4.41000439 24.46995369 0.43529412 0.89019608 0.96078431
v -3.95622557 3.78129701 24.63181078 0.43529412 0.89019608 0.96078431
v 5.31731592 1.12789398 24.63181078 0.43529412 0.89019608 0.96078431
v 13.11902969 1.21514249 23.28349328 0.43529412 0.89019608 0.96078431
v 4.50678170 -2.85991044 24.63181078 0.43529412 0.89019608 0.96078431
v 1.01505146 -5.30802216 24.63181078 0.43529412 0.89019608 0.96078431
v 4.12595908 -12.44193243 23.34473670 0.43529412 0.89019608 0.96078431
v -2.74942995 -12.86021495 23.32091962 0.43529412 0.89019608 0.96078431
v -13.16801152 -1.17138148 22.71869677 0.43529412 0.89019608 0.96078431
v -13.01362418 2.02091496 23.28349328 0.43529412 0.89019608 0.96078431
v -10.06482384 8.34391922 23.31751643 0.43529412 0.89019608 0.96078431
v 12.99037372 -2.21067411 23.26453690 0.43529412 0.89019608 0.96078431
v 11.64462952 -5.90337063 23.34425028 0.43529412 0.89019608 0.96078431
v -11.63442955 -6.01371443 23.33938958 0.43529412 0.89019608 0.96078431
v -9.10762089 -9.52421407 23.30512235 0.43529412 0.89019608 0.96078431
v -4.58921396 -2.94972616 24.63181078 0.43529412 0.89019608 0.96078431
v -5.32512783 0.97905686 24.63181078 0.43529412 0.89019608 0.96078431
v -2.17819624 -5.11042811 24.63181078 0.43529412 0.89019608 0.96078431
v -6.15367392 -11.56430687 23.34400620 0.43529412 0.89019608 0.96078431
f 63 64 65
f 63 65 66
f 63 66 67
f 63 67 64
f 64 67 68
f 64 68 69
f 64 69 65
f 65 70 71
f 65 71 72
f 65 72 66
f 65 69 73
f 65 73 74
f 65 74 70
f 66 72 75
f 66 75 76
f 66 76 67
f 67 76 77
f 67 77 92
f 67 92 91
f 67 91 93
f 67 93 81
f 67 81 80
f 67 80 78
f 67 78 68
f 68 78 69
f 69 79 73
f 69 78 79
f 70 74 80
f 70 80 81
f 70 81 82
f 70 82 71
f 71 82 81
f 71 81 83
f 71 83 72
f 72 84 85
f 72 85 76
f 72 76 86
f 72 86 75
f 72 83 84
f 73 79 87
f 73 87 74
f 74 88 80
f 74 87 88
f 75 86 76
f 76 85 84
f 76 84 89
f 76 89 90
f 76 90 91
f 76 91 92
f 76 92 77
f 78 80 87
f 78 87 79
f 80 88 87
f 81 93 83
f 83 93 94
f 83 94 84
f 84 94 90
f 84 90 89
f 90 94 93
f 90 93 91

o geometry_3
v 16.87568504 -13.55060509 -19.00979197 0.38039216 0.78823529 0.52549020
v 16.72040766 -42.87721689 -19.00979197 0.38039216 0.78823529 0.52549020
v 16.81291263 -42.68449923 -21.47530143 0.38039216 0.78823529 0.52549020
v 16.86577360 -13.55060509 -21.34383591 0.38039216 0.78823529 0.52549020
v -15.96053986 -13.55060509 -19.00979197 0.38039216 0.78823529 0.52549020
v 16.00018385 -43.67561463 -19.00979197 0.38039216 0.78823529 0.52549020
v 15.81517218 -43.82550652 -21.55064227 0.38039216 0.78823529 0.52549020
v 16.38672625 -43.12499574 -21.72755742 0.38039216 0.78823529 0.52549020
v 16.35038432 -42.52543163 -22.03044628 0.38039216 0.78823529 0.52549020
v 16.65433145 -23.75848132 -21.80594753 0.38039216 0.78823529 0.52549020
v 16.34047289 -13.55060509 -21.98347288 0.38039216 0.78823529 0.52549020
v -16.84264693 -13.55060509 -21.39325011 0.38039216 0.78823529 0.52549020
v -16.87568504 -13.55366482 -19.08818382 0.38039216 0.78823529 0.52549020
v -16.65102763 -42.95981042 -19.00979197 0.38039216 0.78823529 0.52549020
v 14.90002701 -44.68508491 -19.00979197 0.38039216 0.78823529 0.52549020
v 15.21388556 -44.30576906 -21.67295824 0.38039216 0.78823529 0.52549020
v 15.57399747 -43.52878246 -22.04508765 0.38039216 0.78823529 0.52549020
v 15.65328719 -43.03322650 -22.12530836 0.38039216 0.78823529 0.52549020
v 0.00000000 -13.56284052 -22.12591857 0.38039216 0.78823529 0.52549020
v -16.41315673 -13.55060509 -21.95632584 0.38039216 0.78823529 0.52549020
v -16.65433145 -23.75848132 -21.80594753 0.38039216 0.78823529 0.52549020
v -16.81291263 -42.68449923 -21.47530143 0.38039216 0.78823529 0.52549020
v -15.95062843 -43.72455984 -19.00979197 0.38039216 0.78823529 0.52549020
v -15.81517218 -43.82550652 -21.55064227 0.38039216 0.78823529 0.52549020
v -14.71501534 -44.80132675 -19.00979197 0.38039216 0.78823529 0.52549020
v -15.09164630 -44.29047389 -21.81448862 0.38039216 0.78823529 0.52549020
v -15.57399747 -43.52878246 -22.04508765 0.38039216 0.78823529 0.52549020
v -15.65328719 -43.03322650 -22.12530836 0.38039216 0.78823529 0.52549020
v -16.35038432 -42.52543163 -22.03044628 0.38039216 0.78823529 0.52549020
v -16.38672625 -43.12499574 -21.72755742 0.38039216 0.78823529 0.52549020
v -15.33942863 -44.32106422 -21.53173122 0.38039216 0.78823529 0.52549020
v -15.34603626 -44.32718194 -19.00979197 0.38039216 0.78823529 0.52549020
f 95 96 97
f 95 97 98
f 95 98 105
f 95 105 114
f 95 114 106
f 95 106 99
f 95 99 108
f 95 108 117
f 95 117 126
f 95 126 119
f 95 119 109
f 95 109 100
f 95 100 96
f 96 100 101
f 96 101 97
f 97 101 102
f 97 102 103
f 97 103 104
f 97 104 98
f 98 104 105
f 99 106 107
f 99 107 108
f 100 109 101
f 101 109 110
f 101 110 102
f 102 110 111
f 102 111 103
f 103 105 104
f 103 111 112
f 103 112 105
f 105 112 113
f 105 113 114
f 106 114 115
f 106 115 116
f 106 116 107
f 107 116 108
f 108 116 118
f 108 118 117
f 109 119 110
f 110 119 120
f 110 120 111
f 111 120 121
f 111 121 122
f 111 122 112
f 112 122 113
f 113 122 114
f 114 122 123
f 114 123 115
f 115 123 116
f 116 123 124
f 116 124 118
f 117 118 125
f 117 125 126
f 118 124 125
f 119 126 125
f 119 125 120
f 120 125 124
f 120 124 121
f 121 124 123
f 121 123 122

o geometry_4
v 11.52481277 -13.55060356 -8.90174662 0.56470588 0.92549020 0.07058824
v 11.52481277 -22.19102091 -8.90174662 0.56470588 0.92549020 0.07058824
v 11.52481277 -13.55060356 -15.99174236 0.56470588 0.92549020 0.07058824
v -11.51352925 -13.55060356 -8.90174662 0.56470588 0.92549020 0.07058824
v 11.52481277 -22.19102091 -15.98896681 0.56470588 0.92549020 0.07058824
v -11.52481277 -22.19102091 -8.90174662 0.56470588 0.92549020 0.07058824
v 11.52481277 -22.01256281 -15.99174236 0.56470588 0.92549020 0.07058824
v -11.50675949 -13.55060356 -15.99174236 0.56470588 0.92549020 0.07058824
v -11.52481277 -13.55060356 -9.11203113 0.56470588 0.92549020 0.07058824
v -11.52481277 -13.55144957 -8.90174662 0.56470588 0.92549020 0.07058824
v 11.49321909 -22.19102091 -15.99174236 0.56470588 0.92549020 0.07058824
v -11.52481277 -22.19102091 -15.99174236 0.56470588 0.92549020 0.07058824
v -11.52481277 -13.55144957 -15.99174236 0.56470588 0.92549020 0.07058824
v -11.52481277 -13.55060356 -15.97369780 0.56470588 0.92549020 0.07058824
f 127 128 131
f 127 131 133
f 127 133 129
f 127 129 134
f 127 134 140
f 127 140 135
f 127 135 130
f 127 130 136
f 127 136 132
f 127 132 128
f 128 132 138
f 128 138 137
f 128 137 131
f 129 133 137
f 129 137 138
f 129 138 139
f 129 139 134
f 130 135 136
f 131 137 133
f 132 136 135
f 132 135 140
f 132 140 139
f 132 139 138
f 134 139 140

o geometry_5
v -11.52687263 -22.19102091 -8.90174836 0.08627451 0.01960784 0.83137255
v -16.42306817 -22.19102091 -8.59194155 0.08627451 0.01960784 0.83137255
v -11.52026501 -13.55144935 -8.90174836 0.08627451 0.01960784 0.83137255
v 11.52687263 -22.19102091 -8.90174836 0.08627451 0.01960784 0.83137255
v -16.78317833 -22.19102091 -8.42185020 0.08627451 0.01960784 0.83137255
v -16.56843410 -13.55060335 -8.51904501 0.08627451 0.01960784 0.83137255
v 11.52687263 -13.55060335 -8.90174836 0.08627451 0.01960784 0.83137255
v 16.44949691 -22.19102091 -8.58890274 0.08627451 0.01960784 0.83137255
v -16.87568504 -22.19102091 -8.20316233 0.08627451 0.01960784 0.83137255
v -16.82612787 -13.55060335 -8.30643301 0.08627451 0.01960784 0.83137255
v 16.56513029 -13.55060335 -8.52208208 0.08627451 0.01960784 0.83137255
v 16.77326864 -22.19102091 -8.44311140 0.08627451 0.01960784 0.83137255
v -16.87238123 -22.19102091 21.38646595 0.08627451 0.01960784 0.83137255
v -16.87238123 -13.55060335 21.38646595 0.08627451 0.01960784 0.83137255
v 16.77657071 -13.55060335 -8.41881314 0.08627451 0.01960784 0.83137255
v 16.87568504 -13.55060335 -8.20316233 0.08627451 0.01960784 0.83137255
v 16.87568504 -22.19102091 -8.20316233 0.08627451 0.01960784 0.83137255
v -16.72701529 -22.19102091 21.78739344 0.08627451 0.01960784 0.83137255
v -16.72701529 -13.55060335 21.78739344 0.08627451 0.01960784 0.83137255
v 16.87238123 -13.55060335 21.38646595 0.08627451 0.01960784 0.83137255
v 16.87238123 -22.19102091 21.38646595 0.08627451 0.01960784 0.83137255
v -16.45610453 -22.19102091 22.03645371 0.08627451 0.01960784 0.83137255
v -16.39003006 -13.55060335 22.08505198 0.08627451 0.01960784 0.83137255
v 16.72701529 -13.55060335 21.78435637 0.08627451 0.01960784 0.83137255
v 16.73031910 -22.19102091 21.77220637 0.08627451 0.01960784 0.83137255
v -16.10920961 -22.19102091 22.12453732 0.08627451 0.01960784 0.83137255
v -16.10920961 -13.55060335 22.12453732 0.08627451 0.01960784 0.83137255
v 16.40654911 -22.19102091 22.08201492 0.08627451 0.01960784 0.83137255
v 16.39663768 -13.55060335 22.08201492 0.08627451 0.01960784 0.83137255
v 0.00000000 -13.55060335 22.12757438 0.08627451 0.01960784 0.83137255
v 16.10920961 -22.19102091 22.12453732 0.08627451 0.01960784 0.83137255
v 16.11581723 -13.55060335 22.12453732 0.08627451 0.01960784 0.83137255
f 141 142 143
f 141 143 147
f 141 147 144
f 141 144 148
f 141 148 152
f 141 152 157
f 141 157 161
f 141 161 165
f 141 165 168
f 141 168 171
f 141 171 166
f 141 166 162
f 141 162 158
f 141 158 153
f 141 153 149
f 141 149 145
f 141 145 142
f 142 145 146
f 142 146 143
f 143 146 147
f 144 147 148
f 145 149 150
f 145 150 146
f 146 150 154
f 146 154 159
f 146 159 163
f 146 163 167
f 146 167 170
f 146 170 172
f 146 172 169
f 146 169 164
f 146 164 160
f 146 160 156
f 146 156 155
f 146 155 151
f 146 151 147
f 147 151 148
f 148 151 152
f 149 153 154
f 149 154 150
f 151 155 152
f 152 155 156
f 152 156 157
f 153 158 159
f 153 159 154
f 156 160 161
f 156 161 157
f 158 162 159
f 159 162 163
f 160 164 161
f 161 164 165
f 162 166 163
f 163 166 167
f 164 168 165
f 164 169 168
f 166 170 167
f 166 171 170
f 168 169 172
f 168 172 171
f 170 171 172

o geometry_6
v 16.87568504 -22.19261092 -8.20110071 0.77647059 0.86666667 0.97647059
v 16.87568504 -22.70004316 -15.98800966 0.77647059 0.86666667 0.97647059
v 16.80630501 -22.46621092 -15.98800966 0.77647059 0.86666667 0.97647059
v 16.64111620 -22.28964359 -15.98800966 0.77647059 0.86666667 0.97647059
v 16.33716908 -22.21010891 -15.98800966 0.77647059 0.86666667 0.97647059
v 16.77326864 -22.19261092 -8.44362485 0.77647059 0.86666667 0.97647059
v 16.87238123 -22.19261092 21.38318655 0.77647059 0.86666667 0.97647059
v 16.87238123 -38.44317657 21.38318655 0.77647059 0.86666667 0.97647059
v 16.82282406 -38.33819035 -15.98800966 0.77647059 0.86666667 0.97647059
v 11.50704977 -22.19261092 -15.98800966 0.77647059 0.86666667 0.97647059
v 16.73692672 -22.19261092 21.76376291 0.77647059 0.86666667 0.97647059
v 16.65433145 -38.44317657 21.86077291 0.77647059 0.86666667 0.97647059
v -16.87568504 -38.44317657 -15.98800966 0.77647059 0.86666667 0.97647059
v -11.52356882 -22.19261092 -15.98800966 0.77647059 0.86666667 0.97647059
v 16.39333387 -22.19261092 22.08464228 0.77647059 0.86666667 0.97647059
v 16.39333387 -38.44317657 22.08464228 0.77647059 0.86666667 0.97647059
v -16.87568504 -22.19261092 -8.20110071 0.77647059 0.86666667 0.97647059
v -16.84264693 -22.59028515 -15.98800966 0.77647059 0.86666667 0.97647059
v -16.87568504 -38.44317657 21.26752004 0.77647059 0.86666667 0.97647059
v -16.33716908 -22.21010891 -15.98800966 0.77647059 0.86666667 0.97647059
v -16.78317833 -22.19261092 -8.42123826 0.77647059 0.86666667 0.97647059
v 16.10920961 -22.19261092 22.12195355 0.77647059 0.86666667 0.97647059
v 16.10920961 -38.44317657 22.12195355 0.77647059 0.86666667 0.97647059
v -16.63450858 -22.28646182 -15.98800966 0.77647059 0.86666667 0.97647059
v -16.87238123 -22.19261092 21.38318655 0.77647059 0.86666667 0.97647059
v -16.86577360 -38.44317657 21.51004592 0.77647059 0.86666667 0.97647059
v -16.10920961 -22.19261092 22.12195355 0.77647059 0.86666667 0.97647059
v -16.10920961 -38.44317657 22.12195355 0.77647059 0.86666667 0.97647059
v -16.72701529 -22.19261092 21.78615037 0.77647059 0.86666667 0.97647059
v -16.72701529 -38.44317657 21.78615037 0.77647059 0.86666667 0.97647059
v -16.46601596 -22.19261092 22.03240719 0.77647059 0.86666667 0.97647059
v -16.39333387 -38.44317657 22.08464228 0.77647059 0.86666667 0.97647059
f 173 174 175
f 173 175 176
f 173 176 177
f 173 177 178
f 173 178 182
f 173 182 186
f 173 186 193
f 173 193 189
f 173 189 197
f 173 197 201
f 173 201 203
f 173 203 199
f 173 199 194
f 173 194 187
f 173 187 183
f 173 183 179
f 173 179 180
f 173 180 174
f 174 181 185
f 174 185 190
f 174 190 196
f 174 196 192
f 174 192 186
f 174 186 182
f 174 182 177
f 174 177 176
f 174 176 175
f 174 180 181
f 177 182 178
f 179 183 180
f 180 183 184
f 180 184 188
f 180 188 195
f 180 195 200
f 180 200 204
f 180 204 202
f 180 202 198
f 180 198 191
f 180 191 185
f 180 185 181
f 183 187 184
f 184 187 188
f 185 189 190
f 185 191 189
f 186 192 193
f 187 194 195
f 187 195 188
f 189 193 192
f 189 192 196
f 189 196 190
f 189 191 197
f 191 198 197
f 194 199 200
f 194 200 195
f 197 198 201
f 198 202 201
f 199 203 204
f 199 204 200
f 201 202 203
f 202 204 203

o geometry_7
v 0.69129106 13.26228079 -22.16342685 0.79607843 0.45882353 0.78039216
v 2.85613760 13.05159703 -22.16342685 0.79607843 0.45882353 0.78039216
v 2.05863076 12.95405877 -24.20040151 0.79607843 0.45882353 0.78039216
v 0.47792894 12.85652050 -24.45745370 0.79607843 0.45882353 0.78039216
v -0.01774818 9.19166490 -24.60505995 0.79607843 0.45882353 0.78039216
v -0.01774818 4.61514926 -22.16342685 0.79607843 0.45882353 0.78039216
v 4.10898978 12.69655678 -22.16342685 0.79607843 0.45882353 0.78039216
v 3.29457074 12.54959734 -24.40105180 0.79607843 0.45882353 0.78039216
v 2.01830029 12.72776777 -24.52249606 0.79607843 0.45882353 0.78039216
v -0.01774818 5.11324714 -23.38988341 0.79607843 0.45882353 0.78039216
v 4.27031252 12.04759765 -24.55897920 0.79607843 0.45882353 0.78039216
v 10.47082821 7.11474115 -24.60266098 0.79607843 0.45882353 0.78039216
v 9.32335538 -0.02379185 -24.61538109 0.79607843 0.45882353 0.78039216
v 4.70744506 -0.02379185 -22.16342685 0.79607843 0.45882353 0.78039216
v 5.04179945 -0.02379185 -23.28787847 0.79607843 0.45882353 0.78039216
v 6.16195132 11.82260899 -22.16342685 0.79607843 0.45882353 0.78039216
v 5.70400302 11.59371853 -24.42385246 0.79607843 0.45882353 0.78039216
v 7.12858626 10.64304039 -24.47329456 0.79607843 0.45882353 0.78039216
v 9.92831542 8.34502979 -24.37752937 0.79607843 0.45882353 0.78039216
v 11.38802540 5.92867127 -24.52873756 0.79607843 0.45882353 0.78039216
v 12.81260864 0.26362227 -24.52153717 0.79607843 0.45882353 0.78039216
v 8.96037901 9.36073285 -24.39889169 0.79607843 0.45882353 0.78039216
v 13.27315901 0.77602504 -22.16342685 0.79607843 0.45882353 0.78039216
v 7.53319370 10.97337267 -22.16342685 0.79607843 0.45882353 0.78039216
v 10.46692465 8.20587397 -22.16342685 0.79607843 0.45882353 0.78039216
v 11.39583077 6.88845189 -22.16342685 0.79607843 0.45882353 0.78039216
v 9.39490948 9.43356140 -22.16342685 0.79607843 0.45882353 0.78039216
v 12.13739511 5.51770683 -22.16342685 0.79607843 0.45882353 0.78039216
v 12.03071427 4.63985898 -24.47473463 0.79607843 0.45882353 0.78039216
v 12.56411934 2.91407366 -24.45841433 0.79607843 0.45882353 0.78039216
v 12.89457104 1.39117023 -24.40897223 0.79607843 0.45882353 0.78039216
v 12.83342439 3.63456073 -22.16342685 0.79607843 0.45882353 0.78039216
f 205 206 207
f 205 207 208
f 205 208 209
f 205 209 210
f 205 210 218
f 205 218 227
f 205 227 236
f 205 236 232
f 205 232 230
f 205 230 229
f 205 229 231
f 205 231 228
f 205 228 220
f 205 220 211
f 205 211 206
f 206 211 207
f 207 211 212
f 207 212 213
f 207 213 208
f 208 213 209
f 209 214 210
f 209 213 215
f 209 215 216
f 209 216 217
f 209 217 214
f 210 214 219
f 210 219 218
f 211 220 221
f 211 221 212
f 212 221 215
f 212 215 213
f 214 217 219
f 215 221 222
f 215 222 216
f 216 223 224
f 216 224 225
f 216 225 217
f 216 222 226
f 216 226 223
f 217 225 218
f 217 218 219
f 218 225 227
f 220 228 221
f 221 228 222
f 222 228 226
f 223 229 230
f 223 230 224
f 223 226 231
f 223 231 229
f 224 230 232
f 224 232 233
f 224 233 234
f 224 234 225
f 225 234 235
f 225 235 227
f 226 228 231
f 227 235 236
f 232 236 233
f 233 236 234
f 234 236 235

o geometry_8
v 9.32350968 -0.02509245 -24.61532356 0.11764706 0.63921569 0.14117647
v 13.28078654 -0.27944754 -22.16366744 0.11764706 0.63921569 0.14117647
v 12.99440454 -0.56479046 -24.35145803 0.11764706 0.63921569 0.14117647
v 12.73926491 -1.94244127 -24.49628350 0.11764706 0.63921569 0.14117647
v 10.73328940 -6.92109434 -24.56737036 0.11764706 0.63921569 0.14117647
v 7.99704004 -9.78614351 -24.62496302 0.11764706 0.63921569 0.14117647
v -0.01774818 -9.13282405 -24.60496232 0.11764706 0.63921569 0.14117647
v 5.06422919 -0.02509245 -23.34853086 0.11764706 0.63921569 0.14117647
v 4.70755316 -0.02509245 -22.16366744 0.11764706 0.63921569 0.14117647
v 13.26256241 -1.41178124 -22.16366744 0.11764706 0.63921569 0.14117647
v 13.00351748 -3.14320569 -22.16366744 0.11764706 0.63921569 0.14117647
v 12.23158684 -3.98374140 -24.50760886 0.11764706 0.63921569 0.14117647
v 11.64971164 -5.37946816 -24.51267006 0.11764706 0.63921569 0.14117647
v 11.11079295 -7.41818452 -22.16366744 0.11764706 0.63921569 0.14117647
v 9.18422310 -9.19092579 -24.37170106 0.11764706 0.63921569 0.14117647
v 9.86372984 -8.16575761 -24.51556067 0.11764706 0.63921569 0.14117647
v 8.16105900 -10.15541064 -24.35266274 0.11764706 0.63921569 0.14117647
v 6.37117191 -11.19994621 -24.45748682 0.11764706 0.63921569 0.14117647
v 4.64767354 -11.96817727 -24.54038197 0.11764706 0.63921569 0.14117647
v 0.61619692 -12.87456037 -24.48013754 0.11764706 0.63921569 0.14117647
v -0.01774818 -13.21542257 -22.16366744 0.11764706 0.63921569 0.14117647
v -0.01774818 -5.05280843 -23.34684321 0.11764706 0.63921569 0.14117647
v -0.01774818 -4.71065478 -22.16366744 0.11764706 0.63921569 0.14117647
v 12.66636749 -4.29490635 -22.16366744 0.11764706 0.63921569 0.14117647
v 11.98295546 -5.89592529 -22.16366744 0.11764706 0.63921569 0.14117647
v 10.38442352 -8.40461878 -22.16366744 0.11764706 0.63921569 0.14117647
v 9.10091215 -9.74740873 -22.16366744 0.11764706 0.63921569 0.14117647
v 7.30581828 -11.14184490 -22.16366744 0.11764706 0.63921569 0.14117647
v 5.92858154 -11.93202495 -22.16366744 0.11764706 0.63921569 0.14117647
v 3.63882806 -12.84099052 -22.16366744 0.11764706 0.63921569 0.14117647
v 3.09209900 -12.52724267 -24.45242563 0.11764706 0.63921569 0.14117647
v 2.13662467 -13.18185271 -22.16366744 0.11764706 0.63921569 0.14117647
f 237 238 239
f 237 239 240
f 237 240 241
f 237 241 242
f 237 242 243
f 237 243 244
f 237 244 245
f 237 245 238
f 238 246 239
f 238 245 259
f 238 259 257
f 238 257 268
f 238 268 266
f 238 266 265
f 238 265 264
f 238 264 263
f 238 263 262
f 238 262 250
f 238 250 261
f 238 261 260
f 238 260 247
f 238 247 246
f 239 246 247
f 239 247 240
f 240 248 241
f 240 247 248
f 241 249 250
f 241 250 251
f 241 251 252
f 241 252 242
f 241 248 249
f 242 253 254
f 242 254 255
f 242 255 243
f 242 252 251
f 242 251 253
f 243 256 257
f 243 257 259
f 243 259 258
f 243 258 244
f 243 255 256
f 244 258 245
f 245 258 259
f 247 260 248
f 248 260 249
f 249 260 261
f 249 261 250
f 250 262 251
f 251 262 263
f 251 263 253
f 253 264 254
f 253 263 264
f 254 264 265
f 254 265 255
f 255 265 266
f 255 266 267
f 255 267 256
f 256 267 268
f 256 268 257
f 266 268 267

o geometry_9
v -13.27983724 0.02646792 -22.16342685 0.94117647 0.52156863 0.41176471
v -13.25517198 -1.46004477 -22.16342685 0.94117647 0.52156863 0.41176471
v -4.57561690 0.67928353 -22.16342685 0.94117647 0.52156863 0.41176471
v -9.15685377 0.67928353 -24.60507739 0.94117647 0.52156863 0.41176471
v -12.91245608 0.14071178 -24.43299504 0.94117647 0.52156863 0.41176471
v -12.71513401 -1.80685252 -24.53218085 0.94117647 0.52156863 0.41176471
v -13.00462543 -3.04312114 -22.16342685 0.94117647 0.52156863 0.41176471
v -0.01904529 -4.71051879 -22.16342685 0.94117647 0.52156863 0.41176471
v -0.01904529 -5.16340938 -23.46670792 0.94117647 0.52156863 0.41176471
v -5.04555394 0.67928353 -23.37875506 0.94117647 0.52156863 0.41176471
v -10.76398695 -6.95456918 -24.52811864 0.94117647 0.52156863 0.41176471
v -0.01904529 -9.13197892 -24.60507739 0.94117647 0.52156863 0.41176471
v -4.44060785 -11.99756419 -24.55512621 0.94117647 0.52156863 0.41176471
v -11.54808066 -5.48573580 -24.51760224 0.94117647 0.52156863 0.41176471
v -12.30880710 -3.90130042 -24.46884531 0.94117647 0.52156863 0.41176471
v -12.66839947 -4.18826648 -22.16342685 0.94117647 0.52156863 0.41176471
v -0.06707739 -13.21479145 -22.16342685 0.94117647 0.52156863 0.41176471
v -11.57404391 -6.58328098 -22.16342685 0.94117647 0.52156863 0.41176471
v -7.99888721 -10.01055901 -24.50493443 0.94117647 0.52156863 0.41176471
v -9.17502822 -9.19726057 -24.38017590 0.94117647 0.52156863 0.41176471
v -10.22524696 -8.01403336 -24.36440130 0.94117647 0.52156863 0.41176471
v -0.51884041 -12.89926443 -24.44088234 0.94117647 0.52156863 0.41176471
v -2.15323438 -12.70069972 -24.49681002 0.94117647 0.52156863 0.41176471
v -3.54487125 -12.83262290 -22.16342685 0.94117647 0.52156863 0.41176471
v -5.43111042 -12.10772667 -22.16342685 0.94117647 0.52156863 0.41176471
v -6.75783852 -10.92993986 -24.46119860 0.94117647 0.52156863 0.41176471
v -12.21274292 -5.33205280 -22.16342685 0.94117647 0.52156863 0.41176471
v -2.05197737 -13.17807076 -22.16342685 0.94117647 0.52156863 0.41176471
v -10.93145093 -7.60738392 -22.16342685 0.94117647 0.52156863 0.41176471
v -8.90111527 -9.87727595 -22.16342685 0.94117647 0.52156863 0.41176471
v -9.95263112 -8.82189185 -22.16342685 0.94117647 0.52156863 0.41176471
v -7.31605138 -11.06322292 -22.16342685 0.94117647 0.52156863 0.41176471
f 269 270 275
f 269 275 284
f 269 284 295
f 269 295 286
f 269 286 297
f 269 297 299
f 269 299 298
f 269 298 300
f 269 300 293
f 269 293 292
f 269 292 296
f 269 296 285
f 269 285 276
f 269 276 271
f 269 271 272
f 269 272 273
f 269 273 270
f 270 273 274
f 270 274 275
f 271 276 277
f 271 277 278
f 271 278 272
f 272 279 274
f 272 274 273
f 272 278 280
f 272 280 281
f 272 281 279
f 274 279 282
f 274 282 283
f 274 283 275
f 275 283 284
f 276 285 280
f 276 280 277
f 277 280 278
f 279 286 282
f 279 281 287
f 279 287 288
f 279 288 289
f 279 289 286
f 280 285 290
f 280 290 291
f 280 291 281
f 281 291 292
f 281 292 293
f 281 293 294
f 281 294 287
f 282 286 295
f 282 295 283
f 283 295 284
f 285 296 290
f 286 289 297
f 287 294 288
f 288 298 299
f 288 299 289
f 288 294 300
f 288 300 298
f 289 299 297
f 290 296 291
f 291 296 292
f 293 300 294

o geometry_10
v -0.72343871 13.26231915 -22.16342685 0.26274510 0.77254902 0.45490196
v -1.81181080 12.88180207 -24.39571166 0.26274510 0.77254902 0.45490196
v -3.41258653 12.92982849 -22.16342685 0.26274510 0.77254902 0.45490196
v -0.01774818 4.61511090 -22.16342685 0.26274510 0.77254902 0.45490196
v -0.01774818 9.19239192 -24.60507739 0.26274510 0.77254902 0.45490196
v -0.53404404 12.90889332 -24.42869398 0.26274510 0.77254902 0.45490196
v -3.13887190 12.44833335 -24.49824312 0.26274510 0.77254902 0.45490196
v -4.79672554 12.48158242 -22.16342685 0.26274510 0.77254902 0.45490196
v -0.01774818 5.11507775 -23.39357252 0.26274510 0.77254902 0.45490196
v -4.57619747 0.68187428 -22.16342685 0.26274510 0.77254902 0.45490196
v -5.04319856 0.68187428 -23.37062891 0.26274510 0.77254902 0.45490196
v -4.22594643 11.98407905 -24.59169303 0.26274510 0.77254902 0.45490196
v -9.15799659 0.68187428 -24.60507739 0.26274510 0.77254902 0.45490196
v -6.03298109 11.31047820 -24.48438106 0.26274510 0.77254902 0.45490196
v -6.01871194 11.93851435 -22.16342685 0.26274510 0.77254902 0.45490196
v -13.27020040 1.17075810 -22.16342685 0.26274510 0.77254902 0.45490196
v -11.27506819 6.00048688 -24.56612031 0.26274510 0.77254902 0.45490196
v -10.28787989 7.69372399 -24.49537517 0.26274510 0.77254902 0.45490196
v -12.81357712 1.17568505 -24.48963927 0.26274510 0.77254902 0.45490196
v -7.52868169 10.55067664 -24.36320704 0.26274510 0.77254902 0.45490196
v -8.63651226 9.61970456 -24.41100682 0.26274510 0.77254902 0.45490196
v -7.68824007 10.92380504 -22.16342685 0.26274510 0.77254902 0.45490196
v -12.89011395 3.56591992 -22.16342685 0.26274510 0.77254902 0.45490196
v -12.56710410 2.91694859 -24.45402785 0.26274510 0.77254902 0.45490196
v -12.02745840 4.68653424 -24.47625491 0.26274510 0.77254902 0.45490196
v -11.96778582 5.95615479 -22.16342685 0.26274510 0.77254902 0.45490196
v -11.30230938 7.11863947 -22.16342685 0.26274510 0.77254902 0.45490196
v -9.63278125 8.71212938 -24.35818769 0.26274510 0.77254902 0.45490196
v -8.59370394 10.23050162 -22.16342685 0.26274510 0.77254902 0.45490196
v -9.43041368 9.46946746 -22.16342685 0.26274510 0.77254902 0.45490196
v -12.42959844 4.93282419 -22.16342685 0.26274510 0.77254902 0.45490196
v -10.39684725 8.38210221 -22.16342685 0.26274510 0.77254902 0.45490196
f 301 302 303
f 301 303 308
f 301 308 315
f 301 315 322
f 301 322 329
f 301 329 330
f 301 330 332
f 301 332 327
f 301 327 326
f 301 326 331
f 301 331 323
f 301 323 316
f 301 316 310
f 301 310 304
f 301 304 305
f 301 305 306
f 301 306 302
f 302 306 307
f 302 307 303
f 303 307 308
f 304 309 305
f 304 310 311
f 304 311 309
f 305 312 306
f 305 309 313
f 305 313 312
f 306 312 307
f 307 312 314
f 307 314 308
f 308 314 315
f 309 311 313
f 310 316 313
f 310 313 311
f 312 313 317
f 312 317 318
f 312 318 314
f 313 316 319
f 313 319 317
f 314 320 315
f 314 318 321
f 314 321 320
f 315 320 322
f 316 323 324
f 316 324 319
f 317 319 324
f 317 324 325
f 317 325 326
f 317 326 327
f 317 327 318
f 318 328 321
f 318 327 328
f 320 321 329
f 320 329 322
f 321 328 330
f 321 330 329
f 323 331 325
f 323 325 324
f 325 331 326
f 327 332 328
f 328 332 330

o geometry_11
v -16.76171489 -42.79522310 7.68680325 0.56470588 0.01568627 0.61568627
v -16.80796301 -42.67748190 21.51652627 0.56470588 0.01568627 0.61568627
v -16.87403226 -38.44318005 9.50579701 0.56470588 0.01568627 0.61568627
v -16.73198408 -39.24732764 7.68680325 0.56470588 0.01568627 0.61568627
v -15.31810641 -44.35592073 7.68680325 0.56470588 0.01568627 0.61568627
v -15.57247196 -44.10102344 21.38791126 0.56470588 0.01568627 0.61568627
v -16.09111449 -43.34697871 21.78082417 0.56470588 0.01568627 0.61568627
v -16.25958967 -42.57915387 22.09317639 0.56470588 0.01568627 0.61568627
v -16.79805332 -38.44318005 21.58719470 0.56470588 0.01568627 0.61568627
v -16.60314940 -38.44318005 8.96872069 0.56470588 0.01568627 0.61568627
v -13.87119500 -38.44318005 7.68680325 0.56470588 0.01568627 0.61568627
v -14.67062920 -44.84128979 7.68680325 0.56470588 0.01568627 0.61568627
v -14.89526394 -44.65778968 21.40911144 0.56470588 0.01568627 0.61568627
v -14.64750601 -44.25195791 22.06915011 0.56470588 0.01568627 0.61568627
v -16.24637617 -38.44318005 22.10589650 0.56470588 0.01568627 0.61568627
v -15.65175471 -43.03571439 22.12568450 0.56470588 0.01568627 0.61568627
v 13.87119500 -38.44318005 7.68680325 0.56470588 0.01568627 0.61568627
v 14.67723683 -44.83377558 7.68680325 0.56470588 0.01568627 0.61568627
v 14.89526394 -44.65778968 21.40911144 0.56470588 0.01568627 0.61568627
v 14.64750601 -44.25195791 22.06915011 0.56470588 0.01568627 0.61568627
v 15.65175471 -43.03571439 22.12568450 0.56470588 0.01568627 0.61568627
v 16.35869354 -38.44318005 22.01120178 0.56470588 0.01568627 0.61568627
v 16.74519758 -38.44318005 9.23725863 0.56470588 0.01568627 0.61568627
v 16.64609371 -39.11893928 7.68680325 0.56470588 0.01568627 0.61568627
v 15.31480260 -44.36093137 7.68680325 0.56470588 0.01568627 0.61568627
v 15.57247196 -44.10102344 21.38791126 0.56470588 0.01568627 0.61568627
v 16.09111449 -43.34697871 21.78082417 0.56470588 0.01568627 0.61568627
v 16.25958967 -42.57915387 22.09317639 0.56470588 0.01568627 0.61568627
v 16.80796301 -42.67748190 21.51652627 0.56470588 0.01568627 0.61568627
v 16.87403226 -38.44318005 21.38791126 0.56470588 0.01568627 0.61568627
v 16.73859170 -42.85659727 7.68680325 0.56470588 0.01568627 0.61568627
v 16.31244542 -43.36326066 7.68680325 0.56470588 0.01568627 0.61568627
f 333 334 335
f 333 335 336
f 333 336 343
f 333 343 349
f 333 349 356
f 333 356 363
f 333 363 364
f 333 364 357
f 333 357 350
f 333 350 344
f 333 344 337
f 333 337 338
f 333 338 334
f 334 338 339
f 334 339 340
f 334 340 341
f 334 341 335
f 335 341 347
f 335 347 354
f 335 354 362
f 335 362 355
f 335 355 349
f 335 349 343
f 335 343 342
f 335 342 336
f 336 342 343
f 337 344 345
f 337 345 338
f 338 345 339
f 339 345 346
f 339 346 340
f 340 347 341
f 340 346 348
f 340 348 347
f 344 350 351
f 344 351 345
f 345 351 352
f 345 352 346
f 346 352 353
f 346 353 348
f 347 348 353
f 347 353 354
f 349 355 356
f 350 357 351
f 351 357 358
f 351 358 359
f 351 359 352
f 352 359 360
f 352 360 353
f 353 360 354
f 354 360 361
f 354 361 362
f 355 362 363
f 355 363 356
f 357 364 358
f 358 364 361
f 358 361 359
f 359 361 360
f 361 364 363
f 361 363 362

o geometry_12
v -14.51018167 13.87299940 -19.26576845 0.61176471 0.61568627 0.94117647
v -14.95949560 13.69851634 -19.26576845 0.61176471 0.61568627 0.94117647
v -14.62251037 13.85957843 -16.78351678 0.61176471 0.61568627 0.94117647
v 14.65224467 13.84615746 -16.78351678 0.61176471 0.61568627 0.94117647
v 14.62251037 13.85957843 -19.26576845 0.61176471 0.61568627 0.94117647
v -15.06191200 13.60993062 -16.78351678 0.61176471 0.61568627 0.94117647
v -15.46166964 13.21264343 -19.26576845 0.61176471 0.61568627 0.94117647
v 15.10155773 13.57235086 -16.78351678 0.61176471 0.61568627 0.94117647
v 14.98592609 13.68509363 -19.26576845 0.61176471 0.61568627 0.94117647
v -15.46166964 13.21264343 -16.78351678 0.61176471 0.61568627 0.94117647
v -16.30743478 12.36706483 -19.26576845 0.61176471 0.61568627 0.94117647
v 15.75240152 12.92272922 -16.78351678 0.61176471 0.61568627 0.94117647
v 15.46166964 13.21264343 -19.26576845 0.61176471 0.61568627 0.94117647
v -16.65102763 12.01004055 -16.78351678 0.61176471 0.61568627 0.94117647
v -16.79308976 11.79797599 -19.26576845 0.61176471 0.61568627 0.94117647
v 16.78317833 11.81139696 -16.78351678 0.61176471 0.61568627 0.94117647
v 16.26118317 12.41269752 -19.26576845 0.61176471 0.61568627 0.94117647
v -16.87568504 11.57517186 -16.78351678 0.61176471 0.61568627 0.94117647
v -16.87568504 -13.54523618 -19.26576845 0.61176471 0.61568627 0.94117647
v 16.87238123 -11.38431194 -16.78351678 0.61176471 0.61568627 0.94117647
v 16.81952025 11.72818276 -19.26576845 0.61176471 0.61568627 0.94117647
v -16.86907741 -11.41383964 -16.78351678 0.61176471 0.61568627 0.94117647
v -16.87568504 -13.54523618 -17.34552205 0.61176471 0.61568627 0.94117647
v 16.87568504 -13.54523618 -19.26576845 0.61176471 0.61568627 0.94117647
v 16.72701529 -11.84065627 -16.78351678 0.61176471 0.61568627 0.94117647
v 16.48583883 -13.54523618 -16.91156517 0.61176471 0.61568627 0.94117647
v 16.83603930 -13.54523618 -17.23278102 0.61176471 0.61568627 0.94117647
v -16.71380004 -13.54523618 -17.02965157 0.61176471 0.61568627 0.94117647
v -16.33716908 -13.54523618 -16.87438989 0.61176471 0.61568627 0.94117647
v -16.63450858 -11.95608393 -16.78351678 0.61176471 0.61568627 0.94117647
v 11.52356882 -13.54523618 -16.78351678 0.61176471 0.61568627 0.94117647
v -11.52356882 -13.54523618 -16.78351678 0.61176471 0.61568627 0.94117647
f 365 366 367
f 365 367 368
f 365 368 369
f 365 369 373
f 365 373 377
f 365 377 381
f 365 381 385
f 365 385 388
f 365 388 383
f 365 383 379
f 365 379 375
f 365 375 371
f 365 371 366
f 366 370 367
f 366 371 370
f 367 370 374
f 367 374 378
f 367 378 382
f 367 382 386
f 367 386 394
f 367 394 396
f 367 396 395
f 367 395 389
f 367 389 384
f 367 384 380
f 367 380 376
f 367 376 372
f 367 372 368
f 368 372 373
f 368 373 369
f 370 371 374
f 371 375 374
f 372 376 377
f 372 377 373
f 374 375 378
f 375 379 378
f 376 380 381
f 376 381 377
f 378 379 382
f 379 383 382
f 380 384 385
f 380 385 381
f 382 383 387
f 382 387 386
f 383 388 391
f 383 391 390
f 383 390 395
f 383 395 396
f 383 396 393
f 383 393 392
f 383 392 387
f 384 388 385
f 384 389 390
f 384 390 391
f 384 391 388
f 386 387 392
f 386 392 393
f 386 393 394
f 389 395 390
f 393 396 394

o geometry_13
v 0.04955663 13.25754562 -22.16314441 0.67843137 0.35686275 0.43529412
v 15.83499505 12.78262497 -19.26605089 0.67843137 0.35686275 0.43529412
v 15.63016225 12.63306433 -21.76353496 0.67843137 0.35686275 0.43529412
v 3.47887545 12.87183659 -22.16314441 0.67843137 0.35686275 0.43529412
v -4.40723630 12.56746756 -22.16314441 0.67843137 0.35686275 0.43529412
v -15.63016225 12.63306433 -21.76353496 0.67843137 0.35686275 0.43529412
v -15.82177980 12.79049659 -19.26605089 0.67843137 0.35686275 0.43529412
v 16.87568504 -13.54529633 -19.26605089 0.67843137 0.35686275 0.43529412
v 16.68076193 -10.12639245 -21.77459706 0.67843137 0.35686275 0.43529412
v 13.26796183 -0.23177503 -22.16314441 0.67843137 0.35686275 0.43529412
v 12.83186401 3.63056304 -22.16314441 0.67843137 0.35686275 0.43529412
v 11.96297045 5.85560562 -22.16314441 0.67843137 0.35686275 0.43529412
v 10.16571734 8.51358691 -22.16314441 0.67843137 0.35686275 0.43529412
v 6.84211883 11.39722110 -22.16314441 0.67843137 0.35686275 0.43529412
v -8.29247658 10.44213207 -22.16314441 0.67843137 0.35686275 0.43529412
v -12.20084222 5.30196884 -22.16314441 0.67843137 0.35686275 0.43529412
v -13.26465802 0.41894497 -22.16314441 0.67843137 0.35686275 0.43529412
v -16.68076193 -10.12639245 -21.77459706 0.67843137 0.35686275 0.43529412
v -10.41019674 8.33778755 -22.16314441 0.67843137 0.35686275 0.43529412
v -16.87568504 -13.54529633 -19.26605089 0.67843137 0.35686275 0.43529412
v 16.62459715 -13.54529633 -21.67646603 0.67843137 0.35686275 0.43529412
v 12.40567676 -4.80518213 -22.16314441 0.67843137 0.35686275 0.43529412
v -12.83516783 -3.61132084 -22.16314441 0.67843137 0.35686275 0.43529412
v -11.68875763 -6.29554084 -22.16314441 0.67843137 0.35686275 0.43529412
v -16.60477602 -13.54529633 -21.66285329 0.67843137 0.35686275 0.43529412
v 0.00000000 -13.21468858 -22.16314441 0.67843137 0.35686275 0.43529412
v 2.88089221 -13.01002665 -22.16314441 0.67843137 0.35686275 0.43529412
v 6.61415849 -11.53541116 -22.16314441 0.67843137 0.35686275 0.43529412
v 10.05669245 -8.70687826 -22.16314441 0.67843137 0.35686275 0.43529412
v -9.43888678 -9.33660729 -22.16314441 0.67843137 0.35686275 0.43529412
v -6.16814880 -11.70858665 -22.16314441 0.67843137 0.35686275 0.43529412
v -2.79499399 -13.00477891 -22.16314441 0.67843137 0.35686275 0.43529412
f 397 398 399
f 397 399 400
f 397 400 410
f 397 410 409
f 397 409 408
f 397 408 407
f 397 407 406
f 397 406 418
f 397 418 425
f 397 425 424
f 397 424 423
f 397 423 422
f 397 422 428
f 397 428 427
f 397 427 426
f 397 426 420
f 397 420 419
f 397 419 413
f 397 413 412
f 397 412 415
f 397 415 411
f 397 411 401
f 397 401 402
f 397 402 403
f 397 403 398
f 398 404 405
f 398 405 399
f 398 403 416
f 398 416 404
f 399 406 407
f 399 407 408
f 399 408 409
f 399 409 410
f 399 410 400
f 399 405 406
f 401 411 402
f 402 412 413
f 402 413 414
f 402 414 403
f 402 411 415
f 402 415 412
f 403 414 416
f 404 417 405
f 404 416 421
f 404 421 417
f 405 417 418
f 405 418 406
f 413 419 414
f 414 419 420
f 414 420 421
f 414 421 416
f 417 421 422
f 417 422 423
f 417 423 424
f 417 424 425
f 417 425 418
f 420 426 421
f 421 426 427
f 421 427 428
f 421 428 422

o geometry_14
v -11.52362287 -13.55060378 -16.78276362 0.69411765 0.05882353 0.66666667
v -11.52587888 -13.55060378 -9.08782701 0.69411765 0.05882353 0.66666667
v -11.52362287 -12.07549796 -16.78276362 0.69411765 0.05882353 0.66666667
v 11.52362287 -13.55060378 -16.78276362 0.69411765 0.05882353 0.66666667
v -11.52587888 -12.07549796 -9.08782701 0.69411765 0.05882353 0.66666667
v 11.52587888 -13.55060378 -9.08782701 0.69411765 0.05882353 0.66666667
v 11.52362287 -12.07549796 -16.78276362 0.69411765 0.05882353 0.66666667
v 11.52587888 -12.07549796 -9.08782701 0.69411765 0.05882353 0.66666667
f 429 430 433
f 429 433 431
f 429 431 435
f 429 435 432
f 429 432 434
f 429 434 430
f 430 434 436
f 430 436 433
f 431 433 436
f 431 436 435
f 432 435 436
f 432 436 434

o geometry_15
v -16.87568504 -42.57855761 -15.99174236 0.67058824 0.20784314 0.12549020
v -16.87568504 -38.44364730 -15.99174236 0.67058824 0.20784314 0.12549020
v -16.76335721 -42.88593581 -15.99174236 0.67058824 0.20784314 0.12549020
v -16.87568504 -42.57855761 7.68448579 0.67058824 0.20784314 0.12549020
v -16.87568504 -38.44364730 6.41677866 0.67058824 0.20784314 0.12549020
v 16.87568504 -38.44364730 6.41677866 0.67058824 0.20784314 0.12549020
v 16.77326864 -38.44504727 -15.98942533 0.67058824 0.20784314 0.12549020
v 16.87568504 -42.57855761 -15.99174236 0.67058824 0.20784314 0.12549020
v -16.75344577 -42.90039413 7.68448579 0.67058824 0.20784314 0.12549020
v -16.52878837 -43.14713563 -15.99174236 0.67058824 0.20784314 0.12549020
v -16.86907741 -39.49451546 7.68448579 0.67058824 0.20784314 0.12549020
v -16.86577360 -38.44364730 6.64621743 0.67058824 0.20784314 0.12549020
v 16.86577360 -38.44364730 6.64621743 0.67058824 0.20784314 0.12549020
v 16.86907741 -39.46839531 7.68448579 0.67058824 0.20784314 0.12549020
v 16.84925455 -42.66671270 7.68448579 0.67058824 0.20784314 0.12549020
v 16.76666102 -42.87847216 -15.99174236 0.67058824 0.20784314 0.12549020
v -16.50566170 -43.16905934 7.68448579 0.67058824 0.20784314 0.12549020
v 16.46601596 -43.20870507 -15.99174236 0.67058824 0.20784314 0.12549020
v -16.72371148 -39.10458034 7.68448579 0.67058824 0.20784314 0.12549020
v -16.64442001 -38.44364730 7.02166199 0.67058824 0.20784314 0.12549020
v 16.76666102 -38.44364730 6.88029113 0.67058824 0.20784314 0.12549020
v 16.78978595 -39.20579551 7.68448579 0.67058824 0.20784314 0.12549020
v 16.71710385 -42.95869811 7.68448579 0.67058824 0.20784314 0.12549020
v 16.50235789 -43.17372303 7.68448579 0.67058824 0.20784314 0.12549020
v -16.46271215 -38.89375362 7.68448579 0.67058824 0.20784314 0.12549020
v -16.36029576 -38.44364730 7.21633752 0.67058824 0.20784314 0.12549020
v 16.58164935 -38.44364730 7.09350636 0.67058824 0.20784314 0.12549020
v 16.59156078 -38.96185222 7.68448579 0.67058824 0.20784314 0.12549020
v -13.87255313 -38.44364730 7.68448579 0.67058824 0.20784314 0.12549020
v 16.33716908 -38.44364730 7.22329034 0.67058824 0.20784314 0.12549020
v 16.33716908 -38.83964783 7.68448579 0.67058824 0.20784314 0.12549020
v 13.87255313 -38.44364730 7.68448579 0.67058824 0.20784314 0.12549020
f 437 438 444
f 437 444 452
f 437 452 454
f 437 454 446
f 437 446 439
f 437 439 440
f 437 440 441
f 437 441 438
f 438 441 448
f 438 448 456
f 438 456 462
f 438 462 465
f 438 465 468
f 438 468 466
f 438 466 463
f 438 463 457
f 438 457 449
f 438 449 442
f 438 442 443
f 438 443 444
f 439 445 440
f 439 446 445
f 440 445 453
f 440 453 460
f 440 460 459
f 440 459 451
f 440 451 450
f 440 450 458
f 440 458 464
f 440 464 467
f 440 467 468
f 440 468 465
f 440 465 461
f 440 461 455
f 440 455 447
f 440 447 441
f 441 447 448
f 442 449 450
f 442 450 444
f 442 444 443
f 444 450 451
f 444 451 452
f 445 446 453
f 446 454 453
f 447 455 448
f 448 455 456
f 449 457 458
f 449 458 450
f 451 459 452
f 452 459 454
f 453 454 460
f 454 459 460
f 455 461 456
f 456 461 462
f 457 463 464
f 457 464 458
f 461 465 462
f 463 466 467
f 463 467 464
f 466 468 467

o geometry_16
v -16.43875909 -43.23898506 -15.99174236 0.31372549 0.36078431 0.56862745
v -15.01308011 -44.66388822 -15.99174236 0.31372549 0.36078431 0.56862745
v -16.43875909 -43.23898506 7.68448579 0.31372549 0.36078431 0.56862745
v 16.43875909 -43.23898506 -15.99174236 0.31372549 0.36078431 0.56862745
v -15.18042728 -44.49646781 7.68448579 0.31372549 0.36078431 0.56862745
v -14.88756841 -44.78372502 -15.99174236 0.31372549 0.36078431 0.56862745
v -14.95193258 -44.72364622 7.68448579 0.31372549 0.36078431 0.56862745
v -15.00342496 -44.67269954 7.68448579 0.31372549 0.36078431 0.56862745
v 16.43875909 -43.23898506 7.68448579 0.31372549 0.36078431 0.56862745
v 15.10962635 -44.56728095 -15.99174236 0.31372549 0.36078431 0.56862745
v -14.88756841 -44.78372502 7.68448579 0.31372549 0.36078431 0.56862745
v -14.74274817 -44.84412462 -15.99174236 0.31372549 0.36078431 0.56862745
v -14.80711234 -44.81752676 7.68448579 0.31372549 0.36078431 0.56862745
v 15.17077388 -44.50592072 7.68448579 0.31372549 0.36078431 0.56862745
v 15.00342496 -44.67269954 7.68448579 0.31372549 0.36078431 0.56862745
v 15.00342496 -44.67269954 -15.99174236 0.31372549 0.36078431 0.56862745
v -14.52712613 -44.87328184 -15.99174236 0.31372549 0.36078431 0.56862745
v -14.73631141 -44.84652707 7.68448579 0.31372549 0.36078431 0.56862745
v 14.94227917 -44.73277834 7.68448579 0.31372549 0.36078431 0.56862745
v 14.89722356 -44.77507409 -15.99174236 0.31372549 0.36078431 0.56862745
v -14.50781670 -44.87568429 -15.99174236 0.31372549 0.36078431 0.56862745
v -14.50781670 -44.87568429 7.68448579 0.31372549 0.36078431 0.56862745
v -14.61401810 -44.86222845 7.68448579 0.31372549 0.36078431 0.56862745
v 14.88756841 -44.78372502 7.68448579 0.31372549 0.36078431 0.56862745
v 14.88113165 -44.78612748 -15.99174236 0.31372549 0.36078431 0.56862745
v 14.50781670 -44.87568429 -15.99174236 0.31372549 0.36078431 0.56862745
v 14.50781670 -44.87568429 7.68448579 0.31372549 0.36078431 0.56862745
v 14.81998587 -44.81240106 7.68448579 0.31372549 0.36078431 0.56862745
v 14.73631141 -44.84652707 -15.99174236 0.31372549 0.36078431 0.56862745
v 14.72021949 -44.84876913 -15.99174236 0.31372549 0.36078431 0.56862745
v 14.73631141 -44.84652707 7.68448579 0.31372549 0.36078431 0.56862745
f 469 470 471
f 469 471 477
f 469 477 472
f 469 472 478
f 469 478 484
f 469 484 488
f 469 488 493
f 469 493 497
f 469 497 498
f 469 498 494
f 469 494 489
f 469 489 485
f 469 485 480
f 469 480 474
f 469 474 470
f 470 473 471
f 470 474 475
f 470 475 476
f 470 476 473
f 471 473 476
f 471 476 475
f 471 475 479
f 471 479 481
f 471 481 486
f 471 486 491
f 471 491 490
f 471 490 495
f 471 495 499
f 471 499 496
f 471 496 492
f 471 492 487
f 471 487 483
f 471 483 482
f 471 482 477
f 472 477 478
f 474 479 475
f 474 480 481
f 474 481 479
f 477 482 478
f 478 482 483
f 478 483 484
f 480 485 486
f 480 486 481
f 483 487 484
f 484 487 488
f 485 489 490
f 485 490 491
f 485 491 486
f 487 492 488
f 488 492 493
f 489 494 495
f 489 495 490
f 492 496 493
f 493 496 497
f 494 498 495
f 495 498 499
f 496 499 497
f 497 499 498

o geometry_17
v -14.67590833 13.83186477 -9.08858018 0.43529412 0.98823529 0.10196078
v -14.72545154 13.79129153 -16.78201045 0.43529412 0.98823529 0.10196078
v -15.45871103 13.21309149 -16.78201045 0.43529412 0.98823529 0.10196078
v -15.93103570 12.74140143 -9.08858018 0.43529412 0.98823529 0.10196078
v 14.85591982 13.73042645 -9.08858018 0.43529412 0.98823529 0.10196078
v 14.85591982 13.73042645 -16.78201045 0.43529412 0.98823529 0.10196078
v -16.76338336 11.79295489 -16.78201045 0.43529412 0.98823529 0.10196078
v -16.35711747 12.31536150 -9.08858018 0.43529412 0.98823529 0.10196078
v 15.46036206 13.21309149 -9.08858018 0.43529412 0.98823529 0.10196078
v 15.46036206 13.21309149 -16.78201045 0.43529412 0.98823529 0.10196078
v -16.86907741 -11.41361299 -16.78201045 0.43529412 0.98823529 0.10196078
v -16.77329130 11.78027314 -9.08858018 0.43529412 0.98823529 0.10196078
v 16.25968033 12.41426313 -9.08858018 0.43529412 0.98823529 0.10196078
v 16.34555849 12.32550481 -16.78201045 0.43529412 0.98823529 0.10196078
v -16.84265390 -11.38064549 -9.09611182 0.43529412 0.98823529 0.10196078
v -16.58832496 -11.95630796 -16.78201045 0.43529412 0.98823529 0.10196078
v -16.81953245 -11.49729966 -9.80489608 0.43529412 0.98823529 0.10196078
v -16.48593298 -11.73060799 -9.08858018 0.43529412 0.98823529 0.10196078
v 16.82118523 11.72194649 -9.08858018 0.43529412 0.98823529 0.10196078
v 16.76833820 11.82338482 -16.78201045 0.43529412 0.98823529 0.10196078
v -11.52157433 -12.07549796 -9.08858018 0.43529412 0.98823529 0.10196078
v -11.52157433 -12.07549796 -16.78201045 0.43529412 0.98823529 0.10196078
v 16.85751669 -11.21580799 -9.09008650 0.43529412 0.98823529 0.10196078
v 16.87403226 -11.38318132 -16.78201045 0.43529412 0.98823529 0.10196078
v 16.49749370 -11.72807216 -9.08858018 0.43529412 0.98823529 0.10196078
v 11.52322624 -12.07549796 -9.08858018 0.43529412 0.98823529 0.10196078
v 11.52322624 -12.07549796 -16.78201045 0.43529412 0.98823529 0.10196078
v 16.82118523 -11.49729966 -9.80489608 0.43529412 0.98823529 0.10196078
v 16.83109318 -11.49729966 -10.94753697 0.43529412 0.98823529 0.10196078
v 16.85091081 -11.49729966 -13.68776572 0.43529412 0.98823529 0.10196078
v 16.85751669 -11.49729966 -14.60218039 0.43529412 0.98823529 0.10196078
v 16.53052309 -11.94870048 -16.78201045 0.43529412 0.98823529 0.10196078
f 500 501 502
f 500 502 503
f 500 503 507
f 500 507 511
f 500 511 517
f 500 517 520
f 500 520 525
f 500 525 524
f 500 524 518
f 500 518 512
f 500 512 508
f 500 508 504
f 500 504 505
f 500 505 501
f 501 505 509
f 501 509 513
f 501 513 519
f 501 519 523
f 501 523 531
f 501 531 526
f 501 526 521
f 501 521 515
f 501 515 510
f 501 510 506
f 501 506 502
f 502 506 507
f 502 507 503
f 504 508 509
f 504 509 505
f 506 510 511
f 506 511 507
f 508 512 509
f 509 512 513
f 510 514 511
f 510 515 516
f 510 516 514
f 511 514 517
f 512 518 519
f 512 519 513
f 514 516 517
f 515 520 517
f 515 517 516
f 515 521 520
f 518 522 523
f 518 523 519
f 518 524 522
f 520 521 526
f 520 526 525
f 522 524 527
f 522 527 528
f 522 528 529
f 522 529 530
f 522 530 523
f 523 530 531
f 524 531 527
f 524 525 531
f 525 526 531
f 527 531 528
f 528 531 529
f 529 531 530

o geometry_18
v 12.23318383 -13.55060335 -8.52258244 0.20784314 0.16078431 0.65098039
v 12.23318383 -10.62531803 -9.08782701 0.20784314 0.16078431 0.65098039
v 13.06434421 -11.72870851 -9.08782701 0.20784314 0.16078431 0.65098039
v 13.36881524 -11.77106093 -9.08782701 0.20784314 0.16078431 0.65098039
v 16.56712478 -13.55060335 -8.52258244 0.20784314 0.16078431 0.65098039
v 12.45494800 -13.55060335 22.12287582 0.20784314 0.16078431 0.65098039
v 12.23318383 -13.54986064 22.11981958 0.20784314 0.16078431 0.65098039
v 12.23318383 -5.95987016 -9.08782701 0.20784314 0.16078431 0.65098039
v 16.33808962 -11.77106093 -9.08782701 0.20784314 0.16078431 0.65098039
v 16.64846827 -11.68784238 -9.08782701 0.20784314 0.16078431 0.65098039
v 16.81660871 -11.49985728 -9.08782701 0.20784314 0.16078431 0.65098039
v 16.77843618 -13.55060335 -8.41869982 0.20784314 0.16078431 0.65098039
v 16.11723465 -13.55060335 22.12287582 0.20784314 0.16078431 0.65098039
v 12.23318383 -5.95987016 22.12593032 0.20784314 0.16078431 0.65098039
v 16.67618890 -5.95987016 -9.08782701 0.20784314 0.16078431 0.65098039
v 16.87477671 -11.27100560 -9.08782701 0.20784314 0.16078431 0.65098039
v 16.87386663 -13.55060335 -8.20482208 0.20784314 0.16078431 0.65098039
v 16.39762098 -13.55060335 22.08621137 0.20784314 0.16078431 0.65098039
v 16.39580257 -5.95987016 22.08621137 0.20784314 0.16078431 0.65098039
v 16.10950774 -5.95987016 22.12287582 0.20784314 0.16078431 0.65098039
v 16.83524081 -6.73335768 -9.08782701 0.20784314 0.16078431 0.65098039
v 16.86159807 -5.95987016 -6.60380401 0.20784314 0.16078431 0.65098039
v 16.87568504 -11.04289751 -9.08782701 0.20784314 0.16078431 0.65098039
v 16.87568504 -13.55060335 21.27042460 0.20784314 0.16078431 0.65098039
v 16.73072009 -13.55060335 21.78372873 0.20784314 0.16078431 0.65098039
v 16.73435515 -5.95987016 21.77150725 0.20784314 0.16078431 0.65098039
v 16.86977653 -6.96146622 -9.08782701 0.20784314 0.16078431 0.65098039
v 16.87432167 -5.95987016 -6.40214863 0.20784314 0.16078431 0.65098039
v 16.87568504 -7.19031745 -9.08782701 0.20784314 0.16078431 0.65098039
v 16.87386663 -5.95987016 21.37125273 0.20784314 0.16078431 0.65098039
v 16.87204997 -13.55060335 21.49652208 0.20784314 0.16078431 0.65098039
f 532 533 534
f 532 534 535
f 532 535 540
f 532 540 536
f 532 536 543
f 532 543 548
f 532 548 555
f 532 555 562
f 532 562 556
f 532 556 549
f 532 549 544
f 532 544 537
f 532 537 538
f 532 538 545
f 532 545 539
f 532 539 533
f 533 539 546
f 533 546 552
f 533 552 558
f 533 558 560
f 533 560 554
f 533 554 547
f 533 547 542
f 533 542 541
f 533 541 540
f 533 540 535
f 533 535 534
f 536 540 541
f 536 541 542
f 536 542 543
f 537 544 545
f 537 545 538
f 539 545 551
f 539 551 550
f 539 550 557
f 539 557 561
f 539 561 559
f 539 559 553
f 539 553 546
f 542 547 543
f 543 547 548
f 544 549 550
f 544 550 551
f 544 551 545
f 546 553 552
f 547 554 548
f 548 554 555
f 549 556 550
f 550 556 557
f 552 553 559
f 552 559 558
f 554 560 555
f 555 561 562
f 555 560 561
f 556 562 557
f 557 562 561
f 558 559 560
f 559 561 560

o geometry_19
v 15.12325828 13.50293073 8.20558177 0.25098039 0.46274510 0.24313725
v 0.71110722 13.28953592 22.14903957 0.25098039 0.46274510 0.24313725
v 14.90776089 13.33907391 21.78461963 0.25098039 0.46274510 0.24313725
v 16.41950284 12.01106918 21.63312028 0.25098039 0.46274510 0.24313725
v 16.53377983 12.07965943 8.20558177 0.25098039 0.46274510 0.24313725
v -15.84294860 12.77510205 8.20558177 0.25098039 0.46274510 0.24313725
v -1.45365383 13.26857808 22.14903957 0.25098039 0.46274510 0.24313725
v 3.64969686 12.94467385 22.14903957 0.25098039 0.46274510 0.24313725
v 6.89847147 11.53664541 22.14903957 0.25098039 0.46274510 0.24313725
v 9.52034620 9.56083396 22.14903957 0.25098039 0.46274510 0.24313725
v 11.52838245 6.88577048 22.14903957 0.25098039 0.46274510 0.24313725
v 13.09563017 2.91509183 22.14903957 0.25098039 0.46274510 0.24313725
v 16.53377983 -5.95986929 21.84194554 0.25098039 0.46274510 0.24313725
v 16.66764955 -5.36541083 8.69966277 0.25098039 0.46274510 0.24313725
v 13.86945941 -5.95986929 8.20558177 0.25098039 0.46274510 0.24313725
v -13.87082800 -5.95986929 8.20558177 0.25098039 0.46274510 0.24313725
v -16.68860914 -5.36159968 8.70648702 0.25098039 0.46274510 0.24313725
v -15.88865975 12.60171735 21.60855353 0.25098039 0.46274510 0.24313725
v -3.47801572 12.94848500 22.14903957 0.25098039 0.46274510 0.24313725
v 13.35357325 -0.07244417 22.14903957 0.25098039 0.46274510 0.24313725
v 13.11522116 -2.72845364 22.14903957 0.25098039 0.46274510 0.24313725
v 12.26302971 -5.37112669 22.14903957 0.25098039 0.46274510 0.24313725
v -12.29378479 -5.42638053 22.14903957 0.25098039 0.46274510 0.24313725
v -16.61351238 -5.95986929 21.70272870 0.25098039 0.46274510 0.24313725
v -13.35494272 -0.00956890 22.14903957 0.25098039 0.46274510 0.24313725
v -13.11332517 2.72456044 22.14903957 0.25098039 0.46274510 0.24313725
v -12.31664036 5.28911449 22.14903957 0.25098039 0.46274510 0.24313725
v -11.25221785 7.23444197 22.14903957 0.25098039 0.46274510 0.24313725
v -9.82210444 9.07878789 22.14903957 0.25098039 0.46274510 0.24313725
v -8.22220565 10.55159718 22.14903957 0.25098039 0.46274510 0.24313725
v -5.99540743 11.97105733 22.14903957 0.25098039 0.46274510 0.24313725
v -13.12638525 -2.80657177 22.14903957 0.25098039 0.46274510 0.24313725
f 563 564 565
f 563 565 566
f 563 566 567
f 563 567 577
f 563 577 578
f 563 578 568
f 563 568 569
f 563 569 564
f 564 570 565
f 564 569 581
f 564 581 593
f 564 593 592
f 564 592 591
f 564 591 590
f 564 590 589
f 564 589 588
f 564 588 587
f 564 587 594
f 564 594 585
f 564 585 584
f 564 584 583
f 564 583 582
f 564 582 574
f 564 574 573
f 564 573 572
f 564 572 571
f 564 571 570
f 565 570 571
f 565 571 572
f 565 572 573
f 565 573 574
f 565 574 566
f 566 575 576
f 566 576 567
f 566 574 575
f 567 576 577
f 568 578 579
f 568 579 580
f 568 580 569
f 569 580 581
f 574 582 575
f 575 582 583
f 575 583 584
f 575 584 585
f 575 585 586
f 575 586 578
f 575 578 577
f 575 577 576
f 578 586 579
f 579 586 580
f 580 586 587
f 580 587 588
f 580 588 589
f 580 589 590
f 580 590 591
f 580 591 592
f 580 592 593
f 580 593 581
f 585 594 586
f 586 594 587

o geometry_20
v -14.78139666 13.79802120 -9.08613414 0.15686275 0.10980392 0.65490196
v -15.45857155 13.21394926 -9.08613414 0.15686275 0.10980392 0.65490196
v -15.45857155 13.21394926 8.20388889 0.15686275 0.10980392 0.65490196
v -14.82764304 13.75160396 8.20388889 0.15686275 0.10980392 0.65490196
v 14.78304943 13.79221904 8.20388889 0.15686275 0.10980392 0.65490196
v 14.82268819 13.75160396 -9.08613414 0.15686275 0.10980392 0.65490196
v -16.35706866 12.31656621 -9.08613414 0.15686275 0.10980392 0.65490196
v -16.25796828 12.41520110 8.20388889 0.15686275 0.10980392 0.65490196
v 15.46022433 13.21394926 8.20388889 0.15686275 0.10980392 0.65490196
v 15.46022433 13.21394926 -9.08613414 0.15686275 0.10980392 0.65490196
v -16.77328259 11.78277671 -9.08613414 0.15686275 0.10980392 0.65490196
v -16.82283103 11.72088823 8.20388889 0.15686275 0.10980392 0.65490196
v 16.25962105 12.41520110 8.20388889 0.15686275 0.10980392 0.65490196
v 16.25962105 12.41520110 -9.08613414 0.15686275 0.10980392 0.65490196
v -16.84595597 -5.12630994 -9.08613414 0.15686275 0.10980392 0.65490196
v -16.86577535 -5.95987016 -6.48992278 0.15686275 0.10980392 0.65490196
v -16.86907741 -5.95987016 6.44713057 0.15686275 0.10980392 0.65490196
v -16.85916772 -4.53836932 8.20388889 0.15686275 0.10980392 0.65490196
v 16.80466095 11.74409685 8.20388889 0.15686275 0.10980392 0.65490196
v 16.82117826 11.72282344 -9.08613414 0.15686275 0.10980392 0.65490196
v -16.67088014 -5.95987016 -9.08613414 0.15686275 0.10980392 0.65490196
v -16.67748776 -5.95987016 6.88208905 0.15686275 0.10980392 0.65490196
v -16.57838738 -4.99092866 8.20388889 0.15686275 0.10980392 0.65490196
v 16.86412257 -4.51902939 8.20388889 0.15686275 0.10980392 0.65490196
v 16.87073019 -5.95987016 -6.40360788 0.15686275 0.10980392 0.65490196
v 16.85421288 -4.98512650 -9.08613414 0.15686275 0.10980392 0.65490196
v 16.67252943 -5.95987016 -9.08613414 0.15686275 0.10980392 0.65490196
v -13.86968954 -5.95987016 8.20388889 0.15686275 0.10980392 0.65490196
v 16.83439350 -5.95987016 6.57914179 0.15686275 0.10980392 0.65490196
v 16.50406471 -5.02767505 8.20388889 0.15686275 0.10980392 0.65490196
v 16.58004016 -5.95987016 6.99717499 0.15686275 0.10980392 0.65490196
v 13.87134057 -5.95987016 8.20388889 0.15686275 0.10980392 0.65490196
f 595 596 597
f 595 597 598
f 595 598 599
f 595 599 600
f 595 600 604
f 595 604 608
f 595 608 614
f 595 614 620
f 595 620 621
f 595 621 615
f 595 615 609
f 595 609 605
f 595 605 601
f 595 601 596
f 596 601 597
f 597 601 602
f 597 602 606
f 597 606 612
f 597 612 617
f 597 617 622
f 597 622 626
f 597 626 624
f 597 624 618
f 597 618 613
f 597 613 607
f 597 607 603
f 597 603 599
f 597 599 598
f 599 603 604
f 599 604 600
f 601 605 606
f 601 606 602
f 603 607 608
f 603 608 604
f 605 609 610
f 605 610 606
f 606 610 611
f 606 611 612
f 607 613 608
f 608 613 614
f 609 615 610
f 610 615 621
f 610 621 619
f 610 619 623
f 610 623 625
f 610 625 626
f 610 626 622
f 610 622 616
f 610 616 611
f 611 616 612
f 612 616 617
f 613 618 614
f 614 618 619
f 614 619 620
f 616 622 617
f 618 623 619
f 618 624 625
f 618 625 623
f 619 621 620
f 624 626 625

o geometry_21
v 12.23318383 -5.96013865 22.12459660 0.13725490 0.19607843 0.36862745
v -16.10636258 -5.96013865 22.12459660 0.13725490 0.19607843 0.36862745
v 11.96534588 -5.98909712 22.14599901 0.13725490 0.19607843 0.36862745
v 12.23033506 -8.61473157 22.10625042 0.13725490 0.19607843 0.36862745
v 12.23318383 -8.69919581 -9.08782527 0.13725490 0.19607843 0.36862745
v 12.23318383 -5.96013865 -9.08782527 0.13725490 0.19607843 0.36862745
v -11.96057148 -6.07812044 22.14599901 0.13725490 0.19607843 0.36862745
v -16.37990069 -5.96013865 22.08484626 0.13725490 0.19607843 0.36862745
v -16.10636258 -8.69919581 22.12459660 0.13725490 0.19607843 0.36862745
v -0.34380795 -8.52999885 22.14905700 0.13725490 0.19607843 0.36862745
v 0.34003406 -8.52999885 22.14905700 0.13725490 0.19607843 0.36862745
v 11.85707067 -6.24543972 22.14599901 0.13725490 0.19607843 0.36862745
v 11.47525909 -6.92651730 22.14599901 0.13725490 0.19607843 0.36862745
v 11.17607852 -7.38745123 22.14599901 0.13725490 0.19607843 0.36862745
v 11.02221420 -7.61242158 22.14599901 0.13725490 0.19607843 0.36862745
v 10.50933286 -8.30127488 22.14599901 0.13725490 0.19607843 0.36862745
v 10.25289175 -8.61205017 22.14599901 0.13725490 0.19607843 0.36862745
v -10.27661119 -8.69302841 22.14599901 0.13725490 0.19607843 0.36862745
v -16.87568504 -8.69919581 -9.08782527 0.13725490 0.19607843 0.36862745
v -16.67623249 -5.96013865 -9.08782527 0.13725490 0.19607843 0.36862745
v -11.70982967 -6.64738276 22.14599901 0.13725490 0.19607843 0.36862745
v -16.71897107 -5.96013865 21.79437067 0.13725490 0.19607843 0.36862745
v -16.47107890 -8.69919581 22.02063726 0.13725490 0.19607843 0.36862745
v -11.01459016 -7.77840016 22.14599901 0.13725490 0.19607843 0.36862745
v -11.47048469 -7.09195977 22.14599901 0.13725490 0.19607843 0.36862745
v -16.87568504 -5.96013865 21.27151425 0.13725490 0.19607843 0.36862745
v -16.87283626 -7.27349155 -9.08782527 0.13725490 0.19607843 0.36862745
v -16.86713697 -8.69919581 21.39993399 0.13725490 0.19607843 0.36862745
v -16.84149277 -6.81765193 -9.08782527 0.13725490 0.19607843 0.36862745
v -16.86713697 -5.96013865 -6.48882877 0.13725490 0.19607843 0.36862745
v -16.85858890 -5.96013865 21.52835548 0.13725490 0.19607843 0.36862745
v -16.72181985 -8.69919581 21.79437067 0.13725490 0.19607843 0.36862745
f 627 628 629
f 627 629 630
f 627 630 631
f 627 631 632
f 627 632 646
f 627 646 656
f 627 656 652
f 627 652 657
f 627 657 648
f 627 648 634
f 627 634 628
f 628 633 629
f 628 634 635
f 628 635 633
f 629 636 637
f 629 637 638
f 629 638 630
f 629 633 636
f 630 638 639
f 630 639 640
f 630 640 641
f 630 641 642
f 630 642 643
f 630 643 644
f 630 644 631
f 631 645 653
f 631 653 655
f 631 655 646
f 631 646 632
f 631 644 635
f 631 635 649
f 631 649 658
f 631 658 654
f 631 654 645
f 633 635 647
f 633 647 636
f 634 648 649
f 634 649 635
f 635 644 650
f 635 650 651
f 635 651 647
f 636 647 651
f 636 651 650
f 636 650 644
f 636 644 637
f 637 644 643
f 637 643 642
f 637 642 641
f 637 641 640
f 637 640 639
f 637 639 638
f 645 652 653
f 645 654 652
f 646 655 656
f 648 657 658
f 648 658 649
f 652 656 653
f 652 654 657
f 653 656 655
f 654 658 657

o geometry_22
v 12.23318383 -13.55060378 -8.52227211 0.81960784 0.09411765 0.83529412
v 11.52369784 -13.55060378 -9.08476728 0.81960784 0.09411765 0.83529412
v 12.23318383 -10.62643383 -9.08476728 0.81960784 0.09411765 0.83529412
v 12.23318383 -8.69946386 -9.08476728 0.81960784 0.09411765 0.83529412
v 12.23033506 -8.71275974 22.09095526 0.81960784 0.09411765 0.83529412
v 12.23033506 -13.55012891 22.11846842 0.81960784 0.09411765 0.83529412
v -16.35425475 -13.55060378 22.01453000 0.81960784 0.09411765 0.83529412
v -11.52462273 -13.55060378 -9.08476728 0.81960784 0.09411765 0.83529412
v -16.87568504 -8.69946386 -9.08476728 0.81960784 0.09411765 0.83529412
v -16.35140598 -8.69946386 22.01453000 0.81960784 0.09411765 0.83529412
v 10.04204062 -8.84334570 22.14598158 0.81960784 0.09411765 0.83529412
v 9.35819882 -9.54518411 22.14598158 0.81960784 0.09411765 0.83529412
v 8.44925854 -10.37855866 22.14598158 0.81960784 0.09411765 0.83529412
v 7.24968662 -11.25894364 22.14598158 0.81960784 0.09411765 0.83529412
v 6.28375952 -11.84824109 22.14598158 0.81960784 0.09411765 0.83529412
v 5.59706808 -12.18728902 22.14598158 0.81960784 0.09411765 0.83529412
v 4.67958060 -12.58237011 22.14598158 0.81960784 0.09411765 0.83529412
v 3.65381791 -12.91429524 22.14598158 0.81960784 0.09411765 0.83529412
v 2.05533741 -13.26711414 22.14598158 0.81960784 0.09411765 0.83529412
v 0.05509998 -13.40292321 22.14598158 0.81960784 0.09411765 0.83529412
v -16.86713697 -8.69946386 21.40006301 0.81960784 0.09411765 0.83529412
v -16.87283626 -13.55060378 21.38477831 0.81960784 0.09411765 0.83529412
v -2.22722231 -13.26521466 22.14598158 0.81960784 0.09411765 0.83529412
v -3.45243908 -13.01259059 22.14598158 0.81960784 0.09411765 0.83529412
v -4.50669540 -12.69491130 22.14598158 0.81960784 0.09411765 0.83529412
v -6.17071034 -11.96315661 22.14598158 0.81960784 0.09411765 0.83529412
v -7.13378780 -11.43654004 22.14598158 0.81960784 0.09411765 0.83529412
v -7.82047968 -10.98020225 22.14598158 0.81960784 0.09411765 0.83529412
v -9.07703841 -9.95451104 22.14598158 0.81960784 0.09411765 0.83529412
v -9.96603291 -9.04278561 22.14598158 0.81960784 0.09411765 0.83529412
v -16.77310824 -13.55060378 -8.33579247 0.81960784 0.09411765 0.83529412
v -16.74176650 -11.53198618 -9.08476728 0.81960784 0.09411765 0.83529412
f 659 660 661
f 659 661 662
f 659 662 663
f 659 663 664
f 659 664 665
f 659 665 680
f 659 680 689
f 659 689 666
f 659 666 660
f 660 666 690
f 660 690 667
f 660 667 662
f 660 662 661
f 662 667 679
f 662 679 668
f 662 668 663
f 663 668 669
f 663 669 664
f 664 669 670
f 664 670 671
f 664 671 672
f 664 672 673
f 664 673 674
f 664 674 675
f 664 675 676
f 664 676 677
f 664 677 678
f 664 678 665
f 665 668 679
f 665 679 680
f 665 678 681
f 665 681 682
f 665 682 683
f 665 683 684
f 665 684 685
f 665 685 686
f 665 686 687
f 665 687 688
f 665 688 668
f 666 689 690
f 667 689 680
f 667 680 679
f 667 690 689
f 668 688 669
f 669 688 687
f 669 687 686
f 669 686 685
f 669 685 684
f 669 684 683
f 669 683 682
f 669 682 681
f 669 681 678
f 669 678 677
f 669 677 676
f 669 676 675
f 669 675 674
f 669 674 673
f 669 673 672
f 669 672 671
f 669 671 670

