# https://github.com/mikedh/trimesh

o geometry_0
v -29.10247366 66.24380931 91.99598324 0.54509804 0.71372549 0.60000000
v -21.82431302 55.95191307 84.72061840 0.54509804 0.71372549 0.60000000
v -21.14198613 56.21184044 84.03843117 0.54509804 0.71372549 0.60000000
v 6.25016493 66.24380931 56.64632466 0.54509804 0.71372549 0.60000000
v -31.22649330 66.24380931 91.99598324 0.54509804 0.71372549 0.60000000
v -29.10247366 3.03187802 91.99598324 0.54509804 0.71372549 0.60000000
v -29.09513760 3.03187802 91.99210358 0.54509804 0.71372549 0.60000000
v -1.17473244 56.11281984 64.07285255 0.54509804 0.71372549 0.60000000
v 6.24649775 66.24380931 52.40591620 0.54509804 0.71372549 0.60000000
v -1.17473244 26.38823446 64.07285255 0.54509804 0.71372549 0.60000000
v 6.21715006 3.03187802 56.67733286 0.54509804 0.71372549 0.60000000
v 6.24649775 3.03187802 56.64632466 0.54509804 0.71372549 0.60000000
v 6.24649775 3.03187802 52.40591620 0.54509804 0.71372549 0.60000000
v -31.22649330 66.24380931 89.87577644 0.54509804 0.71372549 0.60000000
v -31.22649330 3.03187802 91.99598324 0.54509804 0.71372549 0.60000000
v -3.15201535 55.95191307 61.80148271 0.54509804 0.71372549 0.60000000
v 6.23549280 3.03187802 52.41366868 0.54509804 0.71372549 0.60000000
v -22.24985107 3.03187802 80.89882490 0.54509804 0.71372549 0.60000000
v -31.22649330 3.03187802 89.87577644 0.54509804 0.71372549 0.60000000
f 1 2 3
f 1 3 4
f 1 4 9
f 1 9 14
f 1 14 5
f 1 5 15
f 1 15 6
f 1 6 7
f 1 7 2
f 2 7 3
f 3 8 4
f 3 7 8
f 4 8 10
f 4 10 11
f 4 11 12
f 4 12 13
f 4 13 9
f 5 14 19
f 5 19 15
f 6 15 19
f 6 19 18
f 6 18 17
f 6 17 13
f 6 13 12
f 6 12 11
f 6 11 7
f 7 11 10
f 7 10 8
f 9 16 14
f 9 13 17
f 9 17 16
f 14 16 17
f 14 17 18
f 14 18 19

o geometry_1
v -22.26920742 2.99992219 91.99985605 0.54117647 0.42352941 0.64313725
v -29.09743901 3.02568838 91.99226123 0.54117647 0.42352941 0.64313725
v -29.10533029 3.02568838 91.99985605 0.54117647 0.42352941 0.64313725
v -22.26920742 0.00000104 91.99985605 0.54117647 0.42352941 0.64313725
v -22.26920742 3.02568838 85.16302031 0.54117647 0.42352941 0.64313725
v -31.22649330 3.02568838 91.99985605 0.54117647 0.42352941 0.64313725
v -31.22649330 0.00000104 91.99985605 0.54117647 0.42352941 0.64313725
v -22.26920742 0.00000104 80.92145172 0.54117647 0.42352941 0.64313725
v -22.26920742 3.02568838 80.92145172 0.54117647 0.42352941 0.64313725
v -31.22649330 3.02568838 89.87852854 0.54117647 0.42352941 0.64313725
v -31.22649330 0.00000104 89.87852854 0.54117647 0.42352941 0.64313725
v -30.80120715 3.02568838 89.45231017 0.54117647 0.42352941 0.64313725
f 20 21 22
f 20 22 25
f 20 25 26
f 20 26 23
f 20 23 27
f 20 27 28
f 20 28 24
f 20 24 21
f 21 24 28
f 21 28 31
f 21 31 29
f 21 29 25
f 21 25 22
f 23 26 30
f 23 30 27
f 25 29 30
f 25 30 26
f 27 30 31
f 27 31 28
f 29 31 30

o geometry_2
v 6.25016493 2.99992219 56.64222737 0.43529412 0.89019608 0.96078431
v 6.24737342 3.02568838 52.39839506 0.43529412 0.89019608 0.96078431
v 6.24737342 3.02568838 56.64222737 0.43529412 0.89019608 0.96078431
v 6.24737342 2.99992219 92.00000000 0.43529412 0.89019608 0.96078431
v 6.24737342 0.00000104 92.00000000 0.43529412 0.89019608 0.96078431
v 6.24737342 0.00000104 -23.00000000 0.43529412 0.89019608 0.96078431
v 6.24737342 2.99992219 -23.00000000 0.43529412 0.89019608 0.96078431
v -22.26833004 3.02568838 80.91199932 0.43529412 0.89019608 0.96078431
v -22.24878947 2.99992219 -23.00000000 0.43529412 0.89019608 0.96078431
v 6.23899718 3.02568838 56.65348423 0.43529412 0.89019608 0.96078431
v -22.26833004 3.02568838 85.15583333 0.43529412 0.89019608 0.96078431
v -22.24878947 2.99992219 92.00000000 0.43529412 0.89019608 0.96078431
v -22.24878947 0.00000104 92.00000000 0.43529412 0.89019608 0.96078431
v -22.24878947 0.00000104 -23.00000000 0.43529412 0.89019608 0.96078431
v -22.26833004 0.00000104 80.91199932 0.43529412 0.89019608 0.96078431
v -22.26833004 2.99992219 91.98874485 0.43529412 0.89019608 0.96078431
v -22.26833004 0.00000104 91.98874485 0.43529412 0.89019608 0.96078431
f 32 33 34
f 32 34 35
f 32 35 36
f 32 36 37
f 32 37 38
f 32 38 33
f 33 39 42
f 33 42 41
f 33 41 34
f 33 38 40
f 33 40 39
f 34 41 35
f 35 42 43
f 35 43 44
f 35 44 36
f 35 41 42
f 36 44 48
f 36 48 46
f 36 46 45
f 36 45 37
f 37 45 40
f 37 40 38
f 39 46 48
f 39 48 47
f 39 47 42
f 39 40 45
f 39 45 46
f 42 47 43
f 43 47 48
f 43 48 44

