# https://github.com/mikedh/trimesh

o geometry_0
v 12.99271058 -5.00136966 -64.25244642 0.54509804 0.71372549 0.60000000
v 12.99271058 -4.74295069 -64.28425934 0.54509804 0.71372549 0.60000000
v 8.00048839 -5.00136966 -64.25244642 0.54509804 0.71372549 0.60000000
v 12.99271058 -32.99863034 -64.25244642 0.54509804 0.71372549 0.60000000
v 8.00048839 -4.74295069 -64.28425934 0.54509804 0.71372549 0.60000000
v 12.99271058 -4.50215324 -64.38459620 0.54509804 0.71372549 0.60000000
v 8.00048839 -32.99863034 -64.25244642 0.54509804 0.71372549 0.60000000
v 12.99271058 -33.25704931 -64.28425934 0.54509804 0.71372549 0.60000000
v 8.00048839 -4.50215324 -64.38459620 0.54509804 0.71372549 0.60000000
v 12.99271058 -4.29365562 -64.54366662 0.54509804 0.71372549 0.60000000
v 8.00048839 -33.25704931 -64.28425934 0.54509804 0.71372549 0.60000000
v 12.99271058 -33.49784676 -64.38459620 0.54509804 0.71372549 0.60000000
v 8.00048839 -4.29365562 -64.54366662 0.54509804 0.71372549 0.60000000
v 12.99271058 -4.13508080 -64.75168168 0.54509804 0.71372549 0.60000000
v 8.00048839 -33.49784676 -64.38459620 0.54509804 0.71372549 0.60000000
v 12.99271058 -33.70634438 -64.54366662 0.54509804 0.71372549 0.60000000
v 8.00048839 -4.13508080 -64.75168168 0.54509804 0.71372549 0.60000000
v 12.99271058 -4.03523810 -64.99396015 0.54509804 0.71372549 0.60000000
v 8.00048839 -4.03523810 -64.99151111 0.54509804 0.71372549 0.60000000
v 8.00048839 -33.70634438 -64.54366662 0.54509804 0.71372549 0.60000000
v 12.99271058 -33.86491920 -64.75168168 0.54509804 0.71372549 0.60000000
v 12.99271058 -4.00293536 -65.25091839 0.54509804 0.71372549 0.60000000
v 8.00048839 -4.00293536 -65.25091839 0.54509804 0.71372549 0.60000000
v 8.00048839 -33.86491920 -64.75168168 0.54509804 0.71372549 0.60000000
v 12.99271058 -33.96476190 -64.99151111 0.54509804 0.71372549 0.60000000
v 12.99271058 -4.00293536 -89.25098425 0.54509804 0.71372549 0.60000000
v 8.00048839 -4.00293536 -89.25098425 0.54509804 0.71372549 0.60000000
v 8.00048839 -33.96476190 -64.99151111 0.54509804 0.71372549 0.60000000
v 12.99271058 -33.99706464 -65.25091839 0.54509804 0.71372549 0.60000000
v 12.99271058 -33.99706464 -89.25098425 0.54509804 0.71372549 0.60000000
v 8.00048839 -33.99706464 -89.25098425 0.54509804 0.71372549 0.60000000
v 8.00048839 -33.99706464 -65.25091839 0.54509804 0.71372549 0.60000000
f 1 2 5
f 1 5 3
f 1 3 7
f 1 7 4
f 1 4 8
f 1 8 12
f 1 12 16
f 1 16 21
f 1 21 25
f 1 25 29
f 1 29 30
f 1 30 26
f 1 26 22
f 1 22 18
f 1 18 14
f 1 14 10
f 1 10 6
f 1 6 2
f 2 6 9
f 2 9 5
f 3 5 9
f 3 9 13
f 3 13 17
f 3 17 19
f 3 19 23
f 3 23 27
f 3 27 31
f 3 31 32
f 3 32 28
f 3 28 24
f 3 24 20
f 3 20 15
f 3 15 11
f 3 11 7
f 4 7 11
f 4 11 8
f 6 10 13
f 6 13 9
f 8 11 15
f 8 15 12
f 10 14 17
f 10 17 13
f 12 15 20
f 12 20 16
f 14 18 19
f 14 19 17
f 16 20 24
f 16 24 21
f 18 22 19
f 19 22 23
f 21 24 28
f 21 28 25
f 22 26 27
f 22 27 23
f 25 28 32
f 25 32 29
f 26 30 31
f 26 31 27
f 29 32 31
f 29 31 30

o geometry_1
v 12.98370202 7.99931475 -39.25000026 0.54117647 0.42352941 0.64313725
v 12.98370202 7.99931475 -44.24966794 0.54117647 0.42352941 0.64313725
v 12.98370202 -45.99931475 -39.25000026 0.54117647 0.42352941 0.64313725
v 18.00000018 22.61805005 -39.26731746 0.54117647 0.42352941 0.64313725
v 13.00039681 22.61805005 -39.26731746 0.54117647 0.42352941 0.64313725
v 13.00039681 22.99246381 -39.38408319 0.54117647 0.42352941 0.64313725
v 13.00039681 23.20047017 -39.54290509 0.54117647 0.42352941 0.64313725
v 13.00039681 23.35855663 -39.75021441 0.54117647 0.42352941 0.64313725
v 13.00039681 23.45839933 -39.99166289 0.54117647 0.42352941 0.64313725
v 13.00039681 23.50000118 -40.25042856 0.54117647 0.42352941 0.64313725
v 13.00039681 23.50000118 -44.30458755 0.54117647 0.42352941 0.64313725
v 12.98370202 -45.99931475 -44.24966794 0.54117647 0.42352941 0.64313725
v 13.00039681 -61.50000118 -40.25042856 0.54117647 0.42352941 0.64313725
v 13.00039681 -61.45839933 -39.99166289 0.54117647 0.42352941 0.64313725
v 13.00039681 -61.35855663 -39.75021441 0.54117647 0.42352941 0.64313725
v 13.00039681 -61.20047017 -39.54290509 0.54117647 0.42352941 0.64313725
v 13.00039681 -60.99246381 -39.38408319 0.54117647 0.42352941 0.64313725
v 13.00039681 -60.61805005 -39.26731746 0.54117647 0.42352941 0.64313725
v 18.00000018 -60.61805005 -39.26731746 0.54117647 0.42352941 0.64313725
v 18.00000018 22.99246381 -39.38408319 0.54117647 0.42352941 0.64313725
v 18.00000018 23.20047017 -39.54290509 0.54117647 0.42352941 0.64313725
v 18.00000018 23.35855663 -39.75021441 0.54117647 0.42352941 0.64313725
v 18.00000018 23.45839933 -39.99166289 0.54117647 0.42352941 0.64313725
v 18.00000018 23.50000118 -40.25042856 0.54117647 0.42352941 0.64313725
v 18.00000018 23.50000118 -44.30458755 0.54117647 0.42352941 0.64313725
v 13.00039681 -61.50000118 -44.30458755 0.54117647 0.42352941 0.64313725
v 18.00000018 -61.50000118 -40.25042856 0.54117647 0.42352941 0.64313725
v 18.00000018 -61.45839933 -39.99166289 0.54117647 0.42352941 0.64313725
v 18.00000018 -61.35855663 -39.75021441 0.54117647 0.42352941 0.64313725
v 18.00000018 -61.20047017 -39.54290509 0.54117647 0.42352941 0.64313725
v 18.00000018 -60.99246381 -39.38408319 0.54117647 0.42352941 0.64313725
v 18.00000018 -61.50000118 -44.30458755 0.54117647 0.42352941 0.64313725
f 33 34 44
f 33 44 35
f 33 35 51
f 33 51 36
f 33 36 37
f 33 37 38
f 33 38 39
f 33 39 40
f 33 40 41
f 33 41 42
f 33 42 43
f 33 43 34
f 34 43 58
f 34 58 44
f 35 44 58
f 35 58 45
f 35 45 46
f 35 46 47
f 35 47 48
f 35 48 49
f 35 49 50
f 35 50 51
f 36 52 38
f 36 38 37
f 36 51 63
f 36 63 62
f 36 62 61
f 36 61 60
f 36 60 59
f 36 59 64
f 36 64 57
f 36 57 56
f 36 56 55
f 36 55 54
f 36 54 53
f 36 53 52
f 38 52 53
f 38 53 39
f 39 53 54
f 39 54 40
f 40 54 55
f 40 55 41
f 41 55 56
f 41 56 42
f 42 56 57
f 42 57 43
f 43 57 64
f 43 64 58
f 45 59 60
f 45 60 46
f 45 58 64
f 45 64 59
f 46 60 61
f 46 61 47
f 47 61 62
f 47 62 48
f 48 62 63
f 48 63 49
f 49 63 51
f 49 51 50

o geometry_2
v 7.02656264 -61.50000118 -94.24951019 0.43529412 0.89019608 0.96078431
v 18.00000018 -61.50000118 -94.24951019 0.43529412 0.89019608 0.96078431
v 7.02656264 -61.50000118 -91.67122138 0.43529412 0.89019608 0.96078431
v 7.02656264 23.50000118 -94.24951019 0.43529412 0.89019608 0.96078431
v 18.00000018 -61.50000118 -89.25147406 0.43529412 0.89019608 0.96078431
v 18.00000018 23.50000118 -94.24951019 0.43529412 0.89019608 0.96078431
v 12.99664572 -61.50000118 -89.25147406 0.43529412 0.89019608 0.96078431
v 8.00080974 -33.99314762 -89.25147406 0.43529412 0.89019608 0.96078431
v 7.02656264 23.50000118 -91.67122138 0.43529412 0.89019608 0.96078431
v 18.00000018 23.50000118 -89.25147406 0.43529412 0.89019608 0.96078431
v 8.00080974 -4.00685238 -89.25147406 0.43529412 0.89019608 0.96078431
v 12.99664572 23.50000118 -89.25147406 0.43529412 0.89019608 0.96078431
f 65 66 69
f 65 69 71
f 65 71 67
f 65 67 73
f 65 73 68
f 65 68 70
f 65 70 66
f 66 70 74
f 66 74 69
f 67 71 72
f 67 72 75
f 67 75 73
f 68 73 76
f 68 76 74
f 68 74 70
f 69 74 76
f 69 76 75
f 69 75 72
f 69 72 71
f 73 75 76

o geometry_3
v -11.00000018 -45.99999874 -43.24966857 0.38039216 0.78823529 0.52549020
v -10.96478468 -45.99999874 -43.50853062 0.38039216 0.78823529 0.52549020
v -11.00000018 -45.99999874 -39.12493241 0.38039216 0.78823529 0.52549020
v -11.00000018 7.99999874 -43.24966857 0.38039216 0.78823529 0.52549020
v -10.86383484 -45.99999874 -43.74983418 0.38039216 0.78823529 0.52549020
v -10.96478468 7.99999874 -43.50853062 0.38039216 0.78823529 0.52549020
v 11.52110957 -45.99999874 -39.12493241 0.38039216 0.78823529 0.52549020
v -11.00000018 7.99999874 -39.12493241 0.38039216 0.78823529 0.52549020
v -10.70654251 -45.99999874 -43.95702413 0.38039216 0.78823529 0.52549020
v -10.86383484 7.99999874 -43.74983418 0.38039216 0.78823529 0.52549020
v 12.98370202 -45.99999874 -39.25035022 0.38039216 0.78823529 0.52549020
v 11.52345717 -40.47102456 -39.12493241 0.38039216 0.78823529 0.52549020
v 11.52110957 7.99999874 -39.12493241 0.38039216 0.78823529 0.52549020
v -10.49994761 -45.99999874 -44.11555221 0.38039216 0.78823529 0.52549020
v -10.70654251 7.99999874 -43.95702413 0.38039216 0.78823529 0.52549020
v 12.98370202 -45.99999874 -44.24999979 0.38039216 0.78823529 0.52549020
v 12.98370202 7.99999874 -39.25035022 0.38039216 0.78823529 0.52549020
v 11.52345717 2.47102456 -39.12493241 0.38039216 0.78823529 0.52549020
v -10.25813866 -45.99999874 -44.21588618 0.38039216 0.78823529 0.52549020
v -10.49994761 7.99999874 -44.11555221 0.38039216 0.78823529 0.52549020
v -9.99989648 -45.99999874 -44.24999979 0.38039216 0.78823529 0.52549020
v 12.98370202 7.99999874 -44.24999979 0.38039216 0.78823529 0.52549020
v -10.25813866 7.99999874 -44.21588618 0.38039216 0.78823529 0.52549020
v -9.99989648 7.99999874 -44.24999979 0.38039216 0.78823529 0.52549020
f 77 78 81
f 77 81 85
f 77 85 90
f 77 90 95
f 77 95 97
f 77 97 92
f 77 92 87
f 77 87 83
f 77 83 79
f 77 79 84
f 77 84 80
f 77 80 82
f 77 82 78
f 78 82 86
f 78 86 81
f 79 83 88
f 79 88 94
f 79 94 89
f 79 89 84
f 80 84 89
f 80 89 93
f 80 93 98
f 80 98 100
f 80 100 99
f 80 99 96
f 80 96 91
f 80 91 86
f 80 86 82
f 81 86 91
f 81 91 85
f 83 87 88
f 85 91 96
f 85 96 90
f 87 92 98
f 87 98 93
f 87 93 94
f 87 94 88
f 89 94 93
f 90 96 99
f 90 99 95
f 92 97 100
f 92 100 98
f 95 99 100
f 95 100 97

o geometry_4
v 18.00000018 23.50000118 -44.30458900 0.56470588 0.92549020 0.07058824
v 18.00000018 23.50000118 -89.25098425 0.56470588 0.92549020 0.07058824
v 13.00006351 23.50000118 -44.30458900 0.56470588 0.92549020 0.07058824
v 18.00000018 -61.50000118 -44.30458900 0.56470588 0.92549020 0.07058824
v 12.99761301 23.50000118 -89.25098425 0.56470588 0.92549020 0.07058824
v 18.00000018 -61.50000118 -89.25098425 0.56470588 0.92549020 0.07058824
v 12.99271131 -4.04013329 -64.99594547 0.56470588 0.92549020 0.07058824
v 12.99271131 -4.13997599 -64.75396697 0.56470588 0.92549020 0.07058824
v 12.99271131 -4.29806100 -64.54718513 0.56470588 0.92549020 0.07058824
v 12.99271131 -4.50606881 -64.38440057 0.56470588 0.92549020 0.07058824
v 12.99271131 -4.74735752 -64.28760830 0.56470588 0.92549020 0.07058824
v 12.99271131 -5.00528523 -64.25241164 0.56470588 0.92549020 0.07058824
v 13.00006351 -61.50000118 -44.30458900 0.56470588 0.92549020 0.07058824
v 12.99271131 -4.00685238 -65.25112272 0.56470588 0.92549020 0.07058824
v 12.99271131 -4.00685238 -89.25098425 0.56470588 0.92549020 0.07058824
v 12.99761301 -61.50000118 -89.25098425 0.56470588 0.92549020 0.07058824
v 12.99271131 -32.99471477 -64.25241164 0.56470588 0.92549020 0.07058824
v 12.99271131 -33.25264248 -64.28760830 0.56470588 0.92549020 0.07058824
v 12.99271131 -33.49393119 -64.38440057 0.56470588 0.92549020 0.07058824
v 12.99271131 -33.70193900 -64.54278555 0.56470588 0.92549020 0.07058824
v 12.99271131 -33.86002401 -64.75396697 0.56470588 0.92549020 0.07058824
v 12.99271131 -33.95986671 -64.99154589 0.56470588 0.92549020 0.07058824
v 12.99271131 -33.99314762 -89.25098425 0.56470588 0.92549020 0.07058824
v 12.99271131 -33.99314762 -65.25112272 0.56470588 0.92549020 0.07058824
f 101 102 105
f 101 105 103
f 101 103 113
f 101 113 104
f 101 104 106
f 101 106 102
f 102 106 116
f 102 116 123
f 102 123 115
f 102 115 105
f 103 105 107
f 103 107 108
f 103 108 109
f 103 109 110
f 103 110 111
f 103 111 112
f 103 112 117
f 103 117 113
f 104 113 116
f 104 116 106
f 105 114 107
f 105 115 114
f 107 114 115
f 107 115 123
f 107 123 124
f 107 124 122
f 107 122 121
f 107 121 120
f 107 120 119
f 107 119 118
f 107 118 117
f 107 117 112
f 107 112 111
f 107 111 110
f 107 110 109
f 107 109 108
f 113 117 118
f 113 118 119
f 113 119 120
f 113 120 121
f 113 121 122
f 113 122 116
f 116 122 124
f 116 124 123

o geometry_5
v 0.24999953 1.00000175 -94.25000000 0.08627451 0.01960784 0.83137255
v 0.24999953 1.00000175 -93.24985427 0.08627451 0.01960784 0.83137255
v 0.24999953 23.49779849 -94.25000000 0.08627451 0.01960784 0.83137255
v 7.02656264 1.00000175 -94.25000000 0.08627451 0.01960784 0.83137255
v 7.02656264 1.00000175 -91.67112574 0.08627451 0.01960784 0.83137255
v 0.24999953 23.49779849 -93.24985427 0.08627451 0.01960784 0.83137255
v 7.02656264 23.49779849 -94.25000000 0.08627451 0.01960784 0.83137255
v 7.02656264 23.49779849 -91.67112574 0.08627451 0.01960784 0.83137255
f 125 126 130
f 125 130 127
f 125 127 131
f 125 131 128
f 125 128 129
f 125 129 126
f 126 129 132
f 126 132 130
f 127 130 132
f 127 132 131
f 128 131 132
f 128 132 129

o geometry_6
v 11.52574464 -40.47425614 -39.12493241 0.77647059 0.86666667 0.97647059
v 11.52133346 -45.99945966 -39.12493241 0.77647059 0.86666667 0.97647059
v -11.00000018 -40.47858326 -39.12493241 0.77647059 0.86666667 0.97647059
v -11.00000018 -41.00000193 -11.00213581 0.77647059 0.86666667 0.97647059
v 10.99876128 -41.00000193 -11.00213581 0.77647059 0.86666667 0.97647059
v 10.99876128 -45.99945966 -11.00213581 0.77647059 0.86666667 0.97647059
v -11.00000018 -45.99945966 -39.12493241 0.77647059 0.86666667 0.97647059
v -11.00000018 -45.99945966 -11.00213581 0.77647059 0.86666667 0.97647059
f 133 134 139
f 133 139 135
f 133 135 136
f 133 136 137
f 133 137 138
f 133 138 134
f 134 138 140
f 134 140 139
f 135 139 140
f 135 140 136
f 136 140 138
f 136 138 137

o geometry_7
v 0.24999953 -61.49779849 -94.25000000 0.79607843 0.45882353 0.78039216
v 7.02656264 -61.49779849 -94.25000000 0.79607843 0.45882353 0.78039216
v 0.24999953 -61.49779849 -93.24985427 0.79607843 0.45882353 0.78039216
v 0.24999953 -39.00000175 -94.25000000 0.79607843 0.45882353 0.78039216
v 7.02656264 -61.49779849 -91.67112574 0.79607843 0.45882353 0.78039216
v 7.02656264 -39.00000175 -94.25000000 0.79607843 0.45882353 0.78039216
v 0.24999953 -39.00000175 -93.24985427 0.79607843 0.45882353 0.78039216
v 7.02656264 -39.00000175 -91.67112574 0.79607843 0.45882353 0.78039216
f 141 142 145
f 141 145 143
f 141 143 147
f 141 147 144
f 141 144 146
f 141 146 142
f 142 146 148
f 142 148 145
f 143 145 148
f 143 148 147
f 144 147 148
f 144 148 146

o geometry_8
v 11.52574464 2.47425614 -39.12493241 0.11764706 0.63921569 0.14117647
v -11.00000018 2.47858326 -39.12493241 0.11764706 0.63921569 0.14117647
v 11.52133346 7.99999874 -39.12493241 0.11764706 0.63921569 0.14117647
v 10.99876128 7.99999874 -11.00213581 0.11764706 0.63921569 0.14117647
v 10.99876128 3.00000193 -11.00213581 0.11764706 0.63921569 0.14117647
v -11.00000018 3.00000193 -11.00213581 0.11764706 0.63921569 0.14117647
v -11.00000018 7.99999874 -39.12493241 0.11764706 0.63921569 0.14117647
v -11.00000018 7.99999874 -11.00213581 0.11764706 0.63921569 0.14117647
f 149 150 155
f 149 155 151
f 149 151 152
f 149 152 153
f 149 153 154
f 149 154 150
f 150 154 156
f 150 156 155
f 151 155 156
f 151 156 152
f 152 156 154
f 152 154 153

o geometry_9
v -1.22901382 7.99999874 -4.32787894 0.94117647 0.52156863 0.41176471
v -1.22901382 0.00156456 -4.32787894 0.94117647 0.52156863 0.41176471
v -1.22901382 7.99999874 -11.00076492 0.94117647 0.52156863 0.41176471
v -4.76627327 7.99999874 2.64203395 0.94117647 0.52156863 0.41176471
v -4.63522846 0.00156456 2.49967933 0.94117647 0.52156863 0.41176471
v -1.27779687 0.00156456 -10.92137535 0.94117647 0.52156863 0.41176471
v -1.22901382 3.00126992 -11.00076492 0.94117647 0.52156863 0.41176471
v -10.99904375 7.99999874 -11.00076492 0.94117647 0.52156863 0.41176471
v -5.37175933 7.99999874 2.98286539 0.94117647 0.52156863 0.41176471
v -4.89731882 0.00156456 2.78575945 0.94117647 0.52156863 0.41176471
v -2.63416099 0.00156456 -10.67909688 0.94117647 0.52156863 0.41176471
v -10.99904375 3.00126992 -11.00076492 0.94117647 0.52156863 0.41176471
v -10.99904375 7.99999874 1.99870076 0.94117647 0.52156863 0.41176471
v -5.37175933 0.00156456 2.98286539 0.94117647 0.52156863 0.41176471
v -10.12859877 7.99999874 2.98286539 0.94117647 0.52156863 0.41176471
v -3.90156760 0.00156456 -10.28351700 0.94117647 0.52156863 0.41176471
v -5.11253826 0.00156456 -9.73873389 0.94117647 0.52156863 0.41176471
v -6.24794362 0.00156456 -9.05159906 0.94117647 0.52156863 0.41176471
v -7.29343432 0.00156456 -8.23305640 0.94117647 0.52156863 0.41176471
v -8.23274959 0.00156456 -7.29269341 0.94117647 0.52156863 0.41176471
v -9.05154295 0.00156456 -6.24693172 0.94117647 0.52156863 0.41176471
v -9.73833288 0.00156456 -5.11083077 0.94117647 0.52156863 0.41176471
v -10.28355654 0.00156456 -3.90218308 0.94117647 0.52156863 0.41176471
v -10.67860603 0.00156456 -2.63330922 0.94117647 0.52156863 0.41176471
v -10.91869485 0.00156456 -1.32747654 0.94117647 0.52156863 0.41176471
v -10.99904375 0.00156456 -0.00111248 0.94117647 0.52156863 0.41176471
v -10.99904375 0.00156456 1.99870076 0.94117647 0.52156863 0.41176471
v -10.91486913 7.99999874 2.37785611 0.94117647 0.52156863 0.41176471
v -10.12859877 0.00156456 2.98286539 0.94117647 0.52156863 0.41176471
v -10.60208285 7.99999874 2.78575945 0.94117647 0.52156863 0.41176471
v -10.91486913 0.00156456 2.37785611 0.94117647 0.52156863 0.41176471
v -10.60208285 0.00156456 2.78575945 0.94117647 0.52156863 0.41176471
f 157 158 163
f 157 163 159
f 157 159 164
f 157 164 169
f 157 169 184
f 157 184 186
f 157 186 171
f 157 171 165
f 157 165 160
f 157 160 161
f 157 161 158
f 158 162 163
f 158 161 166
f 158 166 170
f 158 170 185
f 158 185 188
f 158 188 187
f 158 187 183
f 158 183 182
f 158 182 181
f 158 181 180
f 158 180 179
f 158 179 178
f 158 178 177
f 158 177 176
f 158 176 175
f 158 175 174
f 158 174 173
f 158 173 172
f 158 172 167
f 158 167 162
f 159 163 168
f 159 168 164
f 160 165 166
f 160 166 161
f 162 167 168
f 162 168 163
f 164 168 182
f 164 182 183
f 164 183 169
f 165 170 166
f 165 171 185
f 165 185 170
f 167 172 168
f 168 172 173
f 168 173 174
f 168 174 175
f 168 175 176
f 168 176 177
f 168 177 178
f 168 178 179
f 168 179 180
f 168 180 181
f 168 181 182
f 169 183 187
f 169 187 184
f 171 186 188
f 171 188 185
f 184 187 188
f 184 188 186

o geometry_10
v 11.00000029 -38.00156456 1.99870076 0.26274510 0.77254902 0.45490196
v 10.91486054 -38.00156456 2.37785611 0.26274510 0.77254902 0.45490196
v 11.00000029 -45.99999874 1.99870076 0.26274510 0.77254902 0.45490196
v 11.00000029 -38.00156456 -0.00111248 0.26274510 0.77254902 0.45490196
v 10.91486054 -45.99999874 2.37785611 0.26274510 0.77254902 0.45490196
v 10.60300026 -38.00156456 2.78575945 0.26274510 0.77254902 0.45490196
v 11.00000029 -45.99999874 -11.00076492 0.26274510 0.77254902 0.45490196
v 10.91868699 -38.00156456 -1.32747654 0.26274510 0.77254902 0.45490196
v 11.00000029 -41.00126992 -11.00076492 0.26274510 0.77254902 0.45490196
v 10.60300026 -45.99999874 2.78575945 0.26274510 0.77254902 0.45490196
v 10.12851338 -38.00156456 2.98286539 0.26274510 0.77254902 0.45490196
v 1.22710107 -45.99999874 -11.00076492 0.26274510 0.77254902 0.45490196
v 10.67953069 -38.00156456 -2.63330922 0.26274510 0.77254902 0.45490196
v 1.22710107 -41.00126992 -11.00076492 0.26274510 0.77254902 0.45490196
v 1.27684563 -38.00156456 -10.92137535 0.26274510 0.77254902 0.45490196
v 2.63334234 -38.00156456 -10.67909688 0.26274510 0.77254902 0.45490196
v 3.90182964 -38.00156456 -10.28351700 0.26274510 0.77254902 0.45490196
v 5.11196234 -38.00156456 -9.73873389 0.26274510 0.77254902 0.45490196
v 6.24747838 -38.00156456 -9.05159906 0.26274510 0.77254902 0.45490196
v 7.29402822 -38.00156456 -8.23305640 0.26274510 0.77254902 0.45490196
v 8.23343586 -38.00156456 -7.29269341 0.26274510 0.77254902 0.45490196
v 9.05230820 -38.00156456 -6.24693172 0.26274510 0.77254902 0.45490196
v 9.73916625 -38.00156456 -5.11083077 0.26274510 0.77254902 0.45490196
v 10.28444352 -38.00156456 -3.90218308 0.26274510 0.77254902 0.45490196
v 10.12851338 -45.99999874 2.98286539 0.26274510 0.77254902 0.45490196
v 5.37216484 -38.00156456 2.98286539 0.26274510 0.77254902 0.45490196
v 1.22710107 -45.99999874 -4.32787894 0.26274510 0.77254902 0.45490196
v 1.22710107 -38.00156456 -4.32787894 0.26274510 0.77254902 0.45490196
v 5.37216484 -45.99999874 2.98286539 0.26274510 0.77254902 0.45490196
v 4.89672143 -38.00156456 2.78575945 0.26274510 0.77254902 0.45490196
v 4.76566357 -45.99999874 2.64203395 0.26274510 0.77254902 0.45490196
v 4.63460571 -38.00156456 2.49967933 0.26274510 0.77254902 0.45490196
f 189 190 193
f 189 193 191
f 189 191 195
f 189 195 197
f 189 197 192
f 189 192 196
f 189 196 201
f 189 201 212
f 189 212 211
f 189 211 210
f 189 210 209
f 189 209 208
f 189 208 207
f 189 207 206
f 189 206 205
f 189 205 204
f 189 204 203
f 189 203 216
f 189 216 220
f 189 220 218
f 189 218 214
f 189 214 199
f 189 199 194
f 189 194 190
f 190 194 198
f 190 198 193
f 191 193 198
f 191 198 213
f 191 213 217
f 191 217 219
f 191 219 215
f 191 215 200
f 191 200 195
f 192 197 196
f 194 199 213
f 194 213 198
f 195 200 202
f 195 202 197
f 196 197 201
f 197 202 203
f 197 203 204
f 197 204 205
f 197 205 206
f 197 206 207
f 197 207 208
f 197 208 209
f 197 209 210
f 197 210 211
f 197 211 212
f 197 212 201
f 199 214 217
f 199 217 213
f 200 215 216
f 200 216 202
f 202 216 203
f 214 218 217
f 215 219 220
f 215 220 216
f 217 218 219
f 218 220 219

o geometry_11
v 11.00000029 0.00156456 1.99870076 0.56470588 0.01568627 0.61568627
v 11.00000029 0.00156456 -0.00111248 0.56470588 0.01568627 0.61568627
v 11.00000029 7.99999874 -11.00076492 0.56470588 0.01568627 0.61568627
v 10.95691308 7.99999874 2.18896388 0.56470588 0.01568627 0.61568627
v 10.91502357 0.00156456 2.37785611 0.56470588 0.01568627 0.61568627
v 10.91861381 0.00156456 -1.32747654 0.56470588 0.01568627 0.61568627
v 11.00000029 3.00126992 -11.00076492 0.56470588 0.01568627 0.61568627
v -1.22710096 7.99999874 -11.00076492 0.56470588 0.01568627 0.61568627
v 10.60264378 7.99999874 2.78575945 0.56470588 0.01568627 0.61568627
v 10.60264378 0.00156456 2.78575945 0.56470588 0.01568627 0.61568627
v 10.67924231 0.00156456 -2.63330922 0.56470588 0.01568627 0.61568627
v 10.28427977 0.00156456 -3.90218308 0.56470588 0.01568627 0.61568627
v 9.73970895 0.00156456 -5.11083077 0.56470588 0.01568627 0.61568627
v 9.05271251 0.00156456 -6.24693172 0.56470588 0.01568627 0.61568627
v 8.23166792 0.00156456 -7.29269341 0.56470588 0.01568627 0.61568627
v 7.29213419 0.00156456 -8.23305640 0.56470588 0.01568627 0.61568627
v 6.24727713 0.00156456 -9.05159906 0.56470588 0.01568627 0.61568627
v 5.11026214 0.00156456 -9.73873389 0.56470588 0.01568627 0.61568627
v 3.90143557 0.00156456 -10.28351700 0.56470588 0.01568627 0.61568627
v 2.63276613 0.00156456 -10.67909688 0.56470588 0.01568627 0.61568627
v 1.32699413 0.00156456 -10.91726849 0.56470588 0.01568627 0.61568627
v 0.00087534 0.00156456 -10.99939694 0.56470588 0.01568627 0.61568627
v -1.22710096 3.00126992 -11.00076492 0.56470588 0.01568627 0.61568627
v -1.22710096 7.99999874 -4.32787894 0.56470588 0.01568627 0.61568627
v 10.12868728 7.99999874 2.98286539 0.56470588 0.01568627 0.61568627
v 10.12868728 0.00156456 2.98286539 0.56470588 0.01568627 0.61568627
v -1.22710096 0.00156456 -10.92411132 0.56470588 0.01568627 0.61568627
v 4.89482768 7.99999874 2.78575945 0.56470588 0.01568627 0.61568627
v -1.22710096 0.00156456 -4.32787894 0.56470588 0.01568627 0.61568627
v 5.36998026 7.99999874 2.98286539 0.56470588 0.01568627 0.61568627
v 5.36998026 0.00156456 2.98286539 0.56470588 0.01568627 0.61568627
v 4.89482768 0.00156456 2.78575945 0.56470588 0.01568627 0.61568627
f 221 222 227
f 221 227 223
f 221 223 224
f 221 224 225
f 221 225 230
f 221 230 246
f 221 246 251
f 221 251 252
f 221 252 249
f 221 249 247
f 221 247 242
f 221 242 241
f 221 241 240
f 221 240 239
f 221 239 238
f 221 238 237
f 221 237 236
f 221 236 235
f 221 235 234
f 221 234 233
f 221 233 232
f 221 232 231
f 221 231 226
f 221 226 222
f 222 226 227
f 223 227 243
f 223 243 228
f 223 228 244
f 223 244 248
f 223 248 250
f 223 250 245
f 223 245 229
f 223 229 224
f 224 229 225
f 225 229 230
f 226 231 227
f 227 231 232
f 227 232 233
f 227 233 234
f 227 234 235
f 227 235 236
f 227 236 237
f 227 237 238
f 227 238 239
f 227 239 240
f 227 240 241
f 227 241 242
f 227 242 243
f 228 243 247
f 228 247 249
f 228 249 244
f 229 245 246
f 229 246 230
f 242 247 243
f 244 249 252
f 244 252 248
f 245 250 251
f 245 251 246
f 248 252 251
f 248 251 250

o geometry_12
v 1.22710107 -38.00156456 -4.32787894 0.61176471 0.61568627 0.94117647
v -4.89482775 -38.00156456 2.78575945 0.61176471 0.61568627 0.94117647
v 1.22710107 -45.99999874 -4.32787894 0.61176471 0.61568627 0.94117647
v 1.22710107 -38.00156456 -10.92411132 0.61176471 0.61568627 0.94117647
v -5.36998051 -38.00156456 2.98286539 0.61176471 0.61568627 0.94117647
v -4.89482775 -45.99999874 2.78575945 0.61176471 0.61568627 0.94117647
v 1.22710107 -45.99999874 -11.00076492 0.61176471 0.61568627 0.94117647
v 1.22710107 -41.00126992 -11.00076492 0.61176471 0.61568627 0.94117647
v -0.00087522 -38.00156456 -10.99939694 0.61176471 0.61568627 0.94117647
v -5.36998051 -45.99999874 2.98286539 0.61176471 0.61568627 0.94117647
v -10.12868717 -38.00156456 2.98286539 0.61176471 0.61568627 0.94117647
v -11.00000018 -45.99999874 -11.00076492 0.61176471 0.61568627 0.94117647
v -11.00000018 -41.00126992 -11.00076492 0.61176471 0.61568627 0.94117647
v -1.32699402 -38.00156456 -10.91726849 0.61176471 0.61568627 0.94117647
v -10.12868717 -45.99999874 2.98286539 0.61176471 0.61568627 0.94117647
v -10.60264366 -38.00156456 2.78575945 0.61176471 0.61568627 0.94117647
v -10.95691296 -45.99999874 2.18896388 0.61176471 0.61568627 0.94117647
v -11.00000018 -38.00156456 1.99870076 0.61176471 0.61568627 0.94117647
v -11.00000018 -38.00156456 -0.00111248 0.61176471 0.61568627 0.94117647
v -10.91861370 -38.00156456 -1.32747654 0.61176471 0.61568627 0.94117647
v -10.67924220 -38.00156456 -2.63330922 0.61176471 0.61568627 0.94117647
v -10.28427966 -38.00156456 -3.90218308 0.61176471 0.61568627 0.94117647
v -9.73970956 -38.00156456 -5.11083077 0.61176471 0.61568627 0.94117647
v -9.05271240 -38.00156456 -6.24693172 0.61176471 0.61568627 0.94117647
v -8.23166780 -38.00156456 -7.29269341 0.61176471 0.61568627 0.94117647
v -7.29333143 -38.00156456 -8.23305640 0.61176471 0.61568627 0.94117647
v -6.24847401 -38.00156456 -9.05159906 0.61176471 0.61568627 0.94117647
v -5.11026166 -38.00156456 -9.73873389 0.61176471 0.61568627 0.94117647
v -3.90263199 -38.00156456 -10.28351700 0.61176471 0.61568627 0.94117647
v -2.63396318 -38.00156456 -10.67909688 0.61176471 0.61568627 0.94117647
v -10.60264366 -45.99999874 2.78575945 0.61176471 0.61568627 0.94117647
v -10.91502418 -38.00156456 2.37785611 0.61176471 0.61568627 0.94117647
f 253 254 258
f 253 258 255
f 253 255 259
f 253 259 260
f 253 260 256
f 253 256 261
f 253 261 266
f 253 266 282
f 253 282 281
f 253 281 280
f 253 280 279
f 253 279 278
f 253 278 277
f 253 277 276
f 253 276 275
f 253 275 274
f 253 274 273
f 253 273 272
f 253 272 271
f 253 271 270
f 253 270 284
f 253 284 268
f 253 268 263
f 253 263 257
f 253 257 254
f 254 257 262
f 254 262 258
f 255 258 262
f 255 262 267
f 255 267 283
f 255 283 269
f 255 269 264
f 255 264 259
f 256 260 261
f 257 263 267
f 257 267 262
f 259 264 265
f 259 265 260
f 260 265 261
f 261 265 266
f 263 268 283
f 263 283 267
f 264 269 270
f 264 270 271
f 264 271 265
f 265 271 272
f 265 272 273
f 265 273 274
f 265 274 275
f 265 275 276
f 265 276 277
f 265 277 278
f 265 278 279
f 265 279 280
f 265 280 281
f 265 281 282
f 265 282 266
f 268 284 283
f 269 283 284
f 269 284 270

