# https://github.com/mikedh/trimesh

o geometry_0
v -48.50000118 3.02777222 -62.26091521 0.54509804 0.71372549 0.60000000
v -48.50000118 13.28110474 -86.06906193 0.54509804 0.71372549 0.60000000
v -43.49999990 3.02777222 -62.26091521 0.54509804 0.71372549 0.60000000
v -48.50000118 3.02777222 -22.31440386 0.54509804 0.71372549 0.60000000
v -43.49999990 13.28110474 -86.06282120 0.54509804 0.71372549 0.60000000
v -48.50000118 13.28110474 -46.09134613 0.54509804 0.71372549 0.60000000
v -43.49999990 3.02777222 -22.31440386 0.54509804 0.71372549 0.60000000
v -43.49999990 13.28110474 -46.09134613 0.54509804 0.71372549 0.60000000
f 1 2 3
f 1 3 7
f 1 7 4
f 1 4 6
f 1 6 2
f 2 5 3
f 2 6 8
f 2 8 5
f 3 5 8
f 3 8 7
f 4 7 8
f 4 8 6

o geometry_1
v -36.28695189 2.99991366 -19.71547958 0.54117647 0.42352941 0.64313725
v -36.28695189 -0.00000012 -19.71547958 0.54117647 0.42352941 0.64313725
v -36.28695189 2.99991366 -62.19445953 0.54117647 0.42352941 0.64313725
v -43.49929822 3.02777222 -22.31835848 0.54117647 0.42352941 0.64313725
v -48.50000118 3.02777222 -22.31835848 0.54117647 0.42352941 0.64313725
v -48.50000118 2.99991366 -22.25172495 0.54117647 0.42352941 0.64313725
v -48.50000118 -0.00000012 -22.25172495 0.54117647 0.42352941 0.64313725
v -36.28695189 -0.00000012 -55.22707234 0.54117647 0.42352941 0.64313725
v -48.50000118 3.02777222 -62.26109306 0.54117647 0.42352941 0.64313725
v -43.49929822 3.02777222 -62.25692826 0.54117647 0.42352941 0.64313725
v -48.50000118 -0.00000012 -55.22707234 0.54117647 0.42352941 0.64313725
f 9 10 16
f 9 16 11
f 9 11 18
f 9 18 12
f 9 12 13
f 9 13 14
f 9 14 15
f 9 15 10
f 10 15 19
f 10 19 16
f 11 16 17
f 11 17 18
f 12 18 17
f 12 17 13
f 13 17 19
f 13 19 15
f 13 15 14
f 16 19 17

o geometry_2
v 31.49092659 -0.00000012 -55.22788476 0.43529412 0.89019608 0.96078431
v 31.49092659 0.18850386 -55.66539304 0.43529412 0.89019608 0.96078431
v 31.50024565 13.28110474 -86.06272096 0.43529412 0.89019608 0.96078431
v 31.50024565 3.00046822 -62.19631558 0.43529412 0.89019608 0.96078431
v 36.50000118 -0.00000012 -55.22788476 0.43529412 0.89019608 0.96078431
v 31.49092659 -0.00000012 -21.29244400 0.43529412 0.89019608 0.96078431
v 31.49092659 3.00046822 -62.18997623 0.43529412 0.89019608 0.96078431
v 36.50000118 13.28110474 -86.06906193 0.43529412 0.89019608 0.96078431
v 31.50024565 13.28110474 -46.09093224 0.43529412 0.89019608 0.96078431
v 36.50000118 -0.00000012 -22.25622927 0.43529412 0.89019608 0.96078431
v 31.49092659 3.00046822 -21.29244400 0.43529412 0.89019608 0.96078431
v 36.50000118 13.28110474 -46.09093224 0.43529412 0.89019608 0.96078431
v 36.50000118 3.00046822 -22.25622927 0.43529412 0.89019608 0.96078431
f 20 21 22
f 20 22 23
f 20 23 24
f 20 24 29
f 20 29 25
f 20 25 30
f 20 30 26
f 20 26 21
f 21 26 22
f 22 27 23
f 22 26 30
f 22 30 28
f 22 28 31
f 22 31 27
f 23 27 24
f 24 27 31
f 24 31 32
f 24 32 29
f 25 29 32
f 25 32 30
f 28 30 31
f 30 32 31

o geometry_3
v 11.52013003 20.24952504 -62.24955256 0.38039216 0.78823529 0.52549020
v 11.52013003 24.36268108 -62.26521258 0.38039216 0.78823529 0.52549020
v -16.04885486 24.25011231 -62.24955256 0.38039216 0.78823529 0.52549020
v -16.04885486 20.24952504 -62.24955256 0.38039216 0.78823529 0.52549020
v 11.52013003 20.24952504 -102.24563728 0.38039216 0.78823529 0.52549020
v 11.52013003 24.71409033 -62.37483439 0.38039216 0.78823529 0.52549020
v -16.04885486 24.50950960 -62.28870263 0.38039216 0.78823529 0.52549020
v -16.04885486 20.24952504 -102.24563728 0.38039216 0.78823529 0.52549020
v 11.52013003 25.24952511 -102.24563728 0.38039216 0.78823529 0.52549020
v 11.52013003 24.92650229 -62.52360627 0.38039216 0.78823529 0.52549020
v -16.04885486 24.73758320 -62.38266441 0.38039216 0.78823529 0.52549020
v -16.04885486 30.24952518 -102.24563728 0.38039216 0.78823529 0.52549020
v 7.99844599 30.24952518 -102.24563728 0.38039216 0.78823529 0.52549020
v 8.25751225 30.24952518 -102.21040141 0.38039216 0.78823529 0.52549020
v 8.49498979 30.24952518 -102.10861285 0.38039216 0.78823529 0.52549020
v 8.70548183 30.24952518 -101.95200935 0.38039216 0.78823529 0.52549020
v 8.86469965 30.24952518 -101.74450994 0.38039216 0.78823529 0.52549020
v 8.96454809 30.24952518 -101.50178114 0.38039216 0.78823529 0.52549020
v 8.99693198 30.24952518 -101.24338584 0.38039216 0.78823529 0.52549020
v 11.52013003 25.24952511 -63.25571820 0.38039216 0.78823529 0.52549020
v 11.52013003 25.09290786 -62.72327242 0.38039216 0.78823529 0.52549020
v -16.04885486 24.95782598 -62.54709631 0.38039216 0.78823529 0.52549020
v -16.04885486 30.24952518 -72.25248794 0.38039216 0.78823529 0.52549020
v 8.99693198 30.24952518 -73.25473938 0.38039216 0.78823529 0.52549020
v 11.52013003 25.21428641 -63.01690036 0.38039216 0.78823529 0.52549020
v 8.70548183 30.24952518 -72.54611587 0.38039216 0.78823529 0.52549020
v 8.49498979 30.24952518 -72.38951560 0.38039216 0.78823529 0.52549020
v 8.25751225 30.24952518 -72.28772381 0.38039216 0.78823529 0.52549020
v 7.99844599 30.24952518 -72.25248794 0.38039216 0.78823529 0.52549020
v -16.04885486 25.10856991 -62.74284827 0.38039216 0.78823529 0.52549020
v 8.96454809 30.24952518 -72.99634732 0.38039216 0.78823529 0.52549020
v 8.86469965 30.24952518 -72.75361528 0.38039216 0.78823529 0.52549020
f 33 34 35
f 33 35 36
f 33 36 40
f 33 40 37
f 33 37 41
f 33 41 52
f 33 52 57
f 33 57 53
f 33 53 42
f 33 42 38
f 33 38 34
f 34 38 39
f 34 39 35
f 35 39 43
f 35 43 54
f 35 54 62
f 35 62 55
f 35 55 44
f 35 44 40
f 35 40 36
f 37 40 44
f 37 44 45
f 37 45 41
f 38 42 43
f 38 43 39
f 41 45 46
f 41 46 47
f 41 47 48
f 41 48 49
f 41 49 50
f 41 50 51
f 41 51 56
f 41 56 52
f 42 53 54
f 42 54 43
f 44 55 61
f 44 61 60
f 44 60 59
f 44 59 58
f 44 58 64
f 44 64 63
f 44 63 56
f 44 56 51
f 44 51 50
f 44 50 49
f 44 49 48
f 44 48 47
f 44 47 46
f 44 46 45
f 52 56 57
f 53 57 58
f 53 58 59
f 53 59 60
f 53 60 61
f 53 61 62
f 53 62 54
f 55 62 61
f 56 63 57
f 57 63 64
f 57 64 58

o geometry_4
v -26.00083614 37.99952328 -101.24920297 0.56470588 0.92549020 0.07058824
v -16.04885486 30.24869497 -97.25709566 0.56470588 0.92549020 0.07058824
v -26.00083614 37.99952328 -102.24906160 0.56470588 0.92549020 0.07058824
v -48.50000118 37.99952328 -101.24920297 0.56470588 0.92549020 0.07058824
v -16.04885486 20.24995187 -97.25709566 0.56470588 0.92549020 0.07058824
v -16.04885486 30.24869497 -102.24906160 0.56470588 0.92549020 0.07058824
v -21.00102241 30.24869497 -97.25709566 0.56470588 0.92549020 0.07058824
v -48.50000118 37.99952328 -102.24906160 0.56470588 0.92549020 0.07058824
v -48.50000118 25.26977676 -97.25709566 0.56470588 0.92549020 0.07058824
v -16.04885486 20.24995187 -102.24906160 0.56470588 0.92549020 0.07058824
v -43.49701211 18.10138110 -97.25709566 0.56470588 0.92549020 0.07058824
v -48.50000118 20.24995187 -102.24906160 0.56470588 0.92549020 0.07058824
v -48.50000118 18.10138110 -97.25709566 0.56470588 0.92549020 0.07058824
f 65 66 70
f 65 70 67
f 65 67 72
f 65 72 68
f 65 68 71
f 65 71 66
f 66 69 74
f 66 74 70
f 66 71 73
f 66 73 77
f 66 77 75
f 66 75 69
f 67 70 74
f 67 74 76
f 67 76 72
f 68 72 76
f 68 76 77
f 68 77 73
f 68 73 71
f 69 75 74
f 74 75 77
f 74 77 76

o geometry_5
v -48.50000118 13.28110514 -86.06818564 0.08627451 0.01960784 0.83137255
v -48.50000118 18.10000472 -97.25709243 0.08627451 0.01960784 0.83137255
v -43.50021655 13.28110514 -86.06818564 0.08627451 0.01960784 0.83137255
v -48.50000118 13.28110514 -46.09063233 0.08627451 0.01960784 0.83137255
v -43.50021655 18.10000472 -97.25709243 0.08627451 0.01960784 0.83137255
v -48.50000118 25.26792718 -97.25709243 0.08627451 0.01960784 0.83137255
v -43.49188372 20.24838684 -97.25709243 0.08627451 0.01960784 0.83137255
v -43.50021655 13.28110514 -46.09063233 0.08627451 0.01960784 0.83137255
v -48.50000118 25.11539349 -62.75379056 0.08627451 0.01960784 0.83137255
v -43.49188372 25.26792718 -97.25709243 0.08627451 0.01960784 0.83137255
v -48.50000118 25.24915406 -63.24962783 0.08627451 0.01960784 0.83137255
v -43.49188372 20.24838684 -62.25294292 0.08627451 0.01960784 0.83137255
v -43.49188372 24.24947005 -62.25294292 0.08627451 0.01960784 0.83137255
v -43.49188372 24.31048328 -62.25795167 0.08627451 0.01960784 0.83137255
v -43.49188372 24.49235083 -62.28299381 0.08627451 0.01960784 0.83137255
v -43.49188372 24.50760424 -62.28800256 0.08627451 0.01960784 0.83137255
v -43.49188372 24.52168428 -62.29301132 0.08627451 0.01960784 0.83137255
v -43.49188372 24.74931206 -62.38817112 0.08627451 0.01960784 0.83137255
v -43.49188372 24.76104535 -62.39317987 0.08627451 0.01960784 0.83137255
v -43.49188372 24.95581957 -62.54343433 0.08627451 0.01960784 0.83137255
v -43.49188372 25.11539349 -62.75379056 0.08627451 0.01960784 0.83137255
v -43.49188372 25.12125993 -62.76380645 0.08627451 0.01960784 0.83137255
v -48.50000118 25.21512713 -62.99419607 0.08627451 0.01960784 0.83137255
v -43.49188372 25.24915406 -63.24962783 0.08627451 0.01960784 0.83137255
v -43.49188372 25.23859373 -63.16949105 0.08627451 0.01960784 0.83137255
v -43.49188372 25.21512713 -62.99419607 0.08627451 0.01960784 0.83137255
f 78 79 82
f 78 82 80
f 78 80 85
f 78 85 81
f 78 81 86
f 78 86 100
f 78 100 88
f 78 88 83
f 78 83 79
f 79 83 87
f 79 87 84
f 79 84 82
f 80 82 84
f 80 84 89
f 80 89 85
f 81 85 98
f 81 98 86
f 83 88 101
f 83 101 87
f 84 87 101
f 84 101 102
f 84 102 103
f 84 103 99
f 84 99 98
f 84 98 97
f 84 97 96
f 84 96 95
f 84 95 94
f 84 94 93
f 84 93 92
f 84 92 91
f 84 91 90
f 84 90 89
f 85 89 90
f 85 90 91
f 85 91 92
f 85 92 93
f 85 93 94
f 85 94 95
f 85 95 96
f 85 96 97
f 85 97 98
f 86 98 99
f 86 99 100
f 88 102 101
f 88 100 102
f 99 103 100
f 100 103 102

o geometry_6
v -16.05422415 24.25011231 -62.25297364 0.77647059 0.86666667 0.97647059
v -16.05422415 20.24952504 -62.25297364 0.77647059 0.86666667 0.97647059
v -16.05422415 24.50950960 -62.28723460 0.77647059 0.86666667 0.97647059
v -43.48919988 24.29905515 -62.25639958 0.77647059 0.86666667 0.97647059
v -43.48919988 24.25011231 -62.25297364 0.77647059 0.86666667 0.97647059
v -43.48919988 20.24952504 -62.25297364 0.77647059 0.86666667 0.97647059
v -16.05422415 20.24952504 -97.25366811 0.77647059 0.86666667 0.97647059
v -16.05422415 24.72387906 -62.37631212 0.77647059 0.86666667 0.97647059
v -43.48919988 24.50950960 -62.28723460 0.77647059 0.86666667 0.97647059
v -43.48919988 20.24952504 -97.25366811 0.77647059 0.86666667 0.97647059
v -16.05422415 30.24952518 -97.25366811 0.77647059 0.86666667 0.97647059
v -16.05422415 24.75128694 -62.39001747 0.77647059 0.86666667 0.97647059
v -43.48919988 24.75618130 -62.39344341 0.77647059 0.86666667 0.97647059
v -43.48919988 25.26714466 -97.25366811 0.77647059 0.86666667 0.97647059
v -21.00406840 30.24952518 -97.25366811 0.77647059 0.86666667 0.97647059
v -16.05422415 30.24952518 -72.25366171 0.77647059 0.86666667 0.97647059
v -16.05422415 24.95782598 -62.54761529 0.77647059 0.86666667 0.97647059
v -43.48919988 24.95782598 -62.54761529 0.77647059 0.86666667 0.97647059
v -43.48919988 25.24952511 -63.25338520 0.77647059 0.86666667 0.97647059
v -21.00406840 30.24952518 -73.25407327 0.77647059 0.86666667 0.97647059
v -20.00228258 30.24952518 -72.25366171 0.77647059 0.86666667 0.97647059
v -16.05422415 25.11737928 -62.75317942 0.77647059 0.86666667 0.97647059
v -43.48919988 24.96663535 -62.55789471 0.77647059 0.86666667 0.97647059
v -43.48919988 25.24365179 -63.20542051 0.77647059 0.86666667 0.97647059
v -20.86978116 30.24952518 -72.75386749 0.77647059 0.86666667 0.97647059
v -20.96915427 30.24952518 -72.99369258 0.77647059 0.86666667 0.97647059
v -20.26280070 30.24952518 -72.28792267 0.77647059 0.86666667 0.97647059
v -43.48919988 25.11737928 -62.75317942 0.77647059 0.86666667 0.97647059
v -43.48919988 25.21820182 -63.00328231 0.77647059 0.86666667 0.97647059
v -20.71132160 30.24952518 -72.54487743 0.77647059 0.86666667 0.97647059
v -20.50183196 30.24952518 -72.38727799 0.77647059 0.86666667 0.97647059
f 104 105 110
f 104 110 114
f 104 114 119
f 104 119 125
f 104 125 120
f 104 120 115
f 104 115 111
f 104 111 106
f 104 106 107
f 104 107 108
f 104 108 109
f 104 109 105
f 105 109 113
f 105 113 110
f 106 111 112
f 106 112 107
f 107 112 116
f 107 116 121
f 107 121 126
f 107 126 131
f 107 131 132
f 107 132 127
f 107 127 122
f 107 122 117
f 107 117 113
f 107 113 109
f 107 109 108
f 110 113 117
f 110 117 118
f 110 118 114
f 111 115 116
f 111 116 112
f 114 118 123
f 114 123 129
f 114 129 128
f 114 128 133
f 114 133 134
f 114 134 130
f 114 130 124
f 114 124 119
f 115 120 116
f 116 120 121
f 117 122 123
f 117 123 118
f 119 124 131
f 119 131 125
f 120 125 126
f 120 126 121
f 122 127 128
f 122 128 129
f 122 129 123
f 124 130 131
f 125 131 126
f 127 132 128
f 128 132 133
f 130 134 132
f 130 132 131
f 132 134 133

o geometry_7
v 36.50000118 37.99952328 -101.24918681 0.79607843 0.45882353 0.78039216
v 36.50000118 37.99952328 -102.24954987 0.79607843 0.45882353 0.78039216
v 14.00197758 37.99952328 -101.24918681 0.79607843 0.45882353 0.78039216
v 36.48777517 25.25072112 -97.23792725 0.79607843 0.45882353 0.78039216
v 36.50000118 25.24877251 -97.23792725 0.79607843 0.45882353 0.78039216
v 36.50000118 20.25019762 -102.24954987 0.79607843 0.45882353 0.78039216
v 14.00197758 37.99952328 -102.24954987 0.79607843 0.45882353 0.78039216
v 11.52257296 25.25072112 -97.23792725 0.79607843 0.45882353 0.78039216
v 36.50000118 18.09096910 -97.23792725 0.79607843 0.45882353 0.78039216
v 11.52257296 20.25019762 -102.24954987 0.79607843 0.45882353 0.78039216
v 11.52257296 25.25072112 -102.24954987 0.79607843 0.45882353 0.78039216
v 11.52257296 20.25019762 -97.23792725 0.79607843 0.45882353 0.78039216
v 31.49962481 18.09096910 -97.23792725 0.79607843 0.45882353 0.78039216
f 135 136 141
f 135 141 137
f 135 137 142
f 135 142 138
f 135 138 139
f 135 139 143
f 135 143 140
f 135 140 136
f 136 140 144
f 136 144 145
f 136 145 141
f 137 141 145
f 137 145 142
f 138 142 146
f 138 146 147
f 138 147 143
f 138 143 139
f 140 143 147
f 140 147 144
f 142 145 144
f 142 144 146
f 144 147 146

o geometry_8
v -36.28695189 2.99999935 -62.19660013 0.11764706 0.63921569 0.14117647
v -36.28695189 -0.00000012 -55.22776431 0.11764706 0.63921569 0.14117647
v -36.28695189 2.99999935 -19.71826042 0.11764706 0.63921569 0.14117647
v 31.49043509 2.99999935 -62.19233509 0.11764706 0.63921569 0.14117647
v 31.49043509 -0.00000012 -55.22776431 0.11764706 0.63921569 0.14117647
v -36.28695189 -0.00000012 -19.71826042 0.11764706 0.63921569 0.14117647
v -32.75742976 2.99999935 -18.62644643 0.11764706 0.63921569 0.14117647
v 31.49043509 2.99999935 -21.29626928 0.11764706 0.63921569 0.14117647
v 31.49043509 -0.00000012 -21.29626928 0.11764706 0.63921569 0.14117647
v -32.75742976 -0.00000012 -18.62644643 0.11764706 0.63921569 0.14117647
v 20.75592132 2.99999935 -18.62644643 0.11764706 0.63921569 0.14117647
v 20.75592132 -0.00000012 -18.62644643 0.11764706 0.63921569 0.14117647
f 148 149 153
f 148 153 150
f 148 150 154
f 148 154 158
f 148 158 155
f 148 155 151
f 148 151 152
f 148 152 149
f 149 152 156
f 149 156 159
f 149 159 157
f 149 157 153
f 150 153 157
f 150 157 154
f 151 155 156
f 151 156 152
f 154 157 159
f 154 159 158
f 155 158 159
f 155 159 156

o geometry_9
v -23.00000080 0.00058677 -7.99810912 0.94117647 0.52156863 0.41176471
v -23.00000080 -0.00000012 6.24860634 0.94117647 0.52156863 0.41176471
v -23.00000080 2.99999935 6.24860634 0.94117647 0.52156863 0.41176471
v -22.99667187 2.99999935 -7.99810912 0.94117647 0.52156863 0.41176471
v -11.99725933 -0.00000012 -7.99810912 0.94117647 0.52156863 0.41176471
v 11.00000080 -0.00000012 6.24860634 0.94117647 0.52156863 0.41176471
v 11.00000080 2.99999935 6.24860634 0.94117647 0.52156863 0.41176471
v 11.00000080 2.99999935 -7.99810912 0.94117647 0.52156863 0.41176471
v 10.99667187 -0.00000012 -7.99810912 0.94117647 0.52156863 0.41176471
f 160 161 162
f 160 162 163
f 160 163 167
f 160 167 168
f 160 168 164
f 160 164 161
f 161 164 168
f 161 168 165
f 161 165 166
f 161 166 162
f 162 166 167
f 162 167 163
f 165 168 167
f 165 167 166

o geometry_10
v 31.49999990 13.28110514 -86.06784936 0.26274510 0.77254902 0.45490196
v 31.49999990 18.09060705 -97.23743575 0.26274510 0.77254902 0.45490196
v 36.50000118 13.28110514 -86.06784936 0.26274510 0.77254902 0.45490196
v 31.49999990 13.28110514 -46.09063394 0.26274510 0.77254902 0.45490196
v 36.50000118 18.09060705 -97.23743575 0.26274510 0.77254902 0.45490196
v 31.49999990 20.24156286 -97.23743575 0.26274510 0.77254902 0.45490196
v 36.50000118 13.28110514 -46.09063394 0.26274510 0.77254902 0.45490196
v 31.49999990 20.24156286 -62.23171636 0.26274510 0.77254902 0.45490196
v 36.50000118 20.24156286 -97.23743575 0.26274510 0.77254902 0.45490196
v 36.50000118 20.24156286 -62.23171636 0.26274510 0.77254902 0.45490196
f 169 170 173
f 169 173 171
f 169 171 175
f 169 175 172
f 169 172 176
f 169 176 174
f 169 174 170
f 170 174 177
f 170 177 173
f 171 173 177
f 171 177 178
f 171 178 175
f 172 175 178
f 172 178 176
f 174 176 178
f 174 178 177

o geometry_11
v -32.75964312 -0.00000012 -18.62540846 0.56470588 0.01568627 0.61568627
v -22.99981163 -0.00000012 -8.00019475 0.56470588 0.01568627 0.61568627
v -22.99981163 0.00058677 -7.99811559 0.56470588 0.01568627 0.61568627
v -32.75964312 2.99999935 -18.62540846 0.56470588 0.01568627 0.61568627
v 20.75963988 -0.00000012 -18.62540846 0.56470588 0.01568627 0.61568627
v -11.99839350 -0.00000012 -7.99811559 0.56470588 0.01568627 0.61568627
v -22.99457330 2.99999935 -7.99811559 0.56470588 0.01568627 0.61568627
v -22.99981163 2.99999935 -8.00019475 0.56470588 0.01568627 0.61568627
v 20.75963988 2.99999935 -18.62540846 0.56470588 0.01568627 0.61568627
v 10.99981163 2.99999935 -7.99811559 0.56470588 0.01568627 0.61568627
v 10.99981163 -0.00000012 -8.00019475 0.56470588 0.01568627 0.61568627
v 10.99457330 -0.00000012 -7.99811559 0.56470588 0.01568627 0.61568627
f 179 180 181
f 179 181 182
f 179 182 187
f 179 187 183
f 179 183 189
f 179 189 190
f 179 190 184
f 179 184 180
f 180 184 181
f 181 185 186
f 181 186 182
f 181 184 190
f 181 190 188
f 181 188 185
f 182 186 185
f 182 185 188
f 182 188 187
f 183 187 188
f 183 188 189
f 188 190 189

o geometry_12
v 36.50000118 20.24156286 -62.23108744 0.61176471 0.61568627 0.94117647
v 36.50000118 24.24950117 -62.25164627 0.61176471 0.61568627 0.94117647
v 31.49962481 20.24156286 -62.23108744 0.61176471 0.61568627 0.94117647
v 36.50000118 20.24156286 -97.23743575 0.61176471 0.61568627 0.94117647
v 11.52257296 24.24950117 -62.25164627 0.61176471 0.61568627 0.94117647
v 36.50000118 24.50833098 -62.28591208 0.61176471 0.61568627 0.94117647
v 11.52257296 24.49264427 -62.28248615 0.61176471 0.61568627 0.94117647
v 11.52257296 20.24989650 -62.25164627 0.61176471 0.61568627 0.94117647
v 31.49962481 20.24156286 -97.23743575 0.61176471 0.61568627 0.94117647
v 36.50000118 25.24756438 -97.23743575 0.61176471 0.61568627 0.94117647
v 36.50000118 24.74951294 -62.38528519 0.61176471 0.61568627 0.94117647
v 11.52257296 24.67745272 -62.35444531 0.61176471 0.61568627 0.94117647
v 11.52257296 24.50833098 -62.28591208 0.61176471 0.61568627 0.94117647
v 11.52257296 20.24989650 -97.23743575 0.61176471 0.61568627 0.94117647
v 36.48777517 25.24952511 -97.23743575 0.61176471 0.61568627 0.94117647
v 36.50000118 25.24952511 -63.25221951 0.61176471 0.61568627 0.94117647
v 36.50000118 24.95638099 -62.54290888 0.61176471 0.61568627 0.94117647
v 11.52257296 24.74951294 -62.38528519 0.61176471 0.61568627 0.94117647
v 11.52257296 25.24952511 -97.23743575 0.61176471 0.61568627 0.94117647
v 11.52257296 25.24952511 -63.25221951 0.61176471 0.61568627 0.94117647
v 11.52257296 25.22942665 -63.09802176 0.61176471 0.61568627 0.94117647
v 36.50000118 25.21521040 -62.99179678 0.61176471 0.61568627 0.94117647
v 36.50000118 25.11520837 -62.75193289 0.61176471 0.61568627 0.94117647
v 11.52257296 24.95638099 -62.54290888 0.61176471 0.61568627 0.94117647
v 11.52257296 25.21521040 -62.99179678 0.61176471 0.61568627 0.94117647
v 11.52257296 25.18530785 -62.91983762 0.61176471 0.61568627 0.94117647
v 11.52257296 25.11520837 -62.75193289 0.61176471 0.61568627 0.94117647
f 191 192 195
f 191 195 193
f 191 193 199
f 191 199 194
f 191 194 200
f 191 200 206
f 191 206 212
f 191 212 213
f 191 213 207
f 191 207 201
f 191 201 196
f 191 196 192
f 192 196 197
f 192 197 195
f 193 195 198
f 193 198 204
f 193 204 199
f 194 199 204
f 194 204 209
f 194 209 205
f 194 205 200
f 195 197 203
f 195 203 202
f 195 202 208
f 195 208 214
f 195 214 217
f 195 217 216
f 195 216 215
f 195 215 211
f 195 211 210
f 195 210 209
f 195 209 204
f 195 204 198
f 196 201 202
f 196 202 203
f 196 203 197
f 200 205 206
f 201 207 214
f 201 214 208
f 201 208 202
f 205 209 210
f 205 210 206
f 206 210 211
f 206 211 212
f 207 213 217
f 207 217 214
f 211 215 212
f 212 215 216
f 212 216 213
f 213 216 217

